<svg width="1008" height="179" viewBox="0 0 1008 179" fill="none" xmlns="http://www.w3.org/2000/svg">
<g filter="url(#filter0_d_404_6)">
<path d="M4.33333 83C4.33333 93.3093 12.6907 101.667 23 101.667C33.3093 101.667 41.6667 93.3093 41.6667 83C41.6667 72.6907 33.3093 64.3333 23 64.3333C12.6907 64.3333 4.33333 72.6907 4.33333 83ZM1002.48 85.4749C1003.84 84.108 1003.84 81.892 1002.48 80.5251L980.204 58.2513C978.837 56.8844 976.621 56.8844 975.254 58.2513C973.887 59.6181 973.887 61.8342 975.254 63.201L995.053 83L975.254 102.799C973.887 104.166 973.887 106.382 975.254 107.749C976.621 109.116 978.837 109.116 980.204 107.749L1002.48 85.4749ZM23 86.5H1000V79.5H23V86.5Z" fill="black"/>
</g>
<g filter="url(#filter1_d_404_6)">
<line x1="222.5" y1="80" x2="222.5" y2="30" stroke="black" stroke-width="7"/>
</g>
<g filter="url(#filter2_d_404_6)">
<line x1="508.5" y1="138" x2="508.5" y2="83" stroke="black" stroke-width="7"/>
</g>
<g filter="url(#filter3_d_404_6)">
<line x1="786.5" y1="80" x2="786.5" y2="30" stroke="black" stroke-width="7"/>
</g>
<g filter="url(#filter4_d_404_6)">
<circle cx="222.512" cy="23.8508" r="16" fill="black"/>
<circle cx="222.512" cy="23.8508" r="16" fill="black"/>
<circle cx="222.512" cy="23.8508" r="13.5" stroke="black" stroke-width="5"/>
</g>
<g filter="url(#filter5_d_404_6)">
<circle cx="786.401" cy="23.8508" r="16" fill="black"/>
<circle cx="786.401" cy="23.8508" r="16" fill="black"/>
<circle cx="786.401" cy="23.8508" r="13.5" stroke="black" stroke-width="5"/>
</g>
<g filter="url(#filter6_d_404_6)">
<path d="M524.46 149.262C524.46 158.099 517.296 165.262 508.46 165.262C499.623 165.262 492.46 158.099 492.46 149.262C492.46 140.426 499.623 133.262 508.46 133.262C517.296 133.262 524.46 140.426 524.46 149.262Z" fill="black"/>
<path d="M524.46 149.262C524.46 158.099 517.296 165.262 508.46 165.262C499.623 165.262 492.46 158.099 492.46 149.262C492.46 140.426 499.623 133.262 508.46 133.262C517.296 133.262 524.46 140.426 524.46 149.262Z" fill="black"/>
<path d="M521.96 149.262C521.96 156.718 515.915 162.762 508.46 162.762C501.004 162.762 494.96 156.718 494.96 149.262C494.96 141.807 501.004 135.762 508.46 135.762C515.915 135.762 521.96 141.807 521.96 149.262Z" stroke="black" stroke-width="5"/>
</g>
<defs>
<filter id="filter0_d_404_6" x="0.333344" y="57.2261" width="1007.17" height="59.5479" filterUnits="userSpaceOnUse" color-interpolation-filters="sRGB">
<feFlood flood-opacity="0" result="BackgroundImageFix"/>
<feColorMatrix in="SourceAlpha" type="matrix" values="0 0 0 0 0 0 0 0 0 0 0 0 0 0 0 0 0 0 127 0" result="hardAlpha"/>
<feOffset dy="4"/>
<feGaussianBlur stdDeviation="2"/>
<feComposite in2="hardAlpha" operator="out"/>
<feColorMatrix type="matrix" values="0 0 0 0 0 0 0 0 0 0 0 0 0 0 0 0 0 0 0.25 0"/>
<feBlend mode="normal" in2="BackgroundImageFix" result="effect1_dropShadow_404_6"/>
<feBlend mode="normal" in="SourceGraphic" in2="effect1_dropShadow_404_6" result="shape"/>
</filter>
<filter id="filter1_d_404_6" x="215" y="30" width="15" height="58" filterUnits="userSpaceOnUse" color-interpolation-filters="sRGB">
<feFlood flood-opacity="0" result="BackgroundImageFix"/>
<feColorMatrix in="SourceAlpha" type="matrix" values="0 0 0 0 0 0 0 0 0 0 0 0 0 0 0 0 0 0 127 0" result="hardAlpha"/>
<feOffset dy="4"/>
<feGaussianBlur stdDeviation="2"/>
<feComposite in2="hardAlpha" operator="out"/>
<feColorMatrix type="matrix" values="0 0 0 0 0 0 0 0 0 0 0 0 0 0 0 0 0 0 0.25 0"/>
<feBlend mode="normal" in2="BackgroundImageFix" result="effect1_dropShadow_404_6"/>
<feBlend mode="normal" in="SourceGraphic" in2="effect1_dropShadow_404_6" result="shape"/>
</filter>
<filter id="filter2_d_404_6" x="501" y="83" width="15" height="63" filterUnits="userSpaceOnUse" color-interpolation-filters="sRGB">
<feFlood flood-opacity="0" result="BackgroundImageFix"/>
<feColorMatrix in="SourceAlpha" type="matrix" values="0 0 0 0 0 0 0 0 0 0 0 0 0 0 0 0 0 0 127 0" result="hardAlpha"/>
<feOffset dy="4"/>
<feGaussianBlur stdDeviation="2"/>
<feComposite in2="hardAlpha" operator="out"/>
<feColorMatrix type="matrix" values="0 0 0 0 0 0 0 0 0 0 0 0 0 0 0 0 0 0 0.25 0"/>
<feBlend mode="normal" in2="BackgroundImageFix" result="effect1_dropShadow_404_6"/>
<feBlend mode="normal" in="SourceGraphic" in2="effect1_dropShadow_404_6" result="shape"/>
</filter>
<filter id="filter3_d_404_6" x="779" y="30" width="15" height="58" filterUnits="userSpaceOnUse" color-interpolation-filters="sRGB">
<feFlood flood-opacity="0" result="BackgroundImageFix"/>
<feColorMatrix in="SourceAlpha" type="matrix" values="0 0 0 0 0 0 0 0 0 0 0 0 0 0 0 0 0 0 127 0" result="hardAlpha"/>
<feOffset dy="4"/>
<feGaussianBlur stdDeviation="2"/>
<feComposite in2="hardAlpha" operator="out"/>
<feColorMatrix type="matrix" values="0 0 0 0 0 0 0 0 0 0 0 0 0 0 0 0 0 0 0.25 0"/>
<feBlend mode="normal" in2="BackgroundImageFix" result="effect1_dropShadow_404_6"/>
<feBlend mode="normal" in="SourceGraphic" in2="effect1_dropShadow_404_6" result="shape"/>
</filter>
<filter id="filter4_d_404_6" x="202.512" y="7.85083" width="40" height="40" filterUnits="userSpaceOnUse" color-interpolation-filters="sRGB">
<feFlood flood-opacity="0" result="BackgroundImageFix"/>
<feColorMatrix in="SourceAlpha" type="matrix" values="0 0 0 0 0 0 0 0 0 0 0 0 0 0 0 0 0 0 127 0" result="hardAlpha"/>
<feOffset dy="4"/>
<feGaussianBlur stdDeviation="2"/>
<feComposite in2="hardAlpha" operator="out"/>
<feColorMatrix type="matrix" values="0 0 0 0 0 0 0 0 0 0 0 0 0 0 0 0 0 0 0.25 0"/>
<feBlend mode="normal" in2="BackgroundImageFix" result="effect1_dropShadow_404_6"/>
<feBlend mode="normal" in="SourceGraphic" in2="effect1_dropShadow_404_6" result="shape"/>
</filter>
<filter id="filter5_d_404_6" x="766.401" y="7.85083" width="40" height="40" filterUnits="userSpaceOnUse" color-interpolation-filters="sRGB">
<feFlood flood-opacity="0" result="BackgroundImageFix"/>
<feColorMatrix in="SourceAlpha" type="matrix" values="0 0 0 0 0 0 0 0 0 0 0 0 0 0 0 0 0 0 127 0" result="hardAlpha"/>
<feOffset dy="4"/>
<feGaussianBlur stdDeviation="2"/>
<feComposite in2="hardAlpha" operator="out"/>
<feColorMatrix type="matrix" values="0 0 0 0 0 0 0 0 0 0 0 0 0 0 0 0 0 0 0.25 0"/>
<feBlend mode="normal" in2="BackgroundImageFix" result="effect1_dropShadow_404_6"/>
<feBlend mode="normal" in="SourceGraphic" in2="effect1_dropShadow_404_6" result="shape"/>
</filter>
<filter id="filter6_d_404_6" x="488.46" y="133.262" width="40" height="40" filterUnits="userSpaceOnUse" color-interpolation-filters="sRGB">
<feFlood flood-opacity="0" result="BackgroundImageFix"/>
<feColorMatrix in="SourceAlpha" type="matrix" values="0 0 0 0 0 0 0 0 0 0 0 0 0 0 0 0 0 0 127 0" result="hardAlpha"/>
<feOffset dy="4"/>
<feGaussianBlur stdDeviation="2"/>
<feComposite in2="hardAlpha" operator="out"/>
<feColorMatrix type="matrix" values="0 0 0 0 0 0 0 0 0 0 0 0 0 0 0 0 0 0 0.25 0"/>
<feBlend mode="normal" in2="BackgroundImageFix" result="effect1_dropShadow_404_6"/>
<feBlend mode="normal" in="SourceGraphic" in2="effect1_dropShadow_404_6" result="shape"/>
</filter>
</defs>
</svg>
