<svg width="1008" height="320" viewBox="0 0 1008 320" fill="none" xmlns="http://www.w3.org/2000/svg">
<g filter="url(#filter0_d_404_6)">
<path d="M4.33333 159C4.33333 169.309 12.6907 177.667 23 177.667C33.3093 177.667 41.6667 169.309 41.6667 159C41.6667 148.691 33.3093 140.333 23 140.333C12.6907 140.333 4.33333 148.691 4.33333 159ZM1002.48 161.475C1003.84 160.108 1003.84 157.892 1002.48 156.525L980.204 134.251C978.837 132.884 976.621 132.884 975.254 134.251C973.887 135.618 973.887 137.834 975.254 139.201L995.053 159L975.254 178.799C973.887 180.166 973.887 182.382 975.254 183.749C976.621 185.116 978.837 185.116 980.204 183.749L1002.48 161.475ZM23 162.5H1000V155.5H23V162.5Z" fill="black"/>
</g>
<g filter="url(#filter1_d_404_6)">
<line x1="222.5" y1="156" x2="222.5" y2="106" stroke="black" stroke-width="7"/>
</g>
<g filter="url(#filter2_d_404_6)">
<line x1="508.5" y1="214" x2="508.5" y2="159" stroke="black" stroke-width="7"/>
</g>
<g filter="url(#filter3_d_404_6)">
<line x1="786.5" y1="156" x2="786.5" y2="106" stroke="black" stroke-width="7"/>
</g>
<path d="M132.464 25C130.56 25 129.16 24.576 128.264 23.728C127.384 22.88 126.944 21.608 126.944 19.912V8.2H129.224V19.912C129.224 21.032 129.488 21.864 130.016 22.408C130.544 22.936 131.36 23.2 132.464 23.2H137.864V25H132.464ZM141.674 11.512C141.306 11.512 140.986 11.384 140.714 11.128C140.458 10.856 140.33 10.536 140.33 10.168C140.33 9.8 140.458 9.488 140.714 9.232C140.986 8.96 141.306 8.824 141.674 8.824C142.042 8.824 142.354 8.96 142.61 9.232C142.882 9.488 143.018 9.8 143.018 10.168C143.018 10.536 142.882 10.856 142.61 11.128C142.354 11.384 142.042 11.512 141.674 11.512ZM142.202 25.264C141.61 24.944 141.194 24.584 140.954 24.184C140.73 23.768 140.618 23.2 140.618 22.48V13.72H142.73V22.48C142.73 22.816 142.794 23.096 142.922 23.32C143.05 23.528 143.282 23.76 143.618 24.016L142.202 25.264ZM151.125 25.264C149.509 25.264 148.269 24.896 147.405 24.16C146.557 23.424 146.133 22.368 146.133 20.992V17.728C146.133 16.368 146.565 15.32 147.429 14.584C148.309 13.832 149.549 13.456 151.148 13.456C153.069 13.456 154.501 14.072 155.445 15.304L154.005 16.504C153.557 15.992 153.125 15.632 152.709 15.424C152.293 15.216 151.773 15.112 151.148 15.112C150.221 15.112 149.501 15.344 148.989 15.808C148.493 16.256 148.245 16.896 148.245 17.728V20.992C148.245 21.824 148.493 22.472 148.989 22.936C149.485 23.384 150.197 23.608 151.125 23.608C151.781 23.608 152.333 23.496 152.781 23.272C153.245 23.048 153.669 22.696 154.053 22.216L155.493 23.416C155.029 24.04 154.445 24.504 153.741 24.808C153.037 25.112 152.165 25.264 151.125 25.264ZM162.563 23.632C163.219 23.632 163.779 23.536 164.243 23.344C164.723 23.152 165.187 22.84 165.635 22.408L166.931 23.584C166.451 24.16 165.851 24.584 165.131 24.856C164.427 25.128 163.555 25.264 162.515 25.264C160.867 25.264 159.619 24.912 158.771 24.208C157.939 23.488 157.523 22.424 157.523 21.016V17.44C157.523 16.208 157.947 15.24 158.795 14.536C159.659 13.816 160.835 13.456 162.323 13.456C163.859 13.456 165.043 13.832 165.875 14.584C166.723 15.336 167.147 16.416 167.147 17.824C167.147 18.768 166.979 19.416 166.643 19.768C166.323 20.12 165.699 20.296 164.771 20.296H159.635V21.04C159.635 21.904 159.875 22.552 160.355 22.984C160.835 23.416 161.571 23.632 162.563 23.632ZM162.323 15.088C161.475 15.088 160.811 15.312 160.331 15.76C159.867 16.208 159.635 16.816 159.635 17.584V18.784H163.739C164.235 18.784 164.571 18.704 164.747 18.544C164.939 18.384 165.035 18.08 165.035 17.632C165.035 16.832 164.795 16.208 164.315 15.76C163.835 15.312 163.171 15.088 162.323 15.088ZM175.792 13.456C176.96 13.456 177.864 13.792 178.504 14.464C179.16 15.136 179.488 16.08 179.488 17.296V25H177.376V17.56C177.376 16.792 177.184 16.192 176.8 15.76C176.416 15.328 175.888 15.112 175.216 15.112C174.464 15.112 173.816 15.376 173.272 15.904C172.728 16.432 172.328 17.144 172.072 18.04V25H169.96V16.24C169.96 15.904 169.896 15.632 169.768 15.424C169.64 15.2 169.408 14.96 169.072 14.704L170.464 13.456C170.976 13.744 171.352 14.048 171.592 14.368C171.832 14.688 171.984 15.104 172.048 15.616C172.416 14.944 172.92 14.416 173.56 14.032C174.2 13.648 174.944 13.456 175.792 13.456ZM186.42 25.264C185.364 25.264 184.508 25.112 183.852 24.808C183.212 24.488 182.62 23.976 182.076 23.272L183.42 22.12C183.884 22.664 184.332 23.048 184.764 23.272C185.212 23.496 185.764 23.608 186.42 23.608C188.164 23.608 189.036 23.056 189.036 21.952C189.036 21.6 188.94 21.32 188.748 21.112C188.572 20.888 188.252 20.704 187.788 20.56C187.34 20.4 186.66 20.24 185.748 20.08C184.628 19.856 183.788 19.472 183.228 18.928C182.668 18.368 182.388 17.632 182.388 16.72C182.388 15.696 182.764 14.896 183.516 14.32C184.268 13.744 185.3 13.456 186.612 13.456C188.548 13.456 189.908 14.072 190.692 15.304L189.348 16.432C188.964 15.968 188.556 15.632 188.124 15.424C187.708 15.216 187.204 15.112 186.612 15.112C185.908 15.112 185.364 15.256 184.98 15.544C184.596 15.832 184.404 16.232 184.404 16.744C184.404 17.208 184.588 17.568 184.956 17.824C185.324 18.064 185.908 18.264 186.708 18.424C187.764 18.664 188.596 18.92 189.204 19.192C189.812 19.448 190.268 19.8 190.572 20.248C190.876 20.68 191.028 21.256 191.028 21.976C191.028 24.168 189.492 25.264 186.42 25.264ZM198.633 23.632C199.289 23.632 199.849 23.536 200.313 23.344C200.793 23.152 201.257 22.84 201.705 22.408L203.001 23.584C202.521 24.16 201.921 24.584 201.201 24.856C200.497 25.128 199.625 25.264 198.585 25.264C196.937 25.264 195.689 24.912 194.841 24.208C194.009 23.488 193.593 22.424 193.593 21.016V17.44C193.593 16.208 194.017 15.24 194.865 14.536C195.729 13.816 196.905 13.456 198.393 13.456C199.929 13.456 201.113 13.832 201.945 14.584C202.793 15.336 203.217 16.416 203.217 17.824C203.217 18.768 203.049 19.416 202.713 19.768C202.393 20.12 201.769 20.296 200.841 20.296H195.705V21.04C195.705 21.904 195.945 22.552 196.425 22.984C196.905 23.416 197.641 23.632 198.633 23.632ZM198.393 15.088C197.545 15.088 196.881 15.312 196.401 15.76C195.937 16.208 195.705 16.816 195.705 17.584V18.784H199.809C200.305 18.784 200.641 18.704 200.817 18.544C201.009 18.384 201.105 18.08 201.105 17.632C201.105 16.832 200.865 16.208 200.385 15.76C199.905 15.312 199.241 15.088 198.393 15.088ZM223.447 23.344V25H211.543V23.392L217.159 18.424C218.599 17.16 219.591 16.12 220.135 15.304C220.679 14.472 220.951 13.624 220.951 12.76C220.951 11.784 220.599 11.016 219.895 10.456C219.191 9.896 218.247 9.616 217.063 9.616C215.351 9.616 213.975 10.24 212.935 11.488L211.999 10C213.263 8.64 214.991 7.96 217.183 7.96C218.943 7.96 220.359 8.36 221.431 9.16C222.519 9.944 223.063 11.112 223.063 12.664C223.063 14.632 221.967 16.6 219.775 18.568L214.423 23.344H223.447ZM233.013 8.2H240.021C241.765 8.2 243.077 8.624 243.957 9.472C244.853 10.32 245.301 11.576 245.301 13.24C245.301 14.904 244.853 16.16 243.957 17.008C243.077 17.856 241.765 18.28 240.021 18.28H235.293V25H233.013V8.2ZM239.949 16.48C240.909 16.48 241.661 16.2 242.205 15.64C242.749 15.08 243.021 14.28 243.021 13.24C243.021 12.2 242.749 11.4 242.205 10.84C241.661 10.28 240.909 10 239.949 10H235.293V16.48H239.949ZM253.745 13.456C254.913 13.456 255.817 13.792 256.457 14.464C257.113 15.136 257.441 16.08 257.441 17.296V25H255.329V17.56C255.329 16.792 255.137 16.192 254.753 15.76C254.385 15.328 253.865 15.112 253.193 15.112C252.425 15.112 251.769 15.376 251.225 15.904C250.681 16.432 250.281 17.144 250.025 18.04V25H247.913V10.192C247.913 9.856 247.849 9.584 247.721 9.376C247.593 9.152 247.361 8.912 247.025 8.656L248.417 7.408C249.025 7.728 249.441 8.096 249.665 8.512C249.905 8.912 250.025 9.472 250.025 10.192V15.592C250.393 14.92 250.889 14.4 251.513 14.032C252.153 13.648 252.897 13.456 253.745 13.456ZM270.451 13.72V26.344C270.451 27.752 270.075 28.784 269.323 29.44C268.571 30.112 267.395 30.448 265.795 30.448H262.819V28.816H265.795C266.659 28.816 267.299 28.608 267.715 28.192C268.131 27.792 268.339 27.168 268.339 26.32V23.224C267.571 24.584 266.323 25.264 264.595 25.264C263.379 25.264 262.427 24.92 261.739 24.232C261.067 23.528 260.731 22.552 260.731 21.304V16.264C260.731 15.928 260.667 15.656 260.539 15.448C260.411 15.224 260.179 14.976 259.843 14.704L261.259 13.456C261.851 13.776 262.259 14.144 262.483 14.56C262.723 14.96 262.843 15.528 262.843 16.264V21.136C262.843 21.92 263.043 22.528 263.443 22.96C263.859 23.376 264.435 23.584 265.171 23.584C266.035 23.584 266.755 23.288 267.331 22.696C267.907 22.088 268.243 21.336 268.339 20.44V13.72H270.451ZM277.076 25.264C276.02 25.264 275.164 25.112 274.508 24.808C273.868 24.488 273.276 23.976 272.732 23.272L274.076 22.12C274.54 22.664 274.988 23.048 275.42 23.272C275.868 23.496 276.42 23.608 277.076 23.608C278.82 23.608 279.692 23.056 279.692 21.952C279.692 21.6 279.596 21.32 279.404 21.112C279.228 20.888 278.908 20.704 278.444 20.56C277.996 20.4 277.316 20.24 276.404 20.08C275.284 19.856 274.444 19.472 273.884 18.928C273.324 18.368 273.044 17.632 273.044 16.72C273.044 15.696 273.42 14.896 274.172 14.32C274.924 13.744 275.956 13.456 277.268 13.456C279.204 13.456 280.564 14.072 281.348 15.304L280.004 16.432C279.62 15.968 279.212 15.632 278.78 15.424C278.364 15.216 277.86 15.112 277.268 15.112C276.564 15.112 276.02 15.256 275.636 15.544C275.252 15.832 275.06 16.232 275.06 16.744C275.06 17.208 275.244 17.568 275.612 17.824C275.98 18.064 276.564 18.264 277.364 18.424C278.42 18.664 279.252 18.92 279.86 19.192C280.468 19.448 280.924 19.8 281.228 20.248C281.532 20.68 281.684 21.256 281.684 21.976C281.684 24.168 280.148 25.264 277.076 25.264ZM285.299 11.512C284.931 11.512 284.611 11.384 284.339 11.128C284.083 10.856 283.955 10.536 283.955 10.168C283.955 9.8 284.083 9.488 284.339 9.232C284.611 8.96 284.931 8.824 285.299 8.824C285.667 8.824 285.979 8.96 286.235 9.232C286.507 9.488 286.643 9.8 286.643 10.168C286.643 10.536 286.507 10.856 286.235 11.128C285.979 11.384 285.667 11.512 285.299 11.512ZM285.827 25.264C285.235 24.944 284.819 24.584 284.579 24.184C284.355 23.768 284.243 23.2 284.243 22.48V13.72H286.355V22.48C286.355 22.816 286.419 23.096 286.547 23.32C286.675 23.528 286.907 23.76 287.243 24.016L285.827 25.264ZM297.995 23.536C297.611 24.08 297.107 24.504 296.483 24.808C295.875 25.112 295.155 25.264 294.323 25.264C292.819 25.264 291.619 24.768 290.723 23.776C289.843 22.768 289.403 21.424 289.403 19.744V18.976C289.403 17.904 289.603 16.952 290.003 16.12C290.403 15.288 290.971 14.64 291.707 14.176C292.459 13.696 293.339 13.456 294.347 13.456C295.979 13.456 297.195 14.008 297.995 15.112V13.696H300.107V30.232H297.995V23.536ZM294.827 23.608C295.643 23.608 296.307 23.416 296.819 23.032C297.347 22.632 297.739 22.032 297.995 21.232V17.488C297.739 16.688 297.347 16.096 296.819 15.712C296.307 15.312 295.643 15.112 294.827 15.112C293.803 15.112 292.995 15.472 292.403 16.192C291.811 16.912 291.515 17.84 291.515 18.976V19.744C291.515 20.88 291.811 21.808 292.403 22.528C292.995 23.248 293.803 23.608 294.827 23.608ZM312.914 22.456C312.914 22.792 312.978 23.072 313.106 23.296C313.234 23.504 313.466 23.744 313.802 24.016L312.386 25.264C311.874 24.976 311.498 24.664 311.258 24.328C311.018 23.992 310.874 23.56 310.826 23.032C310.442 23.736 309.93 24.288 309.29 24.688C308.666 25.072 307.914 25.264 307.034 25.264C305.834 25.264 304.906 24.928 304.25 24.256C303.594 23.568 303.266 22.592 303.266 21.328V13.72H305.378V21.16C305.378 21.928 305.578 22.528 305.978 22.96C306.378 23.392 306.93 23.608 307.634 23.608C308.402 23.608 309.058 23.344 309.602 22.816C310.146 22.272 310.546 21.544 310.802 20.632V13.72H312.914V22.456ZM321.118 23.632C321.774 23.632 322.334 23.536 322.798 23.344C323.278 23.152 323.742 22.84 324.19 22.408L325.486 23.584C325.006 24.16 324.406 24.584 323.686 24.856C322.982 25.128 322.11 25.264 321.07 25.264C319.422 25.264 318.174 24.912 317.326 24.208C316.494 23.488 316.078 22.424 316.078 21.016V17.44C316.078 16.208 316.502 15.24 317.35 14.536C318.214 13.816 319.39 13.456 320.878 13.456C322.414 13.456 323.598 13.832 324.43 14.584C325.278 15.336 325.702 16.416 325.702 17.824C325.702 18.768 325.534 19.416 325.198 19.768C324.878 20.12 324.254 20.296 323.326 20.296H318.19V21.04C318.19 21.904 318.43 22.552 318.91 22.984C319.39 23.416 320.126 23.632 321.118 23.632ZM320.878 15.088C320.03 15.088 319.366 15.312 318.886 15.76C318.422 16.208 318.19 16.816 318.19 17.584V18.784H322.294C322.79 18.784 323.126 18.704 323.302 18.544C323.494 18.384 323.59 18.08 323.59 17.632C323.59 16.832 323.35 16.208 322.87 15.76C322.39 15.312 321.726 15.088 320.878 15.088ZM117.029 56.288C114.981 56.288 113.389 55.848 112.253 54.968C111.133 54.072 110.573 52.848 110.573 51.296V39.2H112.853V51.296C112.853 52.304 113.213 53.088 113.933 53.648C114.669 54.192 115.701 54.464 117.029 54.464C118.357 54.464 119.381 54.192 120.101 53.648C120.837 53.104 121.205 52.32 121.205 51.296V39.2H123.485V51.296C123.485 52.848 122.917 54.072 121.781 54.968C120.661 55.848 119.077 56.288 117.029 56.288ZM132.866 44.456C134.034 44.456 134.938 44.792 135.578 45.464C136.234 46.136 136.562 47.08 136.562 48.296V56H134.45V48.56C134.45 47.792 134.258 47.192 133.874 46.76C133.49 46.328 132.962 46.112 132.29 46.112C131.538 46.112 130.89 46.376 130.346 46.904C129.802 47.432 129.402 48.144 129.146 49.04V56H127.034V47.24C127.034 46.904 126.97 46.632 126.842 46.424C126.714 46.2 126.482 45.96 126.146 45.704L127.538 44.456C128.05 44.744 128.426 45.048 128.666 45.368C128.906 45.688 129.058 46.104 129.122 46.616C129.49 45.944 129.994 45.416 130.634 45.032C131.274 44.648 132.018 44.456 132.866 44.456ZM141.193 42.512C140.825 42.512 140.505 42.384 140.233 42.128C139.977 41.856 139.849 41.536 139.849 41.168C139.849 40.8 139.977 40.488 140.233 40.232C140.505 39.96 140.825 39.824 141.193 39.824C141.561 39.824 141.873 39.96 142.129 40.232C142.401 40.488 142.537 40.8 142.537 41.168C142.537 41.536 142.401 41.856 142.129 42.128C141.873 42.384 141.561 42.512 141.193 42.512ZM141.721 56.264C141.129 55.944 140.713 55.584 140.473 55.184C140.249 54.768 140.137 54.2 140.137 53.48V44.72H142.249V53.48C142.249 53.816 142.313 54.096 142.441 54.32C142.569 54.528 142.801 54.76 143.137 55.016L141.721 56.264ZM150.116 56.264C149.428 56.264 148.884 56.072 148.484 55.688C148.084 55.304 147.74 54.64 147.452 53.696L144.692 44.72H146.732L149.396 53.552C149.524 53.984 149.628 54.272 149.708 54.416C149.804 54.544 149.932 54.608 150.092 54.608C150.252 54.608 150.372 54.544 150.452 54.416C150.548 54.272 150.66 53.984 150.788 53.552L153.428 44.72H155.492L152.756 53.696C152.468 54.64 152.124 55.304 151.724 55.688C151.34 56.072 150.804 56.264 150.116 56.264ZM161.989 54.632C162.645 54.632 163.205 54.536 163.669 54.344C164.149 54.152 164.613 53.84 165.061 53.408L166.357 54.584C165.877 55.16 165.277 55.584 164.557 55.856C163.853 56.128 162.981 56.264 161.941 56.264C160.293 56.264 159.045 55.912 158.197 55.208C157.365 54.488 156.949 53.424 156.949 52.016V48.44C156.949 47.208 157.373 46.24 158.221 45.536C159.085 44.816 160.261 44.456 161.749 44.456C163.285 44.456 164.469 44.832 165.301 45.584C166.149 46.336 166.573 47.416 166.573 48.824C166.573 49.768 166.405 50.416 166.069 50.768C165.749 51.12 165.125 51.296 164.197 51.296H159.061V52.04C159.061 52.904 159.301 53.552 159.781 53.984C160.261 54.416 160.997 54.632 161.989 54.632ZM161.749 46.088C160.901 46.088 160.237 46.312 159.757 46.76C159.293 47.208 159.061 47.816 159.061 48.584V49.784H163.165C163.661 49.784 163.997 49.704 164.173 49.544C164.365 49.384 164.461 49.08 164.461 48.632C164.461 47.832 164.221 47.208 163.741 46.76C163.261 46.312 162.597 46.088 161.749 46.088ZM175.002 44.456C175.69 44.456 176.266 44.624 176.73 44.96L176.202 46.808C175.658 46.488 175.082 46.328 174.474 46.328C173.754 46.328 173.138 46.632 172.626 47.24C172.114 47.848 171.738 48.664 171.498 49.688V56H169.386V47.24C169.386 46.904 169.322 46.632 169.194 46.424C169.066 46.2 168.834 45.96 168.498 45.704L169.914 44.456C170.474 44.76 170.866 45.096 171.09 45.464C171.33 45.816 171.466 46.312 171.498 46.952C171.85 46.168 172.322 45.56 172.914 45.128C173.506 44.68 174.202 44.456 175.002 44.456ZM181.768 56.264C180.712 56.264 179.856 56.112 179.2 55.808C178.56 55.488 177.968 54.976 177.424 54.272L178.768 53.12C179.232 53.664 179.68 54.048 180.112 54.272C180.56 54.496 181.112 54.608 181.768 54.608C183.512 54.608 184.384 54.056 184.384 52.952C184.384 52.6 184.288 52.32 184.096 52.112C183.92 51.888 183.6 51.704 183.136 51.56C182.688 51.4 182.008 51.24 181.096 51.08C179.976 50.856 179.136 50.472 178.576 49.928C178.016 49.368 177.736 48.632 177.736 47.72C177.736 46.696 178.112 45.896 178.864 45.32C179.616 44.744 180.648 44.456 181.96 44.456C183.896 44.456 185.256 45.072 186.04 46.304L184.696 47.432C184.312 46.968 183.904 46.632 183.472 46.424C183.056 46.216 182.552 46.112 181.96 46.112C181.256 46.112 180.712 46.256 180.328 46.544C179.944 46.832 179.752 47.232 179.752 47.744C179.752 48.208 179.936 48.568 180.304 48.824C180.672 49.064 181.256 49.264 182.056 49.424C183.112 49.664 183.944 49.92 184.552 50.192C185.16 50.448 185.616 50.8 185.92 51.248C186.224 51.68 186.376 52.256 186.376 52.976C186.376 55.168 184.84 56.264 181.768 56.264ZM189.99 42.512C189.622 42.512 189.302 42.384 189.03 42.128C188.774 41.856 188.646 41.536 188.646 41.168C188.646 40.8 188.774 40.488 189.03 40.232C189.302 39.96 189.622 39.824 189.99 39.824C190.358 39.824 190.67 39.96 190.926 40.232C191.198 40.488 191.334 40.8 191.334 41.168C191.334 41.536 191.198 41.856 190.926 42.128C190.67 42.384 190.358 42.512 189.99 42.512ZM190.518 56.264C189.926 55.944 189.51 55.584 189.27 55.184C189.046 54.768 188.934 54.2 188.934 53.48V44.72H191.046V53.48C191.046 53.816 191.11 54.096 191.238 54.32C191.366 54.528 191.598 54.76 191.934 55.016L190.518 56.264ZM196.855 46.376V52.424C196.855 53.112 196.991 53.624 197.263 53.96C197.535 54.28 197.967 54.44 198.559 54.44H200.095V56.096H198.559C197.199 56.096 196.223 55.808 195.631 55.232C195.039 54.656 194.743 53.72 194.743 52.424V42.392C194.743 42.056 194.679 41.784 194.551 41.576C194.423 41.352 194.191 41.112 193.855 40.856L195.271 39.608C195.863 39.928 196.271 40.296 196.495 40.712C196.735 41.112 196.855 41.672 196.855 42.392V44.72H200.095V46.376H196.855ZM207.223 54.632C207.879 54.632 208.439 54.536 208.903 54.344C209.383 54.152 209.847 53.84 210.295 53.408L211.591 54.584C211.111 55.16 210.511 55.584 209.791 55.856C209.087 56.128 208.215 56.264 207.175 56.264C205.527 56.264 204.279 55.912 203.431 55.208C202.599 54.488 202.183 53.424 202.183 52.016V48.44C202.183 47.208 202.607 46.24 203.455 45.536C204.319 44.816 205.495 44.456 206.983 44.456C208.519 44.456 209.703 44.832 210.535 45.584C211.383 46.336 211.807 47.416 211.807 48.824C211.807 49.768 211.639 50.416 211.303 50.768C210.983 51.12 210.359 51.296 209.431 51.296H204.295V52.04C204.295 52.904 204.535 53.552 205.015 53.984C205.495 54.416 206.231 54.632 207.223 54.632ZM206.983 46.088C206.135 46.088 205.471 46.312 204.991 46.76C204.527 47.208 204.295 47.816 204.295 48.584V49.784H208.399C208.895 49.784 209.231 49.704 209.407 49.544C209.599 49.384 209.695 49.08 209.695 48.632C209.695 47.832 209.455 47.208 208.975 46.76C208.495 46.312 207.831 46.088 206.983 46.088ZM207.919 39.368H210.199L207.727 42.944H205.999L207.919 39.368ZM230.884 53.48C230.884 53.816 230.948 54.096 231.076 54.32C231.204 54.528 231.436 54.76 231.772 55.016L230.356 56.264C229.604 55.864 229.116 55.224 228.892 54.344C228.092 55.624 226.836 56.264 225.124 56.264C224.132 56.264 223.26 56.04 222.508 55.592C221.772 55.128 221.196 54.48 220.78 53.648C220.38 52.816 220.18 51.848 220.18 50.744V49.976C220.18 48.904 220.372 47.952 220.756 47.12C221.156 46.288 221.724 45.64 222.46 45.176C223.212 44.696 224.1 44.456 225.124 44.456C226.756 44.456 227.972 45.016 228.772 46.136V41.216C228.772 40.88 228.708 40.608 228.58 40.4C228.468 40.192 228.236 39.944 227.884 39.656L229.324 38.408C229.916 38.728 230.324 39.096 230.548 39.512C230.772 39.912 230.884 40.48 230.884 41.216V53.48ZM228.772 48.488C228.516 47.688 228.124 47.096 227.596 46.712C227.084 46.312 226.42 46.112 225.604 46.112C224.596 46.112 223.788 46.472 223.18 47.192C222.588 47.912 222.292 48.84 222.292 49.976V50.744C222.292 51.88 222.588 52.808 223.18 53.528C223.772 54.248 224.58 54.608 225.604 54.608C226.42 54.608 227.084 54.416 227.596 54.032C228.124 53.632 228.516 53.032 228.772 52.232V48.488ZM238.981 54.632C239.637 54.632 240.197 54.536 240.661 54.344C241.141 54.152 241.605 53.84 242.053 53.408L243.349 54.584C242.869 55.16 242.269 55.584 241.549 55.856C240.845 56.128 239.973 56.264 238.933 56.264C237.285 56.264 236.037 55.912 235.189 55.208C234.357 54.488 233.941 53.424 233.941 52.016V48.44C233.941 47.208 234.365 46.24 235.213 45.536C236.077 44.816 237.253 44.456 238.741 44.456C240.277 44.456 241.461 44.832 242.293 45.584C243.141 46.336 243.565 47.416 243.565 48.824C243.565 49.768 243.397 50.416 243.061 50.768C242.741 51.12 242.117 51.296 241.189 51.296H236.053V52.04C236.053 52.904 236.293 53.552 236.773 53.984C237.253 54.416 237.989 54.632 238.981 54.632ZM238.741 46.088C237.893 46.088 237.229 46.312 236.749 46.76C236.285 47.208 236.053 47.816 236.053 48.584V49.784H240.157C240.653 49.784 240.989 49.704 241.165 49.544C241.357 49.384 241.453 49.08 241.453 48.632C241.453 47.832 241.213 47.208 240.733 46.76C240.253 46.312 239.589 46.088 238.741 46.088ZM265.882 56H263.458L262.33 51.872C262.106 51.072 261.858 50.448 261.586 50C261.33 49.552 260.97 49.216 260.506 48.992C260.042 48.768 259.41 48.656 258.61 48.656H255.226V56H252.946V39.2H260.002C261.73 39.2 263.026 39.6 263.89 40.4C264.77 41.184 265.21 42.336 265.21 43.856C265.21 45.024 264.922 45.96 264.346 46.664C263.786 47.368 262.986 47.808 261.946 47.984C262.682 48.24 263.25 48.68 263.65 49.304C264.05 49.928 264.41 50.792 264.73 51.896L265.882 56ZM259.906 46.856C260.834 46.856 261.57 46.608 262.114 46.112C262.658 45.6 262.93 44.872 262.93 43.928C262.93 42.984 262.658 42.264 262.114 41.768C261.586 41.256 260.85 41 259.906 41H255.226V46.856H259.906ZM273.176 54.632C273.832 54.632 274.392 54.536 274.856 54.344C275.336 54.152 275.8 53.84 276.248 53.408L277.544 54.584C277.064 55.16 276.464 55.584 275.744 55.856C275.04 56.128 274.168 56.264 273.128 56.264C271.48 56.264 270.232 55.912 269.384 55.208C268.552 54.488 268.136 53.424 268.136 52.016V48.44C268.136 47.208 268.56 46.24 269.408 45.536C270.272 44.816 271.448 44.456 272.936 44.456C274.472 44.456 275.656 44.832 276.488 45.584C277.336 46.336 277.76 47.416 277.76 48.824C277.76 49.768 277.592 50.416 277.256 50.768C276.936 51.12 276.312 51.296 275.384 51.296H270.248V52.04C270.248 52.904 270.488 53.552 270.968 53.984C271.448 54.416 272.184 54.632 273.176 54.632ZM272.936 46.088C272.088 46.088 271.424 46.312 270.944 46.76C270.48 47.208 270.248 47.816 270.248 48.584V49.784H274.352C274.848 49.784 275.184 49.704 275.36 49.544C275.552 49.384 275.648 49.08 275.648 48.632C275.648 47.832 275.408 47.208 274.928 46.76C274.448 46.312 273.784 46.088 272.936 46.088ZM286.405 44.456C287.573 44.456 288.477 44.792 289.117 45.464C289.773 46.136 290.101 47.08 290.101 48.296V56H287.989V48.56C287.989 47.792 287.797 47.192 287.413 46.76C287.029 46.328 286.501 46.112 285.829 46.112C285.077 46.112 284.429 46.376 283.885 46.904C283.341 47.432 282.941 48.144 282.685 49.04V56H280.573V47.24C280.573 46.904 280.509 46.632 280.381 46.424C280.253 46.2 280.021 45.96 279.685 45.704L281.077 44.456C281.589 44.744 281.965 45.048 282.205 45.368C282.445 45.688 282.597 46.104 282.661 46.616C283.029 45.944 283.533 45.416 284.173 45.032C284.813 44.648 285.557 44.456 286.405 44.456ZM299.109 44.456C300.277 44.456 301.181 44.792 301.821 45.464C302.477 46.136 302.805 47.08 302.805 48.296V56H300.693V48.56C300.693 47.792 300.501 47.192 300.117 46.76C299.733 46.328 299.205 46.112 298.533 46.112C297.781 46.112 297.133 46.376 296.589 46.904C296.045 47.432 295.645 48.144 295.389 49.04V56H293.277V47.24C293.277 46.904 293.213 46.632 293.085 46.424C292.957 46.2 292.725 45.96 292.389 45.704L293.781 44.456C294.293 44.744 294.669 45.048 294.909 45.368C295.149 45.688 295.301 46.104 295.365 46.616C295.733 45.944 296.237 45.416 296.877 45.032C297.517 44.648 298.261 44.456 299.109 44.456ZM310.84 54.632C311.496 54.632 312.056 54.536 312.52 54.344C313 54.152 313.464 53.84 313.912 53.408L315.208 54.584C314.728 55.16 314.128 55.584 313.408 55.856C312.704 56.128 311.832 56.264 310.792 56.264C309.144 56.264 307.896 55.912 307.048 55.208C306.216 54.488 305.8 53.424 305.8 52.016V48.44C305.8 47.208 306.224 46.24 307.072 45.536C307.936 44.816 309.112 44.456 310.6 44.456C312.136 44.456 313.32 44.832 314.152 45.584C315 46.336 315.424 47.416 315.424 48.824C315.424 49.768 315.256 50.416 314.92 50.768C314.6 51.12 313.976 51.296 313.048 51.296H307.912V52.04C307.912 52.904 308.152 53.552 308.632 53.984C309.112 54.416 309.848 54.632 310.84 54.632ZM310.6 46.088C309.752 46.088 309.088 46.312 308.608 46.76C308.144 47.208 307.912 47.816 307.912 48.584V49.784H312.016C312.512 49.784 312.848 49.704 313.024 49.544C313.216 49.384 313.312 49.08 313.312 48.632C313.312 47.832 313.072 47.208 312.592 46.76C312.112 46.312 311.448 46.088 310.6 46.088ZM321.947 56.264C320.891 56.264 320.035 56.112 319.379 55.808C318.739 55.488 318.147 54.976 317.603 54.272L318.947 53.12C319.411 53.664 319.859 54.048 320.291 54.272C320.739 54.496 321.291 54.608 321.947 54.608C323.691 54.608 324.563 54.056 324.563 52.952C324.563 52.6 324.467 52.32 324.275 52.112C324.099 51.888 323.779 51.704 323.315 51.56C322.867 51.4 322.187 51.24 321.275 51.08C320.155 50.856 319.315 50.472 318.755 49.928C318.195 49.368 317.915 48.632 317.915 47.72C317.915 46.696 318.291 45.896 319.043 45.32C319.795 44.744 320.827 44.456 322.139 44.456C324.075 44.456 325.435 45.072 326.219 46.304L324.875 47.432C324.491 46.968 324.083 46.632 323.651 46.424C323.235 46.216 322.731 46.112 322.139 46.112C321.435 46.112 320.891 46.256 320.507 46.544C320.123 46.832 319.931 47.232 319.931 47.744C319.931 48.208 320.115 48.568 320.483 48.824C320.851 49.064 321.435 49.264 322.235 49.424C323.291 49.664 324.123 49.92 324.731 50.192C325.339 50.448 325.795 50.8 326.099 51.248C326.403 51.68 326.555 52.256 326.555 52.976C326.555 55.168 325.019 56.264 321.947 56.264ZM340.833 39.2V56H338.721V41.168L334.953 43.4V41.48L338.841 39.2H340.833ZM213.404 85.344V87H201.5V85.392L207.116 80.424C208.556 79.16 209.548 78.12 210.092 77.304C210.636 76.472 210.908 75.624 210.908 74.76C210.908 73.784 210.556 73.016 209.852 72.456C209.148 71.896 208.204 71.616 207.02 71.616C205.308 71.616 203.932 72.24 202.892 73.488L201.956 72C203.22 70.64 204.948 69.96 207.14 69.96C208.9 69.96 210.316 70.36 211.388 71.16C212.476 71.944 213.02 73.112 213.02 74.664C213.02 76.632 211.924 78.6 209.732 80.568L204.38 85.344H213.404ZM221.799 87.264C219.911 87.264 218.479 86.72 217.503 85.632C216.527 84.544 216.039 82.968 216.039 80.904V76.152C216.039 74.12 216.527 72.576 217.503 71.52C218.479 70.464 219.911 69.936 221.799 69.936C223.671 69.936 225.095 70.472 226.071 71.544C227.063 72.6 227.559 74.136 227.559 76.152V80.904C227.559 82.968 227.063 84.544 226.071 85.632C225.095 86.72 223.671 87.264 221.799 87.264ZM221.799 85.608C222.983 85.608 223.887 85.208 224.511 84.408C225.135 83.608 225.447 82.44 225.447 80.904V76.152C225.447 74.664 225.135 73.536 224.511 72.768C223.887 71.984 222.983 71.592 221.799 71.592C220.615 71.592 219.711 71.984 219.087 72.768C218.463 73.536 218.151 74.664 218.151 76.152V80.904C218.151 82.44 218.463 83.608 219.087 84.408C219.711 85.208 220.615 85.608 221.799 85.608ZM236.091 70.2V87H233.979V72.168L230.211 74.4V72.48L234.099 70.2H236.091ZM241.365 87C243.205 82.44 245.757 77.392 249.021 71.856H239.781V70.2H250.365L251.133 71.856C249.725 74.192 248.333 76.728 246.957 79.464C245.581 82.2 244.461 84.712 243.597 87H241.365Z" fill="black"/>
<path d="M638.846 13.288C638.846 11.592 639.302 10.32 640.214 9.472C641.126 8.624 642.558 8.2 644.51 8.2H650.246V10H644.51C643.342 10 642.486 10.272 641.942 10.816C641.398 11.344 641.126 12.168 641.126 13.288V16.168H649.07V17.992H641.126V25H638.846V13.288ZM656.158 25.264C654.59 25.264 653.374 24.888 652.51 24.136C651.662 23.368 651.238 22.288 651.238 20.896V17.824C651.238 16.432 651.662 15.36 652.51 14.608C653.374 13.84 654.59 13.456 656.158 13.456C657.726 13.456 658.934 13.84 659.782 14.608C660.63 15.36 661.054 16.432 661.054 17.824V20.896C661.054 22.288 660.63 23.368 659.782 24.136C658.934 24.888 657.726 25.264 656.158 25.264ZM656.158 23.608C657.038 23.608 657.718 23.376 658.198 22.912C658.694 22.432 658.942 21.76 658.942 20.896V17.824C658.942 16.96 658.694 16.296 658.198 15.832C657.718 15.352 657.038 15.112 656.158 15.112C655.262 15.112 654.566 15.352 654.07 15.832C653.59 16.296 653.35 16.96 653.35 17.824V20.896C653.35 21.76 653.59 22.432 654.07 22.912C654.566 23.376 655.262 23.608 656.158 23.608ZM669.83 13.456C670.518 13.456 671.094 13.624 671.558 13.96L671.03 15.808C670.486 15.488 669.91 15.328 669.302 15.328C668.582 15.328 667.966 15.632 667.454 16.24C666.942 16.848 666.566 17.664 666.326 18.688V25H664.214V16.24C664.214 15.904 664.15 15.632 664.022 15.424C663.894 15.2 663.662 14.96 663.326 14.704L664.742 13.456C665.302 13.76 665.694 14.096 665.918 14.464C666.158 14.816 666.294 15.312 666.326 15.952C666.678 15.168 667.15 14.56 667.742 14.128C668.334 13.68 669.03 13.456 669.83 13.456ZM686.401 13.456C687.505 13.456 688.353 13.792 688.945 14.464C689.553 15.12 689.857 16.064 689.857 17.296V25H687.745V17.56C687.745 16.776 687.577 16.176 687.241 15.76C686.905 15.328 686.433 15.112 685.825 15.112C685.105 15.112 684.481 15.392 683.953 15.952C683.441 16.496 683.081 17.232 682.873 18.16V25H680.761V17.56C680.761 16.776 680.593 16.176 680.257 15.76C679.921 15.328 679.449 15.112 678.841 15.112C678.121 15.112 677.497 15.4 676.969 15.976C676.441 16.536 676.081 17.264 675.889 18.16V25H673.777V16.24C673.777 15.904 673.713 15.632 673.585 15.424C673.457 15.2 673.225 14.96 672.889 14.704L674.281 13.456C675.241 13.936 675.761 14.664 675.841 15.64C676.225 14.936 676.721 14.4 677.329 14.032C677.937 13.648 678.633 13.456 679.417 13.456C680.297 13.456 681.009 13.68 681.553 14.128C682.113 14.56 682.481 15.192 682.657 16.024C682.945 15.24 683.417 14.616 684.073 14.152C684.745 13.688 685.521 13.456 686.401 13.456ZM702.463 22.48C702.463 22.816 702.527 23.096 702.655 23.32C702.783 23.528 703.015 23.76 703.351 24.016L701.935 25.264C701.119 24.848 700.623 24.256 700.447 23.488C700.063 24.032 699.527 24.464 698.839 24.784C698.167 25.104 697.391 25.264 696.511 25.264C695.311 25.264 694.383 24.984 693.727 24.424C693.071 23.848 692.743 23.024 692.743 21.952C692.743 20.848 693.127 20.024 693.895 19.48C694.663 18.936 695.719 18.592 697.063 18.448L698.695 18.256C699.383 18.176 699.831 18.056 700.039 17.896C700.263 17.72 700.367 17.424 700.351 17.008C700.287 16.384 700.031 15.888 699.583 15.52C699.151 15.152 698.487 14.968 697.591 14.968C696.935 14.968 696.375 15.08 695.911 15.304C695.447 15.512 695.023 15.856 694.639 16.336L693.199 15.304C693.599 14.696 694.151 14.24 694.855 13.936C695.575 13.616 696.487 13.456 697.591 13.456C699.207 13.456 700.423 13.792 701.239 14.464C702.055 15.136 702.463 16.112 702.463 17.392V22.48ZM697.015 23.704C698.023 23.704 698.831 23.44 699.439 22.912C700.063 22.384 700.375 21.712 700.375 20.896V19.288C700.007 19.496 699.439 19.632 698.671 19.696L697.255 19.84C695.591 20.032 694.759 20.712 694.759 21.88C694.759 22.472 694.951 22.928 695.335 23.248C695.719 23.552 696.279 23.704 697.015 23.704ZM707.855 15.376V21.424C707.855 22.112 707.991 22.624 708.263 22.96C708.535 23.28 708.967 23.44 709.559 23.44H711.095V25.096H709.559C708.199 25.096 707.223 24.808 706.631 24.232C706.039 23.656 705.743 22.72 705.743 21.424V11.392C705.743 11.056 705.679 10.784 705.551 10.576C705.423 10.352 705.191 10.112 704.855 9.856L706.271 8.608C706.863 8.928 707.271 9.296 707.495 9.712C707.735 10.112 707.855 10.672 707.855 11.392V13.72H711.095V15.376H707.855ZM714.818 11.512C714.45 11.512 714.13 11.384 713.858 11.128C713.602 10.856 713.474 10.536 713.474 10.168C713.474 9.8 713.602 9.488 713.858 9.232C714.13 8.96 714.45 8.824 714.818 8.824C715.186 8.824 715.498 8.96 715.754 9.232C716.026 9.488 716.162 9.8 716.162 10.168C716.162 10.536 716.026 10.856 715.754 11.128C715.498 11.384 715.186 11.512 714.818 11.512ZM715.346 25.264C714.754 24.944 714.338 24.584 714.098 24.184C713.874 23.768 713.762 23.2 713.762 22.48V13.72H715.874V22.48C715.874 22.816 715.938 23.096 716.066 23.32C716.194 23.528 716.426 23.76 716.762 24.016L715.346 25.264ZM724.197 25.264C722.629 25.264 721.413 24.888 720.549 24.136C719.701 23.368 719.277 22.288 719.277 20.896V17.824C719.277 16.432 719.701 15.36 720.549 14.608C721.413 13.84 722.629 13.456 724.197 13.456C725.765 13.456 726.973 13.84 727.821 14.608C728.669 15.36 729.093 16.432 729.093 17.824V20.896C729.093 22.288 728.669 23.368 727.821 24.136C726.973 24.888 725.765 25.264 724.197 25.264ZM724.197 23.608C725.077 23.608 725.757 23.376 726.237 22.912C726.733 22.432 726.981 21.76 726.981 20.896V17.824C726.981 16.96 726.733 16.296 726.237 15.832C725.757 15.352 725.077 15.112 724.197 15.112C723.301 15.112 722.605 15.352 722.109 15.832C721.629 16.296 721.389 16.96 721.389 17.824V20.896C721.389 21.76 721.629 22.432 722.109 22.912C722.605 23.376 723.301 23.608 724.197 23.608ZM738.085 13.456C739.253 13.456 740.157 13.792 740.797 14.464C741.453 15.136 741.781 16.08 741.781 17.296V25H739.669V17.56C739.669 16.792 739.477 16.192 739.093 15.76C738.709 15.328 738.181 15.112 737.509 15.112C736.757 15.112 736.109 15.376 735.565 15.904C735.021 16.432 734.621 17.144 734.365 18.04V25H732.253V16.24C732.253 15.904 732.189 15.632 732.061 15.424C731.933 15.2 731.701 14.96 731.365 14.704L732.757 13.456C733.269 13.744 733.645 14.048 733.885 14.368C734.125 14.688 734.277 15.104 734.341 15.616C734.709 14.944 735.213 14.416 735.853 14.032C736.493 13.648 737.237 13.456 738.085 13.456ZM751.876 8.2H757.924C759.732 8.2 761.164 8.472 762.22 9.016C763.276 9.56 764.036 10.44 764.5 11.656C764.98 12.872 765.22 14.52 765.22 16.6C765.22 18.696 764.98 20.352 764.5 21.568C764.036 22.768 763.276 23.64 762.22 24.184C761.164 24.728 759.732 25 757.924 25H751.876V8.2ZM757.924 23.2C759.156 23.2 760.132 22.984 760.852 22.552C761.588 22.12 762.116 21.432 762.436 20.488C762.772 19.528 762.94 18.24 762.94 16.624C762.94 14.992 762.772 13.696 762.436 12.736C762.116 11.776 761.588 11.08 760.852 10.648C760.132 10.216 759.156 10 757.924 10H754.156V23.2H757.924ZM772.926 23.632C773.582 23.632 774.142 23.536 774.606 23.344C775.086 23.152 775.55 22.84 775.998 22.408L777.294 23.584C776.814 24.16 776.214 24.584 775.494 24.856C774.79 25.128 773.918 25.264 772.878 25.264C771.23 25.264 769.982 24.912 769.134 24.208C768.302 23.488 767.886 22.424 767.886 21.016V17.44C767.886 16.208 768.31 15.24 769.158 14.536C770.022 13.816 771.198 13.456 772.686 13.456C774.222 13.456 775.406 13.832 776.238 14.584C777.086 15.336 777.51 16.416 777.51 17.824C777.51 18.768 777.342 19.416 777.006 19.768C776.686 20.12 776.062 20.296 775.134 20.296H769.998V21.04C769.998 21.904 770.238 22.552 770.718 22.984C771.198 23.416 771.934 23.632 772.926 23.632ZM772.686 15.088C771.838 15.088 771.174 15.312 770.694 15.76C770.23 16.208 769.998 16.816 769.998 17.584V18.784H774.102C774.598 18.784 774.934 18.704 775.11 18.544C775.302 18.384 775.398 18.08 775.398 17.632C775.398 16.832 775.158 16.208 774.678 15.76C774.198 15.312 773.534 15.088 772.686 15.088ZM773.622 8.368H775.902L773.43 11.944H771.702L773.622 8.368ZM783.53 25.264C782.842 25.264 782.298 25.072 781.898 24.688C781.498 24.304 781.154 23.64 780.866 22.696L778.106 13.72H780.146L782.81 22.552C782.938 22.984 783.042 23.272 783.122 23.416C783.218 23.544 783.346 23.608 783.506 23.608C783.666 23.608 783.786 23.544 783.866 23.416C783.962 23.272 784.074 22.984 784.202 22.552L786.842 13.72H788.906L786.17 22.696C785.882 23.64 785.538 24.304 785.138 24.688C784.754 25.072 784.218 25.264 783.53 25.264ZM795.403 23.632C796.059 23.632 796.619 23.536 797.083 23.344C797.563 23.152 798.027 22.84 798.475 22.408L799.771 23.584C799.291 24.16 798.691 24.584 797.971 24.856C797.267 25.128 796.395 25.264 795.355 25.264C793.707 25.264 792.459 24.912 791.611 24.208C790.779 23.488 790.363 22.424 790.363 21.016V17.44C790.363 16.208 790.787 15.24 791.635 14.536C792.499 13.816 793.675 13.456 795.163 13.456C796.699 13.456 797.883 13.832 798.715 14.584C799.563 15.336 799.987 16.416 799.987 17.824C799.987 18.768 799.819 19.416 799.483 19.768C799.163 20.12 798.539 20.296 797.611 20.296H792.475V21.04C792.475 21.904 792.715 22.552 793.195 22.984C793.675 23.416 794.411 23.632 795.403 23.632ZM795.163 15.088C794.315 15.088 793.651 15.312 793.171 15.76C792.707 16.208 792.475 16.816 792.475 17.584V18.784H796.579C797.075 18.784 797.411 18.704 797.587 18.544C797.779 18.384 797.875 18.08 797.875 17.632C797.875 16.832 797.635 16.208 797.155 15.76C796.675 15.312 796.011 15.088 795.163 15.088ZM804.384 25.264C803.792 24.944 803.376 24.584 803.136 24.184C802.912 23.768 802.8 23.2 802.8 22.48V10.192C802.8 9.856 802.736 9.584 802.608 9.376C802.48 9.152 802.248 8.912 801.912 8.656L803.304 7.408C803.912 7.728 804.328 8.096 804.552 8.512C804.792 8.912 804.912 9.472 804.912 10.192V22.48C804.912 22.816 804.968 23.096 805.08 23.32C805.208 23.528 805.44 23.76 805.776 24.016L804.384 25.264ZM813.095 25.264C811.527 25.264 810.311 24.888 809.447 24.136C808.599 23.368 808.175 22.288 808.175 20.896V17.824C808.175 16.432 808.599 15.36 809.447 14.608C810.311 13.84 811.527 13.456 813.095 13.456C814.663 13.456 815.871 13.84 816.719 14.608C817.567 15.36 817.991 16.432 817.991 17.824V20.896C817.991 22.288 817.567 23.368 816.719 24.136C815.871 24.888 814.663 25.264 813.095 25.264ZM813.095 23.608C813.975 23.608 814.655 23.376 815.135 22.912C815.631 22.432 815.879 21.76 815.879 20.896V17.824C815.879 16.96 815.631 16.296 815.135 15.832C814.655 15.352 813.975 15.112 813.095 15.112C812.199 15.112 811.503 15.352 811.007 15.832C810.527 16.296 810.287 16.96 810.287 17.824V20.896C810.287 21.76 810.527 22.432 811.007 22.912C811.503 23.376 812.199 23.608 813.095 23.608ZM826.936 13.456C827.992 13.456 828.888 13.712 829.624 14.224C830.376 14.72 830.936 15.392 831.304 16.24C831.672 17.072 831.856 17.984 831.856 18.976V19.744C831.856 20.736 831.672 21.656 831.304 22.504C830.936 23.336 830.376 24.008 829.624 24.52C828.888 25.016 827.992 25.264 826.936 25.264C825.976 25.264 825.208 25.112 824.632 24.808C824.072 24.488 823.616 24.064 823.264 23.536V30.256H821.152V16.24C821.152 15.904 821.088 15.632 820.96 15.424C820.832 15.2 820.6 14.96 820.264 14.704L821.656 13.456C822.12 13.712 822.464 13.984 822.688 14.272C822.928 14.56 823.08 14.92 823.144 15.352C823.976 14.088 825.24 13.456 826.936 13.456ZM829.744 18.976C829.744 17.84 829.44 16.912 828.832 16.192C828.24 15.472 827.44 15.112 826.432 15.112C824.8 15.112 823.744 15.904 823.264 17.488V21.232C823.744 22.816 824.8 23.608 826.432 23.608C827.44 23.608 828.24 23.248 828.832 22.528C829.44 21.808 829.744 20.88 829.744 19.744V18.976ZM839.85 13.456C840.906 13.456 841.802 13.712 842.538 14.224C843.29 14.72 843.85 15.392 844.218 16.24C844.586 17.072 844.77 17.984 844.77 18.976V19.744C844.77 20.736 844.586 21.656 844.218 22.504C843.85 23.336 843.29 24.008 842.538 24.52C841.802 25.016 840.906 25.264 839.85 25.264C838.89 25.264 838.122 25.112 837.546 24.808C836.986 24.488 836.53 24.064 836.178 23.536V30.256H834.066V16.24C834.066 15.904 834.002 15.632 833.874 15.424C833.746 15.2 833.514 14.96 833.178 14.704L834.57 13.456C835.034 13.712 835.378 13.984 835.602 14.272C835.842 14.56 835.994 14.92 836.058 15.352C836.89 14.088 838.154 13.456 839.85 13.456ZM842.658 18.976C842.658 17.84 842.354 16.912 841.746 16.192C841.154 15.472 840.354 15.112 839.346 15.112C837.714 15.112 836.658 15.904 836.178 17.488V21.232C836.658 22.816 837.714 23.608 839.346 23.608C840.354 23.608 841.154 23.248 841.746 22.528C842.354 21.808 842.658 20.88 842.658 19.744V18.976ZM852.333 23.632C852.989 23.632 853.549 23.536 854.013 23.344C854.493 23.152 854.957 22.84 855.405 22.408L856.701 23.584C856.221 24.16 855.621 24.584 854.901 24.856C854.197 25.128 853.325 25.264 852.285 25.264C850.637 25.264 849.389 24.912 848.541 24.208C847.709 23.488 847.293 22.424 847.293 21.016V17.44C847.293 16.208 847.717 15.24 848.565 14.536C849.429 13.816 850.605 13.456 852.093 13.456C853.629 13.456 854.813 13.832 855.645 14.584C856.493 15.336 856.917 16.416 856.917 17.824C856.917 18.768 856.749 19.416 856.413 19.768C856.093 20.12 855.469 20.296 854.541 20.296H849.405V21.04C849.405 21.904 849.645 22.552 850.125 22.984C850.605 23.416 851.341 23.632 852.333 23.632ZM852.093 15.088C851.245 15.088 850.581 15.312 850.101 15.76C849.637 16.208 849.405 16.816 849.405 17.584V18.784H853.509C854.005 18.784 854.341 18.704 854.517 18.544C854.709 18.384 854.805 18.08 854.805 17.632C854.805 16.832 854.565 16.208 854.085 15.76C853.605 15.312 852.941 15.088 852.093 15.088ZM868.973 22.456C868.973 22.792 869.037 23.072 869.165 23.296C869.293 23.504 869.525 23.744 869.861 24.016L868.445 25.264C867.933 24.976 867.557 24.664 867.317 24.328C867.077 23.992 866.933 23.56 866.885 23.032C866.501 23.736 865.989 24.288 865.349 24.688C864.725 25.072 863.973 25.264 863.093 25.264C861.893 25.264 860.965 24.928 860.309 24.256C859.653 23.568 859.325 22.592 859.325 21.328V13.72H861.437V21.16C861.437 21.928 861.637 22.528 862.037 22.96C862.437 23.392 862.989 23.608 863.693 23.608C864.461 23.608 865.117 23.344 865.661 22.816C866.205 22.272 866.605 21.544 866.861 20.632V13.72H868.973V22.456ZM878.283 13.456C878.971 13.456 879.547 13.624 880.011 13.96L879.483 15.808C878.939 15.488 878.363 15.328 877.755 15.328C877.035 15.328 876.419 15.632 875.907 16.24C875.395 16.848 875.019 17.664 874.779 18.688V25H872.667V16.24C872.667 15.904 872.603 15.632 872.475 15.424C872.347 15.2 872.115 14.96 871.779 14.704L873.195 13.456C873.755 13.76 874.147 14.096 874.371 14.464C874.611 14.816 874.747 15.312 874.779 15.952C875.131 15.168 875.603 14.56 876.195 14.128C876.787 13.68 877.483 13.456 878.283 13.456ZM907.449 8.2L903.609 25H902.889C901.897 25 901.153 24.808 900.657 24.424C900.161 24.04 899.745 23.328 899.409 22.288L897.321 15.76L895.209 22.288C894.889 23.296 894.473 24 893.961 24.4C893.465 24.8 892.729 25 891.753 25H891.033L887.193 8.2H889.353L892.689 22.936C892.977 22.776 893.217 22.416 893.409 21.856L897.321 10.36L901.209 21.856C901.417 22.432 901.657 22.784 901.929 22.912L905.265 8.2H907.449ZM913.575 23.632C914.231 23.632 914.791 23.536 915.255 23.344C915.735 23.152 916.199 22.84 916.647 22.408L917.943 23.584C917.463 24.16 916.863 24.584 916.143 24.856C915.439 25.128 914.567 25.264 913.527 25.264C911.879 25.264 910.631 24.912 909.783 24.208C908.951 23.488 908.535 22.424 908.535 21.016V17.44C908.535 16.208 908.959 15.24 909.807 14.536C910.671 13.816 911.847 13.456 913.335 13.456C914.871 13.456 916.055 13.832 916.887 14.584C917.735 15.336 918.159 16.416 918.159 17.824C918.159 18.768 917.991 19.416 917.655 19.768C917.335 20.12 916.711 20.296 915.783 20.296H910.647V21.04C910.647 21.904 910.887 22.552 911.367 22.984C911.847 23.416 912.583 23.632 913.575 23.632ZM913.335 15.088C912.487 15.088 911.823 15.312 911.343 15.76C910.879 16.208 910.647 16.816 910.647 17.584V18.784H914.751C915.247 18.784 915.583 18.704 915.759 18.544C915.951 18.384 916.047 18.08 916.047 17.632C916.047 16.832 915.807 16.208 915.327 15.76C914.847 15.312 914.183 15.088 913.335 15.088ZM926.639 25.264C924.975 25.264 923.751 24.704 922.967 23.584V25H920.855V10.216C920.855 9.864 920.791 9.584 920.663 9.376C920.551 9.168 920.319 8.928 919.967 8.656L921.359 7.408C921.967 7.728 922.383 8.096 922.607 8.512C922.847 8.912 922.967 9.48 922.967 10.216V15.184C923.783 14.032 924.999 13.456 926.615 13.456C927.623 13.456 928.495 13.696 929.231 14.176C929.983 14.64 930.559 15.288 930.959 16.12C931.359 16.952 931.559 17.904 931.559 18.976V19.744C931.559 20.816 931.359 21.768 930.959 22.6C930.575 23.432 930.007 24.088 929.255 24.568C928.519 25.032 927.647 25.264 926.639 25.264ZM926.135 23.608C927.143 23.608 927.943 23.248 928.535 22.528C929.143 21.808 929.447 20.88 929.447 19.744V18.976C929.447 17.84 929.143 16.912 928.535 16.192C927.943 15.472 927.143 15.112 926.135 15.112C924.503 15.112 923.447 15.904 922.967 17.488V21.232C923.447 22.816 924.503 23.608 926.135 23.608ZM705.844 56.264C703.684 56.264 702.028 55.744 700.876 54.704C699.74 53.664 699.172 52.144 699.172 50.144V45.056C699.172 43.056 699.74 41.536 700.876 40.496C702.028 39.456 703.684 38.936 705.844 38.936C708.02 38.936 709.676 39.456 710.812 40.496C711.964 41.536 712.54 43.056 712.54 45.056V50.144C712.54 52.144 711.964 53.664 710.812 54.704C709.676 55.744 708.02 56.264 705.844 56.264ZM705.844 54.464C707.268 54.464 708.356 54.096 709.108 53.36C709.876 52.608 710.26 51.536 710.26 50.144V45.056C710.26 43.664 709.876 42.6 709.108 41.864C708.356 41.112 707.268 40.736 705.844 40.736C704.436 40.736 703.348 41.112 702.58 41.864C701.828 42.6 701.452 43.664 701.452 45.056V50.144C701.452 51.536 701.828 52.608 702.58 53.36C703.348 54.096 704.436 54.464 705.844 54.464ZM721.537 44.456C722.593 44.456 723.489 44.712 724.225 45.224C724.977 45.72 725.537 46.392 725.905 47.24C726.273 48.072 726.457 48.984 726.457 49.976V50.744C726.457 51.736 726.273 52.656 725.905 53.504C725.537 54.336 724.977 55.008 724.225 55.52C723.489 56.016 722.593 56.264 721.537 56.264C720.577 56.264 719.809 56.112 719.233 55.808C718.673 55.488 718.217 55.064 717.865 54.536V61.256H715.753V47.24C715.753 46.904 715.689 46.632 715.561 46.424C715.433 46.2 715.201 45.96 714.865 45.704L716.257 44.456C716.721 44.712 717.065 44.984 717.289 45.272C717.529 45.56 717.681 45.92 717.745 46.352C718.577 45.088 719.841 44.456 721.537 44.456ZM724.345 49.976C724.345 48.84 724.041 47.912 723.433 47.192C722.841 46.472 722.041 46.112 721.033 46.112C719.401 46.112 718.345 46.904 717.865 48.488V52.232C718.345 53.816 719.401 54.608 721.033 54.608C722.041 54.608 722.841 54.248 723.433 53.528C724.041 52.808 724.345 51.88 724.345 50.744V49.976ZM734.02 54.632C734.676 54.632 735.236 54.536 735.7 54.344C736.18 54.152 736.644 53.84 737.092 53.408L738.388 54.584C737.908 55.16 737.308 55.584 736.588 55.856C735.884 56.128 735.012 56.264 733.972 56.264C732.324 56.264 731.076 55.912 730.228 55.208C729.396 54.488 728.98 53.424 728.98 52.016V48.44C728.98 47.208 729.404 46.24 730.252 45.536C731.116 44.816 732.292 44.456 733.78 44.456C735.316 44.456 736.5 44.832 737.332 45.584C738.18 46.336 738.604 47.416 738.604 48.824C738.604 49.768 738.436 50.416 738.1 50.768C737.78 51.12 737.156 51.296 736.228 51.296H731.092V52.04C731.092 52.904 731.332 53.552 731.812 53.984C732.292 54.416 733.028 54.632 734.02 54.632ZM733.78 46.088C732.932 46.088 732.268 46.312 731.788 46.76C731.324 47.208 731.092 47.816 731.092 48.584V49.784H735.196C735.692 49.784 736.028 49.704 736.204 49.544C736.396 49.384 736.492 49.08 736.492 48.632C736.492 47.832 736.252 47.208 735.772 46.76C735.292 46.312 734.628 46.088 733.78 46.088ZM747.249 44.456C748.417 44.456 749.321 44.792 749.961 45.464C750.617 46.136 750.945 47.08 750.945 48.296V56H748.833V48.56C748.833 47.792 748.641 47.192 748.257 46.76C747.873 46.328 747.345 46.112 746.673 46.112C745.921 46.112 745.273 46.376 744.729 46.904C744.185 47.432 743.785 48.144 743.529 49.04V56H741.417V47.24C741.417 46.904 741.353 46.632 741.225 46.424C741.097 46.2 740.865 45.96 740.529 45.704L741.921 44.456C742.433 44.744 742.809 45.048 743.049 45.368C743.289 45.688 743.441 46.104 743.505 46.616C743.873 45.944 744.377 45.416 745.017 45.032C745.657 44.648 746.401 44.456 747.249 44.456ZM760.949 56.264C758.725 56.264 757.029 55.752 755.861 54.728C754.693 53.688 754.109 52.16 754.109 50.144V45.032C754.109 43.048 754.685 41.536 755.837 40.496C756.989 39.456 758.645 38.936 760.805 38.936C762.261 38.936 763.485 39.168 764.477 39.632C765.469 40.096 766.277 40.808 766.901 41.768L765.269 42.92C764.725 42.168 764.109 41.616 763.421 41.264C762.733 40.912 761.877 40.736 760.853 40.736C757.877 40.736 756.389 42.168 756.389 45.032V50.144C756.389 53.024 757.909 54.464 760.949 54.464C762.037 54.464 762.933 54.28 763.637 53.912C764.341 53.544 764.957 52.968 765.485 52.184L767.093 53.408C766.357 54.416 765.517 55.144 764.573 55.592C763.645 56.04 762.437 56.264 760.949 56.264ZM771.384 56.264C770.792 55.944 770.376 55.584 770.136 55.184C769.912 54.768 769.8 54.2 769.8 53.48V41.192C769.8 40.856 769.736 40.584 769.608 40.376C769.48 40.152 769.248 39.912 768.912 39.656L770.304 38.408C770.912 38.728 771.328 39.096 771.552 39.512C771.792 39.912 771.912 40.472 771.912 41.192V53.48C771.912 53.816 771.968 54.096 772.08 54.32C772.208 54.528 772.44 54.76 772.776 55.016L771.384 56.264ZM784.541 53.48C784.541 53.816 784.605 54.096 784.733 54.32C784.861 54.528 785.093 54.76 785.429 55.016L784.013 56.264C783.197 55.848 782.701 55.256 782.525 54.488C782.141 55.032 781.605 55.464 780.917 55.784C780.245 56.104 779.469 56.264 778.589 56.264C777.389 56.264 776.461 55.984 775.805 55.424C775.149 54.848 774.821 54.024 774.821 52.952C774.821 51.848 775.205 51.024 775.973 50.48C776.741 49.936 777.797 49.592 779.141 49.448L780.773 49.256C781.461 49.176 781.909 49.056 782.117 48.896C782.341 48.72 782.445 48.424 782.429 48.008C782.365 47.384 782.109 46.888 781.661 46.52C781.229 46.152 780.565 45.968 779.669 45.968C779.013 45.968 778.453 46.08 777.989 46.304C777.525 46.512 777.101 46.856 776.717 47.336L775.277 46.304C775.677 45.696 776.229 45.24 776.933 44.936C777.653 44.616 778.565 44.456 779.669 44.456C781.285 44.456 782.501 44.792 783.317 45.464C784.133 46.136 784.541 47.112 784.541 48.392V53.48ZM779.093 54.704C780.101 54.704 780.909 54.44 781.517 53.912C782.141 53.384 782.453 52.712 782.453 51.896V50.288C782.085 50.496 781.517 50.632 780.749 50.696L779.333 50.84C777.669 51.032 776.837 51.712 776.837 52.88C776.837 53.472 777.029 53.928 777.413 54.248C777.797 54.552 778.357 54.704 779.093 54.704ZM791.463 56.264C790.407 56.264 789.551 56.112 788.895 55.808C788.255 55.488 787.663 54.976 787.119 54.272L788.463 53.12C788.927 53.664 789.375 54.048 789.807 54.272C790.255 54.496 790.807 54.608 791.463 54.608C793.207 54.608 794.079 54.056 794.079 52.952C794.079 52.6 793.983 52.32 793.791 52.112C793.615 51.888 793.295 51.704 792.831 51.56C792.383 51.4 791.703 51.24 790.791 51.08C789.671 50.856 788.831 50.472 788.271 49.928C787.711 49.368 787.431 48.632 787.431 47.72C787.431 46.696 787.807 45.896 788.559 45.32C789.311 44.744 790.343 44.456 791.655 44.456C793.591 44.456 794.951 45.072 795.735 46.304L794.391 47.432C794.007 46.968 793.599 46.632 793.167 46.424C792.751 46.216 792.247 46.112 791.655 46.112C790.951 46.112 790.407 46.256 790.023 46.544C789.639 46.832 789.447 47.232 789.447 47.744C789.447 48.208 789.631 48.568 789.999 48.824C790.367 49.064 790.951 49.264 791.751 49.424C792.807 49.664 793.639 49.92 794.247 50.192C794.855 50.448 795.311 50.8 795.615 51.248C795.919 51.68 796.071 52.256 796.071 52.976C796.071 55.168 794.535 56.264 791.463 56.264ZM802.338 56.264C801.282 56.264 800.426 56.112 799.77 55.808C799.13 55.488 798.538 54.976 797.994 54.272L799.338 53.12C799.802 53.664 800.25 54.048 800.682 54.272C801.13 54.496 801.682 54.608 802.338 54.608C804.082 54.608 804.954 54.056 804.954 52.952C804.954 52.6 804.858 52.32 804.666 52.112C804.49 51.888 804.17 51.704 803.706 51.56C803.258 51.4 802.578 51.24 801.666 51.08C800.546 50.856 799.706 50.472 799.146 49.928C798.586 49.368 798.306 48.632 798.306 47.72C798.306 46.696 798.682 45.896 799.434 45.32C800.186 44.744 801.218 44.456 802.53 44.456C804.466 44.456 805.826 45.072 806.61 46.304L805.266 47.432C804.882 46.968 804.474 46.632 804.042 46.424C803.626 46.216 803.122 46.112 802.53 46.112C801.826 46.112 801.282 46.256 800.898 46.544C800.514 46.832 800.322 47.232 800.322 47.744C800.322 48.208 800.506 48.568 800.874 48.824C801.242 49.064 801.826 49.264 802.626 49.424C803.682 49.664 804.514 49.92 805.122 50.192C805.73 50.448 806.186 50.8 806.49 51.248C806.794 51.68 806.946 52.256 806.946 52.976C806.946 55.168 805.41 56.264 802.338 56.264ZM815.424 44.456C816.112 44.456 816.688 44.624 817.152 44.96L816.624 46.808C816.08 46.488 815.504 46.328 814.896 46.328C814.176 46.328 813.56 46.632 813.048 47.24C812.536 47.848 812.16 48.664 811.92 49.688V56H809.808V47.24C809.808 46.904 809.744 46.632 809.616 46.424C809.488 46.2 809.256 45.96 808.92 45.704L810.336 44.456C810.896 44.76 811.288 45.096 811.512 45.464C811.752 45.816 811.888 46.312 811.92 46.952C812.272 46.168 812.744 45.56 813.336 45.128C813.928 44.68 814.624 44.456 815.424 44.456ZM823.174 56.264C821.606 56.264 820.39 55.888 819.526 55.136C818.678 54.368 818.254 53.288 818.254 51.896V48.824C818.254 47.432 818.678 46.36 819.526 45.608C820.39 44.84 821.606 44.456 823.174 44.456C824.742 44.456 825.95 44.84 826.798 45.608C827.646 46.36 828.07 47.432 828.07 48.824V51.896C828.07 53.288 827.646 54.368 826.798 55.136C825.95 55.888 824.742 56.264 823.174 56.264ZM823.174 54.608C824.054 54.608 824.734 54.376 825.214 53.912C825.71 53.432 825.958 52.76 825.958 51.896V48.824C825.958 47.96 825.71 47.296 825.214 46.832C824.734 46.352 824.054 46.112 823.174 46.112C822.278 46.112 821.582 46.352 821.086 46.832C820.606 47.296 820.366 47.96 820.366 48.824V51.896C820.366 52.76 820.606 53.432 821.086 53.912C821.582 54.376 822.278 54.608 823.174 54.608ZM835.619 56.264C834.051 56.264 832.835 55.888 831.971 55.136C831.123 54.368 830.699 53.288 830.699 51.896V48.824C830.699 47.432 831.123 46.36 831.971 45.608C832.835 44.84 834.051 44.456 835.619 44.456C837.187 44.456 838.395 44.84 839.243 45.608C840.091 46.36 840.515 47.432 840.515 48.824V51.896C840.515 53.288 840.091 54.368 839.243 55.136C838.395 55.888 837.187 56.264 835.619 56.264ZM835.619 54.608C836.499 54.608 837.179 54.376 837.659 53.912C838.155 53.432 838.403 52.76 838.403 51.896V48.824C838.403 47.96 838.155 47.296 837.659 46.832C837.179 46.352 836.499 46.112 835.619 46.112C834.723 46.112 834.027 46.352 833.531 46.832C833.051 47.296 832.811 47.96 832.811 48.824V51.896C832.811 52.76 833.051 53.432 833.531 53.912C834.027 54.376 834.723 54.608 835.619 54.608ZM856.299 44.456C857.403 44.456 858.251 44.792 858.843 45.464C859.451 46.12 859.755 47.064 859.755 48.296V56H857.643V48.56C857.643 47.776 857.475 47.176 857.139 46.76C856.803 46.328 856.331 46.112 855.723 46.112C855.003 46.112 854.379 46.392 853.851 46.952C853.339 47.496 852.979 48.232 852.771 49.16V56H850.659V48.56C850.659 47.776 850.491 47.176 850.155 46.76C849.819 46.328 849.347 46.112 848.739 46.112C848.019 46.112 847.395 46.4 846.867 46.976C846.339 47.536 845.979 48.264 845.787 49.16V56H843.675V47.24C843.675 46.904 843.611 46.632 843.483 46.424C843.355 46.2 843.123 45.96 842.787 45.704L844.179 44.456C845.139 44.936 845.659 45.664 845.739 46.64C846.123 45.936 846.619 45.4 847.227 45.032C847.835 44.648 848.531 44.456 849.315 44.456C850.195 44.456 850.907 44.68 851.451 45.128C852.011 45.56 852.379 46.192 852.555 47.024C852.843 46.24 853.315 45.616 853.971 45.152C854.643 44.688 855.419 44.456 856.299 44.456ZM866.697 56.264C865.641 56.264 864.785 56.112 864.129 55.808C863.489 55.488 862.897 54.976 862.353 54.272L863.697 53.12C864.161 53.664 864.609 54.048 865.041 54.272C865.489 54.496 866.041 54.608 866.697 54.608C868.441 54.608 869.313 54.056 869.313 52.952C869.313 52.6 869.217 52.32 869.025 52.112C868.849 51.888 868.529 51.704 868.065 51.56C867.617 51.4 866.937 51.24 866.025 51.08C864.905 50.856 864.065 50.472 863.505 49.928C862.945 49.368 862.665 48.632 862.665 47.72C862.665 46.696 863.041 45.896 863.793 45.32C864.545 44.744 865.577 44.456 866.889 44.456C868.825 44.456 870.185 45.072 870.969 46.304L869.625 47.432C869.241 46.968 868.833 46.632 868.401 46.424C867.985 46.216 867.481 46.112 866.889 46.112C866.185 46.112 865.641 46.256 865.257 46.544C864.873 46.832 864.681 47.232 864.681 47.744C864.681 48.208 864.865 48.568 865.233 48.824C865.601 49.064 866.185 49.264 866.985 49.424C868.041 49.664 868.873 49.92 869.481 50.192C870.089 50.448 870.545 50.8 870.849 51.248C871.153 51.68 871.305 52.256 871.305 52.976C871.305 55.168 869.769 56.264 866.697 56.264ZM769.193 85.344V87H757.289V85.392L762.905 80.424C764.345 79.16 765.337 78.12 765.881 77.304C766.425 76.472 766.697 75.624 766.697 74.76C766.697 73.784 766.345 73.016 765.641 72.456C764.937 71.896 763.993 71.616 762.809 71.616C761.097 71.616 759.721 72.24 758.681 73.488L757.745 72C759.009 70.64 760.737 69.96 762.929 69.96C764.689 69.96 766.105 70.36 767.177 71.16C768.265 71.944 768.809 73.112 768.809 74.664C768.809 76.632 767.713 78.6 765.521 80.568L760.169 85.344H769.193ZM777.588 87.264C775.7 87.264 774.268 86.72 773.292 85.632C772.316 84.544 771.828 82.968 771.828 80.904V76.152C771.828 74.12 772.316 72.576 773.292 71.52C774.268 70.464 775.7 69.936 777.588 69.936C779.46 69.936 780.884 70.472 781.86 71.544C782.852 72.6 783.348 74.136 783.348 76.152V80.904C783.348 82.968 782.852 84.544 781.86 85.632C780.884 86.72 779.46 87.264 777.588 87.264ZM777.588 85.608C778.772 85.608 779.676 85.208 780.3 84.408C780.924 83.608 781.236 82.44 781.236 80.904V76.152C781.236 74.664 780.924 73.536 780.3 72.768C779.676 71.984 778.772 71.592 777.588 71.592C776.404 71.592 775.5 71.984 774.876 72.768C774.252 73.536 773.94 74.664 773.94 76.152V80.904C773.94 82.44 774.252 83.608 774.876 84.408C775.5 85.208 776.404 85.608 777.588 85.608ZM797.88 85.344V87H785.976V85.392L791.592 80.424C793.032 79.16 794.024 78.12 794.568 77.304C795.112 76.472 795.384 75.624 795.384 74.76C795.384 73.784 795.032 73.016 794.328 72.456C793.624 71.896 792.68 71.616 791.496 71.616C789.784 71.616 788.408 72.24 787.368 73.488L786.432 72C787.696 70.64 789.424 69.96 791.616 69.96C793.376 69.96 794.792 70.36 795.864 71.16C796.952 71.944 797.496 73.112 797.496 74.664C797.496 76.632 796.4 78.6 794.208 80.568L788.856 85.344H797.88ZM808.819 78.192C809.891 78.416 810.747 78.896 811.387 79.632C812.043 80.368 812.371 81.288 812.371 82.392C812.371 83.896 811.803 85.088 810.667 85.968C809.547 86.832 808.011 87.264 806.059 87.264C804.891 87.264 803.795 87.064 802.771 86.664C801.763 86.264 800.915 85.648 800.227 84.816L801.451 83.592C802.107 84.264 802.803 84.768 803.539 85.104C804.275 85.44 805.131 85.608 806.107 85.608C807.419 85.608 808.435 85.32 809.155 84.744C809.891 84.168 810.259 83.376 810.259 82.368C810.259 81.264 809.867 80.432 809.083 79.872C808.299 79.296 807.131 79.008 805.579 79.008C805.051 79.008 804.323 79.064 803.395 79.176L803.131 77.76C804.795 77.712 806.107 77.576 807.067 77.352C808.043 77.128 808.747 76.792 809.179 76.344C809.611 75.896 809.827 75.296 809.827 74.544C809.827 73.616 809.483 72.896 808.795 72.384C808.107 71.856 807.171 71.592 805.987 71.592C804.227 71.592 802.835 72.216 801.811 73.464L800.827 72C802.107 70.624 803.867 69.936 806.107 69.936C807.835 69.936 809.235 70.312 810.307 71.064C811.395 71.816 811.939 72.92 811.939 74.376C811.939 75.32 811.667 76.12 811.123 76.776C810.595 77.432 809.827 77.904 808.819 78.192Z" fill="black"/>
<path d="M310.513 235.2H311.785C312.681 235.2 313.369 235.392 313.849 235.776C314.345 236.16 314.857 236.872 315.385 237.912L318.217 243.36L321.049 237.912C321.577 236.872 322.081 236.16 322.561 235.776C323.057 235.392 323.753 235.2 324.649 235.2H325.921V252H323.809V237.528C323.601 237.544 323.417 237.632 323.257 237.792C323.113 237.936 322.937 238.192 322.729 238.56L318.217 247.032L313.705 238.56C313.513 238.192 313.337 237.936 313.177 237.792C313.017 237.632 312.833 237.544 312.625 237.528V252H310.513V235.2ZM339.053 249.48C339.053 249.816 339.117 250.096 339.245 250.32C339.373 250.528 339.605 250.76 339.941 251.016L338.525 252.264C337.709 251.848 337.213 251.256 337.037 250.488C336.653 251.032 336.117 251.464 335.429 251.784C334.757 252.104 333.981 252.264 333.101 252.264C331.901 252.264 330.973 251.984 330.317 251.424C329.661 250.848 329.333 250.024 329.333 248.952C329.333 247.848 329.717 247.024 330.485 246.48C331.253 245.936 332.309 245.592 333.653 245.448L335.285 245.256C335.973 245.176 336.421 245.056 336.629 244.896C336.853 244.72 336.957 244.424 336.941 244.008C336.877 243.384 336.621 242.888 336.173 242.52C335.741 242.152 335.077 241.968 334.181 241.968C333.525 241.968 332.965 242.08 332.501 242.304C332.037 242.512 331.613 242.856 331.229 243.336L329.789 242.304C330.189 241.696 330.741 241.24 331.445 240.936C332.165 240.616 333.077 240.456 334.181 240.456C335.797 240.456 337.013 240.792 337.829 241.464C338.645 242.136 339.053 243.112 339.053 244.392V249.48ZM333.605 250.704C334.613 250.704 335.421 250.44 336.029 249.912C336.653 249.384 336.965 248.712 336.965 247.896V246.288C336.597 246.496 336.029 246.632 335.261 246.696L333.845 246.84C332.181 247.032 331.349 247.712 331.349 248.88C331.349 249.472 331.541 249.928 331.925 250.248C332.309 250.552 332.869 250.704 333.605 250.704ZM345.975 252.264C344.919 252.264 344.063 252.112 343.407 251.808C342.767 251.488 342.175 250.976 341.631 250.272L342.975 249.12C343.439 249.664 343.887 250.048 344.319 250.272C344.767 250.496 345.319 250.608 345.975 250.608C347.719 250.608 348.591 250.056 348.591 248.952C348.591 248.6 348.495 248.32 348.303 248.112C348.127 247.888 347.807 247.704 347.343 247.56C346.895 247.4 346.215 247.24 345.303 247.08C344.183 246.856 343.343 246.472 342.783 245.928C342.223 245.368 341.943 244.632 341.943 243.72C341.943 242.696 342.319 241.896 343.071 241.32C343.823 240.744 344.855 240.456 346.167 240.456C348.103 240.456 349.463 241.072 350.247 242.304L348.903 243.432C348.519 242.968 348.111 242.632 347.679 242.424C347.263 242.216 346.759 242.112 346.167 242.112C345.463 242.112 344.919 242.256 344.535 242.544C344.151 242.832 343.959 243.232 343.959 243.744C343.959 244.208 344.143 244.568 344.511 244.824C344.879 245.064 345.463 245.264 346.263 245.424C347.319 245.664 348.151 245.92 348.759 246.192C349.367 246.448 349.823 246.8 350.127 247.248C350.431 247.68 350.583 248.256 350.583 248.976C350.583 251.168 349.047 252.264 345.975 252.264ZM355.319 242.376V248.424C355.319 249.112 355.455 249.624 355.727 249.96C355.999 250.28 356.431 250.44 357.023 250.44H358.559V252.096H357.023C355.663 252.096 354.687 251.808 354.095 251.232C353.503 250.656 353.207 249.72 353.207 248.424V238.392C353.207 238.056 353.143 237.784 353.015 237.576C352.887 237.352 352.655 237.112 352.319 236.856L353.735 235.608C354.327 235.928 354.735 236.296 354.959 236.712C355.199 237.112 355.319 237.672 355.319 238.392V240.72H358.559V242.376H355.319ZM365.688 250.632C366.344 250.632 366.904 250.536 367.368 250.344C367.848 250.152 368.312 249.84 368.76 249.408L370.056 250.584C369.576 251.16 368.976 251.584 368.256 251.856C367.552 252.128 366.68 252.264 365.64 252.264C363.992 252.264 362.744 251.912 361.896 251.208C361.064 250.488 360.648 249.424 360.648 248.016V244.44C360.648 243.208 361.072 242.24 361.92 241.536C362.784 240.816 363.96 240.456 365.448 240.456C366.984 240.456 368.168 240.832 369 241.584C369.848 242.336 370.272 243.416 370.272 244.824C370.272 245.768 370.104 246.416 369.768 246.768C369.448 247.12 368.824 247.296 367.896 247.296H362.76V248.04C362.76 248.904 363 249.552 363.48 249.984C363.96 250.416 364.696 250.632 365.688 250.632ZM365.448 242.088C364.6 242.088 363.936 242.312 363.456 242.76C362.992 243.208 362.76 243.816 362.76 244.584V245.784H366.864C367.36 245.784 367.696 245.704 367.872 245.544C368.064 245.384 368.16 245.08 368.16 244.632C368.16 243.832 367.92 243.208 367.44 242.76C366.96 242.312 366.296 242.088 365.448 242.088ZM378.701 240.456C379.389 240.456 379.965 240.624 380.429 240.96L379.901 242.808C379.357 242.488 378.781 242.328 378.173 242.328C377.453 242.328 376.837 242.632 376.325 243.24C375.813 243.848 375.437 244.664 375.197 245.688V252H373.085V243.24C373.085 242.904 373.021 242.632 372.893 242.424C372.765 242.2 372.533 241.96 372.197 241.704L373.613 240.456C374.173 240.76 374.565 241.096 374.789 241.464C375.029 241.816 375.165 242.312 375.197 242.952C375.549 242.168 376.021 241.56 376.613 241.128C377.205 240.68 377.901 240.456 378.701 240.456ZM394.235 252.264C392.699 252.264 391.459 252.032 390.515 251.568C389.587 251.104 388.715 250.336 387.899 249.264L389.435 247.944C390.107 248.872 390.795 249.528 391.499 249.912C392.203 250.28 393.091 250.464 394.163 250.464C395.587 250.464 396.667 250.216 397.403 249.72C398.155 249.208 398.531 248.464 398.531 247.488C398.531 246.928 398.379 246.472 398.075 246.12C397.787 245.768 397.275 245.464 396.539 245.208C395.803 244.936 394.715 244.656 393.275 244.368C391.659 244.048 390.467 243.504 389.699 242.736C388.931 241.968 388.547 240.952 388.547 239.688C388.547 238.216 389.075 237.056 390.131 236.208C391.203 235.36 392.667 234.936 394.523 234.936C397.259 234.936 399.195 235.84 400.331 237.648L398.795 238.896C398.235 238.176 397.611 237.64 396.923 237.288C396.251 236.92 395.443 236.736 394.499 236.736C393.347 236.736 392.443 237 391.787 237.528C391.147 238.04 390.827 238.744 390.827 239.64C390.827 240.44 391.147 241.072 391.787 241.536C392.427 241.984 393.395 242.336 394.691 242.592C396.179 242.896 397.355 243.232 398.219 243.6C399.083 243.968 399.731 244.456 400.163 245.064C400.595 245.672 400.811 246.472 400.811 247.464C400.811 249.048 400.251 250.248 399.131 251.064C398.027 251.864 396.395 252.264 394.235 252.264ZM408.084 252.264C406.516 252.264 405.3 251.888 404.436 251.136C403.588 250.368 403.164 249.288 403.164 247.896V244.824C403.164 243.432 403.588 242.36 404.436 241.608C405.3 240.84 406.516 240.456 408.084 240.456C409.652 240.456 410.86 240.84 411.708 241.608C412.556 242.36 412.98 243.432 412.98 244.824V247.896C412.98 249.288 412.556 250.368 411.708 251.136C410.86 251.888 409.652 252.264 408.084 252.264ZM408.084 250.608C408.964 250.608 409.644 250.376 410.124 249.912C410.62 249.432 410.868 248.76 410.868 247.896V244.824C410.868 243.96 410.62 243.296 410.124 242.832C409.644 242.352 408.964 242.112 408.084 242.112C407.188 242.112 406.492 242.352 405.996 242.832C405.516 243.296 405.276 243.96 405.276 244.824V247.896C405.276 248.76 405.516 249.432 405.996 249.912C406.492 250.376 407.188 250.608 408.084 250.608ZM421.972 240.456C423.14 240.456 424.044 240.792 424.684 241.464C425.34 242.136 425.668 243.08 425.668 244.296V252H423.556V244.56C423.556 243.792 423.364 243.192 422.98 242.76C422.596 242.328 422.068 242.112 421.396 242.112C420.644 242.112 419.996 242.376 419.452 242.904C418.908 243.432 418.508 244.144 418.252 245.04V252H416.14V243.24C416.14 242.904 416.076 242.632 415.948 242.424C415.82 242.2 415.588 241.96 415.252 241.704L416.644 240.456C417.156 240.744 417.532 241.048 417.772 241.368C418.012 241.688 418.164 242.104 418.228 242.616C418.596 241.944 419.1 241.416 419.74 241.032C420.38 240.648 421.124 240.456 421.972 240.456ZM440.659 252C438.707 252 437.275 251.576 436.363 250.728C435.451 249.88 434.995 248.608 434.995 246.912V240.288C434.995 238.592 435.451 237.32 436.363 236.472C437.275 235.624 438.707 235.2 440.659 235.2H446.395V237H440.659C439.491 237 438.635 237.272 438.091 237.816C437.547 238.344 437.275 239.168 437.275 240.288V242.688H445.219V244.512H437.275V246.912C437.275 248.032 437.547 248.864 438.091 249.408C438.635 249.936 439.491 250.2 440.659 250.2H446.491V252H440.659ZM442.627 229.848H444.907L442.435 233.424H440.707L442.627 229.848ZM453.343 252.264C451.727 252.264 450.487 251.896 449.623 251.16C448.775 250.424 448.351 249.368 448.351 247.992V244.728C448.351 243.368 448.783 242.32 449.647 241.584C450.527 240.832 451.767 240.456 453.367 240.456C455.287 240.456 456.719 241.072 457.663 242.304L456.223 243.504C455.775 242.992 455.343 242.632 454.927 242.424C454.511 242.216 453.991 242.112 453.367 242.112C452.439 242.112 451.719 242.344 451.207 242.808C450.711 243.256 450.463 243.896 450.463 244.728V247.992C450.463 248.824 450.711 249.472 451.207 249.936C451.703 250.384 452.415 250.608 453.343 250.608C453.999 250.608 454.551 250.496 454.999 250.272C455.463 250.048 455.887 249.696 456.271 249.216L457.711 250.416C457.247 251.04 456.663 251.504 455.959 251.808C455.255 252.112 454.383 252.264 453.343 252.264ZM464.662 252.264C463.094 252.264 461.878 251.888 461.014 251.136C460.166 250.368 459.742 249.288 459.742 247.896V244.824C459.742 243.432 460.166 242.36 461.014 241.608C461.878 240.84 463.094 240.456 464.662 240.456C466.23 240.456 467.438 240.84 468.286 241.608C469.134 242.36 469.558 243.432 469.558 244.824V247.896C469.558 249.288 469.134 250.368 468.286 251.136C467.438 251.888 466.23 252.264 464.662 252.264ZM464.662 250.608C465.542 250.608 466.222 250.376 466.702 249.912C467.198 249.432 467.446 248.76 467.446 247.896V244.824C467.446 243.96 467.198 243.296 466.702 242.832C466.222 242.352 465.542 242.112 464.662 242.112C463.766 242.112 463.07 242.352 462.574 242.832C462.094 243.296 461.854 243.96 461.854 244.824V247.896C461.854 248.76 462.094 249.432 462.574 249.912C463.07 250.376 463.766 250.608 464.662 250.608ZM474.302 252.264C473.71 251.944 473.294 251.584 473.054 251.184C472.83 250.768 472.718 250.2 472.718 249.48V237.192C472.718 236.856 472.654 236.584 472.526 236.376C472.398 236.152 472.166 235.912 471.83 235.656L473.222 234.408C473.83 234.728 474.246 235.096 474.47 235.512C474.71 235.912 474.83 236.472 474.83 237.192V249.48C474.83 249.816 474.886 250.096 474.998 250.32C475.126 250.528 475.358 250.76 475.694 251.016L474.302 252.264ZM483.133 250.632C483.789 250.632 484.349 250.536 484.813 250.344C485.293 250.152 485.757 249.84 486.205 249.408L487.501 250.584C487.021 251.16 486.421 251.584 485.701 251.856C484.997 252.128 484.125 252.264 483.085 252.264C481.437 252.264 480.189 251.912 479.341 251.208C478.509 250.488 478.093 249.424 478.093 248.016V244.44C478.093 243.208 478.517 242.24 479.365 241.536C480.229 240.816 481.405 240.456 482.893 240.456C484.429 240.456 485.613 240.832 486.445 241.584C487.293 242.336 487.717 243.416 487.717 244.824C487.717 245.768 487.549 246.416 487.213 246.768C486.893 247.12 486.269 247.296 485.341 247.296H480.205V248.04C480.205 248.904 480.445 249.552 480.925 249.984C481.405 250.416 482.141 250.632 483.133 250.632ZM482.893 242.088C482.045 242.088 481.381 242.312 480.901 242.76C480.437 243.208 480.205 243.816 480.205 244.584V245.784H484.309C484.805 245.784 485.141 245.704 485.317 245.544C485.509 245.384 485.605 245.08 485.605 244.632C485.605 243.832 485.365 243.208 484.885 242.76C484.405 242.312 483.741 242.088 482.893 242.088ZM510.323 235.2V249.024C510.323 250.016 510.115 250.76 509.699 251.256C509.299 251.752 508.659 252 507.779 252H506.171L499.259 238.704V252H497.099V235.2H499.739L507.347 250.032H507.491C507.747 250.032 507.923 249.936 508.019 249.744C508.115 249.552 508.163 249.2 508.163 248.688V235.2H510.323ZM523.154 249.48C523.154 249.816 523.218 250.096 523.346 250.32C523.474 250.528 523.706 250.76 524.042 251.016L522.626 252.264C521.81 251.848 521.314 251.256 521.138 250.488C520.754 251.032 520.218 251.464 519.53 251.784C518.858 252.104 518.082 252.264 517.202 252.264C516.002 252.264 515.074 251.984 514.418 251.424C513.762 250.848 513.434 250.024 513.434 248.952C513.434 247.848 513.818 247.024 514.586 246.48C515.354 245.936 516.41 245.592 517.754 245.448L519.386 245.256C520.074 245.176 520.522 245.056 520.73 244.896C520.954 244.72 521.058 244.424 521.042 244.008C520.978 243.384 520.722 242.888 520.274 242.52C519.842 242.152 519.178 241.968 518.282 241.968C517.626 241.968 517.066 242.08 516.602 242.304C516.138 242.512 515.714 242.856 515.33 243.336L513.89 242.304C514.29 241.696 514.842 241.24 515.546 240.936C516.266 240.616 517.178 240.456 518.282 240.456C519.898 240.456 521.114 240.792 521.93 241.464C522.746 242.136 523.154 243.112 523.154 244.392V249.48ZM517.706 250.704C518.714 250.704 519.522 250.44 520.13 249.912C520.754 249.384 521.066 248.712 521.066 247.896V246.288C520.698 246.496 520.13 246.632 519.362 246.696L517.946 246.84C516.282 247.032 515.45 247.712 515.45 248.88C515.45 249.472 515.642 249.928 516.026 250.248C516.41 250.552 516.97 250.704 517.706 250.704ZM528.546 242.376V248.424C528.546 249.112 528.682 249.624 528.954 249.96C529.226 250.28 529.658 250.44 530.25 250.44H531.786V252.096H530.25C528.89 252.096 527.914 251.808 527.322 251.232C526.73 250.656 526.434 249.72 526.434 248.424V238.392C526.434 238.056 526.37 237.784 526.242 237.576C526.114 237.352 525.882 237.112 525.546 236.856L526.962 235.608C527.554 235.928 527.962 236.296 528.186 236.712C528.426 237.112 528.546 237.672 528.546 238.392V240.72H531.786V242.376H528.546ZM535.51 238.512C535.142 238.512 534.822 238.384 534.55 238.128C534.294 237.856 534.166 237.536 534.166 237.168C534.166 236.8 534.294 236.488 534.55 236.232C534.822 235.96 535.142 235.824 535.51 235.824C535.878 235.824 536.19 235.96 536.446 236.232C536.718 236.488 536.854 236.8 536.854 237.168C536.854 237.536 536.718 237.856 536.446 238.128C536.19 238.384 535.878 238.512 535.51 238.512ZM536.038 252.264C535.446 251.944 535.03 251.584 534.79 251.184C534.566 250.768 534.454 250.2 534.454 249.48V240.72H536.566V249.48C536.566 249.816 536.63 250.096 536.758 250.32C536.886 250.528 537.118 250.76 537.454 251.016L536.038 252.264ZM544.888 252.264C543.32 252.264 542.104 251.888 541.24 251.136C540.392 250.368 539.968 249.288 539.968 247.896V244.824C539.968 243.432 540.392 242.36 541.24 241.608C542.104 240.84 543.32 240.456 544.888 240.456C546.456 240.456 547.664 240.84 548.512 241.608C549.36 242.36 549.784 243.432 549.784 244.824V247.896C549.784 249.288 549.36 250.368 548.512 251.136C547.664 251.888 546.456 252.264 544.888 252.264ZM544.888 250.608C545.768 250.608 546.448 250.376 546.928 249.912C547.424 249.432 547.672 248.76 547.672 247.896V244.824C547.672 243.96 547.424 243.296 546.928 242.832C546.448 242.352 545.768 242.112 544.888 242.112C543.992 242.112 543.296 242.352 542.8 242.832C542.32 243.296 542.08 243.96 542.08 244.824V247.896C542.08 248.76 542.32 249.432 542.8 249.912C543.296 250.376 543.992 250.608 544.888 250.608ZM558.777 240.456C559.945 240.456 560.849 240.792 561.489 241.464C562.145 242.136 562.473 243.08 562.473 244.296V252H560.361V244.56C560.361 243.792 560.169 243.192 559.785 242.76C559.401 242.328 558.873 242.112 558.201 242.112C557.449 242.112 556.801 242.376 556.257 242.904C555.713 243.432 555.313 244.144 555.057 245.04V252H552.945V243.24C552.945 242.904 552.881 242.632 552.753 242.424C552.625 242.2 552.393 241.96 552.057 241.704L553.449 240.456C553.961 240.744 554.337 241.048 554.577 241.368C554.817 241.688 554.969 242.104 555.033 242.616C555.401 241.944 555.905 241.416 556.545 241.032C557.185 240.648 557.929 240.456 558.777 240.456ZM575.068 249.48C575.068 249.816 575.132 250.096 575.26 250.32C575.388 250.528 575.62 250.76 575.956 251.016L574.54 252.264C573.724 251.848 573.228 251.256 573.052 250.488C572.668 251.032 572.132 251.464 571.444 251.784C570.772 252.104 569.996 252.264 569.116 252.264C567.916 252.264 566.988 251.984 566.332 251.424C565.676 250.848 565.348 250.024 565.348 248.952C565.348 247.848 565.732 247.024 566.5 246.48C567.268 245.936 568.324 245.592 569.668 245.448L571.3 245.256C571.988 245.176 572.436 245.056 572.644 244.896C572.868 244.72 572.972 244.424 572.956 244.008C572.892 243.384 572.636 242.888 572.188 242.52C571.756 242.152 571.092 241.968 570.196 241.968C569.54 241.968 568.98 242.08 568.516 242.304C568.052 242.512 567.628 242.856 567.244 243.336L565.804 242.304C566.204 241.696 566.756 241.24 567.46 240.936C568.18 240.616 569.092 240.456 570.196 240.456C571.812 240.456 573.028 240.792 573.844 241.464C574.66 242.136 575.068 243.112 575.068 244.392V249.48ZM569.62 250.704C570.628 250.704 571.436 250.44 572.044 249.912C572.668 249.384 572.98 248.712 572.98 247.896V246.288C572.612 246.496 572.044 246.632 571.276 246.696L569.86 246.84C568.196 247.032 567.364 247.712 567.364 248.88C567.364 249.472 567.556 249.928 567.94 250.248C568.324 250.552 568.884 250.704 569.62 250.704ZM579.935 252.264C579.343 251.944 578.927 251.584 578.687 251.184C578.463 250.768 578.351 250.2 578.351 249.48V237.192C578.351 236.856 578.287 236.584 578.159 236.376C578.031 236.152 577.799 235.912 577.463 235.656L578.855 234.408C579.463 234.728 579.879 235.096 580.103 235.512C580.343 235.912 580.463 236.472 580.463 237.192V249.48C580.463 249.816 580.519 250.096 580.631 250.32C580.759 250.528 580.991 250.76 581.327 251.016L579.935 252.264ZM588.766 250.632C589.422 250.632 589.982 250.536 590.446 250.344C590.926 250.152 591.39 249.84 591.838 249.408L593.134 250.584C592.654 251.16 592.054 251.584 591.334 251.856C590.63 252.128 589.758 252.264 588.718 252.264C587.07 252.264 585.822 251.912 584.974 251.208C584.142 250.488 583.726 249.424 583.726 248.016V244.44C583.726 243.208 584.15 242.24 584.998 241.536C585.862 240.816 587.038 240.456 588.526 240.456C590.062 240.456 591.246 240.832 592.078 241.584C592.926 242.336 593.35 243.416 593.35 244.824C593.35 245.768 593.182 246.416 592.846 246.768C592.526 247.12 591.902 247.296 590.974 247.296H585.838V248.04C585.838 248.904 586.078 249.552 586.558 249.984C587.038 250.416 587.774 250.632 588.766 250.632ZM588.526 242.088C587.678 242.088 587.014 242.312 586.534 242.76C586.07 243.208 585.838 243.816 585.838 244.584V245.784H589.942C590.438 245.784 590.774 245.704 590.95 245.544C591.142 245.384 591.238 245.08 591.238 244.632C591.238 243.832 590.998 243.208 590.518 242.76C590.038 242.312 589.374 242.088 588.526 242.088ZM607.867 252.264C606.331 252.264 605.091 252.032 604.147 251.568C603.219 251.104 602.347 250.336 601.531 249.264L603.067 247.944C603.739 248.872 604.427 249.528 605.131 249.912C605.835 250.28 606.723 250.464 607.795 250.464C609.219 250.464 610.299 250.216 611.035 249.72C611.787 249.208 612.163 248.464 612.163 247.488C612.163 246.928 612.011 246.472 611.707 246.12C611.419 245.768 610.907 245.464 610.171 245.208C609.435 244.936 608.347 244.656 606.907 244.368C605.291 244.048 604.099 243.504 603.331 242.736C602.563 241.968 602.179 240.952 602.179 239.688C602.179 238.216 602.707 237.056 603.763 236.208C604.835 235.36 606.299 234.936 608.155 234.936C610.891 234.936 612.827 235.84 613.963 237.648L612.427 238.896C611.867 238.176 611.243 237.64 610.555 237.288C609.883 236.92 609.075 236.736 608.131 236.736C606.979 236.736 606.075 237 605.419 237.528C604.779 238.04 604.459 238.744 604.459 239.64C604.459 240.44 604.779 241.072 605.419 241.536C606.059 241.984 607.027 242.336 608.323 242.592C609.811 242.896 610.987 243.232 611.851 243.6C612.715 243.968 613.363 244.456 613.795 245.064C614.227 245.672 614.443 246.472 614.443 247.464C614.443 249.048 613.883 250.248 612.763 251.064C611.659 251.864 610.027 252.264 607.867 252.264ZM626.805 249.456C626.805 249.792 626.869 250.072 626.997 250.296C627.125 250.504 627.357 250.744 627.693 251.016L626.277 252.264C625.765 251.976 625.389 251.664 625.149 251.328C624.909 250.992 624.765 250.56 624.717 250.032C624.333 250.736 623.821 251.288 623.181 251.688C622.557 252.072 621.805 252.264 620.925 252.264C619.725 252.264 618.797 251.928 618.141 251.256C617.485 250.568 617.157 249.592 617.157 248.328V240.72H619.269V248.16C619.269 248.928 619.469 249.528 619.869 249.96C620.269 250.392 620.821 250.608 621.525 250.608C622.293 250.608 622.949 250.344 623.493 249.816C624.037 249.272 624.437 248.544 624.693 247.632V240.72H626.805V249.456ZM636.283 240.456C637.339 240.456 638.235 240.712 638.971 241.224C639.723 241.72 640.283 242.392 640.651 243.24C641.019 244.072 641.203 244.984 641.203 245.976V246.744C641.203 247.736 641.019 248.656 640.651 249.504C640.283 250.336 639.723 251.008 638.971 251.52C638.235 252.016 637.339 252.264 636.283 252.264C635.323 252.264 634.555 252.112 633.979 251.808C633.419 251.488 632.963 251.064 632.611 250.536V257.256H630.499V243.24C630.499 242.904 630.435 242.632 630.307 242.424C630.179 242.2 629.947 241.96 629.611 241.704L631.003 240.456C631.467 240.712 631.811 240.984 632.035 241.272C632.275 241.56 632.427 241.92 632.491 242.352C633.323 241.088 634.587 240.456 636.283 240.456ZM639.091 245.976C639.091 244.84 638.787 243.912 638.179 243.192C637.587 242.472 636.787 242.112 635.779 242.112C634.147 242.112 633.091 242.904 632.611 244.488V248.232C633.091 249.816 634.147 250.608 635.779 250.608C636.787 250.608 637.587 250.248 638.179 249.528C638.787 248.808 639.091 247.88 639.091 246.744V245.976ZM648.766 250.632C649.422 250.632 649.982 250.536 650.446 250.344C650.926 250.152 651.39 249.84 651.838 249.408L653.134 250.584C652.654 251.16 652.054 251.584 651.334 251.856C650.63 252.128 649.758 252.264 648.718 252.264C647.07 252.264 645.822 251.912 644.974 251.208C644.142 250.488 643.726 249.424 643.726 248.016V244.44C643.726 243.208 644.15 242.24 644.998 241.536C645.862 240.816 647.038 240.456 648.526 240.456C650.062 240.456 651.246 240.832 652.078 241.584C652.926 242.336 653.35 243.416 653.35 244.824C653.35 245.768 653.182 246.416 652.846 246.768C652.526 247.12 651.902 247.296 650.974 247.296H645.838V248.04C645.838 248.904 646.078 249.552 646.558 249.984C647.038 250.416 647.774 250.632 648.766 250.632ZM648.526 242.088C647.678 242.088 647.014 242.312 646.534 242.76C646.07 243.208 645.838 243.816 645.838 244.584V245.784H649.942C650.438 245.784 650.774 245.704 650.95 245.544C651.142 245.384 651.238 245.08 651.238 244.632C651.238 243.832 650.998 243.208 650.518 242.76C650.038 242.312 649.374 242.088 648.526 242.088ZM649.462 235.368H651.742L649.27 238.944H647.542L649.462 235.368ZM661.779 240.456C662.467 240.456 663.043 240.624 663.507 240.96L662.979 242.808C662.435 242.488 661.859 242.328 661.251 242.328C660.531 242.328 659.915 242.632 659.403 243.24C658.891 243.848 658.515 244.664 658.275 245.688V252H656.163V243.24C656.163 242.904 656.099 242.632 655.971 242.424C655.843 242.2 655.611 241.96 655.275 241.704L656.691 240.456C657.251 240.76 657.643 241.096 657.867 241.464C658.107 241.816 658.243 242.312 658.275 242.952C658.627 242.168 659.099 241.56 659.691 241.128C660.283 240.68 660.979 240.456 661.779 240.456ZM666.83 238.512C666.462 238.512 666.142 238.384 665.87 238.128C665.614 237.856 665.486 237.536 665.486 237.168C665.486 236.8 665.614 236.488 665.87 236.232C666.142 235.96 666.462 235.824 666.83 235.824C667.198 235.824 667.51 235.96 667.766 236.232C668.038 236.488 668.174 236.8 668.174 237.168C668.174 237.536 668.038 237.856 667.766 238.128C667.51 238.384 667.198 238.512 666.83 238.512ZM667.358 252.264C666.766 251.944 666.35 251.584 666.11 251.184C665.886 250.768 665.774 250.2 665.774 249.48V240.72H667.886V249.48C667.886 249.816 667.95 250.096 668.078 250.32C668.206 250.528 668.438 250.76 668.774 251.016L667.358 252.264ZM676.329 250.632C676.985 250.632 677.545 250.536 678.009 250.344C678.489 250.152 678.953 249.84 679.401 249.408L680.697 250.584C680.217 251.16 679.617 251.584 678.897 251.856C678.193 252.128 677.321 252.264 676.281 252.264C674.633 252.264 673.385 251.912 672.537 251.208C671.705 250.488 671.289 249.424 671.289 248.016V244.44C671.289 243.208 671.713 242.24 672.561 241.536C673.425 240.816 674.601 240.456 676.089 240.456C677.625 240.456 678.809 240.832 679.641 241.584C680.489 242.336 680.913 243.416 680.913 244.824C680.913 245.768 680.745 246.416 680.409 246.768C680.089 247.12 679.465 247.296 678.537 247.296H673.401V248.04C673.401 248.904 673.641 249.552 674.121 249.984C674.601 250.416 675.337 250.632 676.329 250.632ZM676.089 242.088C675.241 242.088 674.577 242.312 674.097 242.76C673.633 243.208 673.401 243.816 673.401 244.584V245.784H677.505C678.001 245.784 678.337 245.704 678.513 245.544C678.705 245.384 678.801 245.08 678.801 244.632C678.801 243.832 678.561 243.208 678.081 242.76C677.601 242.312 676.937 242.088 676.089 242.088ZM692.969 249.456C692.969 249.792 693.033 250.072 693.161 250.296C693.289 250.504 693.521 250.744 693.857 251.016L692.441 252.264C691.929 251.976 691.553 251.664 691.313 251.328C691.073 250.992 690.929 250.56 690.881 250.032C690.497 250.736 689.985 251.288 689.345 251.688C688.721 252.072 687.969 252.264 687.089 252.264C685.889 252.264 684.961 251.928 684.305 251.256C683.649 250.568 683.321 249.592 683.321 248.328V240.72H685.433V248.16C685.433 248.928 685.633 249.528 686.033 249.96C686.433 250.392 686.985 250.608 687.689 250.608C688.457 250.608 689.113 250.344 689.657 249.816C690.201 249.272 690.601 248.544 690.857 247.632V240.72H692.969V249.456ZM702.279 240.456C702.967 240.456 703.543 240.624 704.007 240.96L703.479 242.808C702.935 242.488 702.359 242.328 701.751 242.328C701.031 242.328 700.415 242.632 699.903 243.24C699.391 243.848 699.015 244.664 698.775 245.688V252H696.663V243.24C696.663 242.904 696.599 242.632 696.471 242.424C696.343 242.2 696.111 241.96 695.775 241.704L697.191 240.456C697.751 240.76 698.143 241.096 698.367 241.464C698.607 241.816 698.743 242.312 698.775 242.952C699.127 242.168 699.599 241.56 700.191 241.128C700.783 240.68 701.479 240.456 702.279 240.456ZM710.149 250.632C710.805 250.632 711.365 250.536 711.829 250.344C712.309 250.152 712.773 249.84 713.221 249.408L714.517 250.584C714.037 251.16 713.437 251.584 712.717 251.856C712.013 252.128 711.141 252.264 710.101 252.264C708.453 252.264 707.205 251.912 706.357 251.208C705.525 250.488 705.109 249.424 705.109 248.016V244.44C705.109 243.208 705.533 242.24 706.381 241.536C707.245 240.816 708.421 240.456 709.909 240.456C711.445 240.456 712.629 240.832 713.461 241.584C714.309 242.336 714.733 243.416 714.733 244.824C714.733 245.768 714.565 246.416 714.229 246.768C713.909 247.12 713.285 247.296 712.357 247.296H707.221V248.04C707.221 248.904 707.461 249.552 707.941 249.984C708.421 250.416 709.157 250.632 710.149 250.632ZM709.909 242.088C709.061 242.088 708.397 242.312 707.917 242.76C707.453 243.208 707.221 243.816 707.221 244.584V245.784H711.325C711.821 245.784 712.157 245.704 712.333 245.544C712.525 245.384 712.621 245.08 712.621 244.632C712.621 243.832 712.381 243.208 711.901 242.76C711.421 242.312 710.757 242.088 709.909 242.088ZM447.796 283C445.892 283 444.492 282.576 443.596 281.728C442.716 280.88 442.276 279.608 442.276 277.912V266.2H444.556V277.912C444.556 279.032 444.82 279.864 445.348 280.408C445.876 280.936 446.692 281.2 447.796 281.2H453.196V283H447.796ZM459.939 283.264C458.371 283.264 457.155 282.888 456.291 282.136C455.443 281.368 455.019 280.288 455.019 278.896V275.824C455.019 274.432 455.443 273.36 456.291 272.608C457.155 271.84 458.371 271.456 459.939 271.456C461.507 271.456 462.715 271.84 463.563 272.608C464.411 273.36 464.835 274.432 464.835 275.824V278.896C464.835 280.288 464.411 281.368 463.563 282.136C462.715 282.888 461.507 283.264 459.939 283.264ZM459.939 281.608C460.819 281.608 461.499 281.376 461.979 280.912C462.475 280.432 462.723 279.76 462.723 278.896V275.824C462.723 274.96 462.475 274.296 461.979 273.832C461.499 273.352 460.819 273.112 459.939 273.112C459.043 273.112 458.347 273.352 457.851 273.832C457.371 274.296 457.131 274.96 457.131 275.824V278.896C457.131 279.76 457.371 280.432 457.851 280.912C458.347 281.376 459.043 281.608 459.939 281.608ZM477.473 280.456C477.473 280.792 477.537 281.072 477.665 281.296C477.793 281.504 478.025 281.744 478.361 282.016L476.945 283.264C476.433 282.976 476.057 282.664 475.817 282.328C475.577 281.992 475.433 281.56 475.385 281.032C475.001 281.736 474.489 282.288 473.849 282.688C473.225 283.072 472.473 283.264 471.593 283.264C470.393 283.264 469.465 282.928 468.809 282.256C468.153 281.568 467.825 280.592 467.825 279.328V271.72H469.937V279.16C469.937 279.928 470.137 280.528 470.537 280.96C470.937 281.392 471.489 281.608 472.193 281.608C472.961 281.608 473.617 281.344 474.161 280.816C474.705 280.272 475.105 279.544 475.361 278.632V271.72H477.473V280.456ZM482.388 269.512C482.02 269.512 481.7 269.384 481.428 269.128C481.172 268.856 481.044 268.536 481.044 268.168C481.044 267.8 481.172 267.488 481.428 267.232C481.7 266.96 482.02 266.824 482.388 266.824C482.756 266.824 483.068 266.96 483.324 267.232C483.596 267.488 483.732 267.8 483.732 268.168C483.732 268.536 483.596 268.856 483.324 269.128C483.068 269.384 482.756 269.512 482.388 269.512ZM482.916 283.264C482.324 282.944 481.908 282.584 481.668 282.184C481.444 281.768 481.332 281.2 481.332 280.48V271.72H483.444V280.48C483.444 280.816 483.508 281.096 483.636 281.32C483.764 281.528 483.996 281.76 484.332 282.016L482.916 283.264ZM490.783 283.264C489.727 283.264 488.871 283.112 488.215 282.808C487.575 282.488 486.983 281.976 486.439 281.272L487.783 280.12C488.247 280.664 488.695 281.048 489.127 281.272C489.575 281.496 490.127 281.608 490.783 281.608C492.527 281.608 493.399 281.056 493.399 279.952C493.399 279.6 493.303 279.32 493.111 279.112C492.935 278.888 492.615 278.704 492.151 278.56C491.703 278.4 491.023 278.24 490.111 278.08C488.991 277.856 488.151 277.472 487.591 276.928C487.031 276.368 486.751 275.632 486.751 274.72C486.751 273.696 487.127 272.896 487.879 272.32C488.631 271.744 489.663 271.456 490.975 271.456C492.911 271.456 494.271 272.072 495.055 273.304L493.711 274.432C493.327 273.968 492.919 273.632 492.487 273.424C492.071 273.216 491.567 273.112 490.975 273.112C490.271 273.112 489.727 273.256 489.343 273.544C488.959 273.832 488.767 274.232 488.767 274.744C488.767 275.208 488.951 275.568 489.319 275.824C489.687 276.064 490.271 276.264 491.071 276.424C492.127 276.664 492.959 276.92 493.567 277.192C494.175 277.448 494.631 277.8 494.935 278.248C495.239 278.68 495.391 279.256 495.391 279.976C495.391 282.168 493.855 283.264 490.783 283.264ZM497.416 276.328H503.824V277.792H497.416V276.328ZM512.202 283C510.298 283 508.898 282.576 508.002 281.728C507.122 280.88 506.682 279.608 506.682 277.912V266.2H508.962V277.912C508.962 279.032 509.226 279.864 509.754 280.408C510.282 280.936 511.098 281.2 512.202 281.2H517.602V283H512.202ZM529.199 280.456C529.199 280.792 529.263 281.072 529.391 281.296C529.519 281.504 529.751 281.744 530.087 282.016L528.671 283.264C528.159 282.976 527.783 282.664 527.543 282.328C527.303 281.992 527.159 281.56 527.111 281.032C526.727 281.736 526.215 282.288 525.575 282.688C524.951 283.072 524.199 283.264 523.319 283.264C522.119 283.264 521.191 282.928 520.535 282.256C519.879 281.568 519.551 280.592 519.551 279.328V271.72H521.663V279.16C521.663 279.928 521.863 280.528 522.263 280.96C522.663 281.392 523.215 281.608 523.919 281.608C524.687 281.608 525.343 281.344 525.887 280.816C526.431 280.272 526.831 279.544 527.087 278.632V271.72H529.199V280.456ZM545.518 271.456C546.622 271.456 547.47 271.792 548.062 272.464C548.67 273.12 548.974 274.064 548.974 275.296V283H546.862V275.56C546.862 274.776 546.694 274.176 546.358 273.76C546.022 273.328 545.55 273.112 544.942 273.112C544.222 273.112 543.598 273.392 543.07 273.952C542.558 274.496 542.198 275.232 541.99 276.16V283H539.878V275.56C539.878 274.776 539.71 274.176 539.374 273.76C539.038 273.328 538.566 273.112 537.958 273.112C537.238 273.112 536.614 273.4 536.086 273.976C535.558 274.536 535.198 275.264 535.006 276.16V283H532.894V274.24C532.894 273.904 532.83 273.632 532.702 273.424C532.574 273.2 532.342 272.96 532.006 272.704L533.398 271.456C534.358 271.936 534.878 272.664 534.958 273.64C535.342 272.936 535.838 272.4 536.446 272.032C537.054 271.648 537.75 271.456 538.534 271.456C539.414 271.456 540.126 271.68 540.67 272.128C541.23 272.56 541.598 273.192 541.774 274.024C542.062 273.24 542.534 272.616 543.19 272.152C543.862 271.688 544.638 271.456 545.518 271.456ZM553.615 269.512C553.247 269.512 552.927 269.384 552.655 269.128C552.399 268.856 552.271 268.536 552.271 268.168C552.271 267.8 552.399 267.488 552.655 267.232C552.927 266.96 553.247 266.824 553.615 266.824C553.983 266.824 554.295 266.96 554.551 267.232C554.823 267.488 554.959 267.8 554.959 268.168C554.959 268.536 554.823 268.856 554.551 269.128C554.295 269.384 553.983 269.512 553.615 269.512ZM554.143 283.264C553.551 282.944 553.135 282.584 552.895 282.184C552.671 281.768 552.559 281.2 552.559 280.48V271.72H554.671V280.48C554.671 280.816 554.735 281.096 554.863 281.32C554.991 281.528 555.223 281.76 555.559 282.016L554.143 283.264ZM563.114 281.632C563.77 281.632 564.33 281.536 564.794 281.344C565.274 281.152 565.738 280.84 566.186 280.408L567.482 281.584C567.002 282.16 566.402 282.584 565.682 282.856C564.978 283.128 564.106 283.264 563.066 283.264C561.418 283.264 560.17 282.912 559.322 282.208C558.49 281.488 558.074 280.424 558.074 279.016V275.44C558.074 274.208 558.498 273.24 559.346 272.536C560.21 271.816 561.386 271.456 562.874 271.456C564.41 271.456 565.594 271.832 566.426 272.584C567.274 273.336 567.698 274.416 567.698 275.824C567.698 276.768 567.53 277.416 567.194 277.768C566.874 278.12 566.25 278.296 565.322 278.296H560.186V279.04C560.186 279.904 560.426 280.552 560.906 280.984C561.386 281.416 562.122 281.632 563.114 281.632ZM562.874 273.088C562.026 273.088 561.362 273.312 560.882 273.76C560.418 274.208 560.186 274.816 560.186 275.584V276.784H564.29C564.786 276.784 565.122 276.704 565.298 276.544C565.49 276.384 565.586 276.08 565.586 275.632C565.586 274.832 565.346 274.208 564.866 273.76C564.386 273.312 563.722 273.088 562.874 273.088ZM576.127 271.456C576.815 271.456 577.391 271.624 577.855 271.96L577.327 273.808C576.783 273.488 576.207 273.328 575.599 273.328C574.879 273.328 574.263 273.632 573.751 274.24C573.239 274.848 572.863 275.664 572.623 276.688V283H570.511V274.24C570.511 273.904 570.447 273.632 570.319 273.424C570.191 273.2 569.959 272.96 569.623 272.704L571.039 271.456C571.599 271.76 571.991 272.096 572.215 272.464C572.455 272.816 572.591 273.312 572.623 273.952C572.975 273.168 573.447 272.56 574.039 272.128C574.631 271.68 575.327 271.456 576.127 271.456ZM583.997 281.632C584.653 281.632 585.213 281.536 585.677 281.344C586.157 281.152 586.621 280.84 587.069 280.408L588.365 281.584C587.885 282.16 587.285 282.584 586.565 282.856C585.861 283.128 584.989 283.264 583.949 283.264C582.301 283.264 581.053 282.912 580.205 282.208C579.373 281.488 578.957 280.424 578.957 279.016V275.44C578.957 274.208 579.381 273.24 580.229 272.536C581.093 271.816 582.269 271.456 583.757 271.456C585.293 271.456 586.477 271.832 587.309 272.584C588.157 273.336 588.581 274.416 588.581 275.824C588.581 276.768 588.413 277.416 588.077 277.768C587.757 278.12 587.133 278.296 586.205 278.296H581.069V279.04C581.069 279.904 581.309 280.552 581.789 280.984C582.269 281.416 583.005 281.632 583.997 281.632ZM583.757 273.088C582.909 273.088 582.245 273.312 581.765 273.76C581.301 274.208 581.069 274.816 581.069 275.584V276.784H585.173C585.669 276.784 586.005 276.704 586.181 276.544C586.373 276.384 586.469 276.08 586.469 275.632C586.469 274.832 586.229 274.208 585.749 273.76C585.269 273.312 584.605 273.088 583.757 273.088ZM498.982 312.344V314H487.078V312.392L492.694 307.424C494.134 306.16 495.126 305.12 495.67 304.304C496.214 303.472 496.486 302.624 496.486 301.76C496.486 300.784 496.134 300.016 495.43 299.456C494.726 298.896 493.782 298.616 492.598 298.616C490.886 298.616 489.51 299.24 488.47 300.488L487.534 299C488.798 297.64 490.526 296.96 492.718 296.96C494.478 296.96 495.894 297.36 496.966 298.16C498.054 298.944 498.598 300.112 498.598 301.664C498.598 303.632 497.502 305.6 495.31 307.568L489.958 312.344H498.982ZM507.377 314.264C505.489 314.264 504.057 313.72 503.081 312.632C502.105 311.544 501.617 309.968 501.617 307.904V303.152C501.617 301.12 502.105 299.576 503.081 298.52C504.057 297.464 505.489 296.936 507.377 296.936C509.249 296.936 510.673 297.472 511.649 298.544C512.641 299.6 513.137 301.136 513.137 303.152V307.904C513.137 309.968 512.641 311.544 511.649 312.632C510.673 313.72 509.249 314.264 507.377 314.264ZM507.377 312.608C508.561 312.608 509.465 312.208 510.089 311.408C510.713 310.608 511.025 309.44 511.025 307.904V303.152C511.025 301.664 510.713 300.536 510.089 299.768C509.465 298.984 508.561 298.592 507.377 298.592C506.193 298.592 505.289 298.984 504.665 299.768C504.041 300.536 503.729 301.664 503.729 303.152V307.904C503.729 309.44 504.041 310.608 504.665 311.408C505.289 312.208 506.193 312.608 507.377 312.608ZM527.669 312.344V314H515.765V312.392L521.381 307.424C522.821 306.16 523.813 305.12 524.357 304.304C524.901 303.472 525.173 302.624 525.173 301.76C525.173 300.784 524.821 300.016 524.117 299.456C523.413 298.896 522.469 298.616 521.285 298.616C519.573 298.616 518.197 299.24 517.157 300.488L516.221 299C517.485 297.64 519.213 296.96 521.405 296.96C523.165 296.96 524.581 297.36 525.653 298.16C526.741 298.944 527.285 300.112 527.285 301.664C527.285 303.632 526.189 305.6 523.997 307.568L518.645 312.344H527.669ZM535.872 297.2V314H533.76V299.168L529.992 301.4V299.48L533.88 297.2H535.872Z" fill="black"/>
<defs>
<filter id="filter0_d_404_6" x="0.333344" y="133.226" width="1007.17" height="59.5479" filterUnits="userSpaceOnUse" color-interpolation-filters="sRGB">
<feFlood flood-opacity="0" result="BackgroundImageFix"/>
<feColorMatrix in="SourceAlpha" type="matrix" values="0 0 0 0 0 0 0 0 0 0 0 0 0 0 0 0 0 0 127 0" result="hardAlpha"/>
<feOffset dy="4"/>
<feGaussianBlur stdDeviation="2"/>
<feComposite in2="hardAlpha" operator="out"/>
<feColorMatrix type="matrix" values="0 0 0 0 0 0 0 0 0 0 0 0 0 0 0 0 0 0 0.25 0"/>
<feBlend mode="normal" in2="BackgroundImageFix" result="effect1_dropShadow_404_6"/>
<feBlend mode="normal" in="SourceGraphic" in2="effect1_dropShadow_404_6" result="shape"/>
</filter>
<filter id="filter1_d_404_6" x="215" y="106" width="15" height="58" filterUnits="userSpaceOnUse" color-interpolation-filters="sRGB">
<feFlood flood-opacity="0" result="BackgroundImageFix"/>
<feColorMatrix in="SourceAlpha" type="matrix" values="0 0 0 0 0 0 0 0 0 0 0 0 0 0 0 0 0 0 127 0" result="hardAlpha"/>
<feOffset dy="4"/>
<feGaussianBlur stdDeviation="2"/>
<feComposite in2="hardAlpha" operator="out"/>
<feColorMatrix type="matrix" values="0 0 0 0 0 0 0 0 0 0 0 0 0 0 0 0 0 0 0.25 0"/>
<feBlend mode="normal" in2="BackgroundImageFix" result="effect1_dropShadow_404_6"/>
<feBlend mode="normal" in="SourceGraphic" in2="effect1_dropShadow_404_6" result="shape"/>
</filter>
<filter id="filter2_d_404_6" x="501" y="159" width="15" height="63" filterUnits="userSpaceOnUse" color-interpolation-filters="sRGB">
<feFlood flood-opacity="0" result="BackgroundImageFix"/>
<feColorMatrix in="SourceAlpha" type="matrix" values="0 0 0 0 0 0 0 0 0 0 0 0 0 0 0 0 0 0 127 0" result="hardAlpha"/>
<feOffset dy="4"/>
<feGaussianBlur stdDeviation="2"/>
<feComposite in2="hardAlpha" operator="out"/>
<feColorMatrix type="matrix" values="0 0 0 0 0 0 0 0 0 0 0 0 0 0 0 0 0 0 0.25 0"/>
<feBlend mode="normal" in2="BackgroundImageFix" result="effect1_dropShadow_404_6"/>
<feBlend mode="normal" in="SourceGraphic" in2="effect1_dropShadow_404_6" result="shape"/>
</filter>
<filter id="filter3_d_404_6" x="779" y="106" width="15" height="58" filterUnits="userSpaceOnUse" color-interpolation-filters="sRGB">
<feFlood flood-opacity="0" result="BackgroundImageFix"/>
<feColorMatrix in="SourceAlpha" type="matrix" values="0 0 0 0 0 0 0 0 0 0 0 0 0 0 0 0 0 0 127 0" result="hardAlpha"/>
<feOffset dy="4"/>
<feGaussianBlur stdDeviation="2"/>
<feComposite in2="hardAlpha" operator="out"/>
<feColorMatrix type="matrix" values="0 0 0 0 0 0 0 0 0 0 0 0 0 0 0 0 0 0 0.25 0"/>
<feBlend mode="normal" in2="BackgroundImageFix" result="effect1_dropShadow_404_6"/>
<feBlend mode="normal" in="SourceGraphic" in2="effect1_dropShadow_404_6" result="shape"/>
</filter>
</defs>
</svg>
