<svg width="376" height="407" viewBox="0 0 376 407" fill="none" xmlns="http://www.w3.org/2000/svg">
<g filter="url(#filter0_d_146_41)">
<path d="M337.71 228.139C337.71 311.974 272.211 379.779 191.605 379.779C110.999 379.779 45.5 311.974 45.5 228.139C45.5 144.304 110.999 76.5 191.605 76.5C272.211 76.5 337.71 144.304 337.71 228.139Z" stroke="black" stroke-width="5" shape-rendering="crispEdges"/>
</g>
<path d="M129.02 168.3H139.964C142.052 168.3 143.732 168.876 145.004 170.028C146.276 171.156 146.912 172.656 146.912 174.528C146.912 175.92 146.54 177.12 145.796 178.128C145.052 179.112 144.02 179.796 142.7 180.18C144.26 180.564 145.472 181.32 146.336 182.448C147.224 183.552 147.668 184.932 147.668 186.588C147.668 188.724 146.96 190.416 145.544 191.664C144.128 192.888 142.208 193.5 139.784 193.5H129.02V168.3ZM139.748 179.208C141.092 179.208 142.184 178.8 143.024 177.984C143.888 177.144 144.32 176.076 144.32 174.78C144.32 173.436 143.9 172.368 143.06 171.576C142.244 170.784 141.14 170.388 139.748 170.388H131.612V179.208H139.748ZM139.172 191.412C141.092 191.412 142.556 190.98 143.564 190.116C144.572 189.252 145.076 188.004 145.076 186.372C145.076 184.74 144.56 183.492 143.528 182.628C142.52 181.74 141.068 181.296 139.172 181.296H131.612V191.412H139.172ZM165.846 190.44C165.846 190.872 165.918 191.232 166.062 191.52C166.23 191.784 166.53 192.096 166.962 192.456L165.342 193.896C164.742 193.56 164.298 193.176 164.01 192.744C163.722 192.312 163.554 191.748 163.506 191.052C162.882 191.964 162.03 192.672 160.95 193.176C159.87 193.656 158.658 193.896 157.314 193.896C155.49 193.896 154.086 193.476 153.102 192.636C152.118 191.772 151.626 190.536 151.626 188.928C151.626 187.44 152.142 186.276 153.174 185.436C154.206 184.596 155.766 184.056 157.854 183.816L160.662 183.492C161.454 183.396 162.042 183.276 162.426 183.132C162.834 182.988 163.11 182.784 163.254 182.52C163.398 182.232 163.458 181.836 163.434 181.332C163.218 179.1 161.658 177.984 158.754 177.984C157.674 177.984 156.75 178.164 155.982 178.524C155.214 178.86 154.554 179.4 154.002 180.144L152.346 178.92C153.474 177.096 155.61 176.184 158.754 176.184C161.058 176.184 162.81 176.676 164.01 177.66C165.234 178.644 165.846 180.06 165.846 181.908V190.44ZM157.854 192.024C159.534 192.024 160.89 191.592 161.922 190.728C162.954 189.864 163.47 188.724 163.47 187.308V184.392C163.182 184.608 162.834 184.776 162.426 184.896C162.018 184.992 161.454 185.076 160.734 185.148L158.07 185.436C156.702 185.604 155.658 185.988 154.938 186.588C154.242 187.164 153.894 187.932 153.894 188.892C153.894 190.98 155.214 192.024 157.854 192.024ZM177.818 193.896C175.466 193.896 173.654 193.356 172.382 192.276C171.11 191.196 170.474 189.636 170.474 187.596V182.484C170.474 180.492 171.122 178.944 172.418 177.84C173.714 176.736 175.526 176.184 177.854 176.184C179.27 176.184 180.494 176.412 181.526 176.868C182.558 177.324 183.446 178.02 184.19 178.956L182.534 180.36C181.862 179.544 181.166 178.968 180.446 178.632C179.726 178.296 178.862 178.128 177.854 178.128C176.294 178.128 175.07 178.512 174.182 179.28C173.318 180.048 172.886 181.116 172.886 182.484V187.596C172.886 188.988 173.306 190.068 174.146 190.836C175.01 191.58 176.234 191.952 177.818 191.952C178.898 191.952 179.834 191.772 180.626 191.412C181.418 191.052 182.09 190.5 182.642 189.756L184.298 191.16C183.602 192.096 182.726 192.792 181.67 193.248C180.614 193.68 179.33 193.896 177.818 193.896ZM196.309 182.628C197.509 182.82 198.445 183.3 199.117 184.068C199.813 184.836 200.365 185.988 200.773 187.524L202.321 193.5H199.837L198.289 187.524C198.025 186.492 197.605 185.748 197.029 185.292C196.477 184.812 195.637 184.524 194.509 184.428L190.873 188.064V193.5H188.461V170.892C188.461 170.436 188.389 170.076 188.245 169.812C188.101 169.548 187.801 169.224 187.345 168.84L189.001 167.436C189.697 167.82 190.177 168.276 190.441 168.804C190.729 169.332 190.873 170.052 190.873 170.964V185.112L199.333 176.58H202.357L196.309 182.628ZM212.696 191.952C213.728 191.952 214.64 191.796 215.432 191.484C216.224 191.172 216.956 190.668 217.628 189.972L219.14 191.376C218.372 192.24 217.46 192.876 216.404 193.284C215.348 193.692 214.064 193.896 212.552 193.896C210.248 193.896 208.448 193.356 207.152 192.276C205.88 191.172 205.244 189.636 205.244 187.668V182.196C205.244 180.348 205.868 178.896 207.116 177.84C208.388 176.76 210.128 176.22 212.336 176.22C214.592 176.22 216.32 176.784 217.52 177.912C218.744 179.04 219.356 180.636 219.356 182.7C219.356 184.02 219.104 184.932 218.6 185.436C218.12 185.916 217.208 186.156 215.864 186.156H207.656V187.668C207.656 189.108 208.064 190.188 208.88 190.908C209.72 191.604 210.992 191.952 212.696 191.952ZM212.3 178.128C210.86 178.128 209.72 178.512 208.88 179.28C208.064 180.024 207.656 181.044 207.656 182.34V184.392H214.856C215.672 184.392 216.224 184.26 216.512 183.996C216.8 183.708 216.944 183.18 216.944 182.412C216.944 181.068 216.536 180.024 215.72 179.28C214.904 178.512 213.764 178.128 212.3 178.128ZM232.287 176.184C233.991 176.184 235.323 176.7 236.283 177.732C237.243 178.74 237.723 180.144 237.723 181.944V193.5H235.311V182.304C235.311 180.984 234.987 179.964 234.339 179.244C233.715 178.5 232.839 178.128 231.711 178.128C230.415 178.128 229.287 178.608 228.327 179.568C227.391 180.528 226.719 181.836 226.311 183.492V193.5H223.899V179.64C223.899 179.208 223.815 178.86 223.647 178.596C223.503 178.308 223.215 177.984 222.783 177.624L224.367 176.184C225.111 176.592 225.615 177.06 225.879 177.588C226.167 178.092 226.311 178.8 226.311 179.712V180.036C226.911 178.788 227.715 177.84 228.723 177.192C229.755 176.52 230.943 176.184 232.287 176.184ZM257.492 190.44C257.492 190.872 257.564 191.232 257.708 191.52C257.876 191.784 258.176 192.096 258.608 192.456L257.024 193.896C256.424 193.56 255.98 193.128 255.692 192.6C255.404 192.048 255.236 191.484 255.188 190.908C253.94 192.9 252.032 193.896 249.464 193.896C247.976 193.896 246.668 193.56 245.54 192.888C244.436 192.192 243.572 191.22 242.948 189.972C242.348 188.724 242.048 187.272 242.048 185.616V184.464C242.048 182.808 242.348 181.356 242.948 180.108C243.572 178.86 244.436 177.9 245.54 177.228C246.668 176.532 247.976 176.184 249.464 176.184C250.688 176.184 251.78 176.424 252.74 176.904C253.724 177.384 254.504 178.068 255.08 178.956V170.892C255.08 170.46 255.008 170.112 254.864 169.848C254.72 169.584 254.42 169.248 253.964 168.84L255.62 167.436C256.316 167.82 256.796 168.276 257.06 168.804C257.348 169.332 257.492 170.052 257.492 170.964V190.44ZM255.08 182.016C254.672 180.72 254.048 179.748 253.208 179.1C252.368 178.452 251.252 178.128 249.86 178.128C248.228 178.128 246.92 178.704 245.936 179.856C244.952 181.008 244.46 182.544 244.46 184.464V185.616C244.46 187.536 244.952 189.072 245.936 190.224C246.92 191.376 248.228 191.952 249.86 191.952C251.252 191.952 252.368 191.628 253.208 190.98C254.048 190.332 254.672 189.36 255.08 188.064V182.016ZM205.321 240.5L203.233 238.196C201.241 239.996 198.613 240.896 195.349 240.896C192.805 240.896 190.789 240.26 189.301 238.988C187.813 237.692 187.069 235.952 187.069 233.768C187.069 232.088 187.537 230.72 188.473 229.664C189.409 228.584 190.801 227.528 192.649 226.496C191.569 225.296 190.765 224.24 190.237 223.328C189.733 222.416 189.481 221.432 189.481 220.376C189.481 218.696 190.033 217.376 191.137 216.416C192.265 215.432 193.777 214.94 195.673 214.94C197.521 214.94 198.985 215.444 200.065 216.452C201.145 217.436 201.685 218.768 201.685 220.448C201.685 221.816 201.265 222.968 200.425 223.904C199.585 224.816 198.205 225.848 196.285 227L202.981 234.344C204.013 232.592 204.721 230.228 205.105 227.252H207.733C207.253 231.188 206.281 234.212 204.817 236.324L208.597 240.5H205.321ZM195.673 217.028C194.593 217.028 193.717 217.328 193.045 217.928C192.397 218.528 192.073 219.344 192.073 220.376C192.073 221.192 192.265 221.948 192.649 222.644C193.057 223.316 193.753 224.204 194.737 225.308C196.273 224.42 197.377 223.64 198.049 222.968C198.745 222.296 199.093 221.456 199.093 220.448C199.093 219.416 198.781 218.588 198.157 217.964C197.533 217.34 196.705 217.028 195.673 217.028ZM195.349 238.808C197.941 238.808 200.005 237.98 201.541 236.324L194.197 228.224C193.165 228.8 192.349 229.316 191.749 229.772C191.149 230.204 190.645 230.756 190.237 231.428C189.853 232.076 189.661 232.856 189.661 233.768C189.661 235.304 190.165 236.528 191.173 237.44C192.205 238.352 193.597 238.808 195.349 238.808ZM127.086 262.3H136.05C138.69 262.3 140.778 262.708 142.314 263.524C143.874 264.34 145.002 265.66 145.698 267.484C146.394 269.308 146.742 271.78 146.742 274.9C146.742 278.044 146.394 280.528 145.698 282.352C145.026 284.152 143.91 285.46 142.35 286.276C140.814 287.092 138.714 287.5 136.05 287.5H127.086V262.3ZM136.05 285.412C138.042 285.412 139.626 285.076 140.802 284.404C141.978 283.708 142.83 282.604 143.358 281.092C143.886 279.556 144.15 277.504 144.15 274.936C144.15 272.368 143.874 270.316 143.322 268.78C142.794 267.244 141.942 266.128 140.766 265.432C139.59 264.736 138.018 264.388 136.05 264.388H129.678V285.412H136.05ZM165.108 284.44C165.108 284.872 165.18 285.232 165.324 285.52C165.492 285.784 165.792 286.096 166.224 286.456L164.604 287.896C164.004 287.56 163.56 287.176 163.272 286.744C162.984 286.312 162.816 285.748 162.768 285.052C162.144 285.964 161.292 286.672 160.212 287.176C159.132 287.656 157.92 287.896 156.576 287.896C154.752 287.896 153.348 287.476 152.364 286.636C151.38 285.772 150.888 284.536 150.888 282.928C150.888 281.44 151.404 280.276 152.436 279.436C153.468 278.596 155.028 278.056 157.116 277.816L159.924 277.492C160.716 277.396 161.304 277.276 161.688 277.132C162.096 276.988 162.372 276.784 162.516 276.52C162.66 276.232 162.72 275.836 162.696 275.332C162.48 273.1 160.92 271.984 158.016 271.984C156.936 271.984 156.012 272.164 155.244 272.524C154.476 272.86 153.816 273.4 153.264 274.144L151.608 272.92C152.736 271.096 154.872 270.184 158.016 270.184C160.32 270.184 162.072 270.676 163.272 271.66C164.496 272.644 165.108 274.06 165.108 275.908V284.44ZM157.116 286.024C158.796 286.024 160.152 285.592 161.184 284.728C162.216 283.864 162.732 282.724 162.732 281.308V278.392C162.444 278.608 162.096 278.776 161.688 278.896C161.28 278.992 160.716 279.076 159.996 279.148L157.332 279.436C155.964 279.604 154.92 279.988 154.2 280.588C153.504 281.164 153.156 281.932 153.156 282.892C153.156 284.98 154.476 286.024 157.116 286.024ZM172.728 272.524V282.604C172.728 284.74 173.664 285.808 175.536 285.808H177.588V287.716H175.536C173.736 287.716 172.416 287.308 171.576 286.492C170.736 285.652 170.316 284.356 170.316 282.604V266.656C170.316 266.224 170.232 265.876 170.064 265.612C169.92 265.324 169.632 265 169.2 264.64L170.82 263.2C171.54 263.608 172.032 264.076 172.296 264.604C172.584 265.108 172.728 265.816 172.728 266.728V270.58H177.588V272.524H172.728ZM195.237 284.44C195.237 284.872 195.309 285.232 195.453 285.52C195.621 285.784 195.921 286.096 196.353 286.456L194.733 287.896C194.133 287.56 193.689 287.176 193.401 286.744C193.113 286.312 192.945 285.748 192.897 285.052C192.273 285.964 191.421 286.672 190.341 287.176C189.261 287.656 188.049 287.896 186.705 287.896C184.881 287.896 183.477 287.476 182.493 286.636C181.509 285.772 181.017 284.536 181.017 282.928C181.017 281.44 181.533 280.276 182.565 279.436C183.597 278.596 185.157 278.056 187.245 277.816L190.053 277.492C190.845 277.396 191.433 277.276 191.817 277.132C192.225 276.988 192.501 276.784 192.645 276.52C192.789 276.232 192.849 275.836 192.825 275.332C192.609 273.1 191.049 271.984 188.145 271.984C187.065 271.984 186.141 272.164 185.373 272.524C184.605 272.86 183.945 273.4 183.393 274.144L181.737 272.92C182.865 271.096 185.001 270.184 188.145 270.184C190.449 270.184 192.201 270.676 193.401 271.66C194.625 272.644 195.237 274.06 195.237 275.908V284.44ZM187.245 286.024C188.925 286.024 190.281 285.592 191.313 284.728C192.345 283.864 192.861 282.724 192.861 281.308V278.392C192.573 278.608 192.225 278.776 191.817 278.896C191.409 278.992 190.845 279.076 190.125 279.148L187.461 279.436C186.093 279.604 185.049 279.988 184.329 280.588C183.633 281.164 183.285 281.932 183.285 282.892C183.285 284.98 184.605 286.024 187.245 286.024ZM208.865 287.896C207.617 287.896 206.513 287.668 205.553 287.212C204.593 286.732 203.813 286.036 203.213 285.124V287.5H200.801V264.892C200.801 264.436 200.729 264.076 200.585 263.812C200.441 263.548 200.141 263.224 199.685 262.84L201.269 261.436C201.989 261.844 202.493 262.3 202.781 262.804C203.069 263.308 203.213 264.028 203.213 264.964V272.992C203.837 272.08 204.617 271.384 205.553 270.904C206.513 270.424 207.605 270.184 208.829 270.184C210.317 270.184 211.625 270.532 212.753 271.228C213.881 271.9 214.745 272.86 215.345 274.108C215.969 275.356 216.281 276.808 216.281 278.464V279.616C216.281 281.272 215.969 282.724 215.345 283.972C214.745 285.22 213.881 286.192 212.753 286.888C211.649 287.56 210.353 287.896 208.865 287.896ZM208.433 285.952C210.065 285.952 211.373 285.376 212.357 284.224C213.341 283.072 213.833 281.536 213.833 279.616V278.464C213.833 276.544 213.341 275.008 212.357 273.856C211.373 272.704 210.065 272.128 208.433 272.128C207.041 272.128 205.925 272.452 205.085 273.1C204.245 273.748 203.621 274.72 203.213 276.016V282.064C203.621 283.36 204.245 284.332 205.085 284.98C205.925 285.628 207.041 285.952 208.433 285.952ZM233.944 284.44C233.944 284.872 234.016 285.232 234.16 285.52C234.328 285.784 234.628 286.096 235.06 286.456L233.44 287.896C232.84 287.56 232.396 287.176 232.108 286.744C231.82 286.312 231.652 285.748 231.604 285.052C230.98 285.964 230.128 286.672 229.048 287.176C227.968 287.656 226.756 287.896 225.412 287.896C223.588 287.896 222.184 287.476 221.2 286.636C220.216 285.772 219.724 284.536 219.724 282.928C219.724 281.44 220.24 280.276 221.272 279.436C222.304 278.596 223.864 278.056 225.952 277.816L228.76 277.492C229.552 277.396 230.14 277.276 230.524 277.132C230.932 276.988 231.208 276.784 231.352 276.52C231.496 276.232 231.556 275.836 231.532 275.332C231.316 273.1 229.756 271.984 226.852 271.984C225.772 271.984 224.848 272.164 224.08 272.524C223.312 272.86 222.652 273.4 222.1 274.144L220.444 272.92C221.572 271.096 223.708 270.184 226.852 270.184C229.156 270.184 230.908 270.676 232.108 271.66C233.332 272.644 233.944 274.06 233.944 275.908V284.44ZM225.952 286.024C227.632 286.024 228.988 285.592 230.02 284.728C231.052 283.864 231.568 282.724 231.568 281.308V278.392C231.28 278.608 230.932 278.776 230.524 278.896C230.116 278.992 229.552 279.076 228.832 279.148L226.168 279.436C224.8 279.604 223.756 279.988 223.036 280.588C222.34 281.164 221.992 281.932 221.992 282.892C221.992 284.98 223.312 286.024 225.952 286.024ZM244.472 287.896C243.056 287.896 241.844 287.668 240.836 287.212C239.852 286.756 238.952 286.012 238.136 284.98L239.684 283.648C240.428 284.488 241.16 285.088 241.88 285.448C242.6 285.784 243.464 285.952 244.472 285.952C245.912 285.952 247.004 285.7 247.748 285.196C248.492 284.692 248.864 283.96 248.864 283C248.864 282.4 248.72 281.92 248.432 281.56C248.144 281.2 247.64 280.888 246.92 280.624C246.2 280.36 245.108 280.096 243.644 279.832C240.284 279.232 238.604 277.624 238.604 275.008C238.604 273.496 239.144 272.32 240.224 271.48C241.328 270.616 242.84 270.184 244.76 270.184C246.128 270.184 247.316 270.424 248.324 270.904C249.356 271.36 250.136 272.032 250.664 272.92L249.116 274.216C248.564 273.496 247.928 272.968 247.208 272.632C246.512 272.296 245.696 272.128 244.76 272.128C243.56 272.128 242.612 272.38 241.916 272.884C241.244 273.388 240.908 274.084 240.908 274.972C240.908 275.764 241.184 276.376 241.736 276.808C242.312 277.24 243.308 277.6 244.724 277.888C246.38 278.248 247.664 278.644 248.576 279.076C249.512 279.484 250.172 280 250.556 280.624C250.964 281.248 251.168 282.04 251.168 283C251.168 284.608 250.592 285.832 249.44 286.672C248.312 287.488 246.656 287.896 244.472 287.896ZM263.18 285.952C264.212 285.952 265.124 285.796 265.916 285.484C266.708 285.172 267.44 284.668 268.112 283.972L269.624 285.376C268.856 286.24 267.944 286.876 266.888 287.284C265.832 287.692 264.548 287.896 263.036 287.896C260.732 287.896 258.932 287.356 257.636 286.276C256.364 285.172 255.728 283.636 255.728 281.668V276.196C255.728 274.348 256.352 272.896 257.6 271.84C258.872 270.76 260.612 270.22 262.82 270.22C265.076 270.22 266.804 270.784 268.004 271.912C269.228 273.04 269.84 274.636 269.84 276.7C269.84 278.02 269.588 278.932 269.084 279.436C268.604 279.916 267.692 280.156 266.348 280.156H258.14V281.668C258.14 283.108 258.548 284.188 259.364 284.908C260.204 285.604 261.476 285.952 263.18 285.952ZM262.784 272.128C261.344 272.128 260.204 272.512 259.364 273.28C258.548 274.024 258.14 275.044 258.14 276.34V278.392H265.34C266.156 278.392 266.708 278.26 266.996 277.996C267.284 277.708 267.428 277.18 267.428 276.412C267.428 275.068 267.02 274.024 266.204 273.28C265.388 272.512 264.248 272.128 262.784 272.128Z" fill="black"/>
<g filter="url(#filter1_d_146_41)">
<circle cx="70.7173" cy="316.639" r="42.5" fill="#EEE7DB"/>
<circle cx="70.7173" cy="316.639" r="40" stroke="black" stroke-width="5"/>
</g>
<g clip-path="url(#clip0_146_41)">
<path d="M45.8542 313.149C44.9597 309.137 43.0955 308.069 42.62 307.314C42.4239 306.981 42.2501 306.635 42.1 306.279C42.0749 306.635 42.0287 306.86 41.7308 307.13C41.1326 307.672 38.5918 309.778 38.378 314.337C38.1788 318.588 41.4509 321.209 41.8833 321.48C42.2157 321.646 42.6205 321.483 42.818 321.33C44.3954 320.23 46.5505 317.295 45.8559 313.149" fill="#10AA50"/>
<path d="M42.2355 319.216C42.1532 320.268 42.0942 320.88 41.885 321.481C41.885 321.481 42.0223 322.482 42.1187 323.543H42.4599C42.5413 322.796 42.6655 322.055 42.832 321.322C42.3904 321.101 42.2525 320.139 42.2355 319.216Z" fill="#B8C4C2"/>
<path d="M42.8314 321.323C42.3851 321.113 42.256 320.131 42.2361 319.216C42.3465 317.707 42.3787 316.193 42.3325 314.68C42.3091 313.886 42.3436 307.329 42.1403 306.369C42.2794 306.694 42.4396 307.009 42.6199 307.313C43.0955 308.069 44.9603 309.137 45.8541 313.149C46.5505 317.288 44.407 320.215 42.8314 321.323Z" fill="#12924F"/>
<path d="M101.662 319.872C101.47 319.872 101.284 319.814 101.125 319.707C100.965 319.599 100.841 319.446 100.767 319.267C100.694 319.087 100.674 318.89 100.71 318.699C100.746 318.508 100.837 318.333 100.972 318.194C101.106 318.056 101.277 317.961 101.464 317.921C101.651 317.882 101.846 317.899 102.023 317.972C102.201 318.044 102.353 318.169 102.461 318.329C102.569 318.489 102.628 318.678 102.631 318.873C102.634 319.004 102.612 319.134 102.564 319.256C102.517 319.378 102.446 319.489 102.355 319.582C102.265 319.676 102.157 319.749 102.038 319.799C101.918 319.849 101.79 319.874 101.662 319.872ZM101.662 317.99C101.487 317.989 101.316 318.04 101.17 318.138C101.024 318.236 100.91 318.375 100.843 318.539C100.775 318.703 100.756 318.883 100.79 319.057C100.823 319.232 100.906 319.392 101.029 319.518C101.152 319.644 101.309 319.731 101.48 319.766C101.651 319.801 101.829 319.784 101.99 319.717C102.152 319.65 102.29 319.535 102.388 319.388C102.485 319.24 102.537 319.067 102.538 318.889C102.54 318.771 102.519 318.654 102.476 318.544C102.433 318.435 102.369 318.335 102.287 318.251C102.205 318.167 102.108 318.101 102 318.056C101.893 318.011 101.778 317.989 101.662 317.99ZM101.895 319.51L101.645 318.961H101.444V319.51H101.297V318.262H101.659C101.928 318.262 102.04 318.381 102.04 318.611C102.04 318.794 101.955 318.908 101.798 318.943L102.056 319.508L101.895 319.51ZM101.449 318.832H101.662C101.833 318.832 101.899 318.773 101.899 318.614C101.899 318.454 101.836 318.4 101.643 318.4H101.449V318.832Z" fill="#21313C"/>
<path d="M87.2368 318.974C87.4991 319.187 88.0231 319.275 88.4852 319.275C89.0841 319.275 89.6712 319.162 90.2449 318.635C90.8291 318.095 91.231 317.269 91.231 315.949C91.231 314.681 90.7567 313.652 89.7834 313.05C89.2342 312.699 88.5226 312.56 87.7112 312.56C87.4775 312.56 87.2368 312.573 87.1001 312.636C87.044 312.681 87.0044 312.744 86.9873 312.814C86.9628 313.04 86.9628 314.759 86.9628 315.776C86.9628 316.818 86.9628 318.271 86.9873 318.449C87.0002 318.6 87.075 318.865 87.2368 318.976M84.7457 311.996C84.9578 311.996 85.764 312.034 86.1391 312.034C86.8401 312.034 87.3244 311.996 88.6348 311.996C89.7331 311.996 90.6573 312.297 91.3181 312.874C92.1173 313.578 92.5449 314.556 92.5449 315.748C92.5449 317.443 91.7855 318.422 91.0219 318.974C90.2624 319.551 89.2745 319.877 87.8672 319.877C87.1182 319.877 85.8323 319.852 84.7591 319.84H84.7369C84.6867 319.739 84.8287 319.348 84.9163 319.338C85.2084 319.305 85.2855 319.293 85.4199 319.236C85.6466 319.142 85.6997 319.024 85.7248 318.61C85.7622 317.832 85.75 316.903 85.75 315.849C85.75 315.096 85.7622 313.627 85.7377 313.163C85.6997 312.774 85.5385 312.674 85.2119 312.598C84.9803 312.548 84.7463 312.511 84.5109 312.486C84.4863 312.41 84.6779 312.07 84.7404 311.996" fill="#21313C"/>
<path d="M95.6383 312.633C95.5887 312.645 95.5262 312.771 95.5262 312.834C95.5133 313.286 95.5011 314.465 95.5011 315.281C95.5042 315.296 95.5118 315.311 95.523 315.322C95.5341 315.333 95.5482 315.341 95.5636 315.344C95.7254 315.356 96.125 315.369 96.4621 315.369C96.9365 315.369 97.211 315.306 97.3606 315.231C97.7602 315.03 97.9448 314.59 97.9448 314.114C97.9448 313.022 97.1959 312.608 96.0853 312.608C95.9351 312.606 95.785 312.614 95.636 312.633M98.4694 317.653C98.4694 316.549 97.6702 315.921 96.2097 315.921C96.1478 315.921 95.6839 315.909 95.5735 315.934C95.5361 315.946 95.4987 315.971 95.4987 315.997C95.4987 316.787 95.4859 318.055 95.5238 318.557C95.549 318.77 95.6991 319.071 95.8855 319.159C96.0853 319.272 96.5345 319.297 96.8465 319.297C97.7076 319.297 98.4694 318.808 98.4694 317.653ZM93.3833 312.018C93.496 312.018 93.8279 312.055 94.6767 312.055C95.4754 312.055 96.1244 312.031 96.8967 312.031C97.8578 312.031 99.1804 312.382 99.1804 313.838C99.1804 314.551 98.6815 315.13 98.0324 315.407C97.9951 315.419 97.9951 315.444 98.0324 315.457C98.9561 315.694 99.767 316.272 99.767 317.377C99.767 318.456 99.1056 319.134 98.1446 319.561C97.5604 319.824 96.8342 319.912 96.0999 319.912C95.5384 319.912 94.0335 319.852 93.1969 319.862C93.1093 319.824 93.277 319.422 93.3517 319.36C93.5434 319.354 93.7336 319.323 93.9178 319.269C94.217 319.195 94.2526 319.097 94.29 318.645C94.3151 318.255 94.3151 316.862 94.3151 315.871C94.3151 314.515 94.328 313.6 94.3151 313.147C94.3028 312.796 94.1778 312.683 93.9406 312.62C93.7537 312.582 93.4417 312.545 93.1923 312.508C93.1297 312.445 93.3219 312.068 93.3839 312.018" fill="#21313C"/>
<path d="M48.618 319.872C48.5859 319.792 48.5729 319.705 48.5801 319.618C48.5773 319.559 48.5904 319.501 48.618 319.449C48.7795 319.425 48.9394 319.392 49.0971 319.35C49.3179 319.294 49.4009 319.171 49.4137 318.885C49.45 318.208 49.4523 316.939 49.4394 316.047V316.02C49.4394 315.924 49.4394 315.793 49.3226 315.701C49.1172 315.57 48.8943 315.47 48.6607 315.404C48.5561 315.373 48.4983 315.317 48.5012 315.252C48.5041 315.186 48.5701 315.109 48.7063 315.082C49.0679 315.044 50.0155 314.814 50.3876 314.64C50.4259 314.691 50.4437 314.754 50.4373 314.818C50.4373 314.857 50.4314 314.899 50.4274 314.942C50.4168 315.068 50.4052 315.211 50.4052 315.353C50.4074 315.371 50.4144 315.387 50.4254 315.4C50.4363 315.414 50.4507 315.424 50.467 315.43C50.4832 315.435 50.5007 315.436 50.5175 315.432C50.5342 315.428 50.5495 315.42 50.5617 315.407C51.2704 314.842 51.9054 314.641 52.2308 314.641C52.7665 314.641 53.1837 314.901 53.5067 315.437C53.5141 315.45 53.5247 315.461 53.5374 315.468C53.5501 315.476 53.5645 315.48 53.5792 315.48C53.5926 315.48 53.6057 315.477 53.6175 315.47C53.6293 315.464 53.6394 315.455 53.6469 315.444C54.2983 314.941 54.9439 314.641 55.3762 314.641C56.3974 314.641 57.0079 315.419 57.0079 316.72C57.0079 317.095 57.0044 317.569 57.0009 318.012C56.998 318.4 56.9951 318.765 56.9951 319.016C56.9951 319.076 57.0757 319.247 57.1966 319.281C57.3462 319.355 57.5617 319.393 57.8346 319.441H57.8451C57.8655 319.515 57.8223 319.806 57.7808 319.865C57.7131 319.865 57.6196 319.859 57.5027 319.853C57.2907 319.843 56.9997 319.828 56.6615 319.828C55.9826 319.828 55.628 319.841 55.2892 319.864C55.2635 319.777 55.2547 319.499 55.2857 319.441C55.426 319.419 55.5649 319.388 55.7016 319.349C55.9178 319.277 55.9803 319.177 55.9937 318.885C55.999 318.678 56.0381 316.851 55.9686 316.417C55.9043 315.968 55.5713 315.441 54.8428 315.441C54.5723 315.441 54.1359 315.556 53.72 315.877C53.6942 315.906 53.6797 315.945 53.6791 315.984V315.993C53.7281 316.227 53.7281 316.5 53.7281 316.913C53.7281 317.151 53.7281 317.399 53.7252 317.646C53.7223 318.15 53.72 318.625 53.7281 318.985C53.7281 319.23 53.8736 319.288 53.991 319.335C54.0547 319.35 54.105 319.362 54.1558 319.374C54.2534 319.398 54.355 319.423 54.5063 319.448C54.5287 319.552 54.5267 319.66 54.5005 319.764C54.4943 319.803 54.4793 319.839 54.4567 319.871C54.0793 319.858 53.6919 319.847 53.1328 319.847C52.9634 319.847 52.6871 319.854 52.4429 319.861C52.2448 319.866 52.0579 319.871 51.9516 319.872C51.9228 319.803 51.91 319.728 51.9142 319.653C51.9082 319.583 51.9218 319.512 51.9533 319.449L52.1035 319.421C52.2343 319.397 52.3477 319.377 52.454 319.35C52.6386 319.29 52.7081 319.188 52.7216 318.949C52.7578 318.39 52.7858 316.781 52.7081 316.378C52.5761 315.732 52.2145 315.404 51.6326 315.404C51.292 315.404 50.8614 315.571 50.5097 315.839C50.4759 315.872 50.4492 315.912 50.4315 315.957C50.4137 316.001 50.4051 316.049 50.4063 316.097C50.4063 316.289 50.4063 316.517 50.4063 316.762C50.4063 317.57 50.4011 318.576 50.4203 319.01C50.432 319.145 50.4788 319.304 50.7259 319.362C50.7802 319.378 50.8737 319.394 50.9824 319.412C51.0449 319.423 51.1132 319.434 51.1839 319.447C51.2064 319.589 51.195 319.735 51.1506 319.872C51.0419 319.872 50.9082 319.865 50.7551 319.858C50.5214 319.848 50.2293 319.834 49.8992 319.834C49.509 319.834 49.2373 319.848 49.0194 319.858C48.8728 319.865 48.746 319.871 48.6192 319.872" fill="#21313C"/>
<path d="M61.1465 315.178C60.9356 315.174 60.7282 315.233 60.5506 315.349C60.1171 315.616 59.8963 316.152 59.8963 316.938C59.8963 318.41 60.6213 319.439 61.6594 319.439C61.9378 319.448 62.2093 319.35 62.4201 319.165C62.739 318.901 62.9085 318.36 62.9085 317.603C62.9085 316.153 62.1998 315.178 61.1453 315.178M61.3451 319.985C59.4698 319.985 58.802 318.586 58.802 317.277C58.802 316.363 59.1695 315.648 59.8945 315.152C60.4023 314.832 60.9852 314.657 61.5823 314.645C63.013 314.645 64.0126 315.691 64.0126 317.19C64.0126 318.208 63.6136 319.012 62.8582 319.515C62.4954 319.741 61.8651 319.985 61.3451 319.985Z" fill="#21313C"/>
<path d="M80.2385 315.178C80.0272 315.173 79.8194 315.233 79.6415 315.349C79.208 315.616 78.9871 316.152 78.9871 316.938C78.9871 318.41 79.7121 319.439 80.7503 319.439C81.0294 319.448 81.3019 319.351 81.5133 319.165C81.8323 318.901 82.0011 318.36 82.0011 317.603C82.0011 316.153 81.293 315.178 80.2385 315.178ZM80.4383 319.985C78.563 319.985 77.8952 318.586 77.8952 317.278C77.8952 316.362 78.2627 315.648 78.9883 315.152C79.4958 314.832 80.0786 314.657 80.6755 314.645C82.1062 314.645 83.1058 315.691 83.1058 317.189C83.1058 318.208 82.7068 319.012 81.9514 319.514C81.5886 319.741 80.9583 319.985 80.4383 319.985Z" fill="#21313C"/>
<path d="M73.9244 315.128C73.3466 315.128 72.9727 315.592 72.9727 316.31C72.9727 317.029 73.2946 317.882 74.1995 317.882C74.3549 317.882 74.6365 317.812 74.7761 317.656C74.9865 317.459 75.1267 317.053 75.1267 316.624C75.1267 315.687 74.678 315.128 73.9273 315.128M73.8525 320.085C73.6893 320.083 73.5283 320.124 73.3851 320.204C72.9277 320.501 72.7156 320.798 72.7156 321.143C72.7156 321.466 72.8389 321.724 73.1041 321.952C73.4254 322.229 73.8589 322.363 74.4285 322.363C75.5496 322.363 76.0521 321.75 76.0521 321.143C76.0521 320.72 75.8435 320.437 75.4141 320.276C75.0834 320.153 74.5308 320.086 73.8542 320.086M73.929 322.997C73.256 322.997 72.7711 322.852 72.3569 322.528C71.9538 322.212 71.7727 321.743 71.7727 321.418C71.7771 321.209 71.8555 321.009 71.9935 320.854C72.1104 320.718 72.382 320.465 73.0101 320.026C73.0198 320.022 73.0281 320.015 73.0339 320.006C73.0397 319.997 73.0428 319.986 73.0428 319.975C73.043 319.963 73.0392 319.952 73.0319 319.942C73.0247 319.933 73.0145 319.926 73.0031 319.923C72.486 319.722 72.33 319.388 72.2827 319.21C72.2827 319.204 72.2827 319.193 72.2775 319.182C72.2629 319.112 72.2488 319.046 72.3429 318.977C72.4153 318.925 72.531 318.855 72.6549 318.781C72.8297 318.682 72.9974 318.571 73.1567 318.448C73.1653 318.439 73.1716 318.428 73.1752 318.416C73.1789 318.403 73.1797 318.39 73.1777 318.378C73.1757 318.365 73.1708 318.353 73.1635 318.343C73.1563 318.332 73.1467 318.324 73.1357 318.318C72.3704 318.056 71.9848 317.478 71.9848 316.595C71.9824 316.319 72.0455 316.047 72.1685 315.802C72.2916 315.557 72.471 315.345 72.6917 315.185C72.9995 314.937 73.7725 314.64 74.2731 314.64H74.3023C74.817 314.652 75.1074 314.762 75.5093 314.913C75.738 314.997 75.9802 315.036 76.2232 315.028C76.6491 315.028 76.8355 314.891 76.9956 314.731C77.0215 314.803 77.0353 314.879 77.0365 314.956C77.0462 315.138 76.9974 315.319 76.8974 315.471C76.8104 315.594 76.6053 315.684 76.4178 315.684C76.3985 315.684 76.3798 315.684 76.3594 315.681C76.2607 315.674 76.1629 315.657 76.0672 315.631L76.0193 315.649C76.0042 315.671 76.0141 315.696 76.0264 315.728C76.0293 315.734 76.0317 315.741 76.0334 315.748C76.0676 315.906 76.0908 316.067 76.1029 316.229C76.1029 317.153 75.7448 317.555 75.3574 317.853C74.9829 318.139 74.5382 318.314 74.0722 318.359C74.0622 318.359 74.0137 318.364 73.9226 318.372C73.8642 318.377 73.7882 318.384 73.7771 318.384H73.766C73.6819 318.408 73.4622 318.514 73.4622 318.712C73.4622 318.876 73.5616 319.08 74.0365 319.117L74.3438 319.139C74.9701 319.183 75.7524 319.239 76.1204 319.365C76.3646 319.452 76.5754 319.616 76.723 319.832C76.8706 320.048 76.9473 320.306 76.9424 320.569C76.9424 321.398 76.3629 322.178 75.3925 322.654C74.9349 322.876 74.4338 322.991 73.9267 322.988" fill="#21313C"/>
<path d="M71.0582 319.43C70.7836 319.392 70.5833 319.354 70.3466 319.242C70.3002 319.193 70.2696 319.13 70.259 319.063C70.2339 318.674 70.2339 317.545 70.2339 316.806C70.2339 316.203 70.1346 315.677 69.8834 315.3C69.5837 314.873 69.1595 314.622 68.6104 314.622C68.1237 314.622 67.4747 314.961 66.9384 315.425C66.9255 315.438 66.8431 315.517 66.8449 315.394C66.8466 315.27 66.8653 315.019 66.877 314.859C66.8822 314.816 66.8775 314.773 66.8633 314.733C66.8491 314.692 66.8258 314.656 66.7952 314.626C66.4447 314.804 65.4615 315.042 65.0975 315.078C64.8323 315.13 64.7651 315.39 65.0484 315.48H65.0525C65.2793 315.543 65.4958 315.64 65.6951 315.767C65.8073 315.855 65.795 315.981 65.795 316.081C65.8073 316.922 65.8073 318.214 65.7699 318.917C65.7577 319.193 65.6823 319.294 65.4825 319.344L65.5012 319.338C65.349 319.377 65.1947 319.406 65.0391 319.426C64.9766 319.488 64.9766 319.852 65.0391 319.928C65.1641 319.928 65.7986 319.89 66.3243 319.89C67.0476 319.89 67.4221 319.928 67.6096 319.928C67.685 319.84 67.7095 319.501 67.6599 319.426C67.487 319.418 67.3154 319.393 67.1475 319.35C66.9483 319.3 66.898 319.199 66.8858 318.974C66.8612 318.384 66.8612 317.129 66.8612 316.275C66.8612 316.038 66.9232 315.924 66.9979 315.859C67.2474 315.634 67.6599 315.483 68.0215 315.483C68.372 315.483 68.6057 315.596 68.781 315.747C68.9851 315.928 69.1131 316.182 69.1385 316.456C69.1882 316.931 69.1753 317.887 69.1753 318.713C69.1753 319.166 69.1385 319.279 68.9761 319.329C68.9013 319.366 68.7015 319.404 68.4643 319.429C68.3895 319.505 68.4141 319.856 68.4643 319.931C68.7886 319.931 69.1654 319.894 69.7122 319.894C70.3986 319.894 70.8356 319.931 71.0103 319.931C71.0851 319.843 71.1102 319.515 71.0606 319.429" fill="#21313C"/>
</g>
<g filter="url(#filter2_d_146_41)">
<path d="M363 316.5C363 339.972 343.972 359 320.5 359C297.028 359 278 339.972 278 316.5C278 293.028 297.028 274 320.5 274C343.972 274 363 293.028 363 316.5Z" fill="#EEE7DB"/>
<path d="M360.5 316.5C360.5 338.591 342.591 356.5 320.5 356.5C298.409 356.5 280.5 338.591 280.5 316.5C280.5 294.409 298.409 276.5 320.5 276.5C342.591 276.5 360.5 294.409 360.5 316.5Z" stroke="black" stroke-width="5"/>
</g>
<path d="M337 325.516C335.727 325.851 334.939 325.53 334.233 324.43L329.208 317.219L328.482 316.221L322.614 324.454C321.943 325.444 321.24 325.875 319.989 325.525L327.503 315.063L320.507 305.612C321.71 305.37 322.542 305.493 323.28 306.611L328.492 313.911L333.742 306.65C334.414 305.66 335.137 305.283 336.345 305.649L333.632 309.379L329.957 314.342C329.52 314.909 329.58 315.297 329.983 315.845L337 325.516ZM302.009 314.888L302.623 311.752C304.297 305.546 311.155 302.968 315.884 306.802C318.648 309.058 319.335 312.248 319.198 315.821H303.619C303.385 322.254 307.848 326.136 313.539 324.155C315.535 323.46 316.711 321.839 317.299 319.81C317.598 318.794 318.092 318.635 319.013 318.925C318.543 321.462 317.482 323.581 315.24 324.908C311.89 326.893 307.108 326.251 304.592 323.492C303.094 321.891 302.475 319.863 302.197 317.693C302.153 317.335 302.066 316.993 302 316.65C302.006 316.063 302.009 315.475 302.009 314.888ZM303.647 314.457H317.726C317.634 309.805 314.842 306.502 311.026 306.473C306.837 306.439 303.829 309.665 303.647 314.457Z" fill="black"/>
<g filter="url(#filter3_d_146_41)">
<path d="M238 75.5C238 98.9721 218.972 118 195.5 118C172.028 118 153 98.9721 153 75.5C153 52.0279 172.028 33 195.5 33C218.972 33 238 52.0279 238 75.5Z" fill="#EEE7DB"/>
<path d="M235.5 75.5C235.5 97.5914 217.591 115.5 195.5 115.5C173.409 115.5 155.5 97.5914 155.5 75.5C155.5 53.4086 173.409 35.5 195.5 35.5C217.591 35.5 235.5 53.4086 235.5 75.5Z" stroke="black" stroke-width="5"/>
</g>
<g clip-path="url(#clip1_146_41)">
<path d="M195.916 99.0141C195.711 99.0141 195.507 98.9582 195.327 98.8507L193.45 97.6983C193.17 97.5357 193.307 97.4782 193.399 97.4451C193.773 97.3094 193.849 97.2787 194.247 97.0437C194.289 97.0189 194.344 97.0277 194.387 97.054L195.829 97.9413C195.881 97.9705 195.955 97.9705 196.003 97.9413L201.624 94.5759C201.676 94.5452 201.71 94.4824 201.71 94.4182V87.6903C201.71 87.6231 201.676 87.5633 201.623 87.5297L196.004 84.1672C195.952 84.1351 195.883 84.1351 195.831 84.1672L190.213 87.5297C190.159 87.5618 190.124 87.6246 190.124 87.6888V94.4168C190.124 94.481 190.158 94.5423 190.212 94.5729L191.751 95.4953C192.587 95.9287 193.097 95.4179 193.097 94.9042V88.2638C193.097 88.169 193.169 88.096 193.261 88.096H193.973C194.061 88.096 194.134 88.169 194.134 88.2638V94.9071C194.134 96.063 193.527 96.7271 192.47 96.7271C192.145 96.7271 191.889 96.7271 191.174 96.3622L189.699 95.4807C189.335 95.2618 189.11 94.8531 189.11 94.4168V87.6888C189.11 87.251 189.335 86.8423 189.699 86.6263L195.326 83.2594C195.682 83.0507 196.155 83.0507 196.508 83.2594L202.128 86.6278C202.491 86.8453 202.717 87.2524 202.717 87.6903V94.4182C202.717 94.8546 202.491 95.2618 202.128 95.4807L196.508 98.8476C196.328 98.9556 196.124 99.0111 195.916 99.0111" fill="#689F63"/>
<path d="M197.653 94.3781C195.193 94.3781 194.677 93.207 194.677 92.2248C194.677 92.1314 194.75 92.057 194.84 92.057H195.566C195.646 92.057 195.714 92.1176 195.727 92.1997C195.836 92.9671 196.163 93.3541 197.65 93.3541C198.835 93.3541 199.338 93.0766 199.338 92.4249C199.338 92.0499 199.195 91.7711 197.355 91.5843C195.815 91.4267 194.864 91.075 194.864 89.798C194.864 88.6217 195.821 87.9211 197.423 87.9211C199.223 87.9211 200.115 88.5691 200.228 89.9614C200.232 90.0096 200.215 90.0563 200.184 90.0913C200.153 90.1249 200.109 90.1453 200.064 90.1453H199.334C199.258 90.1453 199.192 90.0898 199.177 90.0139C199.001 89.2069 198.576 88.9486 197.421 88.9486C196.128 88.9486 195.977 89.4156 195.977 89.7658C195.977 90.1905 196.154 90.3146 197.899 90.5539C199.627 90.7918 200.447 91.1275 200.447 92.387C200.447 93.6567 199.426 94.3849 197.644 94.3849M204.491 87.2498H204.68C204.834 87.2498 204.864 87.1374 204.864 87.0717C204.864 86.8995 204.75 86.8995 204.687 86.8995H204.492L204.491 87.2498ZM204.262 86.6981H204.68C204.823 86.6981 205.104 86.6981 205.104 87.0309C205.104 87.2629 204.961 87.3111 204.875 87.3403C205.043 87.3519 205.054 87.4658 205.076 87.6263C205.088 87.727 205.106 87.9007 205.14 87.9591H204.882C204.875 87.9007 204.836 87.5796 204.836 87.5621C204.819 87.4906 204.795 87.4556 204.709 87.4556H204.497V87.9605H204.262V86.6981ZM203.759 87.3257C203.759 87.8482 204.166 88.2714 204.665 88.2714C205.169 88.2714 205.576 87.8394 205.576 87.3257C205.576 86.8017 205.164 86.3858 204.664 86.3858C204.172 86.3858 203.758 86.7959 203.758 87.3242M205.75 87.3286C205.75 87.9474 205.262 88.4524 204.667 88.4524C204.076 88.4524 203.583 87.9532 203.583 87.3286C203.583 86.6923 204.087 86.2048 204.667 86.2048C205.251 86.2048 205.749 86.6937 205.749 87.3286" fill="#689F63"/>
<path fill-rule="evenodd" clip-rule="evenodd" d="M178.51 72.6889C178.51 72.4203 178.373 72.1737 178.15 72.0401L172.19 68.4835C172.09 68.4222 171.977 68.3901 171.863 68.3857H171.801C171.687 68.3901 171.574 68.4222 171.472 68.4835L165.512 72.0401C165.29 72.1744 165.152 72.4211 165.152 72.6896L165.165 82.2693C165.165 82.4021 165.231 82.5262 165.344 82.5918C165.453 82.6619 165.591 82.6619 165.701 82.5918L169.244 80.4873C169.468 80.3493 169.604 80.1053 169.604 79.8393V75.364C169.604 75.0969 169.741 74.8503 169.964 74.7175L171.472 73.8164C171.584 73.7493 171.707 73.716 171.832 73.716C171.956 73.716 172.081 73.749 172.19 73.8163L173.698 74.717C173.921 74.8498 174.058 75.0965 174.058 75.3636V79.8386C174.058 80.1042 174.196 80.3494 174.419 80.4866L177.96 82.5896C178.071 82.6582 178.209 82.6582 178.32 82.5896C178.429 82.524 178.498 82.3999 178.498 82.2671L178.51 72.6889ZM206.632 77.6766C206.632 77.7433 206.598 77.805 206.542 77.838L204.495 79.0619C204.439 79.095 204.371 79.095 204.315 79.0619L202.268 77.838C202.212 77.8049 202.178 77.7432 202.178 77.6766V75.2254C202.178 75.1585 202.212 75.0969 202.266 75.0634L204.312 73.8374C204.369 73.8039 204.438 73.8039 204.494 73.8374L206.541 75.0634C206.597 75.0969 206.631 75.1585 206.631 75.2254L206.632 77.6766ZM207.185 59.521C207.073 59.4565 206.937 59.4583 206.827 59.5249C206.717 59.5921 206.649 59.7147 206.649 59.8475V69.3338C206.649 69.4272 206.601 69.5133 206.523 69.56C206.446 69.6067 206.35 69.6067 206.272 69.56L204.779 68.6681C204.556 68.5347 204.283 68.5347 204.059 68.6681L198.098 72.2369C197.875 72.3697 197.738 72.6163 197.738 72.8819V80.0215C197.738 80.2886 197.875 80.5337 198.098 80.668L204.059 84.2392C204.282 84.372 204.556 84.372 204.779 84.2392L210.741 80.6666C210.963 80.5323 211.101 80.2871 211.101 80.02V62.2266C211.101 61.9558 210.959 61.7067 210.731 61.5743L207.185 59.521ZM227.037 75.1608C227.258 75.0275 227.395 74.7811 227.395 74.5155V72.7852C227.395 72.519 227.258 72.2734 227.036 72.1394L221.113 68.5725C220.889 68.4383 220.615 68.4383 220.391 68.5725L214.431 72.1409C214.207 72.2751 214.071 72.5203 214.071 72.7874V79.924C214.071 80.1925 214.21 80.4406 214.434 80.5734L220.356 84.0746C220.574 84.2045 220.841 84.206 221.062 84.079L224.644 82.0139C224.757 81.9482 224.829 81.8242 224.829 81.6899C224.829 81.5556 224.76 81.4301 224.647 81.3645L218.651 77.7947C218.538 77.729 218.469 77.605 218.469 77.4721V75.2334C218.469 75.0997 218.537 74.9765 218.649 74.91L220.515 73.7935C220.626 73.7264 220.762 73.7264 220.874 73.7935L222.741 74.91C222.852 74.9756 222.921 75.0997 222.921 75.2325V76.9926C222.921 77.1254 222.99 77.2494 223.101 77.3166C223.212 77.3822 223.35 77.3822 223.461 77.3151L227.037 75.1608Z" fill="#333333"/>
<path fill-rule="evenodd" clip-rule="evenodd" d="M220.665 74.827C220.707 74.8012 220.76 74.8012 220.803 74.827L221.946 75.5115C221.989 75.5372 222.015 75.5844 222.015 75.6355V77.0059C222.015 77.057 221.989 77.1043 221.946 77.13L220.803 77.8144C220.76 77.8403 220.707 77.8403 220.665 77.8144L219.521 77.13C219.478 77.1043 219.451 77.057 219.451 77.0059V75.6355C219.451 75.5844 219.476 75.5372 219.52 75.5115L220.665 74.827Z" fill="#689F63"/>
<mask id="mask0_146_41" style="mask-type:luminance" maskUnits="userSpaceOnUse" x="181" y="68" width="14" height="17">
<path d="M187.766 68.6082L181.838 72.157C181.616 72.2899 181.48 72.535 181.48 72.8001V79.9028C181.48 80.168 181.616 80.413 181.838 80.5459L187.767 84.0975C187.988 84.2299 188.262 84.2299 188.483 84.0975L194.41 80.5459C194.631 80.413 194.768 80.1679 194.768 79.9028V72.8001C194.768 72.535 194.631 72.2899 194.409 72.157L188.482 68.6082C188.371 68.542 188.247 68.5089 188.124 68.5089C188 68.5089 187.876 68.542 187.765 68.6082" fill="white"/>
</mask>
<g mask="url(#mask0_146_41)">
<path d="M200.758 71.5544L184.054 63.062L175.49 81.1843L192.193 89.6772L200.758 71.5544Z" fill="url(#paint0_linear_146_41)"/>
</g>
<mask id="mask1_146_41" style="mask-type:luminance" maskUnits="userSpaceOnUse" x="181" y="68" width="14" height="17">
<path d="M181.627 80.3538C181.684 80.4301 181.755 80.4962 181.838 80.5458L186.923 83.5924L187.77 84.0974C187.897 84.1733 188.041 84.2054 188.183 84.1944C188.23 84.1905 188.278 84.1813 188.324 84.1677L194.576 72.2938C194.528 72.2398 194.472 72.1945 194.409 72.1566L190.528 69.8317L188.476 68.6073C188.418 68.5722 188.355 68.5474 188.29 68.5299L181.627 80.3538Z" fill="white"/>
</mask>
<g mask="url(#mask1_146_41)">
<path d="M174.405 74.0662L186.2 90.6239L201.798 78.6703L190.003 62.113L174.405 74.0662Z" fill="url(#paint1_linear_146_41)"/>
</g>
<mask id="mask2_146_41" style="mask-type:luminance" maskUnits="userSpaceOnUse" x="181" y="68" width="14" height="17">
<path d="M188.053 68.513C187.953 68.5232 187.856 68.5553 187.766 68.6082L181.855 72.1469L188.229 84.1886C188.318 84.1755 188.405 84.1448 188.484 84.0976L194.412 80.5459C194.595 80.4358 194.72 80.2496 194.758 80.0386L188.26 68.5251C188.212 68.5154 188.165 68.5103 188.115 68.5103C188.096 68.5103 188.076 68.5113 188.056 68.5132" fill="white"/>
</mask>
<g mask="url(#mask2_146_41)">
<path d="M181.855 68.5103V84.1889H194.755V68.5103H181.855Z" fill="url(#paint2_linear_146_41)"/>
</g>
</g>
<path d="M175.329 7V18.52C175.329 19.3467 175.155 19.9667 174.809 20.38C174.475 20.7933 173.942 21 173.209 21H171.869L166.109 9.92V21H164.309V7H166.509L172.849 19.36H172.969C173.182 19.36 173.329 19.28 173.409 19.12C173.489 18.96 173.529 18.6667 173.529 18.24V7H175.329ZM182.122 21.22C180.815 21.22 179.802 20.9067 179.082 20.28C178.375 19.64 178.022 18.74 178.022 17.58V15.02C178.022 13.86 178.375 12.9667 179.082 12.34C179.802 11.7 180.815 11.38 182.122 11.38C183.429 11.38 184.435 11.7 185.142 12.34C185.849 12.9667 186.202 13.86 186.202 15.02V17.58C186.202 18.74 185.849 19.64 185.142 20.28C184.435 20.9067 183.429 21.22 182.122 21.22ZM182.122 19.84C182.855 19.84 183.422 19.6467 183.822 19.26C184.235 18.86 184.442 18.3 184.442 17.58V15.02C184.442 14.3 184.235 13.7467 183.822 13.36C183.422 12.96 182.855 12.76 182.122 12.76C181.375 12.76 180.795 12.96 180.382 13.36C179.982 13.7467 179.782 14.3 179.782 15.02V17.58C179.782 18.3 179.982 18.86 180.382 19.26C180.795 19.6467 181.375 19.84 182.122 19.84ZM197.213 18.9C197.213 19.18 197.266 19.4133 197.373 19.6C197.48 19.7733 197.673 19.9667 197.953 20.18L196.773 21.22C196.146 20.8867 195.74 20.3533 195.553 19.62C194.886 20.6867 193.84 21.22 192.413 21.22C191.586 21.22 190.86 21.0333 190.233 20.66C189.62 20.2733 189.14 19.7333 188.793 19.04C188.46 18.3467 188.293 17.54 188.293 16.62V15.98C188.293 15.0867 188.453 14.2933 188.773 13.6C189.106 12.9067 189.58 12.3667 190.193 11.98C190.82 11.58 191.56 11.38 192.413 11.38C193.773 11.38 194.786 11.8467 195.453 12.78V8.68C195.453 8.4 195.4 8.17333 195.293 8C195.2 7.82667 195.006 7.62 194.713 7.38L195.913 6.34C196.406 6.60667 196.746 6.91333 196.933 7.26C197.12 7.59333 197.213 8.06667 197.213 8.68V18.9ZM195.453 14.74C195.24 14.0733 194.913 13.58 194.473 13.26C194.046 12.9267 193.493 12.76 192.813 12.76C191.973 12.76 191.3 13.06 190.793 13.66C190.3 14.26 190.053 15.0333 190.053 15.98V16.62C190.053 17.5667 190.3 18.34 190.793 18.94C191.286 19.54 191.96 19.84 192.813 19.84C193.493 19.84 194.046 19.68 194.473 19.36C194.913 19.0267 195.24 18.5267 195.453 17.86V14.74ZM203.96 19.86C204.507 19.86 204.973 19.78 205.36 19.62C205.76 19.46 206.147 19.2 206.52 18.84L207.6 19.82C207.2 20.3 206.7 20.6533 206.1 20.88C205.513 21.1067 204.787 21.22 203.92 21.22C202.547 21.22 201.507 20.9267 200.8 20.34C200.107 19.74 199.76 18.8533 199.76 17.68V14.7C199.76 13.6733 200.113 12.8667 200.82 12.28C201.54 11.68 202.52 11.38 203.76 11.38C205.04 11.38 206.027 11.6933 206.72 12.32C207.427 12.9467 207.78 13.8467 207.78 15.02C207.78 15.8067 207.64 16.3467 207.36 16.64C207.093 16.9333 206.573 17.08 205.8 17.08H201.52V17.7C201.52 18.42 201.72 18.96 202.12 19.32C202.52 19.68 203.133 19.86 203.96 19.86ZM203.76 12.74C203.053 12.74 202.5 12.9267 202.1 13.3C201.713 13.6733 201.52 14.18 201.52 14.82V15.82H204.94C205.353 15.82 205.633 15.7533 205.78 15.62C205.94 15.4867 206.02 15.2333 206.02 14.86C206.02 14.1933 205.82 13.6733 205.42 13.3C205.02 12.9267 204.467 12.74 203.76 12.74ZM210.807 21.22C210.473 21.22 210.193 21.1067 209.967 20.88C209.74 20.6533 209.627 20.3733 209.627 20.04C209.627 19.7067 209.74 19.4267 209.967 19.2C210.193 18.96 210.473 18.84 210.807 18.84C211.14 18.84 211.42 18.96 211.647 19.2C211.873 19.4267 211.987 19.7067 211.987 20.04C211.987 20.3733 211.873 20.6533 211.647 20.88C211.42 21.1067 211.14 21.22 210.807 21.22ZM215.21 9.76C214.903 9.76 214.636 9.65333 214.41 9.44C214.196 9.21333 214.09 8.94667 214.09 8.64C214.09 8.33333 214.203 8.07333 214.43 7.86C214.656 7.63333 214.916 7.52 215.21 7.52C215.516 7.52 215.776 7.63333 215.99 7.86C216.216 8.07333 216.33 8.33333 216.33 8.64C216.33 8.94667 216.216 9.21333 215.99 9.44C215.776 9.65333 215.516 9.76 215.21 9.76ZM211.23 24.18H212.21C212.943 24.18 213.476 23.9933 213.81 23.62C214.156 23.26 214.33 22.6867 214.33 21.9V11.6H216.09V21.9C216.09 23.1933 215.783 24.1267 215.17 24.7C214.57 25.2733 213.583 25.56 212.21 25.56H211.23V24.18ZM221.849 21.22C220.969 21.22 220.255 21.0933 219.709 20.84C219.175 20.5733 218.682 20.1467 218.229 19.56L219.349 18.6C219.735 19.0533 220.109 19.3733 220.469 19.56C220.842 19.7467 221.302 19.84 221.849 19.84C223.302 19.84 224.029 19.38 224.029 18.46C224.029 18.1667 223.949 17.9333 223.789 17.76C223.642 17.5733 223.375 17.42 222.989 17.3C222.615 17.1667 222.049 17.0333 221.289 16.9C220.355 16.7133 219.655 16.3933 219.189 15.94C218.722 15.4733 218.489 14.86 218.489 14.1C218.489 13.2467 218.802 12.58 219.429 12.1C220.055 11.62 220.915 11.38 222.009 11.38C223.622 11.38 224.755 11.8933 225.409 12.92L224.289 13.86C223.969 13.4733 223.629 13.1933 223.269 13.02C222.922 12.8467 222.502 12.76 222.009 12.76C221.422 12.76 220.969 12.88 220.649 13.12C220.329 13.36 220.169 13.6933 220.169 14.12C220.169 14.5067 220.322 14.8067 220.629 15.02C220.935 15.22 221.422 15.3867 222.089 15.52C222.969 15.72 223.662 15.9333 224.169 16.16C224.675 16.3733 225.055 16.6667 225.309 17.04C225.562 17.4 225.689 17.88 225.689 18.48C225.689 20.3067 224.409 21.22 221.849 21.22Z" fill="black"/>
<path d="M284.018 382C282.391 382 281.198 381.647 280.438 380.94C279.678 380.233 279.298 379.173 279.298 377.76V372.24C279.298 370.827 279.678 369.767 280.438 369.06C281.198 368.353 282.391 368 284.018 368H288.798V369.5H284.018C283.044 369.5 282.331 369.727 281.878 370.18C281.424 370.62 281.198 371.307 281.198 372.24V374.24H287.818V375.76H281.198V377.76C281.198 378.693 281.424 379.387 281.878 379.84C282.331 380.28 283.044 380.5 284.018 380.5H288.878V382H284.018ZM296.539 382L294.139 378.46L291.819 382H290.019L293.219 377.1L290.179 372.6H291.959L294.259 375.98L296.479 372.6H298.279L295.199 377.36L298.339 382H296.539ZM304.773 372.38C305.653 372.38 306.399 372.593 307.013 373.02C307.639 373.433 308.106 373.993 308.412 374.7C308.719 375.393 308.872 376.153 308.872 376.98V377.62C308.872 378.447 308.719 379.213 308.412 379.92C308.106 380.613 307.639 381.173 307.013 381.6C306.399 382.013 305.653 382.22 304.773 382.22C303.973 382.22 303.333 382.093 302.853 381.84C302.386 381.573 302.006 381.22 301.713 380.78V386.38H299.953V374.7C299.953 374.42 299.899 374.193 299.793 374.02C299.686 373.833 299.493 373.633 299.213 373.42L300.373 372.38C300.759 372.593 301.046 372.82 301.233 373.06C301.433 373.3 301.559 373.6 301.613 373.96C302.306 372.907 303.359 372.38 304.773 372.38ZM307.113 376.98C307.113 376.033 306.859 375.26 306.353 374.66C305.859 374.06 305.193 373.76 304.353 373.76C302.993 373.76 302.113 374.42 301.713 375.74V378.86C302.113 380.18 302.993 380.84 304.353 380.84C305.193 380.84 305.859 380.54 306.353 379.94C306.859 379.34 307.113 378.567 307.113 377.62V376.98ZM315.394 372.38C315.968 372.38 316.448 372.52 316.834 372.8L316.394 374.34C315.941 374.073 315.461 373.94 314.954 373.94C314.354 373.94 313.841 374.193 313.414 374.7C312.988 375.207 312.674 375.887 312.474 376.74V382H310.714V374.7C310.714 374.42 310.661 374.193 310.554 374.02C310.448 373.833 310.254 373.633 309.974 373.42L311.154 372.38C311.621 372.633 311.948 372.913 312.134 373.22C312.334 373.513 312.448 373.927 312.474 374.46C312.768 373.807 313.161 373.3 313.654 372.94C314.148 372.567 314.728 372.38 315.394 372.38ZM321.952 380.86C322.499 380.86 322.966 380.78 323.352 380.62C323.752 380.46 324.139 380.2 324.512 379.84L325.592 380.82C325.192 381.3 324.692 381.653 324.092 381.88C323.506 382.107 322.779 382.22 321.912 382.22C320.539 382.22 319.499 381.927 318.792 381.34C318.099 380.74 317.752 379.853 317.752 378.68V375.7C317.752 374.673 318.106 373.867 318.812 373.28C319.532 372.68 320.512 372.38 321.752 372.38C323.032 372.38 324.019 372.693 324.712 373.32C325.419 373.947 325.772 374.847 325.772 376.02C325.772 376.807 325.632 377.347 325.352 377.64C325.086 377.933 324.566 378.08 323.792 378.08H319.512V378.7C319.512 379.42 319.712 379.96 320.112 380.32C320.512 380.68 321.126 380.86 321.952 380.86ZM321.752 373.74C321.046 373.74 320.492 373.927 320.092 374.3C319.706 374.673 319.512 375.18 319.512 375.82V376.82H322.932C323.346 376.82 323.626 376.753 323.772 376.62C323.932 376.487 324.012 376.233 324.012 375.86C324.012 375.193 323.812 374.673 323.412 374.3C323.012 373.927 322.459 373.74 321.752 373.74ZM331.208 382.22C330.328 382.22 329.615 382.093 329.068 381.84C328.535 381.573 328.041 381.147 327.588 380.56L328.708 379.6C329.095 380.053 329.468 380.373 329.828 380.56C330.201 380.747 330.661 380.84 331.208 380.84C332.661 380.84 333.388 380.38 333.388 379.46C333.388 379.167 333.308 378.933 333.148 378.76C333.001 378.573 332.735 378.42 332.348 378.3C331.975 378.167 331.408 378.033 330.648 377.9C329.715 377.713 329.015 377.393 328.548 376.94C328.081 376.473 327.848 375.86 327.848 375.1C327.848 374.247 328.161 373.58 328.788 373.1C329.415 372.62 330.275 372.38 331.368 372.38C332.981 372.38 334.115 372.893 334.768 373.92L333.648 374.86C333.328 374.473 332.988 374.193 332.628 374.02C332.281 373.847 331.861 373.76 331.368 373.76C330.781 373.76 330.328 373.88 330.008 374.12C329.688 374.36 329.528 374.693 329.528 375.12C329.528 375.507 329.681 375.807 329.988 376.02C330.295 376.22 330.781 376.387 331.448 376.52C332.328 376.72 333.021 376.933 333.528 377.16C334.035 377.373 334.415 377.667 334.668 378.04C334.921 378.4 335.048 378.88 335.048 379.48C335.048 381.307 333.768 382.22 331.208 382.22ZM340.271 382.22C339.391 382.22 338.677 382.093 338.131 381.84C337.597 381.573 337.104 381.147 336.651 380.56L337.771 379.6C338.157 380.053 338.531 380.373 338.891 380.56C339.264 380.747 339.724 380.84 340.271 380.84C341.724 380.84 342.451 380.38 342.451 379.46C342.451 379.167 342.371 378.933 342.211 378.76C342.064 378.573 341.797 378.42 341.411 378.3C341.037 378.167 340.471 378.033 339.711 377.9C338.777 377.713 338.077 377.393 337.611 376.94C337.144 376.473 336.911 375.86 336.911 375.1C336.911 374.247 337.224 373.58 337.851 373.1C338.477 372.62 339.337 372.38 340.431 372.38C342.044 372.38 343.177 372.893 343.831 373.92L342.711 374.86C342.391 374.473 342.051 374.193 341.691 374.02C341.344 373.847 340.924 373.76 340.431 373.76C339.844 373.76 339.391 373.88 339.071 374.12C338.751 374.36 338.591 374.693 338.591 375.12C338.591 375.507 338.744 375.807 339.051 376.02C339.357 376.22 339.844 376.387 340.511 376.52C341.391 376.72 342.084 376.933 342.591 377.16C343.097 377.373 343.477 377.667 343.731 378.04C343.984 378.4 344.111 378.88 344.111 379.48C344.111 381.307 342.831 382.22 340.271 382.22ZM347.178 382.22C346.844 382.22 346.564 382.107 346.338 381.88C346.111 381.653 345.998 381.373 345.998 381.04C345.998 380.707 346.111 380.427 346.338 380.2C346.564 379.96 346.844 379.84 347.178 379.84C347.511 379.84 347.791 379.96 348.018 380.2C348.244 380.427 348.358 380.707 348.358 381.04C348.358 381.373 348.244 381.653 348.018 381.88C347.791 382.107 347.511 382.22 347.178 382.22ZM351.581 370.76C351.274 370.76 351.007 370.653 350.781 370.44C350.567 370.213 350.461 369.947 350.461 369.64C350.461 369.333 350.574 369.073 350.801 368.86C351.027 368.633 351.287 368.52 351.581 368.52C351.887 368.52 352.147 368.633 352.361 368.86C352.587 369.073 352.701 369.333 352.701 369.64C352.701 369.947 352.587 370.213 352.361 370.44C352.147 370.653 351.887 370.76 351.581 370.76ZM347.601 385.18H348.581C349.314 385.18 349.847 384.993 350.181 384.62C350.527 384.26 350.701 383.687 350.701 382.9V372.6H352.461V382.9C352.461 384.193 352.154 385.127 351.541 385.7C350.941 386.273 349.954 386.56 348.581 386.56H347.601V385.18ZM358.22 382.22C357.34 382.22 356.627 382.093 356.08 381.84C355.547 381.573 355.053 381.147 354.6 380.56L355.72 379.6C356.107 380.053 356.48 380.373 356.84 380.56C357.213 380.747 357.673 380.84 358.22 380.84C359.673 380.84 360.4 380.38 360.4 379.46C360.4 379.167 360.32 378.933 360.16 378.76C360.013 378.573 359.747 378.42 359.36 378.3C358.987 378.167 358.42 378.033 357.66 377.9C356.727 377.713 356.027 377.393 355.56 376.94C355.093 376.473 354.86 375.86 354.86 375.1C354.86 374.247 355.173 373.58 355.8 373.1C356.427 372.62 357.287 372.38 358.38 372.38C359.993 372.38 361.127 372.893 361.78 373.92L360.66 374.86C360.34 374.473 360 374.193 359.64 374.02C359.293 373.847 358.873 373.76 358.38 373.76C357.793 373.76 357.34 373.88 357.02 374.12C356.7 374.36 356.54 374.693 356.54 375.12C356.54 375.507 356.693 375.807 357 376.02C357.307 376.22 357.793 376.387 358.46 376.52C359.34 376.72 360.033 376.933 360.54 377.16C361.047 377.373 361.427 377.667 361.68 378.04C361.933 378.4 362.06 378.88 362.06 379.48C362.06 381.307 360.78 382.22 358.22 382.22Z" fill="black"/>
<path d="M26.8595 368H27.9195C28.6662 368 29.2395 368.16 29.6395 368.48C30.0529 368.8 30.4795 369.393 30.9195 370.26L33.2795 374.8L35.6395 370.26C36.0795 369.393 36.4995 368.8 36.8995 368.48C37.3129 368.16 37.8929 368 38.6395 368H39.6995V382H37.9395V369.94C37.7662 369.953 37.6129 370.027 37.4795 370.16C37.3595 370.28 37.2129 370.493 37.0395 370.8L33.2795 377.86L29.5195 370.8C29.3595 370.493 29.2129 370.28 29.0795 370.16C28.9462 370.027 28.7929 369.953 28.6195 369.94V382H26.8595V368ZM46.743 382.22C45.4363 382.22 44.423 381.907 43.703 381.28C42.9963 380.64 42.643 379.74 42.643 378.58V376.02C42.643 374.86 42.9963 373.967 43.703 373.34C44.423 372.7 45.4363 372.38 46.743 372.38C48.0496 372.38 49.0563 372.7 49.763 373.34C50.4696 373.967 50.823 374.86 50.823 376.02V378.58C50.823 379.74 50.4696 380.64 49.763 381.28C49.0563 381.907 48.0496 382.22 46.743 382.22ZM46.743 380.84C47.4763 380.84 48.043 380.647 48.443 380.26C48.8563 379.86 49.063 379.3 49.063 378.58V376.02C49.063 375.3 48.8563 374.747 48.443 374.36C48.043 373.96 47.4763 373.76 46.743 373.76C45.9963 373.76 45.4163 373.96 45.003 374.36C44.603 374.747 44.403 375.3 44.403 376.02V378.58C44.403 379.3 44.603 379.86 45.003 380.26C45.4163 380.647 45.9963 380.84 46.743 380.84ZM58.3164 372.38C59.2897 372.38 60.0431 372.66 60.5764 373.22C61.1231 373.78 61.3964 374.567 61.3964 375.58V382H59.6364V375.8C59.6364 375.16 59.4764 374.66 59.1564 374.3C58.8364 373.94 58.3964 373.76 57.8364 373.76C57.2097 373.76 56.6697 373.98 56.2164 374.42C55.7631 374.86 55.4297 375.453 55.2164 376.2V382H53.4564V374.7C53.4564 374.42 53.4031 374.193 53.2964 374.02C53.1897 373.833 52.9964 373.633 52.7164 373.42L53.8764 372.38C54.3031 372.62 54.6164 372.873 54.8164 373.14C55.0164 373.407 55.1431 373.753 55.1964 374.18C55.5031 373.62 55.9231 373.18 56.4564 372.86C56.9897 372.54 57.6097 372.38 58.3164 372.38ZM73.2577 373.42C72.9777 373.633 72.7843 373.833 72.6777 374.02C72.571 374.193 72.5177 374.42 72.5177 374.7V382.56C72.5177 383.733 72.2043 384.6 71.5777 385.16C70.951 385.72 69.971 386 68.6377 386H66.1577V384.62H68.6377C69.3443 384.62 69.871 384.447 70.2177 384.1C70.5777 383.767 70.7577 383.253 70.7577 382.56V380.56C70.1043 381.52 69.091 382 67.7177 382C66.451 382 65.4443 381.587 64.6977 380.76C63.9643 379.933 63.5977 378.813 63.5977 377.4V376.98C63.5977 376.087 63.7577 375.293 64.0777 374.6C64.411 373.907 64.8843 373.367 65.4977 372.98C66.1243 372.58 66.8643 372.38 67.7177 372.38C68.3977 372.38 69.0043 372.513 69.5377 372.78C70.071 373.047 70.5177 373.433 70.8777 373.94C70.931 373.593 71.0443 373.3 71.2177 373.06C71.391 372.82 71.6777 372.593 72.0777 372.38L73.2577 373.42ZM68.1177 380.62C68.811 380.62 69.371 380.453 69.7977 380.12C70.2243 379.787 70.5443 379.28 70.7577 378.6V375.76C70.5443 375.08 70.2177 374.58 69.7777 374.26C69.351 373.927 68.7977 373.76 68.1177 373.76C67.2777 373.76 66.6043 374.06 66.0977 374.66C65.6043 375.26 65.3577 376.033 65.3577 376.98V377.4C65.3577 378.347 65.6043 379.12 66.0977 379.72C66.591 380.32 67.2643 380.62 68.1177 380.62ZM79.1648 382.22C77.8582 382.22 76.8448 381.907 76.1248 381.28C75.4182 380.64 75.0648 379.74 75.0648 378.58V376.02C75.0648 374.86 75.4182 373.967 76.1248 373.34C76.8448 372.7 77.8582 372.38 79.1648 372.38C80.4715 372.38 81.4782 372.7 82.1848 373.34C82.8915 373.967 83.2448 374.86 83.2448 376.02V378.58C83.2448 379.74 82.8915 380.64 82.1848 381.28C81.4782 381.907 80.4715 382.22 79.1648 382.22ZM79.1648 380.84C79.8982 380.84 80.4648 380.647 80.8648 380.26C81.2782 379.86 81.4848 379.3 81.4848 378.58V376.02C81.4848 375.3 81.2782 374.747 80.8648 374.36C80.4648 373.96 79.8982 373.76 79.1648 373.76C78.4182 373.76 77.8382 373.96 77.4248 374.36C77.0248 374.747 76.8248 375.3 76.8248 376.02V378.58C76.8248 379.3 77.0248 379.86 77.4248 380.26C77.8382 380.647 78.4182 380.84 79.1648 380.84ZM86.1759 368H91.2159C92.7226 368 93.9159 368.227 94.7959 368.68C95.6759 369.133 96.3093 369.867 96.6959 370.88C97.0959 371.893 97.2959 373.267 97.2959 375C97.2959 376.747 97.0959 378.127 96.6959 379.14C96.3093 380.14 95.6759 380.867 94.7959 381.32C93.9159 381.773 92.7226 382 91.2159 382H86.1759V368ZM91.2159 380.5C92.2426 380.5 93.0559 380.32 93.6559 379.96C94.2693 379.6 94.7093 379.027 94.9759 378.24C95.2559 377.44 95.3959 376.367 95.3959 375.02C95.3959 373.66 95.2559 372.58 94.9759 371.78C94.7093 370.98 94.2693 370.4 93.6559 370.04C93.0559 369.68 92.2426 369.5 91.2159 369.5H88.0759V380.5H91.2159ZM104.878 382.22C103.491 382.22 102.471 381.753 101.818 380.82V382H100.058V369.68C100.058 369.387 100.005 369.153 99.898 368.98C99.8046 368.807 99.6113 368.607 99.318 368.38L100.478 367.34C100.985 367.607 101.331 367.913 101.518 368.26C101.718 368.593 101.818 369.067 101.818 369.68V373.82C102.498 372.86 103.511 372.38 104.858 372.38C105.698 372.38 106.425 372.58 107.038 372.98C107.665 373.367 108.145 373.907 108.478 374.6C108.811 375.293 108.978 376.087 108.978 376.98V377.62C108.978 378.513 108.811 379.307 108.478 380C108.158 380.693 107.685 381.24 107.058 381.64C106.445 382.027 105.718 382.22 104.878 382.22ZM104.458 380.84C105.298 380.84 105.965 380.54 106.458 379.94C106.965 379.34 107.218 378.567 107.218 377.62V376.98C107.218 376.033 106.965 375.26 106.458 374.66C105.965 374.06 105.298 373.76 104.458 373.76C103.098 373.76 102.218 374.42 101.818 375.74V378.86C102.218 380.18 103.098 380.84 104.458 380.84Z" fill="black"/>
<defs>
<filter id="filter0_d_146_41" x="40" y="72" width="313.21" height="324.279" filterUnits="userSpaceOnUse" color-interpolation-filters="sRGB">
<feFlood flood-opacity="0" result="BackgroundImageFix"/>
<feColorMatrix in="SourceAlpha" type="matrix" values="0 0 0 0 0 0 0 0 0 0 0 0 0 0 0 0 0 0 127 0" result="hardAlpha"/>
<feMorphology radius="4" operator="dilate" in="SourceAlpha" result="effect1_dropShadow_146_41"/>
<feOffset dx="5" dy="6"/>
<feGaussianBlur stdDeviation="2"/>
<feComposite in2="hardAlpha" operator="out"/>
<feColorMatrix type="matrix" values="0 0 0 0 0 0 0 0 0 0 0 0 0 0 0 0 0 0 0.25 0"/>
<feBlend mode="normal" in2="BackgroundImageFix" result="effect1_dropShadow_146_41"/>
<feBlend mode="normal" in="SourceGraphic" in2="effect1_dropShadow_146_41" result="shape"/>
</filter>
<filter id="filter1_d_146_41" x="26.2173" y="272.139" width="93" height="93" filterUnits="userSpaceOnUse" color-interpolation-filters="sRGB">
<feFlood flood-opacity="0" result="BackgroundImageFix"/>
<feColorMatrix in="SourceAlpha" type="matrix" values="0 0 0 0 0 0 0 0 0 0 0 0 0 0 0 0 0 0 127 0" result="hardAlpha"/>
<feOffset dx="2" dy="2"/>
<feGaussianBlur stdDeviation="2"/>
<feComposite in2="hardAlpha" operator="out"/>
<feColorMatrix type="matrix" values="0 0 0 0 0 0 0 0 0 0 0 0 0 0 0 0 0 0 0.25 0"/>
<feBlend mode="normal" in2="BackgroundImageFix" result="effect1_dropShadow_146_41"/>
<feBlend mode="normal" in="SourceGraphic" in2="effect1_dropShadow_146_41" result="shape"/>
</filter>
<filter id="filter2_d_146_41" x="276" y="272" width="93" height="93" filterUnits="userSpaceOnUse" color-interpolation-filters="sRGB">
<feFlood flood-opacity="0" result="BackgroundImageFix"/>
<feColorMatrix in="SourceAlpha" type="matrix" values="0 0 0 0 0 0 0 0 0 0 0 0 0 0 0 0 0 0 127 0" result="hardAlpha"/>
<feOffset dx="2" dy="2"/>
<feGaussianBlur stdDeviation="2"/>
<feComposite in2="hardAlpha" operator="out"/>
<feColorMatrix type="matrix" values="0 0 0 0 0 0 0 0 0 0 0 0 0 0 0 0 0 0 0.25 0"/>
<feBlend mode="normal" in2="BackgroundImageFix" result="effect1_dropShadow_146_41"/>
<feBlend mode="normal" in="SourceGraphic" in2="effect1_dropShadow_146_41" result="shape"/>
</filter>
<filter id="filter3_d_146_41" x="151" y="31" width="93" height="93" filterUnits="userSpaceOnUse" color-interpolation-filters="sRGB">
<feFlood flood-opacity="0" result="BackgroundImageFix"/>
<feColorMatrix in="SourceAlpha" type="matrix" values="0 0 0 0 0 0 0 0 0 0 0 0 0 0 0 0 0 0 127 0" result="hardAlpha"/>
<feOffset dx="2" dy="2"/>
<feGaussianBlur stdDeviation="2"/>
<feComposite in2="hardAlpha" operator="out"/>
<feColorMatrix type="matrix" values="0 0 0 0 0 0 0 0 0 0 0 0 0 0 0 0 0 0 0.25 0"/>
<feBlend mode="normal" in2="BackgroundImageFix" result="effect1_dropShadow_146_41"/>
<feBlend mode="normal" in="SourceGraphic" in2="effect1_dropShadow_146_41" result="shape"/>
</filter>
<linearGradient id="paint0_linear_146_41" x1="192.401" y1="67.2949" x2="183.321" y2="85.1535" gradientUnits="userSpaceOnUse">
<stop offset="0.3" stop-color="#3E863D"/>
<stop offset="0.5" stop-color="#55934F"/>
<stop offset="0.8" stop-color="#5AAD45"/>
</linearGradient>
<linearGradient id="paint1_linear_146_41" x1="180.373" y1="82.44" x2="196.37" y2="71.0442" gradientUnits="userSpaceOnUse">
<stop offset="0.57" stop-color="#3E863D"/>
<stop offset="0.72" stop-color="#619857"/>
<stop offset="1" stop-color="#76AC64"/>
</linearGradient>
<linearGradient id="paint2_linear_146_41" x1="181.86" y1="76.35" x2="194.758" y2="76.35" gradientUnits="userSpaceOnUse">
<stop offset="0.16" stop-color="#6BBF47"/>
<stop offset="0.38" stop-color="#79B461"/>
<stop offset="0.47" stop-color="#75AC64"/>
<stop offset="0.7" stop-color="#659E5A"/>
<stop offset="0.9" stop-color="#3E863D"/>
</linearGradient>
<clipPath id="clip0_146_41">
<rect width="65" height="17.8226" fill="white" transform="translate(38 306)"/>
</clipPath>
<clipPath id="clip1_146_41">
<rect width="62.243" height="39.5402" fill="white" transform="translate(165.152 59.4738)"/>
</clipPath>
</defs>
</svg>
