<svg width="387" height="376" viewBox="0 0 387 376" fill="none" xmlns="http://www.w3.org/2000/svg">
<g filter="url(#filter0_d_180_237)">
<ellipse cx="180.874" cy="202.49" rx="131.898" ry="136.81" fill="#EAE2D7"/>
<path d="M310.272 202.49C310.272 276.755 252.254 336.801 180.874 336.801C109.495 336.801 51.4763 276.755 51.4763 202.49C51.4763 128.226 109.495 68.1804 180.874 68.1804C252.254 68.1804 310.272 128.226 310.272 202.49Z" stroke="black" stroke-width="5"/>
</g>
<path d="M131.684 152.682H140.196C141.82 152.682 143.127 153.13 144.116 154.026C145.106 154.904 145.6 156.07 145.6 157.526C145.6 158.609 145.311 159.542 144.732 160.326C144.154 161.092 143.351 161.624 142.324 161.922C143.538 162.221 144.48 162.809 145.152 163.686C145.843 164.545 146.188 165.618 146.188 166.906C146.188 168.568 145.638 169.884 144.536 170.854C143.435 171.806 141.942 172.282 140.056 172.282H131.684V152.682ZM140.028 161.166C141.074 161.166 141.923 160.849 142.576 160.214C143.248 159.561 143.584 158.73 143.584 157.722C143.584 156.677 143.258 155.846 142.604 155.23C141.97 154.614 141.111 154.306 140.028 154.306H133.7V161.166H140.028ZM139.58 170.658C141.074 170.658 142.212 170.322 142.996 169.65C143.78 168.978 144.172 168.008 144.172 166.738C144.172 165.469 143.771 164.498 142.968 163.826C142.184 163.136 141.055 162.79 139.58 162.79H133.7V170.658H139.58ZM160.327 169.902C160.327 170.238 160.383 170.518 160.495 170.742C160.626 170.948 160.859 171.19 161.195 171.47L159.935 172.59C159.469 172.329 159.123 172.03 158.899 171.694C158.675 171.358 158.545 170.92 158.507 170.378C158.022 171.088 157.359 171.638 156.519 172.03C155.679 172.404 154.737 172.59 153.691 172.59C152.273 172.59 151.181 172.264 150.415 171.61C149.65 170.938 149.267 169.977 149.267 168.726C149.267 167.569 149.669 166.664 150.471 166.01C151.274 165.357 152.487 164.937 154.111 164.75L156.295 164.498C156.911 164.424 157.369 164.33 157.667 164.218C157.985 164.106 158.199 163.948 158.311 163.742C158.423 163.518 158.47 163.21 158.451 162.818C158.283 161.082 157.07 160.214 154.811 160.214C153.971 160.214 153.253 160.354 152.655 160.634C152.058 160.896 151.545 161.316 151.115 161.894L149.827 160.942C150.705 159.524 152.366 158.814 154.811 158.814C156.603 158.814 157.966 159.197 158.899 159.962C159.851 160.728 160.327 161.829 160.327 163.266V169.902ZM154.111 171.134C155.418 171.134 156.473 170.798 157.275 170.126C158.078 169.454 158.479 168.568 158.479 167.466V165.198C158.255 165.366 157.985 165.497 157.667 165.59C157.35 165.665 156.911 165.73 156.351 165.786L154.279 166.01C153.215 166.141 152.403 166.44 151.843 166.906C151.302 167.354 151.031 167.952 151.031 168.698C151.031 170.322 152.058 171.134 154.111 171.134ZM169.639 172.59C167.81 172.59 166.4 172.17 165.411 171.33C164.422 170.49 163.927 169.277 163.927 167.69V163.714C163.927 162.165 164.431 160.961 165.439 160.102C166.447 159.244 167.856 158.814 169.667 158.814C170.768 158.814 171.72 158.992 172.523 159.346C173.326 159.701 174.016 160.242 174.595 160.97L173.307 162.062C172.784 161.428 172.243 160.98 171.683 160.718C171.123 160.457 170.451 160.326 169.667 160.326C168.454 160.326 167.502 160.625 166.811 161.222C166.139 161.82 165.803 162.65 165.803 163.714V167.69C165.803 168.773 166.13 169.613 166.783 170.21C167.455 170.789 168.407 171.078 169.639 171.078C170.479 171.078 171.207 170.938 171.823 170.658C172.439 170.378 172.962 169.949 173.391 169.37L174.679 170.462C174.138 171.19 173.456 171.732 172.635 172.086C171.814 172.422 170.815 172.59 169.639 172.59ZM184.021 163.826C184.954 163.976 185.682 164.349 186.205 164.946C186.746 165.544 187.175 166.44 187.493 167.634L188.697 172.282H186.765L185.561 167.634C185.355 166.832 185.029 166.253 184.581 165.898C184.151 165.525 183.498 165.301 182.621 165.226L179.793 168.054V172.282H177.917V154.698C177.917 154.344 177.861 154.064 177.749 153.858C177.637 153.653 177.403 153.401 177.049 153.102L178.337 152.01C178.878 152.309 179.251 152.664 179.457 153.074C179.681 153.485 179.793 154.045 179.793 154.754V165.758L186.373 159.122H188.725L184.021 163.826ZM196.766 171.078C197.569 171.078 198.278 170.957 198.894 170.714C199.51 170.472 200.079 170.08 200.602 169.538L201.778 170.63C201.181 171.302 200.471 171.797 199.65 172.114C198.829 172.432 197.83 172.59 196.654 172.59C194.862 172.59 193.462 172.17 192.454 171.33C191.465 170.472 190.97 169.277 190.97 167.746V163.49C190.97 162.053 191.455 160.924 192.426 160.102C193.415 159.262 194.769 158.842 196.486 158.842C198.241 158.842 199.585 159.281 200.518 160.158C201.47 161.036 201.946 162.277 201.946 163.882C201.946 164.909 201.75 165.618 201.358 166.01C200.985 166.384 200.275 166.57 199.23 166.57H192.846V167.746C192.846 168.866 193.163 169.706 193.798 170.266C194.451 170.808 195.441 171.078 196.766 171.078ZM196.458 160.326C195.338 160.326 194.451 160.625 193.798 161.222C193.163 161.801 192.846 162.594 192.846 163.602V165.198H198.446C199.081 165.198 199.51 165.096 199.734 164.89C199.958 164.666 200.07 164.256 200.07 163.658C200.07 162.613 199.753 161.801 199.118 161.222C198.483 160.625 197.597 160.326 196.458 160.326ZM212.003 158.814C213.329 158.814 214.365 159.216 215.111 160.018C215.858 160.802 216.231 161.894 216.231 163.294V172.282H214.355V163.574C214.355 162.548 214.103 161.754 213.599 161.194C213.114 160.616 212.433 160.326 211.555 160.326C210.547 160.326 209.67 160.7 208.923 161.446C208.195 162.193 207.673 163.21 207.355 164.498V172.282H205.479V161.502C205.479 161.166 205.414 160.896 205.283 160.69C205.171 160.466 204.947 160.214 204.611 159.934L205.843 158.814C206.422 159.132 206.814 159.496 207.019 159.906C207.243 160.298 207.355 160.849 207.355 161.558V161.81C207.822 160.84 208.447 160.102 209.231 159.598C210.034 159.076 210.958 158.814 212.003 158.814ZM231.608 169.902C231.608 170.238 231.664 170.518 231.776 170.742C231.906 170.948 232.14 171.19 232.476 171.47L231.244 172.59C230.777 172.329 230.432 171.993 230.208 171.582C229.984 171.153 229.853 170.714 229.816 170.266C228.845 171.816 227.361 172.59 225.364 172.59C224.206 172.59 223.189 172.329 222.312 171.806C221.453 171.265 220.781 170.509 220.296 169.538C219.829 168.568 219.596 167.438 219.596 166.15V165.254C219.596 163.966 219.829 162.837 220.296 161.866C220.781 160.896 221.453 160.149 222.312 159.626C223.189 159.085 224.206 158.814 225.364 158.814C226.316 158.814 227.165 159.001 227.912 159.374C228.677 159.748 229.284 160.28 229.732 160.97V154.698C229.732 154.362 229.676 154.092 229.564 153.886C229.452 153.681 229.218 153.42 228.864 153.102L230.152 152.01C230.693 152.309 231.066 152.664 231.272 153.074C231.496 153.485 231.608 154.045 231.608 154.754V169.902ZM229.732 163.35C229.414 162.342 228.929 161.586 228.276 161.082C227.622 160.578 226.754 160.326 225.672 160.326C224.402 160.326 223.385 160.774 222.62 161.67C221.854 162.566 221.472 163.761 221.472 165.254V166.15C221.472 167.644 221.854 168.838 222.62 169.734C223.385 170.63 224.402 171.078 225.672 171.078C226.754 171.078 227.622 170.826 228.276 170.322C228.929 169.818 229.414 169.062 229.732 168.054V163.35ZM191.03 208.282L189.406 206.49C187.856 207.89 185.812 208.59 183.274 208.59C181.295 208.59 179.727 208.096 178.57 207.106C177.412 206.098 176.834 204.745 176.834 203.046C176.834 201.74 177.198 200.676 177.926 199.854C178.654 199.014 179.736 198.193 181.174 197.39C180.334 196.457 179.708 195.636 179.298 194.926C178.906 194.217 178.71 193.452 178.71 192.63C178.71 191.324 179.139 190.297 179.998 189.55C180.875 188.785 182.051 188.402 183.526 188.402C184.963 188.402 186.102 188.794 186.942 189.578C187.782 190.344 188.202 191.38 188.202 192.686C188.202 193.75 187.875 194.646 187.222 195.374C186.568 196.084 185.495 196.886 184.002 197.782L189.21 203.494C190.012 202.132 190.563 200.293 190.862 197.978H192.906C192.532 201.04 191.776 203.392 190.638 205.034L193.578 208.282H191.03ZM183.526 190.026C182.686 190.026 182.004 190.26 181.482 190.726C180.978 191.193 180.726 191.828 180.726 192.63C180.726 193.265 180.875 193.853 181.174 194.394C181.491 194.917 182.032 195.608 182.798 196.466C183.992 195.776 184.851 195.169 185.374 194.646C185.915 194.124 186.186 193.47 186.186 192.686C186.186 191.884 185.943 191.24 185.458 190.754C184.972 190.269 184.328 190.026 183.526 190.026ZM183.274 206.966C185.29 206.966 186.895 206.322 188.09 205.034L182.378 198.734C181.575 199.182 180.94 199.584 180.474 199.938C180.007 200.274 179.615 200.704 179.298 201.226C178.999 201.73 178.85 202.337 178.85 203.046C178.85 204.241 179.242 205.193 180.026 205.902C180.828 206.612 181.911 206.966 183.274 206.966ZM130.18 224.682H137.152C139.206 224.682 140.83 225 142.024 225.634C143.238 226.269 144.115 227.296 144.656 228.714C145.198 230.133 145.468 232.056 145.468 234.482C145.468 236.928 145.198 238.86 144.656 240.278C144.134 241.678 143.266 242.696 142.052 243.33C140.858 243.965 139.224 244.282 137.152 244.282H130.18V224.682ZM137.152 242.658C138.702 242.658 139.934 242.397 140.848 241.874C141.763 241.333 142.426 240.474 142.836 239.298C143.247 238.104 143.452 236.508 143.452 234.51C143.452 232.513 143.238 230.917 142.808 229.722C142.398 228.528 141.735 227.66 140.82 227.118C139.906 226.577 138.683 226.306 137.152 226.306H132.196V242.658H137.152ZM159.753 241.902C159.753 242.238 159.809 242.518 159.921 242.742C160.052 242.948 160.285 243.19 160.621 243.47L159.361 244.59C158.895 244.329 158.549 244.03 158.325 243.694C158.101 243.358 157.971 242.92 157.933 242.378C157.448 243.088 156.785 243.638 155.945 244.03C155.105 244.404 154.163 244.59 153.117 244.59C151.699 244.59 150.607 244.264 149.841 243.61C149.076 242.938 148.693 241.977 148.693 240.726C148.693 239.569 149.095 238.664 149.897 238.01C150.7 237.357 151.913 236.937 153.537 236.75L155.721 236.498C156.337 236.424 156.795 236.33 157.093 236.218C157.411 236.106 157.625 235.948 157.737 235.742C157.849 235.518 157.896 235.21 157.877 234.818C157.709 233.082 156.496 232.214 154.237 232.214C153.397 232.214 152.679 232.354 152.081 232.634C151.484 232.896 150.971 233.316 150.541 233.894L149.253 232.942C150.131 231.524 151.792 230.814 154.237 230.814C156.029 230.814 157.392 231.197 158.325 231.962C159.277 232.728 159.753 233.829 159.753 235.266V241.902ZM153.537 243.134C154.844 243.134 155.899 242.798 156.701 242.126C157.504 241.454 157.905 240.568 157.905 239.466V237.198C157.681 237.366 157.411 237.497 157.093 237.59C156.776 237.665 156.337 237.73 155.777 237.786L153.705 238.01C152.641 238.141 151.829 238.44 151.269 238.906C150.728 239.354 150.457 239.952 150.457 240.698C150.457 242.322 151.484 243.134 153.537 243.134ZM165.68 232.634V240.474C165.68 242.136 166.408 242.966 167.864 242.966H169.46V244.45H167.864C166.464 244.45 165.437 244.133 164.784 243.498C164.131 242.845 163.804 241.837 163.804 240.474V228.07C163.804 227.734 163.739 227.464 163.608 227.258C163.496 227.034 163.272 226.782 162.936 226.502L164.196 225.382C164.756 225.7 165.139 226.064 165.344 226.474C165.568 226.866 165.68 227.417 165.68 228.126V231.122H169.46V232.634H165.68ZM183.187 241.902C183.187 242.238 183.243 242.518 183.355 242.742C183.485 242.948 183.719 243.19 184.055 243.47L182.795 244.59C182.328 244.329 181.983 244.03 181.759 243.694C181.535 243.358 181.404 242.92 181.367 242.378C180.881 243.088 180.219 243.638 179.379 244.03C178.539 244.404 177.596 244.59 176.551 244.59C175.132 244.59 174.04 244.264 173.275 243.61C172.509 242.938 172.127 241.977 172.127 240.726C172.127 239.569 172.528 238.664 173.331 238.01C174.133 237.357 175.347 236.937 176.971 236.75L179.155 236.498C179.771 236.424 180.228 236.33 180.527 236.218C180.844 236.106 181.059 235.948 181.171 235.742C181.283 235.518 181.329 235.21 181.311 234.818C181.143 233.082 179.929 232.214 177.671 232.214C176.831 232.214 176.112 232.354 175.515 232.634C174.917 232.896 174.404 233.316 173.975 233.894L172.687 232.942C173.564 231.524 175.225 230.814 177.671 230.814C179.463 230.814 180.825 231.197 181.759 231.962C182.711 232.728 183.187 233.829 183.187 235.266V241.902ZM176.971 243.134C178.277 243.134 179.332 242.798 180.135 242.126C180.937 241.454 181.339 240.568 181.339 239.466V237.198C181.115 237.366 180.844 237.497 180.527 237.59C180.209 237.665 179.771 237.73 179.211 237.786L177.139 238.01C176.075 238.141 175.263 238.44 174.703 238.906C174.161 239.354 173.891 239.952 173.891 240.698C173.891 242.322 174.917 243.134 176.971 243.134ZM193.786 244.59C192.816 244.59 191.957 244.413 191.21 244.058C190.464 243.685 189.857 243.144 189.39 242.434V244.282H187.514V226.698C187.514 226.344 187.458 226.064 187.346 225.858C187.234 225.653 187.001 225.401 186.646 225.102L187.878 224.01C188.438 224.328 188.83 224.682 189.054 225.074C189.278 225.466 189.39 226.026 189.39 226.754V232.998C189.876 232.289 190.482 231.748 191.21 231.374C191.957 231.001 192.806 230.814 193.758 230.814C194.916 230.814 195.933 231.085 196.81 231.626C197.688 232.149 198.36 232.896 198.826 233.866C199.312 234.837 199.554 235.966 199.554 237.254V238.15C199.554 239.438 199.312 240.568 198.826 241.538C198.36 242.509 197.688 243.265 196.81 243.806C195.952 244.329 194.944 244.59 193.786 244.59ZM193.45 243.078C194.72 243.078 195.737 242.63 196.502 241.734C197.268 240.838 197.65 239.644 197.65 238.15V237.254C197.65 235.761 197.268 234.566 196.502 233.67C195.737 232.774 194.72 232.326 193.45 232.326C192.368 232.326 191.5 232.578 190.846 233.082C190.193 233.586 189.708 234.342 189.39 235.35V240.054C189.708 241.062 190.193 241.818 190.846 242.322C191.5 242.826 192.368 243.078 193.45 243.078ZM213.292 241.902C213.292 242.238 213.348 242.518 213.46 242.742C213.591 242.948 213.824 243.19 214.16 243.47L212.9 244.59C212.434 244.329 212.088 244.03 211.864 243.694C211.64 243.358 211.51 242.92 211.472 242.378C210.987 243.088 210.324 243.638 209.484 244.03C208.644 244.404 207.702 244.59 206.656 244.59C205.238 244.59 204.146 244.264 203.38 243.61C202.615 242.938 202.232 241.977 202.232 240.726C202.232 239.569 202.634 238.664 203.436 238.01C204.239 237.357 205.452 236.937 207.076 236.75L209.26 236.498C209.876 236.424 210.334 236.33 210.632 236.218C210.95 236.106 211.164 235.948 211.276 235.742C211.388 235.518 211.435 235.21 211.416 234.818C211.248 233.082 210.035 232.214 207.776 232.214C206.936 232.214 206.218 232.354 205.62 232.634C205.023 232.896 204.51 233.316 204.08 233.894L202.792 232.942C203.67 231.524 205.331 230.814 207.776 230.814C209.568 230.814 210.931 231.197 211.864 231.962C212.816 232.728 213.292 233.829 213.292 235.266V241.902ZM207.076 243.134C208.383 243.134 209.438 242.798 210.24 242.126C211.043 241.454 211.444 240.568 211.444 239.466V237.198C211.22 237.366 210.95 237.497 210.632 237.59C210.315 237.665 209.876 237.73 209.316 237.786L207.244 238.01C206.18 238.141 205.368 238.44 204.808 238.906C204.267 239.354 203.996 239.952 203.996 240.698C203.996 242.322 205.023 243.134 207.076 243.134ZM221.481 244.59C220.379 244.59 219.437 244.413 218.653 244.058C217.887 243.704 217.187 243.125 216.553 242.322L217.757 241.286C218.335 241.94 218.905 242.406 219.465 242.686C220.025 242.948 220.697 243.078 221.481 243.078C222.601 243.078 223.45 242.882 224.029 242.49C224.607 242.098 224.897 241.529 224.897 240.782C224.897 240.316 224.785 239.942 224.561 239.662C224.337 239.382 223.945 239.14 223.385 238.934C222.825 238.729 221.975 238.524 220.837 238.318C218.223 237.852 216.917 236.601 216.917 234.566C216.917 233.39 217.337 232.476 218.177 231.822C219.035 231.15 220.211 230.814 221.705 230.814C222.769 230.814 223.693 231.001 224.477 231.374C225.279 231.729 225.886 232.252 226.297 232.942L225.093 233.95C224.663 233.39 224.169 232.98 223.609 232.718C223.067 232.457 222.433 232.326 221.705 232.326C220.771 232.326 220.034 232.522 219.493 232.914C218.97 233.306 218.709 233.848 218.709 234.538C218.709 235.154 218.923 235.63 219.353 235.966C219.801 236.302 220.575 236.582 221.677 236.806C222.965 237.086 223.963 237.394 224.673 237.73C225.401 238.048 225.914 238.449 226.213 238.934C226.53 239.42 226.689 240.036 226.689 240.782C226.689 242.033 226.241 242.985 225.345 243.638C224.467 244.273 223.179 244.59 221.481 244.59ZM236.032 243.078C236.834 243.078 237.544 242.957 238.16 242.714C238.776 242.472 239.345 242.08 239.868 241.538L241.044 242.63C240.446 243.302 239.737 243.797 238.916 244.114C238.094 244.432 237.096 244.59 235.92 244.59C234.128 244.59 232.728 244.17 231.72 243.33C230.73 242.472 230.236 241.277 230.236 239.746V235.49C230.236 234.053 230.721 232.924 231.692 232.102C232.681 231.262 234.034 230.842 235.752 230.842C237.506 230.842 238.85 231.281 239.784 232.158C240.736 233.036 241.212 234.277 241.212 235.882C241.212 236.909 241.016 237.618 240.624 238.01C240.25 238.384 239.541 238.57 238.496 238.57H232.112V239.746C232.112 240.866 232.429 241.706 233.064 242.266C233.717 242.808 234.706 243.078 236.032 243.078ZM235.724 232.326C234.604 232.326 233.717 232.625 233.064 233.222C232.429 233.801 232.112 234.594 232.112 235.602V237.198H237.712C238.346 237.198 238.776 237.096 239 236.89C239.224 236.666 239.336 236.256 239.336 235.658C239.336 234.613 239.018 233.801 238.384 233.222C237.749 232.625 236.862 232.326 235.724 232.326Z" fill="black"/>
<g filter="url(#filter1_d_180_237)">
<circle cx="115.987" cy="312.682" r="38" fill="#EEE7DB"/>
<circle cx="115.987" cy="312.682" r="35.5" stroke="black" stroke-width="5"/>
</g>
<g filter="url(#filter2_d_180_237)">
<path d="M318.87 289.404C318.87 310.391 301.857 327.404 280.87 327.404C259.883 327.404 242.87 310.391 242.87 289.404C242.87 268.417 259.883 251.404 280.87 251.404C301.857 251.404 318.87 268.417 318.87 289.404Z" fill="#EEE7DB"/>
<path d="M316.37 289.404C316.37 309.01 300.476 324.904 280.87 324.904C261.264 324.904 245.37 309.01 245.37 289.404C245.37 269.798 261.264 253.904 280.87 253.904C300.476 253.904 316.37 269.798 316.37 289.404Z" stroke="black" stroke-width="5"/>
</g>
<g filter="url(#filter3_d_180_237)">
<path d="M335.498 145.425C335.498 166.412 318.484 183.425 297.498 183.425C276.511 183.425 259.498 166.412 259.498 145.425C259.498 124.438 276.511 107.425 297.498 107.425C318.484 107.425 335.498 124.438 335.498 145.425Z" fill="#EEE7DB"/>
<path d="M332.998 145.425C332.998 165.031 317.104 180.925 297.498 180.925C277.891 180.925 261.998 165.031 261.998 145.425C261.998 125.819 277.891 109.925 297.498 109.925C317.104 109.925 332.998 125.819 332.998 145.425Z" stroke="black" stroke-width="5"/>
</g>
<g filter="url(#filter4_d_180_237)">
<path d="M202.347 75.228C202.347 96.2148 185.334 113.228 164.347 113.228C143.36 113.228 126.347 96.2148 126.347 75.228C126.347 54.2412 143.36 37.228 164.347 37.228C185.334 37.228 202.347 54.2412 202.347 75.228Z" fill="#EEE7DB"/>
<path d="M199.847 75.228C199.847 94.8341 183.953 110.728 164.347 110.728C144.741 110.728 128.847 94.8341 128.847 75.228C128.847 55.6219 144.741 39.728 164.347 39.728C183.953 39.728 199.847 55.6219 199.847 75.228Z" stroke="black" stroke-width="5"/>
</g>
<g filter="url(#filter5_d_180_237)">
<path d="M93.5132 178.343C93.5132 199.33 76.5 216.343 55.5132 216.343C34.5264 216.343 17.5132 199.33 17.5132 178.343C17.5132 157.356 34.5264 140.343 55.5132 140.343C76.5 140.343 93.5132 157.356 93.5132 178.343Z" fill="#EEE7DB"/>
<path d="M91.0132 178.343C91.0132 197.949 75.1193 213.843 55.5132 213.843C35.9071 213.843 20.0132 197.949 20.0132 178.343C20.0132 158.737 35.9071 142.843 55.5132 142.843C75.1193 142.843 91.0132 158.737 91.0132 178.343Z" stroke="black" stroke-width="5"/>
</g>
<g clip-path="url(#clip0_180_237)">
<path d="M164.03 92.7757C163.848 92.7757 163.667 92.7261 163.507 92.6306L161.841 91.6078C161.593 91.4635 161.714 91.4125 161.796 91.3831C162.128 91.2626 162.195 91.2354 162.549 91.0268C162.586 91.0048 162.635 91.0126 162.673 91.0359L163.953 91.8235C163.999 91.8494 164.064 91.8494 164.107 91.8235L169.096 88.8364C169.143 88.8092 169.173 88.7535 169.173 88.6965V82.7249C169.173 82.6654 169.143 82.6122 169.095 82.5824L164.108 79.598C164.062 79.5695 164.001 79.5695 163.955 79.598L158.968 82.5824C158.92 82.6109 158.889 82.6666 158.889 82.7236V88.6952C158.889 88.7522 158.919 88.8066 158.967 88.8338L160.333 89.6525C161.075 90.0372 161.528 89.5838 161.528 89.1279V83.234C161.528 83.1498 161.592 83.085 161.673 83.085H162.305C162.384 83.085 162.449 83.1498 162.449 83.234V89.1305C162.449 90.1564 161.909 90.7458 160.971 90.7458C160.683 90.7458 160.455 90.7458 159.821 90.4219L158.512 89.6395C158.189 89.4452 157.989 89.0825 157.989 88.6952V82.7236C157.989 82.335 158.189 81.9723 158.512 81.7806L163.506 78.7922C163.822 78.607 164.242 78.607 164.555 78.7922L169.543 81.7819C169.866 81.9749 170.067 82.3363 170.067 82.7249V88.6965C170.067 89.0838 169.866 89.4452 169.543 89.6395L164.555 92.6279C164.396 92.7238 164.215 92.773 164.03 92.773" fill="#689F63"/>
<path d="M165.571 88.6609C163.388 88.6609 162.931 87.6215 162.931 86.7497C162.931 86.6668 162.995 86.6007 163.075 86.6007H163.72C163.791 86.6007 163.851 86.6545 163.862 86.7274C163.959 87.4085 164.249 87.752 165.569 87.752C166.621 87.752 167.068 87.5057 167.068 86.9273C167.068 86.5944 166.94 86.347 165.307 86.1812C163.941 86.0413 163.096 85.7291 163.096 84.5957C163.096 83.5516 163.946 82.9298 165.368 82.9298C166.965 82.9298 167.757 83.505 167.857 84.7407C167.861 84.7835 167.846 84.8249 167.818 84.856C167.791 84.8858 167.752 84.9039 167.712 84.9039H167.064C166.997 84.9039 166.938 84.8547 166.924 84.7874C166.768 84.071 166.391 83.8418 165.366 83.8418C164.218 83.8418 164.084 84.2563 164.084 84.5672C164.084 84.9441 164.242 85.0542 165.79 85.2666C167.324 85.4778 168.052 85.7757 168.052 86.8936C168.052 88.0206 167.145 88.6669 165.564 88.6669M171.641 82.334H171.808C171.946 82.334 171.972 82.2342 171.972 82.1759C171.972 82.0231 171.871 82.0231 171.815 82.0231H171.642L171.641 82.334ZM171.437 81.8443H171.808C171.936 81.8443 172.185 81.8443 172.185 82.1397C172.185 82.3456 172.058 82.3884 171.982 82.4143C172.131 82.4246 172.141 82.5257 172.16 82.6682C172.17 82.7575 172.187 82.9117 172.217 82.9635H171.988C171.982 82.9117 171.947 82.6267 171.947 82.6112C171.932 82.5477 171.911 82.5166 171.835 82.5166H171.646V82.9648H171.437V81.8443ZM170.992 82.4013C170.992 82.8651 171.352 83.2407 171.796 83.2407C172.243 83.2407 172.604 82.8573 172.604 82.4013C172.604 81.9363 172.238 81.5671 171.795 81.5671C171.357 81.5671 170.99 81.9311 170.99 82.4M172.759 82.4039C172.759 82.9531 172.325 83.4013 171.797 83.4013C171.273 83.4013 170.835 82.9583 170.835 82.4039C170.835 81.8391 171.283 81.4065 171.797 81.4065C172.315 81.4065 172.757 81.8404 172.757 82.4039" fill="#689F63"/>
<path fill-rule="evenodd" clip-rule="evenodd" d="M148.581 69.4101C148.581 69.1717 148.459 68.9528 148.261 68.8343L142.972 65.6775C142.882 65.6231 142.782 65.5946 142.681 65.5907H142.626C142.525 65.5946 142.425 65.6231 142.334 65.6775L137.045 68.8343C136.847 68.9534 136.725 69.1724 136.725 69.4107L136.736 77.9134C136.736 78.0313 136.795 78.1414 136.895 78.1997C136.992 78.2618 137.115 78.2618 137.212 78.1997L140.357 76.3318C140.555 76.2092 140.676 75.9926 140.676 75.7566V71.7844C140.676 71.5474 140.797 71.3285 140.995 71.2106L142.334 70.4108C142.434 70.3513 142.543 70.3217 142.654 70.3217C142.763 70.3217 142.875 70.351 142.972 70.4107L144.31 71.2102C144.508 71.3281 144.629 71.547 144.629 71.784V75.756C144.629 75.9917 144.752 76.2094 144.95 76.3311L148.092 78.1977C148.191 78.2586 148.314 78.2586 148.412 78.1977C148.509 78.1394 148.57 78.0293 148.57 77.9114L148.581 69.4101ZM173.541 73.837C173.541 73.8962 173.511 73.951 173.461 73.9803L171.644 75.0666C171.595 75.096 171.534 75.096 171.485 75.0666L169.668 73.9803C169.618 73.9509 169.588 73.8961 169.588 73.837V71.6614C169.588 71.602 169.618 71.5474 169.666 71.5176L171.482 70.4295C171.532 70.3997 171.593 70.3997 171.643 70.4295L173.46 71.5176C173.51 71.5474 173.54 71.602 173.54 71.6614L173.541 73.837ZM174.032 57.7226C173.933 57.6654 173.812 57.6669 173.714 57.7261C173.617 57.7857 173.557 57.8945 173.557 58.0124V66.4322C173.557 66.5151 173.514 66.5915 173.445 66.6329C173.376 66.6744 173.291 66.6744 173.221 66.6329L171.896 65.8414C171.699 65.723 171.456 65.723 171.258 65.8414L165.967 69.0089C165.769 69.1268 165.647 69.3457 165.647 69.5814V75.9183C165.647 76.1553 165.769 76.373 165.967 76.4921L171.258 79.6619C171.455 79.7797 171.699 79.7797 171.897 79.6619L177.188 76.4908C177.386 76.3717 177.508 76.154 177.508 75.917V60.1241C177.508 59.8836 177.382 59.6625 177.18 59.545L174.032 57.7226ZM191.652 71.6041C191.849 71.4857 191.97 71.2671 191.97 71.0313V69.4955C191.97 69.2593 191.849 69.0413 191.652 68.9224L186.394 65.7565C186.195 65.6373 185.952 65.6373 185.753 65.7565L180.463 68.9236C180.265 69.0428 180.144 69.2604 180.144 69.4975V75.8318C180.144 76.0701 180.267 76.2903 180.466 76.4082L185.722 79.5157C185.916 79.631 186.153 79.6323 186.349 79.5196L189.529 77.6867C189.629 77.6284 189.692 77.5183 189.692 77.3991C189.692 77.28 189.631 77.1686 189.531 77.1103L184.209 73.9418C184.109 73.8836 184.047 73.7734 184.047 73.6556V71.6685C184.047 71.5498 184.107 71.4405 184.207 71.3814L185.863 70.3905C185.962 70.3309 186.083 70.3309 186.182 70.3905L187.839 71.3814C187.938 71.4397 187.999 71.5498 187.999 71.6677V73.2299C187.999 73.3478 188.06 73.4579 188.159 73.5175C188.257 73.5758 188.38 73.5758 188.478 73.5162L191.652 71.6041Z" fill="#333333"/>
<path fill-rule="evenodd" clip-rule="evenodd" d="M185.996 71.3077C186.034 71.2848 186.081 71.2848 186.119 71.3077L187.134 71.9152C187.172 71.938 187.195 71.98 187.195 72.0253V73.2417C187.195 73.287 187.172 73.329 187.134 73.3518L186.119 73.9593C186.081 73.9822 186.034 73.9822 185.996 73.9593L184.982 73.3518C184.943 73.329 184.919 73.287 184.919 73.2417V72.0253C184.919 71.98 184.942 71.938 184.98 71.9152L185.996 71.3077Z" fill="#689F63"/>
<mask id="mask0_180_237" style="mask-type:luminance" maskUnits="userSpaceOnUse" x="151" y="65" width="13" height="15">
<path d="M156.797 65.7882L151.535 68.9381C151.338 69.0559 151.217 69.2736 151.217 69.5088V75.813C151.217 76.0484 151.338 76.2659 151.535 76.3838L156.797 79.5361C156.994 79.6536 157.236 79.6536 157.433 79.5361L162.694 76.3838C162.89 76.2659 163.011 76.0483 163.011 75.813V69.5088C163.011 69.2736 162.89 69.0559 162.692 68.9381L157.432 65.7882C157.334 65.7295 157.224 65.7001 157.114 65.7001C157.004 65.7001 156.894 65.7295 156.795 65.7882" fill="white"/>
</mask>
<g mask="url(#mask0_180_237)">
<path d="M168.328 68.4033L153.502 60.8656L145.9 76.9505L160.725 84.4886L168.328 68.4033Z" fill="url(#paint0_linear_180_237)"/>
</g>
<mask id="mask1_180_237" style="mask-type:luminance" maskUnits="userSpaceOnUse" x="151" y="65" width="12" height="15">
<path d="M151.348 76.2133C151.398 76.2811 151.461 76.3397 151.535 76.3838L156.048 79.0878L156.8 79.536C156.913 79.6034 157.041 79.6319 157.167 79.6222C157.208 79.6187 157.25 79.6105 157.291 79.5985L162.841 69.0595C162.798 69.0115 162.748 68.9714 162.693 68.9377L159.248 66.8742L157.427 65.7874C157.375 65.7563 157.319 65.7343 157.262 65.7188L151.348 76.2133Z" fill="white"/>
</mask>
<g mask="url(#mask1_180_237)">
<path d="M144.938 70.6326L155.406 85.3288L169.251 74.7191L158.782 60.0233L144.938 70.6326Z" fill="url(#paint1_linear_180_237)"/>
</g>
<mask id="mask2_180_237" style="mask-type:luminance" maskUnits="userSpaceOnUse" x="151" y="65" width="13" height="15">
<path d="M157.051 65.7036C156.963 65.7127 156.876 65.7412 156.797 65.7881L151.55 68.9289L157.208 79.6169C157.286 79.6052 157.364 79.578 157.434 79.5361L162.695 76.3837C162.857 76.286 162.968 76.1207 163.002 75.9334L157.235 65.7144C157.193 65.7057 157.15 65.7012 157.106 65.7012C157.089 65.7012 157.071 65.7021 157.054 65.7038" fill="white"/>
</mask>
<g mask="url(#mask2_180_237)">
<path d="M151.55 65.7012V79.6171H163V65.7012H151.55Z" fill="url(#paint2_linear_180_237)"/>
</g>
</g>
<path d="M285.606 344.605C284.305 344.605 283.35 344.323 282.742 343.757C282.134 343.192 281.83 342.344 281.83 341.213V336.797C281.83 335.667 282.134 334.819 282.742 334.253C283.35 333.688 284.305 333.405 285.606 333.405H289.43V334.605H285.606C284.827 334.605 284.257 334.787 283.894 335.149C283.531 335.501 283.35 336.051 283.35 336.797V338.397H288.646V339.613H283.35V341.213C283.35 341.96 283.531 342.515 283.894 342.877C284.257 343.229 284.827 343.405 285.606 343.405H289.494V344.605H285.606ZM295.623 344.605L293.703 341.773L291.847 344.605H290.407L292.967 340.685L290.535 337.085H291.959L293.799 339.789L295.575 337.085H297.015L294.551 340.893L297.063 344.605H295.623ZM302.21 336.909C302.914 336.909 303.511 337.08 304.002 337.421C304.503 337.752 304.877 338.2 305.122 338.765C305.367 339.32 305.49 339.928 305.49 340.589V341.101C305.49 341.763 305.367 342.376 305.122 342.941C304.877 343.496 304.503 343.944 304.002 344.285C303.511 344.616 302.914 344.781 302.21 344.781C301.57 344.781 301.058 344.68 300.674 344.477C300.301 344.264 299.997 343.981 299.762 343.629V348.109H298.354V338.765C298.354 338.541 298.311 338.36 298.226 338.221C298.141 338.072 297.986 337.912 297.762 337.741L298.69 336.909C298.999 337.08 299.229 337.261 299.378 337.453C299.538 337.645 299.639 337.885 299.682 338.173C300.237 337.331 301.079 336.909 302.21 336.909ZM304.082 340.589C304.082 339.832 303.879 339.213 303.474 338.733C303.079 338.253 302.546 338.013 301.874 338.013C300.786 338.013 300.082 338.541 299.762 339.597V342.093C300.082 343.149 300.786 343.677 301.874 343.677C302.546 343.677 303.079 343.437 303.474 342.957C303.879 342.477 304.082 341.859 304.082 341.101V340.589ZM310.707 336.909C311.166 336.909 311.55 337.021 311.859 337.245L311.507 338.477C311.145 338.264 310.761 338.157 310.355 338.157C309.875 338.157 309.465 338.36 309.123 338.765C308.782 339.171 308.531 339.715 308.371 340.397V344.605H306.963V338.765C306.963 338.541 306.921 338.36 306.835 338.221C306.75 338.072 306.595 337.912 306.371 337.741L307.315 336.909C307.689 337.112 307.95 337.336 308.099 337.581C308.259 337.816 308.35 338.147 308.371 338.573C308.606 338.051 308.921 337.645 309.315 337.357C309.71 337.059 310.174 336.909 310.707 336.909ZM315.954 343.693C316.391 343.693 316.765 343.629 317.074 343.501C317.394 343.373 317.703 343.165 318.002 342.877L318.866 343.661C318.546 344.045 318.146 344.328 317.666 344.509C317.197 344.691 316.615 344.781 315.922 344.781C314.823 344.781 313.991 344.547 313.426 344.077C312.871 343.597 312.594 342.888 312.594 341.949V339.565C312.594 338.744 312.877 338.099 313.442 337.629C314.018 337.149 314.802 336.909 315.794 336.909C316.818 336.909 317.607 337.16 318.162 337.661C318.727 338.163 319.01 338.883 319.01 339.821C319.01 340.451 318.898 340.883 318.674 341.117C318.461 341.352 318.045 341.469 317.426 341.469H314.002V341.965C314.002 342.541 314.162 342.973 314.482 343.261C314.802 343.549 315.293 343.693 315.954 343.693ZM315.794 337.997C315.229 337.997 314.786 338.147 314.466 338.445C314.157 338.744 314.002 339.149 314.002 339.661V340.461H316.738C317.069 340.461 317.293 340.408 317.41 340.301C317.538 340.195 317.602 339.992 317.602 339.693C317.602 339.16 317.442 338.744 317.122 338.445C316.802 338.147 316.359 337.997 315.794 337.997ZM323.358 344.781C322.654 344.781 322.084 344.68 321.646 344.477C321.22 344.264 320.825 343.923 320.462 343.453L321.358 342.685C321.668 343.048 321.966 343.304 322.254 343.453C322.553 343.603 322.921 343.677 323.358 343.677C324.521 343.677 325.102 343.309 325.102 342.573C325.102 342.339 325.038 342.152 324.91 342.013C324.793 341.864 324.58 341.741 324.27 341.645C323.972 341.539 323.518 341.432 322.91 341.325C322.164 341.176 321.604 340.92 321.23 340.557C320.857 340.184 320.67 339.693 320.67 339.085C320.67 338.403 320.921 337.869 321.422 337.485C321.924 337.101 322.612 336.909 323.486 336.909C324.777 336.909 325.684 337.32 326.206 338.141L325.31 338.893C325.054 338.584 324.782 338.36 324.494 338.221C324.217 338.083 323.881 338.013 323.486 338.013C323.017 338.013 322.654 338.109 322.398 338.301C322.142 338.493 322.014 338.76 322.014 339.101C322.014 339.411 322.137 339.651 322.382 339.821C322.628 339.981 323.017 340.115 323.55 340.221C324.254 340.381 324.809 340.552 325.214 340.733C325.62 340.904 325.924 341.139 326.126 341.437C326.329 341.725 326.43 342.109 326.43 342.589C326.43 344.051 325.406 344.781 323.358 344.781ZM330.608 344.781C329.904 344.781 329.334 344.68 328.896 344.477C328.47 344.264 328.075 343.923 327.712 343.453L328.608 342.685C328.918 343.048 329.216 343.304 329.504 343.453C329.803 343.603 330.171 343.677 330.608 343.677C331.771 343.677 332.352 343.309 332.352 342.573C332.352 342.339 332.288 342.152 332.16 342.013C332.043 341.864 331.83 341.741 331.52 341.645C331.222 341.539 330.768 341.432 330.16 341.325C329.414 341.176 328.854 340.92 328.48 340.557C328.107 340.184 327.92 339.693 327.92 339.085C327.92 338.403 328.171 337.869 328.672 337.485C329.174 337.101 329.862 336.909 330.736 336.909C332.027 336.909 332.934 337.32 333.456 338.141L332.56 338.893C332.304 338.584 332.032 338.36 331.744 338.221C331.467 338.083 331.131 338.013 330.736 338.013C330.267 338.013 329.904 338.109 329.648 338.301C329.392 338.493 329.264 338.76 329.264 339.101C329.264 339.411 329.387 339.651 329.632 339.821C329.878 339.981 330.267 340.115 330.8 340.221C331.504 340.381 332.059 340.552 332.464 340.733C332.87 340.904 333.174 341.139 333.376 341.437C333.579 341.725 333.68 342.109 333.68 342.589C333.68 344.051 332.656 344.781 330.608 344.781ZM336.134 344.781C335.868 344.781 335.644 344.691 335.462 344.509C335.281 344.328 335.19 344.104 335.19 343.837C335.19 343.571 335.281 343.347 335.462 343.165C335.644 342.973 335.868 342.877 336.134 342.877C336.401 342.877 336.625 342.973 336.806 343.165C336.988 343.347 337.078 343.571 337.078 343.837C337.078 344.104 336.988 344.328 336.806 344.509C336.625 344.691 336.401 344.781 336.134 344.781ZM339.657 335.613C339.411 335.613 339.198 335.528 339.017 335.357C338.846 335.176 338.761 334.963 338.761 334.717C338.761 334.472 338.851 334.264 339.033 334.093C339.214 333.912 339.422 333.821 339.657 333.821C339.902 333.821 340.11 333.912 340.281 334.093C340.462 334.264 340.553 334.472 340.553 334.717C340.553 334.963 340.462 335.176 340.281 335.357C340.11 335.528 339.902 335.613 339.657 335.613ZM336.473 347.149H337.257C337.843 347.149 338.27 347 338.537 346.701C338.814 346.413 338.953 345.955 338.953 345.325V337.085H340.361V345.325C340.361 346.36 340.115 347.107 339.625 347.565C339.145 348.024 338.355 348.253 337.257 348.253H336.473V347.149ZM344.968 344.781C344.264 344.781 343.693 344.68 343.256 344.477C342.829 344.264 342.435 343.923 342.072 343.453L342.968 342.685C343.277 343.048 343.576 343.304 343.864 343.453C344.163 343.603 344.531 343.677 344.968 343.677C346.131 343.677 346.712 343.309 346.712 342.573C346.712 342.339 346.648 342.152 346.52 342.013C346.403 341.864 346.189 341.741 345.88 341.645C345.581 341.539 345.128 341.432 344.52 341.325C343.773 341.176 343.213 340.92 342.84 340.557C342.467 340.184 342.28 339.693 342.28 339.085C342.28 338.403 342.531 337.869 343.032 337.485C343.533 337.101 344.221 336.909 345.096 336.909C346.387 336.909 347.293 337.32 347.816 338.141L346.92 338.893C346.664 338.584 346.392 338.36 346.104 338.221C345.827 338.083 345.491 338.013 345.096 338.013C344.627 338.013 344.264 338.109 344.008 338.301C343.752 338.493 343.624 338.76 343.624 339.101C343.624 339.411 343.747 339.651 343.992 339.821C344.237 339.981 344.627 340.115 345.16 340.221C345.864 340.381 346.419 340.552 346.824 340.733C347.229 340.904 347.533 341.139 347.736 341.437C347.939 341.725 348.04 342.109 348.04 342.589C348.04 344.051 347.016 344.781 344.968 344.781Z" fill="black"/>
<path d="M149.01 12.8225V22.0385C149.01 22.6998 148.871 23.1958 148.594 23.5265C148.327 23.8571 147.901 24.0225 147.314 24.0225H146.242L141.634 15.1585V24.0225H140.194V12.8225H141.954L147.026 22.7105H147.122C147.293 22.7105 147.41 22.6465 147.474 22.5185C147.538 22.3905 147.57 22.1558 147.57 21.8145V12.8225H149.01ZM154.445 24.1985C153.399 24.1985 152.589 23.9478 152.013 23.4465C151.447 22.9345 151.165 22.2145 151.165 21.2865V19.2385C151.165 18.3105 151.447 17.5958 152.013 17.0945C152.589 16.5825 153.399 16.3265 154.445 16.3265C155.49 16.3265 156.295 16.5825 156.861 17.0945C157.426 17.5958 157.709 18.3105 157.709 19.2385V21.2865C157.709 22.2145 157.426 22.9345 156.861 23.4465C156.295 23.9478 155.49 24.1985 154.445 24.1985ZM154.445 23.0945C155.031 23.0945 155.485 22.9398 155.805 22.6305C156.135 22.3105 156.301 21.8625 156.301 21.2865V19.2385C156.301 18.6625 156.135 18.2198 155.805 17.9105C155.485 17.5905 155.031 17.4305 154.445 17.4305C153.847 17.4305 153.383 17.5905 153.053 17.9105C152.733 18.2198 152.573 18.6625 152.573 19.2385V21.2865C152.573 21.8625 152.733 22.3105 153.053 22.6305C153.383 22.9398 153.847 23.0945 154.445 23.0945ZM166.518 22.3425C166.518 22.5665 166.56 22.7531 166.646 22.9025C166.731 23.0411 166.886 23.1958 167.11 23.3665L166.166 24.1985C165.664 23.9318 165.339 23.5051 165.19 22.9185C164.656 23.7718 163.819 24.1985 162.678 24.1985C162.016 24.1985 161.435 24.0491 160.934 23.7505C160.443 23.4411 160.059 23.0091 159.782 22.4545C159.515 21.8998 159.382 21.2545 159.382 20.5185V20.0065C159.382 19.2918 159.51 18.6571 159.766 18.1025C160.032 17.5478 160.411 17.1158 160.902 16.8065C161.403 16.4865 161.995 16.3265 162.678 16.3265C163.766 16.3265 164.576 16.6998 165.11 17.4465V14.1665C165.11 13.9425 165.067 13.7611 164.982 13.6225C164.907 13.4838 164.752 13.3185 164.518 13.1265L165.478 12.2945C165.872 12.5078 166.144 12.7531 166.294 13.0305C166.443 13.2971 166.518 13.6758 166.518 14.1665V22.3425ZM165.11 19.0145C164.939 18.4811 164.678 18.0865 164.326 17.8305C163.984 17.5638 163.542 17.4305 162.998 17.4305C162.326 17.4305 161.787 17.6705 161.382 18.1505C160.987 18.6305 160.79 19.2491 160.79 20.0065V20.5185C160.79 21.2758 160.987 21.8945 161.382 22.3745C161.776 22.8545 162.315 23.0945 162.998 23.0945C163.542 23.0945 163.984 22.9665 164.326 22.7105C164.678 22.4438 164.939 22.0438 165.11 21.5105V19.0145ZM171.915 23.1105C172.353 23.1105 172.726 23.0465 173.035 22.9185C173.355 22.7905 173.665 22.5825 173.963 22.2945L174.827 23.0785C174.507 23.4625 174.107 23.7451 173.627 23.9265C173.158 24.1078 172.577 24.1985 171.883 24.1985C170.785 24.1985 169.953 23.9638 169.387 23.4945C168.833 23.0145 168.555 22.3051 168.555 21.3665V18.9825C168.555 18.1611 168.838 17.5158 169.403 17.0465C169.979 16.5665 170.763 16.3265 171.755 16.3265C172.779 16.3265 173.569 16.5771 174.123 17.0785C174.689 17.5798 174.971 18.2998 174.971 19.2385C174.971 19.8678 174.859 20.2998 174.635 20.5345C174.422 20.7691 174.006 20.8865 173.387 20.8865H169.963V21.3825C169.963 21.9585 170.123 22.3905 170.443 22.6785C170.763 22.9665 171.254 23.1105 171.915 23.1105ZM171.755 17.4145C171.19 17.4145 170.747 17.5638 170.427 17.8625C170.118 18.1611 169.963 18.5665 169.963 19.0785V19.8785H172.699C173.03 19.8785 173.254 19.8251 173.371 19.7185C173.499 19.6118 173.563 19.4091 173.563 19.1105C173.563 18.5771 173.403 18.1611 173.083 17.8625C172.763 17.5638 172.321 17.4145 171.755 17.4145ZM177.393 24.1985C177.126 24.1985 176.902 24.1078 176.721 23.9265C176.539 23.7451 176.449 23.5211 176.449 23.2545C176.449 22.9878 176.539 22.7638 176.721 22.5825C176.902 22.3905 177.126 22.2945 177.393 22.2945C177.659 22.2945 177.883 22.3905 178.065 22.5825C178.246 22.7638 178.337 22.9878 178.337 23.2545C178.337 23.5211 178.246 23.7451 178.065 23.9265C177.883 24.1078 177.659 24.1985 177.393 24.1985ZM180.915 15.0305C180.67 15.0305 180.456 14.9451 180.275 14.7745C180.104 14.5931 180.019 14.3798 180.019 14.1345C180.019 13.8891 180.11 13.6811 180.291 13.5105C180.472 13.3291 180.68 13.2385 180.915 13.2385C181.16 13.2385 181.368 13.3291 181.539 13.5105C181.72 13.6811 181.811 13.8891 181.811 14.1345C181.811 14.3798 181.72 14.5931 181.539 14.7745C181.368 14.9451 181.16 15.0305 180.915 15.0305ZM177.731 26.5665H178.515C179.102 26.5665 179.528 26.4171 179.795 26.1185C180.072 25.8305 180.211 25.3718 180.211 24.7425V16.5025H181.619V24.7425C181.619 25.7771 181.374 26.5238 180.883 26.9825C180.403 27.4411 179.614 27.6705 178.515 27.6705H177.731V26.5665ZM186.226 24.1985C185.522 24.1985 184.951 24.0971 184.514 23.8945C184.087 23.6811 183.693 23.3398 183.33 22.8705L184.226 22.1025C184.535 22.4651 184.834 22.7211 185.122 22.8705C185.421 23.0198 185.789 23.0945 186.226 23.0945C187.389 23.0945 187.97 22.7265 187.97 21.9905C187.97 21.7558 187.906 21.5691 187.778 21.4305C187.661 21.2811 187.447 21.1585 187.138 21.0625C186.839 20.9558 186.386 20.8491 185.778 20.7425C185.031 20.5931 184.471 20.3371 184.098 19.9745C183.725 19.6011 183.538 19.1105 183.538 18.5025C183.538 17.8198 183.789 17.2865 184.29 16.9025C184.791 16.5185 185.479 16.3265 186.354 16.3265C187.645 16.3265 188.551 16.7371 189.074 17.5585L188.178 18.3105C187.922 18.0011 187.65 17.7771 187.362 17.6385C187.085 17.4998 186.749 17.4305 186.354 17.4305C185.885 17.4305 185.522 17.5265 185.266 17.7185C185.01 17.9105 184.882 18.1771 184.882 18.5185C184.882 18.8278 185.005 19.0678 185.25 19.2385C185.495 19.3985 185.885 19.5318 186.418 19.6385C187.122 19.7985 187.677 19.9691 188.082 20.1505C188.487 20.3211 188.791 20.5558 188.994 20.8545C189.197 21.1425 189.298 21.5265 189.298 22.0065C189.298 23.4678 188.274 24.1985 186.226 24.1985Z" fill="black"/>
<path d="M297.698 298.266C296.568 298.564 295.869 298.279 295.242 297.303L290.782 290.903L290.137 290.016L284.929 297.324C284.334 298.203 283.71 298.585 282.599 298.274L289.269 288.988L283.059 280.601C284.127 280.385 284.865 280.495 285.52 281.487L290.146 287.966L294.806 281.522C295.403 280.643 296.045 280.309 297.116 280.633L294.709 283.944L291.447 288.349C291.059 288.852 291.112 289.197 291.469 289.683L297.698 298.266ZM266.641 288.833L267.186 286.05C268.671 280.542 274.758 278.253 278.956 281.657C281.409 283.659 282.019 286.49 281.897 289.662H268.07C267.862 295.371 271.824 298.817 276.875 297.059C278.646 296.442 279.69 295.003 280.212 293.202C280.477 292.3 280.916 292.159 281.733 292.417C281.316 294.668 280.374 296.549 278.384 297.727C275.411 299.489 271.166 298.919 268.934 296.47C267.604 295.049 267.054 293.249 266.808 291.323C266.769 291.005 266.691 290.702 266.633 290.397C266.638 289.876 266.641 289.354 266.641 288.833ZM268.095 288.451H280.591C280.509 284.322 278.031 281.39 274.644 281.365C270.926 281.335 268.256 284.197 268.095 288.451Z" fill="black"/>
<g clip-path="url(#clip1_180_237)">
<path d="M94.1121 311.118C93.3183 307.557 91.6636 306.609 91.2416 305.939C91.0675 305.644 90.9133 305.337 90.7801 305.02C90.7578 305.337 90.7168 305.536 90.4523 305.776C89.9214 306.257 87.6663 308.126 87.4765 312.172C87.2997 315.945 90.204 318.272 90.5877 318.512C90.8827 318.66 91.2421 318.515 91.4173 318.38C92.8174 317.403 94.7302 314.798 94.1137 311.118" fill="#10AA50"/>
<path d="M90.9005 316.503C90.8274 317.437 90.775 317.98 90.5894 318.513C90.5894 318.513 90.7112 319.402 90.7968 320.344H91.0996C91.1718 319.681 91.2821 319.023 91.4299 318.372C91.0379 318.176 90.9155 317.323 90.9005 316.503Z" fill="#B8C4C2"/>
<path d="M91.4293 318.373C91.0332 318.187 90.9186 317.315 90.901 316.503C90.9989 315.164 91.0275 313.82 90.9865 312.477C90.9658 311.773 90.9964 305.952 90.8159 305.1C90.9394 305.389 91.0816 305.669 91.2416 305.938C91.6637 306.609 93.3189 307.557 94.1122 311.118C94.7303 314.792 92.8278 317.389 91.4293 318.373Z" fill="#12924F"/>
<path d="M143.646 317.085C143.476 317.085 143.31 317.034 143.169 316.939C143.028 316.843 142.917 316.707 142.852 316.548C142.787 316.389 142.769 316.214 142.801 316.044C142.833 315.875 142.914 315.719 143.033 315.596C143.152 315.473 143.304 315.389 143.471 315.354C143.637 315.319 143.809 315.334 143.967 315.399C144.124 315.463 144.259 315.573 144.355 315.716C144.451 315.858 144.503 316.026 144.506 316.198C144.509 316.315 144.489 316.43 144.447 316.539C144.405 316.647 144.342 316.745 144.261 316.828C144.181 316.911 144.085 316.976 143.979 317.021C143.873 317.065 143.76 317.087 143.646 317.085ZM143.646 315.415C143.491 315.414 143.339 315.46 143.209 315.546C143.08 315.633 142.979 315.757 142.919 315.902C142.859 316.047 142.842 316.208 142.872 316.362C142.901 316.517 142.975 316.659 143.084 316.771C143.193 316.883 143.333 316.96 143.484 316.991C143.636 317.023 143.794 317.007 143.937 316.948C144.081 316.888 144.204 316.786 144.29 316.655C144.377 316.525 144.423 316.371 144.423 316.213C144.425 316.108 144.407 316.004 144.368 315.907C144.33 315.81 144.273 315.721 144.2 315.647C144.128 315.572 144.041 315.513 143.946 315.474C143.851 315.434 143.749 315.414 143.646 315.415ZM143.853 316.764L143.631 316.277H143.452V316.764H143.322V315.656H143.643C143.882 315.656 143.982 315.762 143.982 315.966C143.982 316.128 143.906 316.229 143.766 316.261L143.996 316.762L143.853 316.764ZM143.457 316.162H143.646C143.798 316.162 143.856 316.11 143.856 315.968C143.856 315.827 143.801 315.779 143.629 315.779H143.457V316.162Z" fill="#21313C"/>
<path d="M130.843 316.288C131.075 316.477 131.54 316.555 131.951 316.555C132.482 316.555 133.003 316.455 133.512 315.987C134.031 315.508 134.388 314.775 134.388 313.604C134.388 312.478 133.967 311.565 133.103 311.03C132.615 310.719 131.984 310.596 131.264 310.596C131.056 310.596 130.843 310.607 130.721 310.663C130.671 310.703 130.636 310.758 130.621 310.821C130.599 311.021 130.599 312.547 130.599 313.45C130.599 314.374 130.599 315.664 130.621 315.822C130.633 315.956 130.699 316.192 130.843 316.29M128.632 310.095C128.82 310.095 129.535 310.128 129.868 310.128C130.49 310.128 130.92 310.095 132.083 310.095C133.058 310.095 133.879 310.362 134.465 310.874C135.174 311.499 135.554 312.367 135.554 313.425C135.554 314.929 134.88 315.798 134.202 316.288C133.528 316.801 132.651 317.09 131.402 317.09C130.737 317.09 129.596 317.068 128.643 317.057H128.624C128.579 316.968 128.705 316.62 128.783 316.611C129.042 316.582 129.111 316.571 129.23 316.521C129.431 316.437 129.478 316.333 129.501 315.965C129.534 315.275 129.523 314.45 129.523 313.514C129.523 312.846 129.534 311.543 129.512 311.131C129.478 310.786 129.335 310.697 129.045 310.63C128.84 310.585 128.632 310.552 128.423 310.529C128.401 310.462 128.571 310.16 128.627 310.095" fill="#21313C"/>
<path d="M138.299 310.66C138.255 310.671 138.2 310.783 138.2 310.838C138.189 311.24 138.178 312.286 138.178 313.01C138.18 313.024 138.187 313.037 138.197 313.047C138.207 313.057 138.219 313.064 138.233 313.066C138.377 313.077 138.731 313.089 139.031 313.089C139.452 313.089 139.695 313.033 139.828 312.966C140.183 312.788 140.347 312.398 140.347 311.975C140.347 311.006 139.682 310.638 138.696 310.638C138.563 310.636 138.43 310.644 138.297 310.66M140.812 315.116C140.812 314.136 140.103 313.579 138.807 313.579C138.752 313.579 138.34 313.568 138.242 313.59C138.209 313.601 138.176 313.623 138.176 313.646C138.176 314.348 138.164 315.472 138.198 315.918C138.22 316.107 138.353 316.375 138.519 316.453C138.696 316.553 139.095 316.575 139.372 316.575C140.136 316.575 140.812 316.141 140.812 315.116ZM136.298 310.115C136.398 310.115 136.693 310.148 137.446 310.148C138.155 310.148 138.731 310.126 139.416 310.126C140.269 310.126 141.443 310.438 141.443 311.73C141.443 312.362 141.001 312.877 140.424 313.122C140.391 313.133 140.391 313.155 140.424 313.166C141.244 313.377 141.964 313.89 141.964 314.871C141.964 315.829 141.377 316.43 140.524 316.809C140.005 317.043 139.361 317.121 138.709 317.121C138.211 317.121 136.875 317.068 136.133 317.076C136.055 317.043 136.204 316.686 136.27 316.631C136.44 316.625 136.609 316.599 136.772 316.551C137.038 316.484 137.07 316.397 137.103 315.996C137.125 315.651 137.125 314.414 137.125 313.534C137.125 312.331 137.136 311.518 137.125 311.117C137.114 310.805 137.003 310.705 136.793 310.649C136.627 310.615 136.35 310.582 136.128 310.549C136.073 310.493 136.244 310.159 136.298 310.115" fill="#21313C"/>
<path d="M96.5655 317.085C96.5369 317.014 96.5254 316.937 96.5318 316.86C96.5293 316.808 96.5409 316.756 96.5655 316.71C96.7087 316.689 96.8507 316.659 96.9907 316.622C97.1867 316.572 97.2603 316.464 97.2717 316.209C97.3039 315.609 97.3059 314.482 97.2945 313.69V313.667C97.2945 313.581 97.2945 313.465 97.1908 313.384C97.0085 313.267 96.8107 313.179 96.6033 313.12C96.5105 313.092 96.4592 313.043 96.4618 312.985C96.4644 312.927 96.5229 312.858 96.6438 312.834C96.9647 312.8 97.8058 312.596 98.1361 312.441C98.1701 312.486 98.1859 312.543 98.1802 312.6C98.1802 312.634 98.175 312.671 98.1714 312.709C98.162 312.821 98.1517 312.948 98.1517 313.075C98.1537 313.09 98.1599 313.105 98.1696 313.117C98.1793 313.129 98.1921 313.137 98.2065 313.142C98.221 313.147 98.2365 313.148 98.2513 313.145C98.2662 313.141 98.2798 313.134 98.2906 313.123C98.9196 312.621 99.4832 312.442 99.7721 312.442C100.248 312.442 100.618 312.673 100.905 313.149C100.911 313.161 100.92 313.17 100.932 313.177C100.943 313.184 100.956 313.187 100.969 313.188C100.981 313.187 100.992 313.184 101.003 313.179C101.013 313.173 101.022 313.165 101.029 313.155C101.607 312.709 102.18 312.442 102.564 312.442C103.47 312.442 104.012 313.133 104.012 314.288C104.012 314.62 104.009 315.041 104.006 315.434C104.003 315.779 104.001 316.102 104.001 316.326C104.001 316.379 104.072 316.531 104.18 316.561C104.312 316.627 104.504 316.66 104.746 316.702H104.755C104.773 316.769 104.735 317.027 104.698 317.079C104.638 317.079 104.555 317.074 104.451 317.069C104.263 317.059 104.005 317.046 103.705 317.046C103.102 317.046 102.787 317.058 102.487 317.078C102.464 317.001 102.456 316.755 102.483 316.703C102.608 316.683 102.731 316.656 102.853 316.621C103.045 316.557 103.1 316.468 103.112 316.209C103.117 316.025 103.151 314.404 103.09 314.019C103.033 313.62 102.737 313.153 102.09 313.153C101.85 313.153 101.463 313.254 101.094 313.539C101.071 313.566 101.058 313.599 101.058 313.635V313.643C101.101 313.85 101.101 314.093 101.101 314.459C101.101 314.67 101.101 314.89 101.098 315.11C101.096 315.557 101.094 315.979 101.101 316.298C101.101 316.515 101.23 316.567 101.334 316.609C101.391 316.622 101.436 316.633 101.481 316.643C101.567 316.665 101.657 316.687 101.792 316.709C101.812 316.801 101.81 316.898 101.787 316.989C101.781 317.024 101.768 317.056 101.748 317.085C101.413 317.073 101.069 317.063 100.573 317.063C100.422 317.063 100.177 317.069 99.9603 317.075C99.7845 317.08 99.6186 317.085 99.5242 317.085C99.4987 317.024 99.4873 316.958 99.491 316.891C99.4857 316.829 99.4978 316.766 99.5258 316.71L99.659 316.685C99.7752 316.664 99.8758 316.646 99.9701 316.622C100.134 316.569 100.196 316.478 100.208 316.266C100.24 315.77 100.265 314.342 100.196 313.984C100.079 313.411 99.7575 313.12 99.2411 313.12C98.9388 313.12 98.5566 313.268 98.2445 313.505C98.2144 313.535 98.1908 313.571 98.175 313.61C98.1592 313.65 98.1516 313.692 98.1527 313.735C98.1527 313.905 98.1527 314.108 98.1527 314.325C98.1527 315.042 98.148 315.935 98.1651 316.321C98.1755 316.44 98.217 316.581 98.4363 316.633C98.4846 316.647 98.5675 316.661 98.664 316.677C98.7194 316.687 98.7801 316.697 98.8429 316.708C98.8628 316.835 98.8527 316.964 98.8133 317.085C98.7169 317.085 98.5981 317.079 98.4623 317.073C98.2548 317.064 97.9956 317.052 97.7026 317.052C97.3562 317.052 97.1151 317.064 96.9217 317.073C96.7915 317.079 96.679 317.085 96.5665 317.085" fill="#21313C"/>
<path d="M107.685 312.919C107.498 312.915 107.314 312.968 107.156 313.071C106.772 313.308 106.576 313.783 106.576 314.482C106.576 315.788 107.219 316.701 108.141 316.701C108.388 316.709 108.629 316.622 108.816 316.458C109.099 316.223 109.249 315.743 109.249 315.072C109.249 313.784 108.62 312.919 107.684 312.919M107.862 317.186C106.197 317.186 105.604 315.944 105.604 314.782C105.604 313.971 105.931 313.336 106.574 312.896C107.025 312.612 107.542 312.457 108.072 312.446C109.342 312.446 110.229 313.374 110.229 314.705C110.229 315.608 109.875 316.322 109.205 316.768C108.883 316.969 108.323 317.186 107.862 317.186Z" fill="#21313C"/>
<path d="M124.631 312.919C124.443 312.915 124.259 312.968 124.101 313.071C123.716 313.308 123.52 313.783 123.52 314.482C123.52 315.788 124.164 316.701 125.085 316.701C125.333 316.709 125.575 316.623 125.762 316.458C126.045 316.223 126.195 315.743 126.195 315.072C126.195 313.784 125.567 312.919 124.631 312.919ZM124.808 317.186C123.144 317.186 122.551 315.944 122.551 314.783C122.551 313.97 122.877 313.336 123.521 312.896C123.972 312.612 124.489 312.457 125.019 312.446C126.289 312.446 127.176 313.375 127.176 314.704C127.176 315.609 126.822 316.322 126.151 316.768C125.829 316.969 125.27 317.186 124.808 317.186Z" fill="#21313C"/>
<path d="M119.027 312.875C118.514 312.875 118.182 313.287 118.182 313.924C118.182 314.562 118.468 315.319 119.271 315.319C119.409 315.319 119.659 315.257 119.783 315.118C119.969 314.944 120.094 314.583 120.094 314.203C120.094 313.371 119.696 312.875 119.029 312.875M118.963 317.275C118.818 317.273 118.675 317.309 118.548 317.38C118.142 317.644 117.954 317.907 117.954 318.214C117.954 318.501 118.063 318.729 118.299 318.931C118.584 319.177 118.969 319.297 119.474 319.297C120.469 319.297 120.915 318.753 120.915 318.214C120.915 317.838 120.73 317.587 120.349 317.444C120.055 317.335 119.565 317.275 118.964 317.275M119.031 319.859C118.433 319.859 118.003 319.731 117.635 319.443C117.278 319.162 117.117 318.746 117.117 318.458C117.121 318.272 117.19 318.094 117.313 317.957C117.417 317.837 117.658 317.612 118.215 317.222C118.224 317.218 118.231 317.212 118.236 317.204C118.242 317.196 118.244 317.187 118.244 317.177C118.244 317.166 118.241 317.156 118.235 317.148C118.228 317.139 118.219 317.133 118.209 317.131C117.75 316.952 117.612 316.656 117.57 316.498C117.57 316.492 117.57 316.483 117.565 316.473C117.552 316.411 117.54 316.352 117.623 316.291C117.687 316.245 117.79 316.183 117.9 316.117C118.055 316.029 118.204 315.931 118.345 315.822C118.353 315.814 118.359 315.804 118.362 315.793C118.365 315.782 118.366 315.77 118.364 315.759C118.362 315.748 118.358 315.737 118.351 315.728C118.345 315.719 118.336 315.711 118.327 315.706C117.647 315.474 117.305 314.961 117.305 314.177C117.303 313.932 117.359 313.691 117.468 313.473C117.577 313.255 117.737 313.067 117.933 312.925C118.206 312.706 118.892 312.441 119.336 312.441H119.362C119.819 312.452 120.077 312.55 120.433 312.684C120.636 312.759 120.851 312.793 121.067 312.786C121.445 312.786 121.611 312.664 121.753 312.523C121.776 312.586 121.788 312.654 121.789 312.722C121.798 312.884 121.754 313.045 121.665 313.18C121.588 313.289 121.406 313.368 121.24 313.368C121.223 313.368 121.206 313.368 121.188 313.365C121.1 313.359 121.014 313.344 120.929 313.321L120.886 313.337C120.873 313.357 120.881 313.379 120.892 313.407C120.895 313.413 120.897 313.419 120.899 313.425C120.929 313.566 120.95 313.708 120.96 313.852C120.96 314.672 120.642 315.029 120.299 315.294C119.966 315.547 119.572 315.703 119.158 315.743C119.149 315.743 119.106 315.746 119.025 315.754C118.973 315.759 118.906 315.765 118.896 315.765H118.886C118.812 315.786 118.617 315.88 118.617 316.056C118.617 316.202 118.705 316.382 119.126 316.415L119.399 316.435C119.955 316.474 120.649 316.523 120.976 316.636C121.193 316.713 121.38 316.858 121.511 317.05C121.642 317.242 121.71 317.471 121.705 317.704C121.705 318.44 121.191 319.132 120.33 319.555C119.924 319.752 119.479 319.853 119.029 319.851" fill="#21313C"/>
<path d="M116.483 316.693C116.239 316.66 116.061 316.626 115.851 316.526C115.81 316.482 115.783 316.427 115.773 316.368C115.751 316.022 115.751 315.02 115.751 314.364C115.751 313.829 115.663 313.362 115.44 313.027C115.174 312.648 114.798 312.426 114.31 312.426C113.878 312.426 113.302 312.726 112.826 313.138C112.815 313.15 112.742 313.22 112.743 313.11C112.745 313.001 112.761 312.778 112.772 312.636C112.776 312.598 112.772 312.56 112.76 312.524C112.747 312.488 112.726 312.456 112.699 312.429C112.388 312.587 111.515 312.798 111.192 312.83C110.957 312.877 110.897 313.107 111.149 313.187H111.152C111.354 313.243 111.546 313.329 111.723 313.442C111.822 313.52 111.811 313.631 111.811 313.721C111.822 314.467 111.822 315.614 111.789 316.238C111.778 316.483 111.711 316.572 111.534 316.617L111.551 316.611C111.415 316.646 111.279 316.672 111.14 316.689C111.085 316.745 111.085 317.068 111.14 317.135C111.251 317.135 111.814 317.102 112.281 317.102C112.923 317.102 113.255 317.135 113.422 317.135C113.489 317.057 113.511 316.756 113.467 316.689C113.313 316.682 113.161 316.66 113.012 316.622C112.835 316.578 112.79 316.488 112.779 316.289C112.758 315.764 112.758 314.651 112.758 313.893C112.758 313.682 112.813 313.581 112.879 313.524C113.1 313.324 113.467 313.19 113.787 313.19C114.099 313.19 114.306 313.29 114.462 313.424C114.643 313.584 114.756 313.81 114.779 314.053C114.823 314.475 114.812 315.324 114.812 316.057C114.812 316.458 114.779 316.559 114.635 316.603C114.568 316.637 114.391 316.67 114.181 316.692C114.114 316.759 114.136 317.071 114.181 317.138C114.468 317.138 114.803 317.105 115.288 317.105C115.897 317.105 116.285 317.138 116.44 317.138C116.507 317.06 116.529 316.769 116.485 316.692" fill="#21313C"/>
</g>
<g clip-path="url(#clip2_180_237)">
<path d="M269.804 152.206H271.643V144.943L274.49 151.275C274.826 152.041 275.286 152.312 276.188 152.312C277.09 152.312 277.532 152.041 277.868 151.275L280.715 144.943V152.206H282.555V144.955C282.555 144.248 282.272 143.906 281.688 143.729C280.291 143.293 279.354 143.67 278.929 144.613L276.135 150.862L273.429 144.613C273.022 143.67 272.067 143.293 270.67 143.729C270.087 143.906 269.804 144.248 269.804 144.955V152.206Z" fill="#00618A"/>
<path d="M284.084 146.295H285.923V150.296C285.906 150.513 285.993 151.023 287 151.039C287.514 151.047 290.968 151.039 291 151.039V146.275H292.843C292.851 146.275 292.841 152.772 292.841 152.8C292.851 154.402 290.853 154.75 289.932 154.777H284.124V153.54C284.134 153.54 289.927 153.541 289.942 153.54C291.126 153.415 290.986 152.826 290.986 152.628V152.146H287.077C285.258 152.129 284.1 151.335 284.085 150.422C284.084 150.337 284.124 146.334 284.084 146.295Z" fill="#00618A"/>
<path d="M294.26 152.206H299.548C300.167 152.206 300.768 152.076 301.246 151.852C302.041 151.487 302.431 150.992 302.431 150.343V148.999C302.431 148.469 301.988 147.973 301.122 147.643C300.662 147.466 300.096 147.372 299.548 147.372H297.319C296.577 147.372 296.223 147.148 296.135 146.653C296.117 146.594 296.117 146.547 296.117 146.488V145.651C296.117 145.604 296.117 145.556 296.135 145.497C296.223 145.12 296.418 145.014 297.072 144.955C297.125 144.955 297.196 144.943 297.249 144.943H302.501V143.717H297.337C296.594 143.717 296.205 143.764 295.852 143.87C294.755 144.212 294.278 144.755 294.278 145.698V146.771C294.278 147.596 295.215 148.304 296.789 148.469C296.966 148.48 297.143 148.492 297.319 148.492H299.229C299.3 148.492 299.371 148.492 299.424 148.504C300.008 148.551 300.255 148.657 300.432 148.869C300.538 148.975 300.574 149.082 300.574 149.2V150.272C300.574 150.402 300.485 150.567 300.308 150.709C300.149 150.85 299.884 150.945 299.53 150.968C299.459 150.968 299.406 150.98 299.336 150.98H294.26V152.206Z" fill="#E48E00"/>
<path d="M313.905 150.072C313.905 151.334 314.842 152.041 316.734 152.183C316.911 152.194 317.088 152.206 317.265 152.206H322.057V150.98H317.229C316.151 150.98 315.744 150.709 315.744 150.06V143.717H313.905V150.072Z" fill="#E48E00"/>
<path d="M303.604 150.136V145.765C303.604 144.654 304.384 143.981 305.926 143.768C306.086 143.745 306.263 143.733 306.422 143.733H309.913C310.091 143.733 310.25 143.745 310.427 143.768C311.969 143.981 312.749 144.654 312.749 145.765V150.136C312.749 151.037 312.418 151.52 311.655 151.834L313.466 153.469H311.331L309.865 152.146L308.389 152.24H306.422C306.086 152.24 305.731 152.192 305.341 152.086C304.172 151.767 303.604 151.153 303.604 150.136ZM305.59 150.03C305.59 150.089 305.607 150.148 305.625 150.219C305.731 150.727 306.21 151.011 306.936 151.011H308.607L307.072 149.625H309.208L310.547 150.834C310.793 150.702 310.956 150.501 311.013 150.243C311.03 150.184 311.03 150.125 311.03 150.066V145.871C311.03 145.824 311.03 145.765 311.013 145.706C310.906 145.233 310.428 144.962 309.719 144.962H306.936C306.121 144.962 305.59 145.316 305.59 145.871V150.03Z" fill="#E48E00"/>
<path d="M323.676 141.683C322.545 141.652 321.681 141.757 320.943 142.069C320.733 142.157 320.399 142.16 320.364 142.423C320.48 142.543 320.498 142.724 320.589 142.873C320.766 143.158 321.063 143.54 321.329 143.741C321.619 143.96 321.918 144.194 322.229 144.384C322.782 144.721 323.4 144.914 323.933 145.252C324.247 145.451 324.559 145.702 324.865 145.927C325.016 146.038 325.118 146.211 325.315 146.28C325.315 146.27 325.315 146.259 325.315 146.248C325.212 146.117 325.185 145.936 325.09 145.798C324.951 145.659 324.812 145.52 324.672 145.38C324.264 144.838 323.745 144.361 323.193 143.966C322.754 143.65 321.769 143.224 321.586 142.712C321.575 142.701 321.565 142.69 321.554 142.68C321.866 142.645 322.231 142.532 322.518 142.455C323.002 142.325 323.434 142.359 323.933 142.23C324.158 142.165 324.383 142.101 324.608 142.037C324.608 141.994 324.608 141.951 324.608 141.908C324.356 141.649 324.176 141.307 323.901 141.072C323.181 140.459 322.395 139.847 321.586 139.336C321.137 139.053 320.583 138.869 320.107 138.629C319.947 138.548 319.666 138.506 319.561 138.372C319.311 138.053 319.175 137.65 318.982 137.279C318.578 136.502 318.182 135.653 317.825 134.835C317.581 134.278 317.422 133.728 317.117 133.228C315.658 130.828 314.086 129.379 311.652 127.955C311.135 127.653 310.511 127.533 309.852 127.377C309.498 127.355 309.145 127.334 308.791 127.313C308.575 127.222 308.351 126.958 308.148 126.83C307.342 126.321 305.274 125.213 304.676 126.67C304.299 127.589 305.24 128.486 305.576 128.952C305.812 129.279 306.115 129.645 306.284 130.013C306.395 130.255 306.414 130.497 306.509 130.753C306.742 131.382 306.946 132.067 307.248 132.649C307.401 132.944 307.569 133.254 307.762 133.517C307.881 133.679 308.084 133.75 308.116 133.999C307.917 134.277 307.906 134.708 307.795 135.06C307.292 136.645 307.482 138.614 308.212 139.786C308.437 140.146 308.965 140.918 309.691 140.622C310.327 140.363 310.185 139.561 310.366 138.854C310.408 138.694 310.382 138.576 310.463 138.468C310.463 138.479 310.463 138.49 310.463 138.5C310.656 138.886 310.849 139.272 311.042 139.658C311.47 140.347 312.23 141.068 312.874 141.555C313.208 141.807 313.471 142.243 313.903 142.39C313.903 142.38 313.903 142.369 313.903 142.358C313.892 142.358 313.881 142.358 313.87 142.358C313.787 142.228 313.656 142.174 313.549 142.069C313.297 141.822 313.018 141.516 312.81 141.233C312.224 140.438 311.706 139.567 311.234 138.661C311.009 138.228 310.813 137.751 310.623 137.311C310.55 137.141 310.551 136.884 310.399 136.796C310.191 137.119 309.884 137.38 309.723 137.761C309.466 138.37 309.433 139.113 309.338 139.883C309.281 139.903 309.306 139.889 309.273 139.915C308.826 139.807 308.668 139.346 308.502 138.95C308.081 137.95 308.003 136.34 308.373 135.189C308.469 134.891 308.902 133.953 308.727 133.678C308.643 133.404 308.367 133.245 308.212 133.035C308.021 132.776 307.83 132.434 307.698 132.135C307.354 131.355 307.193 130.48 306.83 129.692C306.657 129.315 306.364 128.934 306.123 128.599C305.856 128.228 305.558 127.954 305.351 127.505C305.278 127.346 305.178 127.091 305.287 126.927C305.322 126.816 305.371 126.77 305.48 126.734C305.666 126.59 306.186 126.782 306.38 126.862C306.896 127.077 307.326 127.28 307.762 127.57C307.972 127.709 308.184 127.978 308.437 128.052C308.534 128.052 308.63 128.052 308.727 128.052C309.179 128.156 309.686 128.084 310.109 128.213C310.857 128.44 311.526 128.793 312.134 129.177C313.987 130.347 315.503 132.013 316.539 133.999C316.706 134.319 316.778 134.625 316.925 134.964C317.221 135.648 317.594 136.352 317.889 137.021C318.183 137.689 318.47 138.363 318.886 138.918C319.104 139.21 319.949 139.367 320.332 139.529C320.601 139.643 321.042 139.761 321.297 139.915C321.783 140.208 322.255 140.558 322.711 140.879C322.939 141.04 323.641 141.393 323.676 141.683Z" fill="#00618A"/>
<path fill-rule="evenodd" clip-rule="evenodd" d="M309.306 129.434C309.07 129.43 308.903 129.46 308.727 129.499C308.727 129.509 308.727 129.52 308.727 129.531C308.738 129.531 308.748 129.531 308.759 129.531C308.871 129.762 309.07 129.911 309.209 130.11C309.316 130.335 309.423 130.56 309.531 130.785C309.541 130.774 309.552 130.763 309.563 130.753C309.762 130.612 309.853 130.388 309.852 130.045C309.772 129.961 309.76 129.856 309.691 129.756C309.599 129.622 309.421 129.547 309.306 129.434Z" fill="#00618A"/>
<path fill-rule="evenodd" clip-rule="evenodd" d="M322.921 150.945C322.921 151.755 323.561 152.3 324.276 152.3C324.992 152.3 325.632 151.755 325.632 150.945C325.632 150.135 324.992 149.59 324.276 149.59C323.561 149.59 322.921 150.135 322.921 150.945ZM325.328 150.945C325.328 151.559 324.858 152.019 324.276 152.019C323.687 152.019 323.225 151.559 323.225 150.945C323.225 150.331 323.687 149.871 324.276 149.871C324.858 149.871 325.328 150.331 325.328 150.945ZM324.642 151.719H324.945L324.501 151.039C324.739 151.014 324.92 150.898 324.92 150.616C324.92 150.302 324.721 150.172 324.338 150.172H323.734V151.719H323.994V151.05H324.237L324.642 151.719ZM323.994 150.833V150.388H324.294C324.45 150.388 324.638 150.417 324.638 150.598C324.638 150.815 324.468 150.833 324.273 150.833H323.994Z" fill="#E48E00"/>
</g>
<path fill-rule="evenodd" clip-rule="evenodd" d="M49.1424 178.968C49.1424 178.968 47.6807 179.819 50.1838 180.106C53.2168 180.452 54.7666 180.402 58.1079 179.77C58.1079 179.77 58.9882 180.321 60.2154 180.798C52.7226 184.008 43.2577 180.612 49.1424 178.968Z" fill="#0074BD"/>
<path fill-rule="evenodd" clip-rule="evenodd" d="M48.2265 174.778C48.2265 174.778 46.5868 175.992 49.0918 176.251C52.332 176.585 54.8898 176.613 59.3184 175.76C59.3184 175.76 59.9295 176.381 60.8919 176.72C51.8341 179.37 41.7456 176.929 48.2265 174.778Z" fill="#0074BD"/>
<path fill-rule="evenodd" clip-rule="evenodd" d="M55.9447 167.67C57.7918 169.796 55.4603 171.708 55.4603 171.708C55.4603 171.708 60.1478 169.288 57.9955 166.257C55.9846 163.432 54.4429 162.028 62.7894 157.188C62.7894 157.188 49.6875 160.459 55.9447 167.67Z" fill="#EA2D2E"/>
<path fill-rule="evenodd" clip-rule="evenodd" d="M65.8542 182.067C65.8542 182.067 66.9363 182.959 64.6624 183.649C60.3386 184.959 46.6627 185.354 42.8643 183.701C41.4997 183.107 44.0598 182.283 44.8653 182.109C45.7051 181.928 46.1847 181.961 46.1847 181.961C44.6661 180.892 36.3692 184.061 41.9708 184.97C57.2465 187.446 69.816 183.855 65.8542 182.067Z" fill="#0074BD"/>
<path fill-rule="evenodd" clip-rule="evenodd" d="M49.8458 170.436C49.8458 170.436 42.8903 172.089 47.3828 172.689C49.2803 172.943 53.0606 172.885 56.5844 172.589C59.4635 172.348 62.3528 171.831 62.3528 171.831C62.3528 171.831 61.3383 172.266 60.6039 172.767C53.5393 174.625 39.8943 173.76 43.8231 171.86C47.1441 170.254 49.8458 170.436 49.8458 170.436Z" fill="#0074BD"/>
<path fill-rule="evenodd" clip-rule="evenodd" d="M62.3242 177.411C69.5051 173.68 66.1845 170.095 63.867 170.578C63.3002 170.696 63.046 170.798 63.046 170.798C63.046 170.798 63.2572 170.467 63.6592 170.325C68.2441 168.714 71.7694 175.079 62.1807 177.599C62.1807 177.599 62.2909 177.499 62.3242 177.411Z" fill="#0074BD"/>
<path fill-rule="evenodd" clip-rule="evenodd" d="M57.9956 149.37C57.9956 149.37 61.9716 153.349 54.2232 159.464C48.0096 164.372 52.8065 167.169 54.221 170.367C50.5936 167.095 47.933 164.213 49.7176 161.532C52.3383 157.597 59.5994 155.689 57.9956 149.37Z" fill="#EA2D2E"/>
<path fill-rule="evenodd" clip-rule="evenodd" d="M50.5519 187.523C57.4432 187.963 68.0286 187.277 68.2791 184.016C68.2791 184.016 67.7975 185.252 62.5833 186.233C56.7008 187.341 49.4438 187.212 45.1414 186.502C45.1414 186.502 46.0228 187.231 50.5519 187.523Z" fill="#0074BD"/>
<path fill-rule="evenodd" clip-rule="evenodd" d="M67.9609 193.371H67.751V193.254H68.3162V193.371H68.1072V193.958H67.9608V193.371H67.9609ZM69.0894 193.401H69.0867L68.8784 193.957H68.7825L68.5754 193.401H68.5733V193.957H68.4346V193.254H68.638L68.8297 193.752L69.0219 193.254H69.2241V193.957H69.0895L69.0894 193.401Z" fill="#EA2D2E"/>
<path fill-rule="evenodd" clip-rule="evenodd" d="M49.4228 199.983C48.773 200.546 48.0857 200.863 47.4689 200.863C46.5903 200.863 46.1137 200.335 46.1137 199.49C46.1137 198.575 46.624 197.906 48.6674 197.906H49.4228V199.983ZM51.2168 202.007V195.742C51.2168 194.14 50.3035 193.084 48.1027 193.084C46.8185 193.084 45.6926 193.401 44.7773 193.805L45.0407 194.915C45.7616 194.65 46.6938 194.404 47.6091 194.404C48.8772 194.404 49.4228 194.915 49.4228 195.971V196.763H48.7891C45.7088 196.763 44.3191 197.958 44.3191 199.755C44.3191 201.303 45.2351 202.183 46.9593 202.183C48.0674 202.183 48.8956 201.726 49.6686 201.056L49.8094 202.007H51.2168Z" fill="#EA2D2E"/>
<path fill-rule="evenodd" clip-rule="evenodd" d="M57.2034 202.007H54.9663L52.2734 193.244H54.2272L55.8987 198.628L56.2705 200.246C57.1141 197.906 57.7124 195.53 58.0116 193.244H59.9119C59.4038 196.129 58.4869 199.297 57.2034 202.007Z" fill="#EA2D2E"/>
<path fill-rule="evenodd" clip-rule="evenodd" d="M65.7877 199.983C65.1357 200.546 64.4483 200.863 63.8331 200.863C62.9542 200.863 62.4776 200.335 62.4776 199.49C62.4776 198.575 62.9889 197.906 65.0305 197.906H65.7876V199.983H65.7877ZM67.5822 202.007V195.742C67.5822 194.14 66.6663 193.084 64.4675 193.084C63.1817 193.084 62.056 193.401 61.1407 193.805L61.4045 194.915C62.1257 194.65 63.0592 194.404 63.9744 194.404C65.241 194.404 65.7876 194.915 65.7876 195.971V196.763H65.1539C62.0729 196.763 60.6836 197.958 60.6836 199.755C60.6836 201.303 61.5983 202.183 63.3225 202.183C64.4315 202.183 65.258 201.726 66.0332 201.056L66.1749 202.007H67.5822Z" fill="#EA2D2E"/>
<path fill-rule="evenodd" clip-rule="evenodd" d="M42.3517 203.496C41.8405 204.243 41.014 204.834 40.1099 205.168L39.2241 204.124C39.9129 203.771 40.5028 203.201 40.7773 202.67C41.014 202.197 41.1125 201.588 41.1125 200.132V190.127H43.0191V199.994C43.0191 201.942 42.8636 202.729 42.3517 203.496Z" fill="#EA2D2E"/>
<path d="M324.761 187.606H325.821C326.568 187.606 327.141 187.766 327.541 188.086C327.954 188.406 328.381 188.999 328.821 189.866L331.181 194.406L333.541 189.866C333.981 188.999 334.401 188.406 334.801 188.086C335.214 187.766 335.794 187.606 336.541 187.606H337.601V201.606H335.841V189.546C335.668 189.559 335.514 189.632 335.381 189.766C335.261 189.886 335.114 190.099 334.941 190.406L331.181 197.466L327.421 190.406C327.261 190.099 327.114 189.886 326.981 189.766C326.848 189.632 326.694 189.559 326.521 189.546V201.606H324.761V187.606ZM349.084 192.206V202.726C349.084 203.899 348.771 204.759 348.144 205.306C347.518 205.866 346.538 206.146 345.204 206.146H342.724V204.786H345.204C345.924 204.786 346.458 204.612 346.804 204.266C347.151 203.932 347.324 203.412 347.324 202.706V200.126C346.684 201.259 345.644 201.826 344.204 201.826C343.191 201.826 342.398 201.539 341.824 200.966C341.264 200.379 340.984 199.566 340.984 198.526V194.326C340.984 194.046 340.931 193.819 340.824 193.646C340.718 193.459 340.524 193.252 340.244 193.026L341.424 191.986C341.918 192.252 342.258 192.559 342.444 192.906C342.644 193.239 342.744 193.712 342.744 194.326V198.386C342.744 199.039 342.911 199.546 343.244 199.906C343.591 200.252 344.071 200.426 344.684 200.426C345.404 200.426 346.004 200.179 346.484 199.686C346.964 199.179 347.244 198.552 347.324 197.806V192.206H349.084ZM356.443 201.826C355.163 201.826 354.13 201.632 353.343 201.246C352.57 200.859 351.843 200.219 351.163 199.326L352.443 198.226C353.003 198.999 353.577 199.546 354.163 199.866C354.75 200.172 355.49 200.326 356.383 200.326C357.57 200.326 358.47 200.119 359.083 199.706C359.71 199.279 360.023 198.659 360.023 197.846C360.023 197.379 359.897 196.999 359.643 196.706C359.403 196.412 358.977 196.159 358.363 195.946C357.75 195.719 356.843 195.486 355.643 195.246C354.297 194.979 353.303 194.526 352.663 193.886C352.023 193.246 351.703 192.399 351.703 191.346C351.703 190.119 352.143 189.152 353.023 188.446C353.917 187.739 355.137 187.386 356.683 187.386C358.963 187.386 360.577 188.139 361.523 189.646L360.243 190.686C359.777 190.086 359.257 189.639 358.683 189.346C358.123 189.039 357.45 188.886 356.663 188.886C355.703 188.886 354.95 189.106 354.403 189.546C353.87 189.972 353.603 190.559 353.603 191.306C353.603 191.972 353.87 192.499 354.403 192.886C354.937 193.259 355.743 193.552 356.823 193.766C358.063 194.019 359.043 194.299 359.763 194.606C360.483 194.912 361.023 195.319 361.383 195.826C361.743 196.332 361.923 196.999 361.923 197.826C361.923 199.146 361.457 200.146 360.523 200.826C359.603 201.492 358.243 201.826 356.443 201.826ZM374.969 196.726C374.969 198.126 374.629 199.246 373.949 200.086C373.269 200.926 372.276 201.459 370.969 201.686C371.289 202.019 371.722 202.272 372.269 202.446C372.816 202.632 373.449 202.739 374.169 202.766V204.386C372.849 204.372 371.776 204.152 370.949 203.726C370.136 203.312 369.522 202.679 369.109 201.826C367.389 201.772 366.076 201.319 365.169 200.466C364.276 199.599 363.829 198.352 363.829 196.726V192.486C363.829 190.819 364.302 189.552 365.249 188.686C366.209 187.819 367.589 187.386 369.389 187.386C371.202 187.386 372.582 187.819 373.529 188.686C374.489 189.552 374.969 190.819 374.969 192.486V196.726ZM373.069 192.486C373.069 191.326 372.749 190.439 372.109 189.826C371.482 189.199 370.576 188.886 369.389 188.886C368.216 188.886 367.309 189.199 366.669 189.826C366.042 190.439 365.729 191.326 365.729 192.486V196.726C365.729 197.886 366.042 198.779 366.669 199.406C367.309 200.019 368.216 200.326 369.389 200.326C370.576 200.326 371.482 200.019 372.109 199.406C372.749 198.779 373.069 197.886 373.069 196.726V192.486ZM382.142 201.606C380.555 201.606 379.389 201.252 378.642 200.546C377.909 199.839 377.542 198.779 377.542 197.366V187.606H379.442V197.366C379.442 198.299 379.662 198.992 380.102 199.446C380.542 199.886 381.222 200.106 382.142 200.106H386.642V201.606H382.142Z" fill="black"/>
<path d="M4.62736 233.5C3.69403 233.5 2.9207 233.36 2.30736 233.08C1.70736 232.8 1.13403 232.346 0.587363 231.72L1.70736 230.56C2.10736 231.08 2.52736 231.453 2.96736 231.68C3.40736 231.893 3.94736 232 4.58736 232C5.53403 232 6.25403 231.773 6.74736 231.32C7.2407 230.853 7.48736 230.186 7.48736 229.32V219.28H9.38736V229.34C9.38736 230.686 8.9807 231.72 8.16736 232.44C7.35403 233.146 6.17403 233.5 4.62736 233.5ZM19.831 231.18C19.831 231.46 19.8843 231.693 19.991 231.88C20.0976 232.053 20.291 232.246 20.571 232.46L19.391 233.5C18.711 233.153 18.2976 232.66 18.151 232.02C17.831 232.473 17.3843 232.833 16.811 233.1C16.251 233.366 15.6043 233.5 14.871 233.5C13.871 233.5 13.0976 233.266 12.551 232.8C12.0043 232.32 11.731 231.633 11.731 230.74C11.731 229.82 12.051 229.133 12.691 228.68C13.331 228.226 14.211 227.94 15.331 227.82L16.691 227.66C17.2643 227.593 17.6376 227.493 17.811 227.36C17.9976 227.213 18.0843 226.966 18.071 226.62C18.0176 226.1 17.8043 225.686 17.431 225.38C17.071 225.073 16.5176 224.92 15.771 224.92C15.2243 224.92 14.7576 225.013 14.371 225.2C13.9843 225.373 13.631 225.66 13.311 226.06L12.111 225.2C12.4443 224.693 12.9043 224.313 13.491 224.06C14.091 223.793 14.851 223.66 15.771 223.66C17.1176 223.66 18.131 223.94 18.811 224.5C19.491 225.06 19.831 225.873 19.831 226.94V231.18ZM15.291 232.2C16.131 232.2 16.8043 231.98 17.311 231.54C17.831 231.1 18.091 230.54 18.091 229.86V228.52C17.7843 228.693 17.311 228.806 16.671 228.86L15.491 228.98C14.1043 229.14 13.411 229.706 13.411 230.68C13.411 231.173 13.571 231.553 13.891 231.82C14.211 232.073 14.6776 232.2 15.291 232.2ZM25.9416 233.5C25.3682 233.5 24.9149 233.34 24.5816 233.02C24.2482 232.7 23.9616 232.146 23.7216 231.36L21.4216 223.88H23.1216L25.3416 231.24C25.4482 231.6 25.5349 231.84 25.6016 231.96C25.6816 232.066 25.7882 232.12 25.9216 232.12C26.0549 232.12 26.1549 232.066 26.2216 231.96C26.3016 231.84 26.3949 231.6 26.5016 231.24L28.7016 223.88H30.4216L28.1416 231.36C27.9016 232.146 27.6149 232.7 27.2816 233.02C26.9616 233.34 26.5149 233.5 25.9416 233.5ZM39.6356 231.18C39.6356 231.46 39.689 231.693 39.7956 231.88C39.9023 232.053 40.0956 232.246 40.3756 232.46L39.1956 233.5C38.5156 233.153 38.1023 232.66 37.9556 232.02C37.6356 232.473 37.189 232.833 36.6156 233.1C36.0556 233.366 35.409 233.5 34.6756 233.5C33.6756 233.5 32.9023 233.266 32.3556 232.8C31.809 232.32 31.5356 231.633 31.5356 230.74C31.5356 229.82 31.8556 229.133 32.4956 228.68C33.1356 228.226 34.0156 227.94 35.1356 227.82L36.4956 227.66C37.069 227.593 37.4423 227.493 37.6156 227.36C37.8023 227.213 37.889 226.966 37.8756 226.62C37.8223 226.1 37.609 225.686 37.2356 225.38C36.8756 225.073 36.3223 224.92 35.5756 224.92C35.029 224.92 34.5623 225.013 34.1756 225.2C33.789 225.373 33.4356 225.66 33.1156 226.06L31.9156 225.2C32.249 224.693 32.709 224.313 33.2956 224.06C33.8956 223.793 34.6556 223.66 35.5756 223.66C36.9223 223.66 37.9356 223.94 38.6156 224.5C39.2956 225.06 39.6356 225.873 39.6356 226.94V231.18ZM35.0956 232.2C35.9356 232.2 36.609 231.98 37.1156 231.54C37.6356 231.1 37.8956 230.54 37.8956 229.86V228.52C37.589 228.693 37.1156 228.806 36.4756 228.86L35.2956 228.98C33.909 229.14 33.2156 229.706 33.2156 230.68C33.2156 231.173 33.3756 231.553 33.6956 231.82C34.0156 232.073 34.4823 232.2 35.0956 232.2Z" fill="black"/>
<path d="M80.983 360.818H81.831C82.4283 360.818 82.887 360.946 83.207 361.202C83.5376 361.458 83.879 361.932 84.231 362.626L86.119 366.258L88.007 362.626C88.359 361.932 88.695 361.458 89.015 361.202C89.3456 360.946 89.8096 360.818 90.407 360.818H91.255V372.018H89.847V362.37C89.7083 362.38 89.5856 362.439 89.479 362.546C89.383 362.642 89.2656 362.812 89.127 363.058L86.119 368.706L83.111 363.058C82.983 362.812 82.8656 362.642 82.759 362.546C82.6523 362.439 82.5296 362.38 82.391 362.37V372.018H80.983V360.818ZM96.8897 372.194C95.8444 372.194 95.0337 371.943 94.4577 371.442C93.8924 370.93 93.6097 370.21 93.6097 369.282V367.234C93.6097 366.306 93.8924 365.591 94.4577 365.09C95.0337 364.578 95.8444 364.322 96.8897 364.322C97.935 364.322 98.7404 364.578 99.3057 365.09C99.871 365.591 100.154 366.306 100.154 367.234V369.282C100.154 370.21 99.871 370.93 99.3057 371.442C98.7404 371.943 97.935 372.194 96.8897 372.194ZM96.8897 371.09C97.4764 371.09 97.9297 370.935 98.2497 370.626C98.5804 370.306 98.7457 369.858 98.7457 369.282V367.234C98.7457 366.658 98.5804 366.215 98.2497 365.906C97.9297 365.586 97.4764 365.426 96.8897 365.426C96.2924 365.426 95.8284 365.586 95.4977 365.906C95.1777 366.215 95.0177 366.658 95.0177 367.234V369.282C95.0177 369.858 95.1777 370.306 95.4977 370.626C95.8284 370.935 96.2924 371.09 96.8897 371.09ZM106.148 364.322C106.927 364.322 107.53 364.546 107.956 364.994C108.394 365.442 108.612 366.071 108.612 366.882V372.018H107.204V367.058C107.204 366.546 107.076 366.146 106.82 365.858C106.564 365.57 106.212 365.426 105.764 365.426C105.263 365.426 104.831 365.602 104.468 365.954C104.106 366.306 103.839 366.78 103.668 367.378V372.018H102.26V366.178C102.26 365.954 102.218 365.772 102.132 365.634C102.047 365.484 101.892 365.324 101.668 365.154L102.596 364.322C102.938 364.514 103.188 364.716 103.348 364.93C103.508 365.143 103.61 365.42 103.652 365.762C103.898 365.314 104.234 364.962 104.66 364.706C105.087 364.45 105.583 364.322 106.148 364.322ZM118.101 365.154C117.877 365.324 117.723 365.484 117.637 365.634C117.552 365.772 117.509 365.954 117.509 366.178V372.466C117.509 373.404 117.259 374.098 116.757 374.546C116.256 374.994 115.472 375.218 114.405 375.218H112.421V374.114H114.405C114.971 374.114 115.392 373.975 115.669 373.698C115.957 373.431 116.101 373.02 116.101 372.466V370.866C115.579 371.634 114.768 372.018 113.669 372.018C112.656 372.018 111.851 371.687 111.253 371.026C110.667 370.364 110.373 369.468 110.373 368.338V368.002C110.373 367.287 110.501 366.652 110.757 366.098C111.024 365.543 111.403 365.111 111.893 364.802C112.395 364.482 112.987 364.322 113.669 364.322C114.213 364.322 114.699 364.428 115.125 364.642C115.552 364.855 115.909 365.164 116.197 365.57C116.24 365.292 116.331 365.058 116.469 364.866C116.608 364.674 116.837 364.492 117.157 364.322L118.101 365.154ZM113.989 370.914C114.544 370.914 114.992 370.78 115.333 370.514C115.675 370.247 115.931 369.842 116.101 369.298V367.026C115.931 366.482 115.669 366.082 115.317 365.826C114.976 365.559 114.533 365.426 113.989 365.426C113.317 365.426 112.779 365.666 112.373 366.146C111.979 366.626 111.781 367.244 111.781 368.002V368.338C111.781 369.095 111.979 369.714 112.373 370.194C112.768 370.674 113.307 370.914 113.989 370.914ZM122.827 372.194C121.782 372.194 120.971 371.943 120.395 371.442C119.83 370.93 119.547 370.21 119.547 369.282V367.234C119.547 366.306 119.83 365.591 120.395 365.09C120.971 364.578 121.782 364.322 122.827 364.322C123.873 364.322 124.678 364.578 125.243 365.09C125.809 365.591 126.091 366.306 126.091 367.234V369.282C126.091 370.21 125.809 370.93 125.243 371.442C124.678 371.943 123.873 372.194 122.827 372.194ZM122.827 371.09C123.414 371.09 123.867 370.935 124.187 370.626C124.518 370.306 124.683 369.858 124.683 369.282V367.234C124.683 366.658 124.518 366.215 124.187 365.906C123.867 365.586 123.414 365.426 122.827 365.426C122.23 365.426 121.766 365.586 121.435 365.906C121.115 366.215 120.955 366.658 120.955 367.234V369.282C120.955 369.858 121.115 370.306 121.435 370.626C121.766 370.935 122.23 371.09 122.827 371.09ZM128.436 360.818H132.468C133.673 360.818 134.628 360.999 135.332 361.362C136.036 361.724 136.543 362.311 136.852 363.122C137.172 363.932 137.332 365.031 137.332 366.418C137.332 367.815 137.172 368.919 136.852 369.73C136.543 370.53 136.036 371.111 135.332 371.474C134.628 371.836 133.673 372.018 132.468 372.018H128.436V360.818ZM132.468 370.818C133.289 370.818 133.94 370.674 134.42 370.386C134.911 370.098 135.263 369.639 135.476 369.01C135.7 368.37 135.812 367.511 135.812 366.434C135.812 365.346 135.7 364.482 135.476 363.842C135.263 363.202 134.911 362.738 134.42 362.45C133.94 362.162 133.289 362.018 132.468 362.018H129.956V370.818H132.468ZM143.398 372.194C142.288 372.194 141.472 371.82 140.95 371.074V372.018H139.542V362.162C139.542 361.927 139.499 361.74 139.414 361.602C139.339 361.463 139.184 361.303 138.95 361.122L139.878 360.29C140.283 360.503 140.56 360.748 140.71 361.026C140.87 361.292 140.95 361.671 140.95 362.162V365.474C141.494 364.706 142.304 364.322 143.382 364.322C144.054 364.322 144.635 364.482 145.126 364.802C145.627 365.111 146.011 365.543 146.278 366.098C146.544 366.652 146.678 367.287 146.678 368.002V368.514C146.678 369.228 146.544 369.863 146.278 370.418C146.022 370.972 145.643 371.41 145.142 371.73C144.651 372.039 144.07 372.194 143.398 372.194ZM143.062 371.09C143.734 371.09 144.267 370.85 144.662 370.37C145.067 369.89 145.27 369.271 145.27 368.514V368.002C145.27 367.244 145.067 366.626 144.662 366.146C144.267 365.666 143.734 365.426 143.062 365.426C141.974 365.426 141.27 365.954 140.95 367.01V369.506C141.27 370.562 141.974 371.09 143.062 371.09Z" fill="black"/>
<defs>
<filter id="filter0_d_180_237" x="45.9763" y="63.6804" width="279.796" height="289.62" filterUnits="userSpaceOnUse" color-interpolation-filters="sRGB">
<feFlood flood-opacity="0" result="BackgroundImageFix"/>
<feColorMatrix in="SourceAlpha" type="matrix" values="0 0 0 0 0 0 0 0 0 0 0 0 0 0 0 0 0 0 127 0" result="hardAlpha"/>
<feMorphology radius="4" operator="dilate" in="SourceAlpha" result="effect1_dropShadow_180_237"/>
<feOffset dx="5" dy="6"/>
<feGaussianBlur stdDeviation="2"/>
<feComposite in2="hardAlpha" operator="out"/>
<feColorMatrix type="matrix" values="0 0 0 0 0 0 0 0 0 0 0 0 0 0 0 0 0 0 0.25 0"/>
<feBlend mode="normal" in2="BackgroundImageFix" result="effect1_dropShadow_180_237"/>
<feBlend mode="normal" in="SourceGraphic" in2="effect1_dropShadow_180_237" result="shape"/>
</filter>
<filter id="filter1_d_180_237" x="75.9873" y="272.682" width="84" height="84" filterUnits="userSpaceOnUse" color-interpolation-filters="sRGB">
<feFlood flood-opacity="0" result="BackgroundImageFix"/>
<feColorMatrix in="SourceAlpha" type="matrix" values="0 0 0 0 0 0 0 0 0 0 0 0 0 0 0 0 0 0 127 0" result="hardAlpha"/>
<feOffset dx="2" dy="2"/>
<feGaussianBlur stdDeviation="2"/>
<feComposite in2="hardAlpha" operator="out"/>
<feColorMatrix type="matrix" values="0 0 0 0 0 0 0 0 0 0 0 0 0 0 0 0 0 0 0.25 0"/>
<feBlend mode="normal" in2="BackgroundImageFix" result="effect1_dropShadow_180_237"/>
<feBlend mode="normal" in="SourceGraphic" in2="effect1_dropShadow_180_237" result="shape"/>
</filter>
<filter id="filter2_d_180_237" x="240.87" y="249.404" width="84" height="84" filterUnits="userSpaceOnUse" color-interpolation-filters="sRGB">
<feFlood flood-opacity="0" result="BackgroundImageFix"/>
<feColorMatrix in="SourceAlpha" type="matrix" values="0 0 0 0 0 0 0 0 0 0 0 0 0 0 0 0 0 0 127 0" result="hardAlpha"/>
<feOffset dx="2" dy="2"/>
<feGaussianBlur stdDeviation="2"/>
<feComposite in2="hardAlpha" operator="out"/>
<feColorMatrix type="matrix" values="0 0 0 0 0 0 0 0 0 0 0 0 0 0 0 0 0 0 0.25 0"/>
<feBlend mode="normal" in2="BackgroundImageFix" result="effect1_dropShadow_180_237"/>
<feBlend mode="normal" in="SourceGraphic" in2="effect1_dropShadow_180_237" result="shape"/>
</filter>
<filter id="filter3_d_180_237" x="257.498" y="105.425" width="84" height="84" filterUnits="userSpaceOnUse" color-interpolation-filters="sRGB">
<feFlood flood-opacity="0" result="BackgroundImageFix"/>
<feColorMatrix in="SourceAlpha" type="matrix" values="0 0 0 0 0 0 0 0 0 0 0 0 0 0 0 0 0 0 127 0" result="hardAlpha"/>
<feOffset dx="2" dy="2"/>
<feGaussianBlur stdDeviation="2"/>
<feComposite in2="hardAlpha" operator="out"/>
<feColorMatrix type="matrix" values="0 0 0 0 0 0 0 0 0 0 0 0 0 0 0 0 0 0 0.25 0"/>
<feBlend mode="normal" in2="BackgroundImageFix" result="effect1_dropShadow_180_237"/>
<feBlend mode="normal" in="SourceGraphic" in2="effect1_dropShadow_180_237" result="shape"/>
</filter>
<filter id="filter4_d_180_237" x="124.347" y="35.228" width="84" height="84" filterUnits="userSpaceOnUse" color-interpolation-filters="sRGB">
<feFlood flood-opacity="0" result="BackgroundImageFix"/>
<feColorMatrix in="SourceAlpha" type="matrix" values="0 0 0 0 0 0 0 0 0 0 0 0 0 0 0 0 0 0 127 0" result="hardAlpha"/>
<feOffset dx="2" dy="2"/>
<feGaussianBlur stdDeviation="2"/>
<feComposite in2="hardAlpha" operator="out"/>
<feColorMatrix type="matrix" values="0 0 0 0 0 0 0 0 0 0 0 0 0 0 0 0 0 0 0.25 0"/>
<feBlend mode="normal" in2="BackgroundImageFix" result="effect1_dropShadow_180_237"/>
<feBlend mode="normal" in="SourceGraphic" in2="effect1_dropShadow_180_237" result="shape"/>
</filter>
<filter id="filter5_d_180_237" x="15.5132" y="138.343" width="84" height="84" filterUnits="userSpaceOnUse" color-interpolation-filters="sRGB">
<feFlood flood-opacity="0" result="BackgroundImageFix"/>
<feColorMatrix in="SourceAlpha" type="matrix" values="0 0 0 0 0 0 0 0 0 0 0 0 0 0 0 0 0 0 127 0" result="hardAlpha"/>
<feOffset dx="2" dy="2"/>
<feGaussianBlur stdDeviation="2"/>
<feComposite in2="hardAlpha" operator="out"/>
<feColorMatrix type="matrix" values="0 0 0 0 0 0 0 0 0 0 0 0 0 0 0 0 0 0 0.25 0"/>
<feBlend mode="normal" in2="BackgroundImageFix" result="effect1_dropShadow_180_237"/>
<feBlend mode="normal" in="SourceGraphic" in2="effect1_dropShadow_180_237" result="shape"/>
</filter>
<linearGradient id="paint0_linear_180_237" x1="160.91" y1="64.6226" x2="152.851" y2="80.4734" gradientUnits="userSpaceOnUse">
<stop offset="0.3" stop-color="#3E863D"/>
<stop offset="0.5" stop-color="#55934F"/>
<stop offset="0.8" stop-color="#5AAD45"/>
</linearGradient>
<linearGradient id="paint1_linear_180_237" x1="150.234" y1="78.065" x2="164.433" y2="67.9504" gradientUnits="userSpaceOnUse">
<stop offset="0.57" stop-color="#3E863D"/>
<stop offset="0.72" stop-color="#619857"/>
<stop offset="1" stop-color="#76AC64"/>
</linearGradient>
<linearGradient id="paint2_linear_180_237" x1="151.554" y1="72.6595" x2="163.002" y2="72.6595" gradientUnits="userSpaceOnUse">
<stop offset="0.16" stop-color="#6BBF47"/>
<stop offset="0.38" stop-color="#79B461"/>
<stop offset="0.47" stop-color="#75AC64"/>
<stop offset="0.7" stop-color="#659E5A"/>
<stop offset="0.9" stop-color="#3E863D"/>
</linearGradient>
<clipPath id="clip0_180_237">
<rect width="55.2453" height="35.0949" fill="white" transform="translate(136.725 57.6807)"/>
</clipPath>
<clipPath id="clip1_180_237">
<rect width="57.6923" height="15.8189" fill="white" transform="translate(87.1411 304.773)"/>
</clipPath>
<clipPath id="clip2_180_237">
<rect width="56" height="28.9309" fill="white" transform="translate(269.698 125.878)"/>
</clipPath>
</defs>
</svg>
