<svg width="443" height="446" viewBox="0 0 443 446" fill="none" xmlns="http://www.w3.org/2000/svg">
<g filter="url(#filter0_d_146_41)">
<ellipse cx="211.605" cy="228.139" rx="148.605" ry="154.139" fill="#EAE2D7"/>
<path d="M357.71 228.139C357.71 311.974 292.211 379.779 211.605 379.779C130.999 379.779 65.5 311.974 65.5 228.139C65.5 144.304 130.999 76.5 211.605 76.5C292.211 76.5 357.71 144.304 357.71 228.139Z" stroke="black" stroke-width="5"/>
</g>
<path d="M149.02 168.3H159.964C162.052 168.3 163.732 168.876 165.004 170.028C166.276 171.156 166.912 172.656 166.912 174.528C166.912 175.92 166.54 177.12 165.796 178.128C165.052 179.112 164.02 179.796 162.7 180.18C164.26 180.564 165.472 181.32 166.336 182.448C167.224 183.552 167.668 184.932 167.668 186.588C167.668 188.724 166.96 190.416 165.544 191.664C164.128 192.888 162.208 193.5 159.784 193.5H149.02V168.3ZM159.748 179.208C161.092 179.208 162.184 178.8 163.024 177.984C163.888 177.144 164.32 176.076 164.32 174.78C164.32 173.436 163.9 172.368 163.06 171.576C162.244 170.784 161.14 170.388 159.748 170.388H151.612V179.208H159.748ZM159.172 191.412C161.092 191.412 162.556 190.98 163.564 190.116C164.572 189.252 165.076 188.004 165.076 186.372C165.076 184.74 164.56 183.492 163.528 182.628C162.52 181.74 161.068 181.296 159.172 181.296H151.612V191.412H159.172ZM185.846 190.44C185.846 190.872 185.918 191.232 186.062 191.52C186.23 191.784 186.53 192.096 186.962 192.456L185.342 193.896C184.742 193.56 184.298 193.176 184.01 192.744C183.722 192.312 183.554 191.748 183.506 191.052C182.882 191.964 182.03 192.672 180.95 193.176C179.87 193.656 178.658 193.896 177.314 193.896C175.49 193.896 174.086 193.476 173.102 192.636C172.118 191.772 171.626 190.536 171.626 188.928C171.626 187.44 172.142 186.276 173.174 185.436C174.206 184.596 175.766 184.056 177.854 183.816L180.662 183.492C181.454 183.396 182.042 183.276 182.426 183.132C182.834 182.988 183.11 182.784 183.254 182.52C183.398 182.232 183.458 181.836 183.434 181.332C183.218 179.1 181.658 177.984 178.754 177.984C177.674 177.984 176.75 178.164 175.982 178.524C175.214 178.86 174.554 179.4 174.002 180.144L172.346 178.92C173.474 177.096 175.61 176.184 178.754 176.184C181.058 176.184 182.81 176.676 184.01 177.66C185.234 178.644 185.846 180.06 185.846 181.908V190.44ZM177.854 192.024C179.534 192.024 180.89 191.592 181.922 190.728C182.954 189.864 183.47 188.724 183.47 187.308V184.392C183.182 184.608 182.834 184.776 182.426 184.896C182.018 184.992 181.454 185.076 180.734 185.148L178.07 185.436C176.702 185.604 175.658 185.988 174.938 186.588C174.242 187.164 173.894 187.932 173.894 188.892C173.894 190.98 175.214 192.024 177.854 192.024ZM197.818 193.896C195.466 193.896 193.654 193.356 192.382 192.276C191.11 191.196 190.474 189.636 190.474 187.596V182.484C190.474 180.492 191.122 178.944 192.418 177.84C193.714 176.736 195.526 176.184 197.854 176.184C199.27 176.184 200.494 176.412 201.526 176.868C202.558 177.324 203.446 178.02 204.19 178.956L202.534 180.36C201.862 179.544 201.166 178.968 200.446 178.632C199.726 178.296 198.862 178.128 197.854 178.128C196.294 178.128 195.07 178.512 194.182 179.28C193.318 180.048 192.886 181.116 192.886 182.484V187.596C192.886 188.988 193.306 190.068 194.146 190.836C195.01 191.58 196.234 191.952 197.818 191.952C198.898 191.952 199.834 191.772 200.626 191.412C201.418 191.052 202.09 190.5 202.642 189.756L204.298 191.16C203.602 192.096 202.726 192.792 201.67 193.248C200.614 193.68 199.33 193.896 197.818 193.896ZM216.309 182.628C217.509 182.82 218.445 183.3 219.117 184.068C219.813 184.836 220.365 185.988 220.773 187.524L222.321 193.5H219.837L218.289 187.524C218.025 186.492 217.605 185.748 217.029 185.292C216.477 184.812 215.637 184.524 214.509 184.428L210.873 188.064V193.5H208.461V170.892C208.461 170.436 208.389 170.076 208.245 169.812C208.101 169.548 207.801 169.224 207.345 168.84L209.001 167.436C209.697 167.82 210.177 168.276 210.441 168.804C210.729 169.332 210.873 170.052 210.873 170.964V185.112L219.333 176.58H222.357L216.309 182.628ZM232.696 191.952C233.728 191.952 234.64 191.796 235.432 191.484C236.224 191.172 236.956 190.668 237.628 189.972L239.14 191.376C238.372 192.24 237.46 192.876 236.404 193.284C235.348 193.692 234.064 193.896 232.552 193.896C230.248 193.896 228.448 193.356 227.152 192.276C225.88 191.172 225.244 189.636 225.244 187.668V182.196C225.244 180.348 225.868 178.896 227.116 177.84C228.388 176.76 230.128 176.22 232.336 176.22C234.592 176.22 236.32 176.784 237.52 177.912C238.744 179.04 239.356 180.636 239.356 182.7C239.356 184.02 239.104 184.932 238.6 185.436C238.12 185.916 237.208 186.156 235.864 186.156H227.656V187.668C227.656 189.108 228.064 190.188 228.88 190.908C229.72 191.604 230.992 191.952 232.696 191.952ZM232.3 178.128C230.86 178.128 229.72 178.512 228.88 179.28C228.064 180.024 227.656 181.044 227.656 182.34V184.392H234.856C235.672 184.392 236.224 184.26 236.512 183.996C236.8 183.708 236.944 183.18 236.944 182.412C236.944 181.068 236.536 180.024 235.72 179.28C234.904 178.512 233.764 178.128 232.3 178.128ZM252.287 176.184C253.991 176.184 255.323 176.7 256.283 177.732C257.243 178.74 257.723 180.144 257.723 181.944V193.5H255.311V182.304C255.311 180.984 254.987 179.964 254.339 179.244C253.715 178.5 252.839 178.128 251.711 178.128C250.415 178.128 249.287 178.608 248.327 179.568C247.391 180.528 246.719 181.836 246.311 183.492V193.5H243.899V179.64C243.899 179.208 243.815 178.86 243.647 178.596C243.503 178.308 243.215 177.984 242.783 177.624L244.367 176.184C245.111 176.592 245.615 177.06 245.879 177.588C246.167 178.092 246.311 178.8 246.311 179.712V180.036C246.911 178.788 247.715 177.84 248.723 177.192C249.755 176.52 250.943 176.184 252.287 176.184ZM277.492 190.44C277.492 190.872 277.564 191.232 277.708 191.52C277.876 191.784 278.176 192.096 278.608 192.456L277.024 193.896C276.424 193.56 275.98 193.128 275.692 192.6C275.404 192.048 275.236 191.484 275.188 190.908C273.94 192.9 272.032 193.896 269.464 193.896C267.976 193.896 266.668 193.56 265.54 192.888C264.436 192.192 263.572 191.22 262.948 189.972C262.348 188.724 262.048 187.272 262.048 185.616V184.464C262.048 182.808 262.348 181.356 262.948 180.108C263.572 178.86 264.436 177.9 265.54 177.228C266.668 176.532 267.976 176.184 269.464 176.184C270.688 176.184 271.78 176.424 272.74 176.904C273.724 177.384 274.504 178.068 275.08 178.956V170.892C275.08 170.46 275.008 170.112 274.864 169.848C274.72 169.584 274.42 169.248 273.964 168.84L275.62 167.436C276.316 167.82 276.796 168.276 277.06 168.804C277.348 169.332 277.492 170.052 277.492 170.964V190.44ZM275.08 182.016C274.672 180.72 274.048 179.748 273.208 179.1C272.368 178.452 271.252 178.128 269.86 178.128C268.228 178.128 266.92 178.704 265.936 179.856C264.952 181.008 264.46 182.544 264.46 184.464V185.616C264.46 187.536 264.952 189.072 265.936 190.224C266.92 191.376 268.228 191.952 269.86 191.952C271.252 191.952 272.368 191.628 273.208 190.98C274.048 190.332 274.672 189.36 275.08 188.064V182.016ZM225.321 240.5L223.233 238.196C221.241 239.996 218.613 240.896 215.349 240.896C212.805 240.896 210.789 240.26 209.301 238.988C207.813 237.692 207.069 235.952 207.069 233.768C207.069 232.088 207.537 230.72 208.473 229.664C209.409 228.584 210.801 227.528 212.649 226.496C211.569 225.296 210.765 224.24 210.237 223.328C209.733 222.416 209.481 221.432 209.481 220.376C209.481 218.696 210.033 217.376 211.137 216.416C212.265 215.432 213.777 214.94 215.673 214.94C217.521 214.94 218.985 215.444 220.065 216.452C221.145 217.436 221.685 218.768 221.685 220.448C221.685 221.816 221.265 222.968 220.425 223.904C219.585 224.816 218.205 225.848 216.285 227L222.981 234.344C224.013 232.592 224.721 230.228 225.105 227.252H227.733C227.253 231.188 226.281 234.212 224.817 236.324L228.597 240.5H225.321ZM215.673 217.028C214.593 217.028 213.717 217.328 213.045 217.928C212.397 218.528 212.073 219.344 212.073 220.376C212.073 221.192 212.265 221.948 212.649 222.644C213.057 223.316 213.753 224.204 214.737 225.308C216.273 224.42 217.377 223.64 218.049 222.968C218.745 222.296 219.093 221.456 219.093 220.448C219.093 219.416 218.781 218.588 218.157 217.964C217.533 217.34 216.705 217.028 215.673 217.028ZM215.349 238.808C217.941 238.808 220.005 237.98 221.541 236.324L214.197 228.224C213.165 228.8 212.349 229.316 211.749 229.772C211.149 230.204 210.645 230.756 210.237 231.428C209.853 232.076 209.661 232.856 209.661 233.768C209.661 235.304 210.165 236.528 211.173 237.44C212.205 238.352 213.597 238.808 215.349 238.808ZM147.086 262.3H156.05C158.69 262.3 160.778 262.708 162.314 263.524C163.874 264.34 165.002 265.66 165.698 267.484C166.394 269.308 166.742 271.78 166.742 274.9C166.742 278.044 166.394 280.528 165.698 282.352C165.026 284.152 163.91 285.46 162.35 286.276C160.814 287.092 158.714 287.5 156.05 287.5H147.086V262.3ZM156.05 285.412C158.042 285.412 159.626 285.076 160.802 284.404C161.978 283.708 162.83 282.604 163.358 281.092C163.886 279.556 164.15 277.504 164.15 274.936C164.15 272.368 163.874 270.316 163.322 268.78C162.794 267.244 161.942 266.128 160.766 265.432C159.59 264.736 158.018 264.388 156.05 264.388H149.678V285.412H156.05ZM185.108 284.44C185.108 284.872 185.18 285.232 185.324 285.52C185.492 285.784 185.792 286.096 186.224 286.456L184.604 287.896C184.004 287.56 183.56 287.176 183.272 286.744C182.984 286.312 182.816 285.748 182.768 285.052C182.144 285.964 181.292 286.672 180.212 287.176C179.132 287.656 177.92 287.896 176.576 287.896C174.752 287.896 173.348 287.476 172.364 286.636C171.38 285.772 170.888 284.536 170.888 282.928C170.888 281.44 171.404 280.276 172.436 279.436C173.468 278.596 175.028 278.056 177.116 277.816L179.924 277.492C180.716 277.396 181.304 277.276 181.688 277.132C182.096 276.988 182.372 276.784 182.516 276.52C182.66 276.232 182.72 275.836 182.696 275.332C182.48 273.1 180.92 271.984 178.016 271.984C176.936 271.984 176.012 272.164 175.244 272.524C174.476 272.86 173.816 273.4 173.264 274.144L171.608 272.92C172.736 271.096 174.872 270.184 178.016 270.184C180.32 270.184 182.072 270.676 183.272 271.66C184.496 272.644 185.108 274.06 185.108 275.908V284.44ZM177.116 286.024C178.796 286.024 180.152 285.592 181.184 284.728C182.216 283.864 182.732 282.724 182.732 281.308V278.392C182.444 278.608 182.096 278.776 181.688 278.896C181.28 278.992 180.716 279.076 179.996 279.148L177.332 279.436C175.964 279.604 174.92 279.988 174.2 280.588C173.504 281.164 173.156 281.932 173.156 282.892C173.156 284.98 174.476 286.024 177.116 286.024ZM192.728 272.524V282.604C192.728 284.74 193.664 285.808 195.536 285.808H197.588V287.716H195.536C193.736 287.716 192.416 287.308 191.576 286.492C190.736 285.652 190.316 284.356 190.316 282.604V266.656C190.316 266.224 190.232 265.876 190.064 265.612C189.92 265.324 189.632 265 189.2 264.64L190.82 263.2C191.54 263.608 192.032 264.076 192.296 264.604C192.584 265.108 192.728 265.816 192.728 266.728V270.58H197.588V272.524H192.728ZM215.237 284.44C215.237 284.872 215.309 285.232 215.453 285.52C215.621 285.784 215.921 286.096 216.353 286.456L214.733 287.896C214.133 287.56 213.689 287.176 213.401 286.744C213.113 286.312 212.945 285.748 212.897 285.052C212.273 285.964 211.421 286.672 210.341 287.176C209.261 287.656 208.049 287.896 206.705 287.896C204.881 287.896 203.477 287.476 202.493 286.636C201.509 285.772 201.017 284.536 201.017 282.928C201.017 281.44 201.533 280.276 202.565 279.436C203.597 278.596 205.157 278.056 207.245 277.816L210.053 277.492C210.845 277.396 211.433 277.276 211.817 277.132C212.225 276.988 212.501 276.784 212.645 276.52C212.789 276.232 212.849 275.836 212.825 275.332C212.609 273.1 211.049 271.984 208.145 271.984C207.065 271.984 206.141 272.164 205.373 272.524C204.605 272.86 203.945 273.4 203.393 274.144L201.737 272.92C202.865 271.096 205.001 270.184 208.145 270.184C210.449 270.184 212.201 270.676 213.401 271.66C214.625 272.644 215.237 274.06 215.237 275.908V284.44ZM207.245 286.024C208.925 286.024 210.281 285.592 211.313 284.728C212.345 283.864 212.861 282.724 212.861 281.308V278.392C212.573 278.608 212.225 278.776 211.817 278.896C211.409 278.992 210.845 279.076 210.125 279.148L207.461 279.436C206.093 279.604 205.049 279.988 204.329 280.588C203.633 281.164 203.285 281.932 203.285 282.892C203.285 284.98 204.605 286.024 207.245 286.024ZM228.865 287.896C227.617 287.896 226.513 287.668 225.553 287.212C224.593 286.732 223.813 286.036 223.213 285.124V287.5H220.801V264.892C220.801 264.436 220.729 264.076 220.585 263.812C220.441 263.548 220.141 263.224 219.685 262.84L221.269 261.436C221.989 261.844 222.493 262.3 222.781 262.804C223.069 263.308 223.213 264.028 223.213 264.964V272.992C223.837 272.08 224.617 271.384 225.553 270.904C226.513 270.424 227.605 270.184 228.829 270.184C230.317 270.184 231.625 270.532 232.753 271.228C233.881 271.9 234.745 272.86 235.345 274.108C235.969 275.356 236.281 276.808 236.281 278.464V279.616C236.281 281.272 235.969 282.724 235.345 283.972C234.745 285.22 233.881 286.192 232.753 286.888C231.649 287.56 230.353 287.896 228.865 287.896ZM228.433 285.952C230.065 285.952 231.373 285.376 232.357 284.224C233.341 283.072 233.833 281.536 233.833 279.616V278.464C233.833 276.544 233.341 275.008 232.357 273.856C231.373 272.704 230.065 272.128 228.433 272.128C227.041 272.128 225.925 272.452 225.085 273.1C224.245 273.748 223.621 274.72 223.213 276.016V282.064C223.621 283.36 224.245 284.332 225.085 284.98C225.925 285.628 227.041 285.952 228.433 285.952ZM253.944 284.44C253.944 284.872 254.016 285.232 254.16 285.52C254.328 285.784 254.628 286.096 255.06 286.456L253.44 287.896C252.84 287.56 252.396 287.176 252.108 286.744C251.82 286.312 251.652 285.748 251.604 285.052C250.98 285.964 250.128 286.672 249.048 287.176C247.968 287.656 246.756 287.896 245.412 287.896C243.588 287.896 242.184 287.476 241.2 286.636C240.216 285.772 239.724 284.536 239.724 282.928C239.724 281.44 240.24 280.276 241.272 279.436C242.304 278.596 243.864 278.056 245.952 277.816L248.76 277.492C249.552 277.396 250.14 277.276 250.524 277.132C250.932 276.988 251.208 276.784 251.352 276.52C251.496 276.232 251.556 275.836 251.532 275.332C251.316 273.1 249.756 271.984 246.852 271.984C245.772 271.984 244.848 272.164 244.08 272.524C243.312 272.86 242.652 273.4 242.1 274.144L240.444 272.92C241.572 271.096 243.708 270.184 246.852 270.184C249.156 270.184 250.908 270.676 252.108 271.66C253.332 272.644 253.944 274.06 253.944 275.908V284.44ZM245.952 286.024C247.632 286.024 248.988 285.592 250.02 284.728C251.052 283.864 251.568 282.724 251.568 281.308V278.392C251.28 278.608 250.932 278.776 250.524 278.896C250.116 278.992 249.552 279.076 248.832 279.148L246.168 279.436C244.8 279.604 243.756 279.988 243.036 280.588C242.34 281.164 241.992 281.932 241.992 282.892C241.992 284.98 243.312 286.024 245.952 286.024ZM264.472 287.896C263.056 287.896 261.844 287.668 260.836 287.212C259.852 286.756 258.952 286.012 258.136 284.98L259.684 283.648C260.428 284.488 261.16 285.088 261.88 285.448C262.6 285.784 263.464 285.952 264.472 285.952C265.912 285.952 267.004 285.7 267.748 285.196C268.492 284.692 268.864 283.96 268.864 283C268.864 282.4 268.72 281.92 268.432 281.56C268.144 281.2 267.64 280.888 266.92 280.624C266.2 280.36 265.108 280.096 263.644 279.832C260.284 279.232 258.604 277.624 258.604 275.008C258.604 273.496 259.144 272.32 260.224 271.48C261.328 270.616 262.84 270.184 264.76 270.184C266.128 270.184 267.316 270.424 268.324 270.904C269.356 271.36 270.136 272.032 270.664 272.92L269.116 274.216C268.564 273.496 267.928 272.968 267.208 272.632C266.512 272.296 265.696 272.128 264.76 272.128C263.56 272.128 262.612 272.38 261.916 272.884C261.244 273.388 260.908 274.084 260.908 274.972C260.908 275.764 261.184 276.376 261.736 276.808C262.312 277.24 263.308 277.6 264.724 277.888C266.38 278.248 267.664 278.644 268.576 279.076C269.512 279.484 270.172 280 270.556 280.624C270.964 281.248 271.168 282.04 271.168 283C271.168 284.608 270.592 285.832 269.44 286.672C268.312 287.488 266.656 287.896 264.472 287.896ZM283.18 285.952C284.212 285.952 285.124 285.796 285.916 285.484C286.708 285.172 287.44 284.668 288.112 283.972L289.624 285.376C288.856 286.24 287.944 286.876 286.888 287.284C285.832 287.692 284.548 287.896 283.036 287.896C280.732 287.896 278.932 287.356 277.636 286.276C276.364 285.172 275.728 283.636 275.728 281.668V276.196C275.728 274.348 276.352 272.896 277.6 271.84C278.872 270.76 280.612 270.22 282.82 270.22C285.076 270.22 286.804 270.784 288.004 271.912C289.228 273.04 289.84 274.636 289.84 276.7C289.84 278.02 289.588 278.932 289.084 279.436C288.604 279.916 287.692 280.156 286.348 280.156H278.14V281.668C278.14 283.108 278.548 284.188 279.364 284.908C280.204 285.604 281.476 285.952 283.18 285.952ZM282.784 272.128C281.344 272.128 280.204 272.512 279.364 273.28C278.548 274.024 278.14 275.044 278.14 276.34V278.392H285.34C286.156 278.392 286.708 278.26 286.996 277.996C287.284 277.708 287.428 277.18 287.428 276.412C287.428 275.068 287.02 274.024 286.204 273.28C285.388 272.512 284.248 272.128 282.784 272.128Z" fill="black"/>
<path d="M364.913 295.5C363.286 295.5 362.093 295.147 361.333 294.44C360.573 293.733 360.193 292.673 360.193 291.26V285.74C360.193 284.327 360.573 283.267 361.333 282.56C362.093 281.853 363.286 281.5 364.913 281.5H369.693V283H364.913C363.939 283 363.226 283.227 362.773 283.68C362.319 284.12 362.093 284.807 362.093 285.74V287.74H368.713V289.26H362.093V291.26C362.093 292.193 362.319 292.887 362.773 293.34C363.226 293.78 363.939 294 364.913 294H369.773V295.5H364.913ZM377.434 295.5L375.034 291.96L372.714 295.5H370.914L374.114 290.6L371.074 286.1H372.854L375.154 289.48L377.374 286.1H379.174L376.094 290.86L379.234 295.5H377.434ZM385.668 285.88C386.548 285.88 387.294 286.093 387.908 286.52C388.534 286.933 389.001 287.493 389.308 288.2C389.614 288.893 389.768 289.653 389.768 290.48V291.12C389.768 291.947 389.614 292.713 389.308 293.42C389.001 294.113 388.534 294.673 387.908 295.1C387.294 295.513 386.548 295.72 385.668 295.72C384.868 295.72 384.228 295.593 383.748 295.34C383.281 295.073 382.901 294.72 382.608 294.28V299.88H380.848V288.2C380.848 287.92 380.794 287.693 380.688 287.52C380.581 287.333 380.388 287.133 380.108 286.92L381.268 285.88C381.654 286.093 381.941 286.32 382.128 286.56C382.328 286.8 382.454 287.1 382.508 287.46C383.201 286.407 384.254 285.88 385.668 285.88ZM388.008 290.48C388.008 289.533 387.754 288.76 387.248 288.16C386.754 287.56 386.088 287.26 385.248 287.26C383.888 287.26 383.008 287.92 382.608 289.24V292.36C383.008 293.68 383.888 294.34 385.248 294.34C386.088 294.34 386.754 294.04 387.248 293.44C387.754 292.84 388.008 292.067 388.008 291.12V290.48ZM396.289 285.88C396.863 285.88 397.343 286.02 397.729 286.3L397.289 287.84C396.836 287.573 396.356 287.44 395.849 287.44C395.249 287.44 394.736 287.693 394.309 288.2C393.883 288.707 393.569 289.387 393.369 290.24V295.5H391.609V288.2C391.609 287.92 391.556 287.693 391.449 287.52C391.343 287.333 391.149 287.133 390.869 286.92L392.049 285.88C392.516 286.133 392.843 286.413 393.029 286.72C393.229 287.013 393.343 287.427 393.369 287.96C393.663 287.307 394.056 286.8 394.549 286.44C395.043 286.067 395.623 285.88 396.289 285.88ZM402.847 294.36C403.394 294.36 403.861 294.28 404.247 294.12C404.647 293.96 405.034 293.7 405.407 293.34L406.487 294.32C406.087 294.8 405.587 295.153 404.987 295.38C404.401 295.607 403.674 295.72 402.807 295.72C401.434 295.72 400.394 295.427 399.687 294.84C398.994 294.24 398.647 293.353 398.647 292.18V289.2C398.647 288.173 399.001 287.367 399.707 286.78C400.427 286.18 401.407 285.88 402.647 285.88C403.927 285.88 404.914 286.193 405.607 286.82C406.314 287.447 406.667 288.347 406.667 289.52C406.667 290.307 406.527 290.847 406.247 291.14C405.981 291.433 405.461 291.58 404.687 291.58H400.407V292.2C400.407 292.92 400.607 293.46 401.007 293.82C401.407 294.18 402.021 294.36 402.847 294.36ZM402.647 287.24C401.941 287.24 401.387 287.427 400.987 287.8C400.601 288.173 400.407 288.68 400.407 289.32V290.32H403.827C404.241 290.32 404.521 290.253 404.667 290.12C404.827 289.987 404.907 289.733 404.907 289.36C404.907 288.693 404.707 288.173 404.307 287.8C403.907 287.427 403.354 287.24 402.647 287.24ZM412.103 295.72C411.223 295.72 410.51 295.593 409.963 295.34C409.43 295.073 408.936 294.647 408.483 294.06L409.603 293.1C409.99 293.553 410.363 293.873 410.723 294.06C411.096 294.247 411.556 294.34 412.103 294.34C413.556 294.34 414.283 293.88 414.283 292.96C414.283 292.667 414.203 292.433 414.043 292.26C413.896 292.073 413.63 291.92 413.243 291.8C412.87 291.667 412.303 291.533 411.543 291.4C410.61 291.213 409.91 290.893 409.443 290.44C408.976 289.973 408.743 289.36 408.743 288.6C408.743 287.747 409.056 287.08 409.683 286.6C410.31 286.12 411.17 285.88 412.263 285.88C413.876 285.88 415.01 286.393 415.663 287.42L414.543 288.36C414.223 287.973 413.883 287.693 413.523 287.52C413.176 287.347 412.756 287.26 412.263 287.26C411.676 287.26 411.223 287.38 410.903 287.62C410.583 287.86 410.423 288.193 410.423 288.62C410.423 289.007 410.576 289.307 410.883 289.52C411.19 289.72 411.676 289.887 412.343 290.02C413.223 290.22 413.916 290.433 414.423 290.66C414.93 290.873 415.31 291.167 415.563 291.54C415.816 291.9 415.943 292.38 415.943 292.98C415.943 294.807 414.663 295.72 412.103 295.72ZM421.166 295.72C420.286 295.72 419.572 295.593 419.026 295.34C418.492 295.073 417.999 294.647 417.546 294.06L418.666 293.1C419.052 293.553 419.426 293.873 419.786 294.06C420.159 294.247 420.619 294.34 421.166 294.34C422.619 294.34 423.346 293.88 423.346 292.96C423.346 292.667 423.266 292.433 423.106 292.26C422.959 292.073 422.692 291.92 422.306 291.8C421.932 291.667 421.366 291.533 420.606 291.4C419.672 291.213 418.972 290.893 418.506 290.44C418.039 289.973 417.806 289.36 417.806 288.6C417.806 287.747 418.119 287.08 418.746 286.6C419.372 286.12 420.232 285.88 421.326 285.88C422.939 285.88 424.072 286.393 424.726 287.42L423.606 288.36C423.286 287.973 422.946 287.693 422.586 287.52C422.239 287.347 421.819 287.26 421.326 287.26C420.739 287.26 420.286 287.38 419.966 287.62C419.646 287.86 419.486 288.193 419.486 288.62C419.486 289.007 419.639 289.307 419.946 289.52C420.252 289.72 420.739 289.887 421.406 290.02C422.286 290.22 422.979 290.433 423.486 290.66C423.992 290.873 424.372 291.167 424.626 291.54C424.879 291.9 425.006 292.38 425.006 292.98C425.006 294.807 423.726 295.72 421.166 295.72ZM428.073 295.72C427.739 295.72 427.459 295.607 427.233 295.38C427.006 295.153 426.893 294.873 426.893 294.54C426.893 294.207 427.006 293.927 427.233 293.7C427.459 293.46 427.739 293.34 428.073 293.34C428.406 293.34 428.686 293.46 428.913 293.7C429.139 293.927 429.253 294.207 429.253 294.54C429.253 294.873 429.139 295.153 428.913 295.38C428.686 295.607 428.406 295.72 428.073 295.72ZM432.476 284.26C432.169 284.26 431.902 284.153 431.676 283.94C431.462 283.713 431.356 283.447 431.356 283.14C431.356 282.833 431.469 282.573 431.696 282.36C431.922 282.133 432.182 282.02 432.476 282.02C432.782 282.02 433.042 282.133 433.256 282.36C433.482 282.573 433.596 282.833 433.596 283.14C433.596 283.447 433.482 283.713 433.256 283.94C433.042 284.153 432.782 284.26 432.476 284.26ZM428.496 298.68H429.476C430.209 298.68 430.742 298.493 431.076 298.12C431.422 297.76 431.596 297.187 431.596 296.4V286.1H433.356V296.4C433.356 297.693 433.049 298.627 432.436 299.2C431.836 299.773 430.849 300.06 429.476 300.06H428.496V298.68ZM439.115 295.72C438.235 295.72 437.522 295.593 436.975 295.34C436.442 295.073 435.948 294.647 435.495 294.06L436.615 293.1C437.002 293.553 437.375 293.873 437.735 294.06C438.108 294.247 438.568 294.34 439.115 294.34C440.568 294.34 441.295 293.88 441.295 292.96C441.295 292.667 441.215 292.433 441.055 292.26C440.908 292.073 440.642 291.92 440.255 291.8C439.882 291.667 439.315 291.533 438.555 291.4C437.622 291.213 436.922 290.893 436.455 290.44C435.988 289.973 435.755 289.36 435.755 288.6C435.755 287.747 436.068 287.08 436.695 286.6C437.322 286.12 438.182 285.88 439.275 285.88C440.888 285.88 442.022 286.393 442.675 287.42L441.555 288.36C441.235 287.973 440.895 287.693 440.535 287.52C440.188 287.347 439.768 287.26 439.275 287.26C438.688 287.26 438.235 287.38 437.915 287.62C437.595 287.86 437.435 288.193 437.435 288.62C437.435 289.007 437.588 289.307 437.895 289.52C438.202 289.72 438.688 289.887 439.355 290.02C440.235 290.22 440.928 290.433 441.435 290.66C441.942 290.873 442.322 291.167 442.575 291.54C442.828 291.9 442.955 292.38 442.955 292.98C442.955 294.807 441.675 295.72 439.115 295.72Z" fill="black"/>
<path d="M236.18 427H237.24C237.987 427 238.56 427.16 238.96 427.48C239.374 427.8 239.8 428.393 240.24 429.26L242.6 433.8L244.96 429.26C245.4 428.393 245.82 427.8 246.22 427.48C246.634 427.16 247.214 427 247.96 427H249.02V441H247.26V428.94C247.087 428.953 246.934 429.027 246.8 429.16C246.68 429.28 246.534 429.493 246.36 429.8L242.6 436.86L238.84 429.8C238.68 429.493 238.534 429.28 238.4 429.16C238.267 429.027 238.114 428.953 237.94 428.94V441H236.18V427ZM260.504 431.6V442.12C260.504 443.293 260.191 444.153 259.564 444.7C258.937 445.26 257.957 445.54 256.624 445.54H254.144V444.18H256.624C257.344 444.18 257.877 444.007 258.224 443.66C258.571 443.327 258.744 442.807 258.744 442.1V439.52C258.104 440.653 257.064 441.22 255.624 441.22C254.611 441.22 253.817 440.933 253.244 440.36C252.684 439.773 252.404 438.96 252.404 437.92V433.72C252.404 433.44 252.351 433.213 252.244 433.04C252.137 432.853 251.944 432.647 251.664 432.42L252.844 431.38C253.337 431.647 253.677 431.953 253.864 432.3C254.064 432.633 254.164 433.107 254.164 433.72V437.78C254.164 438.433 254.331 438.94 254.664 439.3C255.011 439.647 255.491 439.82 256.104 439.82C256.824 439.82 257.424 439.573 257.904 439.08C258.384 438.573 258.664 437.947 258.744 437.2V431.6H260.504ZM267.863 441.22C266.583 441.22 265.549 441.027 264.763 440.64C263.989 440.253 263.263 439.613 262.583 438.72L263.863 437.62C264.423 438.393 264.996 438.94 265.583 439.26C266.169 439.567 266.909 439.72 267.803 439.72C268.989 439.72 269.889 439.513 270.503 439.1C271.129 438.673 271.443 438.053 271.443 437.24C271.443 436.773 271.316 436.393 271.063 436.1C270.823 435.807 270.396 435.553 269.783 435.34C269.169 435.113 268.263 434.88 267.063 434.64C265.716 434.373 264.723 433.92 264.083 433.28C263.443 432.64 263.123 431.793 263.123 430.74C263.123 429.513 263.563 428.547 264.443 427.84C265.336 427.133 266.556 426.78 268.103 426.78C270.383 426.78 271.996 427.533 272.943 429.04L271.663 430.08C271.196 429.48 270.676 429.033 270.103 428.74C269.543 428.433 268.869 428.28 268.083 428.28C267.123 428.28 266.369 428.5 265.823 428.94C265.289 429.367 265.023 429.953 265.023 430.7C265.023 431.367 265.289 431.893 265.823 432.28C266.356 432.653 267.163 432.947 268.243 433.16C269.483 433.413 270.463 433.693 271.183 434C271.903 434.307 272.443 434.713 272.803 435.22C273.163 435.727 273.343 436.393 273.343 437.22C273.343 438.54 272.876 439.54 271.943 440.22C271.023 440.887 269.663 441.22 267.863 441.22ZM286.388 436.12C286.388 437.52 286.048 438.64 285.368 439.48C284.688 440.32 283.695 440.853 282.388 441.08C282.708 441.413 283.142 441.667 283.688 441.84C284.235 442.027 284.868 442.133 285.588 442.16V443.78C284.268 443.767 283.195 443.547 282.368 443.12C281.555 442.707 280.942 442.073 280.528 441.22C278.808 441.167 277.495 440.713 276.588 439.86C275.695 438.993 275.248 437.747 275.248 436.12V431.88C275.248 430.213 275.722 428.947 276.668 428.08C277.628 427.213 279.008 426.78 280.808 426.78C282.622 426.78 284.002 427.213 284.948 428.08C285.908 428.947 286.388 430.213 286.388 431.88V436.12ZM284.488 431.88C284.488 430.72 284.168 429.833 283.528 429.22C282.902 428.593 281.995 428.28 280.808 428.28C279.635 428.28 278.728 428.593 278.088 429.22C277.462 429.833 277.148 430.72 277.148 431.88V436.12C277.148 437.28 277.462 438.173 278.088 438.8C278.728 439.413 279.635 439.72 280.808 439.72C281.995 439.72 282.902 439.413 283.528 438.8C284.168 438.173 284.488 437.28 284.488 436.12V431.88ZM293.562 441C291.975 441 290.808 440.647 290.062 439.94C289.328 439.233 288.962 438.173 288.962 436.76V427H290.862V436.76C290.862 437.693 291.082 438.387 291.522 438.84C291.962 439.28 292.642 439.5 293.562 439.5H298.062V441H293.562Z" fill="black"/>
<path d="M4.04289 141.47C3.10956 141.47 2.33622 141.33 1.72289 141.05C1.12289 140.77 0.549557 140.317 0.00289064 139.69L1.12289 138.53C1.52289 139.05 1.94289 139.423 2.38289 139.65C2.82289 139.863 3.36289 139.97 4.00289 139.97C4.94956 139.97 5.66956 139.743 6.16289 139.29C6.65622 138.823 6.90289 138.157 6.90289 137.29V127.25H8.80289V137.31C8.80289 138.657 8.39622 139.69 7.58289 140.41C6.76956 141.117 5.58956 141.47 4.04289 141.47ZM19.2465 139.15C19.2465 139.43 19.2998 139.663 19.4065 139.85C19.5132 140.023 19.7065 140.217 19.9865 140.43L18.8065 141.47C18.1265 141.123 17.7132 140.63 17.5665 139.99C17.2465 140.443 16.7998 140.803 16.2265 141.07C15.6665 141.337 15.0198 141.47 14.2865 141.47C13.2865 141.47 12.5132 141.237 11.9665 140.77C11.4198 140.29 11.1465 139.603 11.1465 138.71C11.1465 137.79 11.4665 137.103 12.1065 136.65C12.7465 136.197 13.6265 135.91 14.7465 135.79L16.1065 135.63C16.6798 135.563 17.0532 135.463 17.2265 135.33C17.4132 135.183 17.4998 134.937 17.4865 134.59C17.4332 134.07 17.2198 133.657 16.8465 133.35C16.4865 133.043 15.9332 132.89 15.1865 132.89C14.6398 132.89 14.1732 132.983 13.7865 133.17C13.3998 133.343 13.0465 133.63 12.7265 134.03L11.5265 133.17C11.8598 132.663 12.3198 132.283 12.9065 132.03C13.5065 131.763 14.2665 131.63 15.1865 131.63C16.5332 131.63 17.5465 131.91 18.2265 132.47C18.9065 133.03 19.2465 133.843 19.2465 134.91V139.15ZM14.7065 140.17C15.5465 140.17 16.2198 139.95 16.7265 139.51C17.2465 139.07 17.5065 138.51 17.5065 137.83V136.49C17.1998 136.663 16.7265 136.777 16.0865 136.83L14.9065 136.95C13.5198 137.11 12.8265 137.677 12.8265 138.65C12.8265 139.143 12.9865 139.523 13.3065 139.79C13.6265 140.043 14.0932 140.17 14.7065 140.17ZM25.3571 141.47C24.7838 141.47 24.3304 141.31 23.9971 140.99C23.6638 140.67 23.3771 140.117 23.1371 139.33L20.8371 131.85H22.5371L24.7571 139.21C24.8638 139.57 24.9504 139.81 25.0171 139.93C25.0971 140.037 25.2038 140.09 25.3371 140.09C25.4704 140.09 25.5704 140.037 25.6371 139.93C25.7171 139.81 25.8104 139.57 25.9171 139.21L28.1171 131.85H29.8371L27.5571 139.33C27.3171 140.117 27.0304 140.67 26.6971 140.99C26.3771 141.31 25.9304 141.47 25.3571 141.47ZM39.0512 139.15C39.0512 139.43 39.1045 139.663 39.2112 139.85C39.3178 140.023 39.5112 140.217 39.7912 140.43L38.6112 141.47C37.9312 141.123 37.5178 140.63 37.3712 139.99C37.0512 140.443 36.6045 140.803 36.0312 141.07C35.4712 141.337 34.8245 141.47 34.0912 141.47C33.0912 141.47 32.3178 141.237 31.7712 140.77C31.2245 140.29 30.9512 139.603 30.9512 138.71C30.9512 137.79 31.2712 137.103 31.9112 136.65C32.5512 136.197 33.4312 135.91 34.5512 135.79L35.9112 135.63C36.4845 135.563 36.8578 135.463 37.0312 135.33C37.2178 135.183 37.3045 134.937 37.2912 134.59C37.2378 134.07 37.0245 133.657 36.6512 133.35C36.2912 133.043 35.7378 132.89 34.9912 132.89C34.4445 132.89 33.9778 132.983 33.5912 133.17C33.2045 133.343 32.8512 133.63 32.5312 134.03L31.3312 133.17C31.6645 132.663 32.1245 132.283 32.7112 132.03C33.3112 131.763 34.0712 131.63 34.9912 131.63C36.3378 131.63 37.3512 131.91 38.0312 132.47C38.7112 133.03 39.0512 133.843 39.0512 134.91V139.15ZM34.5112 140.17C35.3512 140.17 36.0245 139.95 36.5312 139.51C37.0512 139.07 37.3112 138.51 37.3112 137.83V136.49C37.0045 136.663 36.5312 136.777 35.8912 136.83L34.7112 136.95C33.3245 137.11 32.6312 137.677 32.6312 138.65C32.6312 139.143 32.7912 139.523 33.1112 139.79C33.4312 140.043 33.8978 140.17 34.5112 140.17Z" fill="black"/>
<g filter="url(#filter1_d_146_41)">
<circle cx="97.0774" cy="136.885" r="42.5" fill="#EEE7DB"/>
<circle cx="97.0774" cy="136.885" r="40" stroke="black" stroke-width="5"/>
</g>
<g filter="url(#filter2_d_146_41)">
<circle cx="353.5" cy="228.139" r="42.5" fill="#EEE7DB"/>
<circle cx="353.5" cy="228.139" r="40" stroke="black" stroke-width="5"/>
</g>
<g filter="url(#filter3_d_146_41)">
<circle cx="91.8145" cy="313.139" r="42.5" fill="#EEE7DB"/>
<circle cx="91.8145" cy="313.139" r="40" stroke="black" stroke-width="5"/>
</g>
<g filter="url(#filter4_d_146_41)">
<path d="M302.564 365.5C302.564 388.972 283.537 408 260.064 408C236.592 408 217.564 388.972 217.564 365.5C217.564 342.028 236.592 323 260.064 323C283.537 323 302.564 342.028 302.564 365.5Z" fill="#EEE7DB"/>
<path d="M300.064 365.5C300.064 387.591 282.156 405.5 260.064 405.5C237.973 405.5 220.064 387.591 220.064 365.5C220.064 343.409 237.973 325.5 260.064 325.5C282.156 325.5 300.064 343.409 300.064 365.5Z" stroke="black" stroke-width="5"/>
</g>
<g filter="url(#filter5_d_146_41)">
<path d="M302.564 90.75C302.564 114.222 283.537 133.25 260.064 133.25C236.592 133.25 217.564 114.222 217.564 90.75C217.564 67.2779 236.592 48.25 260.064 48.25C283.537 48.25 302.564 67.2779 302.564 90.75Z" fill="#EEE7DB"/>
<path d="M300.064 90.75C300.064 112.841 282.156 130.75 260.064 130.75C237.973 130.75 220.064 112.841 220.064 90.75C220.064 68.6586 237.973 50.75 260.064 50.75C282.156 50.75 300.064 68.6586 300.064 90.75Z" stroke="black" stroke-width="5"/>
</g>
<g clip-path="url(#clip0_146_41)">
<path d="M259.707 110.52C259.502 110.52 259.298 110.464 259.118 110.357L257.241 109.204C256.961 109.042 257.098 108.984 257.19 108.951C257.564 108.815 257.64 108.785 258.039 108.55C258.081 108.525 258.135 108.534 258.178 108.56L259.62 109.447C259.672 109.477 259.746 109.477 259.794 109.447L265.415 106.082C265.467 106.051 265.501 105.989 265.501 105.924V99.1964C265.501 99.1292 265.467 99.0694 265.414 99.0358L259.795 95.6733C259.743 95.6412 259.674 95.6412 259.622 95.6733L254.005 99.0358C253.95 99.0679 253.915 99.1307 253.915 99.1949V105.923C253.915 105.987 253.949 106.048 254.003 106.079L255.542 107.001C256.378 107.435 256.888 106.924 256.888 106.41V99.7699C256.888 99.6751 256.96 99.6021 257.052 99.6021H257.764C257.852 99.6021 257.925 99.6751 257.925 99.7699V106.413C257.925 107.569 257.318 108.233 256.261 108.233C255.936 108.233 255.68 108.233 254.965 107.868L253.491 106.987C253.126 106.768 252.901 106.359 252.901 105.923V99.1949C252.901 98.7571 253.126 98.3484 253.491 98.1324L259.117 94.7655C259.473 94.5568 259.946 94.5568 260.299 94.7655L265.919 98.1339C266.282 98.3514 266.508 98.7585 266.508 99.1964V105.924C266.508 106.361 266.282 106.768 265.919 106.987L260.299 110.354C260.119 110.462 259.915 110.517 259.707 110.517" fill="#689F63"/>
<path d="M261.444 105.884C258.984 105.884 258.468 104.713 258.468 103.731C258.468 103.638 258.541 103.563 258.631 103.563H259.357C259.437 103.563 259.505 103.624 259.518 103.706C259.627 104.473 259.954 104.86 261.441 104.86C262.626 104.86 263.13 104.583 263.13 103.931C263.13 103.556 262.986 103.277 261.146 103.09C259.606 102.933 258.655 102.581 258.655 101.304C258.655 100.128 259.612 99.4272 261.215 99.4272C263.014 99.4272 263.906 100.075 264.019 101.468C264.023 101.516 264.006 101.562 263.975 101.597C263.944 101.631 263.901 101.651 263.856 101.651H263.125C263.049 101.651 262.983 101.596 262.968 101.52C262.792 100.713 262.367 100.455 261.212 100.455C259.919 100.455 259.768 100.922 259.768 101.272C259.768 101.697 259.945 101.821 261.69 102.06C263.418 102.298 264.238 102.634 264.238 103.893C264.238 105.163 263.217 105.891 261.435 105.891M268.282 98.7559H268.471C268.625 98.7559 268.655 98.6435 268.655 98.5778C268.655 98.4056 268.541 98.4056 268.478 98.4056H268.284L268.282 98.7559ZM268.053 98.2042H268.471C268.614 98.2042 268.896 98.2042 268.896 98.537C268.896 98.769 268.752 98.8172 268.666 98.8464C268.834 98.858 268.845 98.9719 268.867 99.1324C268.879 99.2331 268.897 99.4068 268.931 99.4652H268.673C268.666 99.4068 268.627 99.0857 268.627 99.0682C268.61 98.9967 268.586 98.9617 268.5 98.9617H268.288V99.4666H268.053V98.2042ZM267.55 98.8318C267.55 99.3543 267.957 99.7775 268.457 99.7775C268.96 99.7775 269.367 99.3455 269.367 98.8318C269.367 98.3078 268.955 97.8919 268.455 97.8919C267.963 97.8919 267.549 98.302 267.549 98.8303M269.541 98.8347C269.541 99.4535 269.053 99.9585 268.458 99.9585C267.867 99.9585 267.375 99.4593 267.375 98.8347C267.375 98.1984 267.878 97.7109 268.458 97.7109C269.042 97.7109 269.54 98.1998 269.54 98.8347" fill="#689F63"/>
<path fill-rule="evenodd" clip-rule="evenodd" d="M242.301 84.195C242.301 83.9264 242.164 83.6798 241.941 83.5463L235.981 79.9896C235.881 79.9283 235.768 79.8962 235.654 79.8918H235.592C235.478 79.8962 235.365 79.9283 235.263 79.9896L229.304 83.5463C229.082 83.6805 228.943 83.9272 228.943 84.1957L228.956 93.7754C228.956 93.9082 229.022 94.0323 229.135 94.0979C229.245 94.168 229.382 94.168 229.492 94.0979L233.035 91.9934C233.259 91.8554 233.395 91.6114 233.395 91.3454V86.8701C233.395 86.603 233.532 86.3564 233.755 86.2236L235.263 85.3225C235.375 85.2554 235.498 85.2221 235.623 85.2221C235.747 85.2221 235.872 85.2551 235.981 85.3224L237.489 86.2231C237.712 86.3559 237.849 86.6026 237.849 86.8697V91.3447C237.849 91.6103 237.987 91.8555 238.21 91.9927L241.751 94.0957C241.862 94.1643 242 94.1643 242.111 94.0957C242.22 94.0301 242.289 93.906 242.289 93.7732L242.301 84.195ZM270.423 89.1827C270.423 89.2494 270.389 89.3111 270.333 89.3441L268.286 90.568C268.23 90.6011 268.162 90.6011 268.106 90.568L266.059 89.3441C266.003 89.311 265.969 89.2493 265.969 89.1827V86.7315C265.969 86.6646 266.003 86.603 266.058 86.5695L268.103 85.3435C268.16 85.31 268.229 85.31 268.285 85.3435L270.332 86.5695C270.388 86.603 270.422 86.6646 270.422 86.7315L270.423 89.1827ZM270.976 71.0271C270.864 70.9626 270.728 70.9644 270.618 71.0311C270.508 71.0982 270.44 71.2208 270.44 71.3536V80.8399C270.44 80.9333 270.393 81.0194 270.315 81.0661C270.237 81.1128 270.141 81.1128 270.063 81.0661L268.57 80.1742C268.348 80.0408 268.074 80.0408 267.851 80.1742L261.889 83.743C261.666 83.8758 261.529 84.1224 261.529 84.3881V91.5276C261.529 91.7947 261.666 92.0398 261.889 92.1741L267.851 95.7453C268.073 95.8781 268.347 95.8781 268.571 95.7453L274.532 92.1727C274.754 92.0384 274.892 91.7932 274.892 91.5261V73.7328C274.892 73.4619 274.75 73.2128 274.522 73.0804L270.976 71.0271ZM290.828 86.667C291.05 86.5336 291.186 86.2872 291.186 86.0216V84.2913C291.186 84.0251 291.049 83.7795 290.828 83.6455L284.904 80.0786C284.68 79.9444 284.406 79.9444 284.182 80.0786L278.222 83.647C277.998 83.7812 277.862 84.0264 277.862 84.2935V91.4301C277.862 91.6986 278.001 91.9467 278.225 92.0795L284.147 95.5807C284.365 95.7106 284.632 95.7121 284.853 95.5851L288.436 93.52C288.548 93.4543 288.62 93.3303 288.62 93.196C288.62 93.0617 288.551 92.9362 288.438 92.8706L282.442 89.3008C282.329 89.2351 282.26 89.1111 282.26 88.9783V86.7395C282.26 86.6058 282.328 86.4826 282.44 86.4161L284.306 85.2996C284.417 85.2325 284.554 85.2325 284.665 85.2996L286.532 86.4161C286.643 86.4818 286.712 86.6058 286.712 86.7386V88.4987C286.712 88.6315 286.781 88.7555 286.892 88.8227C287.003 88.8884 287.141 88.8884 287.252 88.8212L290.828 86.667Z" fill="#333333"/>
<path fill-rule="evenodd" clip-rule="evenodd" d="M284.456 86.3331C284.498 86.3073 284.551 86.3073 284.594 86.3331L285.738 87.0176C285.78 87.0433 285.807 87.0905 285.807 87.1416V88.512C285.807 88.5631 285.78 88.6104 285.738 88.6361L284.594 89.3205C284.551 89.3464 284.498 89.3464 284.456 89.3205L283.313 88.6361C283.269 88.6104 283.242 88.5631 283.242 88.512V87.1416C283.242 87.0905 283.268 87.0433 283.311 87.0176L284.456 86.3331Z" fill="#689F63"/>
<mask id="mask0_146_41" style="mask-type:luminance" maskUnits="userSpaceOnUse" x="245" y="80" width="14" height="16">
<path d="M251.557 80.1143L245.63 83.6632C245.408 83.796 245.271 84.0411 245.271 84.3062V91.4089C245.271 91.6741 245.408 91.9192 245.63 92.052L251.558 95.6036C251.779 95.736 252.053 95.736 252.274 95.6036L258.201 92.052C258.422 91.9192 258.559 91.674 258.559 91.4089V84.3062C258.559 84.0411 258.422 83.796 258.2 83.6632L252.273 80.1143C252.162 80.0481 252.038 80.015 251.915 80.015C251.791 80.015 251.667 80.0481 251.556 80.1143" fill="white"/>
</mask>
<g mask="url(#mask0_146_41)">
<path d="M264.549 83.0605L247.845 74.5681L239.281 92.6905L255.984 101.183L264.549 83.0605Z" fill="url(#paint0_linear_146_41)"/>
</g>
<mask id="mask1_146_41" style="mask-type:luminance" maskUnits="userSpaceOnUse" x="245" y="80" width="14" height="16">
<path d="M245.418 91.8599C245.475 91.9362 245.546 92.0023 245.629 92.0519L250.714 95.0985L251.561 95.6035C251.688 95.6794 251.832 95.7115 251.974 95.7005C252.021 95.6966 252.069 95.6874 252.115 95.6738L258.367 83.7999C258.319 83.7459 258.263 83.7006 258.2 83.6627L254.319 81.3378L252.267 80.1134C252.209 80.0783 252.146 80.0535 252.081 80.036L245.418 91.8599Z" fill="white"/>
</mask>
<g mask="url(#mask1_146_41)">
<path d="M238.196 85.5723L249.991 102.13L265.589 90.1764L253.794 73.6191L238.196 85.5723Z" fill="url(#paint1_linear_146_41)"/>
</g>
<mask id="mask2_146_41" style="mask-type:luminance" maskUnits="userSpaceOnUse" x="245" y="80" width="14" height="16">
<path d="M251.844 80.0191C251.744 80.0293 251.647 80.0615 251.558 80.1143L245.647 83.653L252.02 95.6947C252.109 95.6816 252.196 95.6509 252.275 95.6037L258.203 92.052C258.386 91.9419 258.511 91.7557 258.549 91.5447L252.051 80.0312C252.004 80.0215 251.956 80.0164 251.906 80.0164C251.887 80.0164 251.867 80.0174 251.847 80.0193" fill="white"/>
</mask>
<g mask="url(#mask2_146_41)">
<path d="M245.646 80.0164V95.695H258.547V80.0164H245.646Z" fill="url(#paint2_linear_146_41)"/>
</g>
</g>
<path d="M242.272 20.0641V31.5841C242.272 32.4108 242.098 33.0308 241.752 33.4441C241.418 33.8574 240.885 34.0641 240.152 34.0641H238.812L233.052 22.9841V34.0641H231.252V20.0641H233.452L239.792 32.4241H239.912C240.125 32.4241 240.272 32.3441 240.352 32.1841C240.432 32.0241 240.472 31.7308 240.472 31.3041V20.0641H242.272ZM249.065 34.2841C247.758 34.2841 246.745 33.9708 246.025 33.3441C245.318 32.7041 244.965 31.8041 244.965 30.6441V28.0841C244.965 26.9241 245.318 26.0308 246.025 25.4041C246.745 24.7641 247.758 24.4441 249.065 24.4441C250.372 24.4441 251.378 24.7641 252.085 25.4041C252.792 26.0308 253.145 26.9241 253.145 28.0841V30.6441C253.145 31.8041 252.792 32.7041 252.085 33.3441C251.378 33.9708 250.372 34.2841 249.065 34.2841ZM249.065 32.9041C249.798 32.9041 250.365 32.7108 250.765 32.3241C251.178 31.9241 251.385 31.3641 251.385 30.6441V28.0841C251.385 27.3641 251.178 26.8108 250.765 26.4241C250.365 26.0241 249.798 25.8241 249.065 25.8241C248.318 25.8241 247.738 26.0241 247.325 26.4241C246.925 26.8108 246.725 27.3641 246.725 28.0841V30.6441C246.725 31.3641 246.925 31.9241 247.325 32.3241C247.738 32.7108 248.318 32.9041 249.065 32.9041ZM264.156 31.9641C264.156 32.2441 264.209 32.4774 264.316 32.6641C264.423 32.8374 264.616 33.0308 264.896 33.2441L263.716 34.2841C263.089 33.9508 262.683 33.4174 262.496 32.6841C261.829 33.7508 260.783 34.2841 259.356 34.2841C258.529 34.2841 257.803 34.0974 257.176 33.7241C256.563 33.3374 256.083 32.7974 255.736 32.1041C255.403 31.4108 255.236 30.6041 255.236 29.6841V29.0441C255.236 28.1508 255.396 27.3574 255.716 26.6641C256.049 25.9708 256.523 25.4308 257.136 25.0441C257.763 24.6441 258.503 24.4441 259.356 24.4441C260.716 24.4441 261.729 24.9108 262.396 25.8441V21.7441C262.396 21.4641 262.343 21.2374 262.236 21.0641C262.143 20.8908 261.949 20.6841 261.656 20.4441L262.856 19.4041C263.349 19.6708 263.689 19.9774 263.876 20.3241C264.063 20.6574 264.156 21.1308 264.156 21.7441V31.9641ZM262.396 27.8041C262.183 27.1374 261.856 26.6441 261.416 26.3241C260.989 25.9908 260.436 25.8241 259.756 25.8241C258.916 25.8241 258.243 26.1241 257.736 26.7241C257.243 27.3241 256.996 28.0974 256.996 29.0441V29.6841C256.996 30.6308 257.243 31.4041 257.736 32.0041C258.229 32.6041 258.903 32.9041 259.756 32.9041C260.436 32.9041 260.989 32.7441 261.416 32.4241C261.856 32.0908 262.183 31.5908 262.396 30.9241V27.8041ZM270.903 32.9241C271.45 32.9241 271.917 32.8441 272.303 32.6841C272.703 32.5241 273.09 32.2641 273.463 31.9041L274.543 32.8841C274.143 33.3641 273.643 33.7174 273.043 33.9441C272.457 34.1708 271.73 34.2841 270.863 34.2841C269.49 34.2841 268.45 33.9908 267.743 33.4041C267.05 32.8041 266.703 31.9174 266.703 30.7441V27.7641C266.703 26.7374 267.057 25.9308 267.763 25.3441C268.483 24.7441 269.463 24.4441 270.703 24.4441C271.983 24.4441 272.97 24.7574 273.663 25.3841C274.37 26.0108 274.723 26.9108 274.723 28.0841C274.723 28.8708 274.583 29.4108 274.303 29.7041C274.037 29.9974 273.517 30.1441 272.743 30.1441H268.463V30.7641C268.463 31.4841 268.663 32.0241 269.063 32.3841C269.463 32.7441 270.077 32.9241 270.903 32.9241ZM270.703 25.8041C269.997 25.8041 269.443 25.9908 269.043 26.3641C268.657 26.7374 268.463 27.2441 268.463 27.8841V28.8841H271.883C272.297 28.8841 272.577 28.8174 272.723 28.6841C272.883 28.5508 272.963 28.2974 272.963 27.9241C272.963 27.2574 272.763 26.7374 272.363 26.3641C271.963 25.9908 271.41 25.8041 270.703 25.8041ZM277.75 34.2841C277.416 34.2841 277.136 34.1708 276.91 33.9441C276.683 33.7174 276.57 33.4374 276.57 33.1041C276.57 32.7708 276.683 32.4908 276.91 32.2641C277.136 32.0241 277.416 31.9041 277.75 31.9041C278.083 31.9041 278.363 32.0241 278.59 32.2641C278.816 32.4908 278.93 32.7708 278.93 33.1041C278.93 33.4374 278.816 33.7174 278.59 33.9441C278.363 34.1708 278.083 34.2841 277.75 34.2841ZM282.153 22.8241C281.846 22.8241 281.579 22.7174 281.353 22.5041C281.139 22.2774 281.033 22.0108 281.033 21.7041C281.033 21.3974 281.146 21.1374 281.373 20.9241C281.599 20.6974 281.859 20.5841 282.153 20.5841C282.459 20.5841 282.719 20.6974 282.933 20.9241C283.159 21.1374 283.273 21.3974 283.273 21.7041C283.273 22.0108 283.159 22.2774 282.933 22.5041C282.719 22.7174 282.459 22.8241 282.153 22.8241ZM278.173 37.2441H279.153C279.886 37.2441 280.419 37.0574 280.753 36.6841C281.099 36.3241 281.273 35.7508 281.273 34.9641V24.6641H283.033V34.9641C283.033 36.2574 282.726 37.1908 282.113 37.7641C281.513 38.3374 280.526 38.6241 279.153 38.6241H278.173V37.2441ZM288.792 34.2841C287.912 34.2841 287.198 34.1574 286.652 33.9041C286.118 33.6374 285.625 33.2108 285.172 32.6241L286.292 31.6641C286.678 32.1174 287.052 32.4374 287.412 32.6241C287.785 32.8108 288.245 32.9041 288.792 32.9041C290.245 32.9041 290.972 32.4441 290.972 31.5241C290.972 31.2308 290.892 30.9974 290.732 30.8241C290.585 30.6374 290.318 30.4841 289.932 30.3641C289.558 30.2308 288.992 30.0974 288.232 29.9641C287.298 29.7774 286.598 29.4574 286.132 29.0041C285.665 28.5374 285.432 27.9241 285.432 27.1641C285.432 26.3108 285.745 25.6441 286.372 25.1641C286.998 24.6841 287.858 24.4441 288.952 24.4441C290.565 24.4441 291.698 24.9574 292.352 25.9841L291.232 26.9241C290.912 26.5374 290.572 26.2574 290.212 26.0841C289.865 25.9108 289.445 25.8241 288.952 25.8241C288.365 25.8241 287.912 25.9441 287.592 26.1841C287.272 26.4241 287.112 26.7574 287.112 27.1841C287.112 27.5708 287.265 27.8708 287.572 28.0841C287.878 28.2841 288.365 28.4508 289.032 28.5841C289.912 28.7841 290.605 28.9974 291.112 29.2241C291.618 29.4374 291.998 29.7308 292.252 30.1041C292.505 30.4641 292.632 30.9441 292.632 31.5441C292.632 33.3708 291.352 34.2841 288.792 34.2841Z" fill="black"/>
<path d="M51.7603 372.5H52.8203C53.5669 372.5 54.1403 372.66 54.5403 372.98C54.9536 373.3 55.3803 373.893 55.8203 374.76L58.1803 379.3L60.5403 374.76C60.9803 373.893 61.4003 373.3 61.8003 372.98C62.2136 372.66 62.7936 372.5 63.5403 372.5H64.6003V386.5H62.8403V374.44C62.6669 374.453 62.5136 374.527 62.3803 374.66C62.2603 374.78 62.1136 374.993 61.9403 375.3L58.1803 382.36L54.4203 375.3C54.2603 374.993 54.1136 374.78 53.9803 374.66C53.8469 374.527 53.6936 374.453 53.5203 374.44V386.5H51.7603V372.5ZM71.6437 386.72C70.337 386.72 69.3237 386.407 68.6037 385.78C67.897 385.14 67.5437 384.24 67.5437 383.08V380.52C67.5437 379.36 67.897 378.467 68.6037 377.84C69.3237 377.2 70.337 376.88 71.6437 376.88C72.9504 376.88 73.957 377.2 74.6637 377.84C75.3704 378.467 75.7237 379.36 75.7237 380.52V383.08C75.7237 384.24 75.3704 385.14 74.6637 385.78C73.957 386.407 72.9504 386.72 71.6437 386.72ZM71.6437 385.34C72.377 385.34 72.9437 385.147 73.3437 384.76C73.757 384.36 73.9637 383.8 73.9637 383.08V380.52C73.9637 379.8 73.757 379.247 73.3437 378.86C72.9437 378.46 72.377 378.26 71.6437 378.26C70.897 378.26 70.317 378.46 69.9037 378.86C69.5037 379.247 69.3037 379.8 69.3037 380.52V383.08C69.3037 383.8 69.5037 384.36 69.9037 384.76C70.317 385.147 70.897 385.34 71.6437 385.34ZM83.2171 376.88C84.1905 376.88 84.9438 377.16 85.4771 377.72C86.0238 378.28 86.2971 379.067 86.2971 380.08V386.5H84.5371V380.3C84.5371 379.66 84.3771 379.16 84.0571 378.8C83.7371 378.44 83.2971 378.26 82.7371 378.26C82.1105 378.26 81.5705 378.48 81.1171 378.92C80.6638 379.36 80.3305 379.953 80.1171 380.7V386.5H78.3571V379.2C78.3571 378.92 78.3038 378.693 78.1971 378.52C78.0905 378.333 77.8971 378.133 77.6171 377.92L78.7771 376.88C79.2038 377.12 79.5171 377.373 79.7171 377.64C79.9171 377.907 80.0438 378.253 80.0971 378.68C80.4038 378.12 80.8238 377.68 81.3571 377.36C81.8905 377.04 82.5105 376.88 83.2171 376.88ZM98.1584 377.92C97.8784 378.133 97.6851 378.333 97.5784 378.52C97.4717 378.693 97.4184 378.92 97.4184 379.2V387.06C97.4184 388.233 97.1051 389.1 96.4784 389.66C95.8517 390.22 94.8717 390.5 93.5384 390.5H91.0584V389.12H93.5384C94.2451 389.12 94.7717 388.947 95.1184 388.6C95.4784 388.267 95.6584 387.753 95.6584 387.06V385.06C95.0051 386.02 93.9917 386.5 92.6184 386.5C91.3517 386.5 90.3451 386.087 89.5984 385.26C88.8651 384.433 88.4984 383.313 88.4984 381.9V381.48C88.4984 380.587 88.6584 379.793 88.9784 379.1C89.3117 378.407 89.7851 377.867 90.3984 377.48C91.0251 377.08 91.7651 376.88 92.6184 376.88C93.2984 376.88 93.9051 377.013 94.4384 377.28C94.9717 377.547 95.4184 377.933 95.7784 378.44C95.8317 378.093 95.9451 377.8 96.1184 377.56C96.2917 377.32 96.5784 377.093 96.9784 376.88L98.1584 377.92ZM93.0184 385.12C93.7117 385.12 94.2717 384.953 94.6984 384.62C95.1251 384.287 95.4451 383.78 95.6584 383.1V380.26C95.4451 379.58 95.1184 379.08 94.6784 378.76C94.2517 378.427 93.6984 378.26 93.0184 378.26C92.1784 378.26 91.5051 378.56 90.9984 379.16C90.5051 379.76 90.2584 380.533 90.2584 381.48V381.9C90.2584 382.847 90.5051 383.62 90.9984 384.22C91.4917 384.82 92.1651 385.12 93.0184 385.12ZM104.066 386.72C102.759 386.72 101.746 386.407 101.026 385.78C100.319 385.14 99.9656 384.24 99.9656 383.08V380.52C99.9656 379.36 100.319 378.467 101.026 377.84C101.746 377.2 102.759 376.88 104.066 376.88C105.372 376.88 106.379 377.2 107.086 377.84C107.792 378.467 108.146 379.36 108.146 380.52V383.08C108.146 384.24 107.792 385.14 107.086 385.78C106.379 386.407 105.372 386.72 104.066 386.72ZM104.066 385.34C104.799 385.34 105.366 385.147 105.766 384.76C106.179 384.36 106.386 383.8 106.386 383.08V380.52C106.386 379.8 106.179 379.247 105.766 378.86C105.366 378.46 104.799 378.26 104.066 378.26C103.319 378.26 102.739 378.46 102.326 378.86C101.926 379.247 101.726 379.8 101.726 380.52V383.08C101.726 383.8 101.926 384.36 102.326 384.76C102.739 385.147 103.319 385.34 104.066 385.34ZM111.077 372.5H116.117C117.623 372.5 118.817 372.727 119.697 373.18C120.577 373.633 121.21 374.367 121.597 375.38C121.997 376.393 122.197 377.767 122.197 379.5C122.197 381.247 121.997 382.627 121.597 383.64C121.21 384.64 120.577 385.367 119.697 385.82C118.817 386.273 117.623 386.5 116.117 386.5H111.077V372.5ZM116.117 385C117.143 385 117.957 384.82 118.557 384.46C119.17 384.1 119.61 383.527 119.877 382.74C120.157 381.94 120.297 380.867 120.297 379.52C120.297 378.16 120.157 377.08 119.877 376.28C119.61 375.48 119.17 374.9 118.557 374.54C117.957 374.18 117.143 374 116.117 374H112.977V385H116.117ZM129.779 386.72C128.392 386.72 127.372 386.253 126.719 385.32V386.5H124.959V374.18C124.959 373.887 124.905 373.653 124.799 373.48C124.705 373.307 124.512 373.107 124.219 372.88L125.379 371.84C125.885 372.107 126.232 372.413 126.419 372.76C126.619 373.093 126.719 373.567 126.719 374.18V378.32C127.399 377.36 128.412 376.88 129.759 376.88C130.599 376.88 131.325 377.08 131.939 377.48C132.565 377.867 133.045 378.407 133.379 379.1C133.712 379.793 133.879 380.587 133.879 381.48V382.12C133.879 383.013 133.712 383.807 133.379 384.5C133.059 385.193 132.585 385.74 131.959 386.14C131.345 386.527 130.619 386.72 129.779 386.72ZM129.359 385.34C130.199 385.34 130.865 385.04 131.359 384.44C131.865 383.84 132.119 383.067 132.119 382.12V381.48C132.119 380.533 131.865 379.76 131.359 379.16C130.865 378.56 130.199 378.26 129.359 378.26C127.999 378.26 127.119 378.92 126.719 380.24V383.36C127.119 384.68 127.999 385.34 129.359 385.34Z" fill="black"/>
<path d="M371 238.124C369.727 238.46 368.939 238.139 368.233 237.038L363.208 229.828L362.482 228.829L356.614 237.062C355.943 238.053 355.24 238.484 353.989 238.133L361.503 227.671L354.507 218.221C355.71 217.978 356.542 218.102 357.28 219.219L362.492 226.52L367.742 219.259C368.414 218.268 369.137 217.892 370.345 218.257L367.632 221.987L363.957 226.951C363.52 227.518 363.58 227.906 363.983 228.454L371 238.124ZM336.009 227.496L336.623 224.361C338.297 218.155 345.155 215.576 349.884 219.411C352.648 221.666 353.335 224.856 353.198 228.43H337.619C337.385 234.863 341.848 238.745 347.539 236.764C349.535 236.068 350.711 234.447 351.299 232.419C351.598 231.402 352.092 231.244 353.013 231.534C352.543 234.071 351.482 236.19 349.24 237.516C345.89 239.501 341.108 238.859 338.592 236.1C337.094 234.499 336.475 232.471 336.197 230.302C336.153 229.943 336.066 229.602 336 229.258C336.006 228.671 336.009 228.083 336.009 227.496ZM337.647 227.065H351.726C351.634 222.414 348.842 219.11 345.026 219.082C340.837 219.048 337.829 222.273 337.647 227.065Z" fill="black"/>
<g clip-path="url(#clip1_146_41)">
<path d="M67.1686 309.457C66.2742 305.445 64.41 304.377 63.9344 303.621C63.7383 303.289 63.5646 302.943 63.4145 302.587C63.3893 302.943 63.3432 303.168 63.0452 303.438C62.447 303.98 59.9063 306.086 59.6924 310.645C59.4932 314.895 62.7654 317.517 63.1977 317.787C63.5301 317.954 63.935 317.791 64.1325 317.638C65.7098 316.537 67.865 313.603 67.1704 309.457" fill="#10AA50"/>
<path d="M63.55 315.524C63.4676 316.576 63.4086 317.187 63.1995 317.789C63.1995 317.789 63.3368 318.79 63.4331 319.851H63.7743C63.8557 319.104 63.98 318.362 64.1465 317.63C63.7048 317.409 63.5669 316.447 63.55 315.524Z" fill="#B8C4C2"/>
<path d="M64.1459 317.63C63.6995 317.421 63.5704 316.439 63.5506 315.524C63.6609 314.015 63.6931 312.501 63.647 310.988C63.6236 310.194 63.6581 303.637 63.4548 302.677C63.5938 303.002 63.7541 303.317 63.9344 303.621C64.4099 304.376 66.2747 305.445 67.1686 309.457C67.865 313.595 65.7215 316.523 64.1459 317.63Z" fill="#12924F"/>
<path d="M122.976 316.18C122.785 316.18 122.598 316.122 122.439 316.015C122.28 315.907 122.156 315.754 122.082 315.574C122.008 315.395 121.988 315.198 122.025 315.007C122.061 314.816 122.152 314.64 122.286 314.502C122.42 314.364 122.592 314.269 122.779 314.229C122.966 314.19 123.16 314.207 123.338 314.28C123.515 314.352 123.667 314.476 123.775 314.637C123.883 314.797 123.943 314.986 123.945 315.181C123.949 315.312 123.926 315.442 123.879 315.564C123.831 315.686 123.76 315.797 123.67 315.89C123.579 315.983 123.471 316.057 123.352 316.107C123.233 316.157 123.105 316.182 122.976 316.18ZM122.976 314.298C122.801 314.297 122.63 314.348 122.485 314.446C122.339 314.544 122.225 314.683 122.157 314.847C122.089 315.01 122.071 315.191 122.104 315.365C122.137 315.54 122.221 315.7 122.344 315.826C122.466 315.952 122.623 316.039 122.794 316.074C122.966 316.109 123.143 316.092 123.305 316.025C123.466 315.957 123.605 315.843 123.702 315.696C123.8 315.548 123.852 315.375 123.852 315.197C123.855 315.079 123.834 314.962 123.79 314.852C123.747 314.743 123.683 314.643 123.601 314.559C123.52 314.475 123.422 314.409 123.315 314.364C123.207 314.319 123.092 314.297 122.976 314.298ZM123.21 315.817L122.96 315.269H122.758V315.817H122.611V314.57H122.973C123.242 314.57 123.355 314.689 123.355 314.919C123.355 315.102 123.27 315.216 123.112 315.251L123.37 315.816L123.21 315.817ZM122.764 315.14H122.976C123.148 315.14 123.213 315.081 123.213 314.922C123.213 314.762 123.151 314.708 122.957 314.708H122.764V315.14Z" fill="#21313C"/>
<path d="M108.551 315.281C108.814 315.495 109.338 315.583 109.8 315.583C110.399 315.583 110.986 315.47 111.559 314.943C112.144 314.403 112.545 313.576 112.545 312.257C112.545 310.989 112.071 309.96 111.098 309.358C110.549 309.007 109.837 308.868 109.026 308.868C108.792 308.868 108.551 308.881 108.415 308.944C108.358 308.989 108.319 309.051 108.302 309.122C108.277 309.348 108.277 311.067 108.277 312.084C108.277 313.126 108.277 314.579 108.302 314.757C108.315 314.908 108.389 315.173 108.551 315.284M106.06 308.304C106.272 308.304 107.078 308.341 107.454 308.341C108.155 308.341 108.639 308.304 109.949 308.304C111.048 308.304 111.972 308.605 112.633 309.182C113.432 309.885 113.859 310.864 113.859 312.056C113.859 313.751 113.1 314.73 112.336 315.281C111.577 315.859 110.589 316.185 109.182 316.185C108.433 316.185 107.147 316.16 106.074 316.148H106.051C106.001 316.047 106.143 315.656 106.231 315.646C106.523 315.612 106.6 315.601 106.734 315.544C106.961 315.45 107.014 315.332 107.039 314.918C107.077 314.14 107.064 313.211 107.064 312.157C107.064 311.404 107.077 309.935 107.052 309.471C107.014 309.082 106.853 308.982 106.526 308.906C106.295 308.856 106.061 308.819 105.825 308.793C105.801 308.718 105.992 308.378 106.055 308.304" fill="#21313C"/>
<path d="M116.953 308.941C116.903 308.953 116.841 309.079 116.841 309.142C116.828 309.594 116.816 310.773 116.816 311.589C116.819 311.604 116.826 311.619 116.837 311.63C116.849 311.641 116.863 311.649 116.878 311.652C117.04 311.664 117.439 311.677 117.777 311.677C118.251 311.677 118.525 311.614 118.675 311.539C119.075 311.338 119.259 310.898 119.259 310.422C119.259 309.33 118.51 308.916 117.4 308.916C117.25 308.914 117.099 308.922 116.95 308.941M119.784 313.961C119.784 312.856 118.985 312.229 117.524 312.229C117.462 312.229 116.998 312.217 116.888 312.242C116.851 312.254 116.813 312.279 116.813 312.305C116.813 313.095 116.8 314.362 116.838 314.864C116.863 315.078 117.014 315.379 117.2 315.467C117.4 315.58 117.849 315.605 118.161 315.605C119.022 315.605 119.784 315.116 119.784 313.961ZM114.698 308.326C114.81 308.326 115.142 308.363 115.991 308.363C116.79 308.363 117.439 308.338 118.211 308.338C119.172 308.338 120.495 308.69 120.495 310.146C120.495 310.859 119.996 311.438 119.347 311.715C119.31 311.727 119.31 311.752 119.347 311.764C120.271 312.002 121.081 312.58 121.081 313.685C121.081 314.764 120.42 315.442 119.459 315.868C118.875 316.132 118.149 316.22 117.414 316.22C116.853 316.22 115.348 316.16 114.511 316.17C114.424 316.132 114.591 315.73 114.666 315.668C114.858 315.662 115.048 315.631 115.232 315.577C115.531 315.502 115.567 315.404 115.604 314.952C115.63 314.563 115.63 313.17 115.63 312.179C115.63 310.823 115.642 309.907 115.63 309.455C115.617 309.104 115.492 308.991 115.255 308.928C115.068 308.89 114.756 308.853 114.507 308.815C114.444 308.752 114.636 308.376 114.698 308.326" fill="#21313C"/>
<path d="M69.9325 316.18C69.9004 316.099 69.8873 316.012 69.8945 315.926C69.8917 315.867 69.9049 315.809 69.9325 315.757C70.0939 315.733 70.2539 315.7 70.4116 315.658C70.6324 315.602 70.7153 315.479 70.7282 315.193C70.7644 314.516 70.7668 313.247 70.7539 312.354V312.328C70.7539 312.232 70.7539 312.101 70.6371 312.009C70.4317 311.878 70.2087 311.778 69.9751 311.712C69.8706 311.681 69.8127 311.625 69.8157 311.56C69.8186 311.494 69.8846 311.417 70.0207 311.39C70.3823 311.352 71.3299 311.122 71.7021 310.948C71.7404 310.998 71.7582 311.062 71.7517 311.126C71.7517 311.165 71.7459 311.207 71.7418 311.249C71.7313 311.375 71.7196 311.519 71.7196 311.661C71.7219 311.678 71.7289 311.695 71.7398 311.708C71.7507 311.722 71.7651 311.732 71.7814 311.738C71.7977 311.743 71.8152 311.744 71.8319 311.74C71.8487 311.736 71.864 311.728 71.8762 311.715C72.5848 311.15 73.2199 310.949 73.5453 310.949C74.081 310.949 74.4981 311.209 74.8212 311.745C74.8286 311.758 74.8391 311.769 74.8518 311.776C74.8645 311.784 74.8789 311.788 74.8936 311.788C74.907 311.788 74.9202 311.785 74.932 311.778C74.9438 311.772 74.9539 311.763 74.9614 311.751C75.6128 311.249 76.2583 310.949 76.6907 310.949C77.7119 310.949 78.3224 311.726 78.3224 313.028C78.3224 313.402 78.3189 313.877 78.3154 314.32C78.3124 314.708 78.3095 315.072 78.3095 315.324C78.3095 315.384 78.3901 315.555 78.5111 315.589C78.6606 315.663 78.8762 315.701 79.149 315.748H79.1595C79.18 315.823 79.1368 316.114 79.0953 316.173C79.0275 316.173 78.934 316.167 78.8172 316.161C78.6051 316.151 78.3142 316.136 77.9759 316.136C77.2971 316.136 76.9425 316.149 76.6036 316.171C76.5779 316.085 76.5691 315.807 76.6001 315.749C76.7404 315.727 76.8793 315.696 77.0161 315.657C77.2322 315.584 77.2947 315.485 77.3082 315.193C77.3134 314.986 77.3526 313.159 77.2831 312.725C77.2188 312.275 76.8858 311.749 76.1573 311.749C75.8868 311.749 75.4504 311.864 75.0344 312.185C75.0086 312.214 74.9941 312.252 74.9935 312.292V312.301C75.0426 312.535 75.0426 312.808 75.0426 313.221C75.0426 313.459 75.0426 313.707 75.0397 313.954C75.0368 314.458 75.0344 314.933 75.0426 315.293C75.0426 315.538 75.1881 315.596 75.3055 315.643C75.3692 315.658 75.4194 315.67 75.4702 315.682C75.5678 315.706 75.6695 315.731 75.8208 315.756C75.8432 315.86 75.8412 315.968 75.8149 316.072C75.8087 316.11 75.7937 316.147 75.7711 316.179C75.3937 316.166 75.0064 316.155 74.4473 316.155C74.2779 316.155 74.0015 316.162 73.7573 316.168C73.5593 316.174 73.3723 316.179 73.266 316.18C73.2373 316.111 73.2245 316.036 73.2286 315.961C73.2227 315.891 73.2362 315.82 73.2678 315.757L73.4179 315.729C73.5488 315.705 73.6621 315.685 73.7684 315.658C73.953 315.598 74.0226 315.496 74.036 315.257C74.0722 314.698 74.1003 313.089 74.0226 312.686C73.8905 312.04 73.5289 311.712 72.947 311.712C72.6064 311.712 72.1759 311.879 71.8242 312.146C71.7903 312.18 71.7637 312.22 71.7459 312.265C71.7281 312.309 71.7196 312.357 71.7208 312.405C71.7208 312.597 71.7208 312.825 71.7208 313.07C71.7208 313.878 71.7155 314.883 71.7348 315.318C71.7465 315.453 71.7932 315.612 72.0403 315.67C72.0947 315.686 72.1881 315.702 72.2968 315.72C72.3593 315.731 72.4277 315.742 72.4984 315.755C72.5208 315.897 72.5094 316.043 72.4651 316.18C72.3564 316.18 72.2226 316.173 72.0695 316.166C71.8359 316.155 71.5438 316.142 71.2137 316.142C70.8234 316.142 70.5518 316.155 70.3339 316.166C70.1872 316.173 70.0604 316.179 69.9337 316.18" fill="#21313C"/>
<path d="M82.4609 311.486C82.2501 311.481 82.0427 311.541 81.865 311.656C81.4315 311.924 81.2107 312.46 81.2107 313.246C81.2107 314.718 81.9357 315.747 82.9739 315.747C83.2522 315.756 83.5237 315.658 83.7345 315.473C84.0535 315.208 84.2229 314.668 84.2229 313.911C84.2229 312.461 83.5143 311.486 82.4598 311.486M82.6596 316.293C80.7842 316.293 80.1165 314.894 80.1165 313.585C80.1165 312.67 80.484 311.956 81.209 311.46C81.7168 311.14 82.2996 310.965 82.8967 310.952C84.3275 310.952 85.3271 311.999 85.3271 313.497C85.3271 314.516 84.9281 315.32 84.1727 315.823C83.8099 316.048 83.1795 316.293 82.6596 316.293Z" fill="#21313C"/>
<path d="M101.553 311.486C101.342 311.481 101.134 311.54 100.956 311.656C100.522 311.924 100.302 312.46 100.302 313.246C100.302 314.718 101.027 315.747 102.065 315.747C102.344 315.756 102.616 315.658 102.828 315.473C103.147 315.208 103.316 314.668 103.316 313.911C103.316 312.461 102.607 311.486 101.553 311.486ZM101.753 316.293C99.8775 316.293 99.2097 314.894 99.2097 313.585C99.2097 312.67 99.5772 311.956 100.303 311.46C100.81 311.14 101.393 310.965 101.99 310.952C103.421 310.952 104.42 311.999 104.42 313.497C104.42 314.516 104.021 315.32 103.266 315.822C102.903 316.048 102.273 316.293 101.753 316.293Z" fill="#21313C"/>
<path d="M95.2388 311.436C94.661 311.436 94.2871 311.9 94.2871 312.618C94.2871 313.336 94.609 314.19 95.514 314.19C95.6694 314.19 95.951 314.12 96.0906 313.964C96.3009 313.767 96.4411 313.361 96.4411 312.932C96.4411 311.995 95.9924 311.436 95.2417 311.436M95.167 316.393C95.0037 316.391 94.8428 316.432 94.6996 316.512C94.2421 316.809 94.0301 317.106 94.0301 317.451C94.0301 317.774 94.1533 318.032 94.4186 318.26C94.7399 318.536 95.1734 318.671 95.743 318.671C96.8641 318.671 97.3665 318.058 97.3665 317.451C97.3665 317.028 97.1579 316.745 96.7285 316.584C96.3979 316.461 95.8452 316.394 95.1687 316.394M95.2435 319.305C94.5705 319.305 94.0856 319.16 93.6714 318.836C93.2683 318.52 93.0872 318.051 93.0872 317.726C93.0915 317.517 93.1699 317.317 93.308 317.162C93.4248 317.026 93.6965 316.773 94.3245 316.334C94.3343 316.329 94.3426 316.322 94.3484 316.313C94.3542 316.304 94.3573 316.294 94.3572 316.283C94.3574 316.271 94.3536 316.259 94.3464 316.25C94.3392 316.24 94.329 316.234 94.3175 316.231C93.8005 316.029 93.6445 315.696 93.5972 315.518C93.5972 315.511 93.5972 315.501 93.5919 315.49C93.5773 315.42 93.5633 315.353 93.6573 315.285C93.7298 315.233 93.8455 315.163 93.9693 315.088C94.1442 314.99 94.3119 314.879 94.4712 314.756C94.4797 314.747 94.4861 314.736 94.4897 314.723C94.4933 314.711 94.4942 314.698 94.4921 314.686C94.4901 314.673 94.4853 314.661 94.478 314.651C94.4707 314.64 94.4612 314.632 94.4501 314.626C93.6848 314.364 93.2992 313.786 93.2992 312.903C93.2969 312.627 93.3599 312.355 93.483 312.11C93.606 311.864 93.7855 311.653 94.0061 311.493C94.314 311.245 95.0869 310.948 95.5876 310.948H95.6168C96.1315 310.96 96.4218 311.07 96.8238 311.221C97.0524 311.305 97.2947 311.344 97.5377 311.336C97.9636 311.336 98.1499 311.199 98.31 311.039C98.336 311.111 98.3498 311.187 98.3509 311.264C98.3607 311.446 98.3119 311.627 98.2119 311.779C98.1248 311.902 97.9198 311.991 97.7322 311.991C97.7129 311.991 97.6943 311.991 97.6738 311.988C97.5751 311.981 97.4773 311.965 97.3817 311.939L97.3338 311.956C97.3186 311.979 97.3285 312.004 97.3408 312.036C97.3438 312.042 97.3462 312.049 97.3478 312.056C97.382 312.214 97.4052 312.375 97.4173 312.537C97.4173 313.461 97.0592 313.863 96.6719 314.161C96.2974 314.447 95.8527 314.622 95.3866 314.667C95.3767 314.667 95.3282 314.671 95.2371 314.68C95.1786 314.685 95.1027 314.692 95.0916 314.692H95.0805C94.9964 314.716 94.7767 314.822 94.7767 315.02C94.7767 315.184 94.876 315.388 95.351 315.425L95.6583 315.447C96.2845 315.491 97.0668 315.546 97.4349 315.673C97.679 315.76 97.8899 315.924 98.0374 316.14C98.185 316.356 98.2618 316.614 98.2568 316.877C98.2568 317.706 97.6773 318.485 96.7069 318.962C96.2493 319.184 95.7483 319.298 95.2411 319.296" fill="#21313C"/>
<path d="M92.3727 315.738C92.0981 315.7 91.8977 315.662 91.6611 315.549C91.6147 315.501 91.5841 315.438 91.5735 315.371C91.5483 314.982 91.5483 313.853 91.5483 313.114C91.5483 312.511 91.449 311.985 91.1978 311.608C90.8981 311.181 90.474 310.93 89.9248 310.93C89.4382 310.93 88.7891 311.268 88.2528 311.733C88.24 311.745 88.1576 311.825 88.1593 311.702C88.1611 311.578 88.1798 311.327 88.1915 311.167C88.1967 311.124 88.192 311.081 88.1778 311.041C88.1636 311 88.1402 310.964 88.1097 310.934C87.7591 311.112 86.7759 311.35 86.412 311.386C86.1467 311.438 86.0795 311.698 86.3629 311.788H86.367C86.5938 311.851 86.8103 311.948 87.0096 312.075C87.1218 312.163 87.1095 312.288 87.1095 312.389C87.1218 313.23 87.1218 314.522 87.0844 315.225C87.0721 315.501 86.9968 315.602 86.797 315.652L86.8156 315.646C86.6635 315.684 86.5092 315.714 86.3535 315.734C86.291 315.796 86.291 316.16 86.3535 316.236C86.4786 316.236 87.113 316.198 87.6388 316.198C88.3621 316.198 88.7365 316.236 88.9241 316.236C88.9994 316.148 89.024 315.809 88.9743 315.734C88.8015 315.726 88.6299 315.7 88.462 315.658C88.2627 315.608 88.2125 315.507 88.2002 315.282C88.1757 314.692 88.1757 313.437 88.1757 312.583C88.1757 312.346 88.2376 312.232 88.3124 312.167C88.5619 311.942 88.9743 311.791 89.3359 311.791C89.6865 311.791 89.9201 311.904 90.0954 312.054C90.2996 312.236 90.4275 312.489 90.4529 312.764C90.5026 313.239 90.4898 314.195 90.4898 315.021C90.4898 315.473 90.4529 315.587 90.2905 315.637C90.2158 315.674 90.016 315.712 89.7788 315.737C89.704 315.813 89.7285 316.164 89.7788 316.239C90.103 316.239 90.4798 316.202 91.0266 316.202C91.7131 316.202 92.1501 316.239 92.3248 316.239C92.3995 316.151 92.4247 315.823 92.375 315.737" fill="#21313C"/>
</g>
<g clip-path="url(#clip2_146_41)">
<path d="M227.687 371.56H229.822V363.129L233.127 370.479C233.517 371.368 234.051 371.683 235.098 371.683C236.145 371.683 236.658 371.368 237.048 370.479L240.353 363.129V371.56H242.488V363.143C242.488 362.322 242.159 361.925 241.482 361.72C239.86 361.214 238.772 361.652 238.279 362.746L235.036 370L231.895 362.746C231.423 361.652 230.315 361.214 228.693 361.72C228.016 361.925 227.687 362.322 227.687 363.143V371.56Z" fill="#00618A"/>
<path d="M244.263 364.698H246.397V369.342C246.377 369.595 246.478 370.187 247.647 370.205C248.244 370.215 252.252 370.205 252.29 370.205V364.675H254.429C254.439 364.675 254.427 372.217 254.427 372.249C254.439 374.109 252.119 374.513 251.05 374.544H244.309V373.108C244.321 373.108 251.045 373.109 251.062 373.107C252.436 372.962 252.274 372.279 252.273 372.049V371.489H247.736C245.625 371.47 244.28 370.549 244.264 369.489C244.262 369.391 244.309 364.744 244.263 364.698Z" fill="#00618A"/>
<path d="M256.074 371.56H262.212C262.93 371.56 263.628 371.409 264.182 371.149C265.106 370.725 265.558 370.15 265.558 369.397V367.837C265.558 367.221 265.045 366.647 264.039 366.264C263.505 366.058 262.848 365.949 262.212 365.949H259.625C258.763 365.949 258.352 365.689 258.25 365.114C258.229 365.046 258.229 364.991 258.229 364.922V363.951C258.229 363.896 258.229 363.841 258.25 363.773C258.352 363.335 258.578 363.212 259.338 363.143C259.399 363.143 259.481 363.129 259.543 363.129H265.64V361.706H259.646C258.784 361.706 258.332 361.761 257.921 361.884C256.649 362.281 256.094 362.911 256.094 364.006V365.251C256.094 366.209 257.182 367.03 259.009 367.221C259.215 367.235 259.42 367.249 259.625 367.249H261.842C261.924 367.249 262.006 367.249 262.068 367.263C262.745 367.317 263.033 367.44 263.238 367.687C263.361 367.81 263.402 367.933 263.402 368.07V369.315C263.402 369.466 263.3 369.658 263.095 369.822C262.91 369.986 262.602 370.095 262.191 370.123C262.109 370.123 262.048 370.136 261.965 370.136H256.074V371.56Z" fill="#E48E00"/>
<path d="M278.876 369.083C278.876 370.547 279.963 371.368 282.16 371.532C282.365 371.546 282.571 371.56 282.776 371.56H288.339V370.136H282.735C281.483 370.136 281.01 369.822 281.01 369.069V361.706H278.876V369.083Z" fill="#E48E00"/>
<path d="M266.92 369.157V364.083C266.92 362.794 267.825 362.012 269.615 361.766C269.8 361.738 270.006 361.724 270.191 361.724H274.243C274.449 361.724 274.634 361.738 274.84 361.766C276.629 362.012 277.534 362.794 277.534 364.083V369.157C277.534 370.203 277.15 370.763 276.264 371.128L278.367 373.026H275.888L274.187 371.49L272.474 371.599H270.191C269.8 371.599 269.389 371.543 268.936 371.42C267.579 371.05 266.92 370.337 266.92 369.157ZM269.224 369.034C269.224 369.103 269.245 369.171 269.266 369.253C269.389 369.843 269.944 370.172 270.788 370.172H272.727L270.946 368.564H273.424L274.978 369.967C275.264 369.814 275.453 369.581 275.519 369.281C275.539 369.212 275.539 369.144 275.539 369.075V364.207C275.539 364.152 275.539 364.083 275.519 364.015C275.395 363.466 274.84 363.151 274.017 363.151H270.788C269.842 363.151 269.224 363.562 269.224 364.207V369.034Z" fill="#E48E00"/>
<path d="M290.217 359.345C288.905 359.31 287.902 359.432 287.045 359.793C286.802 359.896 286.413 359.899 286.374 360.204C286.507 360.344 286.528 360.554 286.635 360.726C286.839 361.057 287.185 361.501 287.493 361.734C287.83 361.988 288.177 362.26 288.538 362.48C289.18 362.872 289.897 363.095 290.516 363.488C290.88 363.719 291.242 364.01 291.598 364.271C291.773 364.4 291.892 364.601 292.12 364.682C292.12 364.669 292.12 364.657 292.12 364.644C292 364.492 291.969 364.281 291.859 364.122C291.697 363.96 291.535 363.798 291.374 363.637C290.899 363.007 290.297 362.454 289.657 361.995C289.147 361.629 288.004 361.134 287.792 360.54C287.779 360.527 287.767 360.515 287.754 360.502C288.116 360.462 288.54 360.331 288.874 360.241C289.435 360.091 289.936 360.13 290.516 359.98C290.777 359.905 291.038 359.83 291.299 359.756C291.299 359.706 291.299 359.657 291.299 359.607C291.006 359.306 290.797 358.909 290.478 358.637C289.643 357.925 288.731 357.214 287.792 356.621C287.271 356.293 286.627 356.079 286.075 355.8C285.889 355.707 285.563 355.658 285.441 355.502C285.151 355.132 284.993 354.664 284.769 354.233C284.301 353.331 283.841 352.346 283.426 351.397C283.143 350.75 282.958 350.112 282.605 349.531C280.911 346.746 279.087 345.064 276.261 343.412C275.66 343.06 274.936 342.921 274.172 342.74C273.761 342.715 273.351 342.69 272.94 342.665C272.69 342.561 272.429 342.254 272.194 342.106C271.258 341.514 268.857 340.228 268.164 341.919C267.726 342.986 268.818 344.028 269.209 344.569C269.483 344.948 269.834 345.373 270.03 345.8C270.159 346.08 270.181 346.361 270.291 346.658C270.562 347.389 270.798 348.184 271.149 348.86C271.327 349.202 271.522 349.562 271.746 349.867C271.884 350.055 272.119 350.137 272.157 350.427C271.926 350.749 271.913 351.25 271.784 351.658C271.2 353.497 271.42 355.783 272.269 357.144C272.529 357.562 273.142 358.458 273.985 358.114C274.723 357.814 274.558 356.883 274.769 356.062C274.816 355.875 274.787 355.739 274.881 355.614C274.881 355.626 274.881 355.639 274.881 355.651C275.105 356.099 275.328 356.547 275.552 356.994C276.049 357.795 276.932 358.632 277.679 359.196C278.067 359.489 278.372 359.995 278.873 360.166C278.873 360.154 278.873 360.142 278.873 360.129C278.861 360.129 278.848 360.129 278.836 360.129C278.739 359.978 278.587 359.915 278.463 359.793C278.171 359.507 277.846 359.151 277.605 358.823C276.925 357.9 276.324 356.89 275.776 355.838C275.515 355.336 275.288 354.782 275.067 354.271C274.982 354.073 274.983 353.776 274.806 353.673C274.565 354.048 274.209 354.351 274.023 354.793C273.724 355.5 273.685 356.362 273.575 357.256C273.509 357.279 273.538 357.263 273.5 357.293C272.98 357.168 272.798 356.633 272.605 356.174C272.116 355.013 272.025 353.144 272.455 351.808C272.566 351.462 273.069 350.373 272.866 350.054C272.769 349.735 272.448 349.551 272.269 349.308C272.047 349.007 271.825 348.61 271.672 348.263C271.272 347.358 271.085 346.342 270.664 345.427C270.463 344.989 270.123 344.547 269.843 344.158C269.534 343.727 269.187 343.41 268.948 342.889C268.862 342.704 268.747 342.408 268.873 342.218C268.913 342.089 268.97 342.036 269.097 341.994C269.313 341.827 269.916 342.049 270.142 342.143C270.74 342.391 271.239 342.628 271.746 342.964C271.99 343.125 272.236 343.437 272.53 343.524C272.642 343.524 272.754 343.524 272.866 343.524C273.391 343.644 273.979 343.561 274.47 343.71C275.338 343.974 276.115 344.384 276.821 344.83C278.972 346.188 280.73 348.121 281.933 350.427C282.127 350.798 282.211 351.153 282.381 351.547C282.725 352.341 283.158 353.158 283.5 353.935C283.842 354.71 284.174 355.492 284.657 356.136C284.911 356.475 285.891 356.657 286.336 356.845C286.648 356.977 287.16 357.115 287.456 357.293C288.021 357.634 288.568 358.039 289.098 358.413C289.363 358.599 290.176 359.008 290.217 359.345Z" fill="#00618A"/>
<path fill-rule="evenodd" clip-rule="evenodd" d="M273.537 345.128C273.264 345.123 273.07 345.158 272.866 345.203C272.866 345.215 272.866 345.228 272.866 345.24C272.878 345.24 272.891 345.24 272.903 345.24C273.034 345.508 273.264 345.681 273.425 345.912C273.55 346.173 273.674 346.434 273.799 346.695C273.811 346.683 273.824 346.671 273.836 346.658C274.067 346.495 274.173 346.235 274.172 345.837C274.079 345.74 274.065 345.618 273.985 345.501C273.878 345.346 273.672 345.258 273.537 345.128Z" fill="#00618A"/>
<path fill-rule="evenodd" clip-rule="evenodd" d="M289.341 370.096C289.341 371.036 290.083 371.669 290.914 371.669C291.745 371.669 292.487 371.036 292.487 370.096C292.487 369.156 291.745 368.523 290.914 368.523C290.083 368.523 289.341 369.156 289.341 370.096ZM292.135 370.096C292.135 370.809 291.59 371.342 290.914 371.342C290.23 371.342 289.693 370.809 289.693 370.096C289.693 369.383 290.23 368.85 290.914 368.85C291.59 368.85 292.135 369.383 292.135 370.096ZM291.338 370.994H291.69L291.175 370.205C291.451 370.176 291.661 370.041 291.661 369.714C291.661 369.349 291.43 369.198 290.986 369.198H290.285V370.994H290.587V370.218H290.868L291.338 370.994ZM290.587 369.966V369.45H290.935C291.116 369.45 291.334 369.483 291.334 369.693C291.334 369.945 291.137 369.966 290.91 369.966H290.587Z" fill="#E48E00"/>
</g>
<g clip-path="url(#clip3_146_41)">
<path fill-rule="evenodd" clip-rule="evenodd" d="M90.9184 136.598C90.9184 136.598 89.4567 137.448 91.9598 137.735C94.9928 138.082 96.5426 138.032 99.8839 137.4C99.8839 137.4 100.764 137.951 101.991 138.428C94.4986 141.638 85.0337 138.242 90.9184 136.598Z" fill="#0074BD"/>
<path fill-rule="evenodd" clip-rule="evenodd" d="M90.0023 132.408C90.0023 132.408 88.3626 133.622 90.8676 133.881C94.1078 134.215 96.6656 134.243 101.094 133.39C101.094 133.39 101.705 134.011 102.668 134.35C93.61 137 83.5214 134.559 90.0023 132.408Z" fill="#0074BD"/>
<path fill-rule="evenodd" clip-rule="evenodd" d="M97.7204 125.3C99.5676 127.426 97.2361 129.338 97.2361 129.338C97.2361 129.338 101.924 126.918 99.7713 123.887C97.7604 121.062 96.2187 119.658 104.565 114.818C104.565 114.818 91.4633 118.089 97.7204 125.3Z" fill="#EA2D2E"/>
<path fill-rule="evenodd" clip-rule="evenodd" d="M107.63 139.697C107.63 139.697 108.712 140.589 106.438 141.279C102.114 142.588 88.4386 142.984 84.6401 141.331C83.2756 140.737 85.8356 139.913 86.6411 139.739C87.481 139.557 87.9605 139.591 87.9605 139.591C86.4419 138.521 78.1451 141.691 83.7466 142.6C99.0223 145.076 111.592 141.485 107.63 139.697Z" fill="#0074BD"/>
<path fill-rule="evenodd" clip-rule="evenodd" d="M91.6218 128.066C91.6218 128.066 84.6663 129.719 89.1588 130.319C91.0563 130.573 94.8366 130.515 98.3604 130.219C101.239 129.977 104.129 129.461 104.129 129.461C104.129 129.461 103.114 129.896 102.38 130.397C95.3153 132.255 81.6703 131.39 85.5991 129.49C88.9201 127.883 91.6218 128.066 91.6218 128.066Z" fill="#0074BD"/>
<path fill-rule="evenodd" clip-rule="evenodd" d="M104.1 135.04C111.281 131.31 107.96 127.724 105.643 128.207C105.076 128.326 104.822 128.428 104.822 128.428C104.822 128.428 105.033 128.097 105.435 127.955C110.02 126.344 113.545 132.708 103.956 135.229C103.956 135.229 104.067 135.129 104.1 135.04Z" fill="#0074BD"/>
<path fill-rule="evenodd" clip-rule="evenodd" d="M99.7714 107C99.7714 107 103.747 110.978 95.9991 117.094C89.7854 122.002 94.5823 124.799 95.9969 127.997C92.3695 124.724 89.7089 121.843 91.4935 119.162C94.1141 115.227 101.375 113.319 99.7714 107Z" fill="#EA2D2E"/>
<path fill-rule="evenodd" clip-rule="evenodd" d="M92.3278 145.152C99.2191 145.593 109.804 144.907 110.055 141.646C110.055 141.646 109.573 142.882 104.359 143.863C98.4767 144.971 91.2198 144.842 86.9173 144.131C86.9173 144.131 87.7987 144.861 92.3278 145.152Z" fill="#0074BD"/>
<path fill-rule="evenodd" clip-rule="evenodd" d="M109.737 151.001H109.527V150.884H110.092V151.001H109.883V151.587H109.737V151.001H109.737ZM110.865 151.03H110.863L110.654 151.587H110.558L110.351 151.03H110.349V151.587H110.211V150.883H110.414L110.606 151.382L110.798 150.883H111V151.587H110.865L110.865 151.03Z" fill="#EA2D2E"/>
<path fill-rule="evenodd" clip-rule="evenodd" d="M91.1986 157.613C90.5487 158.176 89.8615 158.493 89.2447 158.493C88.366 158.493 87.8895 157.965 87.8895 157.12C87.8895 156.205 88.3997 155.536 90.4431 155.536H91.1986V157.613ZM92.9925 159.636V153.372C92.9925 151.77 92.0793 150.714 89.8784 150.714C88.5943 150.714 87.4683 151.031 86.553 151.435L86.8164 152.545C87.5373 152.28 88.4696 152.034 89.3849 152.034C90.6529 152.034 91.1986 152.545 91.1986 153.601V154.393H90.5649C87.4846 154.393 86.0948 155.588 86.0948 157.385C86.0948 158.933 87.0108 159.813 88.7351 159.813C89.8431 159.813 90.6713 159.355 91.4444 158.686L91.5852 159.636H92.9925Z" fill="#EA2D2E"/>
<path fill-rule="evenodd" clip-rule="evenodd" d="M98.9792 159.636H96.7422L94.0493 150.874H96.0031L97.6746 156.258L98.0463 157.876C98.89 155.536 99.4883 153.16 99.7875 150.874H101.688C101.18 153.759 100.263 156.926 98.9792 159.636Z" fill="#EA2D2E"/>
<path fill-rule="evenodd" clip-rule="evenodd" d="M107.563 157.613C106.911 158.176 106.224 158.493 105.609 158.493C104.73 158.493 104.253 157.965 104.253 157.12C104.253 156.205 104.765 155.536 106.806 155.536H107.563V157.613H107.563ZM109.358 159.636V153.372C109.358 151.77 108.442 150.714 106.243 150.714C104.957 150.714 103.832 151.031 102.916 151.435L103.18 152.545C103.902 152.28 104.835 152.034 105.75 152.034C107.017 152.034 107.563 152.545 107.563 153.601V154.393H106.93C103.849 154.393 102.459 155.588 102.459 157.385C102.459 158.933 103.374 159.813 105.098 159.813C106.207 159.813 107.034 159.355 107.809 158.686L107.951 159.636H109.358Z" fill="#EA2D2E"/>
<path fill-rule="evenodd" clip-rule="evenodd" d="M84.1275 161.126C83.6164 161.872 82.7899 162.464 81.8857 162.798L81 161.754C81.6887 161.4 82.2787 160.83 82.5531 160.3C82.7899 159.826 82.8884 159.218 82.8884 157.762V147.757H84.7949V157.624C84.7949 159.571 84.6395 160.359 84.1275 161.126Z" fill="#EA2D2E"/>
</g>
<defs>
<filter id="filter0_d_146_41" x="60" y="72" width="313.21" height="324.279" filterUnits="userSpaceOnUse" color-interpolation-filters="sRGB">
<feFlood flood-opacity="0" result="BackgroundImageFix"/>
<feColorMatrix in="SourceAlpha" type="matrix" values="0 0 0 0 0 0 0 0 0 0 0 0 0 0 0 0 0 0 127 0" result="hardAlpha"/>
<feMorphology radius="4" operator="dilate" in="SourceAlpha" result="effect1_dropShadow_146_41"/>
<feOffset dx="5" dy="6"/>
<feGaussianBlur stdDeviation="2"/>
<feComposite in2="hardAlpha" operator="out"/>
<feColorMatrix type="matrix" values="0 0 0 0 0 0 0 0 0 0 0 0 0 0 0 0 0 0 0.25 0"/>
<feBlend mode="normal" in2="BackgroundImageFix" result="effect1_dropShadow_146_41"/>
<feBlend mode="normal" in="SourceGraphic" in2="effect1_dropShadow_146_41" result="shape"/>
</filter>
<filter id="filter1_d_146_41" x="52.5774" y="92.3849" width="93" height="93" filterUnits="userSpaceOnUse" color-interpolation-filters="sRGB">
<feFlood flood-opacity="0" result="BackgroundImageFix"/>
<feColorMatrix in="SourceAlpha" type="matrix" values="0 0 0 0 0 0 0 0 0 0 0 0 0 0 0 0 0 0 127 0" result="hardAlpha"/>
<feOffset dx="2" dy="2"/>
<feGaussianBlur stdDeviation="2"/>
<feComposite in2="hardAlpha" operator="out"/>
<feColorMatrix type="matrix" values="0 0 0 0 0 0 0 0 0 0 0 0 0 0 0 0 0 0 0.25 0"/>
<feBlend mode="normal" in2="BackgroundImageFix" result="effect1_dropShadow_146_41"/>
<feBlend mode="normal" in="SourceGraphic" in2="effect1_dropShadow_146_41" result="shape"/>
</filter>
<filter id="filter2_d_146_41" x="309" y="183.639" width="93" height="93" filterUnits="userSpaceOnUse" color-interpolation-filters="sRGB">
<feFlood flood-opacity="0" result="BackgroundImageFix"/>
<feColorMatrix in="SourceAlpha" type="matrix" values="0 0 0 0 0 0 0 0 0 0 0 0 0 0 0 0 0 0 127 0" result="hardAlpha"/>
<feOffset dx="2" dy="2"/>
<feGaussianBlur stdDeviation="2"/>
<feComposite in2="hardAlpha" operator="out"/>
<feColorMatrix type="matrix" values="0 0 0 0 0 0 0 0 0 0 0 0 0 0 0 0 0 0 0.25 0"/>
<feBlend mode="normal" in2="BackgroundImageFix" result="effect1_dropShadow_146_41"/>
<feBlend mode="normal" in="SourceGraphic" in2="effect1_dropShadow_146_41" result="shape"/>
</filter>
<filter id="filter3_d_146_41" x="47.3145" y="268.639" width="93" height="93" filterUnits="userSpaceOnUse" color-interpolation-filters="sRGB">
<feFlood flood-opacity="0" result="BackgroundImageFix"/>
<feColorMatrix in="SourceAlpha" type="matrix" values="0 0 0 0 0 0 0 0 0 0 0 0 0 0 0 0 0 0 127 0" result="hardAlpha"/>
<feOffset dx="2" dy="2"/>
<feGaussianBlur stdDeviation="2"/>
<feComposite in2="hardAlpha" operator="out"/>
<feColorMatrix type="matrix" values="0 0 0 0 0 0 0 0 0 0 0 0 0 0 0 0 0 0 0.25 0"/>
<feBlend mode="normal" in2="BackgroundImageFix" result="effect1_dropShadow_146_41"/>
<feBlend mode="normal" in="SourceGraphic" in2="effect1_dropShadow_146_41" result="shape"/>
</filter>
<filter id="filter4_d_146_41" x="215.564" y="321" width="93" height="93" filterUnits="userSpaceOnUse" color-interpolation-filters="sRGB">
<feFlood flood-opacity="0" result="BackgroundImageFix"/>
<feColorMatrix in="SourceAlpha" type="matrix" values="0 0 0 0 0 0 0 0 0 0 0 0 0 0 0 0 0 0 127 0" result="hardAlpha"/>
<feOffset dx="2" dy="2"/>
<feGaussianBlur stdDeviation="2"/>
<feComposite in2="hardAlpha" operator="out"/>
<feColorMatrix type="matrix" values="0 0 0 0 0 0 0 0 0 0 0 0 0 0 0 0 0 0 0.25 0"/>
<feBlend mode="normal" in2="BackgroundImageFix" result="effect1_dropShadow_146_41"/>
<feBlend mode="normal" in="SourceGraphic" in2="effect1_dropShadow_146_41" result="shape"/>
</filter>
<filter id="filter5_d_146_41" x="215.564" y="46.25" width="93" height="93" filterUnits="userSpaceOnUse" color-interpolation-filters="sRGB">
<feFlood flood-opacity="0" result="BackgroundImageFix"/>
<feColorMatrix in="SourceAlpha" type="matrix" values="0 0 0 0 0 0 0 0 0 0 0 0 0 0 0 0 0 0 127 0" result="hardAlpha"/>
<feOffset dx="2" dy="2"/>
<feGaussianBlur stdDeviation="2"/>
<feComposite in2="hardAlpha" operator="out"/>
<feColorMatrix type="matrix" values="0 0 0 0 0 0 0 0 0 0 0 0 0 0 0 0 0 0 0.25 0"/>
<feBlend mode="normal" in2="BackgroundImageFix" result="effect1_dropShadow_146_41"/>
<feBlend mode="normal" in="SourceGraphic" in2="effect1_dropShadow_146_41" result="shape"/>
</filter>
<linearGradient id="paint0_linear_146_41" x1="256.192" y1="78.801" x2="247.112" y2="96.6596" gradientUnits="userSpaceOnUse">
<stop offset="0.3" stop-color="#3E863D"/>
<stop offset="0.5" stop-color="#55934F"/>
<stop offset="0.8" stop-color="#5AAD45"/>
</linearGradient>
<linearGradient id="paint1_linear_146_41" x1="244.164" y1="93.9461" x2="260.161" y2="82.5503" gradientUnits="userSpaceOnUse">
<stop offset="0.57" stop-color="#3E863D"/>
<stop offset="0.72" stop-color="#619857"/>
<stop offset="1" stop-color="#76AC64"/>
</linearGradient>
<linearGradient id="paint2_linear_146_41" x1="245.651" y1="87.8561" x2="258.549" y2="87.8561" gradientUnits="userSpaceOnUse">
<stop offset="0.16" stop-color="#6BBF47"/>
<stop offset="0.38" stop-color="#79B461"/>
<stop offset="0.47" stop-color="#75AC64"/>
<stop offset="0.7" stop-color="#659E5A"/>
<stop offset="0.9" stop-color="#3E863D"/>
</linearGradient>
<clipPath id="clip0_146_41">
<rect width="62.243" height="39.5402" fill="white" transform="translate(228.943 70.9799)"/>
</clipPath>
<clipPath id="clip1_146_41">
<rect width="65" height="17.8226" fill="white" transform="translate(59.3145 302.308)"/>
</clipPath>
<clipPath id="clip2_146_41">
<rect width="65" height="33.5806" fill="white" transform="translate(227.564 341)"/>
</clipPath>
<clipPath id="clip3_146_41">
<rect width="30" height="55.7976" fill="white" transform="translate(81 107)"/>
</clipPath>
</defs>
</svg>
