<svg width="305" height="354" viewBox="0 0 305 354" fill="none" xmlns="http://www.w3.org/2000/svg">
<g filter="url(#filter0_d_180_237)">
<path d="M277.272 202.49C277.272 276.755 219.254 336.801 147.874 336.801C76.4952 336.801 18.4763 276.755 18.4763 202.49C18.4763 128.226 76.4952 68.1804 147.874 68.1804C219.254 68.1804 277.272 128.226 277.272 202.49Z" stroke="black" stroke-width="5" shape-rendering="crispEdges"/>
</g>
<path d="M98.6843 152.682H107.196C108.82 152.682 110.127 153.13 111.116 154.026C112.106 154.904 112.6 156.07 112.6 157.526C112.6 158.609 112.311 159.542 111.732 160.326C111.154 161.092 110.351 161.624 109.324 161.922C110.538 162.221 111.48 162.809 112.152 163.686C112.843 164.545 113.188 165.618 113.188 166.906C113.188 168.568 112.638 169.884 111.536 170.854C110.435 171.806 108.942 172.282 107.056 172.282H98.6843V152.682ZM107.028 161.166C108.074 161.166 108.923 160.849 109.576 160.214C110.248 159.561 110.584 158.73 110.584 157.722C110.584 156.677 110.258 155.846 109.604 155.23C108.97 154.614 108.111 154.306 107.028 154.306H100.7V161.166H107.028ZM106.58 170.658C108.074 170.658 109.212 170.322 109.996 169.65C110.78 168.978 111.172 168.008 111.172 166.738C111.172 165.469 110.771 164.498 109.968 163.826C109.184 163.136 108.055 162.79 106.58 162.79H100.7V170.658H106.58ZM127.327 169.902C127.327 170.238 127.383 170.518 127.495 170.742C127.626 170.948 127.859 171.19 128.195 171.47L126.935 172.59C126.469 172.329 126.123 172.03 125.899 171.694C125.675 171.358 125.545 170.92 125.507 170.378C125.022 171.088 124.359 171.638 123.519 172.03C122.679 172.404 121.737 172.59 120.691 172.59C119.273 172.59 118.181 172.264 117.415 171.61C116.65 170.938 116.267 169.977 116.267 168.726C116.267 167.569 116.669 166.664 117.471 166.01C118.274 165.357 119.487 164.937 121.111 164.75L123.295 164.498C123.911 164.424 124.369 164.33 124.667 164.218C124.985 164.106 125.199 163.948 125.311 163.742C125.423 163.518 125.47 163.21 125.451 162.818C125.283 161.082 124.07 160.214 121.811 160.214C120.971 160.214 120.253 160.354 119.655 160.634C119.058 160.896 118.545 161.316 118.115 161.894L116.827 160.942C117.705 159.524 119.366 158.814 121.811 158.814C123.603 158.814 124.966 159.197 125.899 159.962C126.851 160.728 127.327 161.829 127.327 163.266V169.902ZM121.111 171.134C122.418 171.134 123.473 170.798 124.275 170.126C125.078 169.454 125.479 168.568 125.479 167.466V165.198C125.255 165.366 124.985 165.497 124.667 165.59C124.35 165.665 123.911 165.73 123.351 165.786L121.279 166.01C120.215 166.141 119.403 166.44 118.843 166.906C118.302 167.354 118.031 167.952 118.031 168.698C118.031 170.322 119.058 171.134 121.111 171.134ZM136.639 172.59C134.81 172.59 133.4 172.17 132.411 171.33C131.422 170.49 130.927 169.277 130.927 167.69V163.714C130.927 162.165 131.431 160.961 132.439 160.102C133.447 159.244 134.856 158.814 136.667 158.814C137.768 158.814 138.72 158.992 139.523 159.346C140.326 159.701 141.016 160.242 141.595 160.97L140.307 162.062C139.784 161.428 139.243 160.98 138.683 160.718C138.123 160.457 137.451 160.326 136.667 160.326C135.454 160.326 134.502 160.625 133.811 161.222C133.139 161.82 132.803 162.65 132.803 163.714V167.69C132.803 168.773 133.13 169.613 133.783 170.21C134.455 170.789 135.407 171.078 136.639 171.078C137.479 171.078 138.207 170.938 138.823 170.658C139.439 170.378 139.962 169.949 140.391 169.37L141.679 170.462C141.138 171.19 140.456 171.732 139.635 172.086C138.814 172.422 137.815 172.59 136.639 172.59ZM151.021 163.826C151.954 163.976 152.682 164.349 153.205 164.946C153.746 165.544 154.175 166.44 154.493 167.634L155.697 172.282H153.765L152.561 167.634C152.355 166.832 152.029 166.253 151.581 165.898C151.151 165.525 150.498 165.301 149.621 165.226L146.793 168.054V172.282H144.917V154.698C144.917 154.344 144.861 154.064 144.749 153.858C144.637 153.653 144.403 153.401 144.049 153.102L145.337 152.01C145.878 152.309 146.251 152.664 146.457 153.074C146.681 153.485 146.793 154.045 146.793 154.754V165.758L153.373 159.122H155.725L151.021 163.826ZM163.766 171.078C164.569 171.078 165.278 170.957 165.894 170.714C166.51 170.472 167.079 170.08 167.602 169.538L168.778 170.63C168.181 171.302 167.471 171.797 166.65 172.114C165.829 172.432 164.83 172.59 163.654 172.59C161.862 172.59 160.462 172.17 159.454 171.33C158.465 170.472 157.97 169.277 157.97 167.746V163.49C157.97 162.053 158.455 160.924 159.426 160.102C160.415 159.262 161.769 158.842 163.486 158.842C165.241 158.842 166.585 159.281 167.518 160.158C168.47 161.036 168.946 162.277 168.946 163.882C168.946 164.909 168.75 165.618 168.358 166.01C167.985 166.384 167.275 166.57 166.23 166.57H159.846V167.746C159.846 168.866 160.163 169.706 160.798 170.266C161.451 170.808 162.441 171.078 163.766 171.078ZM163.458 160.326C162.338 160.326 161.451 160.625 160.798 161.222C160.163 161.801 159.846 162.594 159.846 163.602V165.198H165.446C166.081 165.198 166.51 165.096 166.734 164.89C166.958 164.666 167.07 164.256 167.07 163.658C167.07 162.613 166.753 161.801 166.118 161.222C165.483 160.625 164.597 160.326 163.458 160.326ZM179.003 158.814C180.329 158.814 181.365 159.216 182.111 160.018C182.858 160.802 183.231 161.894 183.231 163.294V172.282H181.355V163.574C181.355 162.548 181.103 161.754 180.599 161.194C180.114 160.616 179.433 160.326 178.555 160.326C177.547 160.326 176.67 160.7 175.923 161.446C175.195 162.193 174.673 163.21 174.355 164.498V172.282H172.479V161.502C172.479 161.166 172.414 160.896 172.283 160.69C172.171 160.466 171.947 160.214 171.611 159.934L172.843 158.814C173.422 159.132 173.814 159.496 174.019 159.906C174.243 160.298 174.355 160.849 174.355 161.558V161.81C174.822 160.84 175.447 160.102 176.231 159.598C177.034 159.076 177.958 158.814 179.003 158.814ZM198.608 169.902C198.608 170.238 198.664 170.518 198.776 170.742C198.906 170.948 199.14 171.19 199.476 171.47L198.244 172.59C197.777 172.329 197.432 171.993 197.208 171.582C196.984 171.153 196.853 170.714 196.816 170.266C195.845 171.816 194.361 172.59 192.364 172.59C191.206 172.59 190.189 172.329 189.312 171.806C188.453 171.265 187.781 170.509 187.296 169.538C186.829 168.568 186.596 167.438 186.596 166.15V165.254C186.596 163.966 186.829 162.837 187.296 161.866C187.781 160.896 188.453 160.149 189.312 159.626C190.189 159.085 191.206 158.814 192.364 158.814C193.316 158.814 194.165 159.001 194.912 159.374C195.677 159.748 196.284 160.28 196.732 160.97V154.698C196.732 154.362 196.676 154.092 196.564 153.886C196.452 153.681 196.218 153.42 195.864 153.102L197.152 152.01C197.693 152.309 198.066 152.664 198.272 153.074C198.496 153.485 198.608 154.045 198.608 154.754V169.902ZM196.732 163.35C196.414 162.342 195.929 161.586 195.276 161.082C194.622 160.578 193.754 160.326 192.672 160.326C191.402 160.326 190.385 160.774 189.62 161.67C188.854 162.566 188.472 163.761 188.472 165.254V166.15C188.472 167.644 188.854 168.838 189.62 169.734C190.385 170.63 191.402 171.078 192.672 171.078C193.754 171.078 194.622 170.826 195.276 170.322C195.929 169.818 196.414 169.062 196.732 168.054V163.35ZM158.03 208.282L156.406 206.49C154.856 207.89 152.812 208.59 150.274 208.59C148.295 208.59 146.727 208.096 145.57 207.106C144.412 206.098 143.834 204.745 143.834 203.046C143.834 201.74 144.198 200.676 144.926 199.854C145.654 199.014 146.736 198.193 148.174 197.39C147.334 196.457 146.708 195.636 146.298 194.926C145.906 194.217 145.71 193.452 145.71 192.63C145.71 191.324 146.139 190.297 146.998 189.55C147.875 188.785 149.051 188.402 150.526 188.402C151.963 188.402 153.102 188.794 153.942 189.578C154.782 190.344 155.202 191.38 155.202 192.686C155.202 193.75 154.875 194.646 154.222 195.374C153.568 196.084 152.495 196.886 151.002 197.782L156.21 203.494C157.012 202.132 157.563 200.293 157.862 197.978H159.906C159.532 201.04 158.776 203.392 157.638 205.034L160.578 208.282H158.03ZM150.526 190.026C149.686 190.026 149.004 190.26 148.482 190.726C147.978 191.193 147.726 191.828 147.726 192.63C147.726 193.265 147.875 193.853 148.174 194.394C148.491 194.917 149.032 195.608 149.798 196.466C150.992 195.776 151.851 195.169 152.374 194.646C152.915 194.124 153.186 193.47 153.186 192.686C153.186 191.884 152.943 191.24 152.458 190.754C151.972 190.269 151.328 190.026 150.526 190.026ZM150.274 206.966C152.29 206.966 153.895 206.322 155.09 205.034L149.378 198.734C148.575 199.182 147.94 199.584 147.474 199.938C147.007 200.274 146.615 200.704 146.298 201.226C145.999 201.73 145.85 202.337 145.85 203.046C145.85 204.241 146.242 205.193 147.026 205.902C147.828 206.612 148.911 206.966 150.274 206.966ZM97.1804 224.682H104.152C106.206 224.682 107.83 225 109.024 225.634C110.238 226.269 111.115 227.296 111.656 228.714C112.198 230.133 112.468 232.056 112.468 234.482C112.468 236.928 112.198 238.86 111.656 240.278C111.134 241.678 110.266 242.696 109.052 243.33C107.858 243.965 106.224 244.282 104.152 244.282H97.1804V224.682ZM104.152 242.658C105.702 242.658 106.934 242.397 107.848 241.874C108.763 241.333 109.426 240.474 109.836 239.298C110.247 238.104 110.452 236.508 110.452 234.51C110.452 232.513 110.238 230.917 109.808 229.722C109.398 228.528 108.735 227.66 107.82 227.118C106.906 226.577 105.683 226.306 104.152 226.306H99.1964V242.658H104.152ZM126.753 241.902C126.753 242.238 126.809 242.518 126.921 242.742C127.052 242.948 127.285 243.19 127.621 243.47L126.361 244.59C125.895 244.329 125.549 244.03 125.325 243.694C125.101 243.358 124.971 242.92 124.933 242.378C124.448 243.088 123.785 243.638 122.945 244.03C122.105 244.404 121.163 244.59 120.117 244.59C118.699 244.59 117.607 244.264 116.841 243.61C116.076 242.938 115.693 241.977 115.693 240.726C115.693 239.569 116.095 238.664 116.897 238.01C117.7 237.357 118.913 236.937 120.537 236.75L122.721 236.498C123.337 236.424 123.795 236.33 124.093 236.218C124.411 236.106 124.625 235.948 124.737 235.742C124.849 235.518 124.896 235.21 124.877 234.818C124.709 233.082 123.496 232.214 121.237 232.214C120.397 232.214 119.679 232.354 119.081 232.634C118.484 232.896 117.971 233.316 117.541 233.894L116.253 232.942C117.131 231.524 118.792 230.814 121.237 230.814C123.029 230.814 124.392 231.197 125.325 231.962C126.277 232.728 126.753 233.829 126.753 235.266V241.902ZM120.537 243.134C121.844 243.134 122.899 242.798 123.701 242.126C124.504 241.454 124.905 240.568 124.905 239.466V237.198C124.681 237.366 124.411 237.497 124.093 237.59C123.776 237.665 123.337 237.73 122.777 237.786L120.705 238.01C119.641 238.141 118.829 238.44 118.269 238.906C117.728 239.354 117.457 239.952 117.457 240.698C117.457 242.322 118.484 243.134 120.537 243.134ZM132.68 232.634V240.474C132.68 242.136 133.408 242.966 134.864 242.966H136.46V244.45H134.864C133.464 244.45 132.437 244.133 131.784 243.498C131.131 242.845 130.804 241.837 130.804 240.474V228.07C130.804 227.734 130.739 227.464 130.608 227.258C130.496 227.034 130.272 226.782 129.936 226.502L131.196 225.382C131.756 225.7 132.139 226.064 132.344 226.474C132.568 226.866 132.68 227.417 132.68 228.126V231.122H136.46V232.634H132.68ZM150.187 241.902C150.187 242.238 150.243 242.518 150.355 242.742C150.485 242.948 150.719 243.19 151.055 243.47L149.795 244.59C149.328 244.329 148.983 244.03 148.759 243.694C148.535 243.358 148.404 242.92 148.367 242.378C147.881 243.088 147.219 243.638 146.379 244.03C145.539 244.404 144.596 244.59 143.551 244.59C142.132 244.59 141.04 244.264 140.275 243.61C139.509 242.938 139.127 241.977 139.127 240.726C139.127 239.569 139.528 238.664 140.331 238.01C141.133 237.357 142.347 236.937 143.971 236.75L146.155 236.498C146.771 236.424 147.228 236.33 147.527 236.218C147.844 236.106 148.059 235.948 148.171 235.742C148.283 235.518 148.329 235.21 148.311 234.818C148.143 233.082 146.929 232.214 144.671 232.214C143.831 232.214 143.112 232.354 142.515 232.634C141.917 232.896 141.404 233.316 140.975 233.894L139.687 232.942C140.564 231.524 142.225 230.814 144.671 230.814C146.463 230.814 147.825 231.197 148.759 231.962C149.711 232.728 150.187 233.829 150.187 235.266V241.902ZM143.971 243.134C145.277 243.134 146.332 242.798 147.135 242.126C147.937 241.454 148.339 240.568 148.339 239.466V237.198C148.115 237.366 147.844 237.497 147.527 237.59C147.209 237.665 146.771 237.73 146.211 237.786L144.139 238.01C143.075 238.141 142.263 238.44 141.703 238.906C141.161 239.354 140.891 239.952 140.891 240.698C140.891 242.322 141.917 243.134 143.971 243.134ZM160.786 244.59C159.816 244.59 158.957 244.413 158.21 244.058C157.464 243.685 156.857 243.144 156.39 242.434V244.282H154.514V226.698C154.514 226.344 154.458 226.064 154.346 225.858C154.234 225.653 154.001 225.401 153.646 225.102L154.878 224.01C155.438 224.328 155.83 224.682 156.054 225.074C156.278 225.466 156.39 226.026 156.39 226.754V232.998C156.876 232.289 157.482 231.748 158.21 231.374C158.957 231.001 159.806 230.814 160.758 230.814C161.916 230.814 162.933 231.085 163.81 231.626C164.688 232.149 165.36 232.896 165.826 233.866C166.312 234.837 166.554 235.966 166.554 237.254V238.15C166.554 239.438 166.312 240.568 165.826 241.538C165.36 242.509 164.688 243.265 163.81 243.806C162.952 244.329 161.944 244.59 160.786 244.59ZM160.45 243.078C161.72 243.078 162.737 242.63 163.502 241.734C164.268 240.838 164.65 239.644 164.65 238.15V237.254C164.65 235.761 164.268 234.566 163.502 233.67C162.737 232.774 161.72 232.326 160.45 232.326C159.368 232.326 158.5 232.578 157.846 233.082C157.193 233.586 156.708 234.342 156.39 235.35V240.054C156.708 241.062 157.193 241.818 157.846 242.322C158.5 242.826 159.368 243.078 160.45 243.078ZM180.292 241.902C180.292 242.238 180.348 242.518 180.46 242.742C180.591 242.948 180.824 243.19 181.16 243.47L179.9 244.59C179.434 244.329 179.088 244.03 178.864 243.694C178.64 243.358 178.51 242.92 178.472 242.378C177.987 243.088 177.324 243.638 176.484 244.03C175.644 244.404 174.702 244.59 173.656 244.59C172.238 244.59 171.146 244.264 170.38 243.61C169.615 242.938 169.232 241.977 169.232 240.726C169.232 239.569 169.634 238.664 170.436 238.01C171.239 237.357 172.452 236.937 174.076 236.75L176.26 236.498C176.876 236.424 177.334 236.33 177.632 236.218C177.95 236.106 178.164 235.948 178.276 235.742C178.388 235.518 178.435 235.21 178.416 234.818C178.248 233.082 177.035 232.214 174.776 232.214C173.936 232.214 173.218 232.354 172.62 232.634C172.023 232.896 171.51 233.316 171.08 233.894L169.792 232.942C170.67 231.524 172.331 230.814 174.776 230.814C176.568 230.814 177.931 231.197 178.864 231.962C179.816 232.728 180.292 233.829 180.292 235.266V241.902ZM174.076 243.134C175.383 243.134 176.438 242.798 177.24 242.126C178.043 241.454 178.444 240.568 178.444 239.466V237.198C178.22 237.366 177.95 237.497 177.632 237.59C177.315 237.665 176.876 237.73 176.316 237.786L174.244 238.01C173.18 238.141 172.368 238.44 171.808 238.906C171.267 239.354 170.996 239.952 170.996 240.698C170.996 242.322 172.023 243.134 174.076 243.134ZM188.481 244.59C187.379 244.59 186.437 244.413 185.653 244.058C184.887 243.704 184.187 243.125 183.553 242.322L184.757 241.286C185.335 241.94 185.905 242.406 186.465 242.686C187.025 242.948 187.697 243.078 188.481 243.078C189.601 243.078 190.45 242.882 191.029 242.49C191.607 242.098 191.897 241.529 191.897 240.782C191.897 240.316 191.785 239.942 191.561 239.662C191.337 239.382 190.945 239.14 190.385 238.934C189.825 238.729 188.975 238.524 187.837 238.318C185.223 237.852 183.917 236.601 183.917 234.566C183.917 233.39 184.337 232.476 185.177 231.822C186.035 231.15 187.211 230.814 188.705 230.814C189.769 230.814 190.693 231.001 191.477 231.374C192.279 231.729 192.886 232.252 193.297 232.942L192.093 233.95C191.663 233.39 191.169 232.98 190.609 232.718C190.067 232.457 189.433 232.326 188.705 232.326C187.771 232.326 187.034 232.522 186.493 232.914C185.97 233.306 185.709 233.848 185.709 234.538C185.709 235.154 185.923 235.63 186.353 235.966C186.801 236.302 187.575 236.582 188.677 236.806C189.965 237.086 190.963 237.394 191.673 237.73C192.401 238.048 192.914 238.449 193.213 238.934C193.53 239.42 193.689 240.036 193.689 240.782C193.689 242.033 193.241 242.985 192.345 243.638C191.467 244.273 190.179 244.59 188.481 244.59ZM203.032 243.078C203.834 243.078 204.544 242.957 205.16 242.714C205.776 242.472 206.345 242.08 206.868 241.538L208.044 242.63C207.446 243.302 206.737 243.797 205.916 244.114C205.094 244.432 204.096 244.59 202.92 244.59C201.128 244.59 199.728 244.17 198.72 243.33C197.73 242.472 197.236 241.277 197.236 239.746V235.49C197.236 234.053 197.721 232.924 198.692 232.102C199.681 231.262 201.034 230.842 202.752 230.842C204.506 230.842 205.85 231.281 206.784 232.158C207.736 233.036 208.212 234.277 208.212 235.882C208.212 236.909 208.016 237.618 207.624 238.01C207.25 238.384 206.541 238.57 205.496 238.57H199.112V239.746C199.112 240.866 199.429 241.706 200.064 242.266C200.717 242.808 201.706 243.078 203.032 243.078ZM202.724 232.326C201.604 232.326 200.717 232.625 200.064 233.222C199.429 233.801 199.112 234.594 199.112 235.602V237.198H204.712C205.346 237.198 205.776 237.096 206 236.89C206.224 236.666 206.336 236.256 206.336 235.658C206.336 234.613 206.018 233.801 205.384 233.222C204.749 232.625 203.862 232.326 202.724 232.326Z" fill="black"/>
<g filter="url(#filter1_d_180_237)">
<circle cx="40" cy="280" r="38" fill="#EEE7DB"/>
<circle cx="40" cy="280" r="35.5" stroke="black" stroke-width="5"/>
</g>
<g clip-path="url(#clip0_180_237)">
<path d="M18.5096 277.943C17.7157 274.382 16.0611 273.434 15.639 272.764C15.465 272.468 15.3108 272.161 15.1775 271.845C15.1552 272.161 15.1143 272.361 14.8498 272.601C14.3188 273.082 12.0637 274.951 11.874 278.997C11.6971 282.77 14.6014 285.096 14.9851 285.337C15.2802 285.485 15.6395 285.34 15.8148 285.205C17.2148 284.227 19.1277 281.623 18.5112 277.943" fill="#10AA50"/>
<path d="M15.2979 283.328C15.2248 284.262 15.1725 284.804 14.9868 285.338C14.9868 285.338 15.1087 286.227 15.1942 287.169H15.4971C15.5693 286.506 15.6796 285.847 15.8274 285.197C15.4353 285.001 15.313 284.147 15.2979 283.328Z" fill="#B8C4C2"/>
<path d="M15.8268 285.198C15.4306 285.011 15.316 284.14 15.2984 283.328C15.3964 281.988 15.4249 280.644 15.384 279.302C15.3632 278.597 15.3938 272.777 15.2134 271.925C15.3368 272.214 15.479 272.494 15.6391 272.763C16.0612 273.434 17.7163 274.382 18.5097 277.943C19.1278 281.616 17.2253 284.214 15.8268 285.198Z" fill="#12924F"/>
<path d="M68.043 283.91C67.8734 283.91 67.7076 283.859 67.5664 283.763C67.4252 283.668 67.3149 283.532 67.2495 283.373C67.184 283.214 67.1663 283.038 67.1985 282.869C67.2308 282.7 67.3115 282.544 67.4307 282.421C67.5498 282.298 67.7019 282.214 67.868 282.179C68.0341 282.144 68.2067 282.159 68.364 282.224C68.5214 282.288 68.6566 282.398 68.7525 282.54C68.8485 282.683 68.9009 282.851 68.9033 283.023C68.9064 283.139 68.8863 283.255 68.8443 283.363C68.8023 283.472 68.7393 283.57 68.6589 283.653C68.5786 283.736 68.4826 283.801 68.3768 283.845C68.2709 283.89 68.1574 283.911 68.043 283.91ZM68.043 282.239C67.888 282.238 67.7362 282.284 67.6068 282.371C67.4774 282.458 67.3763 282.582 67.3162 282.727C67.256 282.872 67.2397 283.032 67.2691 283.187C67.2986 283.342 67.3725 283.484 67.4816 283.596C67.5907 283.708 67.73 283.785 67.8819 283.816C68.0338 283.847 68.1914 283.832 68.3348 283.772C68.4782 283.713 68.601 283.611 68.6875 283.48C68.774 283.349 68.8204 283.195 68.8208 283.038C68.8228 282.933 68.8041 282.829 68.7659 282.732C68.7276 282.634 68.6705 282.546 68.598 282.471C68.5254 282.397 68.4389 282.338 68.3436 282.298C68.2483 282.258 68.1461 282.238 68.043 282.239ZM68.2504 283.588L68.0285 283.102H67.8496V283.588H67.7195V282.481H68.0404C68.2795 282.481 68.379 282.586 68.379 282.791C68.379 282.953 68.3038 283.054 68.1638 283.085L68.393 283.587L68.2504 283.588ZM67.8548 282.987H68.043C68.1955 282.987 68.2535 282.934 68.2535 282.793C68.2535 282.652 68.1981 282.604 68.0264 282.604H67.8548V282.987Z" fill="#21313C"/>
<path d="M55.24 283.113C55.4728 283.302 55.9379 283.38 56.3481 283.38C56.8796 283.38 57.4007 283.28 57.9099 282.812C58.4284 282.333 58.7852 281.599 58.7852 280.428C58.7852 279.303 58.3641 278.39 57.5003 277.855C57.0128 277.543 56.3813 277.421 55.661 277.421C55.4536 277.421 55.24 277.432 55.1186 277.488C55.0689 277.528 55.0337 277.583 55.0186 277.646C54.9968 277.846 54.9968 279.372 54.9968 280.274C54.9968 281.199 54.9968 282.489 55.0186 282.647C55.03 282.781 55.0964 283.016 55.24 283.115M53.029 276.92C53.2172 276.92 53.9328 276.953 54.2657 276.953C54.8879 276.953 55.3178 276.92 56.4808 276.92C57.4557 276.92 58.276 277.187 58.8624 277.699C59.5718 278.323 59.9514 279.192 59.9514 280.25C59.9514 281.754 59.2773 282.623 58.5995 283.113C57.9255 283.625 57.0486 283.915 55.7995 283.915C55.1347 283.915 53.9934 283.893 53.0409 283.882H53.0212C52.9766 283.792 53.1026 283.445 53.1804 283.436C53.4396 283.406 53.5081 283.396 53.6274 283.346C53.8285 283.262 53.8757 283.158 53.898 282.79C53.9312 282.099 53.9203 281.275 53.9203 280.339C53.9203 279.671 53.9312 278.368 53.9094 277.955C53.8757 277.61 53.7326 277.521 53.4428 277.454C53.2372 277.41 53.0295 277.377 52.8205 277.354C52.7987 277.287 52.9688 276.985 53.0243 276.92" fill="#21313C"/>
<path d="M62.6969 277.485C62.6529 277.496 62.5974 277.608 62.5974 277.663C62.586 278.064 62.5751 279.111 62.5751 279.835C62.5779 279.849 62.5847 279.862 62.5945 279.872C62.6044 279.882 62.6169 279.888 62.6306 279.891C62.7742 279.902 63.1289 279.914 63.4281 279.914C63.8491 279.914 64.0928 279.858 64.2256 279.791C64.5803 279.613 64.7441 279.222 64.7441 278.8C64.7441 277.83 64.0794 277.463 63.0936 277.463C62.9604 277.461 62.8272 277.469 62.6949 277.485M65.2098 281.941C65.2098 280.96 64.5004 280.404 63.2041 280.404C63.1491 280.404 62.7374 280.392 62.6394 280.415C62.6062 280.426 62.573 280.448 62.573 280.471C62.573 281.172 62.5616 282.297 62.5953 282.743C62.6176 282.932 62.7509 283.199 62.9163 283.277C63.0936 283.377 63.4924 283.4 63.7693 283.4C64.5336 283.4 65.2098 282.966 65.2098 281.941ZM60.6954 276.939C60.7955 276.939 61.09 276.972 61.8434 276.972C62.5523 276.972 63.1284 276.95 63.8139 276.95C64.6668 276.95 65.8408 277.262 65.8408 278.554C65.8408 279.187 65.398 279.702 64.8219 279.947C64.7887 279.958 64.7887 279.98 64.8219 279.991C65.6417 280.202 66.3614 280.715 66.3614 281.695C66.3614 282.654 65.7744 283.255 64.9214 283.634C64.4029 283.868 63.7584 283.945 63.1066 283.945C62.6083 283.945 61.2725 283.893 60.53 283.901C60.4522 283.868 60.601 283.511 60.6674 283.456C60.8375 283.45 61.0063 283.423 61.1699 283.375C61.4354 283.309 61.467 283.222 61.5002 282.821C61.5225 282.475 61.5225 281.239 61.5225 280.359C61.5225 279.155 61.5339 278.343 61.5225 277.942C61.5116 277.63 61.4006 277.529 61.1901 277.474C61.0242 277.44 60.7473 277.407 60.5259 277.374C60.4704 277.318 60.641 276.984 60.6959 276.939" fill="#21313C"/>
<path d="M20.9629 283.91C20.9344 283.839 20.9229 283.762 20.9292 283.685C20.9267 283.633 20.9384 283.581 20.9629 283.535C21.1062 283.514 21.2482 283.484 21.3881 283.447C21.5841 283.397 21.6578 283.288 21.6692 283.034C21.7013 282.434 21.7034 281.307 21.692 280.515V280.492C21.692 280.406 21.692 280.29 21.5883 280.208C21.406 280.092 21.2081 280.003 21.0008 279.945C20.908 279.917 20.8566 279.867 20.8592 279.809C20.8618 279.751 20.9204 279.683 21.0412 279.658C21.3622 279.625 22.2033 279.421 22.5336 279.266C22.5676 279.311 22.5833 279.368 22.5776 279.424C22.5776 279.459 22.5725 279.496 22.5688 279.534C22.5595 279.646 22.5491 279.773 22.5491 279.899C22.5511 279.915 22.5574 279.929 22.5671 279.941C22.5767 279.953 22.5895 279.962 22.604 279.967C22.6184 279.972 22.6339 279.973 22.6488 279.969C22.6637 279.966 22.6773 279.958 22.6881 279.947C23.3171 279.446 23.8807 279.267 24.1695 279.267C24.645 279.267 25.0153 279.498 25.302 279.974C25.3086 279.985 25.3179 279.995 25.3292 280.002C25.3405 280.008 25.3532 280.012 25.3663 280.012C25.3782 280.012 25.3898 280.009 25.4003 280.003C25.4108 279.998 25.4198 279.99 25.4264 279.98C26.0046 279.533 26.5776 279.267 26.9613 279.267C27.8677 279.267 28.4096 279.957 28.4096 281.113C28.4096 281.445 28.4064 281.866 28.4033 282.259C28.4007 282.604 28.3981 282.927 28.3981 283.151C28.3981 283.203 28.4697 283.355 28.577 283.385C28.7098 283.451 28.9011 283.485 29.1433 283.527H29.1526C29.1708 283.594 29.1324 283.851 29.0956 283.904C29.0354 283.904 28.9525 283.899 28.8488 283.894C28.6605 283.884 28.4023 283.871 28.1021 283.871C27.4995 283.871 27.1848 283.883 26.884 283.903C26.8612 283.826 26.8534 283.579 26.8809 283.528C27.0055 283.508 27.1288 283.481 27.2501 283.446C27.442 283.382 27.4975 283.293 27.5094 283.034C27.5141 282.85 27.5488 281.229 27.4871 280.844C27.4301 280.445 27.1345 279.977 26.4879 279.977C26.2478 279.977 25.8605 280.079 25.4913 280.364C25.4684 280.39 25.4555 280.424 25.455 280.459V280.467C25.4985 280.675 25.4985 280.918 25.4985 281.284C25.4985 281.495 25.4985 281.715 25.4959 281.935C25.4933 282.382 25.4913 282.804 25.4985 283.123C25.4985 283.34 25.6276 283.392 25.7319 283.434C25.7884 283.447 25.833 283.458 25.8781 283.468C25.9647 283.49 26.0549 283.512 26.1892 283.534C26.2091 283.626 26.2073 283.722 26.184 283.814C26.1785 283.848 26.1652 283.881 26.1451 283.909C25.8102 283.898 25.4664 283.888 24.9701 283.888C24.8198 283.888 24.5745 283.894 24.3578 283.9C24.182 283.905 24.016 283.909 23.9217 283.91C23.8961 283.849 23.8848 283.782 23.8885 283.716C23.8832 283.653 23.8952 283.591 23.9232 283.535L24.0565 283.51C24.1726 283.489 24.2732 283.471 24.3676 283.447C24.5315 283.394 24.5932 283.303 24.6051 283.091C24.6372 282.595 24.6621 281.166 24.5932 280.809C24.476 280.235 24.155 279.944 23.6386 279.944C23.3362 279.944 22.9541 280.092 22.6419 280.33C22.6119 280.36 22.5883 280.396 22.5725 280.435C22.5567 280.475 22.5491 280.517 22.5502 280.56C22.5502 280.73 22.5502 280.932 22.5502 281.15C22.5502 281.867 22.5455 282.759 22.5626 283.145C22.573 283.265 22.6145 283.406 22.8338 283.458C22.882 283.472 22.965 283.486 23.0614 283.502C23.1169 283.511 23.1776 283.521 23.2403 283.533C23.2603 283.659 23.2501 283.789 23.2108 283.91C23.1143 283.91 22.9956 283.904 22.8597 283.898C22.6523 283.888 22.393 283.877 22.1001 283.877C21.7537 283.877 21.5126 283.888 21.3192 283.898C21.189 283.904 21.0765 283.909 20.964 283.91" fill="#21313C"/>
<path d="M32.0828 279.744C31.8957 279.74 31.7116 279.793 31.5539 279.895C31.1692 280.133 30.9732 280.608 30.9732 281.306C30.9732 282.613 31.6167 283.526 32.5381 283.526C32.7852 283.534 33.0261 283.447 33.2132 283.283C33.4963 283.048 33.6467 282.568 33.6467 281.896C33.6467 280.609 33.0177 279.744 32.0818 279.744M32.2591 284.01C30.5946 284.01 30.002 282.768 30.002 281.607C30.002 280.795 30.3281 280.161 30.9716 279.721C31.4223 279.437 31.9397 279.281 32.4696 279.27C33.7395 279.27 34.6267 280.199 34.6267 281.529C34.6267 282.433 34.2726 283.147 33.6021 283.593C33.2801 283.794 32.7206 284.01 32.2591 284.01Z" fill="#21313C"/>
<path d="M49.0283 279.744C48.8408 279.74 48.6563 279.792 48.4984 279.895C48.1136 280.133 47.9176 280.608 47.9176 281.306C47.9176 282.613 48.5611 283.526 49.4825 283.526C49.7303 283.534 49.9721 283.447 50.1598 283.283C50.4429 283.048 50.5927 282.568 50.5927 281.896C50.5927 280.609 49.9643 279.744 49.0283 279.744ZM49.2057 284.01C47.5412 284.01 46.9485 282.768 46.9485 281.607C46.9485 280.795 47.2746 280.161 47.9187 279.721C48.3691 279.437 48.8863 279.281 49.4162 279.27C50.6861 279.27 51.5733 280.199 51.5733 281.529C51.5733 282.434 51.2191 283.147 50.5486 283.593C50.2266 283.794 49.6671 284.01 49.2057 284.01Z" fill="#21313C"/>
<path d="M43.4242 279.7C42.9113 279.7 42.5795 280.111 42.5795 280.749C42.5795 281.386 42.8652 282.144 43.6684 282.144C43.8063 282.144 44.0562 282.082 44.1802 281.943C44.3668 281.769 44.4913 281.408 44.4913 281.027C44.4913 280.196 44.0931 279.7 43.4267 279.7M43.3604 284.099C43.2155 284.098 43.0726 284.134 42.9455 284.205C42.5395 284.468 42.3513 284.732 42.3513 285.038C42.3513 285.325 42.4607 285.554 42.6961 285.756C42.9813 286.002 43.3661 286.121 43.8716 286.121C44.8667 286.121 45.3126 285.577 45.3126 285.038C45.3126 284.663 45.1275 284.411 44.7464 284.269C44.4529 284.16 43.9624 284.1 43.3619 284.1M43.4283 286.684C42.831 286.684 42.4006 286.555 42.0329 286.268C41.6751 285.987 41.5144 285.57 41.5144 285.283C41.5183 285.097 41.5879 284.919 41.7104 284.782C41.8141 284.661 42.0552 284.436 42.6127 284.047C42.6213 284.043 42.6287 284.037 42.6338 284.029C42.639 284.021 42.6417 284.011 42.6417 284.002C42.6419 283.991 42.6385 283.981 42.6321 283.972C42.6257 283.964 42.6166 283.958 42.6064 283.955C42.1475 283.777 42.0091 283.481 41.9671 283.323C41.9671 283.317 41.9671 283.308 41.9624 283.298C41.9494 283.236 41.937 283.177 42.0205 283.116C42.0848 283.069 42.1875 283.007 42.2974 282.941C42.4526 282.854 42.6014 282.756 42.7428 282.647C42.7504 282.638 42.756 282.628 42.7593 282.617C42.7625 282.607 42.7632 282.595 42.7614 282.584C42.7596 282.573 42.7553 282.562 42.7489 282.553C42.7424 282.544 42.7339 282.536 42.7241 282.531C42.0449 282.299 41.7026 281.786 41.7026 281.001C41.7005 280.757 41.7565 280.516 41.8657 280.298C41.9749 280.08 42.1342 279.892 42.3301 279.75C42.6033 279.53 43.2893 279.266 43.7337 279.266H43.7596C44.2165 279.277 44.4742 279.375 44.8309 279.509C45.0339 279.583 45.2489 279.618 45.4646 279.611C45.8426 279.611 46.008 279.489 46.1501 279.347C46.1731 279.411 46.1854 279.479 46.1864 279.547C46.1951 279.709 46.1517 279.869 46.063 280.004C45.9857 280.113 45.8037 280.193 45.6372 280.193C45.6201 280.193 45.6035 280.193 45.5854 280.19C45.4978 280.184 45.411 280.169 45.3261 280.146L45.2836 280.161C45.2701 280.181 45.2789 280.204 45.2898 280.232C45.2925 280.238 45.2946 280.244 45.2961 280.25C45.3264 280.39 45.347 280.533 45.3578 280.677C45.3578 281.497 45.0399 281.854 44.6961 282.118C44.3637 282.372 43.969 282.527 43.5553 282.568C43.5465 282.568 43.5035 282.571 43.4226 282.579C43.3707 282.583 43.3033 282.59 43.2935 282.59H43.2836C43.209 282.611 43.014 282.705 43.014 282.881C43.014 283.026 43.1021 283.207 43.5237 283.24L43.7965 283.259C44.3523 283.299 45.0466 283.348 45.3733 283.46C45.59 283.538 45.7772 283.683 45.9082 283.875C46.0391 284.066 46.1073 284.296 46.1029 284.529C46.1029 285.265 45.5885 285.956 44.7272 286.379C44.3211 286.577 43.8763 286.678 43.4262 286.676" fill="#21313C"/>
<path d="M40.8803 283.518C40.6366 283.484 40.4587 283.451 40.2487 283.35C40.2075 283.307 40.1803 283.252 40.1709 283.192C40.1486 282.847 40.1486 281.845 40.1486 281.189C40.1486 280.653 40.0605 280.187 39.8375 279.852C39.5715 279.473 39.195 279.25 38.7076 279.25C38.2757 279.25 37.6996 279.551 37.2236 279.963C37.2122 279.974 37.1391 280.045 37.1406 279.935C37.1422 279.826 37.1588 279.603 37.1691 279.461C37.1738 279.423 37.1696 279.384 37.157 279.349C37.1444 279.313 37.1237 279.28 37.0966 279.254C36.7854 279.412 35.9127 279.623 35.5897 279.655C35.3543 279.702 35.2947 279.932 35.5461 280.012H35.5498C35.7511 280.068 35.9432 280.154 36.1202 280.267C36.2197 280.345 36.2088 280.456 36.2088 280.545C36.2197 281.291 36.2197 282.439 36.1865 283.063C36.1756 283.308 36.1087 283.397 35.9314 283.442L35.948 283.436C35.813 283.47 35.676 283.496 35.5378 283.514C35.4824 283.569 35.4824 283.893 35.5378 283.96C35.6488 283.96 36.2119 283.926 36.6786 283.926C37.3206 283.926 37.6529 283.96 37.8194 283.96C37.8863 283.881 37.9081 283.581 37.864 283.514C37.7106 283.507 37.5583 283.484 37.4092 283.447C37.2324 283.403 37.1878 283.313 37.1769 283.113C37.1551 282.589 37.1551 281.475 37.1551 280.718C37.1551 280.507 37.2101 280.406 37.2765 280.349C37.4979 280.148 37.864 280.015 38.1849 280.015C38.4961 280.015 38.7035 280.115 38.859 280.248C39.0402 280.409 39.1538 280.635 39.1764 280.878C39.2205 281.3 39.209 282.148 39.209 282.882C39.209 283.283 39.1764 283.384 39.0322 283.428C38.9659 283.461 38.7885 283.495 38.578 283.517C38.5116 283.584 38.5334 283.896 38.578 283.963C38.8658 283.963 39.2002 283.929 39.6856 283.929C40.2949 283.929 40.6827 283.963 40.8378 283.963C40.9041 283.885 40.9264 283.594 40.8823 283.517" fill="#21313C"/>
</g>
<g filter="url(#filter2_d_180_237)">
<path d="M299 280C299 300.987 281.987 318 261 318C240.013 318 223 300.987 223 280C223 259.013 240.013 242 261 242C281.987 242 299 259.013 299 280Z" fill="#EEE7DB"/>
<path d="M296.5 280C296.5 299.606 280.606 315.5 261 315.5C241.394 315.5 225.5 299.606 225.5 280C225.5 260.394 241.394 244.5 261 244.5C280.606 244.5 296.5 260.394 296.5 280Z" stroke="black" stroke-width="5"/>
</g>
<path d="M276.923 288.919C275.793 289.217 275.094 288.932 274.467 287.956L270.007 281.556L269.363 280.669L264.154 287.977C263.559 288.856 262.935 289.238 261.824 288.927L268.494 279.641L262.285 271.254C263.352 271.038 264.09 271.148 264.745 272.14L269.371 278.619L274.031 272.175C274.628 271.296 275.27 270.962 276.341 271.286L273.934 274.597L270.672 279.002C270.284 279.505 270.337 279.85 270.694 280.336L276.923 288.919ZM245.866 279.486L246.411 276.703C247.897 271.195 253.983 268.906 258.181 272.31C260.634 274.312 261.244 277.143 261.123 280.315H247.295C247.087 286.024 251.049 289.47 256.1 287.712C257.871 287.095 258.915 285.656 259.437 283.855C259.702 282.953 260.141 282.812 260.958 283.07C260.541 285.321 259.599 287.202 257.609 288.38C254.636 290.142 250.391 289.572 248.159 287.123C246.829 285.702 246.279 283.902 246.033 281.976C245.994 281.658 245.916 281.355 245.858 281.05C245.863 280.529 245.866 280.007 245.866 279.486ZM247.32 279.104H259.816C259.734 274.975 257.256 272.043 253.869 272.018C250.151 271.988 247.481 274.85 247.32 279.104Z" fill="black"/>
<g filter="url(#filter3_d_180_237)">
<path d="M188 75C188 95.9868 170.987 113 150 113C129.013 113 112 95.9868 112 75C112 54.0132 129.013 37 150 37C170.987 37 188 54.0132 188 75Z" fill="#EEE7DB"/>
<path d="M185.5 75C185.5 94.6061 169.606 110.5 150 110.5C130.394 110.5 114.5 94.6061 114.5 75C114.5 55.3939 130.394 39.5 150 39.5C169.606 39.5 185.5 55.3939 185.5 75Z" stroke="black" stroke-width="5"/>
</g>
<g clip-path="url(#clip1_180_237)">
<path d="M150.306 94.095C150.123 94.095 149.942 94.0454 149.782 93.95L148.117 92.9272C147.868 92.7828 147.989 92.7318 148.071 92.7024C148.403 92.5819 148.47 92.5547 148.824 92.3462C148.862 92.3242 148.91 92.3319 148.948 92.3553L150.228 93.1428C150.274 93.1687 150.34 93.1687 150.383 93.1428L155.372 90.1557C155.418 90.1285 155.448 90.0728 155.448 90.0158V84.0443C155.448 83.9847 155.418 83.9316 155.371 83.9018L150.384 80.9173C150.337 80.8888 150.276 80.8888 150.23 80.9173L145.244 83.9018C145.196 83.9303 145.165 83.986 145.165 84.043V90.0146C145.165 90.0715 145.195 90.1259 145.242 90.1532L146.608 90.9718C147.35 91.3565 147.804 90.9032 147.804 90.4472V84.5533C147.804 84.4691 147.867 84.4044 147.948 84.4044H148.58C148.659 84.4044 148.724 84.4691 148.724 84.5533V90.4498C148.724 91.4757 148.185 92.0651 147.247 92.0651C146.958 92.0651 146.731 92.0651 146.096 91.7413L144.788 90.9589C144.464 90.7646 144.264 90.4019 144.264 90.0146V84.043C144.264 83.6544 144.464 83.2917 144.788 83.1L149.782 80.1116C150.098 79.9263 150.517 79.9263 150.831 80.1116L155.819 83.1013C156.141 83.2943 156.342 83.6557 156.342 84.0443V90.0158C156.342 90.4032 156.141 90.7646 155.819 90.9589L150.831 93.9472C150.671 94.0431 150.49 94.0923 150.305 94.0923" fill="#689F63"/>
<path d="M151.847 89.9802C149.664 89.9802 149.206 88.9408 149.206 88.069C149.206 87.9861 149.27 87.9201 149.351 87.9201H149.995C150.066 87.9201 150.126 87.9738 150.137 88.0467C150.235 88.7278 150.524 89.0714 151.844 89.0714C152.896 89.0714 153.343 88.825 153.343 88.2466C153.343 87.9137 153.216 87.6663 151.582 87.5005C150.216 87.3606 149.372 87.0484 149.372 85.915C149.372 84.8709 150.221 84.2492 151.643 84.2492C153.241 84.2492 154.032 84.8243 154.132 86.0601C154.136 86.1028 154.121 86.1443 154.094 86.1754C154.066 86.2051 154.027 86.2233 153.988 86.2233H153.339C153.272 86.2233 153.213 86.1741 153.199 86.1067C153.043 85.3904 152.666 85.1611 151.641 85.1611C150.493 85.1611 150.36 85.5756 150.36 85.8865C150.36 86.2634 150.517 86.3735 152.066 86.586C153.599 86.7971 154.327 87.0951 154.327 88.2129C154.327 89.3399 153.421 89.9863 151.839 89.9863M157.916 83.6533H158.084C158.221 83.6533 158.247 83.5536 158.247 83.4953C158.247 83.3424 158.146 83.3424 158.09 83.3424H157.918L157.916 83.6533ZM157.713 83.1637H158.084C158.211 83.1637 158.461 83.1637 158.461 83.459C158.461 83.665 158.333 83.7077 158.257 83.7336C158.406 83.744 158.416 83.845 158.436 83.9875C158.446 84.0769 158.462 84.231 158.492 84.2828H158.264C158.257 84.231 158.222 83.9461 158.222 83.9305C158.207 83.867 158.186 83.8359 158.11 83.8359H157.921V84.2841H157.713V83.1637ZM157.267 83.7207C157.267 84.1844 157.628 84.56 158.071 84.56C158.518 84.56 158.879 84.1766 158.879 83.7207C158.879 83.2556 158.513 82.8865 158.07 82.8865C157.633 82.8865 157.266 83.2504 157.266 83.7194M159.034 83.7233C159.034 84.2725 158.601 84.7207 158.072 84.7207C157.548 84.7207 157.111 84.2777 157.111 83.7233C157.111 83.1585 157.558 82.7258 158.072 82.7258C158.591 82.7258 159.033 83.1598 159.033 83.7233" fill="#689F63"/>
<path fill-rule="evenodd" clip-rule="evenodd" d="M134.856 70.7294C134.856 70.491 134.735 70.2721 134.537 70.1536L129.247 66.9968C129.158 66.9424 129.058 66.9139 128.956 66.91H128.902C128.8 66.9139 128.7 66.9424 128.609 66.9968L123.32 70.1536C123.123 70.2728 123 70.4917 123 70.73L123.012 79.2327C123.012 79.3506 123.07 79.4607 123.17 79.519C123.268 79.5812 123.39 79.5812 123.487 79.519L126.632 77.6511C126.831 77.5286 126.952 77.312 126.952 77.076V73.1038C126.952 72.8667 127.073 72.6478 127.271 72.5299L128.61 71.7302C128.709 71.6706 128.818 71.6411 128.929 71.6411C129.039 71.6411 129.15 71.6703 129.247 71.73L130.585 72.5295C130.783 72.6474 130.905 72.8663 130.905 73.1034V77.0753C130.905 77.3111 131.028 77.5287 131.225 77.6505L134.368 79.5171C134.466 79.5779 134.589 79.5779 134.687 79.5171C134.784 79.4588 134.846 79.3487 134.846 79.2308L134.856 70.7294ZM159.816 75.1564C159.816 75.2156 159.786 75.2704 159.736 75.2997L157.92 76.3859C157.87 76.4153 157.809 76.4153 157.76 76.3859L155.943 75.2997C155.893 75.2702 155.863 75.2155 155.863 75.1564V72.9807C155.863 72.9214 155.893 72.8667 155.942 72.8369L157.758 71.7488C157.808 71.719 157.869 71.719 157.919 71.7488L159.736 72.8369C159.786 72.8667 159.816 72.9214 159.816 72.9807L159.816 75.1564ZM160.307 59.0419C160.208 58.9847 160.087 58.9862 159.99 59.0454C159.892 59.105 159.832 59.2138 159.832 59.3317V67.7515C159.832 67.8344 159.789 67.9108 159.72 67.9523C159.652 67.9937 159.566 67.9937 159.497 67.9523L158.172 67.1607C157.974 67.0423 157.731 67.0423 157.533 67.1607L152.242 70.3282C152.044 70.4461 151.922 70.665 151.922 70.9008V77.2376C151.922 77.4747 152.044 77.6923 152.242 77.8115L157.533 80.9812C157.731 81.0991 157.974 81.0991 158.172 80.9812L163.464 77.8102C163.661 77.691 163.783 77.4734 163.783 77.2363V61.4434C163.783 61.203 163.657 60.9819 163.455 60.8644L160.307 59.0419ZM177.928 72.9235C178.124 72.8051 178.245 72.5864 178.245 72.3507V70.8149C178.245 70.5786 178.124 70.3606 177.927 70.2417L172.669 67.0758C172.471 66.9567 172.227 66.9567 172.029 67.0758L166.739 70.243C166.54 70.3622 166.419 70.5798 166.419 70.8168V77.1511C166.419 77.3894 166.543 77.6097 166.741 77.7275L171.998 80.8351C172.191 80.9504 172.428 80.9517 172.624 80.839L175.804 79.006C175.904 78.9478 175.968 78.8376 175.968 78.7185C175.968 78.5993 175.906 78.4879 175.806 78.4296L170.484 75.2612C170.384 75.2029 170.323 75.0928 170.323 74.9749V72.9878C170.323 72.8692 170.383 72.7599 170.483 72.7008L172.139 71.7098C172.237 71.6503 172.358 71.6503 172.457 71.7098L174.114 72.7008C174.213 72.7591 174.274 72.8692 174.274 72.9871V74.5493C174.274 74.6671 174.335 74.7772 174.434 74.8368C174.533 74.8951 174.655 74.8951 174.754 74.8355L177.928 72.9235Z" fill="#333333"/>
<path fill-rule="evenodd" clip-rule="evenodd" d="M172.272 72.6271C172.309 72.6041 172.356 72.6041 172.394 72.6271L173.409 73.2346C173.447 73.2574 173.471 73.2993 173.471 73.3447V74.561C173.471 74.6064 173.447 74.6483 173.409 74.6711L172.394 75.2786C172.356 75.3016 172.309 75.3016 172.272 75.2786L171.257 74.6711C171.218 74.6483 171.195 74.6064 171.195 74.561V73.3447C171.195 73.2993 171.217 73.2574 171.256 73.2346L172.272 72.6271Z" fill="#689F63"/>
<mask id="mask0_180_237" style="mask-type:luminance" maskUnits="userSpaceOnUse" x="137" y="67" width="13" height="14">
<path d="M143.072 67.1075L137.811 70.2574C137.614 70.3753 137.493 70.5929 137.493 70.8281V77.1324C137.493 77.3677 137.614 77.5852 137.811 77.7031L143.072 80.8555C143.269 80.9729 143.512 80.9729 143.708 80.8555L148.969 77.7031C149.165 77.5852 149.286 77.3676 149.286 77.1324V70.8281C149.286 70.5929 149.165 70.3753 148.968 70.2574L143.708 67.1075C143.609 67.0488 143.499 67.0194 143.389 67.0194C143.279 67.0194 143.169 67.0488 143.071 67.1075" fill="white"/>
</mask>
<g mask="url(#mask0_180_237)">
<path d="M154.603 69.7226L139.777 62.1849L132.176 78.2698L147.001 85.8079L154.603 69.7226Z" fill="url(#paint0_linear_180_237)"/>
</g>
<mask id="mask1_180_237" style="mask-type:luminance" maskUnits="userSpaceOnUse" x="137" y="67" width="13" height="14">
<path d="M137.623 77.5326C137.673 77.6004 137.736 77.6591 137.81 77.7031L142.324 80.4072L143.076 80.8554C143.188 80.9227 143.316 80.9512 143.442 80.9415C143.484 80.938 143.526 80.9298 143.567 80.9178L149.116 70.3788C149.073 70.3309 149.024 70.2907 148.968 70.257L145.523 68.1935L143.702 67.1067C143.65 67.0757 143.594 67.0536 143.537 67.0381L137.623 77.5326Z" fill="white"/>
</mask>
<g mask="url(#mask1_180_237)">
<path d="M131.213 71.952L141.681 86.6481L155.526 76.0384L145.057 61.3427L131.213 71.952Z" fill="url(#paint1_linear_180_237)"/>
</g>
<mask id="mask2_180_237" style="mask-type:luminance" maskUnits="userSpaceOnUse" x="137" y="67" width="13" height="14">
<path d="M143.326 67.023C143.238 67.032 143.152 67.0605 143.072 67.1074L137.826 70.2483L143.483 80.9362C143.562 80.9246 143.639 80.8974 143.709 80.8554L148.97 77.703C149.133 77.6053 149.244 77.4401 149.278 77.2528L143.51 67.0337C143.468 67.025 143.426 67.0205 143.382 67.0205C143.364 67.0205 143.347 67.0214 143.329 67.0231" fill="white"/>
</mask>
<g mask="url(#mask2_180_237)">
<path d="M137.825 67.0205V80.9365H149.275V67.0205H137.825Z" fill="url(#paint2_linear_180_237)"/>
</g>
</g>
<path d="M133.509 16.8V26.016C133.509 26.6773 133.37 27.1733 133.093 27.504C132.826 27.8347 132.4 28 131.813 28H130.741L126.133 19.136V28H124.693V16.8H126.453L131.525 26.688H131.621C131.792 26.688 131.909 26.624 131.973 26.496C132.037 26.368 132.069 26.1333 132.069 25.792V16.8H133.509ZM138.944 28.176C137.898 28.176 137.088 27.9253 136.512 27.424C135.946 26.912 135.664 26.192 135.664 25.264V23.216C135.664 22.288 135.946 21.5733 136.512 21.072C137.088 20.56 137.898 20.304 138.944 20.304C139.989 20.304 140.794 20.56 141.36 21.072C141.925 21.5733 142.208 22.288 142.208 23.216V25.264C142.208 26.192 141.925 26.912 141.36 27.424C140.794 27.9253 139.989 28.176 138.944 28.176ZM138.944 27.072C139.53 27.072 139.984 26.9173 140.304 26.608C140.634 26.288 140.8 25.84 140.8 25.264V23.216C140.8 22.64 140.634 22.1973 140.304 21.888C139.984 21.568 139.53 21.408 138.944 21.408C138.346 21.408 137.882 21.568 137.552 21.888C137.232 22.1973 137.072 22.64 137.072 23.216V25.264C137.072 25.84 137.232 26.288 137.552 26.608C137.882 26.9173 138.346 27.072 138.944 27.072ZM151.017 26.32C151.017 26.544 151.059 26.7307 151.145 26.88C151.23 27.0187 151.385 27.1733 151.609 27.344L150.665 28.176C150.163 27.9093 149.838 27.4827 149.689 26.896C149.155 27.7493 148.318 28.176 147.177 28.176C146.515 28.176 145.934 28.0267 145.433 27.728C144.942 27.4187 144.558 26.9867 144.281 26.432C144.014 25.8773 143.881 25.232 143.881 24.496V23.984C143.881 23.2693 144.009 22.6347 144.265 22.08C144.531 21.5253 144.91 21.0933 145.401 20.784C145.902 20.464 146.494 20.304 147.177 20.304C148.265 20.304 149.075 20.6773 149.609 21.424V18.144C149.609 17.92 149.566 17.7387 149.481 17.6C149.406 17.4613 149.251 17.296 149.017 17.104L149.977 16.272C150.371 16.4853 150.643 16.7307 150.793 17.008C150.942 17.2747 151.017 17.6533 151.017 18.144V26.32ZM149.609 22.992C149.438 22.4587 149.177 22.064 148.825 21.808C148.483 21.5413 148.041 21.408 147.497 21.408C146.825 21.408 146.286 21.648 145.881 22.128C145.486 22.608 145.289 23.2267 145.289 23.984V24.496C145.289 25.2533 145.486 25.872 145.881 26.352C146.275 26.832 146.814 27.072 147.497 27.072C148.041 27.072 148.483 26.944 148.825 26.688C149.177 26.4213 149.438 26.0213 149.609 25.488V22.992ZM156.414 27.088C156.852 27.088 157.225 27.024 157.534 26.896C157.854 26.768 158.164 26.56 158.462 26.272L159.326 27.056C159.006 27.44 158.606 27.7227 158.126 27.904C157.657 28.0853 157.076 28.176 156.382 28.176C155.284 28.176 154.452 27.9413 153.886 27.472C153.332 26.992 153.054 26.2827 153.054 25.344V22.96C153.054 22.1387 153.337 21.4933 153.902 21.024C154.478 20.544 155.262 20.304 156.254 20.304C157.278 20.304 158.068 20.5547 158.622 21.056C159.188 21.5573 159.47 22.2773 159.47 23.216C159.47 23.8453 159.358 24.2773 159.134 24.512C158.921 24.7467 158.505 24.864 157.886 24.864H154.462V25.36C154.462 25.936 154.622 26.368 154.942 26.656C155.262 26.944 155.753 27.088 156.414 27.088ZM156.254 21.392C155.689 21.392 155.246 21.5413 154.926 21.84C154.617 22.1387 154.462 22.544 154.462 23.056V23.856H157.198C157.529 23.856 157.753 23.8027 157.87 23.696C157.998 23.5893 158.062 23.3867 158.062 23.088C158.062 22.5547 157.902 22.1387 157.582 21.84C157.262 21.5413 156.82 21.392 156.254 21.392ZM161.892 28.176C161.625 28.176 161.401 28.0853 161.22 27.904C161.038 27.7227 160.948 27.4987 160.948 27.232C160.948 26.9653 161.038 26.7413 161.22 26.56C161.401 26.368 161.625 26.272 161.892 26.272C162.158 26.272 162.382 26.368 162.564 26.56C162.745 26.7413 162.836 26.9653 162.836 27.232C162.836 27.4987 162.745 27.7227 162.564 27.904C162.382 28.0853 162.158 28.176 161.892 28.176ZM165.414 19.008C165.169 19.008 164.955 18.9227 164.774 18.752C164.603 18.5707 164.518 18.3573 164.518 18.112C164.518 17.8667 164.609 17.6587 164.79 17.488C164.971 17.3067 165.179 17.216 165.414 17.216C165.659 17.216 165.867 17.3067 166.038 17.488C166.219 17.6587 166.31 17.8667 166.31 18.112C166.31 18.3573 166.219 18.5707 166.038 18.752C165.867 18.9227 165.659 19.008 165.414 19.008ZM162.23 30.544H163.014C163.601 30.544 164.027 30.3947 164.294 30.096C164.571 29.808 164.71 29.3493 164.71 28.72V20.48H166.118V28.72C166.118 29.7547 165.873 30.5013 165.382 30.96C164.902 31.4187 164.113 31.648 163.014 31.648H162.23V30.544ZM170.725 28.176C170.021 28.176 169.45 28.0747 169.013 27.872C168.586 27.6587 168.192 27.3173 167.829 26.848L168.725 26.08C169.034 26.4427 169.333 26.6987 169.621 26.848C169.92 26.9973 170.288 27.072 170.725 27.072C171.888 27.072 172.469 26.704 172.469 25.968C172.469 25.7333 172.405 25.5467 172.277 25.408C172.16 25.2587 171.946 25.136 171.637 25.04C171.338 24.9333 170.885 24.8267 170.277 24.72C169.53 24.5707 168.97 24.3147 168.597 23.952C168.224 23.5787 168.037 23.088 168.037 22.48C168.037 21.7973 168.288 21.264 168.789 20.88C169.29 20.496 169.978 20.304 170.853 20.304C172.144 20.304 173.05 20.7147 173.573 21.536L172.677 22.288C172.421 21.9787 172.149 21.7547 171.861 21.616C171.584 21.4773 171.248 21.408 170.853 21.408C170.384 21.408 170.021 21.504 169.765 21.696C169.509 21.888 169.381 22.1547 169.381 22.496C169.381 22.8053 169.504 23.0453 169.749 23.216C169.994 23.376 170.384 23.5093 170.917 23.616C171.621 23.776 172.176 23.9467 172.581 24.128C172.986 24.2987 173.29 24.5333 173.493 24.832C173.696 25.12 173.797 25.504 173.797 25.984C173.797 27.4453 172.773 28.176 170.725 28.176Z" fill="black"/>
<path d="M233.092 337.414C231.791 337.414 230.836 337.132 230.228 336.566C229.62 336.001 229.316 335.153 229.316 334.022V329.606C229.316 328.476 229.62 327.628 230.228 327.062C230.836 326.497 231.791 326.214 233.092 326.214H236.916V327.414H233.092C232.314 327.414 231.743 327.596 231.38 327.958C231.018 328.31 230.836 328.86 230.836 329.606V331.206H236.132V332.422H230.836V334.022C230.836 334.769 231.018 335.324 231.38 335.686C231.743 336.038 232.314 336.214 233.092 336.214H236.98V337.414H233.092ZM243.109 337.414L241.189 334.582L239.333 337.414H237.893L240.453 333.494L238.021 329.894H239.445L241.285 332.598L243.061 329.894H244.501L242.037 333.702L244.549 337.414H243.109ZM249.696 329.718C250.4 329.718 250.997 329.889 251.488 330.23C251.989 330.561 252.363 331.009 252.608 331.574C252.853 332.129 252.976 332.737 252.976 333.398V333.91C252.976 334.572 252.853 335.185 252.608 335.75C252.363 336.305 251.989 336.753 251.488 337.094C250.997 337.425 250.4 337.59 249.696 337.59C249.056 337.59 248.544 337.489 248.16 337.286C247.787 337.073 247.483 336.79 247.248 336.438V340.918H245.84V331.574C245.84 331.35 245.797 331.169 245.712 331.03C245.627 330.881 245.472 330.721 245.248 330.55L246.176 329.718C246.485 329.889 246.715 330.07 246.864 330.262C247.024 330.454 247.125 330.694 247.168 330.982C247.723 330.14 248.565 329.718 249.696 329.718ZM251.568 333.398C251.568 332.641 251.365 332.022 250.96 331.542C250.565 331.062 250.032 330.822 249.36 330.822C248.272 330.822 247.568 331.35 247.248 332.406V334.902C247.568 335.958 248.272 336.486 249.36 336.486C250.032 336.486 250.565 336.246 250.96 335.766C251.365 335.286 251.568 334.668 251.568 333.91V333.398ZM258.193 329.718C258.652 329.718 259.036 329.83 259.345 330.054L258.993 331.286C258.631 331.073 258.247 330.966 257.841 330.966C257.361 330.966 256.951 331.169 256.609 331.574C256.268 331.98 256.017 332.524 255.857 333.206V337.414H254.449V331.574C254.449 331.35 254.407 331.169 254.321 331.03C254.236 330.881 254.081 330.721 253.857 330.55L254.801 329.718C255.175 329.921 255.436 330.145 255.585 330.39C255.745 330.625 255.836 330.956 255.857 331.382C256.092 330.86 256.407 330.454 256.801 330.166C257.196 329.868 257.66 329.718 258.193 329.718ZM263.44 336.502C263.877 336.502 264.251 336.438 264.56 336.31C264.88 336.182 265.189 335.974 265.488 335.686L266.352 336.47C266.032 336.854 265.632 337.137 265.152 337.318C264.683 337.5 264.101 337.59 263.408 337.59C262.309 337.59 261.477 337.356 260.912 336.886C260.357 336.406 260.08 335.697 260.08 334.758V332.374C260.08 331.553 260.363 330.908 260.928 330.438C261.504 329.958 262.288 329.718 263.28 329.718C264.304 329.718 265.093 329.969 265.648 330.47C266.213 330.972 266.496 331.692 266.496 332.63C266.496 333.26 266.384 333.692 266.16 333.926C265.947 334.161 265.531 334.278 264.912 334.278H261.488V334.774C261.488 335.35 261.648 335.782 261.968 336.07C262.288 336.358 262.779 336.502 263.44 336.502ZM263.28 330.806C262.715 330.806 262.272 330.956 261.952 331.254C261.643 331.553 261.488 331.958 261.488 332.47V333.27H264.224C264.555 333.27 264.779 333.217 264.896 333.11C265.024 333.004 265.088 332.801 265.088 332.502C265.088 331.969 264.928 331.553 264.608 331.254C264.288 330.956 263.845 330.806 263.28 330.806ZM270.845 337.59C270.141 337.59 269.57 337.489 269.133 337.286C268.706 337.073 268.311 336.732 267.949 336.262L268.845 335.494C269.154 335.857 269.453 336.113 269.741 336.262C270.039 336.412 270.407 336.486 270.845 336.486C272.007 336.486 272.589 336.118 272.589 335.382C272.589 335.148 272.525 334.961 272.397 334.822C272.279 334.673 272.066 334.55 271.757 334.454C271.458 334.348 271.005 334.241 270.397 334.134C269.65 333.985 269.09 333.729 268.717 333.366C268.343 332.993 268.157 332.502 268.157 331.894C268.157 331.212 268.407 330.678 268.909 330.294C269.41 329.91 270.098 329.718 270.973 329.718C272.263 329.718 273.17 330.129 273.693 330.95L272.797 331.702C272.541 331.393 272.269 331.169 271.981 331.03C271.703 330.892 271.367 330.822 270.973 330.822C270.503 330.822 270.141 330.918 269.885 331.11C269.629 331.302 269.501 331.569 269.501 331.91C269.501 332.22 269.623 332.46 269.869 332.63C270.114 332.79 270.503 332.924 271.037 333.03C271.741 333.19 272.295 333.361 272.701 333.542C273.106 333.713 273.41 333.948 273.613 334.246C273.815 334.534 273.917 334.918 273.917 335.398C273.917 336.86 272.893 337.59 270.845 337.59ZM278.095 337.59C277.391 337.59 276.82 337.489 276.383 337.286C275.956 337.073 275.561 336.732 275.199 336.262L276.095 335.494C276.404 335.857 276.703 336.113 276.991 336.262C277.289 336.412 277.657 336.486 278.095 336.486C279.257 336.486 279.839 336.118 279.839 335.382C279.839 335.148 279.775 334.961 279.647 334.822C279.529 334.673 279.316 334.55 279.007 334.454C278.708 334.348 278.255 334.241 277.647 334.134C276.9 333.985 276.34 333.729 275.967 333.366C275.593 332.993 275.407 332.502 275.407 331.894C275.407 331.212 275.657 330.678 276.159 330.294C276.66 329.91 277.348 329.718 278.223 329.718C279.513 329.718 280.42 330.129 280.943 330.95L280.047 331.702C279.791 331.393 279.519 331.169 279.231 331.03C278.953 330.892 278.617 330.822 278.223 330.822C277.753 330.822 277.391 330.918 277.135 331.11C276.879 331.302 276.751 331.569 276.751 331.91C276.751 332.22 276.873 332.46 277.119 332.63C277.364 332.79 277.753 332.924 278.287 333.03C278.991 333.19 279.545 333.361 279.951 333.542C280.356 333.713 280.66 333.948 280.863 334.246C281.065 334.534 281.167 334.918 281.167 335.398C281.167 336.86 280.143 337.59 278.095 337.59ZM283.62 337.59C283.354 337.59 283.13 337.5 282.948 337.318C282.767 337.137 282.676 336.913 282.676 336.646C282.676 336.38 282.767 336.156 282.948 335.974C283.13 335.782 283.354 335.686 283.62 335.686C283.887 335.686 284.111 335.782 284.292 335.974C284.474 336.156 284.564 336.38 284.564 336.646C284.564 336.913 284.474 337.137 284.292 337.318C284.111 337.5 283.887 337.59 283.62 337.59ZM287.143 328.422C286.897 328.422 286.684 328.337 286.503 328.166C286.332 327.985 286.247 327.772 286.247 327.526C286.247 327.281 286.337 327.073 286.519 326.902C286.7 326.721 286.908 326.63 287.143 326.63C287.388 326.63 287.596 326.721 287.767 326.902C287.948 327.073 288.039 327.281 288.039 327.526C288.039 327.772 287.948 327.985 287.767 328.166C287.596 328.337 287.388 328.422 287.143 328.422ZM283.959 339.958H284.743C285.329 339.958 285.756 339.809 286.023 339.51C286.3 339.222 286.439 338.764 286.439 338.134V329.894H287.847V338.134C287.847 339.169 287.601 339.916 287.111 340.374C286.631 340.833 285.841 341.062 284.743 341.062H283.959V339.958ZM292.454 337.59C291.75 337.59 291.179 337.489 290.742 337.286C290.315 337.073 289.921 336.732 289.558 336.262L290.454 335.494C290.763 335.857 291.062 336.113 291.35 336.262C291.649 336.412 292.017 336.486 292.454 336.486C293.617 336.486 294.198 336.118 294.198 335.382C294.198 335.148 294.134 334.961 294.006 334.822C293.889 334.673 293.675 334.55 293.366 334.454C293.067 334.348 292.614 334.241 292.006 334.134C291.259 333.985 290.699 333.729 290.326 333.366C289.953 332.993 289.766 332.502 289.766 331.894C289.766 331.212 290.017 330.678 290.518 330.294C291.019 329.91 291.707 329.718 292.582 329.718C293.873 329.718 294.779 330.129 295.302 330.95L294.406 331.702C294.15 331.393 293.878 331.169 293.59 331.03C293.313 330.892 292.977 330.822 292.582 330.822C292.113 330.822 291.75 330.918 291.494 331.11C291.238 331.302 291.11 331.569 291.11 331.91C291.11 332.22 291.233 332.46 291.478 332.63C291.723 332.79 292.113 332.924 292.646 333.03C293.35 333.19 293.905 333.361 294.31 333.542C294.715 333.713 295.019 333.948 295.222 334.246C295.425 334.534 295.526 334.918 295.526 335.398C295.526 336.86 294.502 337.59 292.454 337.59Z" fill="black"/>
<path d="M5.20952 326.214H6.05752C6.65485 326.214 7.11352 326.342 7.43352 326.598C7.76419 326.854 8.10552 327.329 8.45752 328.022L10.3455 331.654L12.2335 328.022C12.5855 327.329 12.9215 326.854 13.2415 326.598C13.5722 326.342 14.0362 326.214 14.6335 326.214H15.4815V337.414H14.0735V327.766C13.9349 327.777 13.8122 327.836 13.7055 327.942C13.6095 328.038 13.4922 328.209 13.3535 328.454L10.3455 334.102L7.33752 328.454C7.20952 328.209 7.09219 328.038 6.98552 327.942C6.87885 327.836 6.75619 327.777 6.61752 327.766V337.414H5.20952V326.214ZM21.1163 337.59C20.0709 337.59 19.2603 337.34 18.6843 336.838C18.1189 336.326 17.8363 335.606 17.8363 334.678V332.63C17.8363 331.702 18.1189 330.988 18.6843 330.486C19.2603 329.974 20.0709 329.718 21.1163 329.718C22.1616 329.718 22.9669 329.974 23.5323 330.486C24.0976 330.988 24.3803 331.702 24.3803 332.63V334.678C24.3803 335.606 24.0976 336.326 23.5323 336.838C22.9669 337.34 22.1616 337.59 21.1163 337.59ZM21.1163 336.486C21.7029 336.486 22.1563 336.332 22.4763 336.022C22.8069 335.702 22.9723 335.254 22.9723 334.678V332.63C22.9723 332.054 22.8069 331.612 22.4763 331.302C22.1563 330.982 21.7029 330.822 21.1163 330.822C20.5189 330.822 20.0549 330.982 19.7243 331.302C19.4043 331.612 19.2443 332.054 19.2443 332.63V334.678C19.2443 335.254 19.4043 335.702 19.7243 336.022C20.0549 336.332 20.5189 336.486 21.1163 336.486ZM30.375 329.718C31.1537 329.718 31.7564 329.942 32.183 330.39C32.6204 330.838 32.839 331.468 32.839 332.278V337.414H31.431V332.454C31.431 331.942 31.303 331.542 31.047 331.254C30.791 330.966 30.439 330.822 29.991 330.822C29.4897 330.822 29.0577 330.998 28.695 331.35C28.3324 331.702 28.0657 332.177 27.895 332.774V337.414H26.487V331.574C26.487 331.35 26.4444 331.169 26.359 331.03C26.2737 330.881 26.119 330.721 25.895 330.55L26.823 329.718C27.1644 329.91 27.415 330.113 27.575 330.326C27.735 330.54 27.8364 330.817 27.879 331.158C28.1244 330.71 28.4604 330.358 28.887 330.102C29.3137 329.846 29.8097 329.718 30.375 329.718ZM42.328 330.55C42.104 330.721 41.9494 330.881 41.864 331.03C41.7787 331.169 41.736 331.35 41.736 331.574V337.862C41.736 338.801 41.4854 339.494 40.984 339.942C40.4827 340.39 39.6987 340.614 38.632 340.614H36.648V339.51H38.632C39.1974 339.51 39.6187 339.372 39.896 339.094C40.184 338.828 40.328 338.417 40.328 337.862V336.262C39.8054 337.03 38.9947 337.414 37.896 337.414C36.8827 337.414 36.0774 337.084 35.48 336.422C34.8934 335.761 34.6 334.865 34.6 333.734V333.398C34.6 332.684 34.728 332.049 34.984 331.494C35.2507 330.94 35.6294 330.508 36.12 330.198C36.6214 329.878 37.2134 329.718 37.896 329.718C38.44 329.718 38.9254 329.825 39.352 330.038C39.7787 330.252 40.136 330.561 40.424 330.966C40.4667 330.689 40.5574 330.454 40.696 330.262C40.8347 330.07 41.064 329.889 41.384 329.718L42.328 330.55ZM38.216 336.31C38.7707 336.31 39.2187 336.177 39.56 335.91C39.9014 335.644 40.1574 335.238 40.328 334.694V332.422C40.1574 331.878 39.896 331.478 39.544 331.222C39.2027 330.956 38.76 330.822 38.216 330.822C37.544 330.822 37.0054 331.062 36.6 331.542C36.2054 332.022 36.008 332.641 36.008 333.398V333.734C36.008 334.492 36.2054 335.11 36.6 335.59C36.9947 336.07 37.5334 336.31 38.216 336.31ZM47.0538 337.59C46.0084 337.59 45.1978 337.34 44.6218 336.838C44.0564 336.326 43.7738 335.606 43.7738 334.678V332.63C43.7738 331.702 44.0564 330.988 44.6218 330.486C45.1978 329.974 46.0084 329.718 47.0538 329.718C48.0991 329.718 48.9044 329.974 49.4698 330.486C50.0351 330.988 50.3178 331.702 50.3178 332.63V334.678C50.3178 335.606 50.0351 336.326 49.4698 336.838C48.9044 337.34 48.0991 337.59 47.0538 337.59ZM47.0538 336.486C47.6404 336.486 48.0938 336.332 48.4138 336.022C48.7444 335.702 48.9098 335.254 48.9098 334.678V332.63C48.9098 332.054 48.7444 331.612 48.4138 331.302C48.0938 330.982 47.6404 330.822 47.0538 330.822C46.4564 330.822 45.9924 330.982 45.6618 331.302C45.3418 331.612 45.1818 332.054 45.1818 332.63V334.678C45.1818 335.254 45.3418 335.702 45.6618 336.022C45.9924 336.332 46.4564 336.486 47.0538 336.486ZM52.6626 326.214H56.6946C57.9 326.214 58.8546 326.396 59.5586 326.758C60.2626 327.121 60.7693 327.708 61.0786 328.518C61.3986 329.329 61.5586 330.428 61.5586 331.814C61.5586 333.212 61.3986 334.316 61.0786 335.126C60.7693 335.926 60.2626 336.508 59.5586 336.87C58.8546 337.233 57.9 337.414 56.6946 337.414H52.6626V326.214ZM56.6946 336.214C57.516 336.214 58.1666 336.07 58.6466 335.782C59.1373 335.494 59.4893 335.036 59.7026 334.406C59.9266 333.766 60.0386 332.908 60.0386 331.83C60.0386 330.742 59.9266 329.878 59.7026 329.238C59.4893 328.598 59.1373 328.134 58.6466 327.846C58.1666 327.558 57.516 327.414 56.6946 327.414H54.1826V336.214H56.6946ZM67.6243 337.59C66.5149 337.59 65.6989 337.217 65.1763 336.47V337.414H63.7683V327.558C63.7683 327.324 63.7256 327.137 63.6403 326.998C63.5656 326.86 63.4109 326.7 63.1763 326.518L64.1043 325.686C64.5096 325.9 64.7869 326.145 64.9363 326.422C65.0963 326.689 65.1763 327.068 65.1763 327.558V330.87C65.7203 330.102 66.5309 329.718 67.6083 329.718C68.2803 329.718 68.8616 329.878 69.3523 330.198C69.8536 330.508 70.2376 330.94 70.5043 331.494C70.7709 332.049 70.9043 332.684 70.9043 333.398V333.91C70.9043 334.625 70.7709 335.26 70.5043 335.814C70.2483 336.369 69.8696 336.806 69.3683 337.126C68.8776 337.436 68.2963 337.59 67.6243 337.59ZM67.2883 336.486C67.9603 336.486 68.4936 336.246 68.8883 335.766C69.2936 335.286 69.4963 334.668 69.4963 333.91V333.398C69.4963 332.641 69.2936 332.022 68.8883 331.542C68.4936 331.062 67.9603 330.822 67.2883 330.822C66.2003 330.822 65.4963 331.35 65.1763 332.406V334.902C65.4963 335.958 66.2003 336.486 67.2883 336.486Z" fill="black"/>
<defs>
<filter id="filter0_d_180_237" x="12.9763" y="63.6804" width="279.796" height="289.62" filterUnits="userSpaceOnUse" color-interpolation-filters="sRGB">
<feFlood flood-opacity="0" result="BackgroundImageFix"/>
<feColorMatrix in="SourceAlpha" type="matrix" values="0 0 0 0 0 0 0 0 0 0 0 0 0 0 0 0 0 0 127 0" result="hardAlpha"/>
<feMorphology radius="4" operator="dilate" in="SourceAlpha" result="effect1_dropShadow_180_237"/>
<feOffset dx="5" dy="6"/>
<feGaussianBlur stdDeviation="2"/>
<feComposite in2="hardAlpha" operator="out"/>
<feColorMatrix type="matrix" values="0 0 0 0 0 0 0 0 0 0 0 0 0 0 0 0 0 0 0.25 0"/>
<feBlend mode="normal" in2="BackgroundImageFix" result="effect1_dropShadow_180_237"/>
<feBlend mode="normal" in="SourceGraphic" in2="effect1_dropShadow_180_237" result="shape"/>
</filter>
<filter id="filter1_d_180_237" x="0" y="240" width="84" height="84" filterUnits="userSpaceOnUse" color-interpolation-filters="sRGB">
<feFlood flood-opacity="0" result="BackgroundImageFix"/>
<feColorMatrix in="SourceAlpha" type="matrix" values="0 0 0 0 0 0 0 0 0 0 0 0 0 0 0 0 0 0 127 0" result="hardAlpha"/>
<feOffset dx="2" dy="2"/>
<feGaussianBlur stdDeviation="2"/>
<feComposite in2="hardAlpha" operator="out"/>
<feColorMatrix type="matrix" values="0 0 0 0 0 0 0 0 0 0 0 0 0 0 0 0 0 0 0.25 0"/>
<feBlend mode="normal" in2="BackgroundImageFix" result="effect1_dropShadow_180_237"/>
<feBlend mode="normal" in="SourceGraphic" in2="effect1_dropShadow_180_237" result="shape"/>
</filter>
<filter id="filter2_d_180_237" x="221" y="240" width="84" height="84" filterUnits="userSpaceOnUse" color-interpolation-filters="sRGB">
<feFlood flood-opacity="0" result="BackgroundImageFix"/>
<feColorMatrix in="SourceAlpha" type="matrix" values="0 0 0 0 0 0 0 0 0 0 0 0 0 0 0 0 0 0 127 0" result="hardAlpha"/>
<feOffset dx="2" dy="2"/>
<feGaussianBlur stdDeviation="2"/>
<feComposite in2="hardAlpha" operator="out"/>
<feColorMatrix type="matrix" values="0 0 0 0 0 0 0 0 0 0 0 0 0 0 0 0 0 0 0.25 0"/>
<feBlend mode="normal" in2="BackgroundImageFix" result="effect1_dropShadow_180_237"/>
<feBlend mode="normal" in="SourceGraphic" in2="effect1_dropShadow_180_237" result="shape"/>
</filter>
<filter id="filter3_d_180_237" x="110" y="35" width="84" height="84" filterUnits="userSpaceOnUse" color-interpolation-filters="sRGB">
<feFlood flood-opacity="0" result="BackgroundImageFix"/>
<feColorMatrix in="SourceAlpha" type="matrix" values="0 0 0 0 0 0 0 0 0 0 0 0 0 0 0 0 0 0 127 0" result="hardAlpha"/>
<feOffset dx="2" dy="2"/>
<feGaussianBlur stdDeviation="2"/>
<feComposite in2="hardAlpha" operator="out"/>
<feColorMatrix type="matrix" values="0 0 0 0 0 0 0 0 0 0 0 0 0 0 0 0 0 0 0.25 0"/>
<feBlend mode="normal" in2="BackgroundImageFix" result="effect1_dropShadow_180_237"/>
<feBlend mode="normal" in="SourceGraphic" in2="effect1_dropShadow_180_237" result="shape"/>
</filter>
<linearGradient id="paint0_linear_180_237" x1="147.186" y1="65.9419" x2="139.126" y2="81.7928" gradientUnits="userSpaceOnUse">
<stop offset="0.3" stop-color="#3E863D"/>
<stop offset="0.5" stop-color="#55934F"/>
<stop offset="0.8" stop-color="#5AAD45"/>
</linearGradient>
<linearGradient id="paint1_linear_180_237" x1="136.51" y1="79.3843" x2="150.709" y2="69.2697" gradientUnits="userSpaceOnUse">
<stop offset="0.57" stop-color="#3E863D"/>
<stop offset="0.72" stop-color="#619857"/>
<stop offset="1" stop-color="#76AC64"/>
</linearGradient>
<linearGradient id="paint2_linear_180_237" x1="137.829" y1="73.9789" x2="149.277" y2="73.9789" gradientUnits="userSpaceOnUse">
<stop offset="0.16" stop-color="#6BBF47"/>
<stop offset="0.38" stop-color="#79B461"/>
<stop offset="0.47" stop-color="#75AC64"/>
<stop offset="0.7" stop-color="#659E5A"/>
<stop offset="0.9" stop-color="#3E863D"/>
</linearGradient>
<clipPath id="clip0_180_237">
<rect width="57.6923" height="15.8189" fill="white" transform="translate(11.5386 271.598)"/>
</clipPath>
<clipPath id="clip1_180_237">
<rect width="55.2453" height="35.0949" fill="white" transform="translate(123 59)"/>
</clipPath>
</defs>
</svg>
