<svg width="40" height="46" viewBox="0 0 40 46" fill="none" xmlns="http://www.w3.org/2000/svg">
<path d="M0 8.85714C0 7.27679 1.27679 6 2.85714 6H37.1429C38.7232 6 40 7.27679 40 8.85714C40 10.4375 38.7232 11.7143 37.1429 11.7143H2.85714C1.27679 11.7143 0 10.4375 0 8.85714ZM0 23.1429C0 21.5625 1.27679 20.2857 2.85714 20.2857H37.1429C38.7232 20.2857 40 21.5625 40 23.1429C40 24.7232 38.7232 26 37.1429 26H2.85714C1.27679 26 0 24.7232 0 23.1429ZM40 37.4286C40 39.0089 38.7232 40.2857 37.1429 40.2857H2.85714C1.27679 40.2857 0 39.0089 0 37.4286C0 35.8482 1.27679 34.5714 2.85714 34.5714H37.1429C38.7232 34.5714 40 35.8482 40 37.4286Z" fill="white"/>
</svg>
