<svg width="377" height="175" viewBox="0 0 377 175" fill="none" xmlns="http://www.w3.org/2000/svg">
<g filter="url(#filter0_d_142_12)">
<path d="M373 -0.5C373 43.9238 353.562 86.528 318.961 117.94C284.361 149.353 237.432 167 188.5 167C139.568 167 92.6393 149.353 58.0388 117.94C23.4383 86.5281 4.00001 43.9238 4 -0.499969L188.5 -0.5H373Z" fill="#311C1C"/>
<path d="M71.208 41.472C72.616 41.472 74.088 41.6 75.624 41.856C77.16 42.08 78.36 42.384 79.224 42.768C79.512 42.864 79.688 42.992 79.752 43.152C79.848 43.28 79.928 43.52 79.992 43.872L80.568 50.544C80.568 50.64 80.488 50.704 80.328 50.736C80.168 50.768 80.072 50.72 80.04 50.592C78.952 48.064 77.496 46.112 75.672 44.736C73.848 43.36 71.736 42.672 69.336 42.672C66.168 42.672 63.72 43.84 61.992 46.176C60.264 48.512 59.4 51.648 59.4 55.584C59.4 58.528 59.864 61.216 60.792 63.648C61.752 66.08 63.08 68.016 64.776 69.456C66.504 70.864 68.456 71.568 70.632 71.568C72.68 71.568 74.504 70.896 76.104 69.552C77.736 68.176 79.192 66.096 80.472 63.312C80.504 63.184 80.6 63.136 80.76 63.168C80.952 63.2 81.048 63.264 81.048 63.36L80.328 69.888C80.264 70.272 80.184 70.528 80.088 70.656C80.024 70.752 79.848 70.864 79.56 70.992C76.712 72.048 73.784 72.576 70.776 72.576C66.872 72.576 63.608 71.808 60.984 70.272C58.36 68.704 56.424 66.736 55.176 64.368C53.96 61.968 53.352 59.472 53.352 56.88C53.352 53.84 54.168 51.152 55.8 48.816C57.464 46.48 59.656 44.672 62.376 43.392C65.128 42.112 68.072 41.472 71.208 41.472ZM96.3094 72.576C94.0374 72.576 92.0054 72.048 90.2134 70.992C88.4214 69.904 87.0294 68.464 86.0374 66.672C85.0454 64.848 84.5494 62.88 84.5494 60.768C84.5494 58.336 85.1734 56.224 86.4214 54.432C87.7014 52.64 89.3174 51.28 91.2694 50.352C93.2534 49.424 95.2854 48.96 97.3654 48.96C99.6374 48.96 101.637 49.52 103.365 50.64C105.125 51.728 106.485 53.168 107.445 54.96C108.405 56.72 108.885 58.576 108.885 60.528C108.885 62.672 108.325 64.672 107.205 66.528C106.085 68.352 104.565 69.824 102.645 70.944C100.725 72.032 98.6134 72.576 96.3094 72.576ZM97.4134 71.472C99.2054 71.472 100.645 70.592 101.733 68.832C102.853 67.072 103.413 64.64 103.413 61.536C103.413 59.424 103.093 57.504 102.453 55.776C101.813 54.048 100.901 52.688 99.7174 51.696C98.5654 50.672 97.2214 50.16 95.6854 50.16C93.8294 50.16 92.4214 50.928 91.4614 52.464C90.5014 54 90.0214 56.272 90.0214 59.28C90.0214 61.552 90.3414 63.632 90.9814 65.52C91.6534 67.376 92.5494 68.832 93.6694 69.888C94.7894 70.944 96.0374 71.472 97.4134 71.472ZM141.784 71.424C141.848 71.424 141.88 71.52 141.88 71.712C141.88 71.904 141.848 72 141.784 72C140.92 72 140.232 71.984 139.72 71.952L136.84 71.904L133.576 71.952C133.032 71.984 132.28 72 131.32 72C131.256 72 131.224 71.904 131.224 71.712C131.224 71.52 131.256 71.424 131.32 71.424C132.504 71.424 133.304 71.264 133.72 70.944C134.136 70.624 134.344 69.968 134.344 68.976L134.296 68.112L133.48 53.328L125.992 71.664C125.928 71.792 125.816 71.856 125.656 71.856C125.464 71.856 125.336 71.792 125.272 71.664L116.248 54.144L116.056 65.904C116.024 67.792 116.296 69.184 116.872 70.08C117.48 70.976 118.408 71.424 119.656 71.424C119.752 71.424 119.8 71.52 119.8 71.712C119.8 71.904 119.752 72 119.656 72C118.888 72 118.296 71.984 117.88 71.952L115.576 71.904L113.224 71.952C112.808 71.984 112.184 72 111.352 72C111.288 72 111.256 71.904 111.256 71.712C111.256 71.52 111.288 71.424 111.352 71.424C112.632 71.424 113.56 70.976 114.136 70.08C114.744 69.184 115.064 67.792 115.096 65.904L115.288 52.512C114.232 50.912 112.952 50.112 111.448 50.112C111.384 50.112 111.352 50.016 111.352 49.824C111.352 49.632 111.384 49.536 111.448 49.536L115.432 49.584L118.408 49.536C118.856 49.536 119.224 49.696 119.512 50.016C119.8 50.304 120.2 50.976 120.712 52.032L127.624 65.376L133.576 50.736C133.704 50.384 133.912 50.096 134.2 49.872C134.488 49.648 134.776 49.536 135.064 49.536L138.04 49.584L141.688 49.536C141.752 49.536 141.784 49.632 141.784 49.824C141.784 50.016 141.752 50.112 141.688 50.112C140.472 50.112 139.608 50.336 139.096 50.784C138.584 51.2 138.376 52.048 138.472 53.328L139.336 68.112C139.4 69.104 139.48 69.824 139.576 70.272C139.704 70.72 139.928 71.024 140.248 71.184C140.568 71.344 141.08 71.424 141.784 71.424ZM152.515 67.92C152.515 68.912 152.611 69.648 152.803 70.128C153.027 70.608 153.427 70.944 154.003 71.136C154.611 71.328 155.539 71.424 156.787 71.424C156.883 71.424 156.931 71.52 156.931 71.712C156.931 71.904 156.883 72 156.787 72C155.571 72 154.627 71.984 153.955 71.952L150.163 71.904L147.043 71.952C146.467 71.984 145.667 72 144.643 72C144.579 72 144.547 71.904 144.547 71.712C144.547 71.52 144.579 71.424 144.643 71.424C145.539 71.424 146.195 71.344 146.611 71.184C147.059 70.992 147.363 70.672 147.523 70.224C147.683 69.776 147.763 69.072 147.763 68.112V53.424C147.763 52.496 147.667 51.808 147.475 51.36C147.315 50.88 147.011 50.56 146.563 50.4C146.147 50.208 145.507 50.112 144.643 50.112C144.579 50.112 144.547 50.016 144.547 49.824C144.547 49.632 144.579 49.536 144.643 49.536L146.995 49.584C148.339 49.648 149.379 49.68 150.115 49.68C150.947 49.68 151.811 49.632 152.707 49.536C153.059 49.504 153.555 49.472 154.195 49.44C154.867 49.408 155.443 49.392 155.923 49.392C158.675 49.392 160.771 49.84 162.211 50.736C163.651 51.632 164.371 52.976 164.371 54.768C164.371 56.368 163.971 57.728 163.171 58.848C162.403 59.968 161.379 60.816 160.099 61.392C158.851 61.936 157.523 62.208 156.115 62.208C155.507 62.208 155.139 62.176 155.011 62.112C154.915 62.048 154.867 61.936 154.867 61.776C154.867 61.584 154.979 61.488 155.203 61.488L155.875 61.536C156.835 61.536 157.587 61.072 158.131 60.144C158.707 59.184 158.995 57.76 158.995 55.872C158.995 53.888 158.643 52.464 157.939 51.6C157.235 50.704 156.195 50.256 154.819 50.256C154.019 50.256 153.427 50.48 153.043 50.928C152.691 51.344 152.515 52.208 152.515 53.52V67.92ZM173.573 46.992C173.445 46.992 173.365 46.928 173.333 46.8C173.301 46.64 173.333 46.528 173.429 46.464C174.357 45.792 175.653 44.736 177.317 43.296C178.277 42.464 178.997 41.856 179.477 41.472C179.637 41.312 180.197 41.376 181.157 41.664C182.149 41.92 183.013 42.24 183.749 42.624C184.517 42.976 184.709 43.184 184.325 43.248C182.341 43.728 180.517 44.272 178.853 44.88C177.221 45.456 175.493 46.144 173.669 46.944L173.573 46.992ZM185.765 65.616C185.829 65.52 185.941 65.472 186.101 65.472C186.261 65.472 186.341 65.52 186.341 65.616C186.117 67.92 186.005 69.808 186.005 71.28C186.005 71.536 185.957 71.728 185.861 71.856C185.765 71.952 185.573 72 185.285 72H167.237C167.173 72 167.141 71.904 167.141 71.712C167.141 71.52 167.173 71.424 167.237 71.424C168.165 71.424 168.837 71.344 169.253 71.184C169.669 71.024 169.957 70.72 170.117 70.272C170.277 69.792 170.357 69.072 170.357 68.112V53.424C170.357 52.464 170.277 51.76 170.117 51.312C169.957 50.864 169.653 50.56 169.205 50.4C168.789 50.208 168.133 50.112 167.237 50.112C167.173 50.112 167.141 50.016 167.141 49.824C167.141 49.632 167.173 49.536 167.237 49.536H184.421C184.741 49.536 184.901 49.664 184.901 49.92L184.949 52.896C184.981 53.504 184.997 54.272 184.997 55.2C184.997 55.296 184.901 55.344 184.709 55.344C184.549 55.344 184.453 55.296 184.421 55.2C183.813 53.792 182.885 52.608 181.637 51.648C180.389 50.656 179.125 50.16 177.845 50.16H177.509C176.805 50.16 176.277 50.256 175.925 50.448C175.605 50.608 175.381 50.912 175.253 51.36C175.157 51.808 175.109 52.512 175.109 53.472V59.952C177.541 59.92 179.333 59.824 180.485 59.664C181.637 59.504 182.293 59.424 182.453 59.424C182.677 59.424 182.789 59.776 182.789 60.48C182.789 60.8 182.757 61.088 182.693 61.344C182.629 61.6 182.549 61.728 182.453 61.728C182.261 61.728 181.589 61.648 180.437 61.488C179.285 61.328 177.509 61.216 175.109 61.152V67.92C175.109 68.88 175.157 69.584 175.253 70.032C175.381 70.48 175.605 70.8 175.925 70.992C176.277 71.152 176.805 71.232 177.509 71.232H178.037C179.541 71.232 181.029 70.704 182.501 69.648C183.973 68.56 185.061 67.216 185.765 65.616ZM195.887 50.496C194.671 50.496 193.503 51.008 192.383 52.032C191.295 53.056 190.431 54.448 189.791 56.208C189.759 56.304 189.663 56.352 189.503 56.352C189.343 56.352 189.263 56.304 189.263 56.208C189.391 55.184 189.535 53.856 189.695 52.224C189.855 50.56 189.935 49.312 189.935 48.48C189.935 48.32 190.015 48.24 190.175 48.24C190.367 48.24 190.463 48.32 190.463 48.48C190.463 48.896 190.703 49.168 191.183 49.296C191.663 49.392 192.271 49.44 193.007 49.44C195.759 49.504 198.175 49.536 200.255 49.536L204.431 49.488C204.975 49.456 205.711 49.44 206.639 49.44C207.887 49.44 208.815 49.376 209.423 49.248C210.063 49.088 210.463 48.768 210.623 48.288C210.655 48.192 210.751 48.144 210.911 48.144C211.103 48.144 211.199 48.192 211.199 48.288L211.055 50.688C210.863 53.504 210.767 55.344 210.767 56.208C210.767 56.304 210.671 56.352 210.479 56.352C210.287 56.352 210.191 56.304 210.191 56.208C210.031 55.216 209.663 54.288 209.087 53.424C208.511 52.528 207.823 51.824 207.023 51.312C206.255 50.768 205.471 50.496 204.671 50.496C203.903 50.496 203.391 50.704 203.135 51.12C202.879 51.504 202.751 52.272 202.751 53.424V68.112C202.751 69.072 202.831 69.792 202.991 70.272C203.183 70.72 203.519 71.024 203.999 71.184C204.479 71.344 205.247 71.424 206.303 71.424C206.399 71.424 206.447 71.52 206.447 71.712C206.447 71.904 206.399 72 206.303 72C205.247 72 204.415 71.984 203.807 71.952L200.207 71.904L196.703 71.952C196.095 71.984 195.231 72 194.111 72C194.047 72 194.015 71.904 194.015 71.712C194.015 71.52 194.047 71.424 194.111 71.424C195.199 71.424 195.983 71.344 196.463 71.184C196.975 71.024 197.311 70.72 197.471 70.272C197.663 69.792 197.759 69.072 197.759 68.112V53.328C197.759 52.144 197.647 51.376 197.423 51.024C197.199 50.672 196.687 50.496 195.887 50.496ZM232.124 65.616C232.188 65.52 232.3 65.472 232.46 65.472C232.62 65.472 232.7 65.52 232.7 65.616C232.476 67.92 232.364 69.808 232.364 71.28C232.364 71.536 232.316 71.728 232.22 71.856C232.124 71.952 231.932 72 231.644 72H213.596C213.532 72 213.5 71.904 213.5 71.712C213.5 71.52 213.532 71.424 213.596 71.424C214.524 71.424 215.196 71.344 215.612 71.184C216.028 71.024 216.316 70.72 216.476 70.272C216.636 69.792 216.716 69.072 216.716 68.112V53.424C216.716 52.464 216.636 51.76 216.476 51.312C216.316 50.864 216.012 50.56 215.564 50.4C215.148 50.208 214.492 50.112 213.596 50.112C213.532 50.112 213.5 50.016 213.5 49.824C213.5 49.632 213.532 49.536 213.596 49.536H230.78C231.1 49.536 231.26 49.664 231.26 49.92L231.308 52.896C231.34 53.504 231.356 54.272 231.356 55.2C231.356 55.296 231.26 55.344 231.068 55.344C230.908 55.344 230.812 55.296 230.78 55.2C230.172 53.792 229.244 52.608 227.996 51.648C226.748 50.656 225.484 50.16 224.204 50.16H223.868C223.164 50.16 222.636 50.256 222.284 50.448C221.964 50.608 221.74 50.912 221.612 51.36C221.516 51.808 221.468 52.512 221.468 53.472V59.952C223.9 59.92 225.692 59.824 226.844 59.664C227.996 59.504 228.652 59.424 228.812 59.424C229.036 59.424 229.148 59.776 229.148 60.48C229.148 60.8 229.116 61.088 229.052 61.344C228.988 61.6 228.908 61.728 228.812 61.728C228.62 61.728 227.948 61.648 226.796 61.488C225.644 61.328 223.868 61.216 221.468 61.152V67.92C221.468 68.88 221.516 69.584 221.612 70.032C221.74 70.48 221.964 70.8 222.284 70.992C222.636 71.152 223.164 71.232 223.868 71.232H224.396C225.9 71.232 227.388 70.704 228.86 69.648C230.332 68.56 231.42 67.216 232.124 65.616ZM261.014 49.536C261.11 49.536 261.158 49.632 261.158 49.824C261.158 50.016 261.11 50.112 261.014 50.112C259.734 50.112 258.79 50.56 258.182 51.456C257.574 52.352 257.27 53.76 257.27 55.68V72.528C257.27 72.592 257.19 72.64 257.03 72.672C256.87 72.704 256.758 72.688 256.694 72.624L239.846 53.616V65.904C239.846 67.792 240.134 69.184 240.71 70.08C241.318 70.976 242.246 71.424 243.494 71.424C243.59 71.424 243.638 71.52 243.638 71.712C243.638 71.904 243.59 72 243.494 72C242.726 72 242.134 71.984 241.718 71.952L239.414 71.904L237.11 71.952C236.662 71.984 236.022 72 235.19 72C235.126 72 235.094 71.904 235.094 71.712C235.094 71.52 235.126 71.424 235.19 71.424C236.47 71.424 237.414 70.976 238.022 70.08C238.63 69.184 238.934 67.792 238.934 65.904V52.656C238.07 51.76 237.302 51.12 236.63 50.736C235.99 50.32 235.366 50.112 234.758 50.112C234.694 50.112 234.662 50.016 234.662 49.824C234.662 49.632 234.694 49.536 234.758 49.536L237.446 49.584C237.702 49.584 238.054 49.584 238.502 49.584C238.95 49.552 240.086 49.536 241.91 49.536C242.166 49.536 242.374 49.616 242.534 49.776C242.726 49.936 243.014 50.24 243.398 50.688C243.654 51.072 244.006 51.52 244.454 52.032L256.31 65.28V55.68C256.31 53.76 256.022 52.352 255.446 51.456C254.87 50.56 253.942 50.112 252.662 50.112C252.598 50.112 252.566 50.016 252.566 49.824C252.566 49.632 252.598 49.536 252.662 49.536L254.486 49.584C255.446 49.648 256.198 49.68 256.742 49.68C257.286 49.68 258.07 49.648 259.094 49.584L261.014 49.536ZM276.3 48.96C277.484 48.96 278.764 49.088 280.14 49.344C281.548 49.6 282.7 49.936 283.596 50.352C283.82 50.448 283.964 50.56 284.028 50.688C284.092 50.784 284.124 50.944 284.124 51.168L284.364 56.112C284.364 56.208 284.284 56.272 284.124 56.304C283.964 56.336 283.852 56.288 283.788 56.16C282.572 54.08 281.324 52.544 280.044 51.552C278.796 50.528 277.356 50.016 275.724 50.016C273.452 50.016 271.708 50.928 270.492 52.752C269.276 54.544 268.668 56.944 268.668 59.952C268.668 61.936 268.94 63.808 269.484 65.568C270.06 67.328 270.956 68.768 272.172 69.888C273.388 71.008 274.924 71.568 276.78 71.568C278.412 71.568 279.788 71.072 280.908 70.08C282.06 69.088 283.18 67.488 284.268 65.28C284.3 65.152 284.396 65.104 284.556 65.136C284.716 65.168 284.796 65.232 284.796 65.328L284.412 70.416C284.38 70.672 284.332 70.848 284.268 70.944C284.204 71.04 284.028 71.152 283.74 71.28C281.276 72.144 278.716 72.576 276.06 72.576C272.988 72.576 270.476 71.968 268.524 70.752C266.572 69.536 265.148 68.016 264.252 66.192C263.388 64.368 262.956 62.528 262.956 60.672C262.956 58.496 263.532 56.512 264.684 54.72C265.868 52.928 267.468 51.52 269.484 50.496C271.532 49.472 273.804 48.96 276.3 48.96ZM306.937 65.616C307.001 65.52 307.113 65.472 307.273 65.472C307.433 65.472 307.513 65.52 307.513 65.616C307.289 67.92 307.177 69.808 307.177 71.28C307.177 71.536 307.129 71.728 307.033 71.856C306.937 71.952 306.745 72 306.457 72H288.409C288.345 72 288.313 71.904 288.313 71.712C288.313 71.52 288.345 71.424 288.409 71.424C289.337 71.424 290.009 71.344 290.425 71.184C290.841 71.024 291.129 70.72 291.289 70.272C291.449 69.792 291.529 69.072 291.529 68.112V53.424C291.529 52.464 291.449 51.76 291.289 51.312C291.129 50.864 290.825 50.56 290.377 50.4C289.961 50.208 289.305 50.112 288.409 50.112C288.345 50.112 288.313 50.016 288.313 49.824C288.313 49.632 288.345 49.536 288.409 49.536H305.593C305.913 49.536 306.073 49.664 306.073 49.92L306.121 52.896C306.153 53.504 306.169 54.272 306.169 55.2C306.169 55.296 306.073 55.344 305.881 55.344C305.721 55.344 305.625 55.296 305.593 55.2C304.985 53.792 304.057 52.608 302.809 51.648C301.561 50.656 300.297 50.16 299.017 50.16H298.681C297.977 50.16 297.449 50.256 297.097 50.448C296.777 50.608 296.553 50.912 296.425 51.36C296.329 51.808 296.281 52.512 296.281 53.472V59.952C298.713 59.92 300.505 59.824 301.657 59.664C302.809 59.504 303.465 59.424 303.625 59.424C303.849 59.424 303.961 59.776 303.961 60.48C303.961 60.8 303.929 61.088 303.865 61.344C303.801 61.6 303.721 61.728 303.625 61.728C303.433 61.728 302.761 61.648 301.609 61.488C300.457 61.328 298.681 61.216 296.281 61.152V67.92C296.281 68.88 296.329 69.584 296.425 70.032C296.553 70.48 296.777 70.8 297.097 70.992C297.449 71.152 297.977 71.232 298.681 71.232H299.209C300.713 71.232 302.201 70.704 303.673 69.648C305.145 68.56 306.233 67.216 306.937 65.616ZM316.098 53.088C316.098 53.984 316.338 54.768 316.818 55.44C317.33 56.08 317.938 56.64 318.642 57.12C319.378 57.568 320.37 58.112 321.618 58.752C323.058 59.52 324.178 60.176 324.978 60.72C325.81 61.232 326.514 61.904 327.09 62.736C327.698 63.568 328.002 64.56 328.002 65.712C328.002 66.992 327.618 68.16 326.85 69.216C326.114 70.24 325.09 71.056 323.778 71.664C322.466 72.272 320.994 72.576 319.362 72.576C317.89 72.576 316.45 72.384 315.042 72C313.666 71.648 312.706 71.248 312.162 70.8C311.906 70.64 311.778 70.304 311.778 69.792L311.538 64.368C311.538 64.24 311.618 64.16 311.778 64.128C311.938 64.096 312.05 64.144 312.114 64.272C313.33 66.384 314.562 68.112 315.81 69.456C317.058 70.8 318.482 71.472 320.082 71.472C321.042 71.472 321.842 71.184 322.482 70.608C323.122 70.032 323.442 69.168 323.442 68.016C323.442 66.992 323.17 66.096 322.626 65.328C322.114 64.56 321.474 63.92 320.706 63.408C319.938 62.864 318.914 62.24 317.634 61.536C315.746 60.512 314.306 59.552 313.314 58.656C312.322 57.728 311.826 56.528 311.826 55.056C311.826 53.2 312.642 51.728 314.274 50.64C315.906 49.52 317.874 48.96 320.178 48.96C321.202 48.96 322.274 49.072 323.394 49.296C324.514 49.52 325.41 49.776 326.082 50.064C326.37 50.16 326.562 50.288 326.658 50.448C326.754 50.576 326.802 50.768 326.802 51.024V55.584C326.802 55.68 326.722 55.76 326.562 55.824C326.402 55.856 326.29 55.824 326.226 55.728C325.618 54.448 324.77 53.184 323.682 51.936C322.594 50.688 321.154 50.064 319.362 50.064C318.274 50.064 317.458 50.352 316.914 50.928C316.37 51.472 316.098 52.192 316.098 53.088Z" fill="white"/>
</g>
<defs>
<filter id="filter0_d_142_12" x="0" y="-0.5" width="377" height="175.5" filterUnits="userSpaceOnUse" color-interpolation-filters="sRGB">
<feFlood flood-opacity="0" result="BackgroundImageFix"/>
<feColorMatrix in="SourceAlpha" type="matrix" values="0 0 0 0 0 0 0 0 0 0 0 0 0 0 0 0 0 0 127 0" result="hardAlpha"/>
<feOffset dy="4"/>
<feGaussianBlur stdDeviation="2"/>
<feComposite in2="hardAlpha" operator="out"/>
<feColorMatrix type="matrix" values="0 0 0 0 0 0 0 0 0 0 0 0 0 0 0 0 0 0 0.25 0"/>
<feBlend mode="normal" in2="BackgroundImageFix" result="effect1_dropShadow_142_12"/>
<feBlend mode="normal" in="SourceGraphic" in2="effect1_dropShadow_142_12" result="shape"/>
</filter>
</defs>
</svg>
