<svg width="37" height="37" viewBox="0 0 37 37" fill="none" xmlns="http://www.w3.org/2000/svg">
<path d="M18.0001 34.001C21.1646 34.0012 24.2581 33.063 26.8894 31.3051C29.5207 29.5471 31.5716 27.0484 32.7828 24.1248C33.9939 21.2013 34.311 17.9842 33.6938 14.8805C33.0766 11.7768 31.5529 8.92574 29.3154 6.68797C27.0779 4.45021 24.227 2.92619 21.1234 2.30865C18.0197 1.6911 14.8026 2.00777 11.879 3.21861C8.95526 4.42944 6.45629 6.48006 4.69803 9.11114C2.93978 11.7422 2.00122 14.8356 2.00104 18.0001C2.00079 22.2436 3.68627 26.3133 6.68667 29.3141C9.68708 32.3148 13.7567 34.0008 18.0001 34.001ZM18.0018 4.00103C20.7708 4.00119 23.4775 4.82243 25.7797 6.3609C28.0819 7.89938 29.8762 10.086 30.9357 12.6442C31.9951 15.2024 32.2722 18.0174 31.7319 20.7331C31.1915 23.4488 29.858 25.9433 27.9 27.9011C25.9419 29.8589 23.4473 31.1921 20.7315 31.7322C18.0157 32.2722 15.2008 31.9948 12.6427 30.935C10.0846 29.8753 7.89822 28.0807 6.36001 25.7783C4.82181 23.476 4.00088 20.7692 4.00104 18.0002C4.00125 14.2872 5.47645 10.7263 8.10211 8.10097C10.7278 5.47561 14.2888 4.00082 18.0018 4.00103Z" fill="#0E0E0E"/>
<path d="M17.9205 27.741L25.5309 20.1315C25.6356 20.0418 25.7206 19.9315 25.7807 19.8074C25.8407 19.6834 25.8744 19.5483 25.8798 19.4105C25.8851 19.2728 25.8619 19.1355 25.8116 19.0072C25.7613 18.8788 25.6851 18.7623 25.5876 18.6648C25.4902 18.5674 25.3737 18.4911 25.2453 18.4408C25.117 18.3905 24.9797 18.3673 24.842 18.3726C24.7042 18.3779 24.5691 18.4117 24.445 18.4717C24.321 18.5317 24.2106 18.6167 24.121 18.7214L19.0007 23.8211L19.0016 8.82109C19.0016 8.55587 18.8962 8.30151 18.7087 8.11397C18.5212 7.92642 18.2668 7.82105 18.0016 7.82103C17.7364 7.82102 17.482 7.92636 17.2945 8.11389C17.107 8.30141 17.0016 8.55576 17.0016 8.82097L17.0007 24.001L11.721 18.7207C11.6314 18.616 11.521 18.531 11.397 18.4709C11.2729 18.4109 11.1378 18.3772 11.0001 18.3718C10.8623 18.3665 10.725 18.3897 10.5967 18.44C10.4684 18.4902 10.3518 18.5665 10.2543 18.6639C10.1569 18.7614 10.0806 18.8779 10.0303 19.0062C9.98006 19.1346 9.95684 19.2719 9.96216 19.4096C9.96747 19.5473 10.0012 19.6825 10.0612 19.8065C10.1212 19.9306 10.2062 20.0409 10.3109 20.1306L17.9205 27.741Z" fill="#0E0E0E"/>
</svg>
