<svg width="1008" height="116" viewBox="0 0 1008 116" fill="none" xmlns="http://www.w3.org/2000/svg">
<g filter="url(#filter0_d_194_5)">
<path d="M4.33333 53C4.33333 63.3093 12.6907 71.6667 23 71.6667C33.3093 71.6667 41.6667 63.3093 41.6667 53C41.6667 42.6907 33.3093 34.3333 23 34.3333C12.6907 34.3333 4.33333 42.6907 4.33333 53ZM1002.48 55.4749C1003.84 54.108 1003.84 51.892 1002.48 50.5251L980.204 28.2513C978.837 26.8844 976.621 26.8844 975.254 28.2513C973.887 29.6181 973.887 31.8342 975.254 33.201L995.053 53L975.254 72.799C973.887 74.1658 973.887 76.3819 975.254 77.7487C976.621 79.1156 978.837 79.1156 980.204 77.7487L1002.48 55.4749ZM23 56.5H1000V49.5H23V56.5Z" fill="black"/>
</g>
<g filter="url(#filter1_d_194_5)">
<line x1="222.5" y1="50" x2="222.5" stroke="black" stroke-width="7"/>
</g>
<g filter="url(#filter2_d_194_5)">
<line x1="508.5" y1="108" x2="508.5" y2="53" stroke="black" stroke-width="7"/>
</g>
<g filter="url(#filter3_d_194_5)">
<line x1="786.5" y1="50" x2="786.5" stroke="black" stroke-width="7"/>
</g>
<defs>
<filter id="filter0_d_194_5" x="0.333344" y="27.2261" width="1007.17" height="59.5479" filterUnits="userSpaceOnUse" color-interpolation-filters="sRGB">
<feFlood flood-opacity="0" result="BackgroundImageFix"/>
<feColorMatrix in="SourceAlpha" type="matrix" values="0 0 0 0 0 0 0 0 0 0 0 0 0 0 0 0 0 0 127 0" result="hardAlpha"/>
<feOffset dy="4"/>
<feGaussianBlur stdDeviation="2"/>
<feComposite in2="hardAlpha" operator="out"/>
<feColorMatrix type="matrix" values="0 0 0 0 0 0 0 0 0 0 0 0 0 0 0 0 0 0 0.25 0"/>
<feBlend mode="normal" in2="BackgroundImageFix" result="effect1_dropShadow_194_5"/>
<feBlend mode="normal" in="SourceGraphic" in2="effect1_dropShadow_194_5" result="shape"/>
</filter>
<filter id="filter1_d_194_5" x="215" y="0" width="15" height="58" filterUnits="userSpaceOnUse" color-interpolation-filters="sRGB">
<feFlood flood-opacity="0" result="BackgroundImageFix"/>
<feColorMatrix in="SourceAlpha" type="matrix" values="0 0 0 0 0 0 0 0 0 0 0 0 0 0 0 0 0 0 127 0" result="hardAlpha"/>
<feOffset dy="4"/>
<feGaussianBlur stdDeviation="2"/>
<feComposite in2="hardAlpha" operator="out"/>
<feColorMatrix type="matrix" values="0 0 0 0 0 0 0 0 0 0 0 0 0 0 0 0 0 0 0.25 0"/>
<feBlend mode="normal" in2="BackgroundImageFix" result="effect1_dropShadow_194_5"/>
<feBlend mode="normal" in="SourceGraphic" in2="effect1_dropShadow_194_5" result="shape"/>
</filter>
<filter id="filter2_d_194_5" x="501" y="53" width="15" height="63" filterUnits="userSpaceOnUse" color-interpolation-filters="sRGB">
<feFlood flood-opacity="0" result="BackgroundImageFix"/>
<feColorMatrix in="SourceAlpha" type="matrix" values="0 0 0 0 0 0 0 0 0 0 0 0 0 0 0 0 0 0 127 0" result="hardAlpha"/>
<feOffset dy="4"/>
<feGaussianBlur stdDeviation="2"/>
<feComposite in2="hardAlpha" operator="out"/>
<feColorMatrix type="matrix" values="0 0 0 0 0 0 0 0 0 0 0 0 0 0 0 0 0 0 0.25 0"/>
<feBlend mode="normal" in2="BackgroundImageFix" result="effect1_dropShadow_194_5"/>
<feBlend mode="normal" in="SourceGraphic" in2="effect1_dropShadow_194_5" result="shape"/>
</filter>
<filter id="filter3_d_194_5" x="779" y="0" width="15" height="58" filterUnits="userSpaceOnUse" color-interpolation-filters="sRGB">
<feFlood flood-opacity="0" result="BackgroundImageFix"/>
<feColorMatrix in="SourceAlpha" type="matrix" values="0 0 0 0 0 0 0 0 0 0 0 0 0 0 0 0 0 0 127 0" result="hardAlpha"/>
<feOffset dy="4"/>
<feGaussianBlur stdDeviation="2"/>
<feComposite in2="hardAlpha" operator="out"/>
<feColorMatrix type="matrix" values="0 0 0 0 0 0 0 0 0 0 0 0 0 0 0 0 0 0 0.25 0"/>
<feBlend mode="normal" in2="BackgroundImageFix" result="effect1_dropShadow_194_5"/>
<feBlend mode="normal" in="SourceGraphic" in2="effect1_dropShadow_194_5" result="shape"/>
</filter>
</defs>
</svg>
