<svg width="315" height="372" viewBox="0 0 315 372" fill="none" xmlns="http://www.w3.org/2000/svg">
<g filter="url(#filter0_d_180_238)">
<path d="M286.779 181.978C286.779 248.967 228.805 303.543 156.946 303.543C85.0872 303.543 27.1135 248.967 27.1135 181.978C27.1135 114.988 85.0872 60.4121 156.946 60.4121C228.805 60.4121 286.779 114.988 286.779 181.978Z" stroke="black" stroke-width="5" shape-rendering="crispEdges"/>
</g>
<g filter="url(#filter1_d_180_238)">
<circle cx="40" cy="133" r="38" fill="#EEE7DB"/>
<circle cx="40" cy="133" r="35.5" stroke="black" stroke-width="5"/>
</g>
<path d="M24.8242 152.633L21.4609 114H58.457L55.0938 152.633L39.918 157" fill="#E34F26"/>
<path d="M40 153.641L52.2227 150.197L55.0938 117.107H40" fill="#EF652A"/>
<path d="M40 131.469H33.8477L33.4375 126.598H40V121.895H39.918H28.3516L28.4336 123.154L29.582 136.256H40V131.469ZM40 143.814H39.918L34.75 142.387L34.4219 138.607H31.9609H29.8281L30.4023 146.082L39.918 148.77H40V143.814Z" fill="#EBEBEB"/>
<path d="M39.918 131.469V136.256H45.6602L45.0859 142.387L39.918 143.814V148.77L49.4336 146.082L49.5156 145.242L50.582 132.729L50.7461 131.469H49.4336H39.918ZM39.918 121.895V124.834V126.598H51.1562L51.2383 125.59L51.4844 123.154L51.5664 121.895H39.918Z" fill="white"/>
<g filter="url(#filter2_d_180_238)">
<circle cx="43" cy="241" r="38" fill="#EEE7DB"/>
<circle cx="43" cy="241" r="35.5" stroke="black" stroke-width="5"/>
</g>
<path d="M27.8534 260.702L24.4832 222H61.5167L58.1428 260.695L42.9773 265L27.8534 260.702Z" fill="#264DE4"/>
<path d="M55.2545 258.231L58.1377 225.164H43V261.71L55.2545 258.231Z" fill="#2965F1"/>
<path d="M32.2095 239.518L32.625 244.265H42.9999V239.518H32.2095ZM31.796 234.658H42.9999V229.911H31.3745L31.796 234.658ZM42.9999 251.846L42.9796 251.851L37.8162 250.424L37.4862 246.638H32.832L33.4816 254.091L42.9786 256.79L42.9999 256.784V251.846Z" fill="#EBEBEB"/>
<path d="M42.9839 239.518V244.265H48.6929L48.1547 250.421L42.9839 251.85V256.788L52.4884 254.091L52.5581 253.289L53.6475 240.793L53.7607 239.518L54.5976 229.911H42.9839V234.658H49.5168L49.0948 239.518H42.9839Z" fill="white"/>
<g filter="url(#filter3_d_180_238)">
<circle cx="155" cy="301" r="38" fill="#EEE7DB"/>
<circle cx="155" cy="301" r="35.5" stroke="black" stroke-width="5"/>
</g>
<g clip-path="url(#clip0_180_238)">
<path d="M172.036 279.829H137.964C135.68 279.829 133.829 281.68 133.829 283.964V318.036C133.829 320.32 135.68 322.171 137.964 322.171H172.036C174.32 322.171 176.171 320.32 176.171 318.036V283.964C176.171 281.68 174.32 279.829 172.036 279.829Z" fill="#3178C6"/>
<path d="M172.036 279.829H137.964C135.68 279.829 133.829 281.68 133.829 283.964V318.036C133.829 320.32 135.68 322.171 137.964 322.171H172.036C174.32 322.171 176.171 320.32 176.171 318.036V283.964C176.171 281.68 174.32 279.829 172.036 279.829Z" fill="#3178C6"/>
<path fill-rule="evenodd" clip-rule="evenodd" d="M160.04 313.523V317.663C160.713 318.008 161.509 318.267 162.428 318.439C163.347 318.612 164.315 318.698 165.333 318.698C166.326 318.698 167.268 318.603 168.161 318.413C169.054 318.223 169.837 317.911 170.51 317.475C171.183 317.04 171.716 316.47 172.109 315.767C172.501 315.065 172.698 314.196 172.698 313.161C172.698 312.41 172.586 311.753 172.361 311.188C172.137 310.623 171.813 310.12 171.391 309.68C170.968 309.241 170.461 308.846 169.87 308.497C169.279 308.147 168.612 307.817 167.87 307.507C167.326 307.283 166.839 307.065 166.408 306.854C165.976 306.642 165.609 306.427 165.307 306.207C165.005 305.987 164.772 305.754 164.608 305.508C164.445 305.262 164.363 304.984 164.363 304.674C164.363 304.389 164.436 304.132 164.583 303.904C164.729 303.675 164.936 303.479 165.204 303.315C165.471 303.151 165.799 303.024 166.187 302.933C166.576 302.843 167.007 302.798 167.482 302.798C167.827 302.798 168.191 302.824 168.575 302.875C168.959 302.927 169.346 303.007 169.734 303.115C170.122 303.222 170.5 303.358 170.866 303.522C171.233 303.686 171.572 303.876 171.882 304.091V300.223C171.252 299.982 170.564 299.803 169.818 299.686C169.072 299.57 168.215 299.511 167.249 299.511C166.265 299.511 165.333 299.617 164.453 299.828C163.573 300.04 162.799 300.37 162.13 300.818C161.461 301.267 160.933 301.838 160.544 302.532C160.156 303.227 159.962 304.057 159.962 305.023C159.962 306.256 160.318 307.309 161.03 308.18C161.742 309.051 162.822 309.788 164.272 310.392C164.841 310.625 165.372 310.853 165.864 311.078C166.356 311.302 166.781 311.535 167.139 311.776C167.497 312.018 167.779 312.281 167.987 312.565C168.194 312.85 168.297 313.173 168.297 313.536C168.297 313.803 168.232 314.051 168.103 314.28C167.974 314.508 167.777 314.707 167.514 314.875C167.251 315.043 166.923 315.175 166.53 315.269C166.138 315.364 165.678 315.412 165.152 315.412C164.255 315.412 163.366 315.254 162.486 314.939C161.606 314.625 160.79 314.152 160.04 313.523ZM153.08 303.322H158.391V299.925H143.587V303.322H148.872V318.45H153.08V303.322Z" fill="white"/>
</g>
<g filter="url(#filter4_d_180_238)">
<circle cx="268" cy="241" r="38" fill="#EEE7DB"/>
<circle cx="268" cy="241" r="35.5" stroke="black" stroke-width="5"/>
</g>
<g clip-path="url(#clip1_180_238)">
<path d="M278.891 235.14H288.464V236.851H284.666V245.857H282.768V236.851H278.891V235.14Z" fill="black"/>
<path d="M263.149 235.14V236.851H255.476V239.605H261.646V241.317H255.476V244.145H263.149V245.857H253.577V236.851H253.577V235.14H263.149Z" fill="black"/>
<path d="M267.929 235.144H265.444L274.343 245.861H276.835L272.385 240.506L276.828 235.152L274.343 235.156L271.141 239.01L267.929 235.144Z" fill="black"/>
<path d="M270.478 242.799L269.234 241.3L265.437 245.869H267.929L270.478 242.799Z" fill="black"/>
<path fill-rule="evenodd" clip-rule="evenodd" d="M253.644 245.857L244.732 235.135H242.359V245.852H244.258V237.426L251.259 245.857H253.644Z" fill="black"/>
<path d="M288.891 245.791C288.752 245.791 288.633 245.745 288.534 245.651C288.435 245.558 288.386 245.445 288.387 245.311C288.386 245.181 288.435 245.069 288.534 244.976C288.633 244.882 288.752 244.836 288.891 244.836C289.024 244.836 289.141 244.882 289.24 244.976C289.341 245.069 289.391 245.181 289.392 245.311C289.391 245.399 289.368 245.48 289.321 245.553C289.274 245.627 289.213 245.684 289.137 245.726C289.063 245.769 288.981 245.791 288.891 245.791Z" fill="black"/>
<path d="M292.131 241.276H292.972V244.417C292.971 244.705 292.907 244.952 292.781 245.16C292.653 245.367 292.477 245.526 292.251 245.638C292.026 245.748 291.762 245.805 291.462 245.805C291.188 245.805 290.942 245.757 290.724 245.663C290.505 245.57 290.331 245.43 290.204 245.246C290.075 245.062 290.012 244.832 290.012 244.557H290.855C290.856 244.677 290.885 244.782 290.938 244.869C290.992 244.956 291.067 245.022 291.162 245.069C291.259 245.116 291.369 245.139 291.494 245.139C291.629 245.139 291.745 245.112 291.839 245.057C291.933 245.003 292.005 244.922 292.055 244.814C292.104 244.707 292.13 244.574 292.131 244.417V241.276Z" fill="black"/>
<path d="M296.434 242.505C296.414 242.314 296.324 242.166 296.167 242.06C296.008 241.953 295.804 241.9 295.553 241.9C295.377 241.9 295.225 241.926 295.099 241.976C294.973 242.028 294.875 242.097 294.808 242.184C294.741 242.271 294.708 242.371 294.705 242.482C294.705 242.576 294.728 242.657 294.773 242.724C294.818 242.793 294.879 242.851 294.957 242.898C295.034 242.945 295.121 242.985 295.215 243.017C295.31 243.049 295.405 243.076 295.5 243.098L295.939 243.202C296.115 243.241 296.286 243.294 296.45 243.362C296.613 243.428 296.761 243.513 296.891 243.615C297.021 243.717 297.124 243.84 297.2 243.983C297.275 244.127 297.314 244.295 297.314 244.489C297.314 244.751 297.245 244.981 297.104 245.179C296.964 245.377 296.762 245.532 296.497 245.644C296.233 245.754 295.914 245.811 295.539 245.811C295.176 245.811 294.86 245.757 294.593 245.649C294.326 245.542 294.117 245.385 293.967 245.178C293.816 244.972 293.735 244.72 293.724 244.424H294.557C294.569 244.579 294.62 244.708 294.708 244.812C294.797 244.915 294.912 244.992 295.054 245.043C295.197 245.094 295.356 245.119 295.532 245.119C295.716 245.119 295.878 245.092 296.019 245.039C296.158 244.987 296.267 244.913 296.345 244.817C296.425 244.723 296.465 244.611 296.466 244.483C296.465 244.366 296.429 244.269 296.36 244.193C296.289 244.117 296.191 244.053 296.066 244.002C295.94 243.95 295.794 243.903 295.626 243.863L295.094 243.733C294.709 243.638 294.404 243.494 294.182 243.302C293.958 243.109 293.847 242.853 293.847 242.533C293.847 242.27 293.922 242.039 294.072 241.841C294.221 241.644 294.426 241.49 294.685 241.381C294.944 241.27 295.238 241.216 295.564 241.216C295.896 241.216 296.187 241.27 296.438 241.381C296.689 241.49 296.886 241.642 297.028 241.836C297.171 242.03 297.246 242.253 297.25 242.505H296.434Z" fill="black"/>
</g>
<g filter="url(#filter5_d_180_238)">
<circle cx="271" cy="133" r="38" fill="#EEE7DB"/>
<circle cx="271" cy="133" r="35.5" stroke="black" stroke-width="5"/>
</g>
<g clip-path="url(#clip2_180_238)">
<path d="M271 137.189C273.466 137.189 275.465 135.07 275.465 132.456C275.465 129.842 273.466 127.723 271 127.723C268.534 127.723 266.535 129.842 266.535 132.456C266.535 135.07 268.534 137.189 271 137.189Z" fill="#00D8FF"/>
<path fill-rule="evenodd" clip-rule="evenodd" d="M271 122.833C276.995 122.833 282.564 123.745 286.763 125.278C291.822 127.124 294.933 129.922 294.933 132.456C294.933 135.097 291.636 138.07 286.203 139.978C282.096 141.42 276.691 142.173 271 142.173C265.166 142.173 259.641 141.466 255.488 139.962C250.233 138.058 247.067 135.046 247.067 132.456C247.067 129.943 250.037 127.166 255.025 125.323C259.24 123.765 264.946 122.833 271 122.833H271Z" stroke="#00D8FF" stroke-width="2.73408"/>
<path fill-rule="evenodd" clip-rule="evenodd" d="M263.098 127.673C266.093 122.168 269.62 117.51 272.97 114.42C277.006 110.696 280.847 109.238 282.917 110.504C285.076 111.823 285.858 116.336 284.703 122.277C283.831 126.77 281.746 132.109 278.903 137.334C275.988 142.691 272.651 147.411 269.346 150.473C265.165 154.347 261.123 155.749 259.006 154.455C256.952 153.201 256.166 149.085 257.152 143.584C257.984 138.936 260.074 133.231 263.097 127.672L263.098 127.673Z" stroke="#00D8FF" stroke-width="2.73408"/>
<path fill-rule="evenodd" clip-rule="evenodd" d="M263.105 137.348C260.102 131.85 258.057 126.283 257.204 121.664C256.176 116.098 256.903 111.842 258.971 110.572C261.127 109.249 265.206 110.784 269.486 114.812C272.722 117.857 276.044 122.438 278.895 127.659C281.818 133.011 284.009 138.433 284.861 142.997C285.94 148.771 285.067 153.184 282.952 154.482C280.9 155.741 277.145 154.408 273.141 150.755C269.758 147.669 266.138 142.901 263.105 137.348V137.348Z" stroke="#00D8FF" stroke-width="2.73408"/>
</g>
<g filter="url(#filter6_d_180_238)">
<circle cx="155" cy="72" r="38" fill="#EEE7DB"/>
<circle cx="155" cy="72" r="35.5" stroke="black" stroke-width="5"/>
</g>
<g clip-path="url(#clip3_180_238)">
<path d="M176 51H134V93H176V51Z" fill="#F7DF1E"/>
<path d="M162.213 83.8127C163.059 85.194 164.16 86.2093 166.107 86.2093C167.742 86.2093 168.787 85.392 168.787 84.2627C168.787 82.9093 167.713 82.43 165.913 81.6427L164.927 81.2193C162.079 80.006 160.187 78.486 160.187 75.2727C160.187 72.3127 162.442 70.0593 165.967 70.0593C168.476 70.0593 170.28 70.9327 171.58 73.2193L168.507 75.1927C167.83 73.9793 167.1 73.5013 165.967 73.5013C164.811 73.5013 164.078 74.2347 164.078 75.1927C164.078 76.3767 164.811 76.856 166.505 77.5893L167.491 78.012C170.845 79.45 172.738 80.916 172.738 84.212C172.738 87.7653 169.947 89.712 166.198 89.712C162.533 89.712 160.165 87.9653 159.006 85.676L162.213 83.8127ZM148.271 84.1547C148.891 85.2547 149.455 86.1847 150.811 86.1847C152.108 86.1847 152.926 85.6773 152.926 83.7047V70.2847H156.873V83.758C156.873 87.8447 154.477 89.7047 150.979 89.7047C147.819 89.7047 145.989 88.0693 145.059 86.0997L148.271 84.1547Z" fill="black"/>
</g>
<path d="M126.181 354.748H122.645V353.548H131.253V354.748H127.701V364.748H126.181V354.748ZM138.112 357.228V365.644C138.112 366.582 137.862 367.27 137.36 367.708C136.859 368.156 136.075 368.38 135.008 368.38H133.024V367.292H135.008C135.584 367.292 136.011 367.153 136.288 366.876C136.566 366.609 136.704 366.193 136.704 365.628V363.564C136.192 364.47 135.36 364.924 134.208 364.924C133.398 364.924 132.763 364.694 132.304 364.236C131.856 363.766 131.632 363.116 131.632 362.284V358.924C131.632 358.7 131.59 358.518 131.504 358.38C131.419 358.23 131.264 358.065 131.04 357.884L131.984 357.052C132.379 357.265 132.651 357.51 132.8 357.788C132.96 358.054 133.04 358.433 133.04 358.924V362.172C133.04 362.694 133.174 363.1 133.44 363.388C133.718 363.665 134.102 363.804 134.592 363.804C135.168 363.804 135.648 363.606 136.032 363.212C136.416 362.806 136.64 362.305 136.704 361.708V357.228H138.112ZM143.959 357.052C144.663 357.052 145.26 357.222 145.751 357.564C146.252 357.894 146.626 358.342 146.871 358.908C147.116 359.462 147.239 360.07 147.239 360.732V361.244C147.239 361.905 147.116 362.518 146.871 363.084C146.626 363.638 146.252 364.086 145.751 364.428C145.26 364.758 144.663 364.924 143.959 364.924C143.319 364.924 142.807 364.822 142.423 364.62C142.05 364.406 141.746 364.124 141.511 363.772V368.252H140.103V358.908C140.103 358.684 140.06 358.502 139.975 358.364C139.89 358.214 139.735 358.054 139.511 357.884L140.439 357.052C140.748 357.222 140.978 357.404 141.127 357.596C141.287 357.788 141.388 358.028 141.431 358.316C141.986 357.473 142.828 357.052 143.959 357.052ZM145.831 360.732C145.831 359.974 145.628 359.356 145.223 358.876C144.828 358.396 144.295 358.156 143.623 358.156C142.535 358.156 141.831 358.684 141.511 359.74V362.236C141.831 363.292 142.535 363.82 143.623 363.82C144.295 363.82 144.828 363.58 145.223 363.1C145.628 362.62 145.831 362.001 145.831 361.244V360.732ZM152.281 363.836C152.718 363.836 153.092 363.772 153.401 363.644C153.721 363.516 154.03 363.308 154.329 363.02L155.193 363.804C154.873 364.188 154.473 364.47 153.993 364.652C153.524 364.833 152.942 364.924 152.249 364.924C151.15 364.924 150.318 364.689 149.753 364.22C149.198 363.74 148.921 363.03 148.921 362.092V359.708C148.921 358.886 149.204 358.241 149.769 357.772C150.345 357.292 151.129 357.052 152.121 357.052C153.145 357.052 153.934 357.302 154.489 357.804C155.054 358.305 155.337 359.025 155.337 359.964C155.337 360.593 155.225 361.025 155.001 361.26C154.788 361.494 154.372 361.612 153.753 361.612H150.329V362.108C150.329 362.684 150.489 363.116 150.809 363.404C151.129 363.692 151.62 363.836 152.281 363.836ZM152.121 358.14C151.556 358.14 151.113 358.289 150.793 358.588C150.484 358.886 150.329 359.292 150.329 359.804V360.604H153.065C153.396 360.604 153.62 360.55 153.737 360.444C153.865 360.337 153.929 360.134 153.929 359.836C153.929 359.302 153.769 358.886 153.449 358.588C153.129 358.289 152.686 358.14 152.121 358.14ZM160.875 364.924C159.851 364.924 159.024 364.769 158.395 364.46C157.776 364.15 157.195 363.638 156.651 362.924L157.675 362.044C158.123 362.662 158.581 363.1 159.051 363.356C159.52 363.601 160.112 363.724 160.827 363.724C161.776 363.724 162.496 363.558 162.987 363.228C163.488 362.886 163.739 362.39 163.739 361.74C163.739 361.366 163.637 361.062 163.435 360.828C163.243 360.593 162.901 360.39 162.411 360.22C161.92 360.038 161.195 359.852 160.235 359.66C159.157 359.446 158.363 359.084 157.851 358.572C157.339 358.06 157.083 357.382 157.083 356.54C157.083 355.558 157.435 354.785 158.139 354.22C158.853 353.654 159.829 353.372 161.067 353.372C162.891 353.372 164.181 353.974 164.939 355.18L163.915 356.012C163.541 355.532 163.125 355.174 162.667 354.94C162.219 354.694 161.68 354.572 161.051 354.572C160.283 354.572 159.68 354.748 159.243 355.1C158.816 355.441 158.603 355.91 158.603 356.508C158.603 357.041 158.816 357.462 159.243 357.772C159.669 358.07 160.315 358.305 161.179 358.476C162.171 358.678 162.955 358.902 163.531 359.148C164.107 359.393 164.539 359.718 164.827 360.124C165.115 360.529 165.259 361.062 165.259 361.724C165.259 362.78 164.885 363.58 164.139 364.124C163.403 364.657 162.315 364.924 160.875 364.924ZM170.155 364.924C169.078 364.924 168.251 364.678 167.675 364.188C167.11 363.697 166.827 362.993 166.827 362.076V359.9C166.827 358.993 167.115 358.294 167.691 357.804C168.278 357.302 169.105 357.052 170.171 357.052C171.451 357.052 172.406 357.462 173.035 358.284L172.075 359.084C171.777 358.742 171.489 358.502 171.211 358.364C170.934 358.225 170.587 358.156 170.171 358.156C169.553 358.156 169.073 358.31 168.731 358.62C168.401 358.918 168.235 359.345 168.235 359.9V362.076C168.235 362.63 168.401 363.062 168.731 363.372C169.062 363.67 169.537 363.82 170.155 363.82C170.593 363.82 170.961 363.745 171.259 363.596C171.569 363.446 171.851 363.212 172.107 362.892L173.067 363.692C172.758 364.108 172.369 364.417 171.899 364.62C171.43 364.822 170.849 364.924 170.155 364.924ZM178.675 357.052C179.134 357.052 179.518 357.164 179.827 357.388L179.475 358.62C179.113 358.406 178.729 358.3 178.323 358.3C177.843 358.3 177.433 358.502 177.091 358.908C176.75 359.313 176.499 359.857 176.339 360.54V364.748H174.931V358.908C174.931 358.684 174.889 358.502 174.803 358.364C174.718 358.214 174.563 358.054 174.339 357.884L175.283 357.052C175.657 357.254 175.918 357.478 176.067 357.724C176.227 357.958 176.318 358.289 176.339 358.716C176.574 358.193 176.889 357.788 177.283 357.5C177.678 357.201 178.142 357.052 178.675 357.052ZM182.042 355.756C181.797 355.756 181.584 355.67 181.402 355.5C181.232 355.318 181.146 355.105 181.146 354.86C181.146 354.614 181.232 354.406 181.402 354.236C181.584 354.054 181.797 353.964 182.042 353.964C182.288 353.964 182.496 354.054 182.666 354.236C182.848 354.406 182.938 354.614 182.938 354.86C182.938 355.105 182.848 355.318 182.666 355.5C182.496 355.67 182.288 355.756 182.042 355.756ZM182.394 364.924C182 364.71 181.722 364.47 181.562 364.204C181.413 363.926 181.338 363.548 181.338 363.068V357.228H182.746V363.068C182.746 363.292 182.789 363.478 182.874 363.628C182.96 363.766 183.114 363.921 183.338 364.092L182.394 364.924ZM189.225 357.052C189.929 357.052 190.526 357.222 191.017 357.564C191.518 357.894 191.891 358.342 192.137 358.908C192.382 359.462 192.505 360.07 192.505 360.732V361.244C192.505 361.905 192.382 362.518 192.137 363.084C191.891 363.638 191.518 364.086 191.017 364.428C190.526 364.758 189.929 364.924 189.225 364.924C188.585 364.924 188.073 364.822 187.689 364.62C187.315 364.406 187.011 364.124 186.777 363.772V368.252H185.369V358.908C185.369 358.684 185.326 358.502 185.241 358.364C185.155 358.214 185.001 358.054 184.777 357.884L185.705 357.052C186.014 357.222 186.243 357.404 186.393 357.596C186.553 357.788 186.654 358.028 186.697 358.316C187.251 357.473 188.094 357.052 189.225 357.052ZM191.097 360.732C191.097 359.974 190.894 359.356 190.489 358.876C190.094 358.396 189.561 358.156 188.889 358.156C187.801 358.156 187.097 358.684 186.777 359.74V362.236C187.097 363.292 187.801 363.82 188.889 363.82C189.561 363.82 190.094 363.58 190.489 363.1C190.894 362.62 191.097 362.001 191.097 361.244V360.732ZM195.79 358.332V362.364C195.79 362.822 195.881 363.164 196.062 363.388C196.244 363.601 196.532 363.708 196.926 363.708H197.95V364.812H196.926C196.02 364.812 195.369 364.62 194.974 364.236C194.58 363.852 194.382 363.228 194.382 362.364V355.676C194.382 355.452 194.34 355.27 194.254 355.132C194.169 354.982 194.014 354.822 193.79 354.652L194.734 353.82C195.129 354.033 195.401 354.278 195.55 354.556C195.71 354.822 195.79 355.196 195.79 355.676V357.228H197.95V358.332H195.79Z" fill="black"/>
<path d="M107.813 172.23C107.813 170.251 108.336 168.786 109.381 167.834C110.445 166.863 112.069 166.378 114.253 166.378H121.001V168.002H114.253C112.741 168.002 111.621 168.347 110.893 169.038C110.184 169.728 109.829 170.792 109.829 172.23V175.926H119.573V177.55H109.829V185.978H107.813V172.23ZM130.365 172.51C131.055 172.51 131.662 172.678 132.185 173.014L131.681 174.722C131.139 174.404 130.542 174.246 129.889 174.246C128.974 174.246 128.171 174.675 127.481 175.534C126.79 176.392 126.295 177.578 125.997 179.09V185.978H124.121V175.198C124.121 174.862 124.055 174.591 123.925 174.386C123.813 174.162 123.589 173.91 123.253 173.63L124.513 172.51C125.073 172.827 125.455 173.191 125.661 173.602C125.885 173.994 125.997 174.544 125.997 175.254V175.982C126.426 174.88 127.014 174.031 127.761 173.434C128.526 172.818 129.394 172.51 130.365 172.51ZM139.301 186.286C137.546 186.286 136.174 185.847 135.185 184.97C134.214 184.074 133.729 182.823 133.729 181.218V177.578C133.729 175.972 134.214 174.731 135.185 173.854C136.174 172.958 137.546 172.51 139.301 172.51C141.055 172.51 142.418 172.958 143.389 173.854C144.378 174.731 144.873 175.972 144.873 177.578V181.218C144.873 182.823 144.378 184.074 143.389 184.97C142.418 185.847 141.055 186.286 139.301 186.286ZM139.301 184.774C140.477 184.774 141.382 184.466 142.017 183.85C142.67 183.234 142.997 182.356 142.997 181.218V177.578C142.997 176.439 142.67 175.562 142.017 174.946C141.382 174.33 140.477 174.022 139.301 174.022C138.125 174.022 137.21 174.33 136.557 174.946C135.922 175.562 135.605 176.439 135.605 177.578V181.218C135.605 182.356 135.922 183.234 136.557 183.85C137.21 184.466 138.125 184.774 139.301 184.774ZM155.336 172.51C156.661 172.51 157.697 172.911 158.444 173.714C159.191 174.498 159.564 175.59 159.564 176.99V185.978H157.688V177.27C157.688 176.243 157.436 175.45 156.932 174.89C156.447 174.311 155.765 174.022 154.888 174.022C153.88 174.022 153.003 174.395 152.256 175.142C151.528 175.888 151.005 176.906 150.688 178.194V185.978H148.812V175.198C148.812 174.862 148.747 174.591 148.616 174.386C148.504 174.162 148.28 173.91 147.944 173.63L149.176 172.51C149.755 172.827 150.147 173.191 150.352 173.602C150.576 173.994 150.688 174.544 150.688 175.254V175.506C151.155 174.535 151.78 173.798 152.564 173.294C153.367 172.771 154.291 172.51 155.336 172.51ZM165.532 174.33V182.17C165.532 183.831 166.26 184.662 167.716 184.662H169.312V186.146H167.716C166.316 186.146 165.29 185.828 164.636 185.194C163.983 184.54 163.656 183.532 163.656 182.17V169.766C163.656 169.43 163.591 169.159 163.46 168.954C163.348 168.73 163.124 168.478 162.788 168.198L164.048 167.078C164.608 167.395 164.991 167.759 165.196 168.17C165.42 168.562 165.532 169.112 165.532 169.822V172.818H169.312V174.33H165.532ZM177.778 184.774C178.581 184.774 179.29 184.652 179.906 184.41C180.522 184.167 181.092 183.775 181.614 183.234L182.79 184.326C182.193 184.998 181.484 185.492 180.662 185.81C179.841 186.127 178.842 186.286 177.666 186.286C175.874 186.286 174.474 185.866 173.466 185.026C172.477 184.167 171.982 182.972 171.982 181.442V177.186C171.982 175.748 172.468 174.619 173.438 173.798C174.428 172.958 175.781 172.538 177.498 172.538C179.253 172.538 180.597 172.976 181.53 173.854C182.482 174.731 182.958 175.972 182.958 177.578C182.958 178.604 182.762 179.314 182.37 179.706C181.997 180.079 181.288 180.266 180.242 180.266H173.858V181.442C173.858 182.562 174.176 183.402 174.81 183.962C175.464 184.503 176.453 184.774 177.778 184.774ZM177.47 174.022C176.35 174.022 175.464 174.32 174.81 174.918C174.176 175.496 173.858 176.29 173.858 177.298V178.894H179.458C180.093 178.894 180.522 178.791 180.746 178.586C180.97 178.362 181.082 177.951 181.082 177.354C181.082 176.308 180.765 175.496 180.13 174.918C179.496 174.32 178.609 174.022 177.47 174.022ZM193.016 172.51C194.341 172.51 195.377 172.911 196.124 173.714C196.87 174.498 197.244 175.59 197.244 176.99V185.978H195.368V177.27C195.368 176.243 195.116 175.45 194.612 174.89C194.126 174.311 193.445 174.022 192.568 174.022C191.56 174.022 190.682 174.395 189.936 175.142C189.208 175.888 188.685 176.906 188.368 178.194V185.978H186.492V175.198C186.492 174.862 186.426 174.591 186.296 174.386C186.184 174.162 185.96 173.91 185.624 173.63L186.856 172.51C187.434 172.827 187.826 173.191 188.032 173.602C188.256 173.994 188.368 174.544 188.368 175.254V175.506C188.834 174.535 189.46 173.798 190.244 173.294C191.046 172.771 191.97 172.51 193.016 172.51ZM212.62 183.598C212.62 183.934 212.676 184.214 212.788 184.438C212.919 184.643 213.152 184.886 213.488 185.166L212.256 186.286C211.789 186.024 211.444 185.688 211.22 185.278C210.996 184.848 210.865 184.41 210.828 183.962C209.857 185.511 208.373 186.286 206.376 186.286C205.219 186.286 204.201 186.024 203.324 185.502C202.465 184.96 201.793 184.204 201.308 183.234C200.841 182.263 200.608 181.134 200.608 179.846V178.95C200.608 177.662 200.841 176.532 201.308 175.562C201.793 174.591 202.465 173.844 203.324 173.322C204.201 172.78 205.219 172.51 206.376 172.51C207.328 172.51 208.177 172.696 208.924 173.07C209.689 173.443 210.296 173.975 210.744 174.666V168.394C210.744 168.058 210.688 167.787 210.576 167.582C210.464 167.376 210.231 167.115 209.876 166.798L211.164 165.706C211.705 166.004 212.079 166.359 212.284 166.77C212.508 167.18 212.62 167.74 212.62 168.45V183.598ZM210.744 177.046C210.427 176.038 209.941 175.282 209.288 174.778C208.635 174.274 207.767 174.022 206.684 174.022C205.415 174.022 204.397 174.47 203.632 175.366C202.867 176.262 202.484 177.456 202.484 178.95V179.846C202.484 181.339 202.867 182.534 203.632 183.43C204.397 184.326 205.415 184.774 206.684 184.774C207.767 184.774 208.635 184.522 209.288 184.018C209.941 183.514 210.427 182.758 210.744 181.75V177.046Z" fill="black"/>
<path d="M261.109 82.246H259.493L258.741 79.494C258.591 78.9606 258.426 78.5446 258.245 78.246C258.074 77.9473 257.834 77.7233 257.525 77.574C257.215 77.4246 256.794 77.35 256.261 77.35H254.005V82.246H252.485V71.046H257.189C258.341 71.046 259.205 71.3126 259.781 71.846C260.367 72.3686 260.661 73.1366 260.661 74.15C260.661 74.9286 260.469 75.5526 260.085 76.022C259.711 76.4913 259.178 76.7846 258.485 76.902C258.975 77.0726 259.354 77.366 259.621 77.782C259.887 78.198 260.127 78.774 260.341 79.51L261.109 82.246ZM257.125 76.15C257.743 76.15 258.234 75.9846 258.597 75.654C258.959 75.3126 259.141 74.8273 259.141 74.198C259.141 73.5686 258.959 73.0886 258.597 72.758C258.245 72.4166 257.754 72.246 257.125 72.246H254.005V76.15H257.125ZM265.971 81.334C266.409 81.334 266.782 81.27 267.091 81.142C267.411 81.014 267.721 80.806 268.019 80.518L268.883 81.302C268.563 81.686 268.163 81.9686 267.683 82.15C267.214 82.3313 266.633 82.422 265.939 82.422C264.841 82.422 264.009 82.1873 263.443 81.718C262.889 81.238 262.611 80.5286 262.611 79.59V77.206C262.611 76.3846 262.894 75.7393 263.459 75.27C264.035 74.79 264.819 74.55 265.811 74.55C266.835 74.55 267.625 74.8006 268.179 75.302C268.745 75.8033 269.027 76.5233 269.027 77.462C269.027 78.0913 268.915 78.5233 268.691 78.758C268.478 78.9926 268.062 79.11 267.443 79.11H264.019V79.606C264.019 80.182 264.179 80.614 264.499 80.902C264.819 81.19 265.31 81.334 265.971 81.334ZM265.811 75.638C265.246 75.638 264.803 75.7873 264.483 76.086C264.174 76.3846 264.019 76.79 264.019 77.302V78.102H266.755C267.086 78.102 267.31 78.0486 267.427 77.942C267.555 77.8353 267.619 77.6326 267.619 77.334C267.619 76.8006 267.459 76.3846 267.139 76.086C266.819 75.7873 266.377 75.638 265.811 75.638ZM276.871 80.566C276.871 80.79 276.913 80.9766 276.999 81.126C277.084 81.2646 277.239 81.4193 277.463 81.59L276.519 82.422C275.975 82.1446 275.644 81.75 275.527 81.238C275.271 81.6006 274.913 81.8886 274.455 82.102C274.007 82.3153 273.489 82.422 272.903 82.422C272.103 82.422 271.484 82.2353 271.047 81.862C270.609 81.478 270.391 80.9286 270.391 80.214C270.391 79.478 270.647 78.9286 271.159 78.566C271.671 78.2033 272.375 77.974 273.271 77.878L274.359 77.75C274.817 77.6966 275.116 77.6166 275.255 77.51C275.404 77.3926 275.473 77.1953 275.463 76.918C275.42 76.502 275.249 76.1713 274.951 75.926C274.663 75.6806 274.22 75.558 273.623 75.558C273.185 75.558 272.812 75.6326 272.503 75.782C272.193 75.9206 271.911 76.15 271.655 76.47L270.695 75.782C270.961 75.3766 271.329 75.0726 271.799 74.87C272.279 74.6566 272.887 74.55 273.623 74.55C274.7 74.55 275.511 74.774 276.055 75.222C276.599 75.67 276.871 76.3206 276.871 77.174V80.566ZM273.239 81.382C273.911 81.382 274.449 81.206 274.855 80.854C275.271 80.502 275.479 80.054 275.479 79.51V78.438C275.233 78.5766 274.855 78.6673 274.343 78.71L273.399 78.806C272.289 78.934 271.735 79.3873 271.735 80.166C271.735 80.5606 271.863 80.8646 272.119 81.078C272.375 81.2806 272.748 81.382 273.239 81.382ZM282.158 82.422C281.081 82.422 280.254 82.1766 279.678 81.686C279.113 81.1953 278.83 80.4913 278.83 79.574V77.398C278.83 76.4913 279.118 75.7926 279.694 75.302C280.281 74.8006 281.108 74.55 282.174 74.55C283.454 74.55 284.409 74.9606 285.038 75.782L284.078 76.582C283.78 76.2406 283.492 76.0006 283.214 75.862C282.937 75.7233 282.59 75.654 282.174 75.654C281.556 75.654 281.076 75.8086 280.734 76.118C280.404 76.4166 280.238 76.8433 280.238 77.398V79.574C280.238 80.1286 280.404 80.5606 280.734 80.87C281.065 81.1686 281.54 81.318 282.158 81.318C282.596 81.318 282.964 81.2433 283.262 81.094C283.572 80.9446 283.854 80.71 284.11 80.39L285.07 81.19C284.761 81.606 284.372 81.9153 283.902 82.118C283.433 82.3206 282.852 82.422 282.158 82.422ZM288.184 75.83V79.862C288.184 80.3206 288.275 80.662 288.456 80.886C288.637 81.0993 288.925 81.206 289.32 81.206H290.344V82.31H289.32C288.413 82.31 287.763 82.118 287.368 81.734C286.973 81.35 286.776 80.726 286.776 79.862V73.174C286.776 72.95 286.733 72.7686 286.648 72.63C286.563 72.4806 286.408 72.3206 286.184 72.15L287.128 71.318C287.523 71.5313 287.795 71.7766 287.944 72.054C288.104 72.3206 288.184 72.694 288.184 73.174V74.726H290.344V75.83H288.184Z" fill="black"/>
<path d="M120.474 17.176C119.728 17.176 119.109 17.064 118.618 16.84C118.138 16.616 117.68 16.2533 117.242 15.752L118.138 14.824C118.458 15.24 118.794 15.5387 119.146 15.72C119.498 15.8907 119.93 15.976 120.442 15.976C121.2 15.976 121.776 15.7947 122.17 15.432C122.565 15.0587 122.762 14.5253 122.762 13.832V5.8H124.282V13.848C124.282 14.9253 123.957 15.752 123.306 16.328C122.656 16.8933 121.712 17.176 120.474 17.176ZM132.637 15.32C132.637 15.544 132.68 15.7307 132.765 15.88C132.851 16.0187 133.005 16.1733 133.229 16.344L132.285 17.176C131.741 16.8987 131.411 16.504 131.293 15.992C131.037 16.3547 130.68 16.6427 130.221 16.856C129.773 17.0693 129.256 17.176 128.669 17.176C127.869 17.176 127.251 16.9893 126.813 16.616C126.376 16.232 126.157 15.6827 126.157 14.968C126.157 14.232 126.413 13.6827 126.925 13.32C127.437 12.9573 128.141 12.728 129.037 12.632L130.125 12.504C130.584 12.4507 130.883 12.3707 131.021 12.264C131.171 12.1467 131.24 11.9493 131.229 11.672C131.187 11.256 131.016 10.9253 130.717 10.68C130.429 10.4347 129.987 10.312 129.389 10.312C128.952 10.312 128.579 10.3867 128.269 10.536C127.96 10.6747 127.677 10.904 127.421 11.224L126.461 10.536C126.728 10.1307 127.096 9.82667 127.565 9.624C128.045 9.41067 128.653 9.304 129.389 9.304C130.467 9.304 131.277 9.528 131.821 9.976C132.365 10.424 132.637 11.0747 132.637 11.928V15.32ZM129.005 16.136C129.677 16.136 130.216 15.96 130.621 15.608C131.037 15.256 131.245 14.808 131.245 14.264V13.192C131 13.3307 130.621 13.4213 130.109 13.464L129.165 13.56C128.056 13.688 127.501 14.1413 127.501 14.92C127.501 15.3147 127.629 15.6187 127.885 15.832C128.141 16.0347 128.515 16.136 129.005 16.136ZM137.526 17.176C137.067 17.176 136.704 17.048 136.438 16.792C136.171 16.536 135.942 16.0933 135.75 15.464L133.91 9.48H135.27L137.046 15.368C137.131 15.656 137.2 15.848 137.254 15.944C137.318 16.0293 137.403 16.072 137.51 16.072C137.616 16.072 137.696 16.0293 137.75 15.944C137.814 15.848 137.888 15.656 137.974 15.368L139.734 9.48H141.11L139.286 15.464C139.094 16.0933 138.864 16.536 138.598 16.792C138.342 17.048 137.984 17.176 137.526 17.176ZM148.481 15.32C148.481 15.544 148.524 15.7307 148.609 15.88C148.694 16.0187 148.849 16.1733 149.073 16.344L148.129 17.176C147.585 16.8987 147.254 16.504 147.137 15.992C146.881 16.3547 146.524 16.6427 146.065 16.856C145.617 17.0693 145.1 17.176 144.513 17.176C143.713 17.176 143.094 16.9893 142.657 16.616C142.22 16.232 142.001 15.6827 142.001 14.968C142.001 14.232 142.257 13.6827 142.769 13.32C143.281 12.9573 143.985 12.728 144.881 12.632L145.969 12.504C146.428 12.4507 146.726 12.3707 146.865 12.264C147.014 12.1467 147.084 11.9493 147.073 11.672C147.03 11.256 146.86 10.9253 146.561 10.68C146.273 10.4347 145.83 10.312 145.233 10.312C144.796 10.312 144.422 10.3867 144.113 10.536C143.804 10.6747 143.521 10.904 143.265 11.224L142.305 10.536C142.572 10.1307 142.94 9.82667 143.409 9.624C143.889 9.41067 144.497 9.304 145.233 9.304C146.31 9.304 147.121 9.528 147.665 9.976C148.209 10.424 148.481 11.0747 148.481 11.928V15.32ZM144.849 16.136C145.521 16.136 146.06 15.96 146.465 15.608C146.881 15.256 147.089 14.808 147.089 14.264V13.192C146.844 13.3307 146.465 13.4213 145.953 13.464L145.009 13.56C143.9 13.688 143.345 14.1413 143.345 14.92C143.345 15.3147 143.473 15.6187 143.729 15.832C143.985 16.0347 144.358 16.136 144.849 16.136ZM154.566 17.176C153.542 17.176 152.715 17.0213 152.086 16.712C151.467 16.4027 150.886 15.8907 150.342 15.176L151.366 14.296C151.814 14.9147 152.272 15.352 152.742 15.608C153.211 15.8533 153.803 15.976 154.518 15.976C155.467 15.976 156.187 15.8107 156.678 15.48C157.179 15.1387 157.43 14.6427 157.43 13.992C157.43 13.6187 157.328 13.3147 157.126 13.08C156.934 12.8453 156.592 12.6427 156.102 12.472C155.611 12.2907 154.886 12.104 153.926 11.912C152.848 11.6987 152.054 11.336 151.542 10.824C151.03 10.312 150.774 9.63467 150.774 8.792C150.774 7.81067 151.126 7.03733 151.83 6.472C152.544 5.90667 153.52 5.624 154.758 5.624C156.582 5.624 157.872 6.22667 158.63 7.432L157.606 8.264C157.232 7.784 156.816 7.42667 156.358 7.192C155.91 6.94667 155.371 6.824 154.742 6.824C153.974 6.824 153.371 7 152.934 7.352C152.507 7.69333 152.294 8.16267 152.294 8.76C152.294 9.29333 152.507 9.71467 152.934 10.024C153.36 10.3227 154.006 10.5573 154.87 10.728C155.862 10.9307 156.646 11.1547 157.222 11.4C157.798 11.6453 158.23 11.9707 158.518 12.376C158.806 12.7813 158.95 13.3147 158.95 13.976C158.95 15.032 158.576 15.832 157.83 16.376C157.094 16.9093 156.006 17.176 154.566 17.176ZM163.846 17.176C162.769 17.176 161.942 16.9307 161.366 16.44C160.801 15.9493 160.518 15.2453 160.518 14.328V12.152C160.518 11.2453 160.806 10.5467 161.382 10.056C161.969 9.55467 162.796 9.304 163.862 9.304C165.142 9.304 166.097 9.71467 166.726 10.536L165.766 11.336C165.468 10.9947 165.18 10.7547 164.902 10.616C164.625 10.4773 164.278 10.408 163.862 10.408C163.244 10.408 162.764 10.5627 162.422 10.872C162.092 11.1707 161.926 11.5973 161.926 12.152V14.328C161.926 14.8827 162.092 15.3147 162.422 15.624C162.753 15.9227 163.228 16.072 163.846 16.072C164.284 16.072 164.652 15.9973 164.95 15.848C165.26 15.6987 165.542 15.464 165.798 15.144L166.758 15.944C166.449 16.36 166.06 16.6693 165.59 16.872C165.121 17.0747 164.54 17.176 163.846 17.176ZM172.366 9.304C172.825 9.304 173.209 9.416 173.518 9.64L173.166 10.872C172.804 10.6587 172.42 10.552 172.014 10.552C171.534 10.552 171.124 10.7547 170.782 11.16C170.441 11.5653 170.19 12.1093 170.03 12.792V17H168.622V11.16C168.622 10.936 168.58 10.7547 168.494 10.616C168.409 10.4667 168.254 10.3067 168.03 10.136L168.974 9.304C169.348 9.50667 169.609 9.73067 169.758 9.976C169.918 10.2107 170.009 10.5413 170.03 10.968C170.265 10.4453 170.58 10.04 170.974 9.752C171.369 9.45333 171.833 9.304 172.366 9.304ZM175.733 8.008C175.488 8.008 175.275 7.92267 175.093 7.752C174.923 7.57067 174.837 7.35733 174.837 7.112C174.837 6.86667 174.923 6.65867 175.093 6.488C175.275 6.30667 175.488 6.216 175.733 6.216C175.979 6.216 176.187 6.30667 176.357 6.488C176.539 6.65867 176.629 6.86667 176.629 7.112C176.629 7.35733 176.539 7.57067 176.357 7.752C176.187 7.92267 175.979 8.008 175.733 8.008ZM176.085 17.176C175.691 16.9627 175.413 16.7227 175.253 16.456C175.104 16.1787 175.029 15.8 175.029 15.32V9.48H176.437V15.32C176.437 15.544 176.48 15.7307 176.565 15.88C176.651 16.0187 176.805 16.1733 177.029 16.344L176.085 17.176ZM182.916 9.304C183.62 9.304 184.217 9.47467 184.708 9.816C185.209 10.1467 185.583 10.5947 185.828 11.16C186.073 11.7147 186.196 12.3227 186.196 12.984V13.496C186.196 14.1573 186.073 14.7707 185.828 15.336C185.583 15.8907 185.209 16.3387 184.708 16.68C184.217 17.0107 183.62 17.176 182.916 17.176C182.276 17.176 181.764 17.0747 181.38 16.872C181.007 16.6587 180.703 16.376 180.468 16.024V20.504H179.06V11.16C179.06 10.936 179.017 10.7547 178.932 10.616C178.847 10.4667 178.692 10.3067 178.468 10.136L179.396 9.304C179.705 9.47467 179.935 9.656 180.084 9.848C180.244 10.04 180.345 10.28 180.388 10.568C180.943 9.72533 181.785 9.304 182.916 9.304ZM184.788 12.984C184.788 12.2267 184.585 11.608 184.18 11.128C183.785 10.648 183.252 10.408 182.58 10.408C181.492 10.408 180.788 10.936 180.468 11.992V14.488C180.788 15.544 181.492 16.072 182.58 16.072C183.252 16.072 183.785 15.832 184.18 15.352C184.585 14.872 184.788 14.2533 184.788 13.496V12.984ZM189.482 10.584V14.616C189.482 15.0747 189.572 15.416 189.754 15.64C189.935 15.8533 190.223 15.96 190.618 15.96H191.642V17.064H190.618C189.711 17.064 189.06 16.872 188.666 16.488C188.271 16.104 188.074 15.48 188.074 14.616V7.928C188.074 7.704 188.031 7.52267 187.946 7.384C187.86 7.23467 187.706 7.07467 187.482 6.904L188.426 6.072C188.82 6.28533 189.092 6.53067 189.242 6.808C189.402 7.07467 189.482 7.448 189.482 7.928V9.48H191.642V10.584H189.482Z" fill="black"/>
<path d="M259.375 286.8V296.016C259.375 296.677 259.236 297.173 258.959 297.504C258.692 297.835 258.266 298 257.679 298H256.607L251.999 289.136V298H250.559V286.8H252.319L257.391 296.688H257.487C257.658 296.688 257.775 296.624 257.839 296.496C257.903 296.368 257.935 296.133 257.935 295.792V286.8H259.375ZM264.89 297.088C265.327 297.088 265.7 297.024 266.01 296.896C266.33 296.768 266.639 296.56 266.938 296.272L267.802 297.056C267.482 297.44 267.082 297.723 266.602 297.904C266.132 298.085 265.551 298.176 264.858 298.176C263.759 298.176 262.927 297.941 262.362 297.472C261.807 296.992 261.53 296.283 261.53 295.344V292.96C261.53 292.139 261.812 291.493 262.378 291.024C262.954 290.544 263.738 290.304 264.73 290.304C265.754 290.304 266.543 290.555 267.098 291.056C267.663 291.557 267.946 292.277 267.946 293.216C267.946 293.845 267.834 294.277 267.61 294.512C267.396 294.747 266.98 294.864 266.362 294.864H262.938V295.36C262.938 295.936 263.098 296.368 263.418 296.656C263.738 296.944 264.228 297.088 264.89 297.088ZM264.73 291.392C264.164 291.392 263.722 291.541 263.402 291.84C263.092 292.139 262.938 292.544 262.938 293.056V293.856H265.674C266.004 293.856 266.228 293.803 266.346 293.696C266.474 293.589 266.538 293.387 266.538 293.088C266.538 292.555 266.378 292.139 266.058 291.84C265.738 291.541 265.295 291.392 264.73 291.392ZM273.731 298L271.811 295.168L269.955 298H268.515L271.075 294.08L268.643 290.48H270.067L271.907 293.184L273.683 290.48H275.123L272.659 294.288L275.171 298H273.731ZM277.899 291.584V295.616C277.899 296.075 277.99 296.416 278.171 296.64C278.352 296.853 278.64 296.96 279.035 296.96H280.059V298.064H279.035C278.128 298.064 277.478 297.872 277.083 297.488C276.688 297.104 276.491 296.48 276.491 295.616V288.928C276.491 288.704 276.448 288.523 276.363 288.384C276.278 288.235 276.123 288.075 275.899 287.904L276.843 287.072C277.238 287.285 277.51 287.531 277.659 287.808C277.819 288.075 277.899 288.448 277.899 288.928V290.48H280.059V291.584H277.899ZM282.586 298.176C282.319 298.176 282.095 298.085 281.914 297.904C281.732 297.723 281.642 297.499 281.642 297.232C281.642 296.965 281.732 296.741 281.914 296.56C282.095 296.368 282.319 296.272 282.586 296.272C282.852 296.272 283.076 296.368 283.258 296.56C283.439 296.741 283.53 296.965 283.53 297.232C283.53 297.499 283.439 297.723 283.258 297.904C283.076 298.085 282.852 298.176 282.586 298.176ZM286.108 289.008C285.863 289.008 285.649 288.923 285.468 288.752C285.297 288.571 285.212 288.357 285.212 288.112C285.212 287.867 285.303 287.659 285.484 287.488C285.665 287.307 285.873 287.216 286.108 287.216C286.353 287.216 286.561 287.307 286.732 287.488C286.913 287.659 287.004 287.867 287.004 288.112C287.004 288.357 286.913 288.571 286.732 288.752C286.561 288.923 286.353 289.008 286.108 289.008ZM282.924 300.544H283.708C284.295 300.544 284.721 300.395 284.988 300.096C285.265 299.808 285.404 299.349 285.404 298.72V290.48H286.812V298.72C286.812 299.755 286.567 300.501 286.076 300.96C285.596 301.419 284.807 301.648 283.708 301.648H282.924V300.544ZM291.419 298.176C290.715 298.176 290.145 298.075 289.707 297.872C289.281 297.659 288.886 297.317 288.523 296.848L289.419 296.08C289.729 296.443 290.027 296.699 290.315 296.848C290.614 296.997 290.982 297.072 291.419 297.072C292.582 297.072 293.163 296.704 293.163 295.968C293.163 295.733 293.099 295.547 292.971 295.408C292.854 295.259 292.641 295.136 292.331 295.04C292.033 294.933 291.579 294.827 290.971 294.72C290.225 294.571 289.665 294.315 289.291 293.952C288.918 293.579 288.731 293.088 288.731 292.48C288.731 291.797 288.982 291.264 289.483 290.88C289.985 290.496 290.673 290.304 291.547 290.304C292.838 290.304 293.745 290.715 294.267 291.536L293.371 292.288C293.115 291.979 292.843 291.755 292.555 291.616C292.278 291.477 291.942 291.408 291.547 291.408C291.078 291.408 290.715 291.504 290.459 291.696C290.203 291.888 290.075 292.155 290.075 292.496C290.075 292.805 290.198 293.045 290.443 293.216C290.689 293.376 291.078 293.509 291.611 293.616C292.315 293.776 292.87 293.947 293.275 294.128C293.681 294.299 293.985 294.533 294.187 294.832C294.39 295.12 294.491 295.504 294.491 295.984C294.491 297.445 293.467 298.176 291.419 298.176Z" fill="black"/>
<path d="M23.7225 296.176C22.2399 296.176 21.1092 295.835 20.3305 295.152C19.5519 294.459 19.1625 293.44 19.1625 292.096V288.688C19.1625 287.365 19.5465 286.357 20.3145 285.664C21.0825 284.971 22.1865 284.624 23.6265 284.624C24.5972 284.624 25.4132 284.779 26.0745 285.088C26.7359 285.397 27.2745 285.872 27.6905 286.512L26.6025 287.28C26.2399 286.779 25.8292 286.411 25.3705 286.176C24.9119 285.941 24.3412 285.824 23.6585 285.824C21.6745 285.824 20.6825 286.779 20.6825 288.688V292.096C20.6825 294.016 21.6959 294.976 23.7225 294.976C24.4479 294.976 25.0452 294.853 25.5145 294.608C25.9839 294.363 26.3945 293.979 26.7465 293.456L27.8185 294.272C27.3279 294.944 26.7679 295.429 26.1385 295.728C25.5199 296.027 24.7145 296.176 23.7225 296.176ZM33.2072 296.176C32.1832 296.176 31.3565 296.021 30.7272 295.712C30.1085 295.403 29.5272 294.891 28.9832 294.176L30.0072 293.296C30.4552 293.915 30.9138 294.352 31.3832 294.608C31.8525 294.853 32.4445 294.976 33.1592 294.976C34.1085 294.976 34.8285 294.811 35.3192 294.48C35.8205 294.139 36.0712 293.643 36.0712 292.992C36.0712 292.619 35.9698 292.315 35.7672 292.08C35.5752 291.845 35.2338 291.643 34.7432 291.472C34.2525 291.291 33.5272 291.104 32.5672 290.912C31.4898 290.699 30.6952 290.336 30.1832 289.824C29.6712 289.312 29.4152 288.635 29.4152 287.792C29.4152 286.811 29.7672 286.037 30.4712 285.472C31.1858 284.907 32.1618 284.624 33.3992 284.624C35.2232 284.624 36.5138 285.227 37.2712 286.432L36.2472 287.264C35.8738 286.784 35.4578 286.427 34.9992 286.192C34.5512 285.947 34.0125 285.824 33.3832 285.824C32.6152 285.824 32.0125 286 31.5752 286.352C31.1485 286.693 30.9352 287.163 30.9352 287.76C30.9352 288.293 31.1485 288.715 31.5752 289.024C32.0018 289.323 32.6472 289.557 33.5112 289.728C34.5032 289.931 35.2872 290.155 35.8632 290.4C36.4392 290.645 36.8712 290.971 37.1592 291.376C37.4472 291.781 37.5912 292.315 37.5912 292.976C37.5912 294.032 37.2178 294.832 36.4712 295.376C35.7352 295.909 34.6472 296.176 33.2072 296.176ZM43.1759 296.176C42.1519 296.176 41.3252 296.021 40.6959 295.712C40.0772 295.403 39.4959 294.891 38.9519 294.176L39.9759 293.296C40.4239 293.915 40.8826 294.352 41.3519 294.608C41.8212 294.853 42.4132 294.976 43.1279 294.976C44.0772 294.976 44.7972 294.811 45.2879 294.48C45.7892 294.139 46.0399 293.643 46.0399 292.992C46.0399 292.619 45.9386 292.315 45.7359 292.08C45.5439 291.845 45.2026 291.643 44.7119 291.472C44.2212 291.291 43.4959 291.104 42.5359 290.912C41.4586 290.699 40.6639 290.336 40.1519 289.824C39.6399 289.312 39.3839 288.635 39.3839 287.792C39.3839 286.811 39.7359 286.037 40.4399 285.472C41.1546 284.907 42.1306 284.624 43.3679 284.624C45.1919 284.624 46.4826 285.227 47.2399 286.432L46.2159 287.264C45.8426 286.784 45.4266 286.427 44.9679 286.192C44.5199 285.947 43.9812 285.824 43.3519 285.824C42.5839 285.824 41.9812 286 41.5439 286.352C41.1172 286.693 40.9039 287.163 40.9039 287.76C40.9039 288.293 41.1172 288.715 41.5439 289.024C41.9706 289.323 42.6159 289.557 43.4799 289.728C44.4719 289.931 45.2559 290.155 45.8319 290.4C46.4079 290.645 46.8399 290.971 47.1279 291.376C47.4159 291.781 47.5599 292.315 47.5599 292.976C47.5599 294.032 47.1866 294.832 46.4399 295.376C45.7039 295.909 44.6159 296.176 43.1759 296.176ZM58.9173 290.128C59.632 290.277 60.2026 290.597 60.6293 291.088C61.0666 291.579 61.2853 292.192 61.2853 292.928C61.2853 293.931 60.9066 294.725 60.1493 295.312C59.4026 295.888 58.3786 296.176 57.0773 296.176C56.2986 296.176 55.568 296.043 54.8853 295.776C54.2133 295.509 53.648 295.099 53.1893 294.544L54.0053 293.728C54.4426 294.176 54.9066 294.512 55.3973 294.736C55.888 294.96 56.4586 295.072 57.1093 295.072C57.984 295.072 58.6613 294.88 59.1413 294.496C59.632 294.112 59.8773 293.584 59.8773 292.912C59.8773 292.176 59.616 291.621 59.0933 291.248C58.5706 290.864 57.792 290.672 56.7573 290.672C56.4053 290.672 55.92 290.709 55.3013 290.784L55.1253 289.84C56.2346 289.808 57.1093 289.717 57.7493 289.568C58.4 289.419 58.8693 289.195 59.1573 288.896C59.4453 288.597 59.5893 288.197 59.5893 287.696C59.5893 287.077 59.36 286.597 58.9013 286.256C58.4426 285.904 57.8186 285.728 57.0293 285.728C55.856 285.728 54.928 286.144 54.2453 286.976L53.5893 286C54.4426 285.083 55.616 284.624 57.1093 284.624C58.2613 284.624 59.1946 284.875 59.9093 285.376C60.6346 285.877 60.9973 286.613 60.9973 287.584C60.9973 288.213 60.816 288.747 60.4533 289.184C60.1013 289.621 59.5893 289.936 58.9173 290.128Z" fill="black"/>
<path d="M11.6024 71.5657H13.1224V76.5417H18.6904V71.5657H20.2104V82.7657H18.6904V77.7577H13.1224V82.7657H11.6024V71.5657ZM25.6297 72.7657H22.0937V71.5657H30.7017V72.7657H27.1497V82.7657H25.6297V72.7657ZM32.6024 71.5657H33.4504C34.0478 71.5657 34.5064 71.6937 34.8264 71.9497C35.1571 72.2057 35.4984 72.6804 35.8504 73.3737L37.7384 77.0057L39.6264 73.3737C39.9784 72.6804 40.3144 72.2057 40.6344 71.9497C40.9651 71.6937 41.4291 71.5657 42.0264 71.5657H42.8744V82.7657H41.4664V73.1177C41.3278 73.1284 41.2051 73.1871 41.0984 73.2937C41.0024 73.3897 40.8851 73.5604 40.7464 73.8057L37.7384 79.4537L34.7304 73.8057C34.6024 73.5604 34.4851 73.3897 34.3784 73.2937C34.2718 73.1871 34.1491 73.1284 34.0104 73.1177V82.7657H32.6024V71.5657ZM49.1012 82.7657C47.8318 82.7657 46.8985 82.4831 46.3012 81.9177C45.7145 81.3524 45.4212 80.5044 45.4212 79.3737V71.5657H46.9412V79.3737C46.9412 80.1204 47.1172 80.6751 47.4692 81.0377C47.8212 81.3897 48.3652 81.5657 49.1012 81.5657H52.7012V82.7657H49.1012ZM62.0696 82.9417C61.2589 82.9417 60.5122 82.8191 59.8296 82.5737C59.1576 82.3177 58.6029 81.9177 58.1656 81.3737L58.9816 80.5577C59.3229 81.0057 59.7549 81.3311 60.2776 81.5337C60.8002 81.7364 61.3762 81.8377 62.0056 81.8377C62.9762 81.8377 63.7122 81.6244 64.2136 81.1977C64.7256 80.7711 64.9816 80.1524 64.9816 79.3417C64.9816 77.6671 63.9362 76.8297 61.8456 76.8297C61.0989 76.8297 60.3309 76.9417 59.5416 77.1657L58.7896 76.2857L59.2536 71.5657H65.7496V72.6697H60.4056L60.1016 75.9017C60.6349 75.7631 61.2269 75.6937 61.8776 75.6937C63.3496 75.6937 64.4696 76.0031 65.2376 76.6217C66.0056 77.2404 66.3896 78.1417 66.3896 79.3257C66.3896 80.4777 66.0109 81.3684 65.2536 81.9977C64.4962 82.6271 63.4349 82.9417 62.0696 82.9417Z" fill="black"/>
<defs>
<filter id="filter0_d_180_238" x="21.6135" y="55.9121" width="280.665" height="264.131" filterUnits="userSpaceOnUse" color-interpolation-filters="sRGB">
<feFlood flood-opacity="0" result="BackgroundImageFix"/>
<feColorMatrix in="SourceAlpha" type="matrix" values="0 0 0 0 0 0 0 0 0 0 0 0 0 0 0 0 0 0 127 0" result="hardAlpha"/>
<feMorphology radius="4" operator="dilate" in="SourceAlpha" result="effect1_dropShadow_180_238"/>
<feOffset dx="5" dy="6"/>
<feGaussianBlur stdDeviation="2"/>
<feComposite in2="hardAlpha" operator="out"/>
<feColorMatrix type="matrix" values="0 0 0 0 0 0 0 0 0 0 0 0 0 0 0 0 0 0 0.25 0"/>
<feBlend mode="normal" in2="BackgroundImageFix" result="effect1_dropShadow_180_238"/>
<feBlend mode="normal" in="SourceGraphic" in2="effect1_dropShadow_180_238" result="shape"/>
</filter>
<filter id="filter1_d_180_238" x="0" y="93" width="84" height="84" filterUnits="userSpaceOnUse" color-interpolation-filters="sRGB">
<feFlood flood-opacity="0" result="BackgroundImageFix"/>
<feColorMatrix in="SourceAlpha" type="matrix" values="0 0 0 0 0 0 0 0 0 0 0 0 0 0 0 0 0 0 127 0" result="hardAlpha"/>
<feOffset dx="2" dy="2"/>
<feGaussianBlur stdDeviation="2"/>
<feComposite in2="hardAlpha" operator="out"/>
<feColorMatrix type="matrix" values="0 0 0 0 0 0 0 0 0 0 0 0 0 0 0 0 0 0 0.25 0"/>
<feBlend mode="normal" in2="BackgroundImageFix" result="effect1_dropShadow_180_238"/>
<feBlend mode="normal" in="SourceGraphic" in2="effect1_dropShadow_180_238" result="shape"/>
</filter>
<filter id="filter2_d_180_238" x="3" y="201" width="84" height="84" filterUnits="userSpaceOnUse" color-interpolation-filters="sRGB">
<feFlood flood-opacity="0" result="BackgroundImageFix"/>
<feColorMatrix in="SourceAlpha" type="matrix" values="0 0 0 0 0 0 0 0 0 0 0 0 0 0 0 0 0 0 127 0" result="hardAlpha"/>
<feOffset dx="2" dy="2"/>
<feGaussianBlur stdDeviation="2"/>
<feComposite in2="hardAlpha" operator="out"/>
<feColorMatrix type="matrix" values="0 0 0 0 0 0 0 0 0 0 0 0 0 0 0 0 0 0 0.25 0"/>
<feBlend mode="normal" in2="BackgroundImageFix" result="effect1_dropShadow_180_238"/>
<feBlend mode="normal" in="SourceGraphic" in2="effect1_dropShadow_180_238" result="shape"/>
</filter>
<filter id="filter3_d_180_238" x="115" y="261" width="84" height="84" filterUnits="userSpaceOnUse" color-interpolation-filters="sRGB">
<feFlood flood-opacity="0" result="BackgroundImageFix"/>
<feColorMatrix in="SourceAlpha" type="matrix" values="0 0 0 0 0 0 0 0 0 0 0 0 0 0 0 0 0 0 127 0" result="hardAlpha"/>
<feOffset dx="2" dy="2"/>
<feGaussianBlur stdDeviation="2"/>
<feComposite in2="hardAlpha" operator="out"/>
<feColorMatrix type="matrix" values="0 0 0 0 0 0 0 0 0 0 0 0 0 0 0 0 0 0 0.25 0"/>
<feBlend mode="normal" in2="BackgroundImageFix" result="effect1_dropShadow_180_238"/>
<feBlend mode="normal" in="SourceGraphic" in2="effect1_dropShadow_180_238" result="shape"/>
</filter>
<filter id="filter4_d_180_238" x="228" y="201" width="84" height="84" filterUnits="userSpaceOnUse" color-interpolation-filters="sRGB">
<feFlood flood-opacity="0" result="BackgroundImageFix"/>
<feColorMatrix in="SourceAlpha" type="matrix" values="0 0 0 0 0 0 0 0 0 0 0 0 0 0 0 0 0 0 127 0" result="hardAlpha"/>
<feOffset dx="2" dy="2"/>
<feGaussianBlur stdDeviation="2"/>
<feComposite in2="hardAlpha" operator="out"/>
<feColorMatrix type="matrix" values="0 0 0 0 0 0 0 0 0 0 0 0 0 0 0 0 0 0 0.25 0"/>
<feBlend mode="normal" in2="BackgroundImageFix" result="effect1_dropShadow_180_238"/>
<feBlend mode="normal" in="SourceGraphic" in2="effect1_dropShadow_180_238" result="shape"/>
</filter>
<filter id="filter5_d_180_238" x="231" y="93" width="84" height="84" filterUnits="userSpaceOnUse" color-interpolation-filters="sRGB">
<feFlood flood-opacity="0" result="BackgroundImageFix"/>
<feColorMatrix in="SourceAlpha" type="matrix" values="0 0 0 0 0 0 0 0 0 0 0 0 0 0 0 0 0 0 127 0" result="hardAlpha"/>
<feOffset dx="2" dy="2"/>
<feGaussianBlur stdDeviation="2"/>
<feComposite in2="hardAlpha" operator="out"/>
<feColorMatrix type="matrix" values="0 0 0 0 0 0 0 0 0 0 0 0 0 0 0 0 0 0 0.25 0"/>
<feBlend mode="normal" in2="BackgroundImageFix" result="effect1_dropShadow_180_238"/>
<feBlend mode="normal" in="SourceGraphic" in2="effect1_dropShadow_180_238" result="shape"/>
</filter>
<filter id="filter6_d_180_238" x="115" y="32" width="84" height="84" filterUnits="userSpaceOnUse" color-interpolation-filters="sRGB">
<feFlood flood-opacity="0" result="BackgroundImageFix"/>
<feColorMatrix in="SourceAlpha" type="matrix" values="0 0 0 0 0 0 0 0 0 0 0 0 0 0 0 0 0 0 127 0" result="hardAlpha"/>
<feOffset dx="2" dy="2"/>
<feGaussianBlur stdDeviation="2"/>
<feComposite in2="hardAlpha" operator="out"/>
<feColorMatrix type="matrix" values="0 0 0 0 0 0 0 0 0 0 0 0 0 0 0 0 0 0 0.25 0"/>
<feBlend mode="normal" in2="BackgroundImageFix" result="effect1_dropShadow_180_238"/>
<feBlend mode="normal" in="SourceGraphic" in2="effect1_dropShadow_180_238" result="shape"/>
</filter>
<clipPath id="clip0_180_238">
<rect width="42.3423" height="42.3423" fill="white" transform="translate(133.829 279.829)"/>
</clipPath>
<clipPath id="clip1_180_238">
<rect width="54.9549" height="10.8108" fill="white" transform="translate(242.359 235.135)"/>
</clipPath>
<clipPath id="clip2_180_238">
<rect width="50" height="53" fill="white" transform="translate(246 106)"/>
</clipPath>
<clipPath id="clip3_180_238">
<rect width="42" height="42" fill="white" transform="translate(134 51)"/>
</clipPath>
</defs>
</svg>
