<svg width="309" height="372" viewBox="0 0 309 372" fill="none" xmlns="http://www.w3.org/2000/svg">
<g filter="url(#filter0_d_180_238)">
<path d="M284.779 181.978C284.779 248.967 226.805 303.543 154.946 303.543C83.0872 303.543 25.1135 248.967 25.1135 181.978C25.1135 114.988 83.0872 60.4121 154.946 60.4121C226.805 60.4121 284.779 114.988 284.779 181.978Z" stroke="black" stroke-width="5" shape-rendering="crispEdges"/>
</g>
<g filter="url(#filter1_d_180_238)">
<ellipse cx="37.1633" cy="129.244" rx="34.642" ry="31.7092" fill="#EEE7DB"/>
<path d="M69.3053 129.244C69.3053 145.173 55.1276 158.454 37.1633 158.454C19.199 158.454 5.02124 145.173 5.02124 129.244C5.02124 113.316 19.199 100.035 37.1633 100.035C55.1276 100.035 69.3053 113.316 69.3053 129.244Z" stroke="black" stroke-width="5"/>
</g>
<g clip-path="url(#clip0_180_238)">
<path d="M21.9063 147.065L18.5156 111.4H55.8133L52.4226 147.065L37.1231 151.097" fill="#E34F26"/>
<path d="M37.2058 147.996L49.5281 144.817L52.4226 114.269H37.2058" fill="#EF652A"/>
<path d="M37.2058 127.527H31.0033L30.5898 123.03H37.2058V118.688H37.1231H25.4624L25.5451 119.851L26.7029 131.946H37.2058V127.527ZM37.2058 138.924H37.1231L31.913 137.606L31.5822 134.117H29.1012H26.951L27.5299 141.018L37.1231 143.499H37.2058V138.924Z" fill="#EBEBEB"/>
<path d="M37.123 127.527V131.946H42.912L42.3331 137.606L37.123 138.924V143.499L46.7162 141.018L46.7989 140.242L47.874 128.69L48.0394 127.527H46.7162H37.123ZM37.123 118.688V121.402V123.03H48.4529L48.5356 122.099L48.7837 119.851L48.8664 118.688H37.123Z" fill="white"/>
</g>
<g filter="url(#filter2_d_180_238)">
<ellipse cx="37.1633" cy="238.37" rx="34.642" ry="31.7092" fill="#EEE7DB"/>
<path d="M69.3053 238.37C69.3053 254.298 55.1276 267.579 37.1633 267.579C19.199 267.579 5.02124 254.298 5.02124 238.37C5.02124 222.442 19.199 209.161 37.1633 209.161C55.1276 209.161 69.3053 222.442 69.3053 238.37Z" stroke="black" stroke-width="5"/>
</g>
<g clip-path="url(#clip1_180_238)">
<path d="M21.9358 256.3L18.5381 220.572H55.8734L52.4721 256.295L37.1829 260.269L21.9358 256.3Z" fill="#264DE4"/>
<path d="M49.5602 254.02L52.4669 223.493H37.2058V257.231L49.5602 254.02Z" fill="#2965F1"/>
<path d="M26.3274 236.744L26.7463 241.126H37.2057V236.744H26.3274ZM25.9105 232.257H37.2057V227.875H25.4856L25.9105 232.257ZM37.2057 248.125L37.1852 248.13L31.9798 246.812L31.6471 243.317H26.955L27.6099 250.198L37.1842 252.69L37.2057 252.684V248.125Z" fill="#EBEBEB"/>
<path d="M37.1897 236.744V241.126H42.9452L42.4027 246.809L37.1897 248.128V252.687L46.7716 250.198L46.8419 249.457L47.9402 237.921L48.0543 236.744L48.8981 227.875H37.1897V232.257H43.7758L43.3504 236.744H37.1897Z" fill="white"/>
</g>
<g filter="url(#filter3_d_180_238)">
<ellipse cx="155.224" cy="301.686" rx="38.2883" ry="37.7219" fill="#EEE7DB"/>
<path d="M191.012 301.686C191.012 321.103 175.024 336.908 155.224 336.908C135.423 336.908 119.436 321.103 119.436 301.686C119.436 282.268 135.423 266.464 155.224 266.464C175.024 266.464 191.012 282.268 191.012 301.686Z" stroke="black" stroke-width="5"/>
</g>
<g clip-path="url(#clip2_180_238)">
<path d="M172.26 280.828H138.188C135.904 280.828 134.053 282.679 134.053 284.963V319.035C134.053 321.319 135.904 323.17 138.188 323.17H172.26C174.544 323.17 176.395 321.319 176.395 319.035V284.963C176.395 282.679 174.544 280.828 172.26 280.828Z" fill="#3178C6"/>
<path d="M172.26 280.828H138.188C135.904 280.828 134.053 282.679 134.053 284.963V319.035C134.053 321.319 135.904 323.17 138.188 323.17H172.26C174.544 323.17 176.395 321.319 176.395 319.035V284.963C176.395 282.679 174.544 280.828 172.26 280.828Z" fill="#3178C6"/>
<path fill-rule="evenodd" clip-rule="evenodd" d="M160.264 314.522V318.662C160.937 319.007 161.733 319.265 162.651 319.438C163.57 319.61 164.539 319.697 165.557 319.697C166.549 319.697 167.492 319.602 168.385 319.412C169.278 319.222 170.061 318.91 170.734 318.474C171.407 318.039 171.94 317.469 172.333 316.766C172.725 316.063 172.922 315.194 172.922 314.159C172.922 313.409 172.809 312.751 172.585 312.187C172.361 311.622 172.037 311.119 171.614 310.679C171.192 310.239 170.685 309.845 170.094 309.495C169.503 309.146 168.836 308.816 168.094 308.506C167.55 308.282 167.063 308.064 166.631 307.852C166.2 307.641 165.833 307.425 165.531 307.206C165.229 306.986 164.996 306.753 164.832 306.507C164.668 306.261 164.586 305.983 164.586 305.672C164.586 305.388 164.66 305.131 164.806 304.903C164.953 304.674 165.16 304.478 165.428 304.314C165.695 304.15 166.023 304.023 166.411 303.932C166.8 303.842 167.231 303.797 167.706 303.797C168.051 303.797 168.415 303.822 168.799 303.874C169.183 303.926 169.569 304.006 169.958 304.113C170.346 304.221 170.723 304.357 171.09 304.521C171.457 304.685 171.796 304.875 172.106 305.09V301.222C171.476 300.98 170.788 300.801 170.042 300.685C169.295 300.569 168.439 300.51 167.473 300.51C166.489 300.51 165.557 300.616 164.677 300.827C163.797 301.039 163.023 301.369 162.354 301.817C161.685 302.266 161.157 302.837 160.768 303.531C160.38 304.226 160.186 305.056 160.186 306.022C160.186 307.255 160.542 308.307 161.254 309.179C161.965 310.05 163.046 310.787 164.496 311.391C165.065 311.624 165.596 311.852 166.088 312.077C166.58 312.301 167.005 312.534 167.363 312.775C167.721 313.017 168.003 313.28 168.21 313.564C168.418 313.849 168.521 314.172 168.521 314.535C168.521 314.802 168.456 315.05 168.327 315.279C168.197 315.507 168.001 315.705 167.738 315.874C167.475 316.042 167.147 316.173 166.754 316.268C166.362 316.363 165.902 316.411 165.376 316.411C164.479 316.411 163.59 316.253 162.71 315.938C161.83 315.624 161.014 315.151 160.264 314.522ZM153.304 304.321H158.615V300.924H143.811V304.321H149.096V319.449H153.304V304.321Z" fill="white"/>
</g>
<g filter="url(#filter4_d_180_238)">
<ellipse cx="267.879" cy="240.319" rx="34.642" ry="31.7092" fill="#EEE7DB"/>
<path d="M300.021 240.319C300.021 256.247 285.844 269.528 267.879 269.528C249.915 269.528 235.737 256.247 235.737 240.319C235.737 224.391 249.915 211.11 267.879 211.11C285.844 211.11 300.021 224.391 300.021 240.319Z" stroke="black" stroke-width="5"/>
</g>
<g clip-path="url(#clip3_180_238)">
<path d="M276.891 235.14H286.464V236.851H282.666V245.857H280.768V236.851H276.891V235.14Z" fill="black"/>
<path d="M261.149 235.14V236.851H253.476V239.605H259.646V241.317H253.476V244.145H261.149V245.857H251.577V236.851H251.577V235.14H261.149Z" fill="black"/>
<path d="M265.929 235.144H263.444L272.343 245.861H274.835L270.385 240.506L274.828 235.152L272.343 235.156L269.141 239.01L265.929 235.144Z" fill="black"/>
<path d="M268.478 242.799L267.234 241.3L263.437 245.869H265.929L268.478 242.799Z" fill="black"/>
<path fill-rule="evenodd" clip-rule="evenodd" d="M251.644 245.857L242.732 235.135H240.359V245.852H242.258V237.426L249.259 245.857H251.644Z" fill="black"/>
<path d="M286.891 245.791C286.752 245.791 286.633 245.745 286.534 245.651C286.435 245.558 286.386 245.445 286.387 245.311C286.386 245.181 286.435 245.069 286.534 244.976C286.633 244.882 286.752 244.836 286.891 244.836C287.024 244.836 287.141 244.882 287.24 244.976C287.341 245.069 287.391 245.181 287.392 245.311C287.391 245.399 287.368 245.48 287.321 245.553C287.274 245.627 287.213 245.684 287.137 245.726C287.063 245.769 286.981 245.791 286.891 245.791Z" fill="black"/>
<path d="M290.131 241.276H290.972V244.417C290.971 244.705 290.907 244.952 290.781 245.16C290.653 245.367 290.477 245.526 290.251 245.638C290.026 245.748 289.762 245.805 289.462 245.805C289.188 245.805 288.942 245.757 288.724 245.663C288.505 245.57 288.331 245.43 288.204 245.246C288.075 245.062 288.012 244.832 288.012 244.557H288.855C288.856 244.677 288.885 244.782 288.938 244.869C288.992 244.956 289.067 245.022 289.162 245.069C289.259 245.116 289.369 245.139 289.494 245.139C289.629 245.139 289.745 245.112 289.839 245.057C289.933 245.003 290.005 244.922 290.055 244.814C290.104 244.707 290.13 244.574 290.131 244.417V241.276Z" fill="black"/>
<path d="M294.434 242.505C294.414 242.314 294.324 242.166 294.167 242.06C294.008 241.953 293.804 241.9 293.553 241.9C293.377 241.9 293.225 241.926 293.099 241.976C292.973 242.028 292.875 242.097 292.808 242.184C292.741 242.271 292.708 242.371 292.705 242.482C292.705 242.576 292.728 242.657 292.773 242.724C292.818 242.793 292.879 242.851 292.957 242.898C293.034 242.945 293.121 242.985 293.215 243.017C293.31 243.049 293.405 243.076 293.5 243.098L293.939 243.202C294.115 243.241 294.286 243.294 294.45 243.362C294.613 243.428 294.761 243.513 294.891 243.615C295.021 243.717 295.124 243.84 295.2 243.983C295.275 244.127 295.314 244.295 295.314 244.489C295.314 244.751 295.245 244.981 295.104 245.179C294.964 245.377 294.762 245.532 294.497 245.644C294.233 245.754 293.914 245.811 293.539 245.811C293.176 245.811 292.86 245.757 292.593 245.649C292.326 245.542 292.117 245.385 291.967 245.178C291.816 244.972 291.735 244.72 291.724 244.424H292.557C292.569 244.579 292.62 244.708 292.708 244.812C292.797 244.915 292.912 244.992 293.054 245.043C293.197 245.094 293.356 245.119 293.532 245.119C293.716 245.119 293.878 245.092 294.019 245.039C294.158 244.987 294.267 244.913 294.345 244.817C294.425 244.723 294.465 244.611 294.466 244.483C294.465 244.366 294.429 244.269 294.36 244.193C294.289 244.117 294.191 244.053 294.066 244.002C293.94 243.95 293.794 243.903 293.626 243.863L293.094 243.733C292.709 243.638 292.404 243.494 292.182 243.302C291.958 243.109 291.847 242.853 291.847 242.533C291.847 242.27 291.922 242.039 292.072 241.841C292.221 241.644 292.426 241.49 292.685 241.381C292.944 241.27 293.238 241.216 293.564 241.216C293.896 241.216 294.187 241.27 294.438 241.381C294.689 241.49 294.886 241.642 295.028 241.836C295.171 242.03 295.246 242.253 295.25 242.505H294.434Z" fill="black"/>
</g>
<g filter="url(#filter5_d_180_238)">
<ellipse cx="267.879" cy="129.244" rx="34.642" ry="31.7092" fill="#EEE7DB"/>
<path d="M300.021 129.244C300.021 145.173 285.844 158.454 267.879 158.454C249.915 158.454 235.737 145.173 235.737 129.244C235.737 113.316 249.915 100.035 267.879 100.035C285.844 100.035 300.021 113.316 300.021 129.244Z" stroke="black" stroke-width="5"/>
</g>
<g clip-path="url(#clip4_180_238)">
<path d="M268.287 133.47C270.509 133.47 272.309 131.669 272.309 129.447C272.309 127.226 270.509 125.425 268.287 125.425C266.066 125.425 264.265 127.226 264.265 129.447C264.265 131.669 266.066 133.47 268.287 133.47Z" fill="#00D8FF"/>
<path fill-rule="evenodd" clip-rule="evenodd" d="M268.287 121.269C273.688 121.269 278.705 122.044 282.488 123.346C287.045 124.915 289.848 127.294 289.848 129.447C289.848 131.691 286.878 134.218 281.983 135.84C278.283 137.066 273.414 137.706 268.287 137.706C263.031 137.706 258.054 137.105 254.312 135.826C249.577 134.208 246.726 131.649 246.726 129.447C246.726 127.311 249.401 124.951 253.895 123.384C257.692 122.06 262.833 121.269 268.286 121.269H268.287Z" stroke="#00D8FF" stroke-width="2.73408"/>
<path fill-rule="evenodd" clip-rule="evenodd" d="M261.167 125.382C263.866 120.703 267.043 116.744 270.061 114.118C273.697 110.953 277.158 109.714 279.023 110.79C280.967 111.911 281.672 115.746 280.632 120.796C279.846 124.614 277.967 129.152 275.406 133.593C272.78 138.146 269.774 142.158 266.797 144.76C263.03 148.053 259.388 149.244 257.481 148.144C255.63 147.078 254.923 143.581 255.811 138.905C256.561 134.955 258.443 130.106 261.167 125.382L261.167 125.382Z" stroke="#00D8FF" stroke-width="2.73408"/>
<path fill-rule="evenodd" clip-rule="evenodd" d="M261.174 133.605C258.469 128.932 256.627 124.201 255.858 120.275C254.932 115.544 255.586 111.927 257.45 110.848C259.393 109.724 263.067 111.028 266.923 114.451C269.838 117.04 272.831 120.933 275.4 125.37C278.033 129.919 280.007 134.527 280.775 138.406C281.746 143.314 280.96 147.064 279.055 148.167C277.206 149.237 273.823 148.104 270.216 145C267.168 142.377 263.907 138.324 261.174 133.605V133.605Z" stroke="#00D8FF" stroke-width="2.73408"/>
</g>
<g filter="url(#filter6_d_180_238)">
<ellipse cx="152.521" cy="69.2534" rx="38.2883" ry="37.7219" fill="#EEE7DB"/>
<path d="M188.309 69.2534C188.309 88.6709 172.322 104.475 152.521 104.475C132.721 104.475 116.733 88.6709 116.733 69.2534C116.733 49.8359 132.721 34.0315 152.521 34.0315C172.322 34.0315 188.309 49.8359 188.309 69.2534Z" stroke="black" stroke-width="5"/>
</g>
<g clip-path="url(#clip5_180_238)">
<path d="M173.928 48.3955H131.585V90.7378H173.928V48.3955Z" fill="#F7DF1E"/>
<path d="M160.029 81.4757C160.882 82.8683 161.991 83.8919 163.954 83.8919C165.602 83.8919 166.656 83.0679 166.656 81.9293C166.656 80.565 165.573 80.0817 163.759 79.288L162.764 78.8612C159.893 77.638 157.985 76.1056 157.985 72.8661C157.985 69.8819 160.259 67.6102 163.813 67.6102C166.342 67.6102 168.161 68.4907 169.472 70.796L166.373 72.7854C165.691 71.5622 164.955 71.0803 163.813 71.0803C162.647 71.0803 161.908 71.8196 161.908 72.7854C161.908 73.9791 162.648 74.4623 164.355 75.2016L165.35 75.6277C168.73 77.0774 170.639 78.5554 170.639 81.8783C170.639 85.4605 167.825 87.4231 164.046 87.4231C160.351 87.4231 157.963 85.6622 156.795 83.3542L160.029 81.4757ZM145.973 81.8205C146.598 82.9294 147.167 83.867 148.534 83.867C149.841 83.867 150.666 83.3555 150.666 81.3668V67.8374H154.644V81.4206C154.644 85.5405 152.229 87.4157 148.703 87.4157C145.517 87.4157 143.672 85.767 142.734 83.7813L145.973 81.8205Z" fill="black"/>
</g>
<path d="M124.181 354.748H120.645V353.548H129.253V354.748H125.701V364.748H124.181V354.748ZM136.112 357.228V365.644C136.112 366.582 135.862 367.27 135.36 367.708C134.859 368.156 134.075 368.38 133.008 368.38H131.024V367.292H133.008C133.584 367.292 134.011 367.153 134.288 366.876C134.566 366.609 134.704 366.193 134.704 365.628V363.564C134.192 364.47 133.36 364.924 132.208 364.924C131.398 364.924 130.763 364.694 130.304 364.236C129.856 363.766 129.632 363.116 129.632 362.284V358.924C129.632 358.7 129.59 358.518 129.504 358.38C129.419 358.23 129.264 358.065 129.04 357.884L129.984 357.052C130.379 357.265 130.651 357.51 130.8 357.788C130.96 358.054 131.04 358.433 131.04 358.924V362.172C131.04 362.694 131.174 363.1 131.44 363.388C131.718 363.665 132.102 363.804 132.592 363.804C133.168 363.804 133.648 363.606 134.032 363.212C134.416 362.806 134.64 362.305 134.704 361.708V357.228H136.112ZM141.959 357.052C142.663 357.052 143.26 357.222 143.751 357.564C144.252 357.894 144.626 358.342 144.871 358.908C145.116 359.462 145.239 360.07 145.239 360.732V361.244C145.239 361.905 145.116 362.518 144.871 363.084C144.626 363.638 144.252 364.086 143.751 364.428C143.26 364.758 142.663 364.924 141.959 364.924C141.319 364.924 140.807 364.822 140.423 364.62C140.05 364.406 139.746 364.124 139.511 363.772V368.252H138.103V358.908C138.103 358.684 138.06 358.502 137.975 358.364C137.89 358.214 137.735 358.054 137.511 357.884L138.439 357.052C138.748 357.222 138.978 357.404 139.127 357.596C139.287 357.788 139.388 358.028 139.431 358.316C139.986 357.473 140.828 357.052 141.959 357.052ZM143.831 360.732C143.831 359.974 143.628 359.356 143.223 358.876C142.828 358.396 142.295 358.156 141.623 358.156C140.535 358.156 139.831 358.684 139.511 359.74V362.236C139.831 363.292 140.535 363.82 141.623 363.82C142.295 363.82 142.828 363.58 143.223 363.1C143.628 362.62 143.831 362.001 143.831 361.244V360.732ZM150.281 363.836C150.718 363.836 151.092 363.772 151.401 363.644C151.721 363.516 152.03 363.308 152.329 363.02L153.193 363.804C152.873 364.188 152.473 364.47 151.993 364.652C151.524 364.833 150.942 364.924 150.249 364.924C149.15 364.924 148.318 364.689 147.753 364.22C147.198 363.74 146.921 363.03 146.921 362.092V359.708C146.921 358.886 147.204 358.241 147.769 357.772C148.345 357.292 149.129 357.052 150.121 357.052C151.145 357.052 151.934 357.302 152.489 357.804C153.054 358.305 153.337 359.025 153.337 359.964C153.337 360.593 153.225 361.025 153.001 361.26C152.788 361.494 152.372 361.612 151.753 361.612H148.329V362.108C148.329 362.684 148.489 363.116 148.809 363.404C149.129 363.692 149.62 363.836 150.281 363.836ZM150.121 358.14C149.556 358.14 149.113 358.289 148.793 358.588C148.484 358.886 148.329 359.292 148.329 359.804V360.604H151.065C151.396 360.604 151.62 360.55 151.737 360.444C151.865 360.337 151.929 360.134 151.929 359.836C151.929 359.302 151.769 358.886 151.449 358.588C151.129 358.289 150.686 358.14 150.121 358.14ZM158.875 364.924C157.851 364.924 157.024 364.769 156.395 364.46C155.776 364.15 155.195 363.638 154.651 362.924L155.675 362.044C156.123 362.662 156.581 363.1 157.051 363.356C157.52 363.601 158.112 363.724 158.827 363.724C159.776 363.724 160.496 363.558 160.987 363.228C161.488 362.886 161.739 362.39 161.739 361.74C161.739 361.366 161.637 361.062 161.435 360.828C161.243 360.593 160.901 360.39 160.411 360.22C159.92 360.038 159.195 359.852 158.235 359.66C157.157 359.446 156.363 359.084 155.851 358.572C155.339 358.06 155.083 357.382 155.083 356.54C155.083 355.558 155.435 354.785 156.139 354.22C156.853 353.654 157.829 353.372 159.067 353.372C160.891 353.372 162.181 353.974 162.939 355.18L161.915 356.012C161.541 355.532 161.125 355.174 160.667 354.94C160.219 354.694 159.68 354.572 159.051 354.572C158.283 354.572 157.68 354.748 157.243 355.1C156.816 355.441 156.603 355.91 156.603 356.508C156.603 357.041 156.816 357.462 157.243 357.772C157.669 358.07 158.315 358.305 159.179 358.476C160.171 358.678 160.955 358.902 161.531 359.148C162.107 359.393 162.539 359.718 162.827 360.124C163.115 360.529 163.259 361.062 163.259 361.724C163.259 362.78 162.885 363.58 162.139 364.124C161.403 364.657 160.315 364.924 158.875 364.924ZM168.155 364.924C167.078 364.924 166.251 364.678 165.675 364.188C165.11 363.697 164.827 362.993 164.827 362.076V359.9C164.827 358.993 165.115 358.294 165.691 357.804C166.278 357.302 167.105 357.052 168.171 357.052C169.451 357.052 170.406 357.462 171.035 358.284L170.075 359.084C169.777 358.742 169.489 358.502 169.211 358.364C168.934 358.225 168.587 358.156 168.171 358.156C167.553 358.156 167.073 358.31 166.731 358.62C166.401 358.918 166.235 359.345 166.235 359.9V362.076C166.235 362.63 166.401 363.062 166.731 363.372C167.062 363.67 167.537 363.82 168.155 363.82C168.593 363.82 168.961 363.745 169.259 363.596C169.569 363.446 169.851 363.212 170.107 362.892L171.067 363.692C170.758 364.108 170.369 364.417 169.899 364.62C169.43 364.822 168.849 364.924 168.155 364.924ZM176.675 357.052C177.134 357.052 177.518 357.164 177.827 357.388L177.475 358.62C177.113 358.406 176.729 358.3 176.323 358.3C175.843 358.3 175.433 358.502 175.091 358.908C174.75 359.313 174.499 359.857 174.339 360.54V364.748H172.931V358.908C172.931 358.684 172.889 358.502 172.803 358.364C172.718 358.214 172.563 358.054 172.339 357.884L173.283 357.052C173.657 357.254 173.918 357.478 174.067 357.724C174.227 357.958 174.318 358.289 174.339 358.716C174.574 358.193 174.889 357.788 175.283 357.5C175.678 357.201 176.142 357.052 176.675 357.052ZM180.042 355.756C179.797 355.756 179.584 355.67 179.402 355.5C179.232 355.318 179.146 355.105 179.146 354.86C179.146 354.614 179.232 354.406 179.402 354.236C179.584 354.054 179.797 353.964 180.042 353.964C180.288 353.964 180.496 354.054 180.666 354.236C180.848 354.406 180.938 354.614 180.938 354.86C180.938 355.105 180.848 355.318 180.666 355.5C180.496 355.67 180.288 355.756 180.042 355.756ZM180.394 364.924C180 364.71 179.722 364.47 179.562 364.204C179.413 363.926 179.338 363.548 179.338 363.068V357.228H180.746V363.068C180.746 363.292 180.789 363.478 180.874 363.628C180.96 363.766 181.114 363.921 181.338 364.092L180.394 364.924ZM187.225 357.052C187.929 357.052 188.526 357.222 189.017 357.564C189.518 357.894 189.891 358.342 190.137 358.908C190.382 359.462 190.505 360.07 190.505 360.732V361.244C190.505 361.905 190.382 362.518 190.137 363.084C189.891 363.638 189.518 364.086 189.017 364.428C188.526 364.758 187.929 364.924 187.225 364.924C186.585 364.924 186.073 364.822 185.689 364.62C185.315 364.406 185.011 364.124 184.777 363.772V368.252H183.369V358.908C183.369 358.684 183.326 358.502 183.241 358.364C183.155 358.214 183.001 358.054 182.777 357.884L183.705 357.052C184.014 357.222 184.243 357.404 184.393 357.596C184.553 357.788 184.654 358.028 184.697 358.316C185.251 357.473 186.094 357.052 187.225 357.052ZM189.097 360.732C189.097 359.974 188.894 359.356 188.489 358.876C188.094 358.396 187.561 358.156 186.889 358.156C185.801 358.156 185.097 358.684 184.777 359.74V362.236C185.097 363.292 185.801 363.82 186.889 363.82C187.561 363.82 188.094 363.58 188.489 363.1C188.894 362.62 189.097 362.001 189.097 361.244V360.732ZM193.79 358.332V362.364C193.79 362.822 193.881 363.164 194.062 363.388C194.244 363.601 194.532 363.708 194.926 363.708H195.95V364.812H194.926C194.02 364.812 193.369 364.62 192.974 364.236C192.58 363.852 192.382 363.228 192.382 362.364V355.676C192.382 355.452 192.34 355.27 192.254 355.132C192.169 354.982 192.014 354.822 191.79 354.652L192.734 353.82C193.129 354.033 193.401 354.278 193.55 354.556C193.71 354.822 193.79 355.196 193.79 355.676V357.228H195.95V358.332H193.79Z" fill="black"/>
<path d="M105.813 172.23C105.813 170.251 106.336 168.786 107.381 167.834C108.445 166.863 110.069 166.378 112.253 166.378H119.001V168.002H112.253C110.741 168.002 109.621 168.347 108.893 169.038C108.184 169.728 107.829 170.792 107.829 172.23V175.926H117.573V177.55H107.829V185.978H105.813V172.23ZM128.365 172.51C129.055 172.51 129.662 172.678 130.185 173.014L129.681 174.722C129.139 174.404 128.542 174.246 127.889 174.246C126.974 174.246 126.171 174.675 125.481 175.534C124.79 176.392 124.295 177.578 123.997 179.09V185.978H122.121V175.198C122.121 174.862 122.055 174.591 121.925 174.386C121.813 174.162 121.589 173.91 121.253 173.63L122.513 172.51C123.073 172.827 123.455 173.191 123.661 173.602C123.885 173.994 123.997 174.544 123.997 175.254V175.982C124.426 174.88 125.014 174.031 125.761 173.434C126.526 172.818 127.394 172.51 128.365 172.51ZM137.301 186.286C135.546 186.286 134.174 185.847 133.185 184.97C132.214 184.074 131.729 182.823 131.729 181.218V177.578C131.729 175.972 132.214 174.731 133.185 173.854C134.174 172.958 135.546 172.51 137.301 172.51C139.055 172.51 140.418 172.958 141.389 173.854C142.378 174.731 142.873 175.972 142.873 177.578V181.218C142.873 182.823 142.378 184.074 141.389 184.97C140.418 185.847 139.055 186.286 137.301 186.286ZM137.301 184.774C138.477 184.774 139.382 184.466 140.017 183.85C140.67 183.234 140.997 182.356 140.997 181.218V177.578C140.997 176.439 140.67 175.562 140.017 174.946C139.382 174.33 138.477 174.022 137.301 174.022C136.125 174.022 135.21 174.33 134.557 174.946C133.922 175.562 133.605 176.439 133.605 177.578V181.218C133.605 182.356 133.922 183.234 134.557 183.85C135.21 184.466 136.125 184.774 137.301 184.774ZM153.336 172.51C154.661 172.51 155.697 172.911 156.444 173.714C157.191 174.498 157.564 175.59 157.564 176.99V185.978H155.688V177.27C155.688 176.243 155.436 175.45 154.932 174.89C154.447 174.311 153.765 174.022 152.888 174.022C151.88 174.022 151.003 174.395 150.256 175.142C149.528 175.888 149.005 176.906 148.688 178.194V185.978H146.812V175.198C146.812 174.862 146.747 174.591 146.616 174.386C146.504 174.162 146.28 173.91 145.944 173.63L147.176 172.51C147.755 172.827 148.147 173.191 148.352 173.602C148.576 173.994 148.688 174.544 148.688 175.254V175.506C149.155 174.535 149.78 173.798 150.564 173.294C151.367 172.771 152.291 172.51 153.336 172.51ZM163.532 174.33V182.17C163.532 183.831 164.26 184.662 165.716 184.662H167.312V186.146H165.716C164.316 186.146 163.29 185.828 162.636 185.194C161.983 184.54 161.656 183.532 161.656 182.17V169.766C161.656 169.43 161.591 169.159 161.46 168.954C161.348 168.73 161.124 168.478 160.788 168.198L162.048 167.078C162.608 167.395 162.991 167.759 163.196 168.17C163.42 168.562 163.532 169.112 163.532 169.822V172.818H167.312V174.33H163.532ZM175.778 184.774C176.581 184.774 177.29 184.652 177.906 184.41C178.522 184.167 179.092 183.775 179.614 183.234L180.79 184.326C180.193 184.998 179.484 185.492 178.662 185.81C177.841 186.127 176.842 186.286 175.666 186.286C173.874 186.286 172.474 185.866 171.466 185.026C170.477 184.167 169.982 182.972 169.982 181.442V177.186C169.982 175.748 170.468 174.619 171.438 173.798C172.428 172.958 173.781 172.538 175.498 172.538C177.253 172.538 178.597 172.976 179.53 173.854C180.482 174.731 180.958 175.972 180.958 177.578C180.958 178.604 180.762 179.314 180.37 179.706C179.997 180.079 179.288 180.266 178.242 180.266H171.858V181.442C171.858 182.562 172.176 183.402 172.81 183.962C173.464 184.503 174.453 184.774 175.778 184.774ZM175.47 174.022C174.35 174.022 173.464 174.32 172.81 174.918C172.176 175.496 171.858 176.29 171.858 177.298V178.894H177.458C178.093 178.894 178.522 178.791 178.746 178.586C178.97 178.362 179.082 177.951 179.082 177.354C179.082 176.308 178.765 175.496 178.13 174.918C177.496 174.32 176.609 174.022 175.47 174.022ZM191.016 172.51C192.341 172.51 193.377 172.911 194.124 173.714C194.87 174.498 195.244 175.59 195.244 176.99V185.978H193.368V177.27C193.368 176.243 193.116 175.45 192.612 174.89C192.126 174.311 191.445 174.022 190.568 174.022C189.56 174.022 188.682 174.395 187.936 175.142C187.208 175.888 186.685 176.906 186.368 178.194V185.978H184.492V175.198C184.492 174.862 184.426 174.591 184.296 174.386C184.184 174.162 183.96 173.91 183.624 173.63L184.856 172.51C185.434 172.827 185.826 173.191 186.032 173.602C186.256 173.994 186.368 174.544 186.368 175.254V175.506C186.834 174.535 187.46 173.798 188.244 173.294C189.046 172.771 189.97 172.51 191.016 172.51ZM210.62 183.598C210.62 183.934 210.676 184.214 210.788 184.438C210.919 184.643 211.152 184.886 211.488 185.166L210.256 186.286C209.789 186.024 209.444 185.688 209.22 185.278C208.996 184.848 208.865 184.41 208.828 183.962C207.857 185.511 206.373 186.286 204.376 186.286C203.219 186.286 202.201 186.024 201.324 185.502C200.465 184.96 199.793 184.204 199.308 183.234C198.841 182.263 198.608 181.134 198.608 179.846V178.95C198.608 177.662 198.841 176.532 199.308 175.562C199.793 174.591 200.465 173.844 201.324 173.322C202.201 172.78 203.219 172.51 204.376 172.51C205.328 172.51 206.177 172.696 206.924 173.07C207.689 173.443 208.296 173.975 208.744 174.666V168.394C208.744 168.058 208.688 167.787 208.576 167.582C208.464 167.376 208.231 167.115 207.876 166.798L209.164 165.706C209.705 166.004 210.079 166.359 210.284 166.77C210.508 167.18 210.62 167.74 210.62 168.45V183.598ZM208.744 177.046C208.427 176.038 207.941 175.282 207.288 174.778C206.635 174.274 205.767 174.022 204.684 174.022C203.415 174.022 202.397 174.47 201.632 175.366C200.867 176.262 200.484 177.456 200.484 178.95V179.846C200.484 181.339 200.867 182.534 201.632 183.43C202.397 184.326 203.415 184.774 204.684 184.774C205.767 184.774 206.635 184.522 207.288 184.018C207.941 183.514 208.427 182.758 208.744 181.75V177.046Z" fill="black"/>
<path d="M259.109 82.246H257.493L256.741 79.494C256.591 78.9606 256.426 78.5446 256.245 78.246C256.074 77.9473 255.834 77.7233 255.525 77.574C255.215 77.4246 254.794 77.35 254.261 77.35H252.005V82.246H250.485V71.046H255.189C256.341 71.046 257.205 71.3126 257.781 71.846C258.367 72.3686 258.661 73.1366 258.661 74.15C258.661 74.9286 258.469 75.5526 258.085 76.022C257.711 76.4913 257.178 76.7846 256.485 76.902C256.975 77.0726 257.354 77.366 257.621 77.782C257.887 78.198 258.127 78.774 258.341 79.51L259.109 82.246ZM255.125 76.15C255.743 76.15 256.234 75.9846 256.597 75.654C256.959 75.3126 257.141 74.8273 257.141 74.198C257.141 73.5686 256.959 73.0886 256.597 72.758C256.245 72.4166 255.754 72.246 255.125 72.246H252.005V76.15H255.125ZM263.971 81.334C264.409 81.334 264.782 81.27 265.091 81.142C265.411 81.014 265.721 80.806 266.019 80.518L266.883 81.302C266.563 81.686 266.163 81.9686 265.683 82.15C265.214 82.3313 264.633 82.422 263.939 82.422C262.841 82.422 262.009 82.1873 261.443 81.718C260.889 81.238 260.611 80.5286 260.611 79.59V77.206C260.611 76.3846 260.894 75.7393 261.459 75.27C262.035 74.79 262.819 74.55 263.811 74.55C264.835 74.55 265.625 74.8006 266.179 75.302C266.745 75.8033 267.027 76.5233 267.027 77.462C267.027 78.0913 266.915 78.5233 266.691 78.758C266.478 78.9926 266.062 79.11 265.443 79.11H262.019V79.606C262.019 80.182 262.179 80.614 262.499 80.902C262.819 81.19 263.31 81.334 263.971 81.334ZM263.811 75.638C263.246 75.638 262.803 75.7873 262.483 76.086C262.174 76.3846 262.019 76.79 262.019 77.302V78.102H264.755C265.086 78.102 265.31 78.0486 265.427 77.942C265.555 77.8353 265.619 77.6326 265.619 77.334C265.619 76.8006 265.459 76.3846 265.139 76.086C264.819 75.7873 264.377 75.638 263.811 75.638ZM274.871 80.566C274.871 80.79 274.913 80.9766 274.999 81.126C275.084 81.2646 275.239 81.4193 275.463 81.59L274.519 82.422C273.975 82.1446 273.644 81.75 273.527 81.238C273.271 81.6006 272.913 81.8886 272.455 82.102C272.007 82.3153 271.489 82.422 270.903 82.422C270.103 82.422 269.484 82.2353 269.047 81.862C268.609 81.478 268.391 80.9286 268.391 80.214C268.391 79.478 268.647 78.9286 269.159 78.566C269.671 78.2033 270.375 77.974 271.271 77.878L272.359 77.75C272.817 77.6966 273.116 77.6166 273.255 77.51C273.404 77.3926 273.473 77.1953 273.463 76.918C273.42 76.502 273.249 76.1713 272.951 75.926C272.663 75.6806 272.22 75.558 271.623 75.558C271.185 75.558 270.812 75.6326 270.503 75.782C270.193 75.9206 269.911 76.15 269.655 76.47L268.695 75.782C268.961 75.3766 269.329 75.0726 269.799 74.87C270.279 74.6566 270.887 74.55 271.623 74.55C272.7 74.55 273.511 74.774 274.055 75.222C274.599 75.67 274.871 76.3206 274.871 77.174V80.566ZM271.239 81.382C271.911 81.382 272.449 81.206 272.855 80.854C273.271 80.502 273.479 80.054 273.479 79.51V78.438C273.233 78.5766 272.855 78.6673 272.343 78.71L271.399 78.806C270.289 78.934 269.735 79.3873 269.735 80.166C269.735 80.5606 269.863 80.8646 270.119 81.078C270.375 81.2806 270.748 81.382 271.239 81.382ZM280.158 82.422C279.081 82.422 278.254 82.1766 277.678 81.686C277.113 81.1953 276.83 80.4913 276.83 79.574V77.398C276.83 76.4913 277.118 75.7926 277.694 75.302C278.281 74.8006 279.108 74.55 280.174 74.55C281.454 74.55 282.409 74.9606 283.038 75.782L282.078 76.582C281.78 76.2406 281.492 76.0006 281.214 75.862C280.937 75.7233 280.59 75.654 280.174 75.654C279.556 75.654 279.076 75.8086 278.734 76.118C278.404 76.4166 278.238 76.8433 278.238 77.398V79.574C278.238 80.1286 278.404 80.5606 278.734 80.87C279.065 81.1686 279.54 81.318 280.158 81.318C280.596 81.318 280.964 81.2433 281.262 81.094C281.572 80.9446 281.854 80.71 282.11 80.39L283.07 81.19C282.761 81.606 282.372 81.9153 281.902 82.118C281.433 82.3206 280.852 82.422 280.158 82.422ZM286.184 75.83V79.862C286.184 80.3206 286.275 80.662 286.456 80.886C286.637 81.0993 286.925 81.206 287.32 81.206H288.344V82.31H287.32C286.413 82.31 285.763 82.118 285.368 81.734C284.973 81.35 284.776 80.726 284.776 79.862V73.174C284.776 72.95 284.733 72.7686 284.648 72.63C284.563 72.4806 284.408 72.3206 284.184 72.15L285.128 71.318C285.523 71.5313 285.795 71.7766 285.944 72.054C286.104 72.3206 286.184 72.694 286.184 73.174V74.726H288.344V75.83H286.184Z" fill="black"/>
<path d="M118.474 17.176C117.728 17.176 117.109 17.064 116.618 16.84C116.138 16.616 115.68 16.2533 115.242 15.752L116.138 14.824C116.458 15.24 116.794 15.5387 117.146 15.72C117.498 15.8907 117.93 15.976 118.442 15.976C119.2 15.976 119.776 15.7947 120.17 15.432C120.565 15.0587 120.762 14.5253 120.762 13.832V5.8H122.282V13.848C122.282 14.9253 121.957 15.752 121.306 16.328C120.656 16.8933 119.712 17.176 118.474 17.176ZM130.637 15.32C130.637 15.544 130.68 15.7307 130.765 15.88C130.851 16.0187 131.005 16.1733 131.229 16.344L130.285 17.176C129.741 16.8987 129.411 16.504 129.293 15.992C129.037 16.3547 128.68 16.6427 128.221 16.856C127.773 17.0693 127.256 17.176 126.669 17.176C125.869 17.176 125.251 16.9893 124.813 16.616C124.376 16.232 124.157 15.6827 124.157 14.968C124.157 14.232 124.413 13.6827 124.925 13.32C125.437 12.9573 126.141 12.728 127.037 12.632L128.125 12.504C128.584 12.4507 128.883 12.3707 129.021 12.264C129.171 12.1467 129.24 11.9493 129.229 11.672C129.187 11.256 129.016 10.9253 128.717 10.68C128.429 10.4347 127.987 10.312 127.389 10.312C126.952 10.312 126.579 10.3867 126.269 10.536C125.96 10.6747 125.677 10.904 125.421 11.224L124.461 10.536C124.728 10.1307 125.096 9.82667 125.565 9.624C126.045 9.41067 126.653 9.304 127.389 9.304C128.467 9.304 129.277 9.528 129.821 9.976C130.365 10.424 130.637 11.0747 130.637 11.928V15.32ZM127.005 16.136C127.677 16.136 128.216 15.96 128.621 15.608C129.037 15.256 129.245 14.808 129.245 14.264V13.192C129 13.3307 128.621 13.4213 128.109 13.464L127.165 13.56C126.056 13.688 125.501 14.1413 125.501 14.92C125.501 15.3147 125.629 15.6187 125.885 15.832C126.141 16.0347 126.515 16.136 127.005 16.136ZM135.526 17.176C135.067 17.176 134.704 17.048 134.438 16.792C134.171 16.536 133.942 16.0933 133.75 15.464L131.91 9.48H133.27L135.046 15.368C135.131 15.656 135.2 15.848 135.254 15.944C135.318 16.0293 135.403 16.072 135.51 16.072C135.616 16.072 135.696 16.0293 135.75 15.944C135.814 15.848 135.888 15.656 135.974 15.368L137.734 9.48H139.11L137.286 15.464C137.094 16.0933 136.864 16.536 136.598 16.792C136.342 17.048 135.984 17.176 135.526 17.176ZM146.481 15.32C146.481 15.544 146.524 15.7307 146.609 15.88C146.694 16.0187 146.849 16.1733 147.073 16.344L146.129 17.176C145.585 16.8987 145.254 16.504 145.137 15.992C144.881 16.3547 144.524 16.6427 144.065 16.856C143.617 17.0693 143.1 17.176 142.513 17.176C141.713 17.176 141.094 16.9893 140.657 16.616C140.22 16.232 140.001 15.6827 140.001 14.968C140.001 14.232 140.257 13.6827 140.769 13.32C141.281 12.9573 141.985 12.728 142.881 12.632L143.969 12.504C144.428 12.4507 144.726 12.3707 144.865 12.264C145.014 12.1467 145.084 11.9493 145.073 11.672C145.03 11.256 144.86 10.9253 144.561 10.68C144.273 10.4347 143.83 10.312 143.233 10.312C142.796 10.312 142.422 10.3867 142.113 10.536C141.804 10.6747 141.521 10.904 141.265 11.224L140.305 10.536C140.572 10.1307 140.94 9.82667 141.409 9.624C141.889 9.41067 142.497 9.304 143.233 9.304C144.31 9.304 145.121 9.528 145.665 9.976C146.209 10.424 146.481 11.0747 146.481 11.928V15.32ZM142.849 16.136C143.521 16.136 144.06 15.96 144.465 15.608C144.881 15.256 145.089 14.808 145.089 14.264V13.192C144.844 13.3307 144.465 13.4213 143.953 13.464L143.009 13.56C141.9 13.688 141.345 14.1413 141.345 14.92C141.345 15.3147 141.473 15.6187 141.729 15.832C141.985 16.0347 142.358 16.136 142.849 16.136ZM152.566 17.176C151.542 17.176 150.715 17.0213 150.086 16.712C149.467 16.4027 148.886 15.8907 148.342 15.176L149.366 14.296C149.814 14.9147 150.272 15.352 150.742 15.608C151.211 15.8533 151.803 15.976 152.518 15.976C153.467 15.976 154.187 15.8107 154.678 15.48C155.179 15.1387 155.43 14.6427 155.43 13.992C155.43 13.6187 155.328 13.3147 155.126 13.08C154.934 12.8453 154.592 12.6427 154.102 12.472C153.611 12.2907 152.886 12.104 151.926 11.912C150.848 11.6987 150.054 11.336 149.542 10.824C149.03 10.312 148.774 9.63467 148.774 8.792C148.774 7.81067 149.126 7.03733 149.83 6.472C150.544 5.90667 151.52 5.624 152.758 5.624C154.582 5.624 155.872 6.22667 156.63 7.432L155.606 8.264C155.232 7.784 154.816 7.42667 154.358 7.192C153.91 6.94667 153.371 6.824 152.742 6.824C151.974 6.824 151.371 7 150.934 7.352C150.507 7.69333 150.294 8.16267 150.294 8.76C150.294 9.29333 150.507 9.71467 150.934 10.024C151.36 10.3227 152.006 10.5573 152.87 10.728C153.862 10.9307 154.646 11.1547 155.222 11.4C155.798 11.6453 156.23 11.9707 156.518 12.376C156.806 12.7813 156.95 13.3147 156.95 13.976C156.95 15.032 156.576 15.832 155.83 16.376C155.094 16.9093 154.006 17.176 152.566 17.176ZM161.846 17.176C160.769 17.176 159.942 16.9307 159.366 16.44C158.801 15.9493 158.518 15.2453 158.518 14.328V12.152C158.518 11.2453 158.806 10.5467 159.382 10.056C159.969 9.55467 160.796 9.304 161.862 9.304C163.142 9.304 164.097 9.71467 164.726 10.536L163.766 11.336C163.468 10.9947 163.18 10.7547 162.902 10.616C162.625 10.4773 162.278 10.408 161.862 10.408C161.244 10.408 160.764 10.5627 160.422 10.872C160.092 11.1707 159.926 11.5973 159.926 12.152V14.328C159.926 14.8827 160.092 15.3147 160.422 15.624C160.753 15.9227 161.228 16.072 161.846 16.072C162.284 16.072 162.652 15.9973 162.95 15.848C163.26 15.6987 163.542 15.464 163.798 15.144L164.758 15.944C164.449 16.36 164.06 16.6693 163.59 16.872C163.121 17.0747 162.54 17.176 161.846 17.176ZM170.366 9.304C170.825 9.304 171.209 9.416 171.518 9.64L171.166 10.872C170.804 10.6587 170.42 10.552 170.014 10.552C169.534 10.552 169.124 10.7547 168.782 11.16C168.441 11.5653 168.19 12.1093 168.03 12.792V17H166.622V11.16C166.622 10.936 166.58 10.7547 166.494 10.616C166.409 10.4667 166.254 10.3067 166.03 10.136L166.974 9.304C167.348 9.50667 167.609 9.73067 167.758 9.976C167.918 10.2107 168.009 10.5413 168.03 10.968C168.265 10.4453 168.58 10.04 168.974 9.752C169.369 9.45333 169.833 9.304 170.366 9.304ZM173.733 8.008C173.488 8.008 173.275 7.92267 173.093 7.752C172.923 7.57067 172.837 7.35733 172.837 7.112C172.837 6.86667 172.923 6.65867 173.093 6.488C173.275 6.30667 173.488 6.216 173.733 6.216C173.979 6.216 174.187 6.30667 174.357 6.488C174.539 6.65867 174.629 6.86667 174.629 7.112C174.629 7.35733 174.539 7.57067 174.357 7.752C174.187 7.92267 173.979 8.008 173.733 8.008ZM174.085 17.176C173.691 16.9627 173.413 16.7227 173.253 16.456C173.104 16.1787 173.029 15.8 173.029 15.32V9.48H174.437V15.32C174.437 15.544 174.48 15.7307 174.565 15.88C174.651 16.0187 174.805 16.1733 175.029 16.344L174.085 17.176ZM180.916 9.304C181.62 9.304 182.217 9.47467 182.708 9.816C183.209 10.1467 183.583 10.5947 183.828 11.16C184.073 11.7147 184.196 12.3227 184.196 12.984V13.496C184.196 14.1573 184.073 14.7707 183.828 15.336C183.583 15.8907 183.209 16.3387 182.708 16.68C182.217 17.0107 181.62 17.176 180.916 17.176C180.276 17.176 179.764 17.0747 179.38 16.872C179.007 16.6587 178.703 16.376 178.468 16.024V20.504H177.06V11.16C177.06 10.936 177.017 10.7547 176.932 10.616C176.847 10.4667 176.692 10.3067 176.468 10.136L177.396 9.304C177.705 9.47467 177.935 9.656 178.084 9.848C178.244 10.04 178.345 10.28 178.388 10.568C178.943 9.72533 179.785 9.304 180.916 9.304ZM182.788 12.984C182.788 12.2267 182.585 11.608 182.18 11.128C181.785 10.648 181.252 10.408 180.58 10.408C179.492 10.408 178.788 10.936 178.468 11.992V14.488C178.788 15.544 179.492 16.072 180.58 16.072C181.252 16.072 181.785 15.832 182.18 15.352C182.585 14.872 182.788 14.2533 182.788 13.496V12.984ZM187.482 10.584V14.616C187.482 15.0747 187.572 15.416 187.754 15.64C187.935 15.8533 188.223 15.96 188.618 15.96H189.642V17.064H188.618C187.711 17.064 187.06 16.872 186.666 16.488C186.271 16.104 186.074 15.48 186.074 14.616V7.928C186.074 7.704 186.031 7.52267 185.946 7.384C185.86 7.23467 185.706 7.07467 185.482 6.904L186.426 6.072C186.82 6.28533 187.092 6.53067 187.242 6.808C187.402 7.07467 187.482 7.448 187.482 7.928V9.48H189.642V10.584H187.482Z" fill="black"/>
<path d="M260.04 291.386V300.602C260.04 301.263 259.902 301.759 259.624 302.09C259.358 302.42 258.931 302.586 258.344 302.586H257.272L252.664 293.722V302.586H251.224V291.386H252.984L258.056 301.274H258.152C258.323 301.274 258.44 301.21 258.504 301.082C258.568 300.954 258.6 300.719 258.6 300.378V291.386H260.04ZM265.555 301.674C265.992 301.674 266.366 301.61 266.675 301.482C266.995 301.354 267.304 301.146 267.603 300.858L268.467 301.642C268.147 302.026 267.747 302.308 267.267 302.49C266.798 302.671 266.216 302.762 265.523 302.762C264.424 302.762 263.592 302.527 263.027 302.058C262.472 301.578 262.195 300.868 262.195 299.93V297.546C262.195 296.724 262.478 296.079 263.043 295.61C263.619 295.13 264.403 294.89 265.395 294.89C266.419 294.89 267.208 295.14 267.763 295.642C268.328 296.143 268.611 296.863 268.611 297.802C268.611 298.431 268.499 298.863 268.275 299.098C268.062 299.332 267.646 299.45 267.027 299.45H263.603V299.946C263.603 300.522 263.763 300.954 264.083 301.242C264.403 301.53 264.894 301.674 265.555 301.674ZM265.395 295.978C264.83 295.978 264.387 296.127 264.067 296.426C263.758 296.724 263.603 297.13 263.603 297.642V298.442H266.339C266.67 298.442 266.894 298.388 267.011 298.282C267.139 298.175 267.203 297.972 267.203 297.674C267.203 297.14 267.043 296.724 266.723 296.426C266.403 296.127 265.96 295.978 265.395 295.978ZM274.396 302.586L272.476 299.754L270.62 302.586H269.18L271.74 298.666L269.308 295.066H270.732L272.572 297.77L274.348 295.066H275.788L273.324 298.874L275.836 302.586H274.396ZM278.564 296.17V300.202C278.564 300.66 278.655 301.002 278.836 301.226C279.018 301.439 279.306 301.546 279.7 301.546H280.724V302.65H279.7C278.794 302.65 278.143 302.458 277.748 302.074C277.354 301.69 277.156 301.066 277.156 300.202V293.514C277.156 293.29 277.114 293.108 277.028 292.97C276.943 292.82 276.788 292.66 276.564 292.49L277.508 291.658C277.903 291.871 278.175 292.116 278.324 292.394C278.484 292.66 278.564 293.034 278.564 293.514V295.066H280.724V296.17H278.564ZM283.251 302.762C282.984 302.762 282.76 302.671 282.579 302.49C282.398 302.308 282.307 302.084 282.307 301.818C282.307 301.551 282.398 301.327 282.579 301.146C282.76 300.954 282.984 300.858 283.251 300.858C283.518 300.858 283.742 300.954 283.923 301.146C284.104 301.327 284.195 301.551 284.195 301.818C284.195 302.084 284.104 302.308 283.923 302.49C283.742 302.671 283.518 302.762 283.251 302.762ZM286.773 293.594C286.528 293.594 286.315 293.508 286.133 293.338C285.963 293.156 285.877 292.943 285.877 292.698C285.877 292.452 285.968 292.244 286.149 292.074C286.331 291.892 286.539 291.802 286.773 291.802C287.019 291.802 287.227 291.892 287.397 292.074C287.579 292.244 287.669 292.452 287.669 292.698C287.669 292.943 287.579 293.156 287.397 293.338C287.227 293.508 287.019 293.594 286.773 293.594ZM283.589 305.13H284.373C284.96 305.13 285.387 304.98 285.653 304.682C285.931 304.394 286.069 303.935 286.069 303.306V295.066H287.477V303.306C287.477 304.34 287.232 305.087 286.741 305.546C286.261 306.004 285.472 306.234 284.373 306.234H283.589V305.13ZM292.084 302.762C291.38 302.762 290.81 302.66 290.372 302.458C289.946 302.244 289.551 301.903 289.188 301.434L290.084 300.666C290.394 301.028 290.692 301.284 290.98 301.434C291.279 301.583 291.647 301.658 292.084 301.658C293.247 301.658 293.828 301.29 293.828 300.554C293.828 300.319 293.764 300.132 293.636 299.994C293.519 299.844 293.306 299.722 292.996 299.626C292.698 299.519 292.244 299.412 291.636 299.306C290.89 299.156 290.33 298.9 289.956 298.538C289.583 298.164 289.396 297.674 289.396 297.066C289.396 296.383 289.647 295.85 290.148 295.466C290.65 295.082 291.338 294.89 292.212 294.89C293.503 294.89 294.41 295.3 294.932 296.122L294.036 296.874C293.78 296.564 293.508 296.34 293.22 296.202C292.943 296.063 292.607 295.994 292.212 295.994C291.743 295.994 291.38 296.09 291.124 296.282C290.868 296.474 290.74 296.74 290.74 297.082C290.74 297.391 290.863 297.631 291.108 297.802C291.354 297.962 291.743 298.095 292.276 298.202C292.98 298.362 293.535 298.532 293.94 298.714C294.346 298.884 294.65 299.119 294.852 299.418C295.055 299.706 295.156 300.09 295.156 300.57C295.156 302.031 294.132 302.762 292.084 302.762Z" fill="black"/>
<path d="M20.2528 295.554C18.7701 295.554 17.6395 295.213 16.8608 294.53C16.0821 293.837 15.6928 292.818 15.6928 291.474V288.066C15.6928 286.744 16.0768 285.736 16.8448 285.042C17.6128 284.349 18.7168 284.002 20.1568 284.002C21.1275 284.002 21.9435 284.157 22.6048 284.466C23.2661 284.776 23.8048 285.25 24.2208 285.89L23.1328 286.658C22.7701 286.157 22.3595 285.789 21.9008 285.554C21.4421 285.32 20.8715 285.202 20.1888 285.202C18.2048 285.202 17.2128 286.157 17.2128 288.066V291.474C17.2128 293.394 18.2261 294.354 20.2528 294.354C20.9781 294.354 21.5755 294.232 22.0448 293.986C22.5141 293.741 22.9248 293.357 23.2768 292.834L24.3488 293.65C23.8581 294.322 23.2981 294.808 22.6688 295.106C22.0501 295.405 21.2448 295.554 20.2528 295.554ZM29.7374 295.554C28.7134 295.554 27.8868 295.4 27.2574 295.09C26.6388 294.781 26.0574 294.269 25.5134 293.554L26.5374 292.674C26.9854 293.293 27.4441 293.73 27.9134 293.986C28.3828 294.232 28.9748 294.354 29.6894 294.354C30.6388 294.354 31.3588 294.189 31.8494 293.858C32.3508 293.517 32.6014 293.021 32.6014 292.37C32.6014 291.997 32.5001 291.693 32.2974 291.458C32.1054 291.224 31.7641 291.021 31.2734 290.85C30.7828 290.669 30.0574 290.482 29.0974 290.29C28.0201 290.077 27.2254 289.714 26.7134 289.202C26.2014 288.69 25.9454 288.013 25.9454 287.17C25.9454 286.189 26.2974 285.416 27.0014 284.85C27.7161 284.285 28.6921 284.002 29.9294 284.002C31.7534 284.002 33.0441 284.605 33.8014 285.81L32.7774 286.642C32.4041 286.162 31.9881 285.805 31.5294 285.57C31.0814 285.325 30.5428 285.202 29.9134 285.202C29.1454 285.202 28.5428 285.378 28.1054 285.73C27.6788 286.072 27.4654 286.541 27.4654 287.138C27.4654 287.672 27.6788 288.093 28.1054 288.402C28.5321 288.701 29.1774 288.936 30.0414 289.106C31.0334 289.309 31.8174 289.533 32.3934 289.778C32.9694 290.024 33.4014 290.349 33.6894 290.754C33.9774 291.16 34.1214 291.693 34.1214 292.354C34.1214 293.41 33.7481 294.21 33.0014 294.754C32.2654 295.288 31.1774 295.554 29.7374 295.554ZM39.7062 295.554C38.6822 295.554 37.8555 295.4 37.2262 295.09C36.6075 294.781 36.0262 294.269 35.4822 293.554L36.5062 292.674C36.9542 293.293 37.4129 293.73 37.8822 293.986C38.3515 294.232 38.9435 294.354 39.6582 294.354C40.6075 294.354 41.3275 294.189 41.8182 293.858C42.3195 293.517 42.5702 293.021 42.5702 292.37C42.5702 291.997 42.4689 291.693 42.2662 291.458C42.0742 291.224 41.7329 291.021 41.2422 290.85C40.7515 290.669 40.0262 290.482 39.0662 290.29C37.9889 290.077 37.1942 289.714 36.6822 289.202C36.1702 288.69 35.9142 288.013 35.9142 287.17C35.9142 286.189 36.2662 285.416 36.9702 284.85C37.6849 284.285 38.6609 284.002 39.8982 284.002C41.7222 284.002 43.0129 284.605 43.7702 285.81L42.7462 286.642C42.3729 286.162 41.9569 285.805 41.4982 285.57C41.0502 285.325 40.5115 285.202 39.8822 285.202C39.1142 285.202 38.5115 285.378 38.0742 285.73C37.6475 286.072 37.4342 286.541 37.4342 287.138C37.4342 287.672 37.6475 288.093 38.0742 288.402C38.5009 288.701 39.1462 288.936 40.0102 289.106C41.0022 289.309 41.7862 289.533 42.3622 289.778C42.9382 290.024 43.3702 290.349 43.6582 290.754C43.9462 291.16 44.0902 291.693 44.0902 292.354C44.0902 293.41 43.7169 294.21 42.9702 294.754C42.2342 295.288 41.1462 295.554 39.7062 295.554ZM55.4476 289.506C56.1622 289.656 56.7329 289.976 57.1596 290.466C57.5969 290.957 57.8156 291.57 57.8156 292.306C57.8156 293.309 57.4369 294.104 56.6796 294.69C55.9329 295.266 54.9089 295.554 53.6076 295.554C52.8289 295.554 52.0982 295.421 51.4156 295.154C50.7436 294.888 50.1782 294.477 49.7196 293.922L50.5356 293.106C50.9729 293.554 51.4369 293.89 51.9276 294.114C52.4182 294.338 52.9889 294.45 53.6396 294.45C54.5142 294.45 55.1916 294.258 55.6716 293.874C56.1622 293.49 56.4076 292.962 56.4076 292.29C56.4076 291.554 56.1462 291 55.6236 290.626C55.1009 290.242 54.3222 290.05 53.2876 290.05C52.9356 290.05 52.4502 290.088 51.8316 290.162L51.6556 289.218C52.7649 289.186 53.6396 289.096 54.2796 288.946C54.9302 288.797 55.3996 288.573 55.6876 288.274C55.9756 287.976 56.1196 287.576 56.1196 287.074C56.1196 286.456 55.8902 285.976 55.4316 285.634C54.9729 285.282 54.3489 285.106 53.5596 285.106C52.3862 285.106 51.4582 285.522 50.7756 286.354L50.1196 285.378C50.9729 284.461 52.1462 284.002 53.6396 284.002C54.7916 284.002 55.7249 284.253 56.4396 284.754C57.1649 285.256 57.5276 285.992 57.5276 286.962C57.5276 287.592 57.3462 288.125 56.9836 288.562C56.6316 289 56.1196 289.314 55.4476 289.506Z" fill="black"/>
<path d="M9.60243 71.5657H11.1224V76.5417H16.6904V71.5657H18.2104V82.7657H16.6904V77.7577H11.1224V82.7657H9.60243V71.5657ZM23.6297 72.7657H20.0937V71.5657H28.7017V72.7657H25.1497V82.7657H23.6297V72.7657ZM30.6024 71.5657H31.4504C32.0478 71.5657 32.5064 71.6937 32.8264 71.9497C33.1571 72.2057 33.4984 72.6804 33.8504 73.3737L35.7384 77.0057L37.6264 73.3737C37.9784 72.6804 38.3144 72.2057 38.6344 71.9497C38.9651 71.6937 39.4291 71.5657 40.0264 71.5657H40.8744V82.7657H39.4664V73.1177C39.3278 73.1284 39.2051 73.1871 39.0984 73.2937C39.0024 73.3897 38.8851 73.5604 38.7464 73.8057L35.7384 79.4537L32.7304 73.8057C32.6024 73.5604 32.4851 73.3897 32.3784 73.2937C32.2718 73.1871 32.1491 73.1284 32.0104 73.1177V82.7657H30.6024V71.5657ZM47.1012 82.7657C45.8318 82.7657 44.8985 82.4831 44.3012 81.9177C43.7145 81.3524 43.4212 80.5044 43.4212 79.3737V71.5657H44.9412V79.3737C44.9412 80.1204 45.1172 80.6751 45.4692 81.0377C45.8212 81.3897 46.3652 81.5657 47.1012 81.5657H50.7012V82.7657H47.1012ZM60.0696 82.9417C59.2589 82.9417 58.5122 82.8191 57.8296 82.5737C57.1576 82.3177 56.6029 81.9177 56.1656 81.3737L56.9816 80.5577C57.3229 81.0057 57.7549 81.3311 58.2776 81.5337C58.8002 81.7364 59.3762 81.8377 60.0056 81.8377C60.9762 81.8377 61.7122 81.6244 62.2136 81.1977C62.7256 80.7711 62.9816 80.1524 62.9816 79.3417C62.9816 77.6671 61.9362 76.8297 59.8456 76.8297C59.0989 76.8297 58.3309 76.9417 57.5416 77.1657L56.7896 76.2857L57.2536 71.5657H63.7496V72.6697H58.4056L58.1016 75.9017C58.6349 75.7631 59.2269 75.6937 59.8776 75.6937C61.3496 75.6937 62.4696 76.0031 63.2376 76.6217C64.0056 77.2404 64.3896 78.1417 64.3896 79.3257C64.3896 80.4777 64.0109 81.3684 63.2536 81.9977C62.4962 82.6271 61.4349 82.9417 60.0696 82.9417Z" fill="black"/>
<defs>
<filter id="filter0_d_180_238" x="19.6135" y="55.9121" width="280.665" height="264.131" filterUnits="userSpaceOnUse" color-interpolation-filters="sRGB">
<feFlood flood-opacity="0" result="BackgroundImageFix"/>
<feColorMatrix in="SourceAlpha" type="matrix" values="0 0 0 0 0 0 0 0 0 0 0 0 0 0 0 0 0 0 127 0" result="hardAlpha"/>
<feMorphology radius="4" operator="dilate" in="SourceAlpha" result="effect1_dropShadow_180_238"/>
<feOffset dx="5" dy="6"/>
<feGaussianBlur stdDeviation="2"/>
<feComposite in2="hardAlpha" operator="out"/>
<feColorMatrix type="matrix" values="0 0 0 0 0 0 0 0 0 0 0 0 0 0 0 0 0 0 0.25 0"/>
<feBlend mode="normal" in2="BackgroundImageFix" result="effect1_dropShadow_180_238"/>
<feBlend mode="normal" in="SourceGraphic" in2="effect1_dropShadow_180_238" result="shape"/>
</filter>
<filter id="filter1_d_180_238" x="0.52124" y="95.5352" width="77.2839" height="71.4185" filterUnits="userSpaceOnUse" color-interpolation-filters="sRGB">
<feFlood flood-opacity="0" result="BackgroundImageFix"/>
<feColorMatrix in="SourceAlpha" type="matrix" values="0 0 0 0 0 0 0 0 0 0 0 0 0 0 0 0 0 0 127 0" result="hardAlpha"/>
<feOffset dx="2" dy="2"/>
<feGaussianBlur stdDeviation="2"/>
<feComposite in2="hardAlpha" operator="out"/>
<feColorMatrix type="matrix" values="0 0 0 0 0 0 0 0 0 0 0 0 0 0 0 0 0 0 0.25 0"/>
<feBlend mode="normal" in2="BackgroundImageFix" result="effect1_dropShadow_180_238"/>
<feBlend mode="normal" in="SourceGraphic" in2="effect1_dropShadow_180_238" result="shape"/>
</filter>
<filter id="filter2_d_180_238" x="0.52124" y="204.661" width="77.2839" height="71.4185" filterUnits="userSpaceOnUse" color-interpolation-filters="sRGB">
<feFlood flood-opacity="0" result="BackgroundImageFix"/>
<feColorMatrix in="SourceAlpha" type="matrix" values="0 0 0 0 0 0 0 0 0 0 0 0 0 0 0 0 0 0 127 0" result="hardAlpha"/>
<feOffset dx="2" dy="2"/>
<feGaussianBlur stdDeviation="2"/>
<feComposite in2="hardAlpha" operator="out"/>
<feColorMatrix type="matrix" values="0 0 0 0 0 0 0 0 0 0 0 0 0 0 0 0 0 0 0.25 0"/>
<feBlend mode="normal" in2="BackgroundImageFix" result="effect1_dropShadow_180_238"/>
<feBlend mode="normal" in="SourceGraphic" in2="effect1_dropShadow_180_238" result="shape"/>
</filter>
<filter id="filter3_d_180_238" x="114.936" y="261.964" width="84.5767" height="83.4437" filterUnits="userSpaceOnUse" color-interpolation-filters="sRGB">
<feFlood flood-opacity="0" result="BackgroundImageFix"/>
<feColorMatrix in="SourceAlpha" type="matrix" values="0 0 0 0 0 0 0 0 0 0 0 0 0 0 0 0 0 0 127 0" result="hardAlpha"/>
<feOffset dx="2" dy="2"/>
<feGaussianBlur stdDeviation="2"/>
<feComposite in2="hardAlpha" operator="out"/>
<feColorMatrix type="matrix" values="0 0 0 0 0 0 0 0 0 0 0 0 0 0 0 0 0 0 0.25 0"/>
<feBlend mode="normal" in2="BackgroundImageFix" result="effect1_dropShadow_180_238"/>
<feBlend mode="normal" in="SourceGraphic" in2="effect1_dropShadow_180_238" result="shape"/>
</filter>
<filter id="filter4_d_180_238" x="231.237" y="206.61" width="77.2842" height="71.4185" filterUnits="userSpaceOnUse" color-interpolation-filters="sRGB">
<feFlood flood-opacity="0" result="BackgroundImageFix"/>
<feColorMatrix in="SourceAlpha" type="matrix" values="0 0 0 0 0 0 0 0 0 0 0 0 0 0 0 0 0 0 127 0" result="hardAlpha"/>
<feOffset dx="2" dy="2"/>
<feGaussianBlur stdDeviation="2"/>
<feComposite in2="hardAlpha" operator="out"/>
<feColorMatrix type="matrix" values="0 0 0 0 0 0 0 0 0 0 0 0 0 0 0 0 0 0 0.25 0"/>
<feBlend mode="normal" in2="BackgroundImageFix" result="effect1_dropShadow_180_238"/>
<feBlend mode="normal" in="SourceGraphic" in2="effect1_dropShadow_180_238" result="shape"/>
</filter>
<filter id="filter5_d_180_238" x="231.237" y="95.5352" width="77.2842" height="71.4185" filterUnits="userSpaceOnUse" color-interpolation-filters="sRGB">
<feFlood flood-opacity="0" result="BackgroundImageFix"/>
<feColorMatrix in="SourceAlpha" type="matrix" values="0 0 0 0 0 0 0 0 0 0 0 0 0 0 0 0 0 0 127 0" result="hardAlpha"/>
<feOffset dx="2" dy="2"/>
<feGaussianBlur stdDeviation="2"/>
<feComposite in2="hardAlpha" operator="out"/>
<feColorMatrix type="matrix" values="0 0 0 0 0 0 0 0 0 0 0 0 0 0 0 0 0 0 0.25 0"/>
<feBlend mode="normal" in2="BackgroundImageFix" result="effect1_dropShadow_180_238"/>
<feBlend mode="normal" in="SourceGraphic" in2="effect1_dropShadow_180_238" result="shape"/>
</filter>
<filter id="filter6_d_180_238" x="112.233" y="29.5315" width="84.5767" height="83.4438" filterUnits="userSpaceOnUse" color-interpolation-filters="sRGB">
<feFlood flood-opacity="0" result="BackgroundImageFix"/>
<feColorMatrix in="SourceAlpha" type="matrix" values="0 0 0 0 0 0 0 0 0 0 0 0 0 0 0 0 0 0 127 0" result="hardAlpha"/>
<feOffset dx="2" dy="2"/>
<feGaussianBlur stdDeviation="2"/>
<feComposite in2="hardAlpha" operator="out"/>
<feColorMatrix type="matrix" values="0 0 0 0 0 0 0 0 0 0 0 0 0 0 0 0 0 0 0.25 0"/>
<feBlend mode="normal" in2="BackgroundImageFix" result="effect1_dropShadow_180_238"/>
<feBlend mode="normal" in="SourceGraphic" in2="effect1_dropShadow_180_238" result="shape"/>
</filter>
<clipPath id="clip0_180_238">
<rect width="42.3423" height="39.6972" fill="white" transform="translate(16.0347 111.4)"/>
</clipPath>
<clipPath id="clip1_180_238">
<rect width="42.3423" height="39.6972" fill="white" transform="translate(16.0347 220.572)"/>
</clipPath>
<clipPath id="clip2_180_238">
<rect width="42.3423" height="42.3423" fill="white" transform="translate(134.053 280.828)"/>
</clipPath>
<clipPath id="clip3_180_238">
<rect width="54.9549" height="10.8108" fill="white" transform="translate(240.359 235.135)"/>
</clipPath>
<clipPath id="clip4_180_238">
<rect width="45.045" height="45.045" fill="white" transform="translate(245.764 106.962)"/>
</clipPath>
<clipPath id="clip5_180_238">
<rect width="42.3423" height="42.3423" fill="white" transform="translate(131.585 48.3955)"/>
</clipPath>
</defs>
</svg>
