<svg width="341" height="403" viewBox="0 0 341 403" fill="none" xmlns="http://www.w3.org/2000/svg">
<g filter="url(#filter0_d_146_37)">
<path d="M315.581 198.995C315.581 273.522 251.09 334.208 171.192 334.208C91.2934 334.208 26.8026 273.522 26.8026 198.995C26.8026 124.469 91.2934 63.7825 171.192 63.7825C251.09 63.7825 315.581 124.469 315.581 198.995Z" stroke="black" stroke-width="5" shape-rendering="crispEdges"/>
</g>
<g filter="url(#filter1_d_146_37)">
<ellipse cx="40.4527" cy="140.461" rx="38.4527" ry="35.1972" fill="#EEE7DB"/>
<path d="M76.4053 140.461C76.4053 158.316 60.5215 173.159 40.4527 173.159C20.3838 173.159 4.5 158.316 4.5 140.461C4.5 122.607 20.3838 107.764 40.4527 107.764C60.5215 107.764 76.4053 122.607 76.4053 140.461Z" stroke="black" stroke-width="5"/>
</g>
<g clip-path="url(#clip0_146_37)">
<path d="M23.5176 160.242L19.7539 120.654H61.1543L57.3906 160.242L40.4082 164.718" fill="#E34F26"/>
<path d="M40.5 161.275L54.1777 157.747L57.3906 123.838H40.5" fill="#EF652A"/>
<path d="M40.5 138.555H33.6152L33.1563 133.563H40.5V128.744H40.4082H27.4648L27.5566 130.035L28.8418 143.46H40.5V138.555ZM40.5 151.206H40.4082L34.625 149.743L34.2578 145.87H31.5039H29.1172L29.7598 153.53L40.4082 156.284H40.5V151.206Z" fill="#EBEBEB"/>
<path d="M40.4082 138.555V143.46H46.834L46.1914 149.743L40.4082 151.206V156.284L51.0566 153.53L51.1484 152.669L52.3418 139.846L52.5254 138.555H51.0566H40.4082ZM40.4082 128.744V131.756V133.563H52.9844L53.0762 132.53L53.3516 130.035L53.4434 128.744H40.4082Z" fill="white"/>
</g>
<g filter="url(#filter2_d_146_37)">
<ellipse cx="40.4527" cy="261.591" rx="38.4527" ry="35.1972" fill="#EEE7DB"/>
<path d="M76.4053 261.591C76.4053 279.446 60.5215 294.288 40.4527 294.288C20.3838 294.288 4.5 279.446 4.5 261.591C4.5 243.736 20.3838 228.894 40.4527 228.894C60.5215 228.894 76.4053 243.736 76.4053 261.591Z" stroke="black" stroke-width="5"/>
</g>
<g clip-path="url(#clip1_146_37)">
<path d="M23.5503 281.493L19.7789 241.834H61.2211L57.4456 281.487L40.4747 285.898L23.5503 281.493Z" fill="#264DE4"/>
<path d="M54.2134 278.962L57.4398 245.077H40.5V282.527L54.2134 278.962Z" fill="#2965F1"/>
<path d="M28.425 259.786L28.89 264.65H40.5V259.786H28.425ZM27.9623 254.805H40.5V249.941H27.4906L27.9623 254.805ZM40.5 272.418L40.4772 272.424L34.6992 270.961L34.3299 267.082H29.1217L29.8486 274.719L40.4761 277.485L40.5 277.479V272.418Z" fill="#EBEBEB"/>
<path d="M40.4821 259.786V264.65H46.8707L46.2685 270.958L40.4821 272.423V277.483L51.118 274.719L51.1961 273.898L52.4151 261.092L52.5418 259.786L53.4784 249.941H40.4821V254.805H47.7927L47.3205 259.786H40.4821Z" fill="white"/>
</g>
<g filter="url(#filter3_d_146_37)">
<ellipse cx="168.5" cy="334.871" rx="42.5" ry="41.8713" fill="#EEE7DB"/>
<path d="M208.5 334.871C208.5 356.58 190.627 374.243 168.5 374.243C146.373 374.243 128.5 356.58 128.5 334.871C128.5 313.162 146.373 295.5 168.5 295.5C190.627 295.5 208.5 313.162 208.5 334.871Z" stroke="black" stroke-width="5"/>
</g>
<g clip-path="url(#clip2_146_37)">
<path d="M187.41 311.719H149.59C147.055 311.719 145 313.774 145 316.309V354.129C145 356.664 147.055 358.719 149.59 358.719H187.41C189.945 358.719 192 356.664 192 354.129V316.309C192 313.774 189.945 311.719 187.41 311.719Z" fill="#3178C6"/>
<path d="M187.41 311.719H149.59C147.055 311.719 145 313.774 145 316.309V354.129C145 356.664 147.055 358.719 149.59 358.719H187.41C189.945 358.719 192 356.664 192 354.129V316.309C192 313.774 189.945 311.719 187.41 311.719Z" fill="#3178C6"/>
<path fill-rule="evenodd" clip-rule="evenodd" d="M174.094 349.119V353.715C174.841 354.098 175.725 354.385 176.745 354.576C177.765 354.768 178.84 354.863 179.97 354.863C181.071 354.863 182.118 354.758 183.109 354.547C184.1 354.337 184.97 353.99 185.717 353.506C186.464 353.023 187.055 352.391 187.491 351.611C187.927 350.83 188.145 349.866 188.145 348.717C188.145 347.884 188.02 347.154 187.771 346.527C187.522 345.9 187.163 345.342 186.693 344.854C186.224 344.366 185.662 343.928 185.005 343.54C184.349 343.152 183.609 342.786 182.786 342.441C182.182 342.192 181.641 341.951 181.162 341.716C180.683 341.482 180.276 341.242 179.941 340.998C179.606 340.754 179.347 340.496 179.165 340.223C178.983 339.95 178.892 339.641 178.892 339.296C178.892 338.981 178.974 338.696 179.137 338.442C179.3 338.188 179.529 337.97 179.826 337.789C180.123 337.607 180.487 337.465 180.918 337.365C181.349 337.264 181.828 337.214 182.355 337.214C182.738 337.214 183.143 337.243 183.569 337.3C183.995 337.358 184.424 337.446 184.855 337.566C185.286 337.686 185.705 337.836 186.112 338.018C186.519 338.2 186.895 338.411 187.239 338.65V334.356C186.54 334.088 185.776 333.89 184.948 333.76C184.12 333.631 183.169 333.567 182.096 333.567C181.004 333.567 179.97 333.684 178.993 333.918C178.016 334.153 177.157 334.519 176.414 335.017C175.672 335.515 175.085 336.149 174.654 336.92C174.223 337.69 174.008 338.612 174.008 339.684C174.008 341.053 174.403 342.221 175.193 343.188C175.983 344.155 177.183 344.974 178.792 345.644C179.424 345.902 180.013 346.156 180.559 346.405C181.105 346.654 181.577 346.912 181.974 347.18C182.372 347.449 182.685 347.741 182.915 348.056C183.145 348.372 183.26 348.731 183.26 349.134C183.26 349.43 183.188 349.706 183.044 349.959C182.901 350.213 182.683 350.433 182.391 350.62C182.099 350.807 181.735 350.952 181.299 351.058C180.863 351.163 180.353 351.216 179.769 351.216C178.773 351.216 177.786 351.041 176.809 350.692C175.832 350.342 174.927 349.818 174.094 349.119ZM166.368 337.797H172.264V334.026H155.832V337.797H161.698V354.588H166.368V337.797Z" fill="white"/>
</g>
<g filter="url(#filter4_d_146_37)">
<ellipse cx="296.547" cy="263.754" rx="38.4527" ry="35.1972" fill="#EEE7DB"/>
<path d="M332.5 263.754C332.5 281.609 316.616 296.451 296.547 296.451C276.478 296.451 260.595 281.609 260.595 263.754C260.595 245.899 276.478 231.057 296.547 231.057C316.616 231.057 332.5 245.899 332.5 263.754Z" stroke="black" stroke-width="5"/>
</g>
<g clip-path="url(#clip3_146_37)">
<path d="M306.551 258.005H317.176V259.905H312.961V269.901H310.854V259.905H306.551V258.005Z" fill="black"/>
<path d="M289.077 258.005V259.905H280.56V262.962H287.409V264.862H280.56V268.001H289.077V269.901H278.452V259.905H278.451V258.005H289.077Z" fill="black"/>
<path d="M294.382 258.01H291.624L301.503 269.906H304.269L299.329 263.962L304.261 258.019L301.503 258.023L297.948 262.301L294.382 258.01Z" fill="black"/>
<path d="M297.212 266.507L295.831 264.843L291.616 269.915H294.382L297.212 266.507Z" fill="black"/>
<path fill-rule="evenodd" clip-rule="evenodd" d="M278.526 269.901L268.634 258H266V269.896H268.107V260.543L275.879 269.901H278.526Z" fill="black"/>
<path d="M317.65 269.828C317.495 269.828 317.364 269.776 317.254 269.673C317.144 269.569 317.09 269.444 317.091 269.295C317.09 269.151 317.144 269.027 317.254 268.923C317.364 268.819 317.495 268.768 317.65 268.768C317.798 268.768 317.928 268.819 318.038 268.923C318.15 269.027 318.205 269.151 318.207 269.295C318.205 269.393 318.179 269.483 318.128 269.564C318.075 269.646 318.008 269.71 317.924 269.756C317.841 269.804 317.75 269.828 317.65 269.828Z" fill="black"/>
<path d="M321.247 264.817H322.181V268.303C322.179 268.623 322.108 268.897 321.968 269.127C321.827 269.358 321.631 269.534 321.38 269.658C321.13 269.78 320.837 269.843 320.504 269.843C320.2 269.843 319.927 269.79 319.685 269.686C319.442 269.583 319.249 269.427 319.108 269.223C318.965 269.018 318.895 268.763 318.895 268.458H319.83C319.832 268.592 319.863 268.708 319.923 268.804C319.983 268.901 320.066 268.975 320.172 269.027C320.279 269.078 320.401 269.104 320.54 269.104C320.69 269.104 320.818 269.074 320.923 269.013C321.027 268.953 321.107 268.863 321.163 268.743C321.217 268.624 321.245 268.477 321.247 268.303V264.817Z" fill="black"/>
<path d="M326.023 266.18C326 265.969 325.9 265.804 325.726 265.687C325.551 265.568 325.324 265.509 325.045 265.509C324.85 265.509 324.681 265.538 324.541 265.594C324.401 265.651 324.293 265.727 324.218 265.824C324.144 265.921 324.107 266.031 324.104 266.156C324.104 266.259 324.13 266.349 324.18 266.424C324.23 266.5 324.297 266.565 324.384 266.616C324.47 266.669 324.565 266.713 324.67 266.749C324.775 266.784 324.881 266.814 324.987 266.839L325.473 266.954C325.669 266.998 325.859 267.057 326.04 267.132C326.222 267.205 326.386 267.299 326.53 267.412C326.674 267.526 326.789 267.662 326.873 267.821C326.957 267.981 327 268.168 327 268.383C327 268.673 326.923 268.928 326.767 269.149C326.612 269.369 326.387 269.541 326.093 269.665C325.8 269.787 325.446 269.85 325.029 269.85C324.627 269.85 324.275 269.79 323.98 269.67C323.683 269.551 323.451 269.377 323.284 269.148C323.117 268.919 323.027 268.639 323.015 268.311H323.94C323.953 268.483 324.01 268.626 324.107 268.742C324.205 268.856 324.334 268.941 324.491 268.998C324.65 269.054 324.827 269.082 325.022 269.082C325.227 269.082 325.406 269.052 325.562 268.994C325.716 268.935 325.838 268.853 325.925 268.747C326.013 268.642 326.058 268.518 326.059 268.376C326.058 268.247 326.017 268.139 325.94 268.055C325.862 267.97 325.753 267.899 325.615 267.842C325.475 267.785 325.312 267.733 325.126 267.688L324.535 267.543C324.108 267.438 323.77 267.279 323.523 267.065C323.275 266.851 323.152 266.567 323.152 266.211C323.152 265.92 323.234 265.663 323.402 265.444C323.567 265.224 323.794 265.054 324.081 264.933C324.37 264.81 324.695 264.75 325.058 264.75C325.426 264.75 325.749 264.81 326.028 264.933C326.306 265.054 326.525 265.223 326.683 265.438C326.841 265.654 326.924 265.901 326.929 266.18H326.023Z" fill="black"/>
</g>
<g filter="url(#filter5_d_146_37)">
<ellipse cx="296.547" cy="140.461" rx="38.4527" ry="35.1972" fill="#EEE7DB"/>
<path d="M332.5 140.461C332.5 158.316 316.616 173.159 296.547 173.159C276.478 173.159 260.595 158.316 260.595 140.461C260.595 122.607 276.478 107.764 296.547 107.764C316.616 107.764 332.5 122.607 332.5 140.461Z" stroke="black" stroke-width="5"/>
</g>
<g clip-path="url(#clip4_146_37)">
<path d="M297 145.151C299.466 145.151 301.465 143.152 301.465 140.686C301.465 138.221 299.466 136.222 297 136.222C294.534 136.222 292.535 138.221 292.535 140.686C292.535 143.152 294.534 145.151 297 145.151Z" fill="#00D8FF"/>
<path fill-rule="evenodd" clip-rule="evenodd" d="M297 131.608C302.995 131.608 308.564 132.469 312.763 133.914C317.822 135.656 320.932 138.296 320.932 140.686C320.932 143.178 317.636 145.982 312.203 147.782C308.096 149.143 302.691 149.853 297 149.853C291.166 149.853 285.641 149.187 281.488 147.767C276.232 145.971 273.067 143.13 273.067 140.686C273.067 138.315 276.037 135.696 281.025 133.957C285.24 132.487 290.946 131.608 296.999 131.608H297Z" stroke="#00D8FF" stroke-width="2.73408"/>
<path fill-rule="evenodd" clip-rule="evenodd" d="M289.098 136.174C292.092 130.981 295.62 126.586 298.969 123.671C303.006 120.158 306.847 118.783 308.917 119.977C311.075 121.221 311.858 125.478 310.703 131.084C309.831 135.322 307.746 140.359 304.903 145.288C301.988 150.342 298.65 154.795 295.346 157.683C291.165 161.338 287.123 162.661 285.006 161.44C282.952 160.257 282.166 156.374 283.151 151.185C283.984 146.8 286.073 141.417 289.097 136.174L289.098 136.174Z" stroke="#00D8FF" stroke-width="2.73408"/>
<path fill-rule="evenodd" clip-rule="evenodd" d="M289.105 145.301C286.102 140.114 284.057 134.863 283.203 130.505C282.176 125.254 282.902 121.239 284.971 120.041C287.127 118.793 291.206 120.241 295.486 124.041C298.722 126.914 302.044 131.236 304.895 136.16C307.818 141.21 310.009 146.325 310.861 150.63C311.94 156.078 311.067 160.241 308.952 161.465C306.9 162.653 303.145 161.395 299.141 157.95C295.758 155.038 292.138 150.54 289.105 145.301V145.301Z" stroke="#00D8FF" stroke-width="2.73408"/>
</g>
<g filter="url(#filter6_d_146_37)">
<ellipse cx="171.5" cy="72.8713" rx="42.5" ry="41.8713" fill="#EEE7DB"/>
<path d="M211.5 72.8713C211.5 94.5805 193.627 112.243 171.5 112.243C149.373 112.243 131.5 94.5805 131.5 72.8713C131.5 51.1621 149.373 33.5 171.5 33.5C193.627 33.5 211.5 51.1621 211.5 72.8713Z" stroke="black" stroke-width="5"/>
</g>
<g clip-path="url(#clip5_146_37)">
<path d="M195.261 49.719H148.261V96.719H195.261V49.719Z" fill="#F7DF1E"/>
<path d="M179.833 86.4379C180.78 87.9837 182.011 89.1199 184.19 89.1199C186.02 89.1199 187.189 88.2052 187.189 86.9414C187.189 85.427 185.988 84.8906 183.974 84.0095L182.869 83.5358C179.682 82.178 177.565 80.4771 177.565 76.8812C177.565 73.5688 180.089 71.0472 184.033 71.0472C186.841 71.0472 188.86 72.0245 190.315 74.5834L186.876 76.7917C186.118 75.4339 185.301 74.899 184.033 74.899C182.74 74.899 181.92 75.7196 181.92 76.7917C181.92 78.1166 182.74 78.653 184.635 79.4737L185.739 79.9467C189.492 81.5558 191.611 83.1964 191.611 86.8847C191.611 90.8611 188.487 93.0395 184.292 93.0395C180.19 93.0395 177.54 91.0849 176.244 88.523L179.833 86.4379ZM164.231 86.8206C164.925 88.0515 165.556 89.0923 167.074 89.0923C168.525 89.0923 169.44 88.5245 169.44 86.317V71.2994H173.857V86.3767C173.857 90.9499 171.175 93.0313 167.262 93.0313C163.725 93.0313 161.678 91.2013 160.636 88.9971L164.231 86.8206Z" fill="black"/>
</g>
<path d="M128.255 385.5H123.835V384H134.595V385.5H130.155V398H128.255V385.5ZM143.169 388.6V399.12C143.169 400.293 142.856 401.153 142.229 401.7C141.603 402.26 140.623 402.54 139.289 402.54H136.809V401.18H139.289C140.009 401.18 140.543 401.007 140.889 400.66C141.236 400.327 141.409 399.807 141.409 399.1V396.52C140.769 397.653 139.729 398.22 138.289 398.22C137.276 398.22 136.483 397.933 135.909 397.36C135.349 396.773 135.069 395.96 135.069 394.92V390.72C135.069 390.44 135.016 390.213 134.909 390.04C134.803 389.853 134.609 389.647 134.329 389.42L135.509 388.38C136.003 388.647 136.343 388.953 136.529 389.3C136.729 389.633 136.829 390.107 136.829 390.72V394.78C136.829 395.433 136.996 395.94 137.329 396.3C137.676 396.647 138.156 396.82 138.769 396.82C139.489 396.82 140.089 396.573 140.569 396.08C141.049 395.573 141.329 394.947 141.409 394.2V388.6H143.169ZM150.478 388.38C151.358 388.38 152.104 388.593 152.718 389.02C153.344 389.433 153.811 389.993 154.118 390.7C154.424 391.393 154.578 392.153 154.578 392.98V393.62C154.578 394.447 154.424 395.213 154.118 395.92C153.811 396.613 153.344 397.173 152.718 397.6C152.104 398.013 151.358 398.22 150.478 398.22C149.678 398.22 149.038 398.093 148.558 397.84C148.091 397.573 147.711 397.22 147.418 396.78V402.38H145.658V390.7C145.658 390.42 145.604 390.193 145.498 390.02C145.391 389.833 145.198 389.633 144.918 389.42L146.078 388.38C146.464 388.593 146.751 388.82 146.938 389.06C147.138 389.3 147.264 389.6 147.318 389.96C148.011 388.907 149.064 388.38 150.478 388.38ZM152.818 392.98C152.818 392.033 152.564 391.26 152.058 390.66C151.564 390.06 150.898 389.76 150.058 389.76C148.698 389.76 147.818 390.42 147.418 391.74V394.86C147.818 396.18 148.698 396.84 150.058 396.84C150.898 396.84 151.564 396.54 152.058 395.94C152.564 395.34 152.818 394.567 152.818 393.62V392.98ZM160.88 396.86C161.427 396.86 161.893 396.78 162.28 396.62C162.68 396.46 163.067 396.2 163.44 395.84L164.52 396.82C164.12 397.3 163.62 397.653 163.02 397.88C162.433 398.107 161.707 398.22 160.84 398.22C159.467 398.22 158.427 397.927 157.72 397.34C157.027 396.74 156.68 395.853 156.68 394.68V391.7C156.68 390.673 157.033 389.867 157.74 389.28C158.46 388.68 159.44 388.38 160.68 388.38C161.96 388.38 162.947 388.693 163.64 389.32C164.347 389.947 164.7 390.847 164.7 392.02C164.7 392.807 164.56 393.347 164.28 393.64C164.013 393.933 163.493 394.08 162.72 394.08H158.44V394.7C158.44 395.42 158.64 395.96 159.04 396.32C159.44 396.68 160.053 396.86 160.88 396.86ZM160.68 389.74C159.973 389.74 159.42 389.927 159.02 390.3C158.633 390.673 158.44 391.18 158.44 391.82V392.82H161.86C162.273 392.82 162.553 392.753 162.7 392.62C162.86 392.487 162.94 392.233 162.94 391.86C162.94 391.193 162.74 390.673 162.34 390.3C161.94 389.927 161.387 389.74 160.68 389.74ZM171.622 398.22C170.342 398.22 169.309 398.027 168.522 397.64C167.749 397.253 167.022 396.613 166.342 395.72L167.622 394.62C168.182 395.393 168.755 395.94 169.342 396.26C169.929 396.567 170.669 396.72 171.562 396.72C172.749 396.72 173.649 396.513 174.262 396.1C174.889 395.673 175.202 395.053 175.202 394.24C175.202 393.773 175.075 393.393 174.822 393.1C174.582 392.807 174.155 392.553 173.542 392.34C172.929 392.113 172.022 391.88 170.822 391.64C169.475 391.373 168.482 390.92 167.842 390.28C167.202 389.64 166.882 388.793 166.882 387.74C166.882 386.513 167.322 385.547 168.202 384.84C169.095 384.133 170.315 383.78 171.862 383.78C174.142 383.78 175.755 384.533 176.702 386.04L175.422 387.08C174.955 386.48 174.435 386.033 173.862 385.74C173.302 385.433 172.629 385.28 171.842 385.28C170.882 385.28 170.129 385.5 169.582 385.94C169.049 386.367 168.782 386.953 168.782 387.7C168.782 388.367 169.049 388.893 169.582 389.28C170.115 389.653 170.922 389.947 172.002 390.16C173.242 390.413 174.222 390.693 174.942 391C175.662 391.307 176.202 391.713 176.562 392.22C176.922 392.727 177.102 393.393 177.102 394.22C177.102 395.54 176.635 396.54 175.702 397.22C174.782 397.887 173.422 398.22 171.622 398.22ZM183.223 398.22C181.876 398.22 180.843 397.913 180.123 397.3C179.416 396.687 179.063 395.807 179.063 394.66V391.94C179.063 390.807 179.423 389.933 180.143 389.32C180.876 388.693 181.91 388.38 183.243 388.38C184.843 388.38 186.036 388.893 186.823 389.92L185.623 390.92C185.25 390.493 184.89 390.193 184.543 390.02C184.196 389.847 183.763 389.76 183.243 389.76C182.47 389.76 181.87 389.953 181.443 390.34C181.03 390.713 180.823 391.247 180.823 391.94V394.66C180.823 395.353 181.03 395.893 181.443 396.28C181.856 396.653 182.45 396.84 183.223 396.84C183.77 396.84 184.23 396.747 184.603 396.56C184.99 396.373 185.343 396.08 185.663 395.68L186.863 396.68C186.476 397.2 185.99 397.587 185.403 397.84C184.816 398.093 184.09 398.22 183.223 398.22ZM193.873 388.38C194.446 388.38 194.926 388.52 195.313 388.8L194.873 390.34C194.419 390.073 193.939 389.94 193.433 389.94C192.833 389.94 192.319 390.193 191.893 390.7C191.466 391.207 191.153 391.887 190.953 392.74V398H189.193V390.7C189.193 390.42 189.139 390.193 189.033 390.02C188.926 389.833 188.733 389.633 188.453 389.42L189.633 388.38C190.099 388.633 190.426 388.913 190.613 389.22C190.813 389.513 190.926 389.927 190.953 390.46C191.246 389.807 191.639 389.3 192.133 388.94C192.626 388.567 193.206 388.38 193.873 388.38ZM198.081 386.76C197.775 386.76 197.508 386.653 197.281 386.44C197.068 386.213 196.961 385.947 196.961 385.64C196.961 385.333 197.068 385.073 197.281 384.86C197.508 384.633 197.775 384.52 198.081 384.52C198.388 384.52 198.648 384.633 198.861 384.86C199.088 385.073 199.201 385.333 199.201 385.64C199.201 385.947 199.088 386.213 198.861 386.44C198.648 386.653 198.388 386.76 198.081 386.76ZM198.521 398.22C198.028 397.953 197.681 397.653 197.481 397.32C197.295 396.973 197.201 396.5 197.201 395.9V388.6H198.961V395.9C198.961 396.18 199.015 396.413 199.121 396.6C199.228 396.773 199.421 396.967 199.701 397.18L198.521 398.22ZM207.06 388.38C207.94 388.38 208.686 388.593 209.3 389.02C209.926 389.433 210.393 389.993 210.7 390.7C211.006 391.393 211.16 392.153 211.16 392.98V393.62C211.16 394.447 211.006 395.213 210.7 395.92C210.393 396.613 209.926 397.173 209.3 397.6C208.686 398.013 207.94 398.22 207.06 398.22C206.26 398.22 205.62 398.093 205.14 397.84C204.673 397.573 204.293 397.22 204 396.78V402.38H202.24V390.7C202.24 390.42 202.186 390.193 202.08 390.02C201.973 389.833 201.78 389.633 201.5 389.42L202.66 388.38C203.046 388.593 203.333 388.82 203.52 389.06C203.72 389.3 203.846 389.6 203.9 389.96C204.593 388.907 205.646 388.38 207.06 388.38ZM209.4 392.98C209.4 392.033 209.146 391.26 208.64 390.66C208.146 390.06 207.48 389.76 206.64 389.76C205.28 389.76 204.4 390.42 204 391.74V394.86C204.4 396.18 205.28 396.84 206.64 396.84C207.48 396.84 208.146 396.54 208.64 395.94C209.146 395.34 209.4 394.567 209.4 393.62V392.98ZM215.267 389.98V395.02C215.267 395.593 215.38 396.02 215.607 396.3C215.833 396.567 216.193 396.7 216.687 396.7H217.967V398.08H216.687C215.553 398.08 214.74 397.84 214.247 397.36C213.753 396.88 213.507 396.1 213.507 395.02V386.66C213.507 386.38 213.453 386.153 213.347 385.98C213.24 385.793 213.047 385.593 212.767 385.38L213.947 384.34C214.44 384.607 214.78 384.913 214.967 385.26C215.167 385.593 215.267 386.06 215.267 386.66V388.6H217.967V389.98H215.267Z" fill="black"/>
<path d="M99.52 195.164C99.52 192.62 100.192 190.736 101.536 189.512C102.904 188.264 104.992 187.64 107.8 187.64H116.476V189.728H107.8C105.856 189.728 104.416 190.172 103.48 191.06C102.568 191.948 102.112 193.316 102.112 195.164V199.916H114.64V202.004H102.112V212.84H99.52V195.164ZM128.515 195.524C129.403 195.524 130.183 195.74 130.855 196.172L130.207 198.368C129.511 197.96 128.743 197.756 127.903 197.756C126.727 197.756 125.695 198.308 124.807 199.412C123.919 200.516 123.283 202.04 122.899 203.984V212.84H120.487V198.98C120.487 198.548 120.403 198.2 120.235 197.936C120.091 197.648 119.803 197.324 119.371 196.964L120.991 195.524C121.711 195.932 122.203 196.4 122.467 196.928C122.755 197.432 122.899 198.14 122.899 199.052V199.988C123.451 198.572 124.207 197.48 125.167 196.712C126.151 195.92 127.267 195.524 128.515 195.524ZM140.004 213.236C137.748 213.236 135.984 212.672 134.712 211.544C133.464 210.392 132.84 208.784 132.84 206.72V202.04C132.84 199.976 133.464 198.38 134.712 197.252C135.984 196.1 137.748 195.524 140.004 195.524C142.26 195.524 144.012 196.1 145.26 197.252C146.532 198.38 147.168 199.976 147.168 202.04V206.72C147.168 208.784 146.532 210.392 145.26 211.544C144.012 212.672 142.26 213.236 140.004 213.236ZM140.004 211.292C141.516 211.292 142.68 210.896 143.496 210.104C144.336 209.312 144.756 208.184 144.756 206.72V202.04C144.756 200.576 144.336 199.448 143.496 198.656C142.68 197.864 141.516 197.468 140.004 197.468C138.492 197.468 137.316 197.864 136.476 198.656C135.66 199.448 135.252 200.576 135.252 202.04V206.72C135.252 208.184 135.66 209.312 136.476 210.104C137.316 210.896 138.492 211.292 140.004 211.292ZM160.621 195.524C162.325 195.524 163.657 196.04 164.617 197.072C165.577 198.08 166.057 199.484 166.057 201.284V212.84H163.645V201.644C163.645 200.324 163.321 199.304 162.673 198.584C162.049 197.84 161.173 197.468 160.045 197.468C158.749 197.468 157.621 197.948 156.661 198.908C155.725 199.868 155.053 201.176 154.645 202.832V212.84H152.233V198.98C152.233 198.548 152.149 198.2 151.981 197.936C151.837 197.648 151.549 197.324 151.117 196.964L152.701 195.524C153.445 195.932 153.949 196.4 154.213 196.928C154.501 197.432 154.645 198.14 154.645 199.052V199.376C155.245 198.128 156.049 197.18 157.057 196.532C158.089 195.86 159.277 195.524 160.621 195.524ZM173.73 197.864V207.944C173.73 210.08 174.666 211.148 176.538 211.148H178.59V213.056H176.538C174.738 213.056 173.418 212.648 172.578 211.832C171.738 210.992 171.318 209.696 171.318 207.944V191.996C171.318 191.564 171.234 191.216 171.066 190.952C170.922 190.664 170.634 190.34 170.202 189.98L171.822 188.54C172.542 188.948 173.034 189.416 173.298 189.944C173.586 190.448 173.73 191.156 173.73 192.068V195.92H178.59V197.864H173.73ZM189.475 211.292C190.507 211.292 191.419 211.136 192.211 210.824C193.003 210.512 193.735 210.008 194.407 209.312L195.919 210.716C195.151 211.58 194.239 212.216 193.183 212.624C192.127 213.032 190.843 213.236 189.331 213.236C187.027 213.236 185.227 212.696 183.931 211.616C182.659 210.512 182.023 208.976 182.023 207.008V201.536C182.023 199.688 182.647 198.236 183.895 197.18C185.167 196.1 186.907 195.56 189.115 195.56C191.371 195.56 193.099 196.124 194.299 197.252C195.523 198.38 196.135 199.976 196.135 202.04C196.135 203.36 195.883 204.272 195.379 204.776C194.899 205.256 193.987 205.496 192.643 205.496H184.435V207.008C184.435 208.448 184.843 209.528 185.659 210.248C186.499 210.944 187.771 211.292 189.475 211.292ZM189.079 197.468C187.639 197.468 186.499 197.852 185.659 198.62C184.843 199.364 184.435 200.384 184.435 201.68V203.732H191.635C192.451 203.732 193.003 203.6 193.291 203.336C193.579 203.048 193.723 202.52 193.723 201.752C193.723 200.408 193.315 199.364 192.499 198.62C191.683 197.852 190.543 197.468 189.079 197.468ZM209.066 195.524C210.77 195.524 212.102 196.04 213.062 197.072C214.022 198.08 214.502 199.484 214.502 201.284V212.84H212.09V201.644C212.09 200.324 211.766 199.304 211.118 198.584C210.494 197.84 209.618 197.468 208.49 197.468C207.194 197.468 206.066 197.948 205.106 198.908C204.17 199.868 203.498 201.176 203.09 202.832V212.84H200.678V198.98C200.678 198.548 200.594 198.2 200.426 197.936C200.282 197.648 199.994 197.324 199.562 196.964L201.146 195.524C201.89 195.932 202.394 196.4 202.658 196.928C202.946 197.432 203.09 198.14 203.09 199.052V199.376C203.69 198.128 204.494 197.18 205.502 196.532C206.534 195.86 207.722 195.524 209.066 195.524ZM234.272 209.78C234.272 210.212 234.344 210.572 234.488 210.86C234.656 211.124 234.956 211.436 235.388 211.796L233.804 213.236C233.204 212.9 232.76 212.468 232.472 211.94C232.184 211.388 232.016 210.824 231.968 210.248C230.72 212.24 228.812 213.236 226.244 213.236C224.756 213.236 223.448 212.9 222.32 212.228C221.216 211.532 220.352 210.56 219.728 209.312C219.128 208.064 218.828 206.612 218.828 204.956V203.804C218.828 202.148 219.128 200.696 219.728 199.448C220.352 198.2 221.216 197.24 222.32 196.568C223.448 195.872 224.756 195.524 226.244 195.524C227.468 195.524 228.56 195.764 229.52 196.244C230.504 196.724 231.284 197.408 231.86 198.296V190.232C231.86 189.8 231.788 189.452 231.644 189.188C231.5 188.924 231.2 188.588 230.744 188.18L232.4 186.776C233.096 187.16 233.576 187.616 233.84 188.144C234.128 188.672 234.272 189.392 234.272 190.304V209.78ZM231.86 201.356C231.452 200.06 230.828 199.088 229.988 198.44C229.148 197.792 228.032 197.468 226.64 197.468C225.008 197.468 223.7 198.044 222.716 199.196C221.732 200.348 221.24 201.884 221.24 203.804V204.956C221.24 206.876 221.732 208.412 222.716 209.564C223.7 210.716 225.008 211.292 226.64 211.292C228.032 211.292 229.148 210.968 229.988 210.32C230.828 209.672 231.452 208.7 231.86 207.404V201.356Z" fill="black"/>
<path d="M285.431 90.4231H283.411L282.471 86.9831C282.284 86.3164 282.078 85.7964 281.851 85.4231C281.638 85.0498 281.338 84.7698 280.951 84.5831C280.564 84.3964 280.038 84.3031 279.371 84.3031H276.551V90.4231H274.651V76.4231H280.531C281.971 76.4231 283.051 76.7564 283.771 77.4231C284.504 78.0764 284.871 79.0364 284.871 80.3031C284.871 81.2764 284.631 82.0564 284.151 82.6431C283.684 83.2298 283.018 83.5964 282.151 83.7431C282.764 83.9564 283.238 84.3231 283.571 84.8431C283.904 85.3631 284.204 86.0831 284.471 87.0031L285.431 90.4231ZM280.451 82.8031C281.224 82.8031 281.838 82.5964 282.291 82.1831C282.744 81.7564 282.971 81.1498 282.971 80.3631C282.971 79.5764 282.744 78.9764 282.291 78.5631C281.851 78.1364 281.238 77.9231 280.451 77.9231H276.551V82.8031H280.451ZM291.509 89.2831C292.056 89.2831 292.523 89.2031 292.909 89.0431C293.309 88.8831 293.696 88.6231 294.069 88.2631L295.149 89.2431C294.749 89.7231 294.249 90.0764 293.649 90.3031C293.063 90.5298 292.336 90.6431 291.469 90.6431C290.096 90.6431 289.056 90.3498 288.349 89.7631C287.656 89.1631 287.309 88.2764 287.309 87.1031V84.1231C287.309 83.0964 287.663 82.2898 288.369 81.7031C289.089 81.1031 290.069 80.8031 291.309 80.8031C292.589 80.8031 293.576 81.1164 294.269 81.7431C294.976 82.3698 295.329 83.2698 295.329 84.4431C295.329 85.2298 295.189 85.7698 294.909 86.0631C294.643 86.3564 294.123 86.5031 293.349 86.5031H289.069V87.1231C289.069 87.8431 289.269 88.3831 289.669 88.7431C290.069 89.1031 290.683 89.2831 291.509 89.2831ZM291.309 82.1631C290.603 82.1631 290.049 82.3498 289.649 82.7231C289.263 83.0964 289.069 83.6031 289.069 84.2431V85.2431H292.489C292.903 85.2431 293.183 85.1764 293.329 85.0431C293.489 84.9098 293.569 84.6564 293.569 84.2831C293.569 83.6164 293.369 83.0964 292.969 82.7231C292.569 82.3498 292.016 82.1631 291.309 82.1631ZM305.134 88.3231C305.134 88.6031 305.187 88.8364 305.294 89.0231C305.4 89.1964 305.594 89.3898 305.874 89.6031L304.694 90.6431C304.014 90.2964 303.6 89.8031 303.454 89.1631C303.134 89.6164 302.687 89.9764 302.114 90.2431C301.554 90.5098 300.907 90.6431 300.174 90.6431C299.174 90.6431 298.4 90.4098 297.854 89.9431C297.307 89.4631 297.034 88.7764 297.034 87.8831C297.034 86.9631 297.354 86.2764 297.994 85.8231C298.634 85.3698 299.514 85.0831 300.634 84.9631L301.994 84.8031C302.567 84.7364 302.94 84.6364 303.114 84.5031C303.3 84.3564 303.387 84.1098 303.374 83.7631C303.32 83.2431 303.107 82.8298 302.734 82.5231C302.374 82.2164 301.82 82.0631 301.074 82.0631C300.527 82.0631 300.06 82.1564 299.674 82.3431C299.287 82.5164 298.934 82.8031 298.614 83.2031L297.414 82.3431C297.747 81.8364 298.207 81.4564 298.794 81.2031C299.394 80.9364 300.154 80.8031 301.074 80.8031C302.42 80.8031 303.434 81.0831 304.114 81.6431C304.794 82.2031 305.134 83.0164 305.134 84.0831V88.3231ZM300.594 89.3431C301.434 89.3431 302.107 89.1231 302.614 88.6831C303.134 88.2431 303.394 87.6831 303.394 87.0031V85.6631C303.087 85.8364 302.614 85.9498 301.974 86.0031L300.794 86.1231C299.407 86.2831 298.714 86.8498 298.714 87.8231C298.714 88.3164 298.874 88.6964 299.194 88.9631C299.514 89.2164 299.98 89.3431 300.594 89.3431ZM311.743 90.6431C310.396 90.6431 309.363 90.3364 308.643 89.7231C307.936 89.1098 307.583 88.2298 307.583 87.0831V84.3631C307.583 83.2298 307.943 82.3564 308.663 81.7431C309.396 81.1164 310.429 80.8031 311.763 80.8031C313.363 80.8031 314.556 81.3164 315.343 82.3431L314.143 83.3431C313.769 82.9164 313.409 82.6164 313.063 82.4431C312.716 82.2698 312.283 82.1831 311.763 82.1831C310.989 82.1831 310.389 82.3764 309.963 82.7631C309.549 83.1364 309.343 83.6698 309.343 84.3631V87.0831C309.343 87.7764 309.549 88.3164 309.963 88.7031C310.376 89.0764 310.969 89.2631 311.743 89.2631C312.289 89.2631 312.749 89.1698 313.123 88.9831C313.509 88.7964 313.863 88.5031 314.183 88.1031L315.383 89.1031C314.996 89.6231 314.509 90.0098 313.923 90.2631C313.336 90.5164 312.609 90.6431 311.743 90.6431ZM319.275 82.4031V87.4431C319.275 88.0164 319.388 88.4431 319.615 88.7231C319.842 88.9898 320.202 89.1231 320.695 89.1231H321.975V90.5031H320.695C319.562 90.5031 318.748 90.2631 318.255 89.7831C317.762 89.3031 317.515 88.5231 317.515 87.4431V79.0831C317.515 78.8031 317.462 78.5764 317.355 78.4031C317.248 78.2164 317.055 78.0164 316.775 77.8031L317.955 76.7631C318.448 77.0298 318.788 77.3364 318.975 77.6831C319.175 78.0164 319.275 78.4831 319.275 79.0831V81.0231H321.975V82.4031H319.275Z" fill="black"/>
<path d="M129.941 21.22C129.008 21.22 128.235 21.08 127.621 20.8C127.021 20.52 126.448 20.0667 125.901 19.44L127.021 18.28C127.421 18.8 127.841 19.1733 128.281 19.4C128.721 19.6133 129.261 19.72 129.901 19.72C130.848 19.72 131.568 19.4933 132.061 19.04C132.555 18.5733 132.801 17.9067 132.801 17.04V7H134.701V17.06C134.701 18.4067 134.295 19.44 133.481 20.16C132.668 20.8667 131.488 21.22 129.941 21.22ZM145.145 18.9C145.145 19.18 145.198 19.4133 145.305 19.6C145.412 19.7733 145.605 19.9667 145.885 20.18L144.705 21.22C144.025 20.8733 143.612 20.38 143.465 19.74C143.145 20.1933 142.698 20.5533 142.125 20.82C141.565 21.0867 140.918 21.22 140.185 21.22C139.185 21.22 138.412 20.9867 137.865 20.52C137.318 20.04 137.045 19.3533 137.045 18.46C137.045 17.54 137.365 16.8533 138.005 16.4C138.645 15.9467 139.525 15.66 140.645 15.54L142.005 15.38C142.578 15.3133 142.952 15.2133 143.125 15.08C143.312 14.9333 143.398 14.6867 143.385 14.34C143.332 13.82 143.118 13.4067 142.745 13.1C142.385 12.7933 141.832 12.64 141.085 12.64C140.538 12.64 140.072 12.7333 139.685 12.92C139.298 13.0933 138.945 13.38 138.625 13.78L137.425 12.92C137.758 12.4133 138.218 12.0333 138.805 11.78C139.405 11.5133 140.165 11.38 141.085 11.38C142.432 11.38 143.445 11.66 144.125 12.22C144.805 12.78 145.145 13.5933 145.145 14.66V18.9ZM140.605 19.92C141.445 19.92 142.118 19.7 142.625 19.26C143.145 18.82 143.405 18.26 143.405 17.58V16.24C143.098 16.4133 142.625 16.5267 141.985 16.58L140.805 16.7C139.418 16.86 138.725 17.4267 138.725 18.4C138.725 18.8933 138.885 19.2733 139.205 19.54C139.525 19.7933 139.992 19.92 140.605 19.92ZM151.256 21.22C150.682 21.22 150.229 21.06 149.896 20.74C149.562 20.42 149.276 19.8667 149.036 19.08L146.736 11.6H148.436L150.656 18.96C150.762 19.32 150.849 19.56 150.916 19.68C150.996 19.7867 151.102 19.84 151.236 19.84C151.369 19.84 151.469 19.7867 151.536 19.68C151.616 19.56 151.709 19.32 151.816 18.96L154.016 11.6H155.736L153.456 19.08C153.216 19.8667 152.929 20.42 152.596 20.74C152.276 21.06 151.829 21.22 151.256 21.22ZM164.95 18.9C164.95 19.18 165.003 19.4133 165.11 19.6C165.216 19.7733 165.41 19.9667 165.69 20.18L164.51 21.22C163.83 20.8733 163.416 20.38 163.27 19.74C162.95 20.1933 162.503 20.5533 161.93 20.82C161.37 21.0867 160.723 21.22 159.99 21.22C158.99 21.22 158.216 20.9867 157.67 20.52C157.123 20.04 156.85 19.3533 156.85 18.46C156.85 17.54 157.17 16.8533 157.81 16.4C158.45 15.9467 159.33 15.66 160.45 15.54L161.81 15.38C162.383 15.3133 162.756 15.2133 162.93 15.08C163.116 14.9333 163.203 14.6867 163.19 14.34C163.136 13.82 162.923 13.4067 162.55 13.1C162.19 12.7933 161.636 12.64 160.89 12.64C160.343 12.64 159.876 12.7333 159.49 12.92C159.103 13.0933 158.75 13.38 158.43 13.78L157.23 12.92C157.563 12.4133 158.023 12.0333 158.61 11.78C159.21 11.5133 159.97 11.38 160.89 11.38C162.236 11.38 163.25 11.66 163.93 12.22C164.61 12.78 164.95 13.5933 164.95 14.66V18.9ZM160.41 19.92C161.25 19.92 161.923 19.7 162.43 19.26C162.95 18.82 163.21 18.26 163.21 17.58V16.24C162.903 16.4133 162.43 16.5267 161.79 16.58L160.61 16.7C159.223 16.86 158.53 17.4267 158.53 18.4C158.53 18.8933 158.69 19.2733 159.01 19.54C159.33 19.7933 159.796 19.92 160.41 19.92ZM172.556 21.22C171.276 21.22 170.242 21.0267 169.456 20.64C168.682 20.2533 167.956 19.6133 167.276 18.72L168.556 17.62C169.116 18.3933 169.689 18.94 170.276 19.26C170.862 19.5667 171.602 19.72 172.496 19.72C173.682 19.72 174.582 19.5133 175.196 19.1C175.822 18.6733 176.136 18.0533 176.136 17.24C176.136 16.7733 176.009 16.3933 175.756 16.1C175.516 15.8067 175.089 15.5533 174.476 15.34C173.862 15.1133 172.956 14.88 171.756 14.64C170.409 14.3733 169.416 13.92 168.776 13.28C168.136 12.64 167.816 11.7933 167.816 10.74C167.816 9.51333 168.256 8.54667 169.136 7.84C170.029 7.13333 171.249 6.78 172.796 6.78C175.076 6.78 176.689 7.53333 177.636 9.04L176.356 10.08C175.889 9.48 175.369 9.03333 174.796 8.74C174.236 8.43333 173.562 8.28 172.776 8.28C171.816 8.28 171.062 8.5 170.516 8.94C169.982 9.36667 169.716 9.95333 169.716 10.7C169.716 11.3667 169.982 11.8933 170.516 12.28C171.049 12.6533 171.856 12.9467 172.936 13.16C174.176 13.4133 175.156 13.6933 175.876 14C176.596 14.3067 177.136 14.7133 177.496 15.22C177.856 15.7267 178.036 16.3933 178.036 17.22C178.036 18.54 177.569 19.54 176.636 20.22C175.716 20.8867 174.356 21.22 172.556 21.22ZM184.156 21.22C182.81 21.22 181.776 20.9133 181.056 20.3C180.35 19.6867 179.996 18.8067 179.996 17.66V14.94C179.996 13.8067 180.356 12.9333 181.076 12.32C181.81 11.6933 182.843 11.38 184.176 11.38C185.776 11.38 186.97 11.8933 187.756 12.92L186.556 13.92C186.183 13.4933 185.823 13.1933 185.476 13.02C185.13 12.8467 184.696 12.76 184.176 12.76C183.403 12.76 182.803 12.9533 182.376 13.34C181.963 13.7133 181.756 14.2467 181.756 14.94V17.66C181.756 18.3533 181.963 18.8933 182.376 19.28C182.79 19.6533 183.383 19.84 184.156 19.84C184.703 19.84 185.163 19.7467 185.536 19.56C185.923 19.3733 186.276 19.08 186.596 18.68L187.796 19.68C187.41 20.2 186.923 20.5867 186.336 20.84C185.75 21.0933 185.023 21.22 184.156 21.22ZM194.806 11.38C195.38 11.38 195.86 11.52 196.246 11.8L195.806 13.34C195.353 13.0733 194.873 12.94 194.366 12.94C193.766 12.94 193.253 13.1933 192.826 13.7C192.4 14.2067 192.086 14.8867 191.886 15.74V21H190.126V13.7C190.126 13.42 190.073 13.1933 189.966 13.02C189.86 12.8333 189.666 12.6333 189.386 12.42L190.566 11.38C191.033 11.6333 191.36 11.9133 191.546 12.22C191.746 12.5133 191.86 12.9267 191.886 13.46C192.18 12.8067 192.573 12.3 193.066 11.94C193.56 11.5667 194.14 11.38 194.806 11.38ZM199.015 9.76C198.708 9.76 198.442 9.65333 198.215 9.44C198.002 9.21333 197.895 8.94667 197.895 8.64C197.895 8.33333 198.002 8.07333 198.215 7.86C198.442 7.63333 198.708 7.52 199.015 7.52C199.322 7.52 199.582 7.63333 199.795 7.86C200.022 8.07333 200.135 8.33333 200.135 8.64C200.135 8.94667 200.022 9.21333 199.795 9.44C199.582 9.65333 199.322 9.76 199.015 9.76ZM199.455 21.22C198.962 20.9533 198.615 20.6533 198.415 20.32C198.228 19.9733 198.135 19.5 198.135 18.9V11.6H199.895V18.9C199.895 19.18 199.948 19.4133 200.055 19.6C200.162 19.7733 200.355 19.9667 200.635 20.18L199.455 21.22ZM207.993 11.38C208.873 11.38 209.62 11.5933 210.233 12.02C210.86 12.4333 211.327 12.9933 211.633 13.7C211.94 14.3933 212.093 15.1533 212.093 15.98V16.62C212.093 17.4467 211.94 18.2133 211.633 18.92C211.327 19.6133 210.86 20.1733 210.233 20.6C209.62 21.0133 208.873 21.22 207.993 21.22C207.193 21.22 206.553 21.0933 206.073 20.84C205.607 20.5733 205.227 20.22 204.933 19.78V25.38H203.173V13.7C203.173 13.42 203.12 13.1933 203.013 13.02C202.907 12.8333 202.713 12.6333 202.433 12.42L203.593 11.38C203.98 11.5933 204.267 11.82 204.453 12.06C204.653 12.3 204.78 12.6 204.833 12.96C205.527 11.9067 206.58 11.38 207.993 11.38ZM210.333 15.98C210.333 15.0333 210.08 14.26 209.573 13.66C209.08 13.06 208.413 12.76 207.573 12.76C206.213 12.76 205.333 13.42 204.933 14.74V17.86C205.333 19.18 206.213 19.84 207.573 19.84C208.413 19.84 209.08 19.54 209.573 18.94C210.08 18.34 210.333 17.5667 210.333 16.62V15.98ZM216.2 12.98V18.02C216.2 18.5933 216.314 19.02 216.54 19.3C216.767 19.5667 217.127 19.7 217.62 19.7H218.9V21.08H217.62C216.487 21.08 215.674 20.84 215.18 20.36C214.687 19.88 214.44 19.1 214.44 18.02V9.66C214.44 9.38 214.387 9.15333 214.28 8.98C214.174 8.79333 213.98 8.59333 213.7 8.38L214.88 7.34C215.374 7.60667 215.714 7.91333 215.9 8.26C216.1 8.59333 216.2 9.06 216.2 9.66V11.6H218.9V12.98H216.2Z" fill="black"/>
<path d="M286.061 321V332.52C286.061 333.347 285.888 333.967 285.541 334.38C285.208 334.793 284.675 335 283.941 335H282.601L276.841 323.92V335H275.041V321H277.241L283.581 333.36H283.701C283.915 333.36 284.061 333.28 284.141 333.12C284.221 332.96 284.261 332.667 284.261 332.24V321H286.061ZM292.954 333.86C293.501 333.86 293.968 333.78 294.354 333.62C294.754 333.46 295.141 333.2 295.514 332.84L296.594 333.82C296.194 334.3 295.694 334.653 295.094 334.88C294.508 335.107 293.781 335.22 292.914 335.22C291.541 335.22 290.501 334.927 289.794 334.34C289.101 333.74 288.754 332.853 288.754 331.68V328.7C288.754 327.673 289.108 326.867 289.814 326.28C290.534 325.68 291.514 325.38 292.754 325.38C294.034 325.38 295.021 325.693 295.714 326.32C296.421 326.947 296.774 327.847 296.774 329.02C296.774 329.807 296.634 330.347 296.354 330.64C296.088 330.933 295.568 331.08 294.794 331.08H290.514V331.7C290.514 332.42 290.714 332.96 291.114 333.32C291.514 333.68 292.128 333.86 292.954 333.86ZM292.754 326.74C292.048 326.74 291.494 326.927 291.094 327.3C290.708 327.673 290.514 328.18 290.514 328.82V329.82H293.934C294.348 329.82 294.628 329.753 294.774 329.62C294.934 329.487 295.014 329.233 295.014 328.86C295.014 328.193 294.814 327.673 294.414 327.3C294.014 326.927 293.461 326.74 292.754 326.74ZM304.006 335L301.606 331.46L299.286 335H297.486L300.686 330.1L297.646 325.6H299.426L301.726 328.98L303.946 325.6H305.746L302.666 330.36L305.806 335H304.006ZM309.216 326.98V332.02C309.216 332.593 309.329 333.02 309.556 333.3C309.783 333.567 310.143 333.7 310.636 333.7H311.916V335.08H310.636C309.503 335.08 308.689 334.84 308.196 334.36C307.703 333.88 307.456 333.1 307.456 332.02V323.66C307.456 323.38 307.403 323.153 307.296 322.98C307.189 322.793 306.996 322.593 306.716 322.38L307.896 321.34C308.389 321.607 308.729 321.913 308.916 322.26C309.116 322.593 309.216 323.06 309.216 323.66V325.6H311.916V326.98H309.216ZM315.074 335.22C314.741 335.22 314.461 335.107 314.234 334.88C314.008 334.653 313.894 334.373 313.894 334.04C313.894 333.707 314.008 333.427 314.234 333.2C314.461 332.96 314.741 332.84 315.074 332.84C315.408 332.84 315.688 332.96 315.914 333.2C316.141 333.427 316.254 333.707 316.254 334.04C316.254 334.373 316.141 334.653 315.914 334.88C315.688 335.107 315.408 335.22 315.074 335.22ZM319.477 323.76C319.171 323.76 318.904 323.653 318.677 323.44C318.464 323.213 318.357 322.947 318.357 322.64C318.357 322.333 318.471 322.073 318.697 321.86C318.924 321.633 319.184 321.52 319.477 321.52C319.784 321.52 320.044 321.633 320.257 321.86C320.484 322.073 320.597 322.333 320.597 322.64C320.597 322.947 320.484 323.213 320.257 323.44C320.044 323.653 319.784 323.76 319.477 323.76ZM315.497 338.18H316.477C317.211 338.18 317.744 337.993 318.077 337.62C318.424 337.26 318.597 336.687 318.597 335.9V325.6H320.357V335.9C320.357 337.193 320.051 338.127 319.437 338.7C318.837 339.273 317.851 339.56 316.477 339.56H315.497V338.18ZM326.116 335.22C325.236 335.22 324.523 335.093 323.976 334.84C323.443 334.573 322.95 334.147 322.496 333.56L323.616 332.6C324.003 333.053 324.376 333.373 324.736 333.56C325.11 333.747 325.57 333.84 326.116 333.84C327.57 333.84 328.296 333.38 328.296 332.46C328.296 332.167 328.216 331.933 328.056 331.76C327.91 331.573 327.643 331.42 327.256 331.3C326.883 331.167 326.316 331.033 325.556 330.9C324.623 330.713 323.923 330.393 323.456 329.94C322.99 329.473 322.756 328.86 322.756 328.1C322.756 327.247 323.07 326.58 323.696 326.1C324.323 325.62 325.183 325.38 326.276 325.38C327.89 325.38 329.023 325.893 329.676 326.92L328.556 327.86C328.236 327.473 327.896 327.193 327.536 327.02C327.19 326.847 326.77 326.76 326.276 326.76C325.69 326.76 325.236 326.88 324.916 327.12C324.596 327.36 324.436 327.693 324.436 328.12C324.436 328.507 324.59 328.807 324.896 329.02C325.203 329.22 325.69 329.387 326.356 329.52C327.236 329.72 327.93 329.933 328.436 330.16C328.943 330.373 329.323 330.667 329.576 331.04C329.83 331.4 329.956 331.88 329.956 332.48C329.956 334.307 328.676 335.22 326.116 335.22Z" fill="black"/>
<path d="M19.3716 327.22C17.5183 327.22 16.105 326.793 15.1316 325.94C14.1583 325.073 13.6716 323.8 13.6716 322.12V317.86C13.6716 316.207 14.1516 314.947 15.1116 314.08C16.0716 313.213 17.4516 312.78 19.2516 312.78C20.465 312.78 21.485 312.973 22.3116 313.36C23.1383 313.747 23.8116 314.34 24.3316 315.14L22.9716 316.1C22.5183 315.473 22.005 315.013 21.4316 314.72C20.8583 314.427 20.145 314.28 19.2916 314.28C16.8116 314.28 15.5716 315.473 15.5716 317.86V322.12C15.5716 324.52 16.8383 325.72 19.3716 325.72C20.2783 325.72 21.025 325.567 21.6116 325.26C22.1983 324.953 22.7116 324.473 23.1516 323.82L24.4916 324.84C23.8783 325.68 23.1783 326.287 22.3916 326.66C21.6183 327.033 20.6116 327.22 19.3716 327.22ZM31.2274 327.22C29.9474 327.22 28.9141 327.027 28.1274 326.64C27.3541 326.253 26.6274 325.613 25.9474 324.72L27.2274 323.62C27.7874 324.393 28.3608 324.94 28.9474 325.26C29.5341 325.567 30.2741 325.72 31.1674 325.72C32.3541 325.72 33.2541 325.513 33.8674 325.1C34.4941 324.673 34.8074 324.053 34.8074 323.24C34.8074 322.773 34.6808 322.393 34.4274 322.1C34.1874 321.807 33.7608 321.553 33.1474 321.34C32.5341 321.113 31.6274 320.88 30.4274 320.64C29.0808 320.373 28.0874 319.92 27.4474 319.28C26.8074 318.64 26.4874 317.793 26.4874 316.74C26.4874 315.513 26.9274 314.547 27.8074 313.84C28.7008 313.133 29.9208 312.78 31.4674 312.78C33.7474 312.78 35.3608 313.533 36.3074 315.04L35.0274 316.08C34.5608 315.48 34.0408 315.033 33.4674 314.74C32.9074 314.433 32.2341 314.28 31.4474 314.28C30.4874 314.28 29.7341 314.5 29.1874 314.94C28.6541 315.367 28.3874 315.953 28.3874 316.7C28.3874 317.367 28.6541 317.893 29.1874 318.28C29.7208 318.653 30.5274 318.947 31.6074 319.16C32.8474 319.413 33.8274 319.693 34.5474 320C35.2674 320.307 35.8074 320.713 36.1674 321.22C36.5274 321.727 36.7074 322.393 36.7074 323.22C36.7074 324.54 36.2408 325.54 35.3074 326.22C34.3874 326.887 33.0274 327.22 31.2274 327.22ZM43.6884 327.22C42.4084 327.22 41.375 327.027 40.5884 326.64C39.815 326.253 39.0884 325.613 38.4084 324.72L39.6884 323.62C40.2484 324.393 40.8217 324.94 41.4084 325.26C41.995 325.567 42.735 325.72 43.6284 325.72C44.815 325.72 45.715 325.513 46.3284 325.1C46.955 324.673 47.2684 324.053 47.2684 323.24C47.2684 322.773 47.1417 322.393 46.8884 322.1C46.6484 321.807 46.2217 321.553 45.6084 321.34C44.995 321.113 44.0884 320.88 42.8884 320.64C41.5417 320.373 40.5484 319.92 39.9084 319.28C39.2684 318.64 38.9484 317.793 38.9484 316.74C38.9484 315.513 39.3884 314.547 40.2684 313.84C41.1617 313.133 42.3817 312.78 43.9284 312.78C46.2084 312.78 47.8217 313.533 48.7684 315.04L47.4884 316.08C47.0217 315.48 46.5017 315.033 45.9284 314.74C45.3684 314.433 44.695 314.28 43.9084 314.28C42.9484 314.28 42.195 314.5 41.6484 314.94C41.115 315.367 40.8484 315.953 40.8484 316.7C40.8484 317.367 41.115 317.893 41.6484 318.28C42.1817 318.653 42.9884 318.947 44.0684 319.16C45.3084 319.413 46.2884 319.693 47.0084 320C47.7284 320.307 48.2684 320.713 48.6284 321.22C48.9884 321.727 49.1684 322.393 49.1684 323.22C49.1684 324.54 48.7017 325.54 47.7684 326.22C46.8484 326.887 45.4884 327.22 43.6884 327.22ZM63.3651 319.66C64.2584 319.847 64.9717 320.247 65.5051 320.86C66.0517 321.473 66.3251 322.24 66.3251 323.16C66.3251 324.413 65.8517 325.407 64.9051 326.14C63.9717 326.86 62.6917 327.22 61.0651 327.22C60.0917 327.22 59.1784 327.053 58.3251 326.72C57.4851 326.387 56.7784 325.873 56.2051 325.18L57.2251 324.16C57.7717 324.72 58.3517 325.14 58.9651 325.42C59.5784 325.7 60.2917 325.84 61.1051 325.84C62.1984 325.84 63.0451 325.6 63.6451 325.12C64.2584 324.64 64.5651 323.98 64.5651 323.14C64.5651 322.22 64.2384 321.527 63.5851 321.06C62.9317 320.58 61.9584 320.34 60.6651 320.34C60.2251 320.34 59.6184 320.387 58.8451 320.48L58.6251 319.3C60.0117 319.26 61.1051 319.147 61.9051 318.96C62.7184 318.773 63.3051 318.493 63.6651 318.12C64.0251 317.747 64.2051 317.247 64.2051 316.62C64.2051 315.847 63.9184 315.247 63.3451 314.82C62.7717 314.38 61.9917 314.16 61.0051 314.16C59.5384 314.16 58.3784 314.68 57.5251 315.72L56.7051 314.5C57.7717 313.353 59.2384 312.78 61.1051 312.78C62.5451 312.78 63.7117 313.093 64.6051 313.72C65.5117 314.347 65.9651 315.267 65.9651 316.48C65.9651 317.267 65.7384 317.933 65.2851 318.48C64.8451 319.027 64.2051 319.42 63.3651 319.66Z" fill="black"/>
<path d="M6.05875 77H7.95875V83.22H14.9188V77H16.8188V91H14.9188V84.74H7.95875V91H6.05875V77ZM23.5928 78.5H19.1728V77H29.9328V78.5H25.4928V91H23.5928V78.5ZM32.3088 77H33.3688C34.1154 77 34.6888 77.16 35.0888 77.48C35.5021 77.8 35.9288 78.3933 36.3688 79.26L38.7288 83.8L41.0888 79.26C41.5288 78.3933 41.9488 77.8 42.3488 77.48C42.7621 77.16 43.3421 77 44.0888 77H45.1488V91H43.3888V78.94C43.2154 78.9533 43.0621 79.0267 42.9288 79.16C42.8088 79.28 42.6621 79.4933 42.4888 79.8L38.7288 86.86L34.9688 79.8C34.8088 79.4933 34.6621 79.28 34.5288 79.16C34.3954 79.0267 34.2421 78.9533 34.0688 78.94V91H32.3088V77ZM52.9322 91C51.3455 91 50.1789 90.6467 49.4322 89.94C48.6989 89.2333 48.3322 88.1733 48.3322 86.76V77H50.2322V86.76C50.2322 87.6933 50.4522 88.3867 50.8922 88.84C51.3322 89.28 52.0122 89.5 52.9322 89.5H57.4322V91H52.9322ZM69.1427 91.22C68.1293 91.22 67.196 91.0667 66.3427 90.76C65.5027 90.44 64.8093 89.94 64.2627 89.26L65.2827 88.24C65.7093 88.8 66.2493 89.2067 66.9027 89.46C67.556 89.7133 68.276 89.84 69.0627 89.84C70.276 89.84 71.196 89.5733 71.8227 89.04C72.4627 88.5067 72.7827 87.7333 72.7827 86.72C72.7827 84.6267 71.476 83.58 68.8627 83.58C67.9293 83.58 66.9693 83.72 65.9827 84L65.0427 82.9L65.6227 77H73.7427V78.38H67.0627L66.6827 82.42C67.3493 82.2467 68.0893 82.16 68.9027 82.16C70.7427 82.16 72.1427 82.5467 73.1027 83.32C74.0627 84.0933 74.5427 85.22 74.5427 86.7C74.5427 88.14 74.0693 89.2533 73.1227 90.04C72.176 90.8267 70.8493 91.22 69.1427 91.22Z" fill="black"/>
<defs>
<filter id="filter0_d_146_37" x="21.3026" y="59.2825" width="309.778" height="291.426" filterUnits="userSpaceOnUse" color-interpolation-filters="sRGB">
<feFlood flood-opacity="0" result="BackgroundImageFix"/>
<feColorMatrix in="SourceAlpha" type="matrix" values="0 0 0 0 0 0 0 0 0 0 0 0 0 0 0 0 0 0 127 0" result="hardAlpha"/>
<feMorphology radius="4" operator="dilate" in="SourceAlpha" result="effect1_dropShadow_146_37"/>
<feOffset dx="5" dy="6"/>
<feGaussianBlur stdDeviation="2"/>
<feComposite in2="hardAlpha" operator="out"/>
<feColorMatrix type="matrix" values="0 0 0 0 0 0 0 0 0 0 0 0 0 0 0 0 0 0 0.25 0"/>
<feBlend mode="normal" in2="BackgroundImageFix" result="effect1_dropShadow_146_37"/>
<feBlend mode="normal" in="SourceGraphic" in2="effect1_dropShadow_146_37" result="shape"/>
</filter>
<filter id="filter1_d_146_37" x="0" y="103.264" width="84.9053" height="78.3944" filterUnits="userSpaceOnUse" color-interpolation-filters="sRGB">
<feFlood flood-opacity="0" result="BackgroundImageFix"/>
<feColorMatrix in="SourceAlpha" type="matrix" values="0 0 0 0 0 0 0 0 0 0 0 0 0 0 0 0 0 0 127 0" result="hardAlpha"/>
<feOffset dx="2" dy="2"/>
<feGaussianBlur stdDeviation="2"/>
<feComposite in2="hardAlpha" operator="out"/>
<feColorMatrix type="matrix" values="0 0 0 0 0 0 0 0 0 0 0 0 0 0 0 0 0 0 0.25 0"/>
<feBlend mode="normal" in2="BackgroundImageFix" result="effect1_dropShadow_146_37"/>
<feBlend mode="normal" in="SourceGraphic" in2="effect1_dropShadow_146_37" result="shape"/>
</filter>
<filter id="filter2_d_146_37" x="0" y="224.394" width="84.9053" height="78.3944" filterUnits="userSpaceOnUse" color-interpolation-filters="sRGB">
<feFlood flood-opacity="0" result="BackgroundImageFix"/>
<feColorMatrix in="SourceAlpha" type="matrix" values="0 0 0 0 0 0 0 0 0 0 0 0 0 0 0 0 0 0 127 0" result="hardAlpha"/>
<feOffset dx="2" dy="2"/>
<feGaussianBlur stdDeviation="2"/>
<feComposite in2="hardAlpha" operator="out"/>
<feColorMatrix type="matrix" values="0 0 0 0 0 0 0 0 0 0 0 0 0 0 0 0 0 0 0.25 0"/>
<feBlend mode="normal" in2="BackgroundImageFix" result="effect1_dropShadow_146_37"/>
<feBlend mode="normal" in="SourceGraphic" in2="effect1_dropShadow_146_37" result="shape"/>
</filter>
<filter id="filter3_d_146_37" x="124" y="291" width="93" height="91.7426" filterUnits="userSpaceOnUse" color-interpolation-filters="sRGB">
<feFlood flood-opacity="0" result="BackgroundImageFix"/>
<feColorMatrix in="SourceAlpha" type="matrix" values="0 0 0 0 0 0 0 0 0 0 0 0 0 0 0 0 0 0 127 0" result="hardAlpha"/>
<feOffset dx="2" dy="2"/>
<feGaussianBlur stdDeviation="2"/>
<feComposite in2="hardAlpha" operator="out"/>
<feColorMatrix type="matrix" values="0 0 0 0 0 0 0 0 0 0 0 0 0 0 0 0 0 0 0.25 0"/>
<feBlend mode="normal" in2="BackgroundImageFix" result="effect1_dropShadow_146_37"/>
<feBlend mode="normal" in="SourceGraphic" in2="effect1_dropShadow_146_37" result="shape"/>
</filter>
<filter id="filter4_d_146_37" x="256.095" y="226.557" width="84.9053" height="78.3944" filterUnits="userSpaceOnUse" color-interpolation-filters="sRGB">
<feFlood flood-opacity="0" result="BackgroundImageFix"/>
<feColorMatrix in="SourceAlpha" type="matrix" values="0 0 0 0 0 0 0 0 0 0 0 0 0 0 0 0 0 0 127 0" result="hardAlpha"/>
<feOffset dx="2" dy="2"/>
<feGaussianBlur stdDeviation="2"/>
<feComposite in2="hardAlpha" operator="out"/>
<feColorMatrix type="matrix" values="0 0 0 0 0 0 0 0 0 0 0 0 0 0 0 0 0 0 0.25 0"/>
<feBlend mode="normal" in2="BackgroundImageFix" result="effect1_dropShadow_146_37"/>
<feBlend mode="normal" in="SourceGraphic" in2="effect1_dropShadow_146_37" result="shape"/>
</filter>
<filter id="filter5_d_146_37" x="256.095" y="103.264" width="84.9053" height="78.3944" filterUnits="userSpaceOnUse" color-interpolation-filters="sRGB">
<feFlood flood-opacity="0" result="BackgroundImageFix"/>
<feColorMatrix in="SourceAlpha" type="matrix" values="0 0 0 0 0 0 0 0 0 0 0 0 0 0 0 0 0 0 127 0" result="hardAlpha"/>
<feOffset dx="2" dy="2"/>
<feGaussianBlur stdDeviation="2"/>
<feComposite in2="hardAlpha" operator="out"/>
<feColorMatrix type="matrix" values="0 0 0 0 0 0 0 0 0 0 0 0 0 0 0 0 0 0 0.25 0"/>
<feBlend mode="normal" in2="BackgroundImageFix" result="effect1_dropShadow_146_37"/>
<feBlend mode="normal" in="SourceGraphic" in2="effect1_dropShadow_146_37" result="shape"/>
</filter>
<filter id="filter6_d_146_37" x="127" y="29" width="93" height="91.7426" filterUnits="userSpaceOnUse" color-interpolation-filters="sRGB">
<feFlood flood-opacity="0" result="BackgroundImageFix"/>
<feColorMatrix in="SourceAlpha" type="matrix" values="0 0 0 0 0 0 0 0 0 0 0 0 0 0 0 0 0 0 127 0" result="hardAlpha"/>
<feOffset dx="2" dy="2"/>
<feGaussianBlur stdDeviation="2"/>
<feComposite in2="hardAlpha" operator="out"/>
<feColorMatrix type="matrix" values="0 0 0 0 0 0 0 0 0 0 0 0 0 0 0 0 0 0 0.25 0"/>
<feBlend mode="normal" in2="BackgroundImageFix" result="effect1_dropShadow_146_37"/>
<feBlend mode="normal" in="SourceGraphic" in2="effect1_dropShadow_146_37" result="shape"/>
</filter>
<clipPath id="clip0_146_37">
<rect width="47" height="44.0639" fill="white" transform="translate(17 120.654)"/>
</clipPath>
<clipPath id="clip1_146_37">
<rect width="47" height="44.0639" fill="white" transform="translate(17 241.834)"/>
</clipPath>
<clipPath id="clip2_146_37">
<rect width="47" height="47" fill="white" transform="translate(145 311.719)"/>
</clipPath>
<clipPath id="clip3_146_37">
<rect width="61" height="12" fill="white" transform="translate(266 258)"/>
</clipPath>
<clipPath id="clip4_146_37">
<rect width="50" height="50" fill="white" transform="translate(272 115.728)"/>
</clipPath>
<clipPath id="clip5_146_37">
<rect width="47" height="47" fill="white" transform="translate(148.261 49.719)"/>
</clipPath>
</defs>
</svg>
