<svg xmlns="http://www.w3.org/2000/svg" viewBox="0 0 331.72 475.31"><defs><style>.cls-1{fill:#fff;}</style></defs><g id="Layer_2" data-name="Layer 2"><g id="Ñëîé_2" data-name="Ñëîé 2"><circle class="cls-1" cx="191.71" cy="114.26" r="36.12" transform="translate(-29.13 82.06) rotate(-22.5)"/><path class="cls-1" d="M331.72,475.31H0V165.86C0,74.4,74.4,0,165.86,0S331.72,74.4,331.72,165.86ZM4.4,470.9H327.31v-305c0-89-72.43-161.46-161.45-161.46S4.4,76.83,4.4,165.86ZM263,437.72a292.34,292.34,0,0,1-137.88-34.51c-39-20.93-72.73-50.5-105.32-79.09l-.75-.66V266.84l3.23,1.73c32.12,17.18,70.42,28.67,105.2,31.59,17.73-11.49,42.12-22.52,63.87-28.88,6.06-1.77,12.26-3.47,18.25-5.12,15.46-4.25,31.45-8.65,46.55-14.61,22.54-8.89,40.24-20.46,52.59-34.36l3.85-4.33V326.41l-1.23.6c-25.48,12.54-48.56,23.6-72.9,32.11-19.45,6.81-41.58,14-64.27,16.41q4.26,1.13,8.34,2.11c42.07,10.15,86.3,13.69,128,16.45l2.06.13v39.23l-1.84.3A287.84,287.84,0,0,1,263,437.72ZM23.49,321.47C55.66,349.69,89,378.79,127.24,399.33a287.88,287.88,0,0,0,181,30.38V398.35c-41.29-2.76-85-6.37-126.69-16.43-6.7-1.62-13.77-3.53-21-5.68l-13.75-4.09,14.34-.22c26.51-.41,53.09-9,75.92-17,23.73-8.3,46.32-19.08,71.19-31.3V224.2c-12.53,12.61-29.46,23.17-50.42,31.44-15.32,6.05-31.43,10.48-47,14.76-6,1.65-12.15,3.34-18.19,5.11-21.62,6.32-45.89,17.33-63.33,28.75l-.63.41-.75-.06c-34.4-2.77-72.24-13.82-104.42-30.45Z"/><path class="cls-1" d="M146.71,305.34q-3.41,0-6.79-.09c-3.84-.09-7.89-.31-12-.64l-6.4-.52,5.37-3.52c17.78-11.63,42.5-22.85,64.51-29.29,6.06-1.77,12.26-3.47,18.25-5.12,15.46-4.25,31.45-8.65,46.55-14.61,22.54-8.89,40.24-20.46,52.59-34.36l3.85-4.33v90.4l-2.72-.66c-27.69-6.73-57.27-5.45-79.93-3.57-8.37.68-16.89,1.55-25.12,2.38C185.83,303.35,166.22,305.34,146.71,305.34ZM135,300.67c1.69.08,3.37.14,5,.18,21.48.54,43.29-1.67,64.39-3.82,8.25-.83,16.78-1.7,25.19-2.39,22.27-1.84,51.12-3.12,78.62,3V224.2c-12.53,12.61-29.46,23.17-50.42,31.44-15.32,6.05-31.43,10.48-47,14.76-6,1.65-12.15,3.34-18.19,5.11A259.16,259.16,0,0,0,135,300.67Z"/><path class="cls-1" d="M263,437.72a292.34,292.34,0,0,1-137.88-34.51c-39-20.93-72.73-50.5-105.32-79.09l-.75-.66v-11l6,2.85c44.17,21,89.83,42.76,136.43,56.67l.29.09c7.17,2.13,14.16,4,20.79,5.62,42.07,10.15,86.3,13.69,128,16.45l2.06.14v39.22l-1.84.3A287.84,287.84,0,0,1,263,437.72ZM23.49,321.47C55.66,349.69,89,378.79,127.24,399.33a287.88,287.88,0,0,0,181,30.38V398.35c-41.29-2.76-85-6.37-126.69-16.43-6.61-1.59-13.57-3.47-20.71-5.59h0l-.31-.09c-46.91-14-92.72-35.76-137-56.86Z"/><path class="cls-1" d="M310.43,300.46V325c-23.77,11.69-47.66,23.26-72.66,32-24.65,8.62-50.54,16.68-76.62,17.08h0c-47.86-14.26-95.2-37-139.85-58.23V270.51c31.79,17,70.36,29,106.8,31.9q6,.49,11.89.64c30,.76,59.89-3.76,89.81-6.22C256.72,294.61,284.27,294.1,310.43,300.46Z"/><path class="cls-1" d="M160.85,376.33l-.33-.09c-47-14-92.94-35.87-137.35-57l-4.08-1.94V266.84l3.23,1.73c32.35,17.3,71,28.84,105.94,31.65,4.05.33,8,.54,11.77.63,21.47.54,43.29-1.67,64.39-3.82,8.25-.83,16.78-1.7,25.19-2.39,23-1.9,53-3.2,81.34,3.68l1.68.41v27.68l-1.23.61c-25.48,12.53-48.56,23.59-72.9,32.1-23.16,8.11-50.14,16.79-77.31,17.21ZM23.49,314.51l1.57.75c44.16,21,89.81,42.75,136.39,56.66,26.38-.47,52.85-9,75.59-16.95,23.73-8.3,46.32-19.08,71.19-31.3V302.2c-27.21-6.28-56-5-78.25-3.17-8.37.68-16.89,1.55-25.12,2.38-21.23,2.16-43.2,4.39-64.94,3.84-3.84-.09-7.89-.31-12-.64-34.4-2.77-72.24-13.82-104.42-30.45Z"/><path class="cls-1" d="M128.66,304.67l-.75-.06C92.35,301.75,53.11,290,20.25,272.45l-1.16-.62v-106c0-80.93,65.84-146.77,146.77-146.77S312.63,84.93,312.63,165.86v53.62l-.55.63c-12.83,14.43-31.08,26.38-54.27,35.53-15.32,6.05-31.43,10.48-47,14.76-6,1.65-12.15,3.34-18.19,5.11-21.62,6.32-45.89,17.33-63.33,28.75ZM23.49,269.19c31.87,16.83,69.67,28.09,104,31,17.73-11.49,42.12-22.52,63.87-28.88,6.06-1.77,12.26-3.47,18.25-5.12,15.46-4.25,31.45-8.65,46.55-14.61,22.21-8.76,39.71-20.11,52-33.74V165.86c0-78.5-63.87-142.37-142.37-142.37S23.49,87.36,23.49,165.86Z"/><path class="cls-1" d="M312.63,398.64l-2.35-.16c-41.89-2.77-86.34-6.33-128.74-16.56-6.7-1.62-13.77-3.53-21-5.68l-13.75-4.09,14.34-.22c26.51-.41,53.09-9,75.92-17,24.12-8.43,47.07-19.44,72.42-31.91l3.17-1.56Zm-138.4-23.11q4.26,1.13,8.34,2.11c41.28,10,84.65,13.56,125.66,16.29V328.57C284,340.46,261.83,351,238.5,359.12,219.05,365.93,196.92,373.14,174.23,375.53Z"/><path class="cls-1" d="M310.43,431.58V454H21.29V322.46c33,28.92,66.28,58.09,104.91,78.81A291.13,291.13,0,0,0,310.43,431.58Z"/><path class="cls-1" d="M312.63,456.22H19.09V317.6l3.65,3.21c32.41,28.43,65.92,57.82,104.5,78.52a287.83,287.83,0,0,0,182.82,30.08l2.57-.43Zm-289.14-4.4H308.23V434.17a292.26,292.26,0,0,1-183.07-31C87.59,383.06,55,354.9,23.49,327.32Z"/><path class="cls-1" d="M78.81,154.15l-2-4.85a18.18,18.18,0,0,0-10.06-10.05l-4.69-2,4.69-2a18.16,18.16,0,0,0,10.06-10l2-4.86,2,4.86a18.16,18.16,0,0,0,10.06,10l4.69,2-4.69,2A18.18,18.18,0,0,0,80.84,149.3Zm-6.55-16.92a22,22,0,0,1,6.55,6.52,22.13,22.13,0,0,1,6.55-6.52,22.1,22.1,0,0,1-6.55-6.51A22,22,0,0,1,72.26,137.23Z"/><path class="cls-1" d="M260.39,199l-2-4.86a18.16,18.16,0,0,0-10.06-10l-4.69-2,4.69-2A18.18,18.18,0,0,0,258.36,170l2-4.85,2,4.85A18.18,18.18,0,0,0,272.48,180l4.69,2-4.69,2a18.16,18.16,0,0,0-10.06,10Zm-6.55-16.92a22.1,22.1,0,0,1,6.55,6.51,22,22,0,0,1,6.55-6.51,22,22,0,0,1-6.55-6.52A22.13,22.13,0,0,1,253.84,182.05Z"/><path class="cls-1" d="M128.78,245.37l-2-4.86a18.18,18.18,0,0,0-10-10l-4.69-2,4.69-2a18.19,18.19,0,0,0,10-10.05l2-4.85,2,4.85a18.16,18.16,0,0,0,10.05,10.05l4.69,2-4.69,2a18.15,18.15,0,0,0-10.05,10Zm-6.55-16.92a22,22,0,0,1,6.55,6.51,22.21,22.21,0,0,1,6.55-6.51,22.25,22.25,0,0,1-6.55-6.52A22,22,0,0,1,122.23,228.45Z"/></g></g></svg>