<svg width="266" height="345" viewBox="0 0 266 345" fill="none" xmlns="http://www.w3.org/2000/svg">
<g filter="url(#filter0_d_180_319)">
<circle cx="129.997" cy="190.201" r="116" stroke="black" stroke-width="5" shape-rendering="crispEdges"/>
</g>
<g filter="url(#filter1_d_180_319)">
<circle cx="44.9971" cy="276.5" r="42.5" fill="#EEE7DB"/>
<circle cx="44.9971" cy="276.5" r="40" stroke="black" stroke-width="5"/>
</g>
<path d="M74.7207 279.986C76.8203 263.549 65.2124 248.522 48.8054 246.422C32.3983 244.323 17.311 255.931 15.2114 272.338C13.1118 288.745 24.7197 303.802 41.1268 305.932C57.5638 308.031 72.5911 296.423 74.7207 279.986Z" fill="#FF6C37"/>
<path d="M55.4041 264.599L42.8673 276.705L39.332 273.291C51.6609 261.386 52.8789 262.419 55.4041 264.599Z" fill="white"/>
<path d="M42.8674 276.991C42.7783 276.991 42.7189 276.963 42.6595 276.905L39.0945 273.492C38.9757 273.377 38.9757 273.205 39.0945 273.09C51.6313 260.984 52.9385 262.132 55.5825 264.427C55.6419 264.484 55.6716 264.541 55.6716 264.628C55.6716 264.714 55.6419 264.771 55.5825 264.828L43.0457 276.905C43.016 276.963 42.9268 276.991 42.8674 276.991ZM39.7481 273.291L42.8674 276.303L54.9586 264.628C52.7602 262.734 51.2748 262.16 39.7481 273.291Z" fill="#FF6C37"/>
<path d="M46.4621 280.176L43.0457 276.877L55.5825 264.771C58.9395 268.041 53.9188 273.348 46.4621 280.176Z" fill="white"/>
<path d="M46.4621 280.462C46.373 280.462 46.3136 280.434 46.2542 280.376L42.8377 277.077C42.7783 277.02 42.7783 276.963 42.7783 276.877C42.7783 276.791 42.808 276.733 42.8674 276.676L55.4043 264.57C55.5231 264.455 55.7013 264.455 55.8202 264.57C56.5926 265.259 57.0085 266.234 56.9788 267.238C56.9194 270.422 53.1761 274.467 46.6998 280.376C46.6107 280.434 46.5215 280.462 46.4621 280.462ZM43.4616 276.877C45.3629 278.741 46.165 279.487 46.4621 279.774C51.4531 275.184 56.2955 270.48 56.3252 267.238C56.3549 266.492 56.0578 265.746 55.5528 265.173L43.4616 276.877Z" fill="#FF6C37"/>
<path d="M39.3914 273.377L41.9166 275.815C41.976 275.873 41.976 275.93 41.9166 275.987C41.8869 276.016 41.8869 276.016 41.8572 276.016L36.6286 277.106C36.3612 277.135 36.1235 276.963 36.0641 276.705C36.0344 276.561 36.0938 276.418 36.183 276.332L39.2132 273.406C39.2726 273.348 39.3617 273.32 39.3914 273.377Z" fill="white"/>
<path d="M36.5395 277.393C36.0939 277.393 35.7671 277.049 35.7671 276.619C35.7671 276.418 35.8562 276.217 36.0048 276.074L39.035 273.148C39.2132 273.004 39.4509 273.004 39.6291 273.148L42.1543 275.586C42.3326 275.729 42.3326 275.988 42.1543 276.16C42.0949 276.217 42.0355 276.246 41.9464 276.274L36.7177 277.365C36.6583 277.365 36.5989 277.393 36.5395 277.393ZM39.3024 273.693L36.391 276.504C36.3315 276.561 36.3018 276.647 36.3613 276.733C36.391 276.819 36.4801 276.848 36.5692 276.819L41.471 275.787L39.3024 273.693Z" fill="#FF6C37"/>
<path d="M62.0291 257.886C60.1278 256.108 57.0678 256.165 55.2259 258.03C53.384 259.894 53.4434 262.82 55.3745 264.599C56.949 266.062 59.3256 266.32 61.1973 265.23L57.8105 261.96L62.0291 257.886Z" fill="white"/>
<path d="M58.7018 266.177C55.8796 266.177 53.592 263.968 53.592 261.243C53.592 258.517 55.8796 256.309 58.7018 256.309C60.009 256.309 61.2864 256.796 62.2371 257.686C62.2965 257.743 62.3262 257.8 62.3262 257.886C62.3262 257.972 62.2965 258.03 62.2371 258.087L58.2265 261.96L61.3756 265.001C61.4944 265.115 61.4944 265.287 61.3756 265.402C61.3458 265.431 61.3458 265.431 61.3161 265.46C60.5437 265.919 59.6228 266.177 58.7018 266.177ZM58.7018 256.911C56.2064 256.911 54.1862 258.862 54.2159 261.271C54.2159 263.681 56.2361 265.632 58.7315 265.603C59.4148 265.603 60.0981 265.46 60.722 265.144L57.6026 262.161C57.5432 262.103 57.5135 262.046 57.5135 261.96C57.5135 261.874 57.5432 261.816 57.6026 261.759L61.5835 257.915C60.7814 257.255 59.7713 256.911 58.7018 256.911Z" fill="#FF6C37"/>
<path d="M62.1182 257.972L62.0588 257.915L57.8105 261.96L61.1676 265.201C61.4943 265.001 61.8211 264.771 62.0885 264.513C63.9898 262.706 63.9898 259.78 62.1182 257.972Z" fill="white"/>
<path d="M61.1972 265.517C61.1081 265.517 61.0487 265.488 60.9893 265.431L57.6026 262.161C57.5431 262.103 57.5134 262.046 57.5134 261.96C57.5134 261.874 57.5431 261.817 57.6026 261.759L61.8211 257.686C61.9399 257.571 62.1182 257.571 62.237 257.686L62.3261 257.743C64.3166 259.665 64.3166 262.763 62.3558 264.714C62.0588 265.001 61.732 265.259 61.3755 265.46C61.2864 265.488 61.2269 265.517 61.1972 265.517ZM58.2264 261.96L61.2269 264.857C61.4646 264.714 61.7023 264.513 61.8805 264.341C63.5739 262.706 63.663 260.038 62.0291 258.317L58.2264 261.96Z" fill="#FF6C37"/>
<path d="M55.9093 265.115C55.1963 264.427 54.0377 264.427 53.3247 265.115L42.1248 275.93L43.9964 277.737L55.8499 267.697C56.6223 267.066 56.6817 265.947 56.0281 265.201C55.9687 265.173 55.939 265.144 55.9093 265.115Z" fill="white"/>
<path d="M43.9665 278.024C43.8774 278.024 43.818 277.996 43.7586 277.938L41.887 276.131C41.7681 276.016 41.7681 275.844 41.887 275.729L53.0869 264.915C53.9187 264.111 55.2556 264.111 56.0874 264.915C56.9193 265.718 56.9193 267.009 56.0874 267.812C56.0577 267.841 56.028 267.869 55.9983 267.898L44.1448 277.938C44.1151 277.996 44.0557 278.024 43.9665 278.024ZM42.5406 275.93L43.9962 277.336L55.6418 267.468C56.2954 266.951 56.3548 266.005 55.8201 265.374C55.2853 264.743 54.305 264.685 53.6514 265.202C53.6217 265.23 53.592 265.259 53.5325 265.288L42.5406 275.93Z" fill="#FF6C37"/>
<path d="M33.5391 288.237C33.4202 288.294 33.3608 288.409 33.3905 288.524L33.8956 290.589C34.0144 290.876 33.8361 291.22 33.5094 291.306C33.2717 291.392 33.0043 291.306 32.8558 291.134L29.5879 288.007L40.2531 277.709L43.9369 277.766L46.4324 280.176C45.8382 280.663 42.2435 284.02 33.5391 288.237Z" fill="white"/>
<path d="M33.3013 291.593C33.0636 291.593 32.8259 291.507 32.6774 291.335L29.4392 288.208C29.3798 288.151 29.3501 288.093 29.3501 288.007C29.3501 287.921 29.3798 287.864 29.4392 287.806L40.1044 277.508C40.1638 277.451 40.253 277.422 40.3124 277.422L43.9962 277.479C44.0853 277.479 44.1447 277.508 44.2041 277.565L46.6996 279.975C46.759 280.032 46.7887 280.118 46.7887 280.204C46.7887 280.291 46.759 280.348 46.6699 280.405L46.462 280.577C43.3129 283.245 39.0349 285.913 33.7172 288.466L34.2222 290.503C34.3113 290.876 34.1331 291.277 33.7766 291.478C33.5984 291.564 33.4498 291.593 33.3013 291.593ZM30.0334 288.007L33.0933 290.933C33.1824 291.077 33.3607 291.134 33.5092 291.048C33.6578 290.962 33.7172 290.79 33.6281 290.646L33.123 288.581C33.0636 288.323 33.1824 288.093 33.4201 287.978C38.6784 285.425 42.9267 282.786 46.046 280.176L43.8476 278.053L40.4312 277.996L30.0334 288.007Z" fill="#FF6C37"/>
<path d="M27.0627 290.474L29.6176 288.007L33.4203 291.679L27.3598 291.277C27.0924 291.249 26.9142 291.019 26.9439 290.761C26.9439 290.646 26.9736 290.531 27.0627 290.474Z" fill="white"/>
<path d="M33.4202 291.937L27.33 291.536C26.8844 291.507 26.5873 291.134 26.617 290.704C26.6467 290.532 26.7062 290.359 26.8547 290.245L29.4096 287.778C29.5284 287.663 29.7067 287.663 29.8255 287.778L33.6281 291.45C33.7173 291.536 33.747 291.65 33.6876 291.765C33.6281 291.88 33.539 291.937 33.4202 291.937ZM29.6175 288.409L27.2706 290.675C27.1815 290.732 27.1815 290.876 27.2706 290.933C27.3003 290.962 27.33 290.991 27.3894 290.991L32.6478 291.335L29.6175 288.409Z" fill="#FF6C37"/>
<path d="M39.2133 279.028C39.0351 279.028 38.9163 278.885 38.9163 278.741C38.9163 278.655 38.946 278.598 39.0054 278.541L41.8871 275.758C42.0059 275.643 42.1841 275.643 42.303 275.758L44.1746 277.565C44.2637 277.651 44.2934 277.737 44.2637 277.852C44.234 277.938 44.1449 278.024 44.026 278.053L39.2728 279.028C39.243 279.028 39.2133 279.028 39.2133 279.028ZM42.095 276.36L40.1343 278.254L43.3428 277.594L42.095 276.36Z" fill="#FF6C37"/>
<path d="M43.9369 277.766L40.669 278.455C40.4313 278.512 40.1937 278.369 40.1343 278.139C40.1045 277.996 40.1343 277.852 40.2531 277.737L42.0653 275.988L43.9369 277.766Z" fill="white"/>
<path d="M40.6094 278.741C40.1935 278.741 39.8667 278.426 39.8667 278.024C39.8667 277.823 39.9558 277.651 40.0747 277.508L41.8868 275.758C42.0057 275.643 42.1839 275.643 42.3028 275.758L44.1744 277.565C44.2635 277.651 44.2932 277.737 44.2635 277.852C44.2338 277.938 44.1447 278.024 44.0258 278.053L40.7579 278.741C40.6985 278.741 40.6391 278.741 40.6094 278.741ZM42.0948 276.36L40.4906 277.909C40.4312 277.967 40.4312 278.024 40.4609 278.082C40.4906 278.139 40.55 278.168 40.6391 278.168L43.3723 277.594L42.0948 276.36Z" fill="#FF6C37"/>
<path d="M62.1479 260.726C62.0885 260.554 61.8806 260.468 61.7023 260.526C61.5241 260.583 61.4349 260.784 61.4944 260.956C61.4944 260.984 61.5241 261.013 61.5241 261.042C61.7023 261.386 61.6429 261.816 61.4052 262.132C61.2864 262.275 61.3161 262.476 61.4349 262.591C61.5835 262.706 61.7914 262.677 61.9103 262.534C62.3559 261.989 62.445 261.3 62.1479 260.726Z" fill="#FF6C37"/>
<g filter="url(#filter2_d_180_319)">
<circle cx="216.997" cy="276.5" r="42.5" fill="#EEE7DB"/>
<circle cx="216.997" cy="276.5" r="40" stroke="black" stroke-width="5"/>
</g>
<g clip-path="url(#clip0_180_319)">
<path d="M207.979 304.913C213.211 304.913 217.457 300.813 217.457 295.761V286.609H207.979C202.747 286.609 198.501 290.709 198.501 295.761C198.501 300.813 202.747 304.913 207.979 304.913Z" fill="#0ACF83"/>
<path d="M198.501 277.457C198.501 272.405 202.747 268.304 207.979 268.304H217.457V286.609H207.979C202.747 286.609 198.501 282.509 198.501 277.457Z" fill="#A259FF"/>
<path d="M198.501 259.152C198.501 254.1 202.747 250 207.979 250H217.457V268.304H207.979C202.747 268.304 198.501 264.204 198.501 259.152Z" fill="#F24E1E"/>
<path d="M217.457 250H226.935C232.167 250 236.413 254.1 236.413 259.152C236.413 264.204 232.167 268.304 226.935 268.304H217.457V250Z" fill="#FF7262"/>
<path d="M236.413 277.457C236.413 282.509 232.167 286.609 226.935 286.609C221.703 286.609 217.457 282.509 217.457 277.457C217.457 272.405 221.703 268.304 226.935 268.304C232.167 268.304 236.413 272.405 236.413 277.457Z" fill="#1ABCFE"/>
</g>
<g filter="url(#filter3_d_180_319)">
<path d="M172.497 75.5C172.497 98.9721 153.469 118 129.997 118C106.525 118 87.4971 98.9721 87.4971 75.5C87.4971 52.0279 106.525 33 129.997 33C153.469 33 172.497 52.0279 172.497 75.5Z" fill="#EEE7DB"/>
<path d="M169.997 75.5C169.997 97.5914 152.088 115.5 129.997 115.5C107.906 115.5 89.9971 97.5914 89.9971 75.5C89.9971 53.4086 107.906 35.5 129.997 35.5C152.088 35.5 169.997 53.4086 169.997 75.5Z" stroke="black" stroke-width="5"/>
</g>
<path fill-rule="evenodd" clip-rule="evenodd" d="M129.997 44.5479C113.422 44.5479 99.9971 58.3124 99.9971 75.3067C99.9971 88.9174 108.585 100.414 120.51 104.489C122.01 104.758 122.572 103.835 122.572 103.028C122.572 102.298 122.535 99.8753 122.535 97.2992C114.997 98.7218 113.047 95.4152 112.447 93.6851C112.11 92.8007 110.647 90.0709 109.372 89.3404C108.322 88.7636 106.822 87.341 109.335 87.3026C111.697 87.2642 113.385 89.5326 113.947 90.4554C116.647 95.1077 120.96 93.8004 122.685 92.993C122.947 90.9937 123.735 89.648 124.597 88.879C117.922 88.11 110.947 85.4571 110.947 73.6918C110.947 70.3468 112.11 67.5785 114.022 65.4254C113.722 64.6564 112.672 61.5036 114.322 57.2743C114.322 57.2743 116.835 56.4669 122.572 60.4271C124.972 59.735 127.522 59.389 130.072 59.389C132.622 59.389 135.172 59.735 137.572 60.4271C143.31 56.4284 145.822 57.2743 145.822 57.2743C147.472 61.5036 146.422 64.6564 146.122 65.4254C148.035 67.5785 149.197 70.3084 149.197 73.6918C149.197 85.4955 142.185 88.11 135.51 88.879C136.597 89.8402 137.535 91.6857 137.535 94.5694C137.535 98.6834 137.497 101.99 137.497 103.028C137.497 103.835 138.06 104.797 139.56 104.489C151.41 100.414 159.997 88.879 159.997 75.3067C159.997 58.3124 146.572 44.5479 129.997 44.5479Z" fill="#1B1F23"/>
<path d="M107.517 195.708C105.034 195.708 103.13 195.102 101.805 193.888C100.48 192.656 99.8171 190.883 99.8171 188.568V182.632C99.8171 180.318 100.48 178.554 101.805 177.34C103.13 176.108 105.034 175.492 107.517 175.492C110 175.492 111.904 176.108 113.229 177.34C114.554 178.554 115.217 180.318 115.217 182.632V188.568C115.217 190.883 114.554 192.656 113.229 193.888C111.904 195.102 110 195.708 107.517 195.708ZM107.517 194.084C109.346 194.084 110.746 193.608 111.717 192.656C112.706 191.704 113.201 190.342 113.201 188.568V182.632C113.201 180.859 112.706 179.496 111.717 178.544C110.746 177.592 109.346 177.116 107.517 177.116C105.688 177.116 104.278 177.592 103.289 178.544C102.318 179.496 101.833 180.859 101.833 182.632V188.568C101.833 190.342 102.318 191.704 103.289 192.656C104.278 193.608 105.688 194.084 107.517 194.084ZM129.747 193.02C129.747 193.356 129.803 193.636 129.915 193.86C130.046 194.066 130.288 194.318 130.643 194.616L129.383 195.708C128.823 195.391 128.431 195.036 128.207 194.644C127.983 194.234 127.871 193.674 127.871 192.964V192.768C127.404 193.72 126.77 194.448 125.967 194.952C125.164 195.456 124.222 195.708 123.139 195.708C121.776 195.708 120.722 195.307 119.975 194.504C119.228 193.683 118.855 192.535 118.855 191.06V182.24H120.731V190.948C120.731 191.994 120.983 192.796 121.487 193.356C122.01 193.916 122.738 194.196 123.671 194.196C124.679 194.196 125.547 193.832 126.275 193.104C127.022 192.376 127.554 191.378 127.871 190.108V182.24H129.747V193.02ZM136.047 183.752V191.592C136.047 193.254 136.775 194.084 138.231 194.084H139.827V195.568H138.231C136.831 195.568 135.805 195.251 135.151 194.616C134.498 193.963 134.171 192.955 134.171 191.592V179.188C134.171 178.852 134.106 178.582 133.975 178.376C133.863 178.152 133.639 177.9 133.303 177.62L134.563 176.5C135.123 176.818 135.506 177.182 135.711 177.592C135.935 177.984 136.047 178.535 136.047 179.244V182.24H139.827V183.752H136.047ZM144.153 179.272C143.798 179.272 143.49 179.142 143.229 178.88C142.967 178.619 142.837 178.311 142.837 177.956C142.837 177.602 142.967 177.303 143.229 177.06C143.49 176.799 143.798 176.668 144.153 176.668C144.507 176.668 144.806 176.799 145.049 177.06C145.31 177.303 145.441 177.602 145.441 177.956C145.441 178.311 145.31 178.619 145.049 178.88C144.806 179.142 144.507 179.272 144.153 179.272ZM144.713 195.708C144.134 195.391 143.733 195.036 143.509 194.644C143.303 194.234 143.201 193.674 143.201 192.964V182.24H145.077V193.02C145.077 193.356 145.133 193.636 145.245 193.86C145.375 194.066 145.609 194.308 145.945 194.588L144.713 195.708ZM151.546 195.708C150.967 195.391 150.566 195.036 150.342 194.644C150.137 194.234 150.034 193.674 150.034 192.964V177.788C150.034 177.434 149.969 177.154 149.838 176.948C149.726 176.724 149.502 176.482 149.166 176.22L150.398 175.1C150.977 175.418 151.369 175.782 151.574 176.192C151.798 176.584 151.91 177.135 151.91 177.844V193.02C151.91 193.356 151.966 193.636 152.078 193.86C152.209 194.066 152.442 194.308 152.778 194.588L151.546 195.708ZM160.457 195.708C159.356 195.708 158.413 195.531 157.629 195.176C156.864 194.822 156.164 194.243 155.529 193.44L156.733 192.404C157.312 193.058 157.881 193.524 158.441 193.804C159.001 194.066 159.673 194.196 160.457 194.196C161.577 194.196 162.427 194 163.005 193.608C163.584 193.216 163.873 192.647 163.873 191.9C163.873 191.434 163.761 191.06 163.537 190.78C163.313 190.5 162.921 190.258 162.361 190.052C161.801 189.847 160.952 189.642 159.813 189.436C157.2 188.97 155.893 187.719 155.893 185.684C155.893 184.508 156.313 183.594 157.153 182.94C158.012 182.268 159.188 181.932 160.681 181.932C161.745 181.932 162.669 182.119 163.453 182.492C164.256 182.847 164.863 183.37 165.273 184.06L164.069 185.068C163.64 184.508 163.145 184.098 162.585 183.836C162.044 183.575 161.409 183.444 160.681 183.444C159.748 183.444 159.011 183.64 158.469 184.032C157.947 184.424 157.685 184.966 157.685 185.656C157.685 186.272 157.9 186.748 158.329 187.084C158.777 187.42 159.552 187.7 160.653 187.924C161.941 188.204 162.94 188.512 163.649 188.848C164.377 189.166 164.891 189.567 165.189 190.052C165.507 190.538 165.665 191.154 165.665 191.9C165.665 193.151 165.217 194.103 164.321 194.756C163.444 195.391 162.156 195.708 160.457 195.708Z" fill="black"/>
<path d="M17.1409 324.8H21.8129C22.9756 324.8 23.8503 325.083 24.4369 325.648C25.0343 326.213 25.3329 327.051 25.3329 328.16C25.3329 329.269 25.0343 330.107 24.4369 330.672C23.8503 331.237 22.9756 331.52 21.8129 331.52H18.6609V336H17.1409V324.8ZM21.7649 330.32C22.4049 330.32 22.9063 330.133 23.2689 329.76C23.6316 329.387 23.8129 328.853 23.8129 328.16C23.8129 327.467 23.6316 326.933 23.2689 326.56C22.9063 326.187 22.4049 326 21.7649 326H18.6609V330.32H21.7649ZM29.6102 336.176C28.5649 336.176 27.7542 335.925 27.1782 335.424C26.6129 334.912 26.3302 334.192 26.3302 333.264V331.216C26.3302 330.288 26.6129 329.573 27.1782 329.072C27.7542 328.56 28.5649 328.304 29.6102 328.304C30.6555 328.304 31.4609 328.56 32.0262 329.072C32.5915 329.573 32.8742 330.288 32.8742 331.216V333.264C32.8742 334.192 32.5915 334.912 32.0262 335.424C31.4609 335.925 30.6555 336.176 29.6102 336.176ZM29.6102 335.072C30.1969 335.072 30.6502 334.917 30.9702 334.608C31.3009 334.288 31.4662 333.84 31.4662 333.264V331.216C31.4662 330.64 31.3009 330.197 30.9702 329.888C30.6502 329.568 30.1969 329.408 29.6102 329.408C29.0129 329.408 28.5489 329.568 28.2182 329.888C27.8982 330.197 27.7382 330.64 27.7382 331.216V333.264C27.7382 333.84 27.8982 334.288 28.2182 334.608C28.5489 334.917 29.0129 335.072 29.6102 335.072ZM37.0948 336.176C36.3908 336.176 35.8202 336.075 35.3828 335.872C34.9562 335.659 34.5615 335.317 34.1988 334.848L35.0948 334.08C35.4042 334.443 35.7028 334.699 35.9908 334.848C36.2895 334.997 36.6575 335.072 37.0948 335.072C38.2575 335.072 38.8388 334.704 38.8388 333.968C38.8388 333.733 38.7748 333.547 38.6468 333.408C38.5295 333.259 38.3162 333.136 38.0068 333.04C37.7082 332.933 37.2548 332.827 36.6468 332.72C35.9002 332.571 35.3402 332.315 34.9668 331.952C34.5935 331.579 34.4068 331.088 34.4068 330.48C34.4068 329.797 34.6575 329.264 35.1588 328.88C35.6602 328.496 36.3482 328.304 37.2228 328.304C38.5135 328.304 39.4202 328.715 39.9428 329.536L39.0468 330.288C38.7908 329.979 38.5188 329.755 38.2308 329.616C37.9535 329.477 37.6175 329.408 37.2228 329.408C36.7535 329.408 36.3908 329.504 36.1348 329.696C35.8788 329.888 35.7508 330.155 35.7508 330.496C35.7508 330.805 35.8735 331.045 36.1188 331.216C36.3642 331.376 36.7535 331.509 37.2868 331.616C37.9908 331.776 38.5455 331.947 38.9508 332.128C39.3562 332.299 39.6602 332.533 39.8628 332.832C40.0655 333.12 40.1668 333.504 40.1668 333.984C40.1668 335.445 39.1428 336.176 37.0948 336.176ZM43.3246 329.584V333.616C43.3246 334.075 43.4152 334.416 43.5966 334.64C43.7779 334.853 44.0659 334.96 44.4606 334.96H45.4846V336.064H44.4606C43.5539 336.064 42.9032 335.872 42.5086 335.488C42.1139 335.104 41.9166 334.48 41.9166 333.616V326.928C41.9166 326.704 41.8739 326.523 41.7886 326.384C41.7032 326.235 41.5486 326.075 41.3246 325.904L42.2686 325.072C42.6632 325.285 42.9352 325.531 43.0846 325.808C43.2446 326.075 43.3246 326.448 43.3246 326.928V328.48H45.4846V329.584H43.3246ZM55.8032 328.304C56.5392 328.304 57.1045 328.528 57.4992 328.976C57.9045 329.413 58.1072 330.043 58.1072 330.864V336H56.6992V331.04C56.6992 330.517 56.5872 330.117 56.3632 329.84C56.1392 329.552 55.8245 329.408 55.4192 329.408C54.9392 329.408 54.5232 329.595 54.1712 329.968C53.8299 330.331 53.5899 330.821 53.4512 331.44V336H52.0432V331.04C52.0432 330.517 51.9312 330.117 51.7072 329.84C51.4832 329.552 51.1685 329.408 50.7632 329.408C50.2832 329.408 49.8672 329.6 49.5152 329.984C49.1632 330.357 48.9232 330.843 48.7952 331.44V336H47.3872V330.16C47.3872 329.936 47.3445 329.755 47.2592 329.616C47.1739 329.467 47.0192 329.307 46.7952 329.136L47.7232 328.304C48.3632 328.624 48.7099 329.109 48.7632 329.76C49.0192 329.291 49.3499 328.933 49.7552 328.688C50.1605 328.432 50.6245 328.304 51.1472 328.304C51.7339 328.304 52.2085 328.453 52.5712 328.752C52.9445 329.04 53.1899 329.461 53.3072 330.016C53.4992 329.493 53.8139 329.077 54.2512 328.768C54.6992 328.459 55.2165 328.304 55.8032 328.304ZM66.5114 334.32C66.5114 334.544 66.5541 334.731 66.6394 334.88C66.7248 335.019 66.8794 335.173 67.1034 335.344L66.1594 336.176C65.6154 335.899 65.2848 335.504 65.1674 334.992C64.9114 335.355 64.5541 335.643 64.0954 335.856C63.6474 336.069 63.1301 336.176 62.5434 336.176C61.7434 336.176 61.1248 335.989 60.6874 335.616C60.2501 335.232 60.0314 334.683 60.0314 333.968C60.0314 333.232 60.2874 332.683 60.7994 332.32C61.3114 331.957 62.0154 331.728 62.9114 331.632L63.9994 331.504C64.4581 331.451 64.7568 331.371 64.8954 331.264C65.0448 331.147 65.1141 330.949 65.1034 330.672C65.0608 330.256 64.8901 329.925 64.5914 329.68C64.3034 329.435 63.8608 329.312 63.2634 329.312C62.8261 329.312 62.4528 329.387 62.1434 329.536C61.8341 329.675 61.5514 329.904 61.2954 330.224L60.3354 329.536C60.6021 329.131 60.9701 328.827 61.4394 328.624C61.9194 328.411 62.5274 328.304 63.2634 328.304C64.3408 328.304 65.1514 328.528 65.6954 328.976C66.2394 329.424 66.5114 330.075 66.5114 330.928V334.32ZM62.8794 335.136C63.5514 335.136 64.0901 334.96 64.4954 334.608C64.9114 334.256 65.1194 333.808 65.1194 333.264V332.192C64.8741 332.331 64.4954 332.421 63.9834 332.464L63.0394 332.56C61.9301 332.688 61.3754 333.141 61.3754 333.92C61.3754 334.315 61.5034 334.619 61.7594 334.832C62.0154 335.035 62.3888 335.136 62.8794 335.136ZM72.7439 328.304C73.5226 328.304 74.1253 328.528 74.5519 328.976C74.9893 329.424 75.2079 330.053 75.2079 330.864V336H73.7999V331.04C73.7999 330.528 73.6719 330.128 73.4159 329.84C73.1599 329.552 72.8079 329.408 72.3599 329.408C71.8586 329.408 71.4266 329.584 71.0639 329.936C70.7013 330.288 70.4346 330.763 70.2639 331.36V336H68.8559V330.16C68.8559 329.936 68.8133 329.755 68.7279 329.616C68.6426 329.467 68.4879 329.307 68.2639 329.136L69.1919 328.304C69.5333 328.496 69.7839 328.699 69.9439 328.912C70.1039 329.125 70.2053 329.403 70.2479 329.744C70.4933 329.296 70.8293 328.944 71.2559 328.688C71.6826 328.432 72.1786 328.304 72.7439 328.304Z" fill="black"/>
<path d="M93.4862 17.176C92.0142 17.176 90.8889 16.8293 90.1102 16.136C89.3315 15.4427 88.9422 14.4293 88.9422 13.096V9.688C88.9422 8.344 89.3262 7.33067 90.0942 6.648C90.8729 5.96533 92.0142 5.624 93.5182 5.624C94.4782 5.624 95.2942 5.768 95.9662 6.056C96.6382 6.344 97.1929 6.78133 97.6302 7.368L96.5102 8.216C96.1475 7.74667 95.7262 7.4 95.2462 7.176C94.7769 6.94133 94.1955 6.824 93.5022 6.824C91.4755 6.824 90.4622 7.77867 90.4622 9.688V13.096C90.4622 15.016 91.4755 15.976 93.5022 15.976C94.3875 15.976 95.0809 15.8107 95.5822 15.48C96.0942 15.1493 96.3502 14.6907 96.3502 14.104V13.256C96.3502 12.8293 96.2382 12.504 96.0142 12.28C95.8009 12.056 95.4809 11.944 95.0542 11.944H93.1662V10.744H95.4382C96.2489 10.744 96.8515 10.936 97.2462 11.32C97.6409 11.704 97.8382 12.2907 97.8382 13.08V14.2C97.8382 15.1173 97.4435 15.8427 96.6542 16.376C95.8755 16.9093 94.8195 17.176 93.4862 17.176ZM100.686 8.008C100.44 8.008 100.227 7.92267 100.046 7.752C99.875 7.57067 99.7897 7.35733 99.7897 7.112C99.7897 6.86667 99.875 6.65867 100.046 6.488C100.227 6.30667 100.44 6.216 100.686 6.216C100.931 6.216 101.139 6.30667 101.31 6.488C101.491 6.65867 101.582 6.86667 101.582 7.112C101.582 7.35733 101.491 7.57067 101.31 7.752C101.139 7.92267 100.931 8.008 100.686 8.008ZM101.038 17.176C100.643 16.9627 100.366 16.7227 100.206 16.456C100.056 16.1787 99.9817 15.8 99.9817 15.32V9.48H101.39V15.32C101.39 15.544 101.432 15.7307 101.518 15.88C101.603 16.0187 101.758 16.1733 101.982 16.344L101.038 17.176ZM105.262 10.584V14.616C105.262 15.0747 105.353 15.416 105.534 15.64C105.715 15.8533 106.003 15.96 106.398 15.96H107.422V17.064H106.398C105.491 17.064 104.841 16.872 104.446 16.488C104.051 16.104 103.854 15.48 103.854 14.616V7.928C103.854 7.704 103.811 7.52267 103.726 7.384C103.641 7.23467 103.486 7.07467 103.262 6.904L104.206 6.072C104.601 6.28533 104.873 6.53067 105.022 6.808C105.182 7.07467 105.262 7.448 105.262 7.928V9.48H107.422V10.584H105.262ZM120.809 17L119.993 16.104C119.108 16.8187 117.977 17.176 116.601 17.176C115.428 17.176 114.495 16.888 113.801 16.312C113.108 15.736 112.761 14.9573 112.761 13.976C112.761 13.24 112.964 12.6373 113.369 12.168C113.785 11.688 114.388 11.224 115.177 10.776C114.729 10.264 114.393 9.80533 114.169 9.4C113.945 8.99467 113.833 8.568 113.833 8.12C113.833 7.352 114.089 6.744 114.601 6.296C115.124 5.848 115.828 5.624 116.713 5.624C117.577 5.624 118.265 5.85333 118.777 6.312C119.3 6.76 119.561 7.37333 119.561 8.152C119.561 8.77067 119.38 9.29333 119.017 9.72C118.665 10.136 118.084 10.5893 117.273 11.08L119.881 13.944C120.276 13.176 120.543 12.232 120.681 11.112H122.217C122.025 12.7653 121.593 14.088 120.921 15.08L122.665 17H120.809ZM116.713 6.84C116.308 6.84 115.977 6.95733 115.721 7.192C115.476 7.416 115.353 7.72533 115.353 8.12C115.353 8.45067 115.433 8.76 115.593 9.048C115.753 9.336 116.02 9.688 116.393 10.104C116.969 9.76267 117.385 9.45333 117.641 9.176C117.908 8.89867 118.041 8.55733 118.041 8.152C118.041 7.75733 117.919 7.44267 117.673 7.208C117.428 6.96267 117.108 6.84 116.713 6.84ZM116.601 15.976C117.593 15.976 118.409 15.672 119.049 15.064L116.073 11.768C115.465 12.0987 115.012 12.424 114.713 12.744C114.425 13.0533 114.281 13.464 114.281 13.976C114.281 14.584 114.489 15.0693 114.905 15.432C115.321 15.7947 115.887 15.976 116.601 15.976ZM132.705 17.176C131.233 17.176 130.108 16.8293 129.329 16.136C128.55 15.4427 128.161 14.4293 128.161 13.096V9.688C128.161 8.344 128.545 7.33067 129.313 6.648C130.092 5.96533 131.233 5.624 132.737 5.624C133.697 5.624 134.513 5.768 135.185 6.056C135.857 6.344 136.412 6.78133 136.849 7.368L135.729 8.216C135.366 7.74667 134.945 7.4 134.465 7.176C133.996 6.94133 133.414 6.824 132.721 6.824C130.694 6.824 129.681 7.77867 129.681 9.688V13.096C129.681 15.016 130.694 15.976 132.721 15.976C133.606 15.976 134.3 15.8107 134.801 15.48C135.313 15.1493 135.569 14.6907 135.569 14.104V13.256C135.569 12.8293 135.457 12.504 135.233 12.28C135.02 12.056 134.7 11.944 134.273 11.944H132.385V10.744H134.657C135.468 10.744 136.07 10.936 136.465 11.32C136.86 11.704 137.057 12.2907 137.057 13.08V14.2C137.057 15.1173 136.662 15.8427 135.873 16.376C135.094 16.9093 134.038 17.176 132.705 17.176ZM139.904 8.008C139.659 8.008 139.446 7.92267 139.264 7.752C139.094 7.57067 139.008 7.35733 139.008 7.112C139.008 6.86667 139.094 6.65867 139.264 6.488C139.446 6.30667 139.659 6.216 139.904 6.216C140.15 6.216 140.358 6.30667 140.528 6.488C140.71 6.65867 140.8 6.86667 140.8 7.112C140.8 7.35733 140.71 7.57067 140.528 7.752C140.358 7.92267 140.15 8.008 139.904 8.008ZM140.256 17.176C139.862 16.9627 139.584 16.7227 139.424 16.456C139.275 16.1787 139.2 15.8 139.2 15.32V9.48H140.608V15.32C140.608 15.544 140.651 15.7307 140.736 15.88C140.822 16.0187 140.976 16.1733 141.2 16.344L140.256 17.176ZM144.481 10.584V14.616C144.481 15.0747 144.571 15.416 144.753 15.64C144.934 15.8533 145.222 15.96 145.617 15.96H146.641V17.064H145.617C144.71 17.064 144.059 16.872 143.665 16.488C143.27 16.104 143.073 15.48 143.073 14.616V7.928C143.073 7.704 143.03 7.52267 142.945 7.384C142.859 7.23467 142.705 7.07467 142.481 6.904L143.425 6.072C143.819 6.28533 144.091 6.53067 144.241 6.808C144.401 7.07467 144.481 7.448 144.481 7.928V9.48H146.641V10.584H144.481ZM152.431 9.304C153.21 9.304 153.813 9.528 154.239 9.976C154.677 10.424 154.895 11.0533 154.895 11.864V17H153.487V12.04C153.487 11.528 153.359 11.128 153.103 10.84C152.858 10.552 152.511 10.408 152.063 10.408C151.551 10.408 151.114 10.584 150.751 10.936C150.389 11.288 150.122 11.7627 149.951 12.36V17H148.543V7.128C148.543 6.904 148.501 6.72267 148.415 6.584C148.33 6.43467 148.175 6.27467 147.951 6.104L148.879 5.272C149.285 5.48533 149.562 5.73067 149.711 6.008C149.871 6.27467 149.951 6.648 149.951 7.128V10.728C150.197 10.28 150.527 9.93333 150.943 9.688C151.37 9.432 151.866 9.304 152.431 9.304ZM163.565 15.304C163.565 15.528 163.607 15.7147 163.693 15.864C163.778 16.0027 163.933 16.1627 164.157 16.344L163.213 17.176C162.871 16.984 162.621 16.776 162.461 16.552C162.301 16.328 162.205 16.04 162.173 15.688C161.917 16.1573 161.575 16.5253 161.149 16.792C160.733 17.048 160.231 17.176 159.645 17.176C158.845 17.176 158.226 16.952 157.789 16.504C157.351 16.0453 157.133 15.3947 157.133 14.552V9.48H158.541V14.44C158.541 14.952 158.674 15.352 158.941 15.64C159.207 15.928 159.575 16.072 160.045 16.072C160.557 16.072 160.994 15.896 161.357 15.544C161.719 15.1813 161.986 14.696 162.157 14.088V9.48H163.565V15.304ZM169.962 17.176C168.853 17.176 168.037 16.8027 167.514 16.056V17H166.106V7.144C166.106 6.90933 166.063 6.72267 165.978 6.584C165.903 6.44533 165.749 6.28533 165.514 6.104L166.442 5.272C166.847 5.48533 167.125 5.73067 167.274 6.008C167.434 6.27467 167.514 6.65333 167.514 7.144V10.456C168.058 9.688 168.869 9.304 169.946 9.304C170.618 9.304 171.199 9.464 171.69 9.784C172.191 10.0933 172.575 10.5253 172.842 11.08C173.109 11.6347 173.242 12.2693 173.242 12.984V13.496C173.242 14.2107 173.109 14.8453 172.842 15.4C172.586 15.9547 172.207 16.392 171.706 16.712C171.215 17.0213 170.634 17.176 169.962 17.176ZM169.626 16.072C170.298 16.072 170.831 15.832 171.226 15.352C171.631 14.872 171.834 14.2533 171.834 13.496V12.984C171.834 12.2267 171.631 11.608 171.226 11.128C170.831 10.648 170.298 10.408 169.626 10.408C168.538 10.408 167.834 10.936 167.514 11.992V14.488C167.834 15.544 168.538 16.072 169.626 16.072Z" fill="black"/>
<path d="M195.796 328.192C195.796 327.061 196.1 326.213 196.708 325.648C197.316 325.083 198.27 324.8 199.572 324.8H203.396V326H199.572C198.793 326 198.222 326.181 197.86 326.544C197.497 326.896 197.316 327.445 197.316 328.192V330.112H202.612V331.328H197.316V336H195.796V328.192ZM205.537 327.008C205.292 327.008 205.079 326.923 204.897 326.752C204.727 326.571 204.641 326.357 204.641 326.112C204.641 325.867 204.727 325.659 204.897 325.488C205.079 325.307 205.292 325.216 205.537 325.216C205.783 325.216 205.991 325.307 206.161 325.488C206.343 325.659 206.433 325.867 206.433 326.112C206.433 326.357 206.343 326.571 206.161 326.752C205.991 326.923 205.783 327.008 205.537 327.008ZM205.889 336.176C205.495 335.963 205.217 335.723 205.057 335.456C204.908 335.179 204.833 334.8 204.833 334.32V328.48H206.241V334.32C206.241 334.544 206.284 334.731 206.369 334.88C206.455 335.019 206.609 335.173 206.833 335.344L205.889 336.176ZM216.002 329.136C215.778 329.307 215.623 329.467 215.538 329.616C215.452 329.755 215.41 329.936 215.41 330.16V336.448C215.41 337.387 215.159 338.08 214.658 338.528C214.156 338.976 213.372 339.2 212.306 339.2H210.322V338.096H212.306C212.871 338.096 213.292 337.957 213.57 337.68C213.858 337.413 214.002 337.003 214.002 336.448V334.848C213.479 335.616 212.668 336 211.57 336C210.556 336 209.751 335.669 209.154 335.008C208.567 334.347 208.274 333.451 208.274 332.32V331.984C208.274 331.269 208.402 330.635 208.658 330.08C208.924 329.525 209.303 329.093 209.794 328.784C210.295 328.464 210.887 328.304 211.57 328.304C212.114 328.304 212.599 328.411 213.026 328.624C213.452 328.837 213.81 329.147 214.098 329.552C214.14 329.275 214.231 329.04 214.37 328.848C214.508 328.656 214.738 328.475 215.058 328.304L216.002 329.136ZM211.89 334.896C212.444 334.896 212.892 334.763 213.234 334.496C213.575 334.229 213.831 333.824 214.002 333.28V331.008C213.831 330.464 213.57 330.064 213.218 329.808C212.876 329.541 212.434 329.408 211.89 329.408C211.218 329.408 210.679 329.648 210.274 330.128C209.879 330.608 209.682 331.227 209.682 331.984V332.32C209.682 333.077 209.879 333.696 210.274 334.176C210.668 334.656 211.207 334.896 211.89 334.896ZM226.374 328.304C227.11 328.304 227.675 328.528 228.07 328.976C228.475 329.413 228.678 330.043 228.678 330.864V336H227.27V331.04C227.27 330.517 227.158 330.117 226.934 329.84C226.71 329.552 226.395 329.408 225.99 329.408C225.51 329.408 225.094 329.595 224.742 329.968C224.4 330.331 224.16 330.821 224.022 331.44V336H222.614V331.04C222.614 330.517 222.502 330.117 222.278 329.84C222.054 329.552 221.739 329.408 221.334 329.408C220.854 329.408 220.438 329.6 220.086 329.984C219.734 330.357 219.494 330.843 219.366 331.44V336H217.958V330.16C217.958 329.936 217.915 329.755 217.83 329.616C217.744 329.467 217.59 329.307 217.366 329.136L218.294 328.304C218.934 328.624 219.28 329.109 219.334 329.76C219.59 329.291 219.92 328.933 220.326 328.688C220.731 328.432 221.195 328.304 221.718 328.304C222.304 328.304 222.779 328.453 223.142 328.752C223.515 329.04 223.76 329.461 223.878 330.016C224.07 329.493 224.384 329.077 224.822 328.768C225.27 328.459 225.787 328.304 226.374 328.304ZM237.082 334.32C237.082 334.544 237.124 334.731 237.21 334.88C237.295 335.019 237.45 335.173 237.674 335.344L236.73 336.176C236.186 335.899 235.855 335.504 235.738 334.992C235.482 335.355 235.124 335.643 234.666 335.856C234.218 336.069 233.7 336.176 233.114 336.176C232.314 336.176 231.695 335.989 231.258 335.616C230.82 335.232 230.602 334.683 230.602 333.968C230.602 333.232 230.858 332.683 231.37 332.32C231.882 331.957 232.586 331.728 233.482 331.632L234.57 331.504C235.028 331.451 235.327 331.371 235.466 331.264C235.615 331.147 235.684 330.949 235.674 330.672C235.631 330.256 235.46 329.925 235.162 329.68C234.874 329.435 234.431 329.312 233.834 329.312C233.396 329.312 233.023 329.387 232.714 329.536C232.404 329.675 232.122 329.904 231.866 330.224L230.906 329.536C231.172 329.131 231.54 328.827 232.01 328.624C232.49 328.411 233.098 328.304 233.834 328.304C234.911 328.304 235.722 328.528 236.266 328.976C236.81 329.424 237.082 330.075 237.082 330.928V334.32ZM233.45 335.136C234.122 335.136 234.66 334.96 235.066 334.608C235.482 334.256 235.69 333.808 235.69 333.264V332.192C235.444 332.331 235.066 332.421 234.554 332.464L233.61 332.56C232.5 332.688 231.946 333.141 231.946 333.92C231.946 334.315 232.074 334.619 232.33 334.832C232.586 335.035 232.959 335.136 233.45 335.136Z" fill="black"/>
<defs>
<filter id="filter0_d_180_319" x="8.49707" y="69.7007" width="253" height="253" filterUnits="userSpaceOnUse" color-interpolation-filters="sRGB">
<feFlood flood-opacity="0" result="BackgroundImageFix"/>
<feColorMatrix in="SourceAlpha" type="matrix" values="0 0 0 0 0 0 0 0 0 0 0 0 0 0 0 0 0 0 127 0" result="hardAlpha"/>
<feMorphology radius="4" operator="dilate" in="SourceAlpha" result="effect1_dropShadow_180_319"/>
<feOffset dx="5" dy="6"/>
<feGaussianBlur stdDeviation="2"/>
<feComposite in2="hardAlpha" operator="out"/>
<feColorMatrix type="matrix" values="0 0 0 0 0 0 0 0 0 0 0 0 0 0 0 0 0 0 0.25 0"/>
<feBlend mode="normal" in2="BackgroundImageFix" result="effect1_dropShadow_180_319"/>
<feBlend mode="normal" in="SourceGraphic" in2="effect1_dropShadow_180_319" result="shape"/>
</filter>
<filter id="filter1_d_180_319" x="0.49707" y="232" width="93" height="93" filterUnits="userSpaceOnUse" color-interpolation-filters="sRGB">
<feFlood flood-opacity="0" result="BackgroundImageFix"/>
<feColorMatrix in="SourceAlpha" type="matrix" values="0 0 0 0 0 0 0 0 0 0 0 0 0 0 0 0 0 0 127 0" result="hardAlpha"/>
<feOffset dx="2" dy="2"/>
<feGaussianBlur stdDeviation="2"/>
<feComposite in2="hardAlpha" operator="out"/>
<feColorMatrix type="matrix" values="0 0 0 0 0 0 0 0 0 0 0 0 0 0 0 0 0 0 0.25 0"/>
<feBlend mode="normal" in2="BackgroundImageFix" result="effect1_dropShadow_180_319"/>
<feBlend mode="normal" in="SourceGraphic" in2="effect1_dropShadow_180_319" result="shape"/>
</filter>
<filter id="filter2_d_180_319" x="172.497" y="232" width="93" height="93" filterUnits="userSpaceOnUse" color-interpolation-filters="sRGB">
<feFlood flood-opacity="0" result="BackgroundImageFix"/>
<feColorMatrix in="SourceAlpha" type="matrix" values="0 0 0 0 0 0 0 0 0 0 0 0 0 0 0 0 0 0 127 0" result="hardAlpha"/>
<feOffset dx="2" dy="2"/>
<feGaussianBlur stdDeviation="2"/>
<feComposite in2="hardAlpha" operator="out"/>
<feColorMatrix type="matrix" values="0 0 0 0 0 0 0 0 0 0 0 0 0 0 0 0 0 0 0.25 0"/>
<feBlend mode="normal" in2="BackgroundImageFix" result="effect1_dropShadow_180_319"/>
<feBlend mode="normal" in="SourceGraphic" in2="effect1_dropShadow_180_319" result="shape"/>
</filter>
<filter id="filter3_d_180_319" x="85.4971" y="31" width="93" height="93" filterUnits="userSpaceOnUse" color-interpolation-filters="sRGB">
<feFlood flood-opacity="0" result="BackgroundImageFix"/>
<feColorMatrix in="SourceAlpha" type="matrix" values="0 0 0 0 0 0 0 0 0 0 0 0 0 0 0 0 0 0 127 0" result="hardAlpha"/>
<feOffset dx="2" dy="2"/>
<feGaussianBlur stdDeviation="2"/>
<feComposite in2="hardAlpha" operator="out"/>
<feColorMatrix type="matrix" values="0 0 0 0 0 0 0 0 0 0 0 0 0 0 0 0 0 0 0.25 0"/>
<feBlend mode="normal" in2="BackgroundImageFix" result="effect1_dropShadow_180_319"/>
<feBlend mode="normal" in="SourceGraphic" in2="effect1_dropShadow_180_319" result="shape"/>
</filter>
<clipPath id="clip0_180_319">
<rect width="37.92" height="54.913" fill="white" transform="translate(198.497 250)"/>
</clipPath>
</defs>
</svg>
