<svg width="260" height="345" viewBox="0 0 260 345" fill="none" xmlns="http://www.w3.org/2000/svg">
<g filter="url(#filter0_d_180_319)">
<circle cx="127.997" cy="190.201" r="118.5" fill="#EAE2D7"/>
<circle cx="127.997" cy="190.201" r="116" stroke="black" stroke-width="5"/>
</g>
<g filter="url(#filter1_d_180_319)">
<circle cx="45.1946" cy="274" r="38" fill="#EEE7DB"/>
<circle cx="45.1946" cy="274" r="35.5" stroke="black" stroke-width="5"/>
</g>
<path d="M72.4697 277.492C74.3943 262.425 63.7537 248.65 48.7139 246.725C33.6742 244.8 19.8441 255.441 17.9195 270.481C15.9948 285.52 26.6354 299.323 41.6752 301.275C56.7425 303.2 70.5175 292.559 72.4697 277.492Z" fill="#FF6C37"/>
<path d="M54.7628 263.387L43.2707 274.484L40.03 271.354C51.3315 260.442 52.448 261.388 54.7628 263.387Z" fill="white"/>
<path d="M43.2709 274.746C43.1892 274.746 43.1348 274.72 43.0803 274.668L39.8124 271.538C39.7035 271.433 39.7035 271.275 39.8124 271.17C51.3045 260.073 52.5027 261.125 54.9264 263.229C54.9809 263.281 55.0081 263.334 55.0081 263.413C55.0081 263.492 54.9809 263.544 54.9264 263.597L43.4343 274.668C43.4071 274.72 43.3254 274.746 43.2709 274.746ZM40.4115 271.354L43.2709 274.115L54.3545 263.413C52.3393 261.677 50.9777 261.151 40.4115 271.354Z" fill="#FF6C37"/>
<path d="M46.5658 277.665L43.4341 274.641L54.9262 263.544C58.0034 266.542 53.4011 271.407 46.5658 277.665Z" fill="white"/>
<path d="M46.566 277.928C46.4843 277.928 46.4299 277.902 46.3754 277.849L43.2437 274.825C43.1892 274.773 43.1892 274.72 43.1892 274.641C43.1892 274.562 43.2164 274.51 43.2709 274.457L54.763 263.36C54.8719 263.255 55.0353 263.255 55.1442 263.36C55.8523 263.991 56.2335 264.886 56.2063 265.806C56.1518 268.725 52.7206 272.432 46.7839 277.849C46.7022 277.902 46.6205 277.928 46.566 277.928ZM43.8156 274.641C45.5584 276.351 46.2937 277.034 46.566 277.297C51.1411 273.09 55.58 268.777 55.6072 265.806C55.6344 265.122 55.3621 264.439 54.8991 263.913L43.8156 274.641Z" fill="#FF6C37"/>
<path d="M40.0845 271.433L42.3992 273.668C42.4537 273.721 42.4537 273.774 42.3992 273.826C42.372 273.852 42.372 273.852 42.3447 273.852L37.5518 274.852C37.3068 274.878 37.0889 274.72 37.0344 274.484C37.0072 274.352 37.0617 274.221 37.1434 274.142L39.9211 271.46C39.9755 271.407 40.0572 271.381 40.0845 271.433Z" fill="white"/>
<path d="M37.4702 275.115C37.0618 275.115 36.7622 274.799 36.7622 274.405C36.7622 274.221 36.8439 274.037 36.9801 273.905L39.7578 271.223C39.9212 271.092 40.139 271.092 40.3024 271.223L42.6172 273.458C42.7806 273.59 42.7806 273.826 42.6172 273.984C42.5627 274.037 42.5082 274.063 42.4265 274.089L37.6336 275.089C37.5792 275.089 37.5247 275.115 37.4702 275.115ZM40.0029 271.723L37.3341 274.3C37.2796 274.352 37.2524 274.431 37.3069 274.51C37.3341 274.589 37.4158 274.615 37.4975 274.589L41.9908 273.642L40.0029 271.723Z" fill="#FF6C37"/>
<path d="M60.8357 257.233C59.0928 255.603 56.2879 255.656 54.5995 257.365C52.9111 259.074 52.9655 261.756 54.7356 263.387C56.179 264.728 58.3575 264.964 60.0732 263.965L56.9687 260.967L60.8357 257.233Z" fill="white"/>
<path d="M57.7858 264.833C55.1987 264.833 53.1018 262.808 53.1018 260.31C53.1018 257.812 55.1987 255.787 57.7858 255.787C58.984 255.787 60.155 256.234 61.0264 257.05C61.0809 257.102 61.1081 257.155 61.1081 257.234C61.1081 257.313 61.0809 257.365 61.0264 257.418L57.3501 260.968L60.2367 263.755C60.3456 263.86 60.3456 264.018 60.2367 264.123C60.2095 264.149 60.2095 264.149 60.1822 264.176C59.4742 264.596 58.63 264.833 57.7858 264.833ZM57.7858 256.34C55.4983 256.34 53.6465 258.128 53.6737 260.337C53.6737 262.545 55.5255 264.334 57.813 264.307C58.4394 264.307 59.0657 264.176 59.6376 263.887L56.7782 261.152C56.7237 261.099 56.6965 261.047 56.6965 260.968C56.6965 260.889 56.7237 260.836 56.7782 260.784L60.4273 257.26C59.692 256.655 58.7661 256.34 57.7858 256.34Z" fill="#FF6C37"/>
<path d="M60.9174 257.312L60.863 257.26L56.9688 260.967L60.046 263.939C60.3456 263.755 60.6451 263.544 60.8902 263.308C62.6331 261.651 62.6331 258.969 60.9174 257.312Z" fill="white"/>
<path d="M60.0731 264.228C59.9914 264.228 59.9369 264.202 59.8825 264.149L56.778 261.152C56.7235 261.099 56.6963 261.047 56.6963 260.968C56.6963 260.889 56.7235 260.836 56.778 260.784L60.645 257.05C60.7539 256.944 60.9173 256.944 61.0262 257.05L61.1079 257.102C62.9325 258.864 62.9325 261.704 61.1352 263.492C60.8628 263.755 60.5633 263.992 60.2365 264.176C60.1548 264.202 60.1003 264.228 60.0731 264.228ZM57.3499 260.968L60.1003 263.624C60.3182 263.492 60.5361 263.308 60.6995 263.15C62.2517 261.651 62.3334 259.206 60.8356 257.628L57.3499 260.968Z" fill="#FF6C37"/>
<path d="M55.2259 263.86C54.5723 263.229 53.5103 263.229 52.8567 263.86L42.5901 273.774L44.3057 275.43L55.1715 266.227C55.8795 265.648 55.934 264.623 55.3349 263.939C55.2804 263.913 55.2532 263.886 55.2259 263.86Z" fill="white"/>
<path d="M44.2782 275.693C44.1966 275.693 44.1421 275.667 44.0876 275.615L42.372 273.958C42.2631 273.853 42.2631 273.695 42.372 273.59L52.6386 263.676C53.4011 262.94 54.6266 262.94 55.3891 263.676C56.1516 264.413 56.1516 265.596 55.3891 266.332C55.3618 266.358 55.3346 266.385 55.3074 266.411L44.4416 275.615C44.4144 275.667 44.3599 275.693 44.2782 275.693ZM42.9711 273.774L44.3055 275.062L54.9806 266.017C55.5797 265.543 55.6342 264.675 55.144 264.097C54.6538 263.518 53.7551 263.466 53.156 263.939C53.1288 263.965 53.1015 263.992 53.0471 264.018L42.9711 273.774Z" fill="#FF6C37"/>
<path d="M34.7198 285.055C34.6109 285.107 34.5564 285.212 34.5836 285.318L35.0466 287.211C35.1555 287.474 34.9921 287.789 34.6926 287.868C34.4747 287.947 34.2296 287.868 34.0935 287.711L31.0979 284.844L40.8743 275.404L44.2512 275.457L46.5387 277.666C45.994 278.113 42.6989 281.189 34.7198 285.055Z" fill="white"/>
<path d="M34.5018 288.131C34.2839 288.131 34.0661 288.052 33.9299 287.895L30.9616 285.028C30.9071 284.976 30.8799 284.923 30.8799 284.844C30.8799 284.765 30.9071 284.713 30.9616 284.66L40.738 275.22C40.7925 275.167 40.8742 275.141 40.9286 275.141L44.3055 275.194C44.3872 275.194 44.4416 275.22 44.4961 275.273L46.7836 277.481C46.8381 277.534 46.8653 277.613 46.8653 277.692C46.8653 277.771 46.8381 277.823 46.7564 277.876L46.5657 278.034C43.6791 280.479 39.7576 282.925 34.883 285.265L35.346 287.132C35.4277 287.474 35.2643 287.842 34.9375 288.026C34.7741 288.105 34.638 288.131 34.5018 288.131ZM31.5062 284.844L34.3112 287.526C34.3929 287.658 34.5563 287.711 34.6924 287.632C34.8286 287.553 34.883 287.395 34.8013 287.264L34.3384 285.37C34.2839 285.134 34.3929 284.923 34.6107 284.818C39.4309 282.478 43.3251 280.058 46.1845 277.666L44.1693 275.72L41.0376 275.667L31.5062 284.844Z" fill="#FF6C37"/>
<path d="M28.7833 287.106L31.1253 284.844L34.611 288.21L29.0556 287.842C28.8105 287.816 28.6471 287.605 28.6743 287.369C28.6743 287.263 28.7016 287.158 28.7833 287.106Z" fill="white"/>
<path d="M34.6109 288.447L29.0283 288.079C28.6198 288.053 28.3474 287.711 28.3747 287.316C28.4019 287.158 28.4564 287.001 28.5925 286.896L30.9345 284.634C31.0435 284.529 31.2068 284.529 31.3158 284.634L34.8015 288C34.8832 288.079 34.9105 288.184 34.856 288.289C34.8015 288.394 34.7198 288.447 34.6109 288.447ZM31.1251 285.213L28.9738 287.29C28.8921 287.343 28.8921 287.474 28.9738 287.527C29.001 287.553 29.0283 287.579 29.0827 287.579L33.9029 287.895L31.1251 285.213Z" fill="#FF6C37"/>
<path d="M39.9212 276.613C39.7579 276.613 39.6489 276.482 39.6489 276.351C39.6489 276.272 39.6762 276.219 39.7306 276.166L42.3722 273.616C42.4811 273.511 42.6445 273.511 42.7534 273.616L44.4691 275.272C44.5508 275.351 44.578 275.43 44.5508 275.535C44.5235 275.614 44.4418 275.693 44.3329 275.719L39.9757 276.613C39.9485 276.613 39.9212 276.613 39.9212 276.613ZM42.5628 274.168L40.7655 275.903L43.7066 275.299L42.5628 274.168Z" fill="#FF6C37"/>
<path d="M44.2512 275.457L41.2556 276.088C41.0378 276.14 40.8199 276.009 40.7654 275.799C40.7382 275.667 40.7654 275.536 40.8744 275.43L42.5355 273.826L44.2512 275.457Z" fill="white"/>
<path d="M41.2011 276.351C40.8198 276.351 40.5203 276.061 40.5203 275.693C40.5203 275.509 40.602 275.351 40.7109 275.22L42.3721 273.616C42.481 273.511 42.6444 273.511 42.7533 273.616L44.469 275.272C44.5507 275.351 44.5779 275.43 44.5507 275.535C44.5234 275.614 44.4417 275.693 44.3328 275.719L41.3372 276.351C41.2828 276.351 41.2283 276.351 41.2011 276.351ZM42.5627 274.168L41.0921 275.588C41.0377 275.641 41.0377 275.693 41.0649 275.746C41.0921 275.798 41.1466 275.825 41.2283 275.825L43.7337 275.299L42.5627 274.168Z" fill="#FF6C37"/>
<path d="M60.9447 259.837C60.8903 259.679 60.6996 259.6 60.5362 259.653C60.3729 259.705 60.2912 259.889 60.3456 260.047C60.3456 260.073 60.3729 260.1 60.3729 260.126C60.5362 260.442 60.4818 260.836 60.2639 261.125C60.155 261.257 60.1822 261.441 60.2912 261.546C60.4273 261.651 60.6179 261.625 60.7269 261.493C61.1354 260.994 61.2171 260.363 60.9447 259.837Z" fill="#FF6C37"/>
<g filter="url(#filter2_d_180_319)">
<circle cx="210.497" cy="272" r="38" fill="#EEE7DB"/>
<circle cx="210.497" cy="272" r="35.5" stroke="black" stroke-width="5"/>
</g>
<g clip-path="url(#clip0_180_319)">
<path d="M201.499 297C206.466 297 210.497 293.267 210.497 288.667V280.333H201.499C196.532 280.333 192.501 284.067 192.501 288.667C192.501 293.267 196.532 297 201.499 297Z" fill="#0ACF83"/>
<path d="M192.501 272C192.501 267.4 196.532 263.667 201.499 263.667H210.497V280.333H201.499C196.532 280.333 192.501 276.6 192.501 272Z" fill="#A259FF"/>
<path d="M192.501 255.333C192.501 250.733 196.532 247 201.499 247H210.497V263.667H201.499C196.532 263.667 192.501 259.933 192.501 255.333Z" fill="#F24E1E"/>
<path d="M210.497 247H219.495C224.462 247 228.493 250.733 228.493 255.333C228.493 259.933 224.462 263.667 219.495 263.667H210.497V247Z" fill="#FF7262"/>
<path d="M228.493 272C228.493 276.6 224.462 280.333 219.495 280.333C214.528 280.333 210.497 276.6 210.497 272C210.497 267.4 214.528 263.667 219.495 263.667C224.462 263.667 228.493 267.4 228.493 272Z" fill="#1ABCFE"/>
</g>
<g filter="url(#filter3_d_180_319)">
<path d="M165 78C165 98.9868 147.987 116 127 116C106.013 116 89 98.9868 89 78C89 57.0132 106.013 40 127 40C147.987 40 165 57.0132 165 78Z" fill="#EEE7DB"/>
<path d="M162.5 78C162.5 97.6061 146.606 113.5 127 113.5C107.394 113.5 91.5 97.6061 91.5 78C91.5 58.3939 107.394 42.5 127 42.5C146.606 42.5 162.5 58.3939 162.5 78Z" stroke="black" stroke-width="5"/>
</g>
<path fill-rule="evenodd" clip-rule="evenodd" d="M127 50.9182C112.635 50.9182 101 62.8475 101 77.5759C101 89.3719 108.443 99.3352 118.778 102.867C120.077 103.101 120.565 102.301 120.565 101.601C120.565 100.968 120.533 98.8686 120.533 96.6361C114 97.869 112.31 95.0033 111.79 93.5038C111.497 92.7374 110.23 90.3715 109.125 89.7384C108.215 89.2386 106.915 88.0057 109.092 87.9723C111.14 87.939 112.602 89.905 113.09 90.7047C115.43 94.7367 119.167 93.6038 120.663 92.904C120.89 91.1713 121.573 90.005 122.32 89.3385C116.535 88.6721 110.49 86.3729 110.49 76.1763C110.49 73.2773 111.497 70.8781 113.155 69.0121C112.895 68.3456 111.985 65.6132 113.415 61.9478C113.415 61.9478 115.593 61.248 120.565 64.6802C122.645 64.0804 124.855 63.7805 127.065 63.7805C129.275 63.7805 131.485 64.0804 133.565 64.6802C138.538 61.2147 140.715 61.9478 140.715 61.9478C142.145 65.6132 141.235 68.3456 140.975 69.0121C142.633 70.8781 143.64 73.244 143.64 76.1763C143.64 86.4062 137.562 88.6721 131.778 89.3385C132.72 90.1716 133.533 91.771 133.533 94.2702C133.533 97.8357 133.5 100.701 133.5 101.601C133.5 102.301 133.988 103.134 135.288 102.867C145.558 99.3352 153 89.3385 153 77.5759C153 62.8475 141.365 50.9182 127 50.9182Z" fill="#1B1F23"/>
<path d="M105.517 195.708C103.034 195.708 101.13 195.102 99.8051 193.888C98.4797 192.656 97.8171 190.883 97.8171 188.568V182.632C97.8171 180.318 98.4797 178.554 99.8051 177.34C101.13 176.108 103.034 175.492 105.517 175.492C108 175.492 109.904 176.108 111.229 177.34C112.554 178.554 113.217 180.318 113.217 182.632V188.568C113.217 190.883 112.554 192.656 111.229 193.888C109.904 195.102 108 195.708 105.517 195.708ZM105.517 194.084C107.346 194.084 108.746 193.608 109.717 192.656C110.706 191.704 111.201 190.342 111.201 188.568V182.632C111.201 180.859 110.706 179.496 109.717 178.544C108.746 177.592 107.346 177.116 105.517 177.116C103.688 177.116 102.278 177.592 101.289 178.544C100.318 179.496 99.8331 180.859 99.8331 182.632V188.568C99.8331 190.342 100.318 191.704 101.289 192.656C102.278 193.608 103.688 194.084 105.517 194.084ZM127.747 193.02C127.747 193.356 127.803 193.636 127.915 193.86C128.046 194.066 128.288 194.318 128.643 194.616L127.383 195.708C126.823 195.391 126.431 195.036 126.207 194.644C125.983 194.234 125.871 193.674 125.871 192.964V192.768C125.404 193.72 124.77 194.448 123.967 194.952C123.164 195.456 122.222 195.708 121.139 195.708C119.776 195.708 118.722 195.307 117.975 194.504C117.228 193.683 116.855 192.535 116.855 191.06V182.24H118.731V190.948C118.731 191.994 118.983 192.796 119.487 193.356C120.01 193.916 120.738 194.196 121.671 194.196C122.679 194.196 123.547 193.832 124.275 193.104C125.022 192.376 125.554 191.378 125.871 190.108V182.24H127.747V193.02ZM134.047 183.752V191.592C134.047 193.254 134.775 194.084 136.231 194.084H137.827V195.568H136.231C134.831 195.568 133.805 195.251 133.151 194.616C132.498 193.963 132.171 192.955 132.171 191.592V179.188C132.171 178.852 132.106 178.582 131.975 178.376C131.863 178.152 131.639 177.9 131.303 177.62L132.563 176.5C133.123 176.818 133.506 177.182 133.711 177.592C133.935 177.984 134.047 178.535 134.047 179.244V182.24H137.827V183.752H134.047ZM142.153 179.272C141.798 179.272 141.49 179.142 141.229 178.88C140.967 178.619 140.837 178.311 140.837 177.956C140.837 177.602 140.967 177.303 141.229 177.06C141.49 176.799 141.798 176.668 142.153 176.668C142.507 176.668 142.806 176.799 143.049 177.06C143.31 177.303 143.441 177.602 143.441 177.956C143.441 178.311 143.31 178.619 143.049 178.88C142.806 179.142 142.507 179.272 142.153 179.272ZM142.713 195.708C142.134 195.391 141.733 195.036 141.509 194.644C141.303 194.234 141.201 193.674 141.201 192.964V182.24H143.077V193.02C143.077 193.356 143.133 193.636 143.245 193.86C143.375 194.066 143.609 194.308 143.945 194.588L142.713 195.708ZM149.546 195.708C148.967 195.391 148.566 195.036 148.342 194.644C148.137 194.234 148.034 193.674 148.034 192.964V177.788C148.034 177.434 147.969 177.154 147.838 176.948C147.726 176.724 147.502 176.482 147.166 176.22L148.398 175.1C148.977 175.418 149.369 175.782 149.574 176.192C149.798 176.584 149.91 177.135 149.91 177.844V193.02C149.91 193.356 149.966 193.636 150.078 193.86C150.209 194.066 150.442 194.308 150.778 194.588L149.546 195.708ZM158.457 195.708C157.356 195.708 156.413 195.531 155.629 195.176C154.864 194.822 154.164 194.243 153.529 193.44L154.733 192.404C155.312 193.058 155.881 193.524 156.441 193.804C157.001 194.066 157.673 194.196 158.457 194.196C159.577 194.196 160.427 194 161.005 193.608C161.584 193.216 161.873 192.647 161.873 191.9C161.873 191.434 161.761 191.06 161.537 190.78C161.313 190.5 160.921 190.258 160.361 190.052C159.801 189.847 158.952 189.642 157.813 189.436C155.2 188.97 153.893 187.719 153.893 185.684C153.893 184.508 154.313 183.594 155.153 182.94C156.012 182.268 157.188 181.932 158.681 181.932C159.745 181.932 160.669 182.119 161.453 182.492C162.256 182.847 162.863 183.37 163.273 184.06L162.069 185.068C161.64 184.508 161.145 184.098 160.585 183.836C160.044 183.575 159.409 183.444 158.681 183.444C157.748 183.444 157.011 183.64 156.469 184.032C155.947 184.424 155.685 184.966 155.685 185.656C155.685 186.272 155.9 186.748 156.329 187.084C156.777 187.42 157.552 187.7 158.653 187.924C159.941 188.204 160.94 188.512 161.649 188.848C162.377 189.166 162.891 189.567 163.189 190.052C163.507 190.538 163.665 191.154 163.665 191.9C163.665 193.151 163.217 194.103 162.321 194.756C161.444 195.391 160.156 195.708 158.457 195.708Z" fill="black"/>
<path d="M15.1409 324.8H19.8129C20.9756 324.8 21.8503 325.083 22.4369 325.648C23.0343 326.213 23.3329 327.051 23.3329 328.16C23.3329 329.269 23.0343 330.107 22.4369 330.672C21.8503 331.237 20.9756 331.52 19.8129 331.52H16.6609V336H15.1409V324.8ZM19.7649 330.32C20.4049 330.32 20.9063 330.133 21.2689 329.76C21.6316 329.387 21.8129 328.853 21.8129 328.16C21.8129 327.467 21.6316 326.933 21.2689 326.56C20.9063 326.187 20.4049 326 19.7649 326H16.6609V330.32H19.7649ZM27.6102 336.176C26.5649 336.176 25.7542 335.925 25.1782 335.424C24.6129 334.912 24.3302 334.192 24.3302 333.264V331.216C24.3302 330.288 24.6129 329.573 25.1782 329.072C25.7542 328.56 26.5649 328.304 27.6102 328.304C28.6555 328.304 29.4609 328.56 30.0262 329.072C30.5915 329.573 30.8742 330.288 30.8742 331.216V333.264C30.8742 334.192 30.5915 334.912 30.0262 335.424C29.4609 335.925 28.6555 336.176 27.6102 336.176ZM27.6102 335.072C28.1969 335.072 28.6502 334.917 28.9702 334.608C29.3009 334.288 29.4662 333.84 29.4662 333.264V331.216C29.4662 330.64 29.3009 330.197 28.9702 329.888C28.6502 329.568 28.1969 329.408 27.6102 329.408C27.0129 329.408 26.5489 329.568 26.2182 329.888C25.8982 330.197 25.7382 330.64 25.7382 331.216V333.264C25.7382 333.84 25.8982 334.288 26.2182 334.608C26.5489 334.917 27.0129 335.072 27.6102 335.072ZM35.0948 336.176C34.3908 336.176 33.8202 336.075 33.3828 335.872C32.9562 335.659 32.5615 335.317 32.1988 334.848L33.0948 334.08C33.4042 334.443 33.7028 334.699 33.9908 334.848C34.2895 334.997 34.6575 335.072 35.0948 335.072C36.2575 335.072 36.8388 334.704 36.8388 333.968C36.8388 333.733 36.7748 333.547 36.6468 333.408C36.5295 333.259 36.3162 333.136 36.0068 333.04C35.7082 332.933 35.2548 332.827 34.6468 332.72C33.9002 332.571 33.3402 332.315 32.9668 331.952C32.5935 331.579 32.4068 331.088 32.4068 330.48C32.4068 329.797 32.6575 329.264 33.1588 328.88C33.6602 328.496 34.3482 328.304 35.2228 328.304C36.5135 328.304 37.4202 328.715 37.9428 329.536L37.0468 330.288C36.7908 329.979 36.5188 329.755 36.2308 329.616C35.9535 329.477 35.6175 329.408 35.2228 329.408C34.7535 329.408 34.3908 329.504 34.1348 329.696C33.8788 329.888 33.7508 330.155 33.7508 330.496C33.7508 330.805 33.8735 331.045 34.1188 331.216C34.3642 331.376 34.7535 331.509 35.2868 331.616C35.9908 331.776 36.5455 331.947 36.9508 332.128C37.3562 332.299 37.6602 332.533 37.8628 332.832C38.0655 333.12 38.1668 333.504 38.1668 333.984C38.1668 335.445 37.1428 336.176 35.0948 336.176ZM41.3246 329.584V333.616C41.3246 334.075 41.4152 334.416 41.5966 334.64C41.7779 334.853 42.0659 334.96 42.4606 334.96H43.4846V336.064H42.4606C41.5539 336.064 40.9032 335.872 40.5086 335.488C40.1139 335.104 39.9166 334.48 39.9166 333.616V326.928C39.9166 326.704 39.8739 326.523 39.7886 326.384C39.7032 326.235 39.5486 326.075 39.3246 325.904L40.2686 325.072C40.6632 325.285 40.9352 325.531 41.0846 325.808C41.2446 326.075 41.3246 326.448 41.3246 326.928V328.48H43.4846V329.584H41.3246ZM53.8032 328.304C54.5392 328.304 55.1045 328.528 55.4992 328.976C55.9045 329.413 56.1072 330.043 56.1072 330.864V336H54.6992V331.04C54.6992 330.517 54.5872 330.117 54.3632 329.84C54.1392 329.552 53.8245 329.408 53.4192 329.408C52.9392 329.408 52.5232 329.595 52.1712 329.968C51.8299 330.331 51.5899 330.821 51.4512 331.44V336H50.0432V331.04C50.0432 330.517 49.9312 330.117 49.7072 329.84C49.4832 329.552 49.1685 329.408 48.7632 329.408C48.2832 329.408 47.8672 329.6 47.5152 329.984C47.1632 330.357 46.9232 330.843 46.7952 331.44V336H45.3872V330.16C45.3872 329.936 45.3445 329.755 45.2592 329.616C45.1739 329.467 45.0192 329.307 44.7952 329.136L45.7232 328.304C46.3632 328.624 46.7099 329.109 46.7632 329.76C47.0192 329.291 47.3499 328.933 47.7552 328.688C48.1605 328.432 48.6245 328.304 49.1472 328.304C49.7339 328.304 50.2085 328.453 50.5712 328.752C50.9445 329.04 51.1899 329.461 51.3072 330.016C51.4992 329.493 51.8139 329.077 52.2512 328.768C52.6992 328.459 53.2165 328.304 53.8032 328.304ZM64.5114 334.32C64.5114 334.544 64.5541 334.731 64.6394 334.88C64.7248 335.019 64.8794 335.173 65.1034 335.344L64.1594 336.176C63.6154 335.899 63.2848 335.504 63.1674 334.992C62.9114 335.355 62.5541 335.643 62.0954 335.856C61.6474 336.069 61.1301 336.176 60.5434 336.176C59.7434 336.176 59.1248 335.989 58.6874 335.616C58.2501 335.232 58.0314 334.683 58.0314 333.968C58.0314 333.232 58.2874 332.683 58.7994 332.32C59.3114 331.957 60.0154 331.728 60.9114 331.632L61.9994 331.504C62.4581 331.451 62.7568 331.371 62.8954 331.264C63.0448 331.147 63.1141 330.949 63.1034 330.672C63.0608 330.256 62.8901 329.925 62.5914 329.68C62.3034 329.435 61.8608 329.312 61.2634 329.312C60.8261 329.312 60.4528 329.387 60.1434 329.536C59.8341 329.675 59.5514 329.904 59.2954 330.224L58.3354 329.536C58.6021 329.131 58.9701 328.827 59.4394 328.624C59.9194 328.411 60.5274 328.304 61.2634 328.304C62.3408 328.304 63.1514 328.528 63.6954 328.976C64.2394 329.424 64.5114 330.075 64.5114 330.928V334.32ZM60.8794 335.136C61.5514 335.136 62.0901 334.96 62.4954 334.608C62.9114 334.256 63.1194 333.808 63.1194 333.264V332.192C62.8741 332.331 62.4954 332.421 61.9834 332.464L61.0394 332.56C59.9301 332.688 59.3754 333.141 59.3754 333.92C59.3754 334.315 59.5034 334.619 59.7594 334.832C60.0154 335.035 60.3888 335.136 60.8794 335.136ZM70.7439 328.304C71.5226 328.304 72.1253 328.528 72.5519 328.976C72.9893 329.424 73.2079 330.053 73.2079 330.864V336H71.7999V331.04C71.7999 330.528 71.6719 330.128 71.4159 329.84C71.1599 329.552 70.8079 329.408 70.3599 329.408C69.8586 329.408 69.4266 329.584 69.0639 329.936C68.7013 330.288 68.4346 330.763 68.2639 331.36V336H66.8559V330.16C66.8559 329.936 66.8133 329.755 66.7279 329.616C66.6426 329.467 66.4879 329.307 66.2639 329.136L67.1919 328.304C67.5333 328.496 67.7839 328.699 67.9439 328.912C68.1039 329.125 68.2053 329.403 68.2479 329.744C68.4933 329.296 68.8293 328.944 69.2559 328.688C69.6826 328.432 70.1786 328.304 70.7439 328.304Z" fill="black"/>
<path d="M90.4862 29.8C89.0142 29.8 87.8889 29.4534 87.1102 28.76C86.3315 28.0667 85.9422 27.0534 85.9422 25.72V22.312C85.9422 20.968 86.3262 19.9547 87.0942 19.272C87.8729 18.5894 89.0142 18.248 90.5182 18.248C91.4782 18.248 92.2942 18.392 92.9662 18.68C93.6382 18.968 94.1929 19.4054 94.6302 19.992L93.5102 20.84C93.1475 20.3707 92.7262 20.024 92.2462 19.8C91.7769 19.5654 91.1955 19.448 90.5022 19.448C88.4755 19.448 87.4622 20.4027 87.4622 22.312V25.72C87.4622 27.64 88.4755 28.6 90.5022 28.6C91.3875 28.6 92.0809 28.4347 92.5822 28.104C93.0942 27.7734 93.3502 27.3147 93.3502 26.728V25.88C93.3502 25.4534 93.2382 25.128 93.0142 24.904C92.8009 24.68 92.4809 24.568 92.0542 24.568H90.1662V23.368H92.4382C93.2489 23.368 93.8515 23.56 94.2462 23.944C94.6409 24.328 94.8382 24.9147 94.8382 25.704V26.824C94.8382 27.7414 94.4435 28.4667 93.6542 29C92.8755 29.5334 91.8195 29.8 90.4862 29.8ZM97.6857 20.632C97.4404 20.632 97.227 20.5467 97.0457 20.376C96.875 20.1947 96.7897 19.9814 96.7897 19.736C96.7897 19.4907 96.875 19.2827 97.0457 19.112C97.227 18.9307 97.4404 18.84 97.6857 18.84C97.931 18.84 98.139 18.9307 98.3097 19.112C98.491 19.2827 98.5817 19.4907 98.5817 19.736C98.5817 19.9814 98.491 20.1947 98.3097 20.376C98.139 20.5467 97.931 20.632 97.6857 20.632ZM98.0377 29.8C97.643 29.5867 97.3657 29.3467 97.2057 29.08C97.0564 28.8027 96.9817 28.424 96.9817 27.944V22.104H98.3897V27.944C98.3897 28.168 98.4324 28.3547 98.5177 28.504C98.603 28.6427 98.7577 28.7974 98.9817 28.968L98.0377 29.8ZM102.262 23.208V27.24C102.262 27.6987 102.353 28.04 102.534 28.264C102.715 28.4774 103.003 28.584 103.398 28.584H104.422V29.688H103.398C102.491 29.688 101.841 29.496 101.446 29.112C101.051 28.728 100.854 28.104 100.854 27.24V20.552C100.854 20.328 100.811 20.1467 100.726 20.008C100.641 19.8587 100.486 19.6987 100.262 19.528L101.206 18.696C101.601 18.9094 101.873 19.1547 102.022 19.432C102.182 19.6987 102.262 20.072 102.262 20.552V22.104H104.422V23.208H102.262ZM117.809 29.624L116.993 28.728C116.108 29.4427 114.977 29.8 113.601 29.8C112.428 29.8 111.495 29.512 110.801 28.936C110.108 28.36 109.761 27.5814 109.761 26.6C109.761 25.864 109.964 25.2614 110.369 24.792C110.785 24.312 111.388 23.848 112.177 23.4C111.729 22.888 111.393 22.4294 111.169 22.024C110.945 21.6187 110.833 21.192 110.833 20.744C110.833 19.976 111.089 19.368 111.601 18.92C112.124 18.472 112.828 18.248 113.713 18.248C114.577 18.248 115.265 18.4774 115.777 18.936C116.3 19.384 116.561 19.9974 116.561 20.776C116.561 21.3947 116.38 21.9174 116.017 22.344C115.665 22.76 115.084 23.2134 114.273 23.704L116.881 26.568C117.276 25.8 117.543 24.856 117.681 23.736H119.217C119.025 25.3894 118.593 26.712 117.921 27.704L119.665 29.624H117.809ZM113.713 19.464C113.308 19.464 112.977 19.5814 112.721 19.816C112.476 20.04 112.353 20.3494 112.353 20.744C112.353 21.0747 112.433 21.384 112.593 21.672C112.753 21.96 113.02 22.312 113.393 22.728C113.969 22.3867 114.385 22.0774 114.641 21.8C114.908 21.5227 115.041 21.1814 115.041 20.776C115.041 20.3814 114.919 20.0667 114.673 19.832C114.428 19.5867 114.108 19.464 113.713 19.464ZM113.601 28.6C114.593 28.6 115.409 28.296 116.049 27.688L113.073 24.392C112.465 24.7227 112.012 25.048 111.713 25.368C111.425 25.6774 111.281 26.088 111.281 26.6C111.281 27.208 111.489 27.6934 111.905 28.056C112.321 28.4187 112.887 28.6 113.601 28.6ZM129.705 29.8C128.233 29.8 127.108 29.4534 126.329 28.76C125.55 28.0667 125.161 27.0534 125.161 25.72V22.312C125.161 20.968 125.545 19.9547 126.313 19.272C127.092 18.5894 128.233 18.248 129.737 18.248C130.697 18.248 131.513 18.392 132.185 18.68C132.857 18.968 133.412 19.4054 133.849 19.992L132.729 20.84C132.366 20.3707 131.945 20.024 131.465 19.8C130.996 19.5654 130.414 19.448 129.721 19.448C127.694 19.448 126.681 20.4027 126.681 22.312V25.72C126.681 27.64 127.694 28.6 129.721 28.6C130.606 28.6 131.3 28.4347 131.801 28.104C132.313 27.7734 132.569 27.3147 132.569 26.728V25.88C132.569 25.4534 132.457 25.128 132.233 24.904C132.02 24.68 131.7 24.568 131.273 24.568H129.385V23.368H131.657C132.468 23.368 133.07 23.56 133.465 23.944C133.86 24.328 134.057 24.9147 134.057 25.704V26.824C134.057 27.7414 133.662 28.4667 132.873 29C132.094 29.5334 131.038 29.8 129.705 29.8ZM136.904 20.632C136.659 20.632 136.446 20.5467 136.264 20.376C136.094 20.1947 136.008 19.9814 136.008 19.736C136.008 19.4907 136.094 19.2827 136.264 19.112C136.446 18.9307 136.659 18.84 136.904 18.84C137.15 18.84 137.358 18.9307 137.528 19.112C137.71 19.2827 137.8 19.4907 137.8 19.736C137.8 19.9814 137.71 20.1947 137.528 20.376C137.358 20.5467 137.15 20.632 136.904 20.632ZM137.256 29.8C136.862 29.5867 136.584 29.3467 136.424 29.08C136.275 28.8027 136.2 28.424 136.2 27.944V22.104H137.608V27.944C137.608 28.168 137.651 28.3547 137.736 28.504C137.822 28.6427 137.976 28.7974 138.2 28.968L137.256 29.8ZM141.481 23.208V27.24C141.481 27.6987 141.571 28.04 141.753 28.264C141.934 28.4774 142.222 28.584 142.617 28.584H143.641V29.688H142.617C141.71 29.688 141.059 29.496 140.665 29.112C140.27 28.728 140.073 28.104 140.073 27.24V20.552C140.073 20.328 140.03 20.1467 139.945 20.008C139.859 19.8587 139.705 19.6987 139.481 19.528L140.425 18.696C140.819 18.9094 141.091 19.1547 141.241 19.432C141.401 19.6987 141.481 20.072 141.481 20.552V22.104H143.641V23.208H141.481ZM149.431 21.928C150.21 21.928 150.813 22.152 151.239 22.6C151.677 23.048 151.895 23.6774 151.895 24.488V29.624H150.487V24.664C150.487 24.152 150.359 23.752 150.103 23.464C149.858 23.176 149.511 23.032 149.063 23.032C148.551 23.032 148.114 23.208 147.751 23.56C147.389 23.912 147.122 24.3867 146.951 24.984V29.624H145.543V19.752C145.543 19.528 145.501 19.3467 145.415 19.208C145.33 19.0587 145.175 18.8987 144.951 18.728L145.879 17.896C146.285 18.1094 146.562 18.3547 146.711 18.632C146.871 18.8987 146.951 19.272 146.951 19.752V23.352C147.197 22.904 147.527 22.5574 147.943 22.312C148.37 22.056 148.866 21.928 149.431 21.928ZM160.565 27.928C160.565 28.152 160.607 28.3387 160.693 28.488C160.778 28.6267 160.933 28.7867 161.157 28.968L160.213 29.8C159.871 29.608 159.621 29.4 159.461 29.176C159.301 28.952 159.205 28.664 159.173 28.312C158.917 28.7814 158.575 29.1494 158.149 29.416C157.733 29.672 157.231 29.8 156.645 29.8C155.845 29.8 155.226 29.576 154.789 29.128C154.351 28.6694 154.133 28.0187 154.133 27.176V22.104H155.541V27.064C155.541 27.576 155.674 27.976 155.941 28.264C156.207 28.552 156.575 28.696 157.045 28.696C157.557 28.696 157.994 28.52 158.357 28.168C158.719 27.8054 158.986 27.32 159.157 26.712V22.104H160.565V27.928ZM166.962 29.8C165.853 29.8 165.037 29.4267 164.514 28.68V29.624H163.106V19.768C163.106 19.5334 163.063 19.3467 162.978 19.208C162.903 19.0694 162.749 18.9094 162.514 18.728L163.442 17.896C163.847 18.1094 164.125 18.3547 164.274 18.632C164.434 18.8987 164.514 19.2774 164.514 19.768V23.08C165.058 22.312 165.869 21.928 166.946 21.928C167.618 21.928 168.199 22.088 168.69 22.408C169.191 22.7174 169.575 23.1494 169.842 23.704C170.109 24.2587 170.242 24.8934 170.242 25.608V26.12C170.242 26.8347 170.109 27.4694 169.842 28.024C169.586 28.5787 169.207 29.016 168.706 29.336C168.215 29.6454 167.634 29.8 166.962 29.8ZM166.626 28.696C167.298 28.696 167.831 28.456 168.226 27.976C168.631 27.496 168.834 26.8774 168.834 26.12V25.608C168.834 24.8507 168.631 24.232 168.226 23.752C167.831 23.272 167.298 23.032 166.626 23.032C165.538 23.032 164.834 23.56 164.514 24.616V27.112C164.834 28.168 165.538 28.696 166.626 28.696Z" fill="black"/>
<path d="M193.796 328.192C193.796 327.061 194.1 326.213 194.708 325.648C195.316 325.083 196.27 324.8 197.572 324.8H201.396V326H197.572C196.793 326 196.222 326.181 195.86 326.544C195.497 326.896 195.316 327.445 195.316 328.192V330.112H200.612V331.328H195.316V336H193.796V328.192ZM203.537 327.008C203.292 327.008 203.079 326.923 202.897 326.752C202.727 326.571 202.641 326.357 202.641 326.112C202.641 325.867 202.727 325.659 202.897 325.488C203.079 325.307 203.292 325.216 203.537 325.216C203.783 325.216 203.991 325.307 204.161 325.488C204.343 325.659 204.433 325.867 204.433 326.112C204.433 326.357 204.343 326.571 204.161 326.752C203.991 326.923 203.783 327.008 203.537 327.008ZM203.889 336.176C203.495 335.963 203.217 335.723 203.057 335.456C202.908 335.179 202.833 334.8 202.833 334.32V328.48H204.241V334.32C204.241 334.544 204.284 334.731 204.369 334.88C204.455 335.019 204.609 335.173 204.833 335.344L203.889 336.176ZM214.002 329.136C213.778 329.307 213.623 329.467 213.538 329.616C213.452 329.755 213.41 329.936 213.41 330.16V336.448C213.41 337.387 213.159 338.08 212.658 338.528C212.156 338.976 211.372 339.2 210.306 339.2H208.322V338.096H210.306C210.871 338.096 211.292 337.957 211.57 337.68C211.858 337.413 212.002 337.003 212.002 336.448V334.848C211.479 335.616 210.668 336 209.57 336C208.556 336 207.751 335.669 207.154 335.008C206.567 334.347 206.274 333.451 206.274 332.32V331.984C206.274 331.269 206.402 330.635 206.658 330.08C206.924 329.525 207.303 329.093 207.794 328.784C208.295 328.464 208.887 328.304 209.57 328.304C210.114 328.304 210.599 328.411 211.026 328.624C211.452 328.837 211.81 329.147 212.098 329.552C212.14 329.275 212.231 329.04 212.37 328.848C212.508 328.656 212.738 328.475 213.058 328.304L214.002 329.136ZM209.89 334.896C210.444 334.896 210.892 334.763 211.234 334.496C211.575 334.229 211.831 333.824 212.002 333.28V331.008C211.831 330.464 211.57 330.064 211.218 329.808C210.876 329.541 210.434 329.408 209.89 329.408C209.218 329.408 208.679 329.648 208.274 330.128C207.879 330.608 207.682 331.227 207.682 331.984V332.32C207.682 333.077 207.879 333.696 208.274 334.176C208.668 334.656 209.207 334.896 209.89 334.896ZM224.374 328.304C225.11 328.304 225.675 328.528 226.07 328.976C226.475 329.413 226.678 330.043 226.678 330.864V336H225.27V331.04C225.27 330.517 225.158 330.117 224.934 329.84C224.71 329.552 224.395 329.408 223.99 329.408C223.51 329.408 223.094 329.595 222.742 329.968C222.4 330.331 222.16 330.821 222.022 331.44V336H220.614V331.04C220.614 330.517 220.502 330.117 220.278 329.84C220.054 329.552 219.739 329.408 219.334 329.408C218.854 329.408 218.438 329.6 218.086 329.984C217.734 330.357 217.494 330.843 217.366 331.44V336H215.958V330.16C215.958 329.936 215.915 329.755 215.83 329.616C215.744 329.467 215.59 329.307 215.366 329.136L216.294 328.304C216.934 328.624 217.28 329.109 217.334 329.76C217.59 329.291 217.92 328.933 218.326 328.688C218.731 328.432 219.195 328.304 219.718 328.304C220.304 328.304 220.779 328.453 221.142 328.752C221.515 329.04 221.76 329.461 221.878 330.016C222.07 329.493 222.384 329.077 222.822 328.768C223.27 328.459 223.787 328.304 224.374 328.304ZM235.082 334.32C235.082 334.544 235.124 334.731 235.21 334.88C235.295 335.019 235.45 335.173 235.674 335.344L234.73 336.176C234.186 335.899 233.855 335.504 233.738 334.992C233.482 335.355 233.124 335.643 232.666 335.856C232.218 336.069 231.7 336.176 231.114 336.176C230.314 336.176 229.695 335.989 229.258 335.616C228.82 335.232 228.602 334.683 228.602 333.968C228.602 333.232 228.858 332.683 229.37 332.32C229.882 331.957 230.586 331.728 231.482 331.632L232.57 331.504C233.028 331.451 233.327 331.371 233.466 331.264C233.615 331.147 233.684 330.949 233.674 330.672C233.631 330.256 233.46 329.925 233.162 329.68C232.874 329.435 232.431 329.312 231.834 329.312C231.396 329.312 231.023 329.387 230.714 329.536C230.404 329.675 230.122 329.904 229.866 330.224L228.906 329.536C229.172 329.131 229.54 328.827 230.01 328.624C230.49 328.411 231.098 328.304 231.834 328.304C232.911 328.304 233.722 328.528 234.266 328.976C234.81 329.424 235.082 330.075 235.082 330.928V334.32ZM231.45 335.136C232.122 335.136 232.66 334.96 233.066 334.608C233.482 334.256 233.69 333.808 233.69 333.264V332.192C233.444 332.331 233.066 332.421 232.554 332.464L231.61 332.56C230.5 332.688 229.946 333.141 229.946 333.92C229.946 334.315 230.074 334.619 230.33 334.832C230.586 335.035 230.959 335.136 231.45 335.136Z" fill="black"/>
<defs>
<filter id="filter0_d_180_319" x="6.49707" y="69.7007" width="253" height="253" filterUnits="userSpaceOnUse" color-interpolation-filters="sRGB">
<feFlood flood-opacity="0" result="BackgroundImageFix"/>
<feColorMatrix in="SourceAlpha" type="matrix" values="0 0 0 0 0 0 0 0 0 0 0 0 0 0 0 0 0 0 127 0" result="hardAlpha"/>
<feMorphology radius="4" operator="dilate" in="SourceAlpha" result="effect1_dropShadow_180_319"/>
<feOffset dx="5" dy="6"/>
<feGaussianBlur stdDeviation="2"/>
<feComposite in2="hardAlpha" operator="out"/>
<feColorMatrix type="matrix" values="0 0 0 0 0 0 0 0 0 0 0 0 0 0 0 0 0 0 0.25 0"/>
<feBlend mode="normal" in2="BackgroundImageFix" result="effect1_dropShadow_180_319"/>
<feBlend mode="normal" in="SourceGraphic" in2="effect1_dropShadow_180_319" result="shape"/>
</filter>
<filter id="filter1_d_180_319" x="5.19458" y="234" width="84" height="84" filterUnits="userSpaceOnUse" color-interpolation-filters="sRGB">
<feFlood flood-opacity="0" result="BackgroundImageFix"/>
<feColorMatrix in="SourceAlpha" type="matrix" values="0 0 0 0 0 0 0 0 0 0 0 0 0 0 0 0 0 0 127 0" result="hardAlpha"/>
<feOffset dx="2" dy="2"/>
<feGaussianBlur stdDeviation="2"/>
<feComposite in2="hardAlpha" operator="out"/>
<feColorMatrix type="matrix" values="0 0 0 0 0 0 0 0 0 0 0 0 0 0 0 0 0 0 0.25 0"/>
<feBlend mode="normal" in2="BackgroundImageFix" result="effect1_dropShadow_180_319"/>
<feBlend mode="normal" in="SourceGraphic" in2="effect1_dropShadow_180_319" result="shape"/>
</filter>
<filter id="filter2_d_180_319" x="170.497" y="232" width="84" height="84" filterUnits="userSpaceOnUse" color-interpolation-filters="sRGB">
<feFlood flood-opacity="0" result="BackgroundImageFix"/>
<feColorMatrix in="SourceAlpha" type="matrix" values="0 0 0 0 0 0 0 0 0 0 0 0 0 0 0 0 0 0 127 0" result="hardAlpha"/>
<feOffset dx="2" dy="2"/>
<feGaussianBlur stdDeviation="2"/>
<feComposite in2="hardAlpha" operator="out"/>
<feColorMatrix type="matrix" values="0 0 0 0 0 0 0 0 0 0 0 0 0 0 0 0 0 0 0.25 0"/>
<feBlend mode="normal" in2="BackgroundImageFix" result="effect1_dropShadow_180_319"/>
<feBlend mode="normal" in="SourceGraphic" in2="effect1_dropShadow_180_319" result="shape"/>
</filter>
<filter id="filter3_d_180_319" x="87" y="38" width="84" height="84" filterUnits="userSpaceOnUse" color-interpolation-filters="sRGB">
<feFlood flood-opacity="0" result="BackgroundImageFix"/>
<feColorMatrix in="SourceAlpha" type="matrix" values="0 0 0 0 0 0 0 0 0 0 0 0 0 0 0 0 0 0 127 0" result="hardAlpha"/>
<feOffset dx="2" dy="2"/>
<feGaussianBlur stdDeviation="2"/>
<feComposite in2="hardAlpha" operator="out"/>
<feColorMatrix type="matrix" values="0 0 0 0 0 0 0 0 0 0 0 0 0 0 0 0 0 0 0.25 0"/>
<feBlend mode="normal" in2="BackgroundImageFix" result="effect1_dropShadow_180_319"/>
<feBlend mode="normal" in="SourceGraphic" in2="effect1_dropShadow_180_319" result="shape"/>
</filter>
<clipPath id="clip0_180_319">
<rect width="36" height="50" fill="white" transform="translate(192.497 247)"/>
</clipPath>
</defs>
</svg>
