<svg width="485" height="325" viewBox="0 0 485 325" fill="none" xmlns="http://www.w3.org/2000/svg">
<g filter="url(#filter0_d_146_38)">
<circle cx="240.5" cy="154.201" r="116" stroke="black" stroke-width="5" shape-rendering="crispEdges"/>
</g>
<g filter="url(#filter1_d_146_38)">
<circle cx="128" cy="129" r="38" fill="#EEE7DB"/>
<circle cx="128" cy="129" r="35.5" stroke="black" stroke-width="5"/>
</g>
<path d="M155.275 132.492C157.2 117.425 146.559 103.65 131.519 101.725C116.48 99.8003 102.65 110.441 100.725 125.481C98.8003 140.52 109.441 154.323 124.481 156.275C139.548 158.2 153.323 147.559 155.275 132.492Z" fill="#FF6C37"/>
<path d="M137.568 118.387L126.076 129.484L122.835 126.354C134.137 115.442 135.253 116.388 137.568 118.387Z" fill="white"/>
<path d="M126.076 129.746C125.994 129.746 125.94 129.72 125.885 129.668L122.618 126.538C122.509 126.433 122.509 126.275 122.618 126.17C134.11 115.073 135.308 116.125 137.732 118.229C137.786 118.281 137.813 118.334 137.813 118.413C137.813 118.492 137.786 118.544 137.732 118.597L126.24 129.668C126.212 129.72 126.131 129.746 126.076 129.746ZM123.217 126.354L126.076 129.115L137.16 118.413C135.145 116.677 133.783 116.151 123.217 126.354Z" fill="#FF6C37"/>
<path d="M129.371 132.665L126.24 129.641L137.732 118.545C140.809 121.542 136.207 126.407 129.371 132.665Z" fill="white"/>
<path d="M129.371 132.928C129.29 132.928 129.235 132.902 129.181 132.849L126.049 129.825C125.994 129.773 125.994 129.72 125.994 129.641C125.994 129.562 126.022 129.51 126.076 129.457L137.568 118.36C137.677 118.255 137.841 118.255 137.949 118.36C138.657 118.991 139.039 119.886 139.011 120.806C138.957 123.725 135.526 127.432 129.589 132.849C129.507 132.902 129.426 132.928 129.371 132.928ZM126.621 129.641C128.364 131.351 129.099 132.034 129.371 132.297C133.946 128.09 138.385 123.777 138.412 120.806C138.44 120.122 138.167 119.439 137.704 118.913L126.621 129.641Z" fill="#FF6C37"/>
<path d="M122.89 126.433L125.205 128.669C125.259 128.721 125.259 128.774 125.205 128.826C125.177 128.853 125.177 128.853 125.15 128.853L120.357 129.852C120.112 129.878 119.894 129.72 119.84 129.484C119.813 129.352 119.867 129.221 119.949 129.142L122.727 126.46C122.781 126.407 122.863 126.381 122.89 126.433Z" fill="white"/>
<path d="M120.276 130.115C119.867 130.115 119.568 129.799 119.568 129.405C119.568 129.221 119.649 129.037 119.785 128.905L122.563 126.223C122.727 126.092 122.944 126.092 123.108 126.223L125.423 128.458C125.586 128.59 125.586 128.826 125.423 128.984C125.368 129.037 125.314 129.063 125.232 129.089L120.439 130.089C120.385 130.089 120.33 130.115 120.276 130.115ZM122.808 126.723L120.139 129.3C120.085 129.352 120.058 129.431 120.112 129.51C120.139 129.589 120.221 129.615 120.303 129.589L124.796 128.642L122.808 126.723Z" fill="#FF6C37"/>
<path d="M143.641 112.234C141.898 110.603 139.093 110.656 137.405 112.365C135.716 114.074 135.771 116.756 137.541 118.387C138.984 119.728 141.163 119.965 142.879 118.965L139.774 115.968L143.641 112.234Z" fill="white"/>
<path d="M140.591 119.833C138.004 119.833 135.907 117.808 135.907 115.31C135.907 112.812 138.004 110.787 140.591 110.787C141.789 110.787 142.96 111.234 143.832 112.05C143.886 112.102 143.913 112.155 143.913 112.234C143.913 112.313 143.886 112.365 143.832 112.418L140.155 115.968L143.042 118.755C143.151 118.86 143.151 119.018 143.042 119.123C143.015 119.149 143.015 119.149 142.987 119.176C142.279 119.596 141.435 119.833 140.591 119.833ZM140.591 111.34C138.303 111.34 136.452 113.128 136.479 115.337C136.479 117.545 138.331 119.334 140.618 119.307C141.245 119.307 141.871 119.176 142.443 118.887L139.583 116.152C139.529 116.099 139.502 116.047 139.502 115.968C139.502 115.889 139.529 115.836 139.583 115.784L143.233 112.26C142.497 111.655 141.571 111.34 140.591 111.34Z" fill="#FF6C37"/>
<path d="M143.723 112.312L143.668 112.26L139.774 115.968L142.851 118.939C143.151 118.755 143.45 118.545 143.695 118.308C145.438 116.651 145.438 113.969 143.723 112.312Z" fill="white"/>
<path d="M142.879 119.228C142.797 119.228 142.742 119.202 142.688 119.149L139.583 116.152C139.529 116.099 139.502 116.046 139.502 115.968C139.502 115.889 139.529 115.836 139.583 115.783L143.45 112.049C143.559 111.944 143.723 111.944 143.832 112.049L143.913 112.102C145.738 113.864 145.738 116.704 143.941 118.492C143.668 118.755 143.369 118.992 143.042 119.176C142.96 119.202 142.906 119.228 142.879 119.228ZM140.155 115.968L142.906 118.623C143.124 118.492 143.341 118.308 143.505 118.15C145.057 116.651 145.139 114.206 143.641 112.628L140.155 115.968Z" fill="#FF6C37"/>
<path d="M138.031 118.86C137.378 118.229 136.316 118.229 135.662 118.86L125.395 128.774L127.111 130.43L137.977 121.227C138.685 120.648 138.739 119.623 138.14 118.939C138.086 118.913 138.058 118.886 138.031 118.86Z" fill="white"/>
<path d="M127.084 130.693C127.002 130.693 126.948 130.667 126.893 130.615L125.177 128.958C125.069 128.853 125.069 128.695 125.177 128.59L135.444 118.676C136.207 117.94 137.432 117.94 138.195 118.676C138.957 119.413 138.957 120.596 138.195 121.332C138.167 121.358 138.14 121.385 138.113 121.411L127.247 130.615C127.22 130.667 127.165 130.693 127.084 130.693ZM125.777 128.774L127.111 130.062L137.786 121.017C138.385 120.543 138.44 119.675 137.949 119.097C137.459 118.518 136.561 118.466 135.961 118.939C135.934 118.965 135.907 118.992 135.853 119.018L125.777 128.774Z" fill="#FF6C37"/>
<path d="M117.525 140.055C117.416 140.107 117.362 140.212 117.389 140.317L117.852 142.211C117.961 142.474 117.797 142.789 117.498 142.868C117.28 142.947 117.035 142.868 116.899 142.71L113.903 139.844L123.68 130.404L127.056 130.457L129.344 132.665C128.799 133.112 125.504 136.189 117.525 140.055Z" fill="white"/>
<path d="M117.307 143.131C117.089 143.131 116.872 143.052 116.735 142.895L113.767 140.028C113.713 139.976 113.685 139.923 113.685 139.844C113.685 139.765 113.713 139.713 113.767 139.66L123.544 130.22C123.598 130.167 123.68 130.141 123.734 130.141L127.111 130.194C127.193 130.194 127.247 130.22 127.302 130.273L129.589 132.481C129.644 132.534 129.671 132.613 129.671 132.692C129.671 132.771 129.644 132.823 129.562 132.876L129.371 133.034C126.485 135.479 122.563 137.925 117.689 140.265L118.151 142.132C118.233 142.474 118.07 142.842 117.743 143.026C117.58 143.105 117.443 143.131 117.307 143.131ZM114.312 139.844L117.117 142.526C117.198 142.658 117.362 142.711 117.498 142.632C117.634 142.553 117.689 142.395 117.607 142.264L117.144 140.37C117.089 140.134 117.198 139.923 117.416 139.818C122.236 137.478 126.131 135.058 128.99 132.666L126.975 130.72L123.843 130.667L114.312 139.844Z" fill="#FF6C37"/>
<path d="M111.588 142.106L113.93 139.844L117.416 143.21L111.861 142.842C111.616 142.816 111.452 142.605 111.48 142.369C111.48 142.263 111.507 142.158 111.588 142.106Z" fill="white"/>
<path d="M117.416 143.447L111.834 143.079C111.425 143.052 111.153 142.71 111.18 142.316C111.207 142.158 111.262 142 111.398 141.895L113.74 139.634C113.849 139.529 114.012 139.529 114.121 139.634L117.607 143C117.689 143.079 117.716 143.184 117.661 143.289C117.607 143.394 117.525 143.447 117.416 143.447ZM113.93 140.212L111.779 142.29C111.697 142.342 111.697 142.474 111.779 142.526C111.806 142.553 111.834 142.579 111.888 142.579L116.708 142.895L113.93 140.212Z" fill="#FF6C37"/>
<path d="M122.727 131.614C122.563 131.614 122.454 131.482 122.454 131.351C122.454 131.272 122.481 131.219 122.536 131.167L125.177 128.616C125.286 128.511 125.45 128.511 125.559 128.616L127.274 130.273C127.356 130.352 127.383 130.43 127.356 130.536C127.329 130.614 127.247 130.693 127.138 130.72L122.781 131.614C122.754 131.614 122.727 131.614 122.727 131.614ZM125.368 129.168L123.571 130.904L126.512 130.299L125.368 129.168Z" fill="#FF6C37"/>
<path d="M127.056 130.457L124.061 131.088C123.843 131.14 123.625 131.009 123.571 130.798C123.544 130.667 123.571 130.535 123.68 130.43L125.341 128.826L127.056 130.457Z" fill="white"/>
<path d="M124.006 131.351C123.625 131.351 123.326 131.062 123.326 130.693C123.326 130.509 123.407 130.352 123.516 130.22L125.177 128.616C125.286 128.511 125.45 128.511 125.559 128.616L127.274 130.273C127.356 130.352 127.383 130.43 127.356 130.536C127.329 130.614 127.247 130.693 127.138 130.72L124.143 131.351C124.088 131.351 124.034 131.351 124.006 131.351ZM125.368 129.168L123.898 130.588C123.843 130.641 123.843 130.693 123.87 130.746C123.898 130.799 123.952 130.825 124.034 130.825L126.539 130.299L125.368 129.168Z" fill="#FF6C37"/>
<path d="M143.75 114.837C143.695 114.679 143.505 114.6 143.341 114.653C143.178 114.706 143.096 114.89 143.151 115.047C143.151 115.074 143.178 115.1 143.178 115.126C143.341 115.442 143.287 115.836 143.069 116.126C142.96 116.257 142.987 116.441 143.096 116.546C143.233 116.651 143.423 116.625 143.532 116.494C143.941 115.994 144.022 115.363 143.75 114.837Z" fill="#FF6C37"/>
<g filter="url(#filter2_d_146_38)">
<circle cx="252.445" cy="261" r="38" fill="#EEE7DB"/>
<circle cx="252.445" cy="261" r="35.5" stroke="black" stroke-width="5"/>
</g>
<g clip-path="url(#clip0_146_38)">
<path d="M244.197 286C248.75 286 252.445 282.267 252.445 277.667V269.333H244.197C239.644 269.333 235.949 273.067 235.949 277.667C235.949 282.267 239.644 286 244.197 286Z" fill="#0ACF83"/>
<path d="M235.949 261C235.949 256.4 239.644 252.667 244.197 252.667H252.445V269.333H244.197C239.644 269.333 235.949 265.6 235.949 261Z" fill="#A259FF"/>
<path d="M235.949 244.333C235.949 239.733 239.644 236 244.197 236H252.445V252.667H244.197C239.644 252.667 235.949 248.933 235.949 244.333Z" fill="#F24E1E"/>
<path d="M252.445 236H260.694C265.247 236 268.942 239.733 268.942 244.333C268.942 248.933 265.247 252.667 260.694 252.667H252.445V236Z" fill="#FF7262"/>
<path d="M268.942 261C268.942 265.6 265.247 269.333 260.694 269.333C256.141 269.333 252.445 265.6 252.445 261C252.445 256.4 256.141 252.667 260.694 252.667C265.247 252.667 268.942 256.4 268.942 261Z" fill="#1ABCFE"/>
</g>
<g filter="url(#filter3_d_146_38)">
<path d="M362 87C362 107.987 344.987 125 324 125C303.013 125 286 107.987 286 87C286 66.0132 303.013 49 324 49C344.987 49 362 66.0132 362 87Z" fill="#EEE7DB"/>
<path d="M359.5 87C359.5 106.606 343.606 122.5 324 122.5C304.394 122.5 288.5 106.606 288.5 87C288.5 67.3939 304.394 51.5 324 51.5C343.606 51.5 359.5 67.3939 359.5 87Z" stroke="black" stroke-width="5"/>
</g>
<path fill-rule="evenodd" clip-rule="evenodd" d="M324 59.5C308.806 59.5 296.5 72.1175 296.5 87.6956C296.5 100.172 304.372 110.71 315.303 114.446C316.678 114.693 317.194 113.847 317.194 113.107C317.194 112.437 317.159 110.217 317.159 107.855C310.25 109.159 308.462 106.128 307.912 104.542C307.603 103.732 306.263 101.229 305.094 100.56C304.131 100.031 302.756 98.7271 305.059 98.6919C307.225 98.6566 308.772 100.736 309.288 101.582C311.763 105.846 315.716 104.648 317.297 103.908C317.538 102.075 318.259 100.842 319.05 100.137C312.931 99.432 306.538 97.0001 306.538 86.2153C306.538 83.149 307.603 80.6114 309.356 78.6377C309.081 77.9329 308.119 75.0428 309.631 71.1659C309.631 71.1659 311.934 70.4258 317.194 74.056C319.394 73.4216 321.731 73.1044 324.069 73.1044C326.406 73.1044 328.744 73.4216 330.944 74.056C336.203 70.3905 338.506 71.1659 338.506 71.1659C340.019 75.0428 339.056 77.9329 338.781 78.6377C340.534 80.6114 341.6 83.1138 341.6 86.2153C341.6 97.0354 335.172 99.432 329.053 100.137C330.05 101.018 330.909 102.71 330.909 105.353C330.909 109.124 330.875 112.155 330.875 113.107C330.875 113.847 331.391 114.728 332.766 114.446C343.628 110.71 351.5 100.137 351.5 87.6956C351.5 72.1175 339.194 59.5 324 59.5Z" fill="#1B1F23"/>
<path d="M205.814 162.935C202.622 162.935 200.174 162.155 198.47 160.595C196.766 159.011 195.914 156.731 195.914 153.755V146.123C195.914 143.147 196.766 140.879 198.47 139.319C200.174 137.735 202.622 136.943 205.814 136.943C209.006 136.943 211.454 137.735 213.158 139.319C214.862 140.879 215.714 143.147 215.714 146.123V153.755C215.714 156.731 214.862 159.011 213.158 160.595C211.454 162.155 209.006 162.935 205.814 162.935ZM205.814 160.847C208.166 160.847 209.966 160.235 211.214 159.011C212.486 157.787 213.122 156.035 213.122 153.755V146.123C213.122 143.843 212.486 142.091 211.214 140.867C209.966 139.643 208.166 139.031 205.814 139.031C203.462 139.031 201.65 139.643 200.378 140.867C199.13 142.091 198.506 143.843 198.506 146.123V153.755C198.506 156.035 199.13 157.787 200.378 159.011C201.65 160.235 203.462 160.847 205.814 160.847ZM234.395 159.479C234.395 159.911 234.467 160.271 234.611 160.559C234.779 160.823 235.091 161.147 235.547 161.531L233.927 162.935C233.207 162.527 232.703 162.071 232.415 161.567C232.127 161.039 231.983 160.319 231.983 159.407V159.155C231.383 160.379 230.567 161.315 229.535 161.963C228.503 162.611 227.291 162.935 225.899 162.935C224.147 162.935 222.791 162.419 221.831 161.387C220.871 160.331 220.391 158.855 220.391 156.959V145.619H222.803V156.815C222.803 158.159 223.127 159.191 223.775 159.911C224.447 160.631 225.383 160.991 226.583 160.991C227.879 160.991 228.995 160.523 229.931 159.587C230.891 158.651 231.575 157.367 231.983 155.735V145.619H234.395V159.479ZM242.496 147.563V157.643C242.496 159.779 243.432 160.847 245.304 160.847H247.356V162.755H245.304C243.504 162.755 242.184 162.347 241.344 161.531C240.504 160.691 240.084 159.395 240.084 157.643V141.695C240.084 141.263 240 140.915 239.832 140.651C239.688 140.363 239.4 140.039 238.968 139.679L240.588 138.239C241.308 138.647 241.8 139.115 242.064 139.643C242.352 140.147 242.496 140.855 242.496 141.767V145.619H247.356V147.563H242.496ZM252.917 141.803C252.461 141.803 252.065 141.635 251.729 141.299C251.393 140.963 251.225 140.567 251.225 140.111C251.225 139.655 251.393 139.271 251.729 138.959C252.065 138.623 252.461 138.455 252.917 138.455C253.373 138.455 253.757 138.623 254.069 138.959C254.405 139.271 254.573 139.655 254.573 140.111C254.573 140.567 254.405 140.963 254.069 141.299C253.757 141.635 253.373 141.803 252.917 141.803ZM253.637 162.935C252.893 162.527 252.377 162.071 252.089 161.567C251.825 161.039 251.693 160.319 251.693 159.407V145.619H254.105V159.479C254.105 159.911 254.177 160.271 254.321 160.559C254.489 160.823 254.789 161.135 255.221 161.495L253.637 162.935ZM262.423 162.935C261.679 162.527 261.163 162.071 260.875 161.567C260.611 161.039 260.479 160.319 260.479 159.407V139.895C260.479 139.439 260.395 139.079 260.227 138.815C260.083 138.527 259.795 138.215 259.363 137.879L260.947 136.439C261.691 136.847 262.195 137.315 262.459 137.843C262.747 138.347 262.891 139.055 262.891 139.967V159.479C262.891 159.911 262.963 160.271 263.107 160.559C263.275 160.823 263.575 161.135 264.007 161.495L262.423 162.935ZM273.88 162.935C272.464 162.935 271.252 162.707 270.244 162.251C269.26 161.795 268.36 161.051 267.544 160.019L269.092 158.687C269.836 159.527 270.568 160.127 271.288 160.487C272.008 160.823 272.872 160.991 273.88 160.991C275.32 160.991 276.412 160.739 277.156 160.235C277.9 159.731 278.272 158.999 278.272 158.039C278.272 157.439 278.128 156.959 277.84 156.599C277.552 156.239 277.048 155.927 276.328 155.663C275.608 155.399 274.516 155.135 273.052 154.871C269.692 154.271 268.012 152.663 268.012 150.047C268.012 148.535 268.552 147.359 269.632 146.519C270.736 145.655 272.248 145.223 274.168 145.223C275.536 145.223 276.724 145.463 277.732 145.943C278.764 146.399 279.544 147.071 280.072 147.959L278.524 149.255C277.972 148.535 277.336 148.007 276.616 147.671C275.92 147.335 275.104 147.167 274.168 147.167C272.968 147.167 272.02 147.419 271.324 147.923C270.652 148.427 270.316 149.123 270.316 150.011C270.316 150.803 270.592 151.415 271.144 151.847C271.72 152.279 272.716 152.639 274.132 152.927C275.788 153.287 277.072 153.683 277.984 154.115C278.92 154.523 279.58 155.039 279.964 155.663C280.372 156.287 280.576 157.079 280.576 158.039C280.576 159.647 280 160.871 278.848 161.711C277.72 162.527 276.064 162.935 273.88 162.935Z" fill="black"/>
<path d="M7.03936 116.693H12.8794C14.3327 116.693 15.426 117.047 16.1594 117.753C16.906 118.46 17.2794 119.507 17.2794 120.893C17.2794 122.28 16.906 123.327 16.1594 124.033C15.426 124.74 14.3327 125.093 12.8794 125.093H8.93936V130.693H7.03936V116.693ZM12.8194 123.593C13.6194 123.593 14.246 123.36 14.6994 122.893C15.1527 122.427 15.3794 121.76 15.3794 120.893C15.3794 120.027 15.1527 119.36 14.6994 118.893C14.246 118.427 13.6194 118.193 12.8194 118.193H8.93936V123.593H12.8194ZM22.6259 130.913C21.3193 130.913 20.3059 130.6 19.5859 129.973C18.8793 129.333 18.5259 128.433 18.5259 127.273V124.713C18.5259 123.553 18.8793 122.66 19.5859 122.033C20.3059 121.393 21.3193 121.073 22.6259 121.073C23.9326 121.073 24.9393 121.393 25.6459 122.033C26.3526 122.66 26.7059 123.553 26.7059 124.713V127.273C26.7059 128.433 26.3526 129.333 25.6459 129.973C24.9393 130.6 23.9326 130.913 22.6259 130.913ZM22.6259 129.533C23.3593 129.533 23.9259 129.34 24.3259 128.953C24.7393 128.553 24.9459 127.993 24.9459 127.273V124.713C24.9459 123.993 24.7393 123.44 24.3259 123.053C23.9259 122.653 23.3593 122.453 22.6259 122.453C21.8793 122.453 21.2993 122.653 20.8859 123.053C20.4859 123.44 20.2859 123.993 20.2859 124.713V127.273C20.2859 127.993 20.4859 128.553 20.8859 128.953C21.2993 129.34 21.8793 129.533 22.6259 129.533ZM31.9817 130.913C31.1017 130.913 30.3884 130.787 29.8417 130.533C29.3084 130.267 28.815 129.84 28.3617 129.253L29.4817 128.293C29.8684 128.747 30.2417 129.067 30.6017 129.253C30.975 129.44 31.435 129.533 31.9817 129.533C33.435 129.533 34.1617 129.073 34.1617 128.153C34.1617 127.86 34.0817 127.627 33.9217 127.453C33.775 127.267 33.5084 127.113 33.1217 126.993C32.7484 126.86 32.1817 126.727 31.4217 126.593C30.4884 126.407 29.7884 126.087 29.3217 125.633C28.855 125.167 28.6217 124.553 28.6217 123.793C28.6217 122.94 28.935 122.273 29.5617 121.793C30.1884 121.313 31.0484 121.073 32.1417 121.073C33.755 121.073 34.8884 121.587 35.5417 122.613L34.4217 123.553C34.1017 123.167 33.7617 122.887 33.4017 122.713C33.055 122.54 32.635 122.453 32.1417 122.453C31.555 122.453 31.1017 122.573 30.7817 122.813C30.4617 123.053 30.3017 123.387 30.3017 123.813C30.3017 124.2 30.455 124.5 30.7617 124.713C31.0684 124.913 31.555 125.08 32.2217 125.213C33.1017 125.413 33.795 125.627 34.3017 125.853C34.8084 126.067 35.1884 126.36 35.4417 126.733C35.695 127.093 35.8217 127.573 35.8217 128.173C35.8217 130 34.5417 130.913 31.9817 130.913ZM39.7689 122.673V127.713C39.7689 128.287 39.8822 128.713 40.1089 128.993C40.3356 129.26 40.6956 129.393 41.1889 129.393H42.4689V130.773H41.1889C40.0556 130.773 39.2422 130.533 38.7489 130.053C38.2556 129.573 38.0089 128.793 38.0089 127.713V119.353C38.0089 119.073 37.9556 118.847 37.8489 118.673C37.7422 118.487 37.5489 118.287 37.2689 118.073L38.4489 117.033C38.9422 117.3 39.2822 117.607 39.4689 117.953C39.6689 118.287 39.7689 118.753 39.7689 119.353V121.293H42.4689V122.673H39.7689ZM55.3672 121.073C56.2872 121.073 56.9938 121.353 57.4872 121.913C57.9938 122.46 58.2472 123.247 58.2472 124.273V130.693H56.4872V124.493C56.4872 123.84 56.3472 123.34 56.0672 122.993C55.7872 122.633 55.3938 122.453 54.8872 122.453C54.2872 122.453 53.7672 122.687 53.3272 123.153C52.9005 123.607 52.6005 124.22 52.4272 124.993V130.693H50.6672V124.493C50.6672 123.84 50.5272 123.34 50.2472 122.993C49.9672 122.633 49.5738 122.453 49.0672 122.453C48.4672 122.453 47.9472 122.693 47.5072 123.173C47.0672 123.64 46.7672 124.247 46.6072 124.993V130.693H44.8472V123.393C44.8472 123.113 44.7938 122.887 44.6872 122.713C44.5805 122.527 44.3872 122.327 44.1072 122.113L45.2672 121.073C46.0672 121.473 46.5005 122.08 46.5672 122.893C46.8872 122.307 47.3005 121.86 47.8072 121.553C48.3138 121.233 48.8938 121.073 49.5472 121.073C50.2805 121.073 50.8738 121.26 51.3272 121.633C51.7938 121.993 52.1005 122.52 52.2472 123.213C52.4872 122.56 52.8805 122.04 53.4272 121.653C53.9872 121.267 54.6338 121.073 55.3672 121.073ZM68.7525 128.593C68.7525 128.873 68.8058 129.107 68.9125 129.293C69.0191 129.467 69.2125 129.66 69.4925 129.873L68.3125 130.913C67.6325 130.567 67.2191 130.073 67.0725 129.433C66.7525 129.887 66.3058 130.247 65.7325 130.513C65.1725 130.78 64.5258 130.913 63.7925 130.913C62.7925 130.913 62.0191 130.68 61.4725 130.213C60.9258 129.733 60.6525 129.047 60.6525 128.153C60.6525 127.233 60.9725 126.547 61.6125 126.093C62.2525 125.64 63.1325 125.353 64.2525 125.233L65.6125 125.073C66.1858 125.007 66.5591 124.907 66.7325 124.773C66.9191 124.627 67.0058 124.38 66.9925 124.033C66.9391 123.513 66.7258 123.1 66.3525 122.793C65.9925 122.487 65.4391 122.333 64.6925 122.333C64.1458 122.333 63.6791 122.427 63.2925 122.613C62.9058 122.787 62.5525 123.073 62.2325 123.473L61.0325 122.613C61.3658 122.107 61.8258 121.727 62.4125 121.473C63.0125 121.207 63.7725 121.073 64.6925 121.073C66.0391 121.073 67.0525 121.353 67.7325 121.913C68.4125 122.473 68.7525 123.287 68.7525 124.353V128.593ZM64.2125 129.613C65.0525 129.613 65.7258 129.393 66.2325 128.953C66.7525 128.513 67.0125 127.953 67.0125 127.273V125.933C66.7058 126.107 66.2325 126.22 65.5925 126.273L64.4125 126.393C63.0258 126.553 62.3325 127.12 62.3325 128.093C62.3325 128.587 62.4925 128.967 62.8125 129.233C63.1325 129.487 63.5991 129.613 64.2125 129.613ZM76.5431 121.073C77.5164 121.073 78.2698 121.353 78.8031 121.913C79.3498 122.473 79.6231 123.26 79.6231 124.273V130.693H77.8631V124.493C77.8631 123.853 77.7031 123.353 77.3831 122.993C77.0631 122.633 76.6231 122.453 76.0631 122.453C75.4364 122.453 74.8964 122.673 74.4431 123.113C73.9898 123.553 73.6564 124.147 73.4431 124.893V130.693H71.6831V123.393C71.6831 123.113 71.6298 122.887 71.5231 122.713C71.4164 122.527 71.2231 122.327 70.9431 122.113L72.1031 121.073C72.5298 121.313 72.8431 121.567 73.0431 121.833C73.2431 122.1 73.3698 122.447 73.4231 122.873C73.7298 122.313 74.1498 121.873 74.6831 121.553C75.2164 121.233 75.8364 121.073 76.5431 121.073Z" fill="black"/>
<path d="M385.111 97.22C383.271 97.22 381.865 96.7867 380.891 95.92C379.918 95.0533 379.431 93.7867 379.431 92.12V87.86C379.431 86.18 379.911 84.9133 380.871 84.06C381.845 83.2067 383.271 82.78 385.151 82.78C386.351 82.78 387.371 82.96 388.211 83.32C389.051 83.68 389.745 84.2267 390.291 84.96L388.891 86.02C388.438 85.4333 387.911 85 387.311 84.72C386.725 84.4267 385.998 84.28 385.131 84.28C382.598 84.28 381.331 85.4733 381.331 87.86V92.12C381.331 94.52 382.598 95.72 385.131 95.72C386.238 95.72 387.105 95.5133 387.731 95.1C388.371 94.6867 388.691 94.1133 388.691 93.38V92.32C388.691 91.7867 388.551 91.38 388.271 91.1C388.005 90.82 387.605 90.68 387.071 90.68H384.711V89.18H387.551C388.565 89.18 389.318 89.42 389.811 89.9C390.305 90.38 390.551 91.1133 390.551 92.1V93.5C390.551 94.6467 390.058 95.5533 389.071 96.22C388.098 96.8867 386.778 97.22 385.111 97.22ZM394.111 85.76C393.804 85.76 393.537 85.6533 393.311 85.44C393.097 85.2133 392.991 84.9467 392.991 84.64C392.991 84.3333 393.097 84.0733 393.311 83.86C393.537 83.6333 393.804 83.52 394.111 83.52C394.417 83.52 394.677 83.6333 394.891 83.86C395.117 84.0733 395.231 84.3333 395.231 84.64C395.231 84.9467 395.117 85.2133 394.891 85.44C394.677 85.6533 394.417 85.76 394.111 85.76ZM394.551 97.22C394.057 96.9533 393.711 96.6533 393.511 96.32C393.324 95.9733 393.231 95.5 393.231 94.9V87.6H394.991V94.9C394.991 95.18 395.044 95.4133 395.151 95.6C395.257 95.7733 395.451 95.9667 395.731 96.18L394.551 97.22ZM399.831 88.98V94.02C399.831 94.5933 399.945 95.02 400.171 95.3C400.398 95.5667 400.758 95.7 401.251 95.7H402.531V97.08H401.251C400.118 97.08 399.305 96.84 398.811 96.36C398.318 95.88 398.071 95.1 398.071 94.02V85.66C398.071 85.38 398.018 85.1533 397.911 84.98C397.805 84.7933 397.611 84.5933 397.331 84.38L398.511 83.34C399.005 83.6067 399.345 83.9133 399.531 84.26C399.731 84.5933 399.831 85.06 399.831 85.66V87.6H402.531V88.98H399.831ZM419.265 97L418.245 95.88C417.139 96.7733 415.725 97.22 414.005 97.22C412.539 97.22 411.372 96.86 410.505 96.14C409.639 95.42 409.205 94.4467 409.205 93.22C409.205 92.3 409.459 91.5467 409.965 90.96C410.485 90.36 411.239 89.78 412.225 89.22C411.665 88.58 411.245 88.0067 410.965 87.5C410.685 86.9933 410.545 86.46 410.545 85.9C410.545 84.94 410.865 84.18 411.505 83.62C412.159 83.06 413.039 82.78 414.145 82.78C415.225 82.78 416.085 83.0667 416.725 83.64C417.379 84.2 417.705 84.9667 417.705 85.94C417.705 86.7133 417.479 87.3667 417.025 87.9C416.585 88.42 415.859 88.9867 414.845 89.6L418.105 93.18C418.599 92.22 418.932 91.04 419.105 89.64H421.025C420.785 91.7067 420.245 93.36 419.405 94.6L421.585 97H419.265ZM414.145 84.3C413.639 84.3 413.225 84.4467 412.905 84.74C412.599 85.02 412.445 85.4067 412.445 85.9C412.445 86.3133 412.545 86.7 412.745 87.06C412.945 87.42 413.279 87.86 413.745 88.38C414.465 87.9533 414.985 87.5667 415.305 87.22C415.639 86.8733 415.805 86.4467 415.805 85.94C415.805 85.4467 415.652 85.0533 415.345 84.76C415.039 84.4533 414.639 84.3 414.145 84.3ZM414.005 95.72C415.245 95.72 416.265 95.34 417.065 94.58L413.345 90.46C412.585 90.8733 412.019 91.28 411.645 91.68C411.285 92.0667 411.105 92.58 411.105 93.22C411.105 93.98 411.365 94.5867 411.885 95.04C412.405 95.4933 413.112 95.72 414.005 95.72ZM434.135 97.22C432.295 97.22 430.888 96.7867 429.915 95.92C428.942 95.0533 428.455 93.7867 428.455 92.12V87.86C428.455 86.18 428.935 84.9133 429.895 84.06C430.868 83.2067 432.295 82.78 434.175 82.78C435.375 82.78 436.395 82.96 437.235 83.32C438.075 83.68 438.768 84.2267 439.315 84.96L437.915 86.02C437.462 85.4333 436.935 85 436.335 84.72C435.748 84.4267 435.022 84.28 434.155 84.28C431.622 84.28 430.355 85.4733 430.355 87.86V92.12C430.355 94.52 431.622 95.72 434.155 95.72C435.262 95.72 436.128 95.5133 436.755 95.1C437.395 94.6867 437.715 94.1133 437.715 93.38V92.32C437.715 91.7867 437.575 91.38 437.295 91.1C437.028 90.82 436.628 90.68 436.095 90.68H433.735V89.18H436.575C437.588 89.18 438.342 89.42 438.835 89.9C439.328 90.38 439.575 91.1133 439.575 92.1V93.5C439.575 94.6467 439.082 95.5533 438.095 96.22C437.122 96.8867 435.802 97.22 434.135 97.22ZM443.134 85.76C442.828 85.76 442.561 85.6533 442.334 85.44C442.121 85.2133 442.014 84.9467 442.014 84.64C442.014 84.3333 442.121 84.0733 442.334 83.86C442.561 83.6333 442.828 83.52 443.134 83.52C443.441 83.52 443.701 83.6333 443.914 83.86C444.141 84.0733 444.254 84.3333 444.254 84.64C444.254 84.9467 444.141 85.2133 443.914 85.44C443.701 85.6533 443.441 85.76 443.134 85.76ZM443.574 97.22C443.081 96.9533 442.734 96.6533 442.534 96.32C442.348 95.9733 442.254 95.5 442.254 94.9V87.6H444.014V94.9C444.014 95.18 444.068 95.4133 444.174 95.6C444.281 95.7733 444.474 95.9667 444.754 96.18L443.574 97.22ZM448.855 88.98V94.02C448.855 94.5933 448.968 95.02 449.195 95.3C449.421 95.5667 449.781 95.7 450.275 95.7H451.555V97.08H450.275C449.141 97.08 448.328 96.84 447.835 96.36C447.341 95.88 447.095 95.1 447.095 94.02V85.66C447.095 85.38 447.041 85.1533 446.935 84.98C446.828 84.7933 446.635 84.5933 446.355 84.38L447.535 83.34C448.028 83.6067 448.368 83.9133 448.555 84.26C448.755 84.5933 448.855 85.06 448.855 85.66V87.6H451.555V88.98H448.855ZM458.793 87.38C459.766 87.38 460.52 87.66 461.053 88.22C461.6 88.78 461.873 89.5667 461.873 90.58V97H460.113V90.8C460.113 90.16 459.953 89.66 459.633 89.3C459.326 88.94 458.893 88.76 458.333 88.76C457.693 88.76 457.146 88.98 456.693 89.42C456.24 89.86 455.906 90.4533 455.693 91.2V97H453.933V84.66C453.933 84.38 453.88 84.1533 453.773 83.98C453.666 83.7933 453.473 83.5933 453.193 83.38L454.353 82.34C454.86 82.6067 455.206 82.9133 455.393 83.26C455.593 83.5933 455.693 84.06 455.693 84.66V89.16C456 88.6 456.413 88.1667 456.933 87.86C457.466 87.54 458.086 87.38 458.793 87.38ZM472.71 94.88C472.71 95.16 472.763 95.3933 472.87 95.58C472.976 95.7533 473.17 95.9533 473.45 96.18L472.27 97.22C471.843 96.98 471.53 96.72 471.33 96.44C471.13 96.16 471.01 95.8 470.97 95.36C470.65 95.9467 470.223 96.4067 469.69 96.74C469.17 97.06 468.543 97.22 467.81 97.22C466.81 97.22 466.036 96.94 465.49 96.38C464.943 95.8067 464.67 94.9933 464.67 93.94V87.6H466.43V93.8C466.43 94.44 466.596 94.94 466.93 95.3C467.263 95.66 467.723 95.84 468.31 95.84C468.95 95.84 469.496 95.62 469.95 95.18C470.403 94.7267 470.736 94.12 470.95 93.36V87.6H472.71V94.88ZM480.706 97.22C479.319 97.22 478.299 96.7533 477.646 95.82V97H475.886V84.68C475.886 84.3867 475.833 84.1533 475.726 83.98C475.633 83.8067 475.439 83.6067 475.146 83.38L476.306 82.34C476.813 82.6067 477.159 82.9133 477.346 83.26C477.546 83.5933 477.646 84.0667 477.646 84.68V88.82C478.326 87.86 479.339 87.38 480.686 87.38C481.526 87.38 482.253 87.58 482.866 87.98C483.493 88.3667 483.973 88.9067 484.306 89.6C484.639 90.2933 484.806 91.0867 484.806 91.98V92.62C484.806 93.5133 484.639 94.3067 484.306 95C483.986 95.6933 483.513 96.24 482.886 96.64C482.273 97.0267 481.546 97.22 480.706 97.22ZM480.286 95.84C481.126 95.84 481.793 95.54 482.286 94.94C482.793 94.34 483.046 93.5667 483.046 92.62V91.98C483.046 91.0333 482.793 90.26 482.286 89.66C481.793 89.06 481.126 88.76 480.286 88.76C478.926 88.76 478.046 89.42 477.646 90.74V93.86C478.046 95.18 478.926 95.84 480.286 95.84Z" fill="black"/>
<path d="M226.569 310.24C226.569 308.827 226.949 307.767 227.709 307.06C228.469 306.353 229.662 306 231.289 306H236.069V307.5H231.289C230.315 307.5 229.602 307.727 229.149 308.18C228.695 308.62 228.469 309.307 228.469 310.24V312.64H235.089V314.16H228.469V320H226.569V310.24ZM238.746 308.76C238.439 308.76 238.172 308.653 237.946 308.44C237.732 308.213 237.626 307.947 237.626 307.64C237.626 307.333 237.732 307.073 237.946 306.86C238.172 306.633 238.439 306.52 238.746 306.52C239.052 306.52 239.312 306.633 239.526 306.86C239.752 307.073 239.866 307.333 239.866 307.64C239.866 307.947 239.752 308.213 239.526 308.44C239.312 308.653 239.052 308.76 238.746 308.76ZM239.186 320.22C238.692 319.953 238.346 319.653 238.146 319.32C237.959 318.973 237.866 318.5 237.866 317.9V310.6H239.626V317.9C239.626 318.18 239.679 318.413 239.786 318.6C239.892 318.773 240.086 318.967 240.366 319.18L239.186 320.22ZM251.826 311.42C251.546 311.633 251.353 311.833 251.246 312.02C251.139 312.193 251.086 312.42 251.086 312.7V320.56C251.086 321.733 250.773 322.6 250.146 323.16C249.519 323.72 248.539 324 247.206 324H244.726V322.62H247.206C247.913 322.62 248.439 322.447 248.786 322.1C249.146 321.767 249.326 321.253 249.326 320.56V318.56C248.673 319.52 247.659 320 246.286 320C245.019 320 244.013 319.587 243.266 318.76C242.533 317.933 242.166 316.813 242.166 315.4V314.98C242.166 314.087 242.326 313.293 242.646 312.6C242.979 311.907 243.453 311.367 244.066 310.98C244.693 310.58 245.433 310.38 246.286 310.38C246.966 310.38 247.573 310.513 248.106 310.78C248.639 311.047 249.086 311.433 249.446 311.94C249.499 311.593 249.613 311.3 249.786 311.06C249.959 310.82 250.246 310.593 250.646 310.38L251.826 311.42ZM246.686 318.62C247.379 318.62 247.939 318.453 248.366 318.12C248.793 317.787 249.113 317.28 249.326 316.6V313.76C249.113 313.08 248.786 312.58 248.346 312.26C247.919 311.927 247.366 311.76 246.686 311.76C245.846 311.76 245.173 312.06 244.666 312.66C244.173 313.26 243.926 314.033 243.926 314.98V315.4C243.926 316.347 244.173 317.12 244.666 317.72C245.159 318.32 245.833 318.62 246.686 318.62ZM264.791 310.38C265.711 310.38 266.418 310.66 266.911 311.22C267.418 311.767 267.671 312.553 267.671 313.58V320H265.911V313.8C265.911 313.147 265.771 312.647 265.491 312.3C265.211 311.94 264.818 311.76 264.311 311.76C263.711 311.76 263.191 311.993 262.751 312.46C262.324 312.913 262.024 313.527 261.851 314.3V320H260.091V313.8C260.091 313.147 259.951 312.647 259.671 312.3C259.391 311.94 258.998 311.76 258.491 311.76C257.891 311.76 257.371 312 256.931 312.48C256.491 312.947 256.191 313.553 256.031 314.3V320H254.271V312.7C254.271 312.42 254.218 312.193 254.111 312.02C254.004 311.833 253.811 311.633 253.531 311.42L254.691 310.38C255.491 310.78 255.924 311.387 255.991 312.2C256.311 311.613 256.724 311.167 257.231 310.86C257.738 310.54 258.318 310.38 258.971 310.38C259.704 310.38 260.298 310.567 260.751 310.94C261.218 311.3 261.524 311.827 261.671 312.52C261.911 311.867 262.304 311.347 262.851 310.96C263.411 310.573 264.058 310.38 264.791 310.38ZM278.176 317.9C278.176 318.18 278.23 318.413 278.336 318.6C278.443 318.773 278.636 318.967 278.916 319.18L277.736 320.22C277.056 319.873 276.643 319.38 276.496 318.74C276.176 319.193 275.73 319.553 275.156 319.82C274.596 320.087 273.95 320.22 273.216 320.22C272.216 320.22 271.443 319.987 270.896 319.52C270.35 319.04 270.076 318.353 270.076 317.46C270.076 316.54 270.396 315.853 271.036 315.4C271.676 314.947 272.556 314.66 273.676 314.54L275.036 314.38C275.61 314.313 275.983 314.213 276.156 314.08C276.343 313.933 276.43 313.687 276.416 313.34C276.363 312.82 276.15 312.407 275.776 312.1C275.416 311.793 274.863 311.64 274.116 311.64C273.57 311.64 273.103 311.733 272.716 311.92C272.33 312.093 271.976 312.38 271.656 312.78L270.456 311.92C270.79 311.413 271.25 311.033 271.836 310.78C272.436 310.513 273.196 310.38 274.116 310.38C275.463 310.38 276.476 310.66 277.156 311.22C277.836 311.78 278.176 312.593 278.176 313.66V317.9ZM273.636 318.92C274.476 318.92 275.15 318.7 275.656 318.26C276.176 317.82 276.436 317.26 276.436 316.58V315.24C276.13 315.413 275.656 315.527 275.016 315.58L273.836 315.7C272.45 315.86 271.756 316.427 271.756 317.4C271.756 317.893 271.916 318.273 272.236 318.54C272.556 318.793 273.023 318.92 273.636 318.92Z" fill="black"/>
<defs>
<filter id="filter0_d_146_38" x="119" y="33.7006" width="253" height="253" filterUnits="userSpaceOnUse" color-interpolation-filters="sRGB">
<feFlood flood-opacity="0" result="BackgroundImageFix"/>
<feColorMatrix in="SourceAlpha" type="matrix" values="0 0 0 0 0 0 0 0 0 0 0 0 0 0 0 0 0 0 127 0" result="hardAlpha"/>
<feMorphology radius="4" operator="dilate" in="SourceAlpha" result="effect1_dropShadow_146_38"/>
<feOffset dx="5" dy="6"/>
<feGaussianBlur stdDeviation="2"/>
<feComposite in2="hardAlpha" operator="out"/>
<feColorMatrix type="matrix" values="0 0 0 0 0 0 0 0 0 0 0 0 0 0 0 0 0 0 0.25 0"/>
<feBlend mode="normal" in2="BackgroundImageFix" result="effect1_dropShadow_146_38"/>
<feBlend mode="normal" in="SourceGraphic" in2="effect1_dropShadow_146_38" result="shape"/>
</filter>
<filter id="filter1_d_146_38" x="88" y="89" width="84" height="84" filterUnits="userSpaceOnUse" color-interpolation-filters="sRGB">
<feFlood flood-opacity="0" result="BackgroundImageFix"/>
<feColorMatrix in="SourceAlpha" type="matrix" values="0 0 0 0 0 0 0 0 0 0 0 0 0 0 0 0 0 0 127 0" result="hardAlpha"/>
<feOffset dx="2" dy="2"/>
<feGaussianBlur stdDeviation="2"/>
<feComposite in2="hardAlpha" operator="out"/>
<feColorMatrix type="matrix" values="0 0 0 0 0 0 0 0 0 0 0 0 0 0 0 0 0 0 0.25 0"/>
<feBlend mode="normal" in2="BackgroundImageFix" result="effect1_dropShadow_146_38"/>
<feBlend mode="normal" in="SourceGraphic" in2="effect1_dropShadow_146_38" result="shape"/>
</filter>
<filter id="filter2_d_146_38" x="212.445" y="221" width="84" height="84" filterUnits="userSpaceOnUse" color-interpolation-filters="sRGB">
<feFlood flood-opacity="0" result="BackgroundImageFix"/>
<feColorMatrix in="SourceAlpha" type="matrix" values="0 0 0 0 0 0 0 0 0 0 0 0 0 0 0 0 0 0 127 0" result="hardAlpha"/>
<feOffset dx="2" dy="2"/>
<feGaussianBlur stdDeviation="2"/>
<feComposite in2="hardAlpha" operator="out"/>
<feColorMatrix type="matrix" values="0 0 0 0 0 0 0 0 0 0 0 0 0 0 0 0 0 0 0.25 0"/>
<feBlend mode="normal" in2="BackgroundImageFix" result="effect1_dropShadow_146_38"/>
<feBlend mode="normal" in="SourceGraphic" in2="effect1_dropShadow_146_38" result="shape"/>
</filter>
<filter id="filter3_d_146_38" x="284" y="47" width="84" height="84" filterUnits="userSpaceOnUse" color-interpolation-filters="sRGB">
<feFlood flood-opacity="0" result="BackgroundImageFix"/>
<feColorMatrix in="SourceAlpha" type="matrix" values="0 0 0 0 0 0 0 0 0 0 0 0 0 0 0 0 0 0 127 0" result="hardAlpha"/>
<feOffset dx="2" dy="2"/>
<feGaussianBlur stdDeviation="2"/>
<feComposite in2="hardAlpha" operator="out"/>
<feColorMatrix type="matrix" values="0 0 0 0 0 0 0 0 0 0 0 0 0 0 0 0 0 0 0.25 0"/>
<feBlend mode="normal" in2="BackgroundImageFix" result="effect1_dropShadow_146_38"/>
<feBlend mode="normal" in="SourceGraphic" in2="effect1_dropShadow_146_38" result="shape"/>
</filter>
<clipPath id="clip0_146_38">
<rect width="33" height="50" fill="white" transform="translate(235.945 236)"/>
</clipPath>
</defs>
</svg>
