<svg width="485" height="325" viewBox="0 0 485 325" fill="none" xmlns="http://www.w3.org/2000/svg">
<g filter="url(#filter0_d_146_38)">
<circle cx="240.5" cy="154.201" r="116" stroke="black" stroke-width="5" shape-rendering="crispEdges"/>
</g>
<g filter="url(#filter1_d_146_38)">
<circle cx="132.5" cy="133.5" r="42.5" fill="#EEE7DB"/>
<circle cx="132.5" cy="133.5" r="40" stroke="black" stroke-width="5"/>
</g>
<path d="M162.224 136.986C164.323 120.549 152.715 105.522 136.308 103.422C119.901 101.323 104.814 112.931 102.714 129.338C100.615 145.745 112.223 160.802 128.63 162.932C145.067 165.031 160.094 153.423 162.224 136.986Z" fill="#FF6C37"/>
<path d="M142.907 121.599L130.37 133.705L126.835 130.291C139.164 118.386 140.382 119.419 142.907 121.599Z" fill="white"/>
<path d="M130.37 133.991C130.281 133.991 130.222 133.963 130.162 133.905L126.597 130.492C126.479 130.377 126.479 130.205 126.597 130.09C139.134 117.984 140.441 119.132 143.085 121.427C143.145 121.484 143.174 121.541 143.174 121.628C143.174 121.714 143.145 121.771 143.085 121.828L130.549 133.905C130.519 133.963 130.43 133.991 130.37 133.991ZM127.251 130.291L130.37 133.303L142.461 121.628C140.263 119.734 138.778 119.16 127.251 130.291Z" fill="#FF6C37"/>
<path d="M133.965 137.176L130.549 133.877L143.085 121.771C146.442 125.041 141.422 130.348 133.965 137.176Z" fill="white"/>
<path d="M133.965 137.462C133.876 137.462 133.816 137.434 133.757 137.376L130.341 134.077C130.281 134.02 130.281 133.963 130.281 133.877C130.281 133.791 130.311 133.733 130.37 133.676L142.907 121.57C143.026 121.455 143.204 121.455 143.323 121.57C144.095 122.259 144.511 123.234 144.482 124.238C144.422 127.422 140.679 131.467 134.203 137.376C134.113 137.434 134.024 137.462 133.965 137.462ZM130.964 133.877C132.866 135.741 133.668 136.487 133.965 136.774C138.956 132.184 143.798 127.48 143.828 124.238C143.858 123.492 143.561 122.746 143.056 122.173L130.964 133.877Z" fill="#FF6C37"/>
<path d="M126.894 130.377L129.42 132.815C129.479 132.873 129.479 132.93 129.42 132.988C129.39 133.016 129.39 133.016 129.36 133.016L124.132 134.106C123.864 134.135 123.627 133.963 123.567 133.705C123.537 133.561 123.597 133.418 123.686 133.332L126.716 130.406C126.776 130.348 126.865 130.32 126.894 130.377Z" fill="white"/>
<path d="M124.042 134.393C123.597 134.393 123.27 134.049 123.27 133.619C123.27 133.418 123.359 133.217 123.508 133.074L126.538 130.147C126.716 130.004 126.954 130.004 127.132 130.147L129.657 132.586C129.836 132.729 129.836 132.987 129.657 133.16C129.598 133.217 129.538 133.246 129.449 133.274L124.221 134.364C124.161 134.364 124.102 134.393 124.042 134.393ZM126.805 130.693L123.894 133.504C123.834 133.561 123.805 133.647 123.864 133.733C123.894 133.819 123.983 133.848 124.072 133.819L128.974 132.787L126.805 130.693Z" fill="#FF6C37"/>
<path d="M149.532 114.886C147.631 113.108 144.571 113.165 142.729 115.03C140.887 116.894 140.946 119.82 142.877 121.599C144.452 123.062 146.829 123.32 148.7 122.23L145.313 118.96L149.532 114.886Z" fill="white"/>
<path d="M146.205 123.177C143.382 123.177 141.095 120.968 141.095 118.243C141.095 115.517 143.382 113.309 146.205 113.309C147.512 113.309 148.789 113.796 149.74 114.686C149.799 114.743 149.829 114.8 149.829 114.886C149.829 114.972 149.799 115.03 149.74 115.087L145.729 118.96L148.878 122.001C148.997 122.115 148.997 122.287 148.878 122.402C148.849 122.431 148.849 122.431 148.819 122.46C148.047 122.919 147.126 123.177 146.205 123.177ZM146.205 113.911C143.709 113.911 141.689 115.862 141.719 118.271C141.719 120.681 143.739 122.632 146.234 122.603C146.918 122.603 147.601 122.46 148.225 122.144L145.105 119.161C145.046 119.103 145.016 119.046 145.016 118.96C145.016 118.874 145.046 118.816 145.105 118.759L149.086 114.915C148.284 114.255 147.274 113.911 146.205 113.911Z" fill="#FF6C37"/>
<path d="M149.621 114.972L149.562 114.915L145.313 118.96L148.67 122.201C148.997 122.001 149.324 121.771 149.591 121.513C151.493 119.706 151.493 116.78 149.621 114.972Z" fill="white"/>
<path d="M148.7 122.517C148.611 122.517 148.552 122.488 148.492 122.431L145.105 119.161C145.046 119.103 145.016 119.046 145.016 118.96C145.016 118.874 145.046 118.816 145.105 118.759L149.324 114.686C149.443 114.571 149.621 114.571 149.74 114.686L149.829 114.743C151.819 116.665 151.819 119.763 149.859 121.714C149.562 122.001 149.235 122.259 148.878 122.46C148.789 122.488 148.73 122.517 148.7 122.517ZM145.729 118.96L148.73 121.857C148.968 121.714 149.205 121.513 149.383 121.341C151.077 119.706 151.166 117.038 149.532 115.317L145.729 118.96Z" fill="#FF6C37"/>
<path d="M143.412 122.115C142.699 121.427 141.541 121.427 140.828 122.115L129.628 132.93L131.499 134.737L143.353 124.697C144.125 124.066 144.185 122.947 143.531 122.201C143.472 122.173 143.442 122.144 143.412 122.115Z" fill="white"/>
<path d="M131.469 135.024C131.38 135.024 131.321 134.996 131.262 134.938L129.39 133.131C129.271 133.016 129.271 132.844 129.39 132.729L140.59 121.915C141.422 121.111 142.759 121.111 143.59 121.915C144.422 122.718 144.422 124.009 143.59 124.812C143.561 124.841 143.531 124.869 143.501 124.898L131.648 134.938C131.618 134.996 131.559 135.024 131.469 135.024ZM130.043 132.93L131.499 134.336L143.145 124.468C143.798 123.951 143.858 123.005 143.323 122.374C142.788 121.743 141.808 121.685 141.154 122.202C141.125 122.23 141.095 122.259 141.035 122.288L130.043 132.93Z" fill="#FF6C37"/>
<path d="M121.042 145.237C120.923 145.294 120.864 145.409 120.893 145.523L121.398 147.589C121.517 147.876 121.339 148.22 121.012 148.306C120.775 148.392 120.507 148.306 120.359 148.134L117.091 145.007L127.756 134.709L131.44 134.766L133.935 137.176C133.341 137.663 129.746 141.02 121.042 145.237Z" fill="white"/>
<path d="M120.804 148.593C120.567 148.593 120.329 148.507 120.18 148.335L116.942 145.208C116.883 145.151 116.853 145.093 116.853 145.007C116.853 144.921 116.883 144.864 116.942 144.806L127.607 134.508C127.667 134.451 127.756 134.422 127.815 134.422L131.499 134.479C131.588 134.479 131.648 134.508 131.707 134.565L134.203 136.975C134.262 137.032 134.292 137.118 134.292 137.204C134.292 137.291 134.262 137.348 134.173 137.405L133.965 137.577C130.816 140.245 126.538 142.913 121.22 145.466L121.725 147.503C121.814 147.876 121.636 148.277 121.28 148.478C121.101 148.564 120.953 148.593 120.804 148.593ZM117.536 145.007L120.596 147.933C120.685 148.077 120.864 148.134 121.012 148.048C121.161 147.962 121.22 147.79 121.131 147.646L120.626 145.581C120.567 145.323 120.685 145.093 120.923 144.978C126.181 142.425 130.43 139.786 133.549 137.176L131.351 135.053L127.934 134.996L117.536 145.007Z" fill="#FF6C37"/>
<path d="M114.566 147.474L117.12 145.007L120.923 148.679L114.863 148.277C114.595 148.249 114.417 148.019 114.447 147.761C114.447 147.646 114.476 147.531 114.566 147.474Z" fill="white"/>
<path d="M120.923 148.937L114.833 148.536C114.387 148.507 114.09 148.134 114.12 147.704C114.15 147.531 114.209 147.359 114.358 147.245L116.913 144.778C117.031 144.663 117.21 144.663 117.328 144.778L121.131 148.449C121.22 148.536 121.25 148.65 121.19 148.765C121.131 148.88 121.042 148.937 120.923 148.937ZM117.12 145.409L114.774 147.675C114.684 147.732 114.684 147.876 114.774 147.933C114.803 147.962 114.833 147.99 114.892 147.99L120.151 148.335L117.12 145.409Z" fill="#FF6C37"/>
<path d="M126.716 136.028C126.538 136.028 126.419 135.885 126.419 135.741C126.419 135.655 126.449 135.598 126.508 135.541L129.39 132.758C129.509 132.643 129.687 132.643 129.806 132.758L131.677 134.565C131.767 134.651 131.796 134.737 131.767 134.852C131.737 134.938 131.648 135.024 131.529 135.053L126.776 136.028C126.746 136.028 126.716 136.028 126.716 136.028ZM129.598 133.36L127.637 135.254L130.846 134.594L129.598 133.36Z" fill="#FF6C37"/>
<path d="M131.44 134.766L128.172 135.454C127.934 135.512 127.697 135.368 127.637 135.139C127.607 134.995 127.637 134.852 127.756 134.737L129.568 132.987L131.44 134.766Z" fill="white"/>
<path d="M128.112 135.741C127.697 135.741 127.37 135.426 127.37 135.024C127.37 134.823 127.459 134.651 127.578 134.508L129.39 132.758C129.509 132.643 129.687 132.643 129.806 132.758L131.677 134.565C131.767 134.651 131.796 134.737 131.767 134.852C131.737 134.938 131.648 135.024 131.529 135.053L128.261 135.741C128.202 135.741 128.142 135.741 128.112 135.741ZM129.598 133.36L127.994 134.91C127.934 134.967 127.934 135.024 127.964 135.082C127.994 135.139 128.053 135.168 128.142 135.168L130.875 134.594L129.598 133.36Z" fill="#FF6C37"/>
<path d="M149.651 117.726C149.591 117.554 149.383 117.468 149.205 117.526C149.027 117.583 148.938 117.784 148.997 117.956C148.997 117.985 149.027 118.013 149.027 118.042C149.205 118.386 149.146 118.817 148.908 119.132C148.789 119.276 148.819 119.476 148.938 119.591C149.086 119.706 149.294 119.677 149.413 119.534C149.859 118.989 149.948 118.3 149.651 117.726Z" fill="#FF6C37"/>
<g filter="url(#filter2_d_146_38)">
<circle cx="257.5" cy="256.5" r="42.5" fill="#EEE7DB"/>
<circle cx="257.5" cy="256.5" r="40" stroke="black" stroke-width="5"/>
</g>
<g clip-path="url(#clip0_146_38)">
<path d="M248.482 284.913C253.714 284.913 257.96 280.813 257.96 275.761V266.609H248.482C243.25 266.609 239.004 270.709 239.004 275.761C239.004 280.813 243.25 284.913 248.482 284.913Z" fill="#0ACF83"/>
<path d="M239.004 257.456C239.004 252.404 243.25 248.304 248.482 248.304H257.96V266.609H248.482C243.25 266.609 239.004 262.508 239.004 257.456Z" fill="#A259FF"/>
<path d="M239.004 239.152C239.004 234.1 243.25 230 248.482 230H257.96V248.304H248.482C243.25 248.304 239.004 244.204 239.004 239.152Z" fill="#F24E1E"/>
<path d="M257.96 230H267.438C272.67 230 276.916 234.1 276.916 239.152C276.916 244.204 272.67 248.304 267.438 248.304H257.96V230Z" fill="#FF7262"/>
<path d="M276.916 257.456C276.916 262.508 272.67 266.609 267.438 266.609C262.206 266.609 257.96 262.508 257.96 257.456C257.96 252.404 262.206 248.304 267.438 248.304C272.67 248.304 276.916 252.404 276.916 257.456Z" fill="#1ABCFE"/>
</g>
<g filter="url(#filter3_d_146_38)">
<path d="M371 91.5C371 114.972 351.972 134 328.5 134C305.028 134 286 114.972 286 91.5C286 68.0279 305.028 49 328.5 49C351.972 49 371 68.0279 371 91.5Z" fill="#EEE7DB"/>
<path d="M368.5 91.5C368.5 113.591 350.591 131.5 328.5 131.5C306.409 131.5 288.5 113.591 288.5 91.5C288.5 69.4086 306.409 51.5 328.5 51.5C350.591 51.5 368.5 69.4086 368.5 91.5Z" stroke="black" stroke-width="5"/>
</g>
<path fill-rule="evenodd" clip-rule="evenodd" d="M329 61C312.425 61 299 74.7646 299 91.7588C299 105.37 307.587 116.866 319.512 120.941C321.012 121.21 321.575 120.288 321.575 119.48C321.575 118.75 321.538 116.327 321.538 113.751C314 115.174 312.05 111.867 311.45 110.137C311.113 109.253 309.65 106.523 308.375 105.793C307.325 105.216 305.825 103.793 308.337 103.755C310.7 103.716 312.387 105.985 312.95 106.908C315.65 111.56 319.963 110.253 321.688 109.445C321.95 107.446 322.737 106.1 323.6 105.331C316.925 104.562 309.95 101.909 309.95 90.144C309.95 86.799 311.113 84.0307 313.025 81.8775C312.725 81.1086 311.675 77.9558 313.325 73.7265C313.325 73.7265 315.837 72.919 321.575 76.8792C323.975 76.1872 326.525 75.8411 329.075 75.8411C331.625 75.8411 334.175 76.1872 336.575 76.8792C342.312 72.8806 344.825 73.7265 344.825 73.7265C346.475 77.9558 345.425 81.1086 345.125 81.8775C347.038 84.0307 348.2 86.7605 348.2 90.144C348.2 101.948 341.188 104.562 334.513 105.331C335.6 106.292 336.538 108.138 336.538 111.022C336.538 115.136 336.5 118.442 336.5 119.48C336.5 120.288 337.062 121.249 338.562 120.941C350.413 116.866 359 105.331 359 91.7588C359 74.7646 345.575 61 329 61Z" fill="#1B1F23"/>
<path d="M205.814 162.935C202.622 162.935 200.174 162.155 198.47 160.595C196.766 159.011 195.914 156.731 195.914 153.755V146.123C195.914 143.147 196.766 140.879 198.47 139.319C200.174 137.735 202.622 136.943 205.814 136.943C209.006 136.943 211.454 137.735 213.158 139.319C214.862 140.879 215.714 143.147 215.714 146.123V153.755C215.714 156.731 214.862 159.011 213.158 160.595C211.454 162.155 209.006 162.935 205.814 162.935ZM205.814 160.847C208.166 160.847 209.966 160.235 211.214 159.011C212.486 157.787 213.122 156.035 213.122 153.755V146.123C213.122 143.843 212.486 142.091 211.214 140.867C209.966 139.643 208.166 139.031 205.814 139.031C203.462 139.031 201.65 139.643 200.378 140.867C199.13 142.091 198.506 143.843 198.506 146.123V153.755C198.506 156.035 199.13 157.787 200.378 159.011C201.65 160.235 203.462 160.847 205.814 160.847ZM234.395 159.479C234.395 159.911 234.467 160.271 234.611 160.559C234.779 160.823 235.091 161.147 235.547 161.531L233.927 162.935C233.207 162.527 232.703 162.071 232.415 161.567C232.127 161.039 231.983 160.319 231.983 159.407V159.155C231.383 160.379 230.567 161.315 229.535 161.963C228.503 162.611 227.291 162.935 225.899 162.935C224.147 162.935 222.791 162.419 221.831 161.387C220.871 160.331 220.391 158.855 220.391 156.959V145.619H222.803V156.815C222.803 158.159 223.127 159.191 223.775 159.911C224.447 160.631 225.383 160.991 226.583 160.991C227.879 160.991 228.995 160.523 229.931 159.587C230.891 158.651 231.575 157.367 231.983 155.735V145.619H234.395V159.479ZM242.496 147.563V157.643C242.496 159.779 243.432 160.847 245.304 160.847H247.356V162.755H245.304C243.504 162.755 242.184 162.347 241.344 161.531C240.504 160.691 240.084 159.395 240.084 157.643V141.695C240.084 141.263 240 140.915 239.832 140.651C239.688 140.363 239.4 140.039 238.968 139.679L240.588 138.239C241.308 138.647 241.8 139.115 242.064 139.643C242.352 140.147 242.496 140.855 242.496 141.767V145.619H247.356V147.563H242.496ZM252.917 141.803C252.461 141.803 252.065 141.635 251.729 141.299C251.393 140.963 251.225 140.567 251.225 140.111C251.225 139.655 251.393 139.271 251.729 138.959C252.065 138.623 252.461 138.455 252.917 138.455C253.373 138.455 253.757 138.623 254.069 138.959C254.405 139.271 254.573 139.655 254.573 140.111C254.573 140.567 254.405 140.963 254.069 141.299C253.757 141.635 253.373 141.803 252.917 141.803ZM253.637 162.935C252.893 162.527 252.377 162.071 252.089 161.567C251.825 161.039 251.693 160.319 251.693 159.407V145.619H254.105V159.479C254.105 159.911 254.177 160.271 254.321 160.559C254.489 160.823 254.789 161.135 255.221 161.495L253.637 162.935ZM262.423 162.935C261.679 162.527 261.163 162.071 260.875 161.567C260.611 161.039 260.479 160.319 260.479 159.407V139.895C260.479 139.439 260.395 139.079 260.227 138.815C260.083 138.527 259.795 138.215 259.363 137.879L260.947 136.439C261.691 136.847 262.195 137.315 262.459 137.843C262.747 138.347 262.891 139.055 262.891 139.967V159.479C262.891 159.911 262.963 160.271 263.107 160.559C263.275 160.823 263.575 161.135 264.007 161.495L262.423 162.935ZM273.88 162.935C272.464 162.935 271.252 162.707 270.244 162.251C269.26 161.795 268.36 161.051 267.544 160.019L269.092 158.687C269.836 159.527 270.568 160.127 271.288 160.487C272.008 160.823 272.872 160.991 273.88 160.991C275.32 160.991 276.412 160.739 277.156 160.235C277.9 159.731 278.272 158.999 278.272 158.039C278.272 157.439 278.128 156.959 277.84 156.599C277.552 156.239 277.048 155.927 276.328 155.663C275.608 155.399 274.516 155.135 273.052 154.871C269.692 154.271 268.012 152.663 268.012 150.047C268.012 148.535 268.552 147.359 269.632 146.519C270.736 145.655 272.248 145.223 274.168 145.223C275.536 145.223 276.724 145.463 277.732 145.943C278.764 146.399 279.544 147.071 280.072 147.959L278.524 149.255C277.972 148.535 277.336 148.007 276.616 147.671C275.92 147.335 275.104 147.167 274.168 147.167C272.968 147.167 272.02 147.419 271.324 147.923C270.652 148.427 270.316 149.123 270.316 150.011C270.316 150.803 270.592 151.415 271.144 151.847C271.72 152.279 272.716 152.639 274.132 152.927C275.788 153.287 277.072 153.683 277.984 154.115C278.92 154.523 279.58 155.039 279.964 155.663C280.372 156.287 280.576 157.079 280.576 158.039C280.576 159.647 280 160.871 278.848 161.711C277.72 162.527 276.064 162.935 273.88 162.935Z" fill="black"/>
<path d="M5.92984 125H11.7698C13.2232 125 14.3165 125.353 15.0498 126.06C15.7965 126.767 16.1698 127.813 16.1698 129.2C16.1698 130.587 15.7965 131.633 15.0498 132.34C14.3165 133.047 13.2232 133.4 11.7698 133.4H7.82984V139H5.92984V125ZM11.7098 131.9C12.5098 131.9 13.1365 131.667 13.5898 131.2C14.0432 130.733 14.2698 130.067 14.2698 129.2C14.2698 128.333 14.0432 127.667 13.5898 127.2C13.1365 126.733 12.5098 126.5 11.7098 126.5H7.82984V131.9H11.7098ZM21.5164 139.22C20.2097 139.22 19.1964 138.907 18.4764 138.28C17.7697 137.64 17.4164 136.74 17.4164 135.58V133.02C17.4164 131.86 17.7697 130.967 18.4764 130.34C19.1964 129.7 20.2097 129.38 21.5164 129.38C22.8231 129.38 23.8297 129.7 24.5364 130.34C25.2431 130.967 25.5964 131.86 25.5964 133.02V135.58C25.5964 136.74 25.2431 137.64 24.5364 138.28C23.8297 138.907 22.8231 139.22 21.5164 139.22ZM21.5164 137.84C22.2497 137.84 22.8164 137.647 23.2164 137.26C23.6297 136.86 23.8364 136.3 23.8364 135.58V133.02C23.8364 132.3 23.6297 131.747 23.2164 131.36C22.8164 130.96 22.2497 130.76 21.5164 130.76C20.7697 130.76 20.1897 130.96 19.7764 131.36C19.3764 131.747 19.1764 132.3 19.1764 133.02V135.58C19.1764 136.3 19.3764 136.86 19.7764 137.26C20.1897 137.647 20.7697 137.84 21.5164 137.84ZM30.8722 139.22C29.9922 139.22 29.2789 139.093 28.7322 138.84C28.1989 138.573 27.7055 138.147 27.2522 137.56L28.3722 136.6C28.7589 137.053 29.1322 137.373 29.4922 137.56C29.8655 137.747 30.3255 137.84 30.8722 137.84C32.3255 137.84 33.0522 137.38 33.0522 136.46C33.0522 136.167 32.9722 135.933 32.8122 135.76C32.6655 135.573 32.3989 135.42 32.0122 135.3C31.6389 135.167 31.0722 135.033 30.3122 134.9C29.3789 134.713 28.6789 134.393 28.2122 133.94C27.7455 133.473 27.5122 132.86 27.5122 132.1C27.5122 131.247 27.8255 130.58 28.4522 130.1C29.0789 129.62 29.9389 129.38 31.0322 129.38C32.6455 129.38 33.7789 129.893 34.4322 130.92L33.3122 131.86C32.9922 131.473 32.6522 131.193 32.2922 131.02C31.9455 130.847 31.5255 130.76 31.0322 130.76C30.4455 130.76 29.9922 130.88 29.6722 131.12C29.3522 131.36 29.1922 131.693 29.1922 132.12C29.1922 132.507 29.3455 132.807 29.6522 133.02C29.9589 133.22 30.4455 133.387 31.1122 133.52C31.9922 133.72 32.6855 133.933 33.1922 134.16C33.6989 134.373 34.0789 134.667 34.3322 135.04C34.5855 135.4 34.7122 135.88 34.7122 136.48C34.7122 138.307 33.4322 139.22 30.8722 139.22ZM38.6594 130.98V136.02C38.6594 136.593 38.7727 137.02 38.9994 137.3C39.226 137.567 39.586 137.7 40.0794 137.7H41.3594V139.08H40.0794C38.946 139.08 38.1327 138.84 37.6394 138.36C37.146 137.88 36.8994 137.1 36.8994 136.02V127.66C36.8994 127.38 36.846 127.153 36.7394 126.98C36.6327 126.793 36.4394 126.593 36.1594 126.38L37.3394 125.34C37.8327 125.607 38.1727 125.913 38.3594 126.26C38.5594 126.593 38.6594 127.06 38.6594 127.66V129.6H41.3594V130.98H38.6594ZM54.2577 129.38C55.1777 129.38 55.8843 129.66 56.3777 130.22C56.8843 130.767 57.1377 131.553 57.1377 132.58V139H55.3777V132.8C55.3777 132.147 55.2377 131.647 54.9577 131.3C54.6777 130.94 54.2843 130.76 53.7777 130.76C53.1777 130.76 52.6577 130.993 52.2177 131.46C51.791 131.913 51.491 132.527 51.3177 133.3V139H49.5577V132.8C49.5577 132.147 49.4177 131.647 49.1377 131.3C48.8577 130.94 48.4643 130.76 47.9577 130.76C47.3577 130.76 46.8377 131 46.3977 131.48C45.9577 131.947 45.6577 132.553 45.4977 133.3V139H43.7377V131.7C43.7377 131.42 43.6843 131.193 43.5777 131.02C43.471 130.833 43.2777 130.633 42.9977 130.42L44.1577 129.38C44.9577 129.78 45.391 130.387 45.4577 131.2C45.7777 130.613 46.191 130.167 46.6977 129.86C47.2043 129.54 47.7843 129.38 48.4377 129.38C49.171 129.38 49.7643 129.567 50.2177 129.94C50.6843 130.3 50.991 130.827 51.1377 131.52C51.3777 130.867 51.771 130.347 52.3177 129.96C52.8777 129.573 53.5243 129.38 54.2577 129.38ZM67.643 136.9C67.643 137.18 67.6963 137.413 67.803 137.6C67.9096 137.773 68.103 137.967 68.383 138.18L67.203 139.22C66.523 138.873 66.1096 138.38 65.963 137.74C65.643 138.193 65.1963 138.553 64.623 138.82C64.063 139.087 63.4163 139.22 62.683 139.22C61.683 139.22 60.9096 138.987 60.363 138.52C59.8163 138.04 59.543 137.353 59.543 136.46C59.543 135.54 59.863 134.853 60.503 134.4C61.143 133.947 62.023 133.66 63.143 133.54L64.503 133.38C65.0763 133.313 65.4496 133.213 65.623 133.08C65.8096 132.933 65.8963 132.687 65.883 132.34C65.8296 131.82 65.6163 131.407 65.243 131.1C64.883 130.793 64.3296 130.64 63.583 130.64C63.0363 130.64 62.5696 130.733 62.183 130.92C61.7963 131.093 61.443 131.38 61.123 131.78L59.923 130.92C60.2563 130.413 60.7163 130.033 61.303 129.78C61.903 129.513 62.663 129.38 63.583 129.38C64.9296 129.38 65.943 129.66 66.623 130.22C67.303 130.78 67.643 131.593 67.643 132.66V136.9ZM63.103 137.92C63.943 137.92 64.6163 137.7 65.123 137.26C65.643 136.82 65.903 136.26 65.903 135.58V134.24C65.5963 134.413 65.123 134.527 64.483 134.58L63.303 134.7C61.9163 134.86 61.223 135.427 61.223 136.4C61.223 136.893 61.383 137.273 61.703 137.54C62.023 137.793 62.4896 137.92 63.103 137.92ZM75.4336 129.38C76.4069 129.38 77.1603 129.66 77.6936 130.22C78.2403 130.78 78.5136 131.567 78.5136 132.58V139H76.7536V132.8C76.7536 132.16 76.5936 131.66 76.2736 131.3C75.9536 130.94 75.5136 130.76 74.9536 130.76C74.3269 130.76 73.7869 130.98 73.3336 131.42C72.8803 131.86 72.5469 132.453 72.3336 133.2V139H70.5736V131.7C70.5736 131.42 70.5203 131.193 70.4136 131.02C70.3069 130.833 70.1136 130.633 69.8336 130.42L70.9936 129.38C71.4203 129.62 71.7336 129.873 71.9336 130.14C72.1336 130.407 72.2603 130.753 72.3136 131.18C72.6203 130.62 73.0403 130.18 73.5736 129.86C74.1069 129.54 74.7269 129.38 75.4336 129.38Z" fill="black"/>
<path d="M385.111 97.22C383.271 97.22 381.865 96.7867 380.891 95.92C379.918 95.0533 379.431 93.7867 379.431 92.12V87.86C379.431 86.18 379.911 84.9133 380.871 84.06C381.845 83.2067 383.271 82.78 385.151 82.78C386.351 82.78 387.371 82.96 388.211 83.32C389.051 83.68 389.745 84.2267 390.291 84.96L388.891 86.02C388.438 85.4333 387.911 85 387.311 84.72C386.725 84.4267 385.998 84.28 385.131 84.28C382.598 84.28 381.331 85.4733 381.331 87.86V92.12C381.331 94.52 382.598 95.72 385.131 95.72C386.238 95.72 387.105 95.5133 387.731 95.1C388.371 94.6867 388.691 94.1133 388.691 93.38V92.32C388.691 91.7867 388.551 91.38 388.271 91.1C388.005 90.82 387.605 90.68 387.071 90.68H384.711V89.18H387.551C388.565 89.18 389.318 89.42 389.811 89.9C390.305 90.38 390.551 91.1133 390.551 92.1V93.5C390.551 94.6467 390.058 95.5533 389.071 96.22C388.098 96.8867 386.778 97.22 385.111 97.22ZM394.111 85.76C393.804 85.76 393.537 85.6533 393.311 85.44C393.097 85.2133 392.991 84.9467 392.991 84.64C392.991 84.3333 393.097 84.0733 393.311 83.86C393.537 83.6333 393.804 83.52 394.111 83.52C394.417 83.52 394.677 83.6333 394.891 83.86C395.117 84.0733 395.231 84.3333 395.231 84.64C395.231 84.9467 395.117 85.2133 394.891 85.44C394.677 85.6533 394.417 85.76 394.111 85.76ZM394.551 97.22C394.057 96.9533 393.711 96.6533 393.511 96.32C393.324 95.9733 393.231 95.5 393.231 94.9V87.6H394.991V94.9C394.991 95.18 395.044 95.4133 395.151 95.6C395.257 95.7733 395.451 95.9667 395.731 96.18L394.551 97.22ZM399.831 88.98V94.02C399.831 94.5933 399.945 95.02 400.171 95.3C400.398 95.5667 400.758 95.7 401.251 95.7H402.531V97.08H401.251C400.118 97.08 399.305 96.84 398.811 96.36C398.318 95.88 398.071 95.1 398.071 94.02V85.66C398.071 85.38 398.018 85.1533 397.911 84.98C397.805 84.7933 397.611 84.5933 397.331 84.38L398.511 83.34C399.005 83.6067 399.345 83.9133 399.531 84.26C399.731 84.5933 399.831 85.06 399.831 85.66V87.6H402.531V88.98H399.831ZM419.265 97L418.245 95.88C417.139 96.7733 415.725 97.22 414.005 97.22C412.539 97.22 411.372 96.86 410.505 96.14C409.639 95.42 409.205 94.4467 409.205 93.22C409.205 92.3 409.459 91.5467 409.965 90.96C410.485 90.36 411.239 89.78 412.225 89.22C411.665 88.58 411.245 88.0067 410.965 87.5C410.685 86.9933 410.545 86.46 410.545 85.9C410.545 84.94 410.865 84.18 411.505 83.62C412.159 83.06 413.039 82.78 414.145 82.78C415.225 82.78 416.085 83.0667 416.725 83.64C417.379 84.2 417.705 84.9667 417.705 85.94C417.705 86.7133 417.479 87.3667 417.025 87.9C416.585 88.42 415.859 88.9867 414.845 89.6L418.105 93.18C418.599 92.22 418.932 91.04 419.105 89.64H421.025C420.785 91.7067 420.245 93.36 419.405 94.6L421.585 97H419.265ZM414.145 84.3C413.639 84.3 413.225 84.4467 412.905 84.74C412.599 85.02 412.445 85.4067 412.445 85.9C412.445 86.3133 412.545 86.7 412.745 87.06C412.945 87.42 413.279 87.86 413.745 88.38C414.465 87.9533 414.985 87.5667 415.305 87.22C415.639 86.8733 415.805 86.4467 415.805 85.94C415.805 85.4467 415.652 85.0533 415.345 84.76C415.039 84.4533 414.639 84.3 414.145 84.3ZM414.005 95.72C415.245 95.72 416.265 95.34 417.065 94.58L413.345 90.46C412.585 90.8733 412.019 91.28 411.645 91.68C411.285 92.0667 411.105 92.58 411.105 93.22C411.105 93.98 411.365 94.5867 411.885 95.04C412.405 95.4933 413.112 95.72 414.005 95.72ZM434.135 97.22C432.295 97.22 430.888 96.7867 429.915 95.92C428.942 95.0533 428.455 93.7867 428.455 92.12V87.86C428.455 86.18 428.935 84.9133 429.895 84.06C430.868 83.2067 432.295 82.78 434.175 82.78C435.375 82.78 436.395 82.96 437.235 83.32C438.075 83.68 438.768 84.2267 439.315 84.96L437.915 86.02C437.462 85.4333 436.935 85 436.335 84.72C435.748 84.4267 435.022 84.28 434.155 84.28C431.622 84.28 430.355 85.4733 430.355 87.86V92.12C430.355 94.52 431.622 95.72 434.155 95.72C435.262 95.72 436.128 95.5133 436.755 95.1C437.395 94.6867 437.715 94.1133 437.715 93.38V92.32C437.715 91.7867 437.575 91.38 437.295 91.1C437.028 90.82 436.628 90.68 436.095 90.68H433.735V89.18H436.575C437.588 89.18 438.342 89.42 438.835 89.9C439.328 90.38 439.575 91.1133 439.575 92.1V93.5C439.575 94.6467 439.082 95.5533 438.095 96.22C437.122 96.8867 435.802 97.22 434.135 97.22ZM443.134 85.76C442.828 85.76 442.561 85.6533 442.334 85.44C442.121 85.2133 442.014 84.9467 442.014 84.64C442.014 84.3333 442.121 84.0733 442.334 83.86C442.561 83.6333 442.828 83.52 443.134 83.52C443.441 83.52 443.701 83.6333 443.914 83.86C444.141 84.0733 444.254 84.3333 444.254 84.64C444.254 84.9467 444.141 85.2133 443.914 85.44C443.701 85.6533 443.441 85.76 443.134 85.76ZM443.574 97.22C443.081 96.9533 442.734 96.6533 442.534 96.32C442.348 95.9733 442.254 95.5 442.254 94.9V87.6H444.014V94.9C444.014 95.18 444.068 95.4133 444.174 95.6C444.281 95.7733 444.474 95.9667 444.754 96.18L443.574 97.22ZM448.855 88.98V94.02C448.855 94.5933 448.968 95.02 449.195 95.3C449.421 95.5667 449.781 95.7 450.275 95.7H451.555V97.08H450.275C449.141 97.08 448.328 96.84 447.835 96.36C447.341 95.88 447.095 95.1 447.095 94.02V85.66C447.095 85.38 447.041 85.1533 446.935 84.98C446.828 84.7933 446.635 84.5933 446.355 84.38L447.535 83.34C448.028 83.6067 448.368 83.9133 448.555 84.26C448.755 84.5933 448.855 85.06 448.855 85.66V87.6H451.555V88.98H448.855ZM458.793 87.38C459.766 87.38 460.52 87.66 461.053 88.22C461.6 88.78 461.873 89.5667 461.873 90.58V97H460.113V90.8C460.113 90.16 459.953 89.66 459.633 89.3C459.326 88.94 458.893 88.76 458.333 88.76C457.693 88.76 457.146 88.98 456.693 89.42C456.24 89.86 455.906 90.4533 455.693 91.2V97H453.933V84.66C453.933 84.38 453.88 84.1533 453.773 83.98C453.666 83.7933 453.473 83.5933 453.193 83.38L454.353 82.34C454.86 82.6067 455.206 82.9133 455.393 83.26C455.593 83.5933 455.693 84.06 455.693 84.66V89.16C456 88.6 456.413 88.1667 456.933 87.86C457.466 87.54 458.086 87.38 458.793 87.38ZM472.71 94.88C472.71 95.16 472.763 95.3933 472.87 95.58C472.976 95.7533 473.17 95.9533 473.45 96.18L472.27 97.22C471.843 96.98 471.53 96.72 471.33 96.44C471.13 96.16 471.01 95.8 470.97 95.36C470.65 95.9467 470.223 96.4067 469.69 96.74C469.17 97.06 468.543 97.22 467.81 97.22C466.81 97.22 466.036 96.94 465.49 96.38C464.943 95.8067 464.67 94.9933 464.67 93.94V87.6H466.43V93.8C466.43 94.44 466.596 94.94 466.93 95.3C467.263 95.66 467.723 95.84 468.31 95.84C468.95 95.84 469.496 95.62 469.95 95.18C470.403 94.7267 470.736 94.12 470.95 93.36V87.6H472.71V94.88ZM480.706 97.22C479.319 97.22 478.299 96.7533 477.646 95.82V97H475.886V84.68C475.886 84.3867 475.833 84.1533 475.726 83.98C475.633 83.8067 475.439 83.6067 475.146 83.38L476.306 82.34C476.813 82.6067 477.159 82.9133 477.346 83.26C477.546 83.5933 477.646 84.0667 477.646 84.68V88.82C478.326 87.86 479.339 87.38 480.686 87.38C481.526 87.38 482.253 87.58 482.866 87.98C483.493 88.3667 483.973 88.9067 484.306 89.6C484.639 90.2933 484.806 91.0867 484.806 91.98V92.62C484.806 93.5133 484.639 94.3067 484.306 95C483.986 95.6933 483.513 96.24 482.886 96.64C482.273 97.0267 481.546 97.22 480.706 97.22ZM480.286 95.84C481.126 95.84 481.793 95.54 482.286 94.94C482.793 94.34 483.046 93.5667 483.046 92.62V91.98C483.046 91.0333 482.793 90.26 482.286 89.66C481.793 89.06 481.126 88.76 480.286 88.76C478.926 88.76 478.046 89.42 477.646 90.74V93.86C478.046 95.18 478.926 95.84 480.286 95.84Z" fill="black"/>
<path d="M231.623 310.24C231.623 308.827 232.003 307.767 232.763 307.06C233.523 306.353 234.717 306 236.343 306H241.123V307.5H236.343C235.37 307.5 234.657 307.727 234.203 308.18C233.75 308.62 233.523 309.307 233.523 310.24V312.64H240.143V314.16H233.523V320H231.623V310.24ZM243.8 308.76C243.494 308.76 243.227 308.653 243 308.44C242.787 308.213 242.68 307.947 242.68 307.64C242.68 307.333 242.787 307.073 243 306.86C243.227 306.633 243.494 306.52 243.8 306.52C244.107 306.52 244.367 306.633 244.58 306.86C244.807 307.073 244.92 307.333 244.92 307.64C244.92 307.947 244.807 308.213 244.58 308.44C244.367 308.653 244.107 308.76 243.8 308.76ZM244.24 320.22C243.747 319.953 243.4 319.653 243.2 319.32C243.014 318.973 242.92 318.5 242.92 317.9V310.6H244.68V317.9C244.68 318.18 244.734 318.413 244.84 318.6C244.947 318.773 245.14 318.967 245.42 319.18L244.24 320.22ZM256.881 311.42C256.601 311.633 256.407 311.833 256.301 312.02C256.194 312.193 256.141 312.42 256.141 312.7V320.56C256.141 321.733 255.827 322.6 255.201 323.16C254.574 323.72 253.594 324 252.261 324H249.781V322.62H252.261C252.967 322.62 253.494 322.447 253.841 322.1C254.201 321.767 254.381 321.253 254.381 320.56V318.56C253.727 319.52 252.714 320 251.341 320C250.074 320 249.067 319.587 248.321 318.76C247.587 317.933 247.221 316.813 247.221 315.4V314.98C247.221 314.087 247.381 313.293 247.701 312.6C248.034 311.907 248.507 311.367 249.121 310.98C249.747 310.58 250.487 310.38 251.341 310.38C252.021 310.38 252.627 310.513 253.161 310.78C253.694 311.047 254.141 311.433 254.501 311.94C254.554 311.593 254.667 311.3 254.841 311.06C255.014 310.82 255.301 310.593 255.701 310.38L256.881 311.42ZM251.741 318.62C252.434 318.62 252.994 318.453 253.421 318.12C253.847 317.787 254.167 317.28 254.381 316.6V313.76C254.167 313.08 253.841 312.58 253.401 312.26C252.974 311.927 252.421 311.76 251.741 311.76C250.901 311.76 250.227 312.06 249.721 312.66C249.227 313.26 248.981 314.033 248.981 314.98V315.4C248.981 316.347 249.227 317.12 249.721 317.72C250.214 318.32 250.887 318.62 251.741 318.62ZM269.846 310.38C270.766 310.38 271.472 310.66 271.966 311.22C272.472 311.767 272.726 312.553 272.726 313.58V320H270.966V313.8C270.966 313.147 270.826 312.647 270.546 312.3C270.266 311.94 269.872 311.76 269.366 311.76C268.766 311.76 268.246 311.993 267.806 312.46C267.379 312.913 267.079 313.527 266.906 314.3V320H265.146V313.8C265.146 313.147 265.006 312.647 264.726 312.3C264.446 311.94 264.052 311.76 263.546 311.76C262.946 311.76 262.426 312 261.986 312.48C261.546 312.947 261.246 313.553 261.086 314.3V320H259.326V312.7C259.326 312.42 259.272 312.193 259.166 312.02C259.059 311.833 258.866 311.633 258.586 311.42L259.746 310.38C260.546 310.78 260.979 311.387 261.046 312.2C261.366 311.613 261.779 311.167 262.286 310.86C262.792 310.54 263.372 310.38 264.026 310.38C264.759 310.38 265.352 310.567 265.806 310.94C266.272 311.3 266.579 311.827 266.726 312.52C266.966 311.867 267.359 311.347 267.906 310.96C268.466 310.573 269.112 310.38 269.846 310.38ZM283.231 317.9C283.231 318.18 283.284 318.413 283.391 318.6C283.498 318.773 283.691 318.967 283.971 319.18L282.791 320.22C282.111 319.873 281.698 319.38 281.551 318.74C281.231 319.193 280.784 319.553 280.211 319.82C279.651 320.087 279.004 320.22 278.271 320.22C277.271 320.22 276.498 319.987 275.951 319.52C275.404 319.04 275.131 318.353 275.131 317.46C275.131 316.54 275.451 315.853 276.091 315.4C276.731 314.947 277.611 314.66 278.731 314.54L280.091 314.38C280.664 314.313 281.038 314.213 281.211 314.08C281.398 313.933 281.484 313.687 281.471 313.34C281.418 312.82 281.204 312.407 280.831 312.1C280.471 311.793 279.918 311.64 279.171 311.64C278.624 311.64 278.158 311.733 277.771 311.92C277.384 312.093 277.031 312.38 276.711 312.78L275.511 311.92C275.844 311.413 276.304 311.033 276.891 310.78C277.491 310.513 278.251 310.38 279.171 310.38C280.518 310.38 281.531 310.66 282.211 311.22C282.891 311.78 283.231 312.593 283.231 313.66V317.9ZM278.691 318.92C279.531 318.92 280.204 318.7 280.711 318.26C281.231 317.82 281.491 317.26 281.491 316.58V315.24C281.184 315.413 280.711 315.527 280.071 315.58L278.891 315.7C277.504 315.86 276.811 316.427 276.811 317.4C276.811 317.893 276.971 318.273 277.291 318.54C277.611 318.793 278.078 318.92 278.691 318.92Z" fill="black"/>
<defs>
<filter id="filter0_d_146_38" x="119" y="33.7006" width="253" height="253" filterUnits="userSpaceOnUse" color-interpolation-filters="sRGB">
<feFlood flood-opacity="0" result="BackgroundImageFix"/>
<feColorMatrix in="SourceAlpha" type="matrix" values="0 0 0 0 0 0 0 0 0 0 0 0 0 0 0 0 0 0 127 0" result="hardAlpha"/>
<feMorphology radius="4" operator="dilate" in="SourceAlpha" result="effect1_dropShadow_146_38"/>
<feOffset dx="5" dy="6"/>
<feGaussianBlur stdDeviation="2"/>
<feComposite in2="hardAlpha" operator="out"/>
<feColorMatrix type="matrix" values="0 0 0 0 0 0 0 0 0 0 0 0 0 0 0 0 0 0 0.25 0"/>
<feBlend mode="normal" in2="BackgroundImageFix" result="effect1_dropShadow_146_38"/>
<feBlend mode="normal" in="SourceGraphic" in2="effect1_dropShadow_146_38" result="shape"/>
</filter>
<filter id="filter1_d_146_38" x="88" y="89" width="93" height="93" filterUnits="userSpaceOnUse" color-interpolation-filters="sRGB">
<feFlood flood-opacity="0" result="BackgroundImageFix"/>
<feColorMatrix in="SourceAlpha" type="matrix" values="0 0 0 0 0 0 0 0 0 0 0 0 0 0 0 0 0 0 127 0" result="hardAlpha"/>
<feOffset dx="2" dy="2"/>
<feGaussianBlur stdDeviation="2"/>
<feComposite in2="hardAlpha" operator="out"/>
<feColorMatrix type="matrix" values="0 0 0 0 0 0 0 0 0 0 0 0 0 0 0 0 0 0 0.25 0"/>
<feBlend mode="normal" in2="BackgroundImageFix" result="effect1_dropShadow_146_38"/>
<feBlend mode="normal" in="SourceGraphic" in2="effect1_dropShadow_146_38" result="shape"/>
</filter>
<filter id="filter2_d_146_38" x="213" y="212" width="93" height="93" filterUnits="userSpaceOnUse" color-interpolation-filters="sRGB">
<feFlood flood-opacity="0" result="BackgroundImageFix"/>
<feColorMatrix in="SourceAlpha" type="matrix" values="0 0 0 0 0 0 0 0 0 0 0 0 0 0 0 0 0 0 127 0" result="hardAlpha"/>
<feOffset dx="2" dy="2"/>
<feGaussianBlur stdDeviation="2"/>
<feComposite in2="hardAlpha" operator="out"/>
<feColorMatrix type="matrix" values="0 0 0 0 0 0 0 0 0 0 0 0 0 0 0 0 0 0 0.25 0"/>
<feBlend mode="normal" in2="BackgroundImageFix" result="effect1_dropShadow_146_38"/>
<feBlend mode="normal" in="SourceGraphic" in2="effect1_dropShadow_146_38" result="shape"/>
</filter>
<filter id="filter3_d_146_38" x="284" y="47" width="93" height="93" filterUnits="userSpaceOnUse" color-interpolation-filters="sRGB">
<feFlood flood-opacity="0" result="BackgroundImageFix"/>
<feColorMatrix in="SourceAlpha" type="matrix" values="0 0 0 0 0 0 0 0 0 0 0 0 0 0 0 0 0 0 127 0" result="hardAlpha"/>
<feOffset dx="2" dy="2"/>
<feGaussianBlur stdDeviation="2"/>
<feComposite in2="hardAlpha" operator="out"/>
<feColorMatrix type="matrix" values="0 0 0 0 0 0 0 0 0 0 0 0 0 0 0 0 0 0 0.25 0"/>
<feBlend mode="normal" in2="BackgroundImageFix" result="effect1_dropShadow_146_38"/>
<feBlend mode="normal" in="SourceGraphic" in2="effect1_dropShadow_146_38" result="shape"/>
</filter>
<clipPath id="clip0_146_38">
<rect width="37.92" height="54.913" fill="white" transform="translate(239 230)"/>
</clipPath>
</defs>
</svg>
